<?xml version="1.0" encoding="UTF-8" standalone="no"?>
<!DOCTYPE svg PUBLIC "-//W3C//DTD SVG 1.1//EN"
 "http://www.w3.org/Graphics/SVG/1.1/DTD/svg11.dtd">
<!-- Generated by graphviz version 2.38.0 (20140413.2041)
 -->
<!-- Title: %3 Pages: 1 -->
<svg width="272pt" height="188pt"
 viewBox="0.00 0.00 272.49 188.00" xmlns="http://www.w3.org/2000/svg" xmlns:xlink="http://www.w3.org/1999/xlink">
<g id="graph0" class="graph" transform="scale(1 1) rotate(0) translate(4 184)">
<title>%3</title>
<polygon fill="white" stroke="none" points="-4,4 -4,-184 268.489,-184 268.489,4 -4,4"/>
<!-- BarBehaviour -->
<g id="node1" class="node"><title>BarBehaviour</title>
<ellipse fill="none" stroke="black" cx="123.945" cy="-162" rx="59.5901" ry="18"/>
<text text-anchor="middle" x="123.945" y="-158.3" font-family="Times New Roman,serif" font-size="14.00">BarBehaviour</text>
</g>
<!-- IBarDisplay -->
<g id="node2" class="node"><title>IBarDisplay</title>
<ellipse fill="none" stroke="black" stroke-dasharray="5,2" cx="53.9452" cy="-90" rx="53.8905" ry="18"/>
<text text-anchor="middle" x="53.9452" y="-86.3" font-family="Times New Roman,serif" font-size="14.00">IBarDisplay</text>
</g>
<!-- BarBehaviour&#45;&gt;IBarDisplay -->
<g id="edge2" class="edge"><title>BarBehaviour&#45;&gt;IBarDisplay</title>
<path fill="none" stroke="black" stroke-dasharray="5,2" d="M107.356,-144.411C98.4642,-135.519 87.3559,-124.411 77.5761,-114.631"/>
<polygon fill="black" stroke="black" points="79.9611,-112.066 70.4152,-107.47 75.0114,-117.016 79.9611,-112.066"/>
</g>
<!-- MonoBehaviour -->
<g id="node4" class="node"><title>MonoBehaviour</title>
<ellipse fill="none" stroke="black" cx="194.945" cy="-90" rx="69.5877" ry="18"/>
<text text-anchor="middle" x="194.945" y="-86.3" font-family="Times New Roman,serif" font-size="14.00">MonoBehaviour</text>
</g>
<!-- BarBehaviour&#45;&gt;MonoBehaviour -->
<g id="edge1" class="edge"><title>BarBehaviour&#45;&gt;MonoBehaviour</title>
<path fill="none" stroke="black" stroke-width="2" d="M140.771,-144.411C149.66,-135.648 160.731,-124.732 170.545,-115.057"/>
<polygon fill="black" stroke="black" stroke-width="2" points="173.083,-117.469 177.747,-107.956 168.168,-112.485 173.083,-117.469"/>
</g>
<!-- IFlipX -->
<g id="node3" class="node"><title>IFlipX</title>
<ellipse fill="none" stroke="black" stroke-dasharray="5,2" cx="53.9452" cy="-18" rx="34.394" ry="18"/>
<text text-anchor="middle" x="53.9452" y="-14.3" font-family="Times New Roman,serif" font-size="14.00">IFlipX</text>
</g>
<!-- IBarDisplay&#45;&gt;IFlipX -->
<g id="edge3" class="edge"><title>IBarDisplay&#45;&gt;IFlipX</title>
<path fill="none" stroke="black" stroke-dasharray="5,2" d="M53.9452,-71.6966C53.9452,-63.9827 53.9452,-54.7125 53.9452,-46.1124"/>
<polygon fill="black" stroke="black" points="57.4453,-46.1043 53.9452,-36.1043 50.4453,-46.1044 57.4453,-46.1043"/>
</g>
</g>
</svg>
