<?xml version="1.0" encoding="UTF-8" standalone="no"?>
<!DOCTYPE svg PUBLIC "-//W3C//DTD SVG 1.1//EN"
 "http://www.w3.org/Graphics/SVG/1.1/DTD/svg11.dtd">
<!-- Generated by graphviz version 2.38.0 (20140413.2041)
 -->
<!-- Title: %3 Pages: 1 -->
<svg width="2832pt" height="332pt"
 viewBox="0.00 0.00 2831.59 332.00" xmlns="http://www.w3.org/2000/svg" xmlns:xlink="http://www.w3.org/1999/xlink">
<g id="graph0" class="graph" transform="scale(1 1) rotate(0) translate(4 328)">
<title>%3</title>
<polygon fill="white" stroke="none" points="-4,4 -4,-328 2827.59,-328 2827.59,4 -4,4"/>
<!-- IBarDisplay -->
<g id="node1" class="node"><title>IBarDisplay</title>
<ellipse fill="none" stroke="black" stroke-dasharray="5,2" cx="751.591" cy="-90" rx="53.8905" ry="18"/>
<text text-anchor="middle" x="751.591" y="-86.3" font-family="Times New Roman,serif" font-size="14.00">IBarDisplay</text>
</g>
<!-- IFlipX -->
<g id="node22" class="node"><title>IFlipX</title>
<ellipse fill="none" stroke="black" stroke-dasharray="5,2" cx="792.591" cy="-18" rx="34.394" ry="18"/>
<text text-anchor="middle" x="792.591" y="-14.3" font-family="Times New Roman,serif" font-size="14.00">IFlipX</text>
</g>
<!-- IBarDisplay&#45;&gt;IFlipX -->
<g id="edge1" class="edge"><title>IBarDisplay&#45;&gt;IFlipX</title>
<path fill="none" stroke="black" stroke-dasharray="5,2" d="M761.515,-72.055C766.421,-63.6793 772.44,-53.4039 777.869,-44.1341"/>
<polygon fill="black" stroke="black" points="781.005,-45.7048 783.039,-35.307 774.965,-42.1669 781.005,-45.7048"/>
</g>
<!-- Debug -->
<g id="node2" class="node"><title>Debug</title>
<ellipse fill="#e5e5e5" stroke="black" cx="1786.59" cy="-18" rx="34.394" ry="18"/>
<text text-anchor="middle" x="1786.59" y="-14.3" font-family="Times New Roman,serif" font-size="14.00">Debug</text>
</g>
<!-- BaseCreatureBehaviour -->
<g id="node3" class="node"><title>BaseCreatureBehaviour</title>
<ellipse fill="none" stroke="black" cx="1890.59" cy="-306" rx="95.5831" ry="18"/>
<text text-anchor="middle" x="1890.59" y="-302.3" font-family="Times New Roman,serif" font-size="14.00">BaseCreatureBehaviour</text>
</g>
<!-- ICreatureControllerWrapper -->
<g id="node5" class="node"><title>ICreatureControllerWrapper</title>
<ellipse fill="none" stroke="black" stroke-dasharray="5,2" cx="2051.59" cy="-234" rx="113.18" ry="18"/>
<text text-anchor="middle" x="2051.59" y="-230.3" font-family="Times New Roman,serif" font-size="14.00">ICreatureControllerWrapper</text>
</g>
<!-- BaseCreatureBehaviour&#45;&gt;ICreatureControllerWrapper -->
<g id="edge3" class="edge"><title>BaseCreatureBehaviour&#45;&gt;ICreatureControllerWrapper</title>
<path fill="none" stroke="black" stroke-dasharray="5,2" d="M1926.72,-289.291C1949.99,-279.175 1980.44,-265.934 2005.45,-255.061"/>
<polygon fill="black" stroke="black" points="2006.97,-258.218 2014.74,-251.021 2004.18,-251.798 2006.97,-258.218"/>
</g>
<!-- CreaturePhysicsProperties -->
<g id="node7" class="node"><title>CreaturePhysicsProperties</title>
<ellipse fill="none" stroke="black" cx="1424.59" cy="-162" rx="106.681" ry="18"/>
<text text-anchor="middle" x="1424.59" y="-158.3" font-family="Times New Roman,serif" font-size="14.00">CreaturePhysicsProperties</text>
</g>
<!-- BaseCreatureBehaviour&#45;&gt;CreaturePhysicsProperties -->
<g id="edge8" class="edge"><title>BaseCreatureBehaviour&#45;&gt;CreaturePhysicsProperties</title>
<path fill="none" stroke="black" d="M1795.88,-303.239C1688.14,-299.507 1520.55,-287.915 1469.59,-252 1448.89,-237.409 1437.15,-210.432 1430.89,-189.989"/>
<polygon fill="black" stroke="black" points="1434.24,-188.964 1428.18,-180.278 1427.5,-190.852 1434.24,-188.964"/>
</g>
<!-- CreaturePhysics -->
<g id="node8" class="node"><title>CreaturePhysics</title>
<ellipse fill="none" stroke="black" cx="1270.59" cy="-234" rx="69.5877" ry="18"/>
<text text-anchor="middle" x="1270.59" y="-230.3" font-family="Times New Roman,serif" font-size="14.00">CreaturePhysics</text>
</g>
<!-- BaseCreatureBehaviour&#45;&gt;CreaturePhysics -->
<g id="edge13" class="edge"><title>BaseCreatureBehaviour&#45;&gt;CreaturePhysics</title>
<path fill="none" stroke="black" d="M1810.81,-295.992C1689.53,-282.3 1460.57,-256.449 1343.51,-243.233"/>
<polygon fill="black" stroke="black" points="1343.55,-239.715 1333.22,-242.071 1342.77,-246.671 1343.55,-239.715"/>
</g>
<!-- BaseCollisionSystemParticipatorWrapper -->
<g id="node9" class="node"><title>BaseCollisionSystemParticipatorWrapper</title>
<ellipse fill="none" stroke="black" cx="1786.59" cy="-162" rx="161.372" ry="18"/>
<text text-anchor="middle" x="1786.59" y="-158.3" font-family="Times New Roman,serif" font-size="14.00">BaseCollisionSystemParticipatorWrapper</text>
</g>
<!-- BaseCreatureBehaviour&#45;&gt;BaseCollisionSystemParticipatorWrapper -->
<g id="edge2" class="edge"><title>BaseCreatureBehaviour&#45;&gt;BaseCollisionSystemParticipatorWrapper</title>
<path fill="none" stroke="black" stroke-width="2" d="M1885.44,-287.688C1879.25,-268.783 1867.52,-238.239 1850.59,-216 1842.09,-204.841 1830.82,-194.514 1820.11,-185.997"/>
<polygon fill="black" stroke="black" stroke-width="2" points="1822.14,-183.149 1812.08,-179.852 1817.89,-188.708 1822.14,-183.149"/>
</g>
<!-- WrapperTransform -->
<g id="node15" class="node"><title>WrapperTransform</title>
<ellipse fill="none" stroke="black" cx="1559.59" cy="-234" rx="81.4863" ry="18"/>
<text text-anchor="middle" x="1559.59" y="-230.3" font-family="Times New Roman,serif" font-size="14.00">WrapperTransform</text>
</g>
<!-- BaseCreatureBehaviour&#45;&gt;WrapperTransform -->
<g id="edge15" class="edge"><title>BaseCreatureBehaviour&#45;&gt;WrapperTransform</title>
<path fill="none" stroke="black" d="M1829.49,-292.079C1771.84,-279.887 1685.62,-261.652 1626.22,-249.09"/>
<polygon fill="black" stroke="black" points="1626.7,-245.614 1616.19,-246.969 1625.25,-252.463 1626.7,-245.614"/>
</g>
<!-- WrapperRigidbody2d -->
<g id="node16" class="node"><title>WrapperRigidbody2d</title>
<ellipse fill="none" stroke="black" cx="1750.59" cy="-234" rx="90.9839" ry="18"/>
<text text-anchor="middle" x="1750.59" y="-230.3" font-family="Times New Roman,serif" font-size="14.00">WrapperRigidbody2d</text>
</g>
<!-- BaseCreatureBehaviour&#45;&gt;WrapperRigidbody2d -->
<g id="edge14" class="edge"><title>BaseCreatureBehaviour&#45;&gt;WrapperRigidbody2d</title>
<path fill="none" stroke="black" d="M1858.47,-288.941C1838.64,-279.025 1813.01,-266.208 1791.7,-255.555"/>
<polygon fill="black" stroke="black" points="1793.07,-252.326 1782.56,-250.985 1789.94,-258.587 1793.07,-252.326"/>
</g>
<!-- CreatureFsm -->
<g id="node19" class="node"><title>CreatureFsm</title>
<ellipse fill="none" stroke="black" cx="2579.59" cy="-234" rx="57.6901" ry="18"/>
<text text-anchor="middle" x="2579.59" y="-230.3" font-family="Times New Roman,serif" font-size="14.00">CreatureFsm</text>
</g>
<!-- BaseCreatureBehaviour&#45;&gt;CreatureFsm -->
<g id="edge7" class="edge"><title>BaseCreatureBehaviour&#45;&gt;CreatureFsm</title>
<path fill="none" stroke="black" d="M1972.67,-296.661C2111.33,-282.574 2389.1,-254.353 2514.96,-241.566"/>
<polygon fill="black" stroke="black" points="2515.61,-245.018 2525.21,-240.525 2514.91,-238.054 2515.61,-245.018"/>
</g>
<!-- ICollisionSystemParticipator -->
<g id="node20" class="node"><title>ICollisionSystemParticipator</title>
<ellipse fill="none" stroke="black" stroke-dasharray="5,2" cx="2155.59" cy="-90" rx="114.28" ry="18"/>
<text text-anchor="middle" x="2155.59" y="-86.3" font-family="Times New Roman,serif" font-size="14.00">ICollisionSystemParticipator</text>
</g>
<!-- BaseCreatureBehaviour&#45;&gt;ICollisionSystemParticipator -->
<g id="edge11" class="edge"><title>BaseCreatureBehaviour&#45;&gt;ICollisionSystemParticipator</title>
<path fill="none" stroke="black" d="M1979.88,-299.575C2057.08,-293.084 2160.97,-279.443 2191.59,-252 2228.01,-219.367 2232.12,-188.829 2212.59,-144 2207.57,-132.483 2198.68,-122.341 2189.39,-114.094"/>
<polygon fill="black" stroke="black" points="2191.51,-111.302 2181.57,-107.625 2187.05,-116.696 2191.51,-111.302"/>
</g>
<!-- ICollisionSystemParticipatorWrapper -->
<g id="node21" class="node"><title>ICollisionSystemParticipatorWrapper</title>
<ellipse fill="none" stroke="black" stroke-dasharray="5,2" cx="1999.59" cy="-18" rx="146.774" ry="18"/>
<text text-anchor="middle" x="1999.59" y="-14.3" font-family="Times New Roman,serif" font-size="14.00">ICollisionSystemParticipatorWrapper</text>
</g>
<!-- BaseCreatureBehaviour&#45;&gt;ICollisionSystemParticipatorWrapper -->
<g id="edge4" class="edge"><title>BaseCreatureBehaviour&#45;&gt;ICollisionSystemParticipatorWrapper</title>
<path fill="none" stroke="black" stroke-dasharray="5,2" d="M1896.8,-287.7C1903.71,-269.337 1915.73,-239.75 1929.59,-216 1939.67,-198.726 1947.85,-197.989 1956.59,-180 1978.06,-135.812 1989.97,-79.4094 1995.55,-46.4371"/>
<polygon fill="black" stroke="black" points="1999.06,-46.6357 1997.21,-36.2049 1992.15,-45.5171 1999.06,-46.6357"/>
</g>
<!-- IHasSpriteRendererAndAudioSource -->
<g id="node25" class="node"><title>IHasSpriteRendererAndAudioSource</title>
<ellipse fill="none" stroke="black" stroke-dasharray="5,2" cx="2405.59" cy="-162" rx="146.474" ry="18"/>
<text text-anchor="middle" x="2405.59" y="-158.3" font-family="Times New Roman,serif" font-size="14.00">IHasSpriteRendererAndAudioSource</text>
</g>
<!-- BaseCreatureBehaviour&#45;&gt;IHasSpriteRendererAndAudioSource -->
<g id="edge5" class="edge"><title>BaseCreatureBehaviour&#45;&gt;IHasSpriteRendererAndAudioSource</title>
<path fill="none" stroke="black" stroke-dasharray="5,2" d="M1981.69,-300.403C2054.69,-294.599 2158.87,-281.503 2245.59,-252 2292.7,-235.974 2342.02,-206.267 2373.24,-185.604"/>
<polygon fill="black" stroke="black" points="2375.58,-188.249 2381.93,-179.771 2371.68,-182.435 2375.58,-188.249"/>
</g>
<!-- NotNull -->
<g id="node26" class="node"><title>NotNull</title>
<ellipse fill="#e5e5e5" stroke="black" cx="2784.59" cy="-162" rx="38.9931" ry="18"/>
<text text-anchor="middle" x="2784.59" y="-158.3" font-family="Times New Roman,serif" font-size="14.00">NotNull</text>
</g>
<!-- BaseCreatureBehaviour&#45;&gt;NotNull -->
<g id="edge12" class="edge"><title>BaseCreatureBehaviour&#45;&gt;NotNull</title>
<path fill="none" stroke="black" d="M1985.9,-304.205C2160.94,-301.775 2526.67,-291.926 2646.59,-252 2690.04,-237.535 2733.29,-206.187 2759.49,-184.835"/>
<polygon fill="black" stroke="black" points="2761.91,-187.368 2767.37,-178.288 2757.44,-181.983 2761.91,-187.368"/>
</g>
<!-- ICreatureController -->
<g id="node34" class="node"><title>ICreatureController</title>
<ellipse fill="none" stroke="black" stroke-dasharray="5,2" cx="2122.59" cy="-162" rx="81.4863" ry="18"/>
<text text-anchor="middle" x="2122.59" y="-158.3" font-family="Times New Roman,serif" font-size="14.00">ICreatureController</text>
</g>
<!-- BaseCreatureBehaviour&#45;&gt;ICreatureController -->
<g id="edge10" class="edge"><title>BaseCreatureBehaviour&#45;&gt;ICreatureController</title>
<path fill="none" stroke="black" d="M1981.47,-300.28C2054.73,-294.347 2149.41,-281.134 2173.59,-252 2190.43,-231.709 2170.73,-205.113 2151.12,-186.296"/>
<polygon fill="black" stroke="black" points="2153.43,-183.662 2143.68,-179.494 2148.7,-188.827 2153.43,-183.662"/>
</g>
<!-- BaseCreature -->
<g id="node35" class="node"><title>BaseCreature</title>
<ellipse fill="none" stroke="black" cx="642.591" cy="-234" rx="59.2899" ry="18"/>
<text text-anchor="middle" x="642.591" y="-230.3" font-family="Times New Roman,serif" font-size="14.00">BaseCreature</text>
</g>
<!-- BaseCreatureBehaviour&#45;&gt;BaseCreature -->
<g id="edge6" class="edge"><title>BaseCreatureBehaviour&#45;&gt;BaseCreature</title>
<path fill="none" stroke="black" d="M1800.59,-299.952C1562.66,-286.607 920.932,-250.612 710.465,-238.807"/>
<polygon fill="black" stroke="black" points="710.359,-235.296 700.178,-238.23 709.966,-242.285 710.359,-235.296"/>
</g>
<!-- BarBehaviour -->
<g id="node36" class="node"><title>BarBehaviour</title>
<ellipse fill="none" stroke="black" cx="1032.59" cy="-162" rx="59.5901" ry="18"/>
<text text-anchor="middle" x="1032.59" y="-158.3" font-family="Times New Roman,serif" font-size="14.00">BarBehaviour</text>
</g>
<!-- BaseCreatureBehaviour&#45;&gt;BarBehaviour -->
<g id="edge9" class="edge"><title>BaseCreatureBehaviour&#45;&gt;BarBehaviour</title>
<path fill="none" stroke="black" d="M1796.27,-302.88C1632.4,-298.361 1302.06,-285.326 1191.59,-252 1143.08,-237.365 1093.02,-206.198 1062.35,-184.918"/>
<polygon fill="black" stroke="black" points="1064.04,-181.83 1053.85,-178.931 1060.01,-187.552 1064.04,-181.83"/>
</g>
<!-- ICreatureHealth -->
<g id="node4" class="node"><title>ICreatureHealth</title>
<ellipse fill="none" stroke="black" stroke-dasharray="5,2" cx="457.591" cy="-90" rx="67.6881" ry="18"/>
<text text-anchor="middle" x="457.591" y="-86.3" font-family="Times New Roman,serif" font-size="14.00">ICreatureHealth</text>
</g>
<!-- ICreatureControllerWrapper&#45;&gt;ICollisionSystemParticipatorWrapper -->
<g id="edge16" class="edge"><title>ICreatureControllerWrapper&#45;&gt;ICollisionSystemParticipatorWrapper</title>
<path fill="none" stroke="black" stroke-dasharray="5,2" d="M2044.8,-216.013C2040.87,-205.712 2036.02,-192.236 2032.59,-180 2019.59,-133.594 2009.38,-78.3375 2003.94,-46.111"/>
<polygon fill="black" stroke="black" points="2007.37,-45.4028 2002.28,-36.1109 2000.46,-46.5491 2007.37,-45.4028"/>
</g>
<!-- ICreatureControllerWrapper&#45;&gt;ICreatureController -->
<g id="edge17" class="edge"><title>ICreatureControllerWrapper&#45;&gt;ICreatureController</title>
<path fill="none" stroke="black" d="M2068.78,-216.055C2077.67,-207.285 2088.68,-196.432 2098.42,-186.831"/>
<polygon fill="black" stroke="black" points="2100.9,-189.302 2105.56,-179.789 2095.98,-184.317 2100.9,-189.302"/>
</g>
<!-- TimerCollection -->
<g id="node6" class="node"><title>TimerCollection</title>
<ellipse fill="none" stroke="black" cx="286.591" cy="-162" rx="69.5877" ry="18"/>
<text text-anchor="middle" x="286.591" y="-158.3" font-family="Times New Roman,serif" font-size="14.00">TimerCollection</text>
</g>
<!-- Callback -->
<g id="node12" class="node"><title>Callback</title>
<ellipse fill="#e5e5e5" stroke="black" cx="279.591" cy="-18" rx="42.4939" ry="18"/>
<text text-anchor="middle" x="279.591" y="-14.3" font-family="Times New Roman,serif" font-size="14.00">Callback</text>
</g>
<!-- TimerCollection&#45;&gt;Callback -->
<g id="edge19" class="edge"><title>TimerCollection&#45;&gt;Callback</title>
<path fill="none" stroke="black" d="M277.872,-143.833C273.216,-133.694 267.966,-120.444 265.591,-108 261.619,-87.1938 265.767,-63.4952 270.555,-45.7865"/>
<polygon fill="black" stroke="black" points="273.935,-46.7001 273.392,-36.1192 267.218,-44.729 273.935,-46.7001"/>
</g>
<!-- TimerNotFoundException -->
<g id="node17" class="node"><title>TimerNotFoundException</title>
<ellipse fill="none" stroke="black" cx="106.591" cy="-90" rx="106.681" ry="18"/>
<text text-anchor="middle" x="106.591" y="-86.3" font-family="Times New Roman,serif" font-size="14.00">TimerNotFoundException</text>
</g>
<!-- TimerCollection&#45;&gt;TimerNotFoundException -->
<g id="edge20" class="edge"><title>TimerCollection&#45;&gt;TimerNotFoundException</title>
<path fill="none" stroke="black" d="M249.731,-146.666C222.932,-136.244 186.341,-122.014 156.863,-110.55"/>
<polygon fill="black" stroke="black" points="157.752,-107.141 147.163,-106.778 155.215,-113.665 157.752,-107.141"/>
</g>
<!-- Timer -->
<g id="node31" class="node"><title>Timer</title>
<ellipse fill="none" stroke="black" cx="339.591" cy="-90" rx="32.4942" ry="18"/>
<text text-anchor="middle" x="339.591" y="-86.3" font-family="Times New Roman,serif" font-size="14.00">Timer</text>
</g>
<!-- TimerCollection&#45;&gt;Timer -->
<g id="edge18" class="edge"><title>TimerCollection&#45;&gt;Timer</title>
<path fill="none" stroke="black" d="M299.42,-144.055C306.055,-135.292 314.264,-124.451 321.528,-114.856"/>
<polygon fill="black" stroke="black" points="324.359,-116.915 327.605,-106.829 318.779,-112.689 324.359,-116.915"/>
</g>
<!-- CreaturePhysics&#45;&gt;CreaturePhysicsProperties -->
<g id="edge23" class="edge"><title>CreaturePhysics&#45;&gt;CreaturePhysicsProperties</title>
<path fill="none" stroke="black" d="M1303.63,-217.983C1325.86,-207.876 1355.46,-194.425 1379.81,-183.357"/>
<polygon fill="black" stroke="black" points="1381.54,-186.413 1389.2,-179.089 1378.64,-180.04 1381.54,-186.413"/>
</g>
<!-- BasePhysics -->
<g id="node10" class="node"><title>BasePhysics</title>
<ellipse fill="none" stroke="black" cx="1166.59" cy="-162" rx="56.59" ry="18"/>
<text text-anchor="middle" x="1166.59" y="-158.3" font-family="Times New Roman,serif" font-size="14.00">BasePhysics</text>
</g>
<!-- CreaturePhysics&#45;&gt;BasePhysics -->
<g id="edge21" class="edge"><title>CreaturePhysics&#45;&gt;BasePhysics</title>
<path fill="none" stroke="black" stroke-width="2" d="M1246.73,-216.941C1232.26,-207.2 1213.63,-194.659 1197.97,-184.121"/>
<polygon fill="black" stroke="black" stroke-width="2" points="1199.87,-181.184 1189.62,-178.503 1195.97,-186.991 1199.87,-181.184"/>
</g>
<!-- ITransform -->
<g id="node11" class="node"><title>ITransform</title>
<ellipse fill="none" stroke="black" stroke-dasharray="5,2" cx="1245.59" cy="-90" rx="51.9908" ry="18"/>
<text text-anchor="middle" x="1245.59" y="-86.3" font-family="Times New Roman,serif" font-size="14.00">ITransform</text>
</g>
<!-- CreaturePhysics&#45;&gt;ITransform -->
<g id="edge25" class="edge"><title>CreaturePhysics&#45;&gt;ITransform</title>
<path fill="none" stroke="black" d="M1267.57,-215.871C1263.31,-191.67 1255.49,-147.211 1250.41,-118.393"/>
<polygon fill="black" stroke="black" points="1253.8,-117.431 1248.62,-108.189 1246.9,-118.645 1253.8,-117.431"/>
</g>
<!-- IRigidBody2d -->
<g id="node13" class="node"><title>IRigidBody2d</title>
<ellipse fill="none" stroke="black" stroke-dasharray="5,2" cx="1377.59" cy="-90" rx="62.2891" ry="18"/>
<text text-anchor="middle" x="1377.59" y="-86.3" font-family="Times New Roman,serif" font-size="14.00">IRigidBody2d</text>
</g>
<!-- CreaturePhysics&#45;&gt;IRigidBody2d -->
<g id="edge24" class="edge"><title>CreaturePhysics&#45;&gt;IRigidBody2d</title>
<path fill="none" stroke="black" d="M1275.04,-215.906C1280.59,-196.917 1291.5,-166.038 1308.59,-144 1317.98,-131.898 1330.75,-121.068 1342.76,-112.402"/>
<polygon fill="black" stroke="black" points="1345.07,-115.055 1351.31,-106.486 1341.09,-109.299 1345.07,-115.055"/>
</g>
<!-- ICreaturePhysics -->
<g id="node33" class="node"><title>ICreaturePhysics</title>
<ellipse fill="none" stroke="black" stroke-dasharray="5,2" cx="881.591" cy="-162" rx="72.5877" ry="18"/>
<text text-anchor="middle" x="881.591" y="-158.3" font-family="Times New Roman,serif" font-size="14.00">ICreaturePhysics</text>
</g>
<!-- CreaturePhysics&#45;&gt;ICreaturePhysics -->
<g id="edge22" class="edge"><title>CreaturePhysics&#45;&gt;ICreaturePhysics</title>
<path fill="none" stroke="black" stroke-dasharray="5,2" d="M1213.34,-223.705C1151.6,-213.543 1050.47,-196.5 963.591,-180 957.498,-178.843 951.159,-177.599 944.825,-176.33"/>
<polygon fill="black" stroke="black" points="945.407,-172.877 934.911,-174.324 944.018,-179.738 945.407,-172.877"/>
</g>
<!-- BaseCollisionSystemParticipatorWrapper&#45;&gt;Debug -->
<g id="edge29" class="edge"><title>BaseCollisionSystemParticipatorWrapper&#45;&gt;Debug</title>
<path fill="none" stroke="black" d="M1786.59,-143.871C1786.59,-119.67 1786.59,-75.2108 1786.59,-46.3932"/>
<polygon fill="black" stroke="black" points="1790.09,-46.1892 1786.59,-36.1893 1783.09,-46.1893 1790.09,-46.1892"/>
</g>
<!-- BaseCollisionSystemParticipatorWrapper&#45;&gt;ICollisionSystemParticipator -->
<g id="edge27" class="edge"><title>BaseCollisionSystemParticipatorWrapper&#45;&gt;ICollisionSystemParticipator</title>
<path fill="none" stroke="black" d="M1864.85,-146.155C1926.77,-134.408 2012.91,-118.066 2075.35,-106.222"/>
<polygon fill="black" stroke="black" points="2076.37,-109.59 2085.55,-104.287 2075.07,-102.713 2076.37,-109.59"/>
</g>
<!-- BaseCollisionSystemParticipatorWrapper&#45;&gt;ICollisionSystemParticipatorWrapper -->
<g id="edge28" class="edge"><title>BaseCollisionSystemParticipatorWrapper&#45;&gt;ICollisionSystemParticipatorWrapper</title>
<path fill="none" stroke="black" d="M1811.86,-144.153C1850.21,-118.585 1923.16,-69.9507 1965.96,-41.4211"/>
<polygon fill="black" stroke="black" points="1967.97,-44.2842 1974.35,-35.825 1964.09,-38.4598 1967.97,-44.2842"/>
</g>
<!-- MonoBehaviour -->
<g id="node27" class="node"><title>MonoBehaviour</title>
<ellipse fill="none" stroke="black" cx="1093.59" cy="-90" rx="69.5877" ry="18"/>
<text text-anchor="middle" x="1093.59" y="-86.3" font-family="Times New Roman,serif" font-size="14.00">MonoBehaviour</text>
</g>
<!-- BaseCollisionSystemParticipatorWrapper&#45;&gt;MonoBehaviour -->
<g id="edge26" class="edge"><title>BaseCollisionSystemParticipatorWrapper&#45;&gt;MonoBehaviour</title>
<path fill="none" stroke="black" stroke-width="2" d="M1657.68,-151.124C1508.73,-139.453 1272.81,-120.095 1184.59,-108 1175.47,-106.75 1165.87,-105.208 1156.47,-103.567"/>
<polygon fill="black" stroke="black" stroke-width="2" points="1156.84,-100.077 1146.38,-101.758 1155.61,-106.967 1156.84,-100.077"/>
</g>
<!-- BasePhysics&#45;&gt;ITransform -->
<g id="edge31" class="edge"><title>BasePhysics&#45;&gt;ITransform</title>
<path fill="none" stroke="black" d="M1184.91,-144.765C1195.36,-135.511 1208.6,-123.772 1220.06,-113.626"/>
<polygon fill="black" stroke="black" points="1222.48,-116.157 1227.64,-106.906 1217.83,-110.918 1222.48,-116.157"/>
</g>
<!-- BasePhysics&#45;&gt;IRigidBody2d -->
<g id="edge32" class="edge"><title>BasePhysics&#45;&gt;IRigidBody2d</title>
<path fill="none" stroke="black" d="M1204.31,-148.485C1238.92,-137.006 1290.39,-119.93 1328.25,-107.371"/>
<polygon fill="black" stroke="black" points="1329.66,-110.59 1338.05,-104.119 1327.45,-103.946 1329.66,-110.59"/>
</g>
<!-- IBasePhysics -->
<g id="node23" class="node"><title>IBasePhysics</title>
<ellipse fill="none" stroke="black" stroke-dasharray="5,2" cx="921.591" cy="-90" rx="59.5901" ry="18"/>
<text text-anchor="middle" x="921.591" y="-86.3" font-family="Times New Roman,serif" font-size="14.00">IBasePhysics</text>
</g>
<!-- BasePhysics&#45;&gt;IBasePhysics -->
<g id="edge30" class="edge"><title>BasePhysics&#45;&gt;IBasePhysics</title>
<path fill="none" stroke="black" stroke-dasharray="5,2" d="M1125.86,-149.362C1084.03,-137.41 1018.78,-118.768 973.322,-105.78"/>
<polygon fill="black" stroke="black" points="974.229,-102.4 963.652,-103.018 972.306,-109.13 974.229,-102.4"/>
</g>
<!-- struct -->
<g id="node14" class="node"><title>struct</title>
<ellipse fill="none" stroke="black" cx="2626.59" cy="-90" rx="31.3957" ry="18"/>
<text text-anchor="middle" x="2626.59" y="-86.3" font-family="Times New Roman,serif" font-size="14.00">struct</text>
</g>
<!-- WrapperTransform&#45;&gt;ITransform -->
<g id="edge33" class="edge"><title>WrapperTransform&#45;&gt;ITransform</title>
<path fill="none" stroke="black" stroke-dasharray="5,2" d="M1561.21,-215.858C1562.09,-195.634 1560.12,-162.437 1540.59,-144 1502.33,-107.886 1358.02,-119.082 1306.59,-108 1302.42,-107.101 1298.11,-106.084 1293.8,-105.006"/>
<polygon fill="black" stroke="black" points="1294.37,-101.538 1283.81,-102.403 1292.61,-108.311 1294.37,-101.538"/>
</g>
<!-- WrapperRigidbody2d&#45;&gt;IRigidBody2d -->
<g id="edge34" class="edge"><title>WrapperRigidbody2d&#45;&gt;IRigidBody2d</title>
<path fill="none" stroke="black" stroke-dasharray="5,2" d="M1706.05,-218.175C1679.44,-208.639 1645.34,-195.21 1616.59,-180 1591.42,-166.683 1589.39,-156.055 1563.59,-144 1523.55,-125.29 1475.51,-111.809 1438.29,-103.126"/>
<polygon fill="black" stroke="black" points="1438.62,-99.6115 1428.09,-100.804 1437.06,-106.437 1438.62,-99.6115"/>
</g>
<!-- Exception -->
<g id="node32" class="node"><title>Exception</title>
<ellipse fill="none" stroke="black" cx="106.591" cy="-18" rx="47.3916" ry="18"/>
<text text-anchor="middle" x="106.591" y="-14.3" font-family="Times New Roman,serif" font-size="14.00">Exception</text>
</g>
<!-- TimerNotFoundException&#45;&gt;Exception -->
<g id="edge35" class="edge"><title>TimerNotFoundException&#45;&gt;Exception</title>
<path fill="none" stroke="black" stroke-width="2" d="M106.591,-71.6966C106.591,-63.9827 106.591,-54.7125 106.591,-46.1124"/>
<polygon fill="black" stroke="black" stroke-width="2" points="110.091,-46.1043 106.591,-36.1043 103.091,-46.1044 110.091,-46.1043"/>
</g>
<!-- FlipXCollection -->
<g id="node18" class="node"><title>FlipXCollection</title>
<ellipse fill="none" stroke="black" cx="611.591" cy="-90" rx="68.4888" ry="18"/>
<text text-anchor="middle" x="611.591" y="-86.3" font-family="Times New Roman,serif" font-size="14.00">FlipXCollection</text>
</g>
<!-- FlipXCollection&#45;&gt;IFlipX -->
<g id="edge36" class="edge"><title>FlipXCollection&#45;&gt;IFlipX</title>
<path fill="none" stroke="black" stroke-dasharray="5,2" d="M648.655,-74.6655C680.013,-62.5384 724.705,-45.2542 755.943,-33.1731"/>
<polygon fill="black" stroke="black" points="757.514,-36.3181 765.579,-29.4466 754.989,-29.7893 757.514,-36.3181"/>
</g>
<!-- CreatureFsm&#45;&gt;Debug -->
<g id="edge40" class="edge"><title>CreatureFsm&#45;&gt;Debug</title>
<path fill="none" stroke="black" d="M2581.45,-215.934C2582.62,-195.463 2581,-161.698 2560.59,-144 2516.16,-105.48 2090.13,-120.12 2032.59,-108 1954.38,-91.5256 1867.45,-55.6432 1820.74,-34.8214"/>
<polygon fill="black" stroke="black" points="1821.96,-31.5313 1811.41,-30.6192 1819.09,-37.9147 1821.96,-31.5313"/>
</g>
<!-- CreatureFsm&#45;&gt;IHasSpriteRendererAndAudioSource -->
<g id="edge38" class="edge"><title>CreatureFsm&#45;&gt;IHasSpriteRendererAndAudioSource</title>
<path fill="none" stroke="black" d="M2545.63,-219.337C2520.04,-209.042 2484.55,-194.764 2455.7,-183.158"/>
<polygon fill="black" stroke="black" points="2456.78,-179.82 2446.19,-179.335 2454.16,-186.314 2456.78,-179.82"/>
</g>
<!-- CreatureFsm&#45;&gt;NotNull -->
<g id="edge39" class="edge"><title>CreatureFsm&#45;&gt;NotNull</title>
<path fill="none" stroke="black" d="M2617.71,-220.306C2649.54,-209.666 2696.08,-194.011 2736.59,-180 2739.33,-179.052 2742.16,-178.067 2745.01,-177.072"/>
<polygon fill="black" stroke="black" points="2746.38,-180.297 2754.66,-173.679 2744.06,-173.694 2746.38,-180.297"/>
</g>
<!-- ICreatureFsm -->
<g id="node29" class="node"><title>ICreatureFsm</title>
<ellipse fill="none" stroke="black" stroke-dasharray="5,2" cx="2667.59" cy="-162" rx="60.3893" ry="18"/>
<text text-anchor="middle" x="2667.59" y="-158.3" font-family="Times New Roman,serif" font-size="14.00">ICreatureFsm</text>
</g>
<!-- CreatureFsm&#45;&gt;ICreatureFsm -->
<g id="edge37" class="edge"><title>CreatureFsm&#45;&gt;ICreatureFsm</title>
<path fill="none" stroke="black" stroke-dasharray="5,2" d="M2600,-216.765C2611.66,-207.488 2626.46,-195.714 2639.24,-185.551"/>
<polygon fill="black" stroke="black" points="2641.64,-188.112 2647.29,-179.147 2637.29,-182.633 2641.64,-188.112"/>
</g>
<!-- ICollisionSystemParticipator&#45;&gt;ICollisionSystemParticipatorWrapper -->
<g id="edge42" class="edge"><title>ICollisionSystemParticipator&#45;&gt;ICollisionSystemParticipatorWrapper</title>
<path fill="none" stroke="black" stroke-dasharray="5,2" d="M2114.43,-73.1159C2091.41,-63.2954 2062.91,-50.5785 2040.02,-39.9401"/>
<polygon fill="black" stroke="black" points="2041.44,-36.743 2030.9,-35.6743 2038.48,-43.0831 2041.44,-36.743"/>
</g>
<!-- ISystemParticipator -->
<g id="node24" class="node"><title>ISystemParticipator</title>
<ellipse fill="none" stroke="black" stroke-dasharray="5,2" cx="2246.59" cy="-18" rx="82.5854" ry="18"/>
<text text-anchor="middle" x="2246.59" y="-14.3" font-family="Times New Roman,serif" font-size="14.00">ISystemParticipator</text>
</g>
<!-- ICollisionSystemParticipator&#45;&gt;ISystemParticipator -->
<g id="edge41" class="edge"><title>ICollisionSystemParticipator&#45;&gt;ISystemParticipator</title>
<path fill="none" stroke="black" stroke-dasharray="5,2" d="M2177.62,-72.055C2189.44,-62.9604 2204.18,-51.6262 2216.99,-41.7714"/>
<polygon fill="black" stroke="black" points="2219.29,-44.4188 2225.08,-35.5475 2215.02,-38.8704 2219.29,-44.4188"/>
</g>
<!-- ICollisionSystemParticipatorWrapper&#45;&gt;ICollisionSystemParticipator -->
<g id="edge43" class="edge"><title>ICollisionSystemParticipatorWrapper&#45;&gt;ICollisionSystemParticipator</title>
<path fill="none" stroke="black" d="M2041.75,-35.3091C2064.7,-45.1195 2092.88,-57.7024 2115.51,-68.2208"/>
<polygon fill="black" stroke="black" points="2114.3,-71.5164 2124.84,-72.5881 2117.26,-65.1772 2114.3,-71.5164"/>
</g>
<!-- IBasePhysics&#45;&gt;IFlipX -->
<g id="edge44" class="edge"><title>IBasePhysics&#45;&gt;IFlipX</title>
<path fill="none" stroke="black" stroke-dasharray="5,2" d="M893.917,-73.9832C873.667,-62.9951 846.135,-48.0552 824.881,-36.5218"/>
<polygon fill="black" stroke="black" points="826.36,-33.3424 815.901,-31.6492 823.021,-39.495 826.36,-33.3424"/>
</g>
<!-- BarCollection -->
<g id="node28" class="node"><title>BarCollection</title>
<ellipse fill="none" stroke="black" cx="730.591" cy="-162" rx="60.3893" ry="18"/>
<text text-anchor="middle" x="730.591" y="-158.3" font-family="Times New Roman,serif" font-size="14.00">BarCollection</text>
</g>
<!-- BarCollection&#45;&gt;IBarDisplay -->
<g id="edge46" class="edge"><title>BarCollection&#45;&gt;IBarDisplay</title>
<path fill="none" stroke="black" d="M735.674,-144.055C738.012,-136.261 740.844,-126.822 743.467,-118.079"/>
<polygon fill="black" stroke="black" points="746.887,-118.859 746.408,-108.275 740.182,-116.848 746.887,-118.859"/>
</g>
<!-- BarCollection&#45;&gt;IFlipX -->
<g id="edge45" class="edge"><title>BarCollection&#45;&gt;IFlipX</title>
<path fill="none" stroke="black" stroke-dasharray="5,2" d="M767.627,-147.571C785.198,-139.11 804.515,-126.271 814.591,-108 825.521,-88.1791 817.518,-62.9149 808.245,-44.3716"/>
<polygon fill="black" stroke="black" points="811.205,-42.4871 803.373,-35.3518 805.046,-45.8137 811.205,-42.4871"/>
</g>
<!-- ICreatureFsm&#45;&gt;struct -->
<g id="edge47" class="edge"><title>ICreatureFsm&#45;&gt;struct</title>
<path fill="none" stroke="black" stroke-width="2" d="M2657.67,-144.055C2652.76,-135.679 2646.74,-125.404 2641.31,-116.134"/>
<polygon fill="black" stroke="black" stroke-width="2" points="2644.22,-114.167 2636.14,-107.307 2638.18,-117.705 2644.22,-114.167"/>
</g>
<!-- Enum -->
<g id="node37" class="node"><title>Enum</title>
<ellipse fill="none" stroke="black" cx="2707.59" cy="-90" rx="31.6951" ry="18"/>
<text text-anchor="middle" x="2707.59" y="-86.3" font-family="Times New Roman,serif" font-size="14.00">Enum</text>
</g>
<!-- ICreatureFsm&#45;&gt;Enum -->
<g id="edge48" class="edge"><title>ICreatureFsm&#45;&gt;Enum</title>
<path fill="none" stroke="black" stroke-dasharray="5,2" d="M2677.27,-144.055C2682.06,-135.679 2687.93,-125.404 2693.23,-116.134"/>
<polygon fill="black" stroke="black" points="2696.35,-117.726 2698.27,-107.307 2690.27,-114.253 2696.35,-117.726"/>
</g>
<!-- CreatureHealth -->
<g id="node30" class="node"><title>CreatureHealth</title>
<ellipse fill="none" stroke="black" cx="484.591" cy="-162" rx="64.189" ry="18"/>
<text text-anchor="middle" x="484.591" y="-158.3" font-family="Times New Roman,serif" font-size="14.00">CreatureHealth</text>
</g>
<!-- CreatureHealth&#45;&gt;IBarDisplay -->
<g id="edge50" class="edge"><title>CreatureHealth&#45;&gt;IBarDisplay</title>
<path fill="none" stroke="black" d="M530.399,-149.23C571.766,-138.57 634.293,-122.379 688.591,-108 692.656,-106.923 696.868,-105.801 701.097,-104.67"/>
<polygon fill="black" stroke="black" points="702.186,-108.002 710.938,-102.03 700.372,-101.241 702.186,-108.002"/>
</g>
<!-- CreatureHealth&#45;&gt;ICreatureHealth -->
<g id="edge49" class="edge"><title>CreatureHealth&#45;&gt;ICreatureHealth</title>
<path fill="none" stroke="black" stroke-dasharray="5,2" d="M478.055,-144.055C475.016,-136.176 471.328,-126.617 467.925,-117.794"/>
<polygon fill="black" stroke="black" points="471.118,-116.346 464.254,-108.275 464.587,-118.865 471.118,-116.346"/>
</g>
<!-- CreatureHealth&#45;&gt;Callback -->
<g id="edge51" class="edge"><title>CreatureHealth&#45;&gt;Callback</title>
<path fill="none" stroke="black" d="M430.731,-151.99C382.47,-142.826 316.591,-127.254 298.591,-108 283.205,-91.5428 279.064,-65.8063 278.415,-46.2337"/>
<polygon fill="black" stroke="black" points="281.914,-46.0746 278.364,-36.0923 274.914,-46.1097 281.914,-46.0746"/>
</g>
<!-- Timer&#45;&gt;Debug -->
<g id="edge53" class="edge"><title>Timer&#45;&gt;Debug</title>
<path fill="none" stroke="black" d="M363.41,-77.4615C368.932,-75.2583 374.87,-73.2515 380.591,-72 516.098,-42.3563 1518.04,-23.5919 1742.19,-19.7384"/>
<polygon fill="black" stroke="black" points="1742.33,-23.2366 1752.27,-19.5662 1742.21,-16.2377 1742.33,-23.2366"/>
</g>
<!-- Timer&#45;&gt;Callback -->
<g id="edge52" class="edge"><title>Timer&#45;&gt;Callback</title>
<path fill="none" stroke="black" d="M326.275,-73.4647C318.647,-64.5657 308.909,-53.2051 300.303,-43.1644"/>
<polygon fill="black" stroke="black" points="302.871,-40.782 293.705,-35.4672 297.556,-45.3376 302.871,-40.782"/>
</g>
<!-- ICreaturePhysics&#45;&gt;IBasePhysics -->
<g id="edge54" class="edge"><title>ICreaturePhysics&#45;&gt;IBasePhysics</title>
<path fill="none" stroke="black" stroke-dasharray="5,2" d="M891.273,-144.055C895.99,-135.801 901.761,-125.701 906.998,-116.538"/>
<polygon fill="black" stroke="black" points="910.074,-118.208 911.997,-107.789 903.997,-114.735 910.074,-118.208"/>
</g>
<!-- ICreatureController&#45;&gt;ICollisionSystemParticipator -->
<g id="edge55" class="edge"><title>ICreatureController&#45;&gt;ICollisionSystemParticipator</title>
<path fill="none" stroke="black" stroke-dasharray="5,2" d="M2130.58,-144.055C2134.33,-136.091 2138.9,-126.411 2143.09,-117.51"/>
<polygon fill="black" stroke="black" points="2146.35,-118.813 2147.45,-108.275 2140.02,-115.828 2146.35,-118.813"/>
</g>
<!-- BaseCreature&#45;&gt;IBarDisplay -->
<g id="edge61" class="edge"><title>BaseCreature&#45;&gt;IBarDisplay</title>
<path fill="none" stroke="black" d="M642.29,-215.97C642.779,-196.758 646.164,-165.406 661.591,-144 672.861,-128.36 690.292,-116.57 706.823,-108.129"/>
<polygon fill="black" stroke="black" points="708.373,-111.268 715.87,-103.781 705.341,-104.959 708.373,-111.268"/>
</g>
<!-- BaseCreature&#45;&gt;TimerCollection -->
<g id="edge59" class="edge"><title>BaseCreature&#45;&gt;TimerCollection</title>
<path fill="none" stroke="black" d="M594.208,-223.487C530.97,-211.052 420.058,-189.244 350.111,-175.49"/>
<polygon fill="black" stroke="black" points="350.586,-172.016 340.099,-173.521 349.236,-178.885 350.586,-172.016"/>
</g>
<!-- BaseCreature&#45;&gt;FlipXCollection -->
<g id="edge56" class="edge"><title>BaseCreature&#45;&gt;FlipXCollection</title>
<path fill="none" stroke="black" d="M637.747,-215.889C634.9,-205.543 631.333,-192.064 628.591,-180 623.913,-159.421 619.469,-135.969 616.299,-118.307"/>
<polygon fill="black" stroke="black" points="619.688,-117.372 614.499,-108.135 612.795,-118.592 619.688,-117.372"/>
</g>
<!-- BaseCreature&#45;&gt;BarCollection -->
<g id="edge57" class="edge"><title>BaseCreature&#45;&gt;BarCollection</title>
<path fill="none" stroke="black" d="M663.001,-216.765C674.663,-207.488 689.464,-195.714 702.241,-185.551"/>
<polygon fill="black" stroke="black" points="704.644,-188.112 710.291,-179.147 700.286,-182.633 704.644,-188.112"/>
</g>
<!-- BaseCreature&#45;&gt;CreatureHealth -->
<g id="edge58" class="edge"><title>BaseCreature&#45;&gt;CreatureHealth</title>
<path fill="none" stroke="black" d="M610.617,-218.834C586.444,-208.125 553.035,-193.323 526.688,-181.651"/>
<polygon fill="black" stroke="black" points="527.892,-178.356 517.331,-177.505 525.056,-184.756 527.892,-178.356"/>
</g>
<!-- BaseCreature&#45;&gt;ICreaturePhysics -->
<g id="edge60" class="edge"><title>BaseCreature&#45;&gt;ICreaturePhysics</title>
<path fill="none" stroke="black" d="M683.676,-220.967C723.174,-209.398 783.136,-191.836 826.708,-179.074"/>
<polygon fill="black" stroke="black" points="827.961,-182.355 836.574,-176.185 825.993,-175.637 827.961,-182.355"/>
</g>
<!-- BarBehaviour&#45;&gt;IBarDisplay -->
<g id="edge63" class="edge"><title>BarBehaviour&#45;&gt;IBarDisplay</title>
<path fill="none" stroke="black" stroke-dasharray="5,2" d="M988.065,-149.908C937.908,-137.413 856.491,-117.132 803.49,-103.929"/>
<polygon fill="black" stroke="black" points="804.162,-100.489 793.613,-101.468 802.47,-107.282 804.162,-100.489"/>
</g>
<!-- BarBehaviour&#45;&gt;MonoBehaviour -->
<g id="edge62" class="edge"><title>BarBehaviour&#45;&gt;MonoBehaviour</title>
<path fill="none" stroke="black" stroke-width="2" d="M1047.05,-144.411C1054.53,-135.82 1063.82,-125.159 1072.13,-115.627"/>
<polygon fill="black" stroke="black" stroke-width="2" points="1074.88,-117.795 1078.81,-107.956 1069.61,-113.196 1074.88,-117.795"/>
</g>
</g>
</svg>
