<?xml version="1.0" encoding="UTF-8" standalone="no"?>
<!DOCTYPE svg PUBLIC "-//W3C//DTD SVG 1.1//EN"
 "http://www.w3.org/Graphics/SVG/1.1/DTD/svg11.dtd">
<!-- Generated by graphviz version 2.38.0 (20140413.2041)
 -->
<!-- Title: %3 Pages: 1 -->
<svg width="2416pt" height="332pt"
 viewBox="0.00 0.00 2416.13 332.00" xmlns="http://www.w3.org/2000/svg" xmlns:xlink="http://www.w3.org/1999/xlink">
<g id="graph0" class="graph" transform="scale(1 1) rotate(0) translate(4 328)">
<title>%3</title>
<polygon fill="white" stroke="none" points="-4,4 -4,-328 2412.13,-328 2412.13,4 -4,4"/>
<!-- CreaturePhysicsProperties -->
<g id="node1" class="node"><title>CreaturePhysicsProperties</title>
<ellipse fill="none" stroke="black" cx="186.243" cy="-162" rx="106.681" ry="18"/>
<text text-anchor="middle" x="186.243" y="-158.3" font-family="Times New Roman,serif" font-size="14.00">CreaturePhysicsProperties</text>
</g>
<!-- TimerNotFoundException -->
<g id="node2" class="node"><title>TimerNotFoundException</title>
<ellipse fill="none" stroke="black" cx="1317.24" cy="-90" rx="106.681" ry="18"/>
<text text-anchor="middle" x="1317.24" y="-86.3" font-family="Times New Roman,serif" font-size="14.00">TimerNotFoundException</text>
</g>
<!-- Exception -->
<g id="node15" class="node"><title>Exception</title>
<ellipse fill="none" stroke="black" cx="1317.24" cy="-18" rx="47.3916" ry="18"/>
<text text-anchor="middle" x="1317.24" y="-14.3" font-family="Times New Roman,serif" font-size="14.00">Exception</text>
</g>
<!-- TimerNotFoundException&#45;&gt;Exception -->
<g id="edge1" class="edge"><title>TimerNotFoundException&#45;&gt;Exception</title>
<path fill="none" stroke="black" stroke-width="2" d="M1317.24,-71.6966C1317.24,-63.9827 1317.24,-54.7125 1317.24,-46.1124"/>
<polygon fill="black" stroke="black" stroke-width="2" points="1320.74,-46.1043 1317.24,-36.1043 1313.74,-46.1044 1320.74,-46.1043"/>
</g>
<!-- ICreatureControllerWrapper -->
<g id="node3" class="node"><title>ICreatureControllerWrapper</title>
<ellipse fill="none" stroke="black" stroke-dasharray="5,2" cx="2190.24" cy="-234" rx="113.18" ry="18"/>
<text text-anchor="middle" x="2190.24" y="-230.3" font-family="Times New Roman,serif" font-size="14.00">ICreatureControllerWrapper</text>
</g>
<!-- ICreatureController -->
<g id="node19" class="node"><title>ICreatureController</title>
<ellipse fill="none" stroke="black" stroke-dasharray="5,2" cx="2136.24" cy="-162" rx="81.4863" ry="18"/>
<text text-anchor="middle" x="2136.24" y="-158.3" font-family="Times New Roman,serif" font-size="14.00">ICreatureController</text>
</g>
<!-- ICreatureControllerWrapper&#45;&gt;ICreatureController -->
<g id="edge3" class="edge"><title>ICreatureControllerWrapper&#45;&gt;ICreatureController</title>
<path fill="none" stroke="black" d="M2177.17,-216.055C2170.67,-207.629 2162.69,-197.28 2155.5,-187.966"/>
<polygon fill="black" stroke="black" points="2158.07,-185.569 2149.19,-179.789 2152.53,-189.845 2158.07,-185.569"/>
</g>
<!-- ICollisionSystemParticipatorWrapper -->
<g id="node27" class="node"><title>ICollisionSystemParticipatorWrapper</title>
<ellipse fill="none" stroke="black" stroke-dasharray="5,2" cx="2261.24" cy="-18" rx="146.774" ry="18"/>
<text text-anchor="middle" x="2261.24" y="-14.3" font-family="Times New Roman,serif" font-size="14.00">ICollisionSystemParticipatorWrapper</text>
</g>
<!-- ICreatureControllerWrapper&#45;&gt;ICollisionSystemParticipatorWrapper -->
<g id="edge2" class="edge"><title>ICreatureControllerWrapper&#45;&gt;ICollisionSystemParticipatorWrapper</title>
<path fill="none" stroke="black" stroke-dasharray="5,2" d="M2204.37,-215.833C2211.88,-205.907 2220.69,-192.867 2226.24,-180 2245.5,-135.409 2254.61,-79.1379 2258.56,-46.2999"/>
<polygon fill="black" stroke="black" points="2262.07,-46.4421 2259.71,-36.1127 2255.11,-45.6571 2262.07,-46.4421"/>
</g>
<!-- WrapperRigidbody2d -->
<g id="node4" class="node"><title>WrapperRigidbody2d</title>
<ellipse fill="none" stroke="black" cx="705.243" cy="-234" rx="90.9839" ry="18"/>
<text text-anchor="middle" x="705.243" y="-230.3" font-family="Times New Roman,serif" font-size="14.00">WrapperRigidbody2d</text>
</g>
<!-- IRigidBody2d -->
<g id="node28" class="node"><title>IRigidBody2d</title>
<ellipse fill="none" stroke="black" stroke-dasharray="5,2" cx="444.243" cy="-90" rx="62.2891" ry="18"/>
<text text-anchor="middle" x="444.243" y="-86.3" font-family="Times New Roman,serif" font-size="14.00">IRigidBody2d</text>
</g>
<!-- WrapperRigidbody2d&#45;&gt;IRigidBody2d -->
<g id="edge4" class="edge"><title>WrapperRigidbody2d&#45;&gt;IRigidBody2d</title>
<path fill="none" stroke="black" stroke-dasharray="5,2" d="M649.284,-219.732C618.284,-211.026 579.759,-197.907 548.243,-180 517.096,-162.303 486.57,-134.588 466.734,-114.79"/>
<polygon fill="black" stroke="black" points="469.187,-112.293 459.675,-107.627 464.201,-117.206 469.187,-112.293"/>
</g>
<!-- BarBehaviour -->
<g id="node5" class="node"><title>BarBehaviour</title>
<ellipse fill="none" stroke="black" cx="1337.24" cy="-234" rx="59.5901" ry="18"/>
<text text-anchor="middle" x="1337.24" y="-230.3" font-family="Times New Roman,serif" font-size="14.00">BarBehaviour</text>
</g>
<!-- MonoBehaviour -->
<g id="node29" class="node"><title>MonoBehaviour</title>
<ellipse fill="none" stroke="black" cx="1346.24" cy="-162" rx="69.5877" ry="18"/>
<text text-anchor="middle" x="1346.24" y="-158.3" font-family="Times New Roman,serif" font-size="14.00">MonoBehaviour</text>
</g>
<!-- BarBehaviour&#45;&gt;MonoBehaviour -->
<g id="edge5" class="edge"><title>BarBehaviour&#45;&gt;MonoBehaviour</title>
<path fill="none" stroke="black" stroke-width="2" d="M1339.47,-215.697C1340.46,-207.983 1341.65,-198.712 1342.76,-190.112"/>
<polygon fill="black" stroke="black" stroke-width="2" points="1346.24,-190.469 1344.04,-180.104 1339.3,-189.576 1346.24,-190.469"/>
</g>
<!-- IBarDisplay -->
<g id="node30" class="node"><title>IBarDisplay</title>
<ellipse fill="none" stroke="black" stroke-dasharray="5,2" cx="908.243" cy="-90" rx="53.8905" ry="18"/>
<text text-anchor="middle" x="908.243" y="-86.3" font-family="Times New Roman,serif" font-size="14.00">IBarDisplay</text>
</g>
<!-- BarBehaviour&#45;&gt;IBarDisplay -->
<g id="edge6" class="edge"><title>BarBehaviour&#45;&gt;IBarDisplay</title>
<path fill="none" stroke="black" stroke-dasharray="5,2" d="M1278.43,-230.607C1186.73,-225.898 1014.94,-212.867 964.243,-180 941.6,-165.322 926.436,-137.923 917.662,-117.386"/>
<polygon fill="black" stroke="black" points="920.842,-115.913 913.864,-107.942 914.348,-118.525 920.842,-115.913"/>
</g>
<!-- BaseCreature -->
<g id="node6" class="node"><title>BaseCreature</title>
<ellipse fill="none" stroke="black" cx="907.243" cy="-234" rx="59.2899" ry="18"/>
<text text-anchor="middle" x="907.243" y="-230.3" font-family="Times New Roman,serif" font-size="14.00">BaseCreature</text>
</g>
<!-- FlipXCollection -->
<g id="node9" class="node"><title>FlipXCollection</title>
<ellipse fill="none" stroke="black" cx="730.243" cy="-90" rx="68.4888" ry="18"/>
<text text-anchor="middle" x="730.243" y="-86.3" font-family="Times New Roman,serif" font-size="14.00">FlipXCollection</text>
</g>
<!-- BaseCreature&#45;&gt;FlipXCollection -->
<g id="edge7" class="edge"><title>BaseCreature&#45;&gt;FlipXCollection</title>
<path fill="none" stroke="black" d="M851.454,-227.811C817.535,-221.725 775.944,-208.538 750.243,-180 735.22,-163.319 730.702,-137.824 729.661,-118.39"/>
<polygon fill="black" stroke="black" points="733.158,-118.216 729.396,-108.311 726.16,-118.4 733.158,-118.216"/>
</g>
<!-- CreatureHealth -->
<g id="node10" class="node"><title>CreatureHealth</title>
<ellipse fill="none" stroke="black" cx="1037.24" cy="-162" rx="64.189" ry="18"/>
<text text-anchor="middle" x="1037.24" y="-158.3" font-family="Times New Roman,serif" font-size="14.00">CreatureHealth</text>
</g>
<!-- BaseCreature&#45;&gt;CreatureHealth -->
<g id="edge9" class="edge"><title>BaseCreature&#45;&gt;CreatureHealth</title>
<path fill="none" stroke="black" d="M935.131,-217.983C954.108,-207.765 979.431,-194.129 1000.11,-182.994"/>
<polygon fill="black" stroke="black" points="1001.81,-186.056 1008.95,-178.233 998.488,-179.893 1001.81,-186.056"/>
</g>
<!-- TimerCollection -->
<g id="node14" class="node"><title>TimerCollection</title>
<ellipse fill="none" stroke="black" cx="1189.24" cy="-162" rx="69.5877" ry="18"/>
<text text-anchor="middle" x="1189.24" y="-158.3" font-family="Times New Roman,serif" font-size="14.00">TimerCollection</text>
</g>
<!-- BaseCreature&#45;&gt;TimerCollection -->
<g id="edge10" class="edge"><title>BaseCreature&#45;&gt;TimerCollection</title>
<path fill="none" stroke="black" d="M951.616,-221.985C999.993,-209.977 1077.61,-190.71 1130.89,-177.484"/>
<polygon fill="black" stroke="black" points="1132.02,-180.812 1140.88,-175.005 1130.33,-174.018 1132.02,-180.812"/>
</g>
<!-- ICreaturePhysics -->
<g id="node21" class="node"><title>ICreaturePhysics</title>
<ellipse fill="none" stroke="black" stroke-dasharray="5,2" cx="630.243" cy="-162" rx="72.5877" ry="18"/>
<text text-anchor="middle" x="630.243" y="-158.3" font-family="Times New Roman,serif" font-size="14.00">ICreaturePhysics</text>
</g>
<!-- BaseCreature&#45;&gt;ICreaturePhysics -->
<g id="edge11" class="edge"><title>BaseCreature&#45;&gt;ICreaturePhysics</title>
<path fill="none" stroke="black" d="M863.351,-221.908C816.344,-210.029 741.484,-191.112 689.324,-177.93"/>
<polygon fill="black" stroke="black" points="690.088,-174.513 679.535,-175.457 688.373,-181.3 690.088,-174.513"/>
</g>
<!-- BaseCreature&#45;&gt;IBarDisplay -->
<g id="edge12" class="edge"><title>BaseCreature&#45;&gt;IBarDisplay</title>
<path fill="none" stroke="black" d="M907.363,-215.871C907.534,-191.67 907.847,-147.211 908.05,-118.393"/>
<polygon fill="black" stroke="black" points="911.551,-118.214 908.122,-108.189 904.551,-118.164 911.551,-118.214"/>
</g>
<!-- BarCollection -->
<g id="node35" class="node"><title>BarCollection</title>
<ellipse fill="none" stroke="black" cx="819.243" cy="-162" rx="60.3893" ry="18"/>
<text text-anchor="middle" x="819.243" y="-158.3" font-family="Times New Roman,serif" font-size="14.00">BarCollection</text>
</g>
<!-- BaseCreature&#45;&gt;BarCollection -->
<g id="edge8" class="edge"><title>BaseCreature&#45;&gt;BarCollection</title>
<path fill="none" stroke="black" d="M886.833,-216.765C875.171,-207.488 860.369,-195.714 847.593,-185.551"/>
<polygon fill="black" stroke="black" points="849.547,-182.633 839.542,-179.147 845.189,-188.112 849.547,-182.633"/>
</g>
<!-- ICollisionSystemParticipator -->
<g id="node7" class="node"><title>ICollisionSystemParticipator</title>
<ellipse fill="none" stroke="black" stroke-dasharray="5,2" cx="2119.24" cy="-90" rx="114.28" ry="18"/>
<text text-anchor="middle" x="2119.24" y="-86.3" font-family="Times New Roman,serif" font-size="14.00">ICollisionSystemParticipator</text>
</g>
<!-- ISystemParticipator -->
<g id="node26" class="node"><title>ISystemParticipator</title>
<ellipse fill="none" stroke="black" stroke-dasharray="5,2" cx="2014.24" cy="-18" rx="82.5854" ry="18"/>
<text text-anchor="middle" x="2014.24" y="-14.3" font-family="Times New Roman,serif" font-size="14.00">ISystemParticipator</text>
</g>
<!-- ICollisionSystemParticipator&#45;&gt;ISystemParticipator -->
<g id="edge13" class="edge"><title>ICollisionSystemParticipator&#45;&gt;ISystemParticipator</title>
<path fill="none" stroke="black" stroke-dasharray="5,2" d="M2094.36,-72.411C2080.27,-63.0155 2062.46,-51.1456 2047.22,-40.9831"/>
<polygon fill="black" stroke="black" points="2048.85,-37.8633 2038.59,-35.2285 2044.96,-43.6877 2048.85,-37.8633"/>
</g>
<!-- ICollisionSystemParticipator&#45;&gt;ICollisionSystemParticipatorWrapper -->
<g id="edge14" class="edge"><title>ICollisionSystemParticipator&#45;&gt;ICollisionSystemParticipatorWrapper</title>
<path fill="none" stroke="black" stroke-dasharray="5,2" d="M2147.05,-72.411C2165.8,-62.6472 2190.89,-50.2112 2212.83,-39.7961"/>
<polygon fill="black" stroke="black" points="2214.45,-42.8994 2222.01,-35.4699 2211.47,-36.5675 2214.45,-42.8994"/>
</g>
<!-- Callback -->
<g id="node8" class="node"><title>Callback</title>
<ellipse fill="#e5e5e5" stroke="black" cx="1182.24" cy="-18" rx="42.4939" ry="18"/>
<text text-anchor="middle" x="1182.24" y="-14.3" font-family="Times New Roman,serif" font-size="14.00">Callback</text>
</g>
<!-- IFlipX -->
<g id="node34" class="node"><title>IFlipX</title>
<ellipse fill="none" stroke="black" stroke-dasharray="5,2" cx="778.243" cy="-18" rx="34.394" ry="18"/>
<text text-anchor="middle" x="778.243" y="-14.3" font-family="Times New Roman,serif" font-size="14.00">IFlipX</text>
</g>
<!-- FlipXCollection&#45;&gt;IFlipX -->
<g id="edge15" class="edge"><title>FlipXCollection&#45;&gt;IFlipX</title>
<path fill="none" stroke="black" stroke-dasharray="5,2" d="M741.862,-72.055C747.725,-63.5048 754.946,-52.975 761.404,-43.5561"/>
<polygon fill="black" stroke="black" points="764.292,-45.5337 767.061,-35.307 758.519,-41.5749 764.292,-45.5337"/>
</g>
<!-- CreatureHealth&#45;&gt;Callback -->
<g id="edge18" class="edge"><title>CreatureHealth&#45;&gt;Callback</title>
<path fill="none" stroke="black" d="M1069.39,-146.221C1087.22,-136.961 1109.01,-123.794 1125.24,-108 1144.14,-89.6118 1159.79,-63.8197 1169.87,-44.7322"/>
<polygon fill="black" stroke="black" points="1173.06,-46.196 1174.5,-35.6999 1166.83,-43.0054 1173.06,-46.196"/>
</g>
<!-- ICreatureHealth -->
<g id="node24" class="node"><title>ICreatureHealth</title>
<ellipse fill="none" stroke="black" stroke-dasharray="5,2" cx="1048.24" cy="-90" rx="67.6881" ry="18"/>
<text text-anchor="middle" x="1048.24" y="-86.3" font-family="Times New Roman,serif" font-size="14.00">ICreatureHealth</text>
</g>
<!-- CreatureHealth&#45;&gt;ICreatureHealth -->
<g id="edge16" class="edge"><title>CreatureHealth&#45;&gt;ICreatureHealth</title>
<path fill="none" stroke="black" stroke-dasharray="5,2" d="M1039.96,-143.697C1041.17,-135.983 1042.63,-126.712 1043.98,-118.112"/>
<polygon fill="black" stroke="black" points="1047.46,-118.526 1045.55,-108.104 1040.54,-117.44 1047.46,-118.526"/>
</g>
<!-- CreatureHealth&#45;&gt;IBarDisplay -->
<g id="edge17" class="edge"><title>CreatureHealth&#45;&gt;IBarDisplay</title>
<path fill="none" stroke="black" d="M1008.93,-145.638C989.896,-135.308 964.639,-121.602 944.184,-110.503"/>
<polygon fill="black" stroke="black" points="945.621,-107.301 935.163,-105.608 942.283,-113.453 945.621,-107.301"/>
</g>
<!-- CreaturePhysics -->
<g id="node11" class="node"><title>CreaturePhysics</title>
<ellipse fill="none" stroke="black" cx="462.243" cy="-234" rx="69.5877" ry="18"/>
<text text-anchor="middle" x="462.243" y="-230.3" font-family="Times New Roman,serif" font-size="14.00">CreaturePhysics</text>
</g>
<!-- CreaturePhysics&#45;&gt;CreaturePhysicsProperties -->
<g id="edge21" class="edge"><title>CreaturePhysics&#45;&gt;CreaturePhysicsProperties</title>
<path fill="none" stroke="black" d="M414.482,-220.887C369.787,-209.551 302.604,-192.512 252.687,-179.852"/>
<polygon fill="black" stroke="black" points="253.5,-176.447 242.946,-177.381 251.779,-183.232 253.5,-176.447"/>
</g>
<!-- ITransform -->
<g id="node13" class="node"><title>ITransform</title>
<ellipse fill="none" stroke="black" stroke-dasharray="5,2" cx="312.243" cy="-90" rx="51.9908" ry="18"/>
<text text-anchor="middle" x="312.243" y="-86.3" font-family="Times New Roman,serif" font-size="14.00">ITransform</text>
</g>
<!-- CreaturePhysics&#45;&gt;ITransform -->
<g id="edge23" class="edge"><title>CreaturePhysics&#45;&gt;ITransform</title>
<path fill="none" stroke="black" d="M411.534,-221.556C386.981,-213.637 358.859,-200.682 340.243,-180 324.882,-162.935 317.947,-137.481 314.817,-118.16"/>
<polygon fill="black" stroke="black" points="318.27,-117.58 313.44,-108.15 311.335,-118.533 318.27,-117.58"/>
</g>
<!-- BasePhysics -->
<g id="node17" class="node"><title>BasePhysics</title>
<ellipse fill="none" stroke="black" cx="406.243" cy="-162" rx="56.59" ry="18"/>
<text text-anchor="middle" x="406.243" y="-158.3" font-family="Times New Roman,serif" font-size="14.00">BasePhysics</text>
</g>
<!-- CreaturePhysics&#45;&gt;BasePhysics -->
<g id="edge19" class="edge"><title>CreaturePhysics&#45;&gt;BasePhysics</title>
<path fill="none" stroke="black" stroke-width="2" d="M448.687,-216.055C441.877,-207.543 433.497,-197.068 425.988,-187.681"/>
<polygon fill="black" stroke="black" stroke-width="2" points="428.654,-185.411 419.674,-179.789 423.188,-189.784 428.654,-185.411"/>
</g>
<!-- CreaturePhysics&#45;&gt;ICreaturePhysics -->
<g id="edge20" class="edge"><title>CreaturePhysics&#45;&gt;ICreaturePhysics</title>
<path fill="none" stroke="black" stroke-dasharray="5,2" d="M497.461,-218.326C523.024,-207.675 557.81,-193.181 585.364,-181.699"/>
<polygon fill="black" stroke="black" points="586.897,-184.852 594.782,-177.775 584.205,-178.391 586.897,-184.852"/>
</g>
<!-- CreaturePhysics&#45;&gt;IRigidBody2d -->
<g id="edge22" class="edge"><title>CreaturePhysics&#45;&gt;IRigidBody2d</title>
<path fill="none" stroke="black" d="M467.658,-216.037C472.62,-197.955 478.341,-168.6 472.243,-144 469.914,-134.606 465.582,-125.043 461.009,-116.673"/>
<polygon fill="black" stroke="black" points="463.899,-114.68 455.839,-107.803 457.851,-118.205 463.899,-114.68"/>
</g>
<!-- Enum -->
<g id="node12" class="node"><title>Enum</title>
<ellipse fill="none" stroke="black" cx="1695.24" cy="-90" rx="31.6951" ry="18"/>
<text text-anchor="middle" x="1695.24" y="-86.3" font-family="Times New Roman,serif" font-size="14.00">Enum</text>
</g>
<!-- TimerCollection&#45;&gt;TimerNotFoundException -->
<g id="edge26" class="edge"><title>TimerCollection&#45;&gt;TimerNotFoundException</title>
<path fill="none" stroke="black" d="M1217.65,-145.465C1235.45,-135.729 1258.64,-123.046 1278.17,-112.369"/>
<polygon fill="black" stroke="black" points="1280.04,-115.336 1287.13,-107.467 1276.68,-109.195 1280.04,-115.336"/>
</g>
<!-- TimerCollection&#45;&gt;Callback -->
<g id="edge25" class="edge"><title>TimerCollection&#45;&gt;Callback</title>
<path fill="none" stroke="black" d="M1188.4,-143.871C1187.21,-119.67 1185.01,-75.2108 1183.59,-46.3932"/>
<polygon fill="black" stroke="black" points="1187.08,-46.0048 1183.09,-36.1893 1180.09,-46.3495 1187.08,-46.0048"/>
</g>
<!-- Timer -->
<g id="node18" class="node"><title>Timer</title>
<ellipse fill="none" stroke="black" cx="1474.24" cy="-90" rx="32.4942" ry="18"/>
<text text-anchor="middle" x="1474.24" y="-86.3" font-family="Times New Roman,serif" font-size="14.00">Timer</text>
</g>
<!-- TimerCollection&#45;&gt;Timer -->
<g id="edge24" class="edge"><title>TimerCollection&#45;&gt;Timer</title>
<path fill="none" stroke="black" d="M1240.85,-149.745C1249.65,-147.827 1258.71,-145.855 1267.24,-144 1341.01,-127.962 1361.2,-130.548 1433.24,-108 1435.54,-107.281 1437.88,-106.485 1440.23,-105.641"/>
<polygon fill="black" stroke="black" points="1441.71,-108.825 1449.79,-101.977 1439.2,-102.289 1441.71,-108.825"/>
</g>
<!-- IBasePhysics -->
<g id="node16" class="node"><title>IBasePhysics</title>
<ellipse fill="none" stroke="black" stroke-dasharray="5,2" cx="584.243" cy="-90" rx="59.5901" ry="18"/>
<text text-anchor="middle" x="584.243" y="-86.3" font-family="Times New Roman,serif" font-size="14.00">IBasePhysics</text>
</g>
<!-- IBasePhysics&#45;&gt;IFlipX -->
<g id="edge27" class="edge"><title>IBasePhysics&#45;&gt;IFlipX</title>
<path fill="none" stroke="black" stroke-dasharray="5,2" d="M621.189,-75.6688C655.51,-63.2852 706.366,-44.9349 740.834,-32.4981"/>
<polygon fill="black" stroke="black" points="742.312,-35.6857 750.53,-28.9994 739.936,-29.1012 742.312,-35.6857"/>
</g>
<!-- BasePhysics&#45;&gt;ITransform -->
<g id="edge29" class="edge"><title>BasePhysics&#45;&gt;ITransform</title>
<path fill="none" stroke="black" d="M384.913,-145.116C372.083,-135.562 355.573,-123.267 341.533,-112.812"/>
<polygon fill="black" stroke="black" points="343.276,-109.746 333.165,-106.58 339.095,-115.36 343.276,-109.746"/>
</g>
<!-- BasePhysics&#45;&gt;IBasePhysics -->
<g id="edge28" class="edge"><title>BasePhysics&#45;&gt;IBasePhysics</title>
<path fill="none" stroke="black" stroke-dasharray="5,2" d="M440.563,-147.503C468.822,-136.39 509.09,-120.554 539.81,-108.474"/>
<polygon fill="black" stroke="black" points="541.395,-111.611 549.421,-104.694 538.833,-105.097 541.395,-111.611"/>
</g>
<!-- BasePhysics&#45;&gt;IRigidBody2d -->
<g id="edge30" class="edge"><title>BasePhysics&#45;&gt;IRigidBody2d</title>
<path fill="none" stroke="black" d="M415.442,-144.055C419.811,-136.007 425.132,-126.205 430.006,-117.226"/>
<polygon fill="black" stroke="black" points="433.17,-118.734 434.865,-108.275 427.018,-115.394 433.17,-118.734"/>
</g>
<!-- Timer&#45;&gt;Callback -->
<g id="edge31" class="edge"><title>Timer&#45;&gt;Callback</title>
<path fill="none" stroke="black" d="M1449.8,-77.9928C1444.42,-75.8141 1438.69,-73.6834 1433.24,-72 1358.62,-48.9427 1337.64,-52.2153 1261.24,-36 1250.84,-33.7927 1239.68,-31.4025 1229.11,-29.1312"/>
<polygon fill="black" stroke="black" points="1229.72,-25.6824 1219.21,-26.9997 1228.25,-32.5257 1229.72,-25.6824"/>
</g>
<!-- Debug -->
<g id="node25" class="node"><title>Debug</title>
<ellipse fill="#e5e5e5" stroke="black" cx="1507.24" cy="-18" rx="34.394" ry="18"/>
<text text-anchor="middle" x="1507.24" y="-14.3" font-family="Times New Roman,serif" font-size="14.00">Debug</text>
</g>
<!-- Timer&#45;&gt;Debug -->
<g id="edge32" class="edge"><title>Timer&#45;&gt;Debug</title>
<path fill="none" stroke="black" d="M1482.06,-72.411C1485.91,-64.2493 1490.64,-54.2203 1494.95,-45.0653"/>
<polygon fill="black" stroke="black" points="1498.15,-46.494 1499.25,-35.9562 1491.82,-43.509 1498.15,-46.494"/>
</g>
<!-- ICreatureController&#45;&gt;ICollisionSystemParticipator -->
<g id="edge33" class="edge"><title>ICreatureController&#45;&gt;ICollisionSystemParticipator</title>
<path fill="none" stroke="black" stroke-dasharray="5,2" d="M2132.04,-143.697C2130.15,-135.898 2127.87,-126.509 2125.76,-117.829"/>
<polygon fill="black" stroke="black" points="2129.16,-116.996 2123.4,-108.104 2122.36,-118.648 2129.16,-116.996"/>
</g>
<!-- WrapperTransform -->
<g id="node20" class="node"><title>WrapperTransform</title>
<ellipse fill="none" stroke="black" cx="81.2428" cy="-234" rx="81.4863" ry="18"/>
<text text-anchor="middle" x="81.2428" y="-230.3" font-family="Times New Roman,serif" font-size="14.00">WrapperTransform</text>
</g>
<!-- WrapperTransform&#45;&gt;ITransform -->
<g id="edge34" class="edge"><title>WrapperTransform&#45;&gt;ITransform</title>
<path fill="none" stroke="black" stroke-dasharray="5,2" d="M72.4241,-215.904C63.7067,-196.339 53.8451,-164.378 70.2428,-144 92.6379,-116.169 187.863,-102.141 251.972,-95.7205"/>
<polygon fill="black" stroke="black" points="252.361,-99.1993 261.978,-94.7545 251.688,-92.2317 252.361,-99.1993"/>
</g>
<!-- ICreaturePhysics&#45;&gt;IBasePhysics -->
<g id="edge35" class="edge"><title>ICreaturePhysics&#45;&gt;IBasePhysics</title>
<path fill="none" stroke="black" stroke-dasharray="5,2" d="M619.107,-144.055C613.627,-135.715 606.908,-125.491 600.837,-116.252"/>
<polygon fill="black" stroke="black" points="603.692,-114.224 595.276,-107.789 597.842,-118.068 603.692,-114.224"/>
</g>
<!-- BaseCreatureBehaviour -->
<g id="node22" class="node"><title>BaseCreatureBehaviour</title>
<ellipse fill="none" stroke="black" cx="1444.24" cy="-306" rx="95.5831" ry="18"/>
<text text-anchor="middle" x="1444.24" y="-302.3" font-family="Times New Roman,serif" font-size="14.00">BaseCreatureBehaviour</text>
</g>
<!-- BaseCreatureBehaviour&#45;&gt;CreaturePhysicsProperties -->
<g id="edge42" class="edge"><title>BaseCreatureBehaviour&#45;&gt;CreaturePhysicsProperties</title>
<path fill="none" stroke="black" d="M1348.79,-304.773C1123.67,-303.506 564.866,-295.892 383.243,-252 324.142,-237.717 260.945,-205.867 222.508,-184.405"/>
<polygon fill="black" stroke="black" points="224.183,-181.332 213.756,-179.458 220.739,-187.426 224.183,-181.332"/>
</g>
<!-- BaseCreatureBehaviour&#45;&gt;ICreatureControllerWrapper -->
<g id="edge37" class="edge"><title>BaseCreatureBehaviour&#45;&gt;ICreatureControllerWrapper</title>
<path fill="none" stroke="black" stroke-dasharray="5,2" d="M1532.02,-298.808C1652.1,-290.035 1874.28,-272.725 2063.24,-252 2074.73,-250.74 2086.79,-249.291 2098.71,-247.782"/>
<polygon fill="black" stroke="black" points="2099.2,-251.248 2108.67,-246.503 2098.31,-244.305 2099.2,-251.248"/>
</g>
<!-- BaseCreatureBehaviour&#45;&gt;WrapperRigidbody2d -->
<g id="edge46" class="edge"><title>BaseCreatureBehaviour&#45;&gt;WrapperRigidbody2d</title>
<path fill="none" stroke="black" d="M1357.48,-298.463C1239.9,-289.362 1023.49,-271.75 839.243,-252 822.83,-250.241 805.312,-248.164 788.537,-246.076"/>
<polygon fill="black" stroke="black" points="788.564,-242.552 778.205,-244.778 787.691,-249.498 788.564,-242.552"/>
</g>
<!-- BaseCreatureBehaviour&#45;&gt;BarBehaviour -->
<g id="edge43" class="edge"><title>BaseCreatureBehaviour&#45;&gt;BarBehaviour</title>
<path fill="none" stroke="black" d="M1419.16,-288.588C1404.35,-278.905 1385.47,-266.548 1369.56,-256.14"/>
<polygon fill="black" stroke="black" points="1371.36,-253.134 1361.07,-250.588 1367.52,-258.992 1371.36,-253.134"/>
</g>
<!-- BaseCreatureBehaviour&#45;&gt;BaseCreature -->
<g id="edge40" class="edge"><title>BaseCreatureBehaviour&#45;&gt;BaseCreature</title>
<path fill="none" stroke="black" d="M1368.16,-295.082C1261.69,-281.203 1070.18,-256.239 970.863,-243.293"/>
<polygon fill="black" stroke="black" points="971.041,-239.787 960.673,-241.965 970.137,-246.728 971.041,-239.787"/>
</g>
<!-- BaseCreatureBehaviour&#45;&gt;ICollisionSystemParticipator -->
<g id="edge49" class="edge"><title>BaseCreatureBehaviour&#45;&gt;ICollisionSystemParticipator</title>
<path fill="none" stroke="black" d="M1534.08,-299.874C1649.84,-290.065 1854.46,-261.681 2008.24,-180 2028.79,-169.087 2028.35,-158.866 2046.24,-144 2058.87,-133.511 2073.39,-122.726 2086.15,-113.647"/>
<polygon fill="black" stroke="black" points="2088.49,-116.279 2094.64,-107.658 2084.45,-110.557 2088.49,-116.279"/>
</g>
<!-- BaseCreatureBehaviour&#45;&gt;CreaturePhysics -->
<g id="edge45" class="edge"><title>BaseCreatureBehaviour&#45;&gt;CreaturePhysics</title>
<path fill="none" stroke="black" d="M1352.56,-300.869C1198.15,-293.539 876.502,-276.673 605.243,-252 581.602,-249.85 555.826,-246.956 532.751,-244.166"/>
<polygon fill="black" stroke="black" points="533.051,-240.677 522.7,-242.937 532.201,-247.625 533.051,-240.677"/>
</g>
<!-- BaseCreatureBehaviour&#45;&gt;ICreatureController -->
<g id="edge48" class="edge"><title>BaseCreatureBehaviour&#45;&gt;ICreatureController</title>
<path fill="none" stroke="black" d="M1538.73,-303.192C1680.26,-299.341 1939.78,-287.529 2025.24,-252 2048.26,-242.432 2048.85,-231.664 2068.24,-216 2080.73,-205.912 2094.69,-194.974 2106.7,-185.669"/>
<polygon fill="black" stroke="black" points="2108.88,-188.403 2114.65,-179.519 2104.6,-182.865 2108.88,-188.403"/>
</g>
<!-- BaseCreatureBehaviour&#45;&gt;WrapperTransform -->
<g id="edge47" class="edge"><title>BaseCreatureBehaviour&#45;&gt;WrapperTransform</title>
<path fill="none" stroke="black" d="M1351.23,-301.807C1155.27,-294.842 685.623,-276.889 292.243,-252 250.494,-249.359 204.155,-245.705 165.563,-242.462"/>
<polygon fill="black" stroke="black" points="165.671,-238.959 155.411,-241.603 165.081,-245.934 165.671,-238.959"/>
</g>
<!-- BaseCreatureBehaviour&#45;&gt;ICollisionSystemParticipatorWrapper -->
<g id="edge38" class="edge"><title>BaseCreatureBehaviour&#45;&gt;ICollisionSystemParticipatorWrapper</title>
<path fill="none" stroke="black" stroke-dasharray="5,2" d="M1538.29,-302.681C1757.53,-296.817 2286.04,-279.851 2312.24,-252 2366.76,-194.058 2310.73,-91.8585 2279.37,-44.4612"/>
<polygon fill="black" stroke="black" points="2282.15,-42.3284 2273.65,-36.0065 2276.35,-46.2505 2282.15,-42.3284"/>
</g>
<!-- BaseCreatureBehaviour&#45;&gt;MonoBehaviour -->
<g id="edge36" class="edge"><title>BaseCreatureBehaviour&#45;&gt;MonoBehaviour</title>
<path fill="none" stroke="black" stroke-width="2" d="M1439.4,-287.777C1433.57,-268.95 1422.47,-238.475 1406.24,-216 1398.15,-204.797 1387.3,-194.302 1377.04,-185.655"/>
<polygon fill="black" stroke="black" stroke-width="2" points="1378.98,-182.722 1369.01,-179.137 1374.57,-188.157 1378.98,-182.722"/>
</g>
<!-- CreatureFsm -->
<g id="node31" class="node"><title>CreatureFsm</title>
<ellipse fill="none" stroke="black" cx="1549.24" cy="-234" rx="57.6901" ry="18"/>
<text text-anchor="middle" x="1549.24" y="-230.3" font-family="Times New Roman,serif" font-size="14.00">CreatureFsm</text>
</g>
<!-- BaseCreatureBehaviour&#45;&gt;CreatureFsm -->
<g id="edge41" class="edge"><title>BaseCreatureBehaviour&#45;&gt;CreatureFsm</title>
<path fill="none" stroke="black" d="M1468.86,-288.588C1483.39,-278.905 1501.92,-266.548 1517.53,-256.14"/>
<polygon fill="black" stroke="black" points="1519.48,-259.047 1525.86,-250.588 1515.6,-253.223 1519.48,-259.047"/>
</g>
<!-- NotNull -->
<g id="node32" class="node"><title>NotNull</title>
<ellipse fill="#e5e5e5" stroke="black" cx="1473.24" cy="-162" rx="38.9931" ry="18"/>
<text text-anchor="middle" x="1473.24" y="-158.3" font-family="Times New Roman,serif" font-size="14.00">NotNull</text>
</g>
<!-- BaseCreatureBehaviour&#45;&gt;NotNull -->
<g id="edge44" class="edge"><title>BaseCreatureBehaviour&#45;&gt;NotNull</title>
<path fill="none" stroke="black" d="M1447.74,-287.871C1452.71,-263.564 1461.84,-218.819 1467.73,-190.013"/>
<polygon fill="black" stroke="black" points="1471.16,-190.687 1469.73,-180.189 1464.3,-189.287 1471.16,-190.687"/>
</g>
<!-- IHasSpriteRendererAndAudioSource -->
<g id="node36" class="node"><title>IHasSpriteRendererAndAudioSource</title>
<ellipse fill="none" stroke="black" stroke-dasharray="5,2" cx="1853.24" cy="-162" rx="146.474" ry="18"/>
<text text-anchor="middle" x="1853.24" y="-158.3" font-family="Times New Roman,serif" font-size="14.00">IHasSpriteRendererAndAudioSource</text>
</g>
<!-- BaseCreatureBehaviour&#45;&gt;IHasSpriteRendererAndAudioSource -->
<g id="edge39" class="edge"><title>BaseCreatureBehaviour&#45;&gt;IHasSpriteRendererAndAudioSource</title>
<path fill="none" stroke="black" stroke-dasharray="5,2" d="M1493.8,-290.592C1528.3,-280.351 1575.29,-265.985 1616.24,-252 1681.03,-229.875 1754.72,-201.724 1802.49,-183.072"/>
<polygon fill="black" stroke="black" points="1803.95,-186.26 1811.99,-179.357 1801.4,-179.742 1803.95,-186.26"/>
</g>
<!-- ICreatureFsm -->
<g id="node23" class="node"><title>ICreatureFsm</title>
<ellipse fill="none" stroke="black" stroke-dasharray="5,2" cx="1628.24" cy="-162" rx="60.3893" ry="18"/>
<text text-anchor="middle" x="1628.24" y="-158.3" font-family="Times New Roman,serif" font-size="14.00">ICreatureFsm</text>
</g>
<!-- ICreatureFsm&#45;&gt;Enum -->
<g id="edge51" class="edge"><title>ICreatureFsm&#45;&gt;Enum</title>
<path fill="none" stroke="black" stroke-dasharray="5,2" d="M1644.12,-144.411C1652.88,-135.261 1663.88,-123.765 1673.44,-113.784"/>
<polygon fill="black" stroke="black" points="1676.01,-116.155 1680.4,-106.511 1670.95,-111.315 1676.01,-116.155"/>
</g>
<!-- struct -->
<g id="node33" class="node"><title>struct</title>
<ellipse fill="none" stroke="black" cx="1614.24" cy="-90" rx="31.3957" ry="18"/>
<text text-anchor="middle" x="1614.24" y="-86.3" font-family="Times New Roman,serif" font-size="14.00">struct</text>
</g>
<!-- ICreatureFsm&#45;&gt;struct -->
<g id="edge50" class="edge"><title>ICreatureFsm&#45;&gt;struct</title>
<path fill="none" stroke="black" stroke-width="2" d="M1624.78,-143.697C1623.24,-135.983 1621.39,-126.712 1619.67,-118.112"/>
<polygon fill="black" stroke="black" stroke-width="2" points="1623.06,-117.224 1617.66,-108.104 1616.19,-118.597 1623.06,-117.224"/>
</g>
<!-- ICollisionSystemParticipatorWrapper&#45;&gt;ICollisionSystemParticipator -->
<g id="edge52" class="edge"><title>ICollisionSystemParticipatorWrapper&#45;&gt;ICollisionSystemParticipator</title>
<path fill="none" stroke="black" d="M2233.19,-35.7153C2214.23,-45.5859 2188.85,-58.1541 2166.81,-68.6052"/>
<polygon fill="black" stroke="black" points="2165.16,-65.5154 2157.6,-72.9406 2168.14,-71.849 2165.16,-65.5154"/>
</g>
<!-- IBarDisplay&#45;&gt;IFlipX -->
<g id="edge53" class="edge"><title>IBarDisplay&#45;&gt;IFlipX</title>
<path fill="none" stroke="black" stroke-dasharray="5,2" d="M880.991,-74.3257C860.404,-63.2407 832.087,-47.9931 810.393,-36.3116"/>
<polygon fill="black" stroke="black" points="812.007,-33.2056 801.543,-31.5462 808.688,-39.3689 812.007,-33.2056"/>
</g>
<!-- CreatureFsm&#45;&gt;ICreatureFsm -->
<g id="edge54" class="edge"><title>CreatureFsm&#45;&gt;ICreatureFsm</title>
<path fill="none" stroke="black" stroke-dasharray="5,2" d="M1567.57,-216.765C1577.86,-207.642 1590.88,-196.105 1602.22,-186.059"/>
<polygon fill="black" stroke="black" points="1604.58,-188.641 1609.75,-179.39 1599.94,-183.402 1604.58,-188.641"/>
</g>
<!-- CreatureFsm&#45;&gt;Debug -->
<g id="edge57" class="edge"><title>CreatureFsm&#45;&gt;Debug</title>
<path fill="none" stroke="black" d="M1545.88,-215.849C1538.58,-178.662 1521.25,-90.3744 1512.5,-45.7715"/>
<polygon fill="black" stroke="black" points="1515.93,-45.0741 1510.57,-35.9354 1509.06,-46.4223 1515.93,-45.0741"/>
</g>
<!-- CreatureFsm&#45;&gt;NotNull -->
<g id="edge56" class="edge"><title>CreatureFsm&#45;&gt;NotNull</title>
<path fill="none" stroke="black" d="M1531.62,-216.765C1521.52,-207.47 1508.71,-195.668 1497.66,-185.491"/>
<polygon fill="black" stroke="black" points="1499.72,-182.627 1489.99,-178.427 1494.98,-187.776 1499.72,-182.627"/>
</g>
<!-- CreatureFsm&#45;&gt;IHasSpriteRendererAndAudioSource -->
<g id="edge55" class="edge"><title>CreatureFsm&#45;&gt;IHasSpriteRendererAndAudioSource</title>
<path fill="none" stroke="black" d="M1594.43,-222.596C1642.74,-211.471 1720.17,-193.642 1777.76,-180.38"/>
<polygon fill="black" stroke="black" points="1778.59,-183.781 1787.55,-178.126 1777.02,-176.96 1778.59,-183.781"/>
</g>
<!-- BarCollection&#45;&gt;IBarDisplay -->
<g id="edge59" class="edge"><title>BarCollection&#45;&gt;IBarDisplay</title>
<path fill="none" stroke="black" d="M839.885,-144.765C851.764,-135.422 866.863,-123.546 879.847,-113.334"/>
<polygon fill="black" stroke="black" points="882.323,-115.839 888.019,-106.906 877.996,-110.337 882.323,-115.839"/>
</g>
<!-- BarCollection&#45;&gt;IFlipX -->
<g id="edge58" class="edge"><title>BarCollection&#45;&gt;IFlipX</title>
<path fill="none" stroke="black" stroke-dasharray="5,2" d="M818.782,-143.856C817.87,-125.624 815.173,-96.1447 807.243,-72 804.118,-62.4865 799.291,-52.6978 794.465,-44.1622"/>
<polygon fill="black" stroke="black" points="797.42,-42.2826 789.311,-35.4643 791.398,-45.8515 797.42,-42.2826"/>
</g>
</g>
</svg>
