<?xml version="1.0" encoding="UTF-8" standalone="no"?>
<!DOCTYPE svg PUBLIC "-//W3C//DTD SVG 1.1//EN"
 "http://www.w3.org/Graphics/SVG/1.1/DTD/svg11.dtd">
<!-- Generated by graphviz version 2.38.0 (20140413.2041)
 -->
<!-- Title: %3 Pages: 1 -->
<svg width="2549pt" height="332pt"
 viewBox="0.00 0.00 2549.02 332.00" xmlns="http://www.w3.org/2000/svg" xmlns:xlink="http://www.w3.org/1999/xlink">
<g id="graph0" class="graph" transform="scale(1 1) rotate(0) translate(4 328)">
<title>%3</title>
<polygon fill="white" stroke="none" points="-4,4 -4,-328 2545.02,-328 2545.02,4 -4,4"/>
<!-- ICollisionSystemParticipatorWrapper -->
<g id="node1" class="node"><title>ICollisionSystemParticipatorWrapper</title>
<ellipse fill="none" stroke="black" stroke-dasharray="5,2" cx="162.787" cy="-162" rx="146.774" ry="18"/>
<text text-anchor="middle" x="162.787" y="-158.3" font-family="Times New Roman,serif" font-size="14.00">ICollisionSystemParticipatorWrapper</text>
</g>
<!-- ICollisionSystemParticipator -->
<g id="node31" class="node"><title>ICollisionSystemParticipator</title>
<ellipse fill="none" stroke="black" stroke-dasharray="5,2" cx="162.787" cy="-90" rx="114.28" ry="18"/>
<text text-anchor="middle" x="162.787" y="-86.3" font-family="Times New Roman,serif" font-size="14.00">ICollisionSystemParticipator</text>
</g>
<!-- ICollisionSystemParticipatorWrapper&#45;&gt;ICollisionSystemParticipator -->
<g id="edge1" class="edge"><title>ICollisionSystemParticipatorWrapper&#45;&gt;ICollisionSystemParticipator</title>
<path fill="none" stroke="black" d="M156.871,-143.697C156.075,-135.983 155.849,-126.712 156.191,-118.112"/>
<polygon fill="black" stroke="black" points="159.685,-118.324 156.891,-108.104 152.702,-117.836 159.685,-118.324"/>
</g>
<!-- MonoBehaviour -->
<g id="node2" class="node"><title>MonoBehaviour</title>
<ellipse fill="none" stroke="black" cx="653.787" cy="-162" rx="69.5877" ry="18"/>
<text text-anchor="middle" x="653.787" y="-158.3" font-family="Times New Roman,serif" font-size="14.00">MonoBehaviour</text>
</g>
<!-- ICreatureHealth -->
<g id="node3" class="node"><title>ICreatureHealth</title>
<ellipse fill="none" stroke="black" stroke-dasharray="5,2" cx="909.787" cy="-90" rx="67.6881" ry="18"/>
<text text-anchor="middle" x="909.787" y="-86.3" font-family="Times New Roman,serif" font-size="14.00">ICreatureHealth</text>
</g>
<!-- WrapperRigidbody2d -->
<g id="node4" class="node"><title>WrapperRigidbody2d</title>
<ellipse fill="none" stroke="black" cx="1402.79" cy="-234" rx="90.9839" ry="18"/>
<text text-anchor="middle" x="1402.79" y="-230.3" font-family="Times New Roman,serif" font-size="14.00">WrapperRigidbody2d</text>
</g>
<!-- IRigidBody2d -->
<g id="node26" class="node"><title>IRigidBody2d</title>
<ellipse fill="none" stroke="black" stroke-dasharray="5,2" cx="1554.79" cy="-90" rx="62.2891" ry="18"/>
<text text-anchor="middle" x="1554.79" y="-86.3" font-family="Times New Roman,serif" font-size="14.00">IRigidBody2d</text>
</g>
<!-- WrapperRigidbody2d&#45;&gt;IRigidBody2d -->
<g id="edge2" class="edge"><title>WrapperRigidbody2d&#45;&gt;IRigidBody2d</title>
<path fill="none" stroke="black" stroke-dasharray="5,2" d="M1418.28,-216.04C1435.28,-197.707 1463.63,-167.905 1489.79,-144 1501.2,-133.567 1514.34,-122.667 1525.8,-113.484"/>
<polygon fill="black" stroke="black" points="1528.14,-116.092 1533.8,-107.132 1523.79,-110.609 1528.14,-116.092"/>
</g>
<!-- Exception -->
<g id="node5" class="node"><title>Exception</title>
<ellipse fill="none" stroke="black" cx="420.787" cy="-18" rx="47.3916" ry="18"/>
<text text-anchor="middle" x="420.787" y="-14.3" font-family="Times New Roman,serif" font-size="14.00">Exception</text>
</g>
<!-- Debug -->
<g id="node6" class="node"><title>Debug</title>
<ellipse fill="#e5e5e5" stroke="black" cx="735.787" cy="-18" rx="34.394" ry="18"/>
<text text-anchor="middle" x="735.787" y="-14.3" font-family="Times New Roman,serif" font-size="14.00">Debug</text>
</g>
<!-- ICreatureFsm -->
<g id="node7" class="node"><title>ICreatureFsm</title>
<ellipse fill="none" stroke="black" stroke-dasharray="5,2" cx="2036.79" cy="-162" rx="60.3893" ry="18"/>
<text text-anchor="middle" x="2036.79" y="-158.3" font-family="Times New Roman,serif" font-size="14.00">ICreatureFsm</text>
</g>
<!-- struct -->
<g id="node17" class="node"><title>struct</title>
<ellipse fill="none" stroke="black" cx="2050.79" cy="-90" rx="31.3957" ry="18"/>
<text text-anchor="middle" x="2050.79" y="-86.3" font-family="Times New Roman,serif" font-size="14.00">struct</text>
</g>
<!-- ICreatureFsm&#45;&gt;struct -->
<g id="edge3" class="edge"><title>ICreatureFsm&#45;&gt;struct</title>
<path fill="none" stroke="black" stroke-width="2" d="M2040.25,-143.697C2041.79,-135.983 2043.64,-126.712 2045.36,-118.112"/>
<polygon fill="black" stroke="black" stroke-width="2" points="2048.84,-118.597 2047.37,-108.104 2041.97,-117.224 2048.84,-118.597"/>
</g>
<!-- Enum -->
<g id="node25" class="node"><title>Enum</title>
<ellipse fill="none" stroke="black" cx="1969.79" cy="-90" rx="31.6951" ry="18"/>
<text text-anchor="middle" x="1969.79" y="-86.3" font-family="Times New Roman,serif" font-size="14.00">Enum</text>
</g>
<!-- ICreatureFsm&#45;&gt;Enum -->
<g id="edge4" class="edge"><title>ICreatureFsm&#45;&gt;Enum</title>
<path fill="none" stroke="black" stroke-dasharray="5,2" d="M2020.91,-144.411C2012.15,-135.261 2001.15,-123.765 1991.59,-113.784"/>
<polygon fill="black" stroke="black" points="1994.08,-111.315 1984.63,-106.511 1989.02,-116.155 1994.08,-111.315"/>
</g>
<!-- Timer -->
<g id="node8" class="node"><title>Timer</title>
<ellipse fill="none" stroke="black" cx="753.787" cy="-90" rx="32.4942" ry="18"/>
<text text-anchor="middle" x="753.787" y="-86.3" font-family="Times New Roman,serif" font-size="14.00">Timer</text>
</g>
<!-- Timer&#45;&gt;Debug -->
<g id="edge6" class="edge"><title>Timer&#45;&gt;Debug</title>
<path fill="none" stroke="black" d="M749.429,-72.055C747.425,-64.2609 744.998,-54.8219 742.75,-46.0789"/>
<polygon fill="black" stroke="black" points="746.109,-45.0886 740.229,-36.2753 739.33,-46.8319 746.109,-45.0886"/>
</g>
<!-- Callback -->
<g id="node33" class="node"><title>Callback</title>
<ellipse fill="#e5e5e5" stroke="black" cx="830.787" cy="-18" rx="42.4939" ry="18"/>
<text text-anchor="middle" x="830.787" y="-14.3" font-family="Times New Roman,serif" font-size="14.00">Callback</text>
</g>
<!-- Timer&#45;&gt;Callback -->
<g id="edge5" class="edge"><title>Timer&#45;&gt;Callback</title>
<path fill="none" stroke="black" d="M770.116,-74.1548C780.618,-64.6076 794.459,-52.0254 806.268,-41.2895"/>
<polygon fill="black" stroke="black" points="808.635,-43.8681 813.68,-34.5516 803.926,-38.6885 808.635,-43.8681"/>
</g>
<!-- NotNull -->
<g id="node9" class="node"><title>NotNull</title>
<ellipse fill="#e5e5e5" stroke="black" cx="2191.79" cy="-162" rx="38.9931" ry="18"/>
<text text-anchor="middle" x="2191.79" y="-158.3" font-family="Times New Roman,serif" font-size="14.00">NotNull</text>
</g>
<!-- CreatureHealth -->
<g id="node10" class="node"><title>CreatureHealth</title>
<ellipse fill="none" stroke="black" cx="962.787" cy="-162" rx="64.189" ry="18"/>
<text text-anchor="middle" x="962.787" y="-158.3" font-family="Times New Roman,serif" font-size="14.00">CreatureHealth</text>
</g>
<!-- CreatureHealth&#45;&gt;ICreatureHealth -->
<g id="edge7" class="edge"><title>CreatureHealth&#45;&gt;ICreatureHealth</title>
<path fill="none" stroke="black" stroke-dasharray="5,2" d="M949.957,-144.055C943.577,-135.629 935.741,-125.28 928.69,-115.966"/>
<polygon fill="black" stroke="black" points="931.325,-113.649 922.498,-107.789 925.744,-117.874 931.325,-113.649"/>
</g>
<!-- IBarDisplay -->
<g id="node19" class="node"><title>IBarDisplay</title>
<ellipse fill="none" stroke="black" stroke-dasharray="5,2" cx="1090.79" cy="-90" rx="53.8905" ry="18"/>
<text text-anchor="middle" x="1090.79" y="-86.3" font-family="Times New Roman,serif" font-size="14.00">IBarDisplay</text>
</g>
<!-- CreatureHealth&#45;&gt;IBarDisplay -->
<g id="edge8" class="edge"><title>CreatureHealth&#45;&gt;IBarDisplay</title>
<path fill="none" stroke="black" d="M990.877,-145.638C1009.64,-135.378 1034.49,-121.787 1054.71,-110.728"/>
<polygon fill="black" stroke="black" points="1056.55,-113.715 1063.64,-105.846 1053.19,-107.573 1056.55,-113.715"/>
</g>
<!-- CreatureHealth&#45;&gt;Callback -->
<g id="edge9" class="edge"><title>CreatureHealth&#45;&gt;Callback</title>
<path fill="none" stroke="black" d="M975.115,-144.086C987.395,-124.98 1002.35,-93.7258 986.787,-72 963.362,-39.3024 918.603,-26.5346 883.014,-21.6676"/>
<polygon fill="black" stroke="black" points="883.117,-18.1552 872.773,-20.4457 882.287,-25.1059 883.117,-18.1552"/>
</g>
<!-- BarCollection -->
<g id="node11" class="node"><title>BarCollection</title>
<ellipse fill="none" stroke="black" cx="1180.79" cy="-162" rx="60.3893" ry="18"/>
<text text-anchor="middle" x="1180.79" y="-158.3" font-family="Times New Roman,serif" font-size="14.00">BarCollection</text>
</g>
<!-- BarCollection&#45;&gt;IBarDisplay -->
<g id="edge11" class="edge"><title>BarCollection&#45;&gt;IBarDisplay</title>
<path fill="none" stroke="black" d="M1159.91,-144.765C1147.9,-135.422 1132.63,-123.546 1119.5,-113.334"/>
<polygon fill="black" stroke="black" points="1121.28,-110.283 1111.24,-106.906 1116.98,-115.808 1121.28,-110.283"/>
</g>
<!-- IFlipX -->
<g id="node20" class="node"><title>IFlipX</title>
<ellipse fill="none" stroke="black" stroke-dasharray="5,2" cx="1220.79" cy="-18" rx="34.394" ry="18"/>
<text text-anchor="middle" x="1220.79" y="-14.3" font-family="Times New Roman,serif" font-size="14.00">IFlipX</text>
</g>
<!-- BarCollection&#45;&gt;IFlipX -->
<g id="edge10" class="edge"><title>BarCollection&#45;&gt;IFlipX</title>
<path fill="none" stroke="black" stroke-dasharray="5,2" d="M1181,-143.86C1181.67,-125.631 1184,-96.1536 1191.79,-72 1194.86,-62.4694 1199.67,-52.6763 1204.5,-44.142"/>
<polygon fill="black" stroke="black" points="1207.57,-45.8324 1209.67,-35.4474 1201.55,-42.2575 1207.57,-45.8324"/>
</g>
<!-- FlipXCollection -->
<g id="node12" class="node"><title>FlipXCollection</title>
<ellipse fill="none" stroke="black" cx="1268.79" cy="-90" rx="68.4888" ry="18"/>
<text text-anchor="middle" x="1268.79" y="-86.3" font-family="Times New Roman,serif" font-size="14.00">FlipXCollection</text>
</g>
<!-- FlipXCollection&#45;&gt;IFlipX -->
<g id="edge12" class="edge"><title>FlipXCollection&#45;&gt;IFlipX</title>
<path fill="none" stroke="black" stroke-dasharray="5,2" d="M1257.17,-72.055C1251.3,-63.5048 1244.08,-52.975 1237.62,-43.5561"/>
<polygon fill="black" stroke="black" points="1240.51,-41.5749 1231.97,-35.307 1234.74,-45.5337 1240.51,-41.5749"/>
</g>
<!-- ICreaturePhysics -->
<g id="node13" class="node"><title>ICreaturePhysics</title>
<ellipse fill="none" stroke="black" stroke-dasharray="5,2" cx="1369.79" cy="-162" rx="72.5877" ry="18"/>
<text text-anchor="middle" x="1369.79" y="-158.3" font-family="Times New Roman,serif" font-size="14.00">ICreaturePhysics</text>
</g>
<!-- IBasePhysics -->
<g id="node37" class="node"><title>IBasePhysics</title>
<ellipse fill="none" stroke="black" stroke-dasharray="5,2" cx="1414.79" cy="-90" rx="59.5901" ry="18"/>
<text text-anchor="middle" x="1414.79" y="-86.3" font-family="Times New Roman,serif" font-size="14.00">IBasePhysics</text>
</g>
<!-- ICreaturePhysics&#45;&gt;IBasePhysics -->
<g id="edge13" class="edge"><title>ICreaturePhysics&#45;&gt;IBasePhysics</title>
<path fill="none" stroke="black" stroke-dasharray="5,2" d="M1380.68,-144.055C1386.04,-135.715 1392.61,-125.491 1398.55,-116.252"/>
<polygon fill="black" stroke="black" points="1401.53,-118.093 1403.99,-107.789 1395.64,-114.308 1401.53,-118.093"/>
</g>
<!-- BaseCreatureBehaviour -->
<g id="node14" class="node"><title>BaseCreatureBehaviour</title>
<ellipse fill="none" stroke="black" cx="1293.79" cy="-306" rx="95.5831" ry="18"/>
<text text-anchor="middle" x="1293.79" y="-302.3" font-family="Times New Roman,serif" font-size="14.00">BaseCreatureBehaviour</text>
</g>
<!-- BaseCreatureBehaviour&#45;&gt;ICollisionSystemParticipatorWrapper -->
<g id="edge16" class="edge"><title>BaseCreatureBehaviour&#45;&gt;ICollisionSystemParticipatorWrapper</title>
<path fill="none" stroke="black" stroke-dasharray="5,2" d="M1199.08,-303.349C939.2,-298.435 231.516,-282.324 191.787,-252 172.976,-237.642 166.182,-210.822 163.82,-190.363"/>
<polygon fill="black" stroke="black" points="167.302,-190.003 162.949,-180.343 160.328,-190.609 167.302,-190.003"/>
</g>
<!-- BaseCreatureBehaviour&#45;&gt;WrapperRigidbody2d -->
<g id="edge26" class="edge"><title>BaseCreatureBehaviour&#45;&gt;WrapperRigidbody2d</title>
<path fill="none" stroke="black" d="M1319.34,-288.588C1334.1,-279.109 1352.85,-267.068 1368.84,-256.802"/>
<polygon fill="black" stroke="black" points="1370.87,-259.658 1377.39,-251.309 1367.09,-253.768 1370.87,-259.658"/>
</g>
<!-- BaseCreatureBehaviour&#45;&gt;NotNull -->
<g id="edge24" class="edge"><title>BaseCreatureBehaviour&#45;&gt;NotNull</title>
<path fill="none" stroke="black" d="M1389.6,-305.648C1605.25,-306.204 2114.51,-302.127 2172.79,-252 2190.15,-237.066 2193.94,-210.511 2193.96,-190.282"/>
<polygon fill="black" stroke="black" points="2197.46,-189.987 2193.67,-180.093 2190.46,-190.19 2197.46,-189.987"/>
</g>
<!-- BarBehaviour -->
<g id="node15" class="node"><title>BarBehaviour</title>
<ellipse fill="none" stroke="black" cx="1048.79" cy="-234" rx="59.5901" ry="18"/>
<text text-anchor="middle" x="1048.79" y="-230.3" font-family="Times New Roman,serif" font-size="14.00">BarBehaviour</text>
</g>
<!-- BaseCreatureBehaviour&#45;&gt;BarBehaviour -->
<g id="edge21" class="edge"><title>BaseCreatureBehaviour&#45;&gt;BarBehaviour</title>
<path fill="none" stroke="black" d="M1243.62,-290.666C1201.88,-278.742 1142.7,-261.833 1100.54,-249.785"/>
<polygon fill="black" stroke="black" points="1101.32,-246.369 1090.74,-246.987 1099.39,-253.099 1101.32,-246.369"/>
</g>
<!-- IHasSpriteRendererAndAudioSource -->
<g id="node16" class="node"><title>IHasSpriteRendererAndAudioSource</title>
<ellipse fill="none" stroke="black" stroke-dasharray="5,2" cx="2394.79" cy="-162" rx="146.474" ry="18"/>
<text text-anchor="middle" x="2394.79" y="-158.3" font-family="Times New Roman,serif" font-size="14.00">IHasSpriteRendererAndAudioSource</text>
</g>
<!-- BaseCreatureBehaviour&#45;&gt;IHasSpriteRendererAndAudioSource -->
<g id="edge17" class="edge"><title>BaseCreatureBehaviour&#45;&gt;IHasSpriteRendererAndAudioSource</title>
<path fill="none" stroke="black" stroke-dasharray="5,2" d="M1388.85,-303.741C1588.42,-300.392 2045.02,-288.835 2195.79,-252 2255.01,-237.531 2318.49,-206.032 2357.43,-184.664"/>
<polygon fill="black" stroke="black" points="2359.26,-187.649 2366.3,-179.734 2355.86,-181.53 2359.26,-187.649"/>
</g>
<!-- CreaturePhysics -->
<g id="node18" class="node"><title>CreaturePhysics</title>
<ellipse fill="none" stroke="black" cx="1595.79" cy="-234" rx="69.5877" ry="18"/>
<text text-anchor="middle" x="1595.79" y="-230.3" font-family="Times New Roman,serif" font-size="14.00">CreaturePhysics</text>
</g>
<!-- BaseCreatureBehaviour&#45;&gt;CreaturePhysics -->
<g id="edge25" class="edge"><title>BaseCreatureBehaviour&#45;&gt;CreaturePhysics</title>
<path fill="none" stroke="black" d="M1351.66,-291.586C1404.43,-279.353 1482.11,-261.349 1535.6,-248.951"/>
<polygon fill="black" stroke="black" points="1536.67,-252.294 1545.63,-246.627 1535.09,-245.475 1536.67,-252.294"/>
</g>
<!-- CreaturePhysicsProperties -->
<g id="node22" class="node"><title>CreaturePhysicsProperties</title>
<ellipse fill="none" stroke="black" cx="1813.79" cy="-162" rx="106.681" ry="18"/>
<text text-anchor="middle" x="1813.79" y="-158.3" font-family="Times New Roman,serif" font-size="14.00">CreaturePhysicsProperties</text>
</g>
<!-- BaseCreatureBehaviour&#45;&gt;CreaturePhysicsProperties -->
<g id="edge20" class="edge"><title>BaseCreatureBehaviour&#45;&gt;CreaturePhysicsProperties</title>
<path fill="none" stroke="black" d="M1388.12,-303.077C1466.93,-298.861 1581.13,-286.598 1674.79,-252 1716.5,-236.589 1758.73,-207.152 1785.51,-186.36"/>
<polygon fill="black" stroke="black" points="1787.96,-188.884 1793.64,-179.942 1783.63,-183.389 1787.96,-188.884"/>
</g>
<!-- BaseCollisionSystemParticipatorWrapper -->
<g id="node23" class="node"><title>BaseCollisionSystemParticipatorWrapper</title>
<ellipse fill="none" stroke="black" cx="643.787" cy="-234" rx="161.372" ry="18"/>
<text text-anchor="middle" x="643.787" y="-230.3" font-family="Times New Roman,serif" font-size="14.00">BaseCollisionSystemParticipatorWrapper</text>
</g>
<!-- BaseCreatureBehaviour&#45;&gt;BaseCollisionSystemParticipatorWrapper -->
<g id="edge14" class="edge"><title>BaseCreatureBehaviour&#45;&gt;BaseCollisionSystemParticipatorWrapper</title>
<path fill="none" stroke="black" stroke-width="2" d="M1213.11,-296.311C1100.77,-284.214 896.347,-262.199 765.459,-248.103"/>
<polygon fill="black" stroke="black" stroke-width="2" points="765.699,-244.609 755.382,-247.018 764.95,-251.569 765.699,-244.609"/>
</g>
<!-- CreatureFsm -->
<g id="node27" class="node"><title>CreatureFsm</title>
<ellipse fill="none" stroke="black" cx="2105.79" cy="-234" rx="57.6901" ry="18"/>
<text text-anchor="middle" x="2105.79" y="-230.3" font-family="Times New Roman,serif" font-size="14.00">CreatureFsm</text>
</g>
<!-- BaseCreatureBehaviour&#45;&gt;CreatureFsm -->
<g id="edge19" class="edge"><title>BaseCreatureBehaviour&#45;&gt;CreatureFsm</title>
<path fill="none" stroke="black" d="M1387.53,-302.323C1527.2,-297.408 1797.92,-284.305 2025.79,-252 2034.07,-250.825 2042.78,-249.29 2051.28,-247.624"/>
<polygon fill="black" stroke="black" points="2052.03,-251.044 2061.13,-245.62 2050.63,-244.185 2052.03,-251.044"/>
</g>
<!-- WrapperTransform -->
<g id="node29" class="node"><title>WrapperTransform</title>
<ellipse fill="none" stroke="black" cx="1935.79" cy="-234" rx="81.4863" ry="18"/>
<text text-anchor="middle" x="1935.79" y="-230.3" font-family="Times New Roman,serif" font-size="14.00">WrapperTransform</text>
</g>
<!-- BaseCreatureBehaviour&#45;&gt;WrapperTransform -->
<g id="edge27" class="edge"><title>BaseCreatureBehaviour&#45;&gt;WrapperTransform</title>
<path fill="none" stroke="black" d="M1374.12,-296.241C1497.17,-282.824 1731,-257.328 1854.57,-243.855"/>
<polygon fill="black" stroke="black" points="1855.17,-247.311 1864.73,-242.748 1854.41,-240.352 1855.17,-247.311"/>
</g>
<!-- BaseCreatureBehaviour&#45;&gt;ICollisionSystemParticipator -->
<g id="edge23" class="edge"><title>BaseCreatureBehaviour&#45;&gt;ICollisionSystemParticipator</title>
<path fill="none" stroke="black" d="M1198,-305.119C962.535,-304.671 360.449,-298.829 165.787,-252 90.3639,-233.856 48.8305,-245.193 6.78652,-180 -1.88521,-166.554 -2.53143,-157.007 6.78652,-144 20.5606,-124.773 41.7118,-112.437 64.0375,-104.547"/>
<polygon fill="black" stroke="black" points="65.2246,-107.841 73.6595,-101.43 63.0676,-101.182 65.2246,-107.841"/>
</g>
<!-- BaseCreature -->
<g id="node34" class="node"><title>BaseCreature</title>
<ellipse fill="none" stroke="black" cx="1185.79" cy="-234" rx="59.2899" ry="18"/>
<text text-anchor="middle" x="1185.79" y="-230.3" font-family="Times New Roman,serif" font-size="14.00">BaseCreature</text>
</g>
<!-- BaseCreatureBehaviour&#45;&gt;BaseCreature -->
<g id="edge18" class="edge"><title>BaseCreatureBehaviour&#45;&gt;BaseCreature</title>
<path fill="none" stroke="black" d="M1268.47,-288.588C1253.53,-278.905 1234.46,-266.548 1218.4,-256.14"/>
<polygon fill="black" stroke="black" points="1220.13,-253.09 1209.84,-250.588 1216.32,-258.964 1220.13,-253.09"/>
</g>
<!-- ICreatureController -->
<g id="node35" class="node"><title>ICreatureController</title>
<ellipse fill="none" stroke="black" stroke-dasharray="5,2" cx="408.787" cy="-162" rx="81.4863" ry="18"/>
<text text-anchor="middle" x="408.787" y="-158.3" font-family="Times New Roman,serif" font-size="14.00">ICreatureController</text>
</g>
<!-- BaseCreatureBehaviour&#45;&gt;ICreatureController -->
<g id="edge22" class="edge"><title>BaseCreatureBehaviour&#45;&gt;ICreatureController</title>
<path fill="none" stroke="black" d="M1199.18,-303.369C996.984,-299.241 535.993,-286.167 473.787,-252 448.627,-238.181 430.633,-209.993 420.047,-189.024"/>
<polygon fill="black" stroke="black" points="423.186,-187.477 415.705,-179.975 416.875,-190.505 423.186,-187.477"/>
</g>
<!-- ICreatureControllerWrapper -->
<g id="node36" class="node"><title>ICreatureControllerWrapper</title>
<ellipse fill="none" stroke="black" stroke-dasharray="5,2" cx="313.787" cy="-234" rx="113.18" ry="18"/>
<text text-anchor="middle" x="313.787" y="-230.3" font-family="Times New Roman,serif" font-size="14.00">ICreatureControllerWrapper</text>
</g>
<!-- BaseCreatureBehaviour&#45;&gt;ICreatureControllerWrapper -->
<g id="edge15" class="edge"><title>BaseCreatureBehaviour&#45;&gt;ICreatureControllerWrapper</title>
<path fill="none" stroke="black" stroke-dasharray="5,2" d="M1201.16,-301.402C1044.35,-294.828 716.745,-279.008 440.787,-252 429.025,-250.849 416.676,-249.443 404.489,-247.939"/>
<polygon fill="black" stroke="black" points="404.667,-244.434 394.307,-246.655 403.791,-251.379 404.667,-244.434"/>
</g>
<!-- BarBehaviour&#45;&gt;MonoBehaviour -->
<g id="edge28" class="edge"><title>BarBehaviour&#45;&gt;MonoBehaviour</title>
<path fill="none" stroke="black" stroke-width="2" d="M996.757,-225.101C933.84,-215.365 824.798,-197.9 731.787,-180 726.119,-178.909 720.232,-177.724 714.346,-176.503"/>
<polygon fill="black" stroke="black" stroke-width="2" points="714.988,-173.061 704.481,-174.426 713.545,-179.911 714.988,-173.061"/>
</g>
<!-- BarBehaviour&#45;&gt;IBarDisplay -->
<g id="edge29" class="edge"><title>BarBehaviour&#45;&gt;IBarDisplay</title>
<path fill="none" stroke="black" stroke-dasharray="5,2" d="M1053.85,-215.871C1061.04,-191.564 1074.28,-146.819 1082.8,-118.013"/>
<polygon fill="black" stroke="black" points="1086.22,-118.771 1085.7,-108.189 1079.51,-116.786 1086.22,-118.771"/>
</g>
<!-- CreaturePhysics&#45;&gt;ICreaturePhysics -->
<g id="edge31" class="edge"><title>CreaturePhysics&#45;&gt;ICreaturePhysics</title>
<path fill="none" stroke="black" stroke-dasharray="5,2" d="M1553.01,-219.751C1516.21,-208.351 1462.93,-191.85 1423.3,-179.576"/>
<polygon fill="black" stroke="black" points="1424.13,-176.168 1413.54,-176.552 1422.06,-182.854 1424.13,-176.168"/>
</g>
<!-- BasePhysics -->
<g id="node21" class="node"><title>BasePhysics</title>
<ellipse fill="none" stroke="black" cx="1555.79" cy="-162" rx="56.59" ry="18"/>
<text text-anchor="middle" x="1555.79" y="-158.3" font-family="Times New Roman,serif" font-size="14.00">BasePhysics</text>
</g>
<!-- CreaturePhysics&#45;&gt;BasePhysics -->
<g id="edge30" class="edge"><title>CreaturePhysics&#45;&gt;BasePhysics</title>
<path fill="none" stroke="black" stroke-width="2" d="M1586.1,-216.055C1581.39,-207.801 1575.62,-197.701 1570.38,-188.538"/>
<polygon fill="black" stroke="black" stroke-width="2" points="1573.38,-186.735 1565.38,-179.789 1567.3,-190.208 1573.38,-186.735"/>
</g>
<!-- CreaturePhysics&#45;&gt;CreaturePhysicsProperties -->
<g id="edge32" class="edge"><title>CreaturePhysics&#45;&gt;CreaturePhysicsProperties</title>
<path fill="none" stroke="black" d="M1637.56,-219.586C1671.38,-208.726 1719.37,-193.318 1756.73,-181.321"/>
<polygon fill="black" stroke="black" points="1758.02,-184.582 1766.47,-178.193 1755.88,-177.918 1758.02,-184.582"/>
</g>
<!-- ITransform -->
<g id="node24" class="node"><title>ITransform</title>
<ellipse fill="none" stroke="black" stroke-dasharray="5,2" cx="1686.79" cy="-90" rx="51.9908" ry="18"/>
<text text-anchor="middle" x="1686.79" y="-86.3" font-family="Times New Roman,serif" font-size="14.00">ITransform</text>
</g>
<!-- CreaturePhysics&#45;&gt;ITransform -->
<g id="edge34" class="edge"><title>CreaturePhysics&#45;&gt;ITransform</title>
<path fill="none" stroke="black" d="M1610.98,-215.964C1619.62,-205.868 1630.37,-192.618 1638.79,-180 1652.26,-159.789 1665.2,-135.424 1674.23,-117.301"/>
<polygon fill="black" stroke="black" points="1677.56,-118.459 1678.83,-107.941 1671.28,-115.372 1677.56,-118.459"/>
</g>
<!-- CreaturePhysics&#45;&gt;IRigidBody2d -->
<g id="edge33" class="edge"><title>CreaturePhysics&#45;&gt;IRigidBody2d</title>
<path fill="none" stroke="black" d="M1607.9,-215.985C1619.38,-197.605 1633.29,-167.762 1621.79,-144 1615.44,-130.894 1604.11,-120.046 1592.55,-111.651"/>
<polygon fill="black" stroke="black" points="1594.4,-108.679 1584.16,-105.975 1590.48,-114.477 1594.4,-108.679"/>
</g>
<!-- IBarDisplay&#45;&gt;IFlipX -->
<g id="edge35" class="edge"><title>IBarDisplay&#45;&gt;IFlipX</title>
<path fill="none" stroke="black" stroke-dasharray="5,2" d="M1118.04,-74.3257C1138.63,-63.2407 1166.94,-47.9931 1188.64,-36.3116"/>
<polygon fill="black" stroke="black" points="1190.34,-39.3689 1197.49,-31.5462 1187.02,-33.2056 1190.34,-39.3689"/>
</g>
<!-- BasePhysics&#45;&gt;ITransform -->
<g id="edge37" class="edge"><title>BasePhysics&#45;&gt;ITransform</title>
<path fill="none" stroke="black" d="M1583.57,-146.155C1603.06,-135.737 1629.32,-121.705 1650.48,-110.402"/>
<polygon fill="black" stroke="black" points="1652.32,-113.384 1659.49,-105.584 1649.02,-107.21 1652.32,-113.384"/>
</g>
<!-- BasePhysics&#45;&gt;IRigidBody2d -->
<g id="edge38" class="edge"><title>BasePhysics&#45;&gt;IRigidBody2d</title>
<path fill="none" stroke="black" d="M1555.54,-143.697C1555.43,-135.983 1555.3,-126.712 1555.17,-118.112"/>
<polygon fill="black" stroke="black" points="1558.67,-118.053 1555.03,-108.104 1551.67,-118.153 1558.67,-118.053"/>
</g>
<!-- BasePhysics&#45;&gt;IBasePhysics -->
<g id="edge36" class="edge"><title>BasePhysics&#45;&gt;IBasePhysics</title>
<path fill="none" stroke="black" stroke-dasharray="5,2" d="M1526.57,-146.496C1505.44,-136.007 1476.68,-121.727 1453.62,-110.279"/>
<polygon fill="black" stroke="black" points="1454.96,-107.038 1444.45,-105.726 1451.85,-113.308 1454.96,-107.038"/>
</g>
<!-- BaseCollisionSystemParticipatorWrapper&#45;&gt;ICollisionSystemParticipatorWrapper -->
<g id="edge41" class="edge"><title>BaseCollisionSystemParticipatorWrapper&#45;&gt;ICollisionSystemParticipatorWrapper</title>
<path fill="none" stroke="black" d="M549.903,-219.337C467.541,-207.351 348.081,-189.966 263.693,-177.685"/>
<polygon fill="black" stroke="black" points="263.98,-174.19 253.58,-176.213 262.972,-181.117 263.98,-174.19"/>
</g>
<!-- BaseCollisionSystemParticipatorWrapper&#45;&gt;MonoBehaviour -->
<g id="edge39" class="edge"><title>BaseCollisionSystemParticipatorWrapper&#45;&gt;MonoBehaviour</title>
<path fill="none" stroke="black" stroke-width="2" d="M646.258,-215.697C647.36,-207.983 648.685,-198.712 649.913,-190.112"/>
<polygon fill="black" stroke="black" stroke-width="2" points="653.394,-190.499 651.343,-180.104 646.464,-189.509 653.394,-190.499"/>
</g>
<!-- BaseCollisionSystemParticipatorWrapper&#45;&gt;Debug -->
<g id="edge42" class="edge"><title>BaseCollisionSystemParticipatorWrapper&#45;&gt;Debug</title>
<path fill="none" stroke="black" d="M610.313,-216.195C596.66,-207.431 582.332,-195.31 574.787,-180 567.713,-165.648 567.751,-158.37 574.787,-144 600.823,-90.8225 661.602,-53.7598 700.586,-34.4635"/>
<polygon fill="black" stroke="black" points="702.497,-37.4284 709.993,-29.9414 699.464,-31.1195 702.497,-37.4284"/>
</g>
<!-- BaseCollisionSystemParticipatorWrapper&#45;&gt;ICollisionSystemParticipator -->
<g id="edge40" class="edge"><title>BaseCollisionSystemParticipatorWrapper&#45;&gt;ICollisionSystemParticipator</title>
<path fill="none" stroke="black" d="M607.298,-216.44C587.346,-206.8 562.541,-193.84 541.787,-180 521.05,-166.172 521.476,-154.316 498.787,-144 477.153,-134.164 349.885,-115.743 258.376,-103.422"/>
<polygon fill="black" stroke="black" points="258.62,-99.9238 248.243,-102.063 257.689,-106.862 258.62,-99.9238"/>
</g>
<!-- CreatureFsm&#45;&gt;Debug -->
<g id="edge46" class="edge"><title>CreatureFsm&#45;&gt;Debug</title>
<path fill="none" stroke="black" d="M2110.79,-215.914C2119.5,-182.149 2132.78,-107.115 2090.79,-72 2034.89,-25.2612 851.223,-50.3377 779.787,-36 776.753,-35.3912 773.657,-34.5918 770.582,-33.6713"/>
<polygon fill="black" stroke="black" points="771.533,-30.298 760.938,-30.4041 769.286,-36.9279 771.533,-30.298"/>
</g>
<!-- CreatureFsm&#45;&gt;ICreatureFsm -->
<g id="edge43" class="edge"><title>CreatureFsm&#45;&gt;ICreatureFsm</title>
<path fill="none" stroke="black" stroke-dasharray="5,2" d="M2089.43,-216.411C2080.67,-207.519 2069.72,-196.411 2060.08,-186.631"/>
<polygon fill="black" stroke="black" points="2062.53,-184.135 2053.02,-179.47 2057.55,-189.049 2062.53,-184.135"/>
</g>
<!-- CreatureFsm&#45;&gt;NotNull -->
<g id="edge45" class="edge"><title>CreatureFsm&#45;&gt;NotNull</title>
<path fill="none" stroke="black" d="M2125.73,-216.765C2137.54,-207.157 2152.63,-194.87 2165.41,-184.469"/>
<polygon fill="black" stroke="black" points="2167.87,-186.98 2173.42,-177.952 2163.45,-181.551 2167.87,-186.98"/>
</g>
<!-- CreatureFsm&#45;&gt;IHasSpriteRendererAndAudioSource -->
<g id="edge44" class="edge"><title>CreatureFsm&#45;&gt;IHasSpriteRendererAndAudioSource</title>
<path fill="none" stroke="black" d="M2149.99,-222.292C2195.69,-211.223 2267.8,-193.758 2321.94,-180.645"/>
<polygon fill="black" stroke="black" points="2322.93,-184.005 2331.83,-178.249 2321.29,-177.202 2322.93,-184.005"/>
</g>
<!-- TimerNotFoundException -->
<g id="node28" class="node"><title>TimerNotFoundException</title>
<ellipse fill="none" stroke="black" cx="420.787" cy="-90" rx="106.681" ry="18"/>
<text text-anchor="middle" x="420.787" y="-86.3" font-family="Times New Roman,serif" font-size="14.00">TimerNotFoundException</text>
</g>
<!-- TimerNotFoundException&#45;&gt;Exception -->
<g id="edge47" class="edge"><title>TimerNotFoundException&#45;&gt;Exception</title>
<path fill="none" stroke="black" stroke-width="2" d="M420.787,-71.6966C420.787,-63.9827 420.787,-54.7125 420.787,-46.1124"/>
<polygon fill="black" stroke="black" stroke-width="2" points="424.287,-46.1043 420.787,-36.1043 417.287,-46.1044 424.287,-46.1043"/>
</g>
<!-- WrapperTransform&#45;&gt;ITransform -->
<g id="edge48" class="edge"><title>WrapperTransform&#45;&gt;ITransform</title>
<path fill="none" stroke="black" stroke-dasharray="5,2" d="M1940.1,-216.017C1944.02,-196.258 1946.88,-163.819 1929.79,-144 1906.36,-116.842 1811.02,-102.613 1746.96,-95.9693"/>
<polygon fill="black" stroke="black" points="1747.26,-92.4821 1736.96,-94.9673 1746.56,-99.4472 1747.26,-92.4821"/>
</g>
<!-- ISystemParticipator -->
<g id="node30" class="node"><title>ISystemParticipator</title>
<ellipse fill="none" stroke="black" stroke-dasharray="5,2" cx="162.787" cy="-18" rx="82.5854" ry="18"/>
<text text-anchor="middle" x="162.787" y="-14.3" font-family="Times New Roman,serif" font-size="14.00">ISystemParticipator</text>
</g>
<!-- ICollisionSystemParticipator&#45;&gt;ICollisionSystemParticipatorWrapper -->
<g id="edge50" class="edge"><title>ICollisionSystemParticipator&#45;&gt;ICollisionSystemParticipatorWrapper</title>
<path fill="none" stroke="black" stroke-dasharray="5,2" d="M168.682,-108.104C169.487,-115.791 169.723,-125.054 169.391,-133.665"/>
<polygon fill="black" stroke="black" points="165.895,-133.48 168.702,-143.697 172.879,-133.96 165.895,-133.48"/>
</g>
<!-- ICollisionSystemParticipator&#45;&gt;ISystemParticipator -->
<g id="edge49" class="edge"><title>ICollisionSystemParticipator&#45;&gt;ISystemParticipator</title>
<path fill="none" stroke="black" stroke-dasharray="5,2" d="M162.787,-71.6966C162.787,-63.9827 162.787,-54.7125 162.787,-46.1124"/>
<polygon fill="black" stroke="black" points="166.287,-46.1043 162.787,-36.1043 159.287,-46.1044 166.287,-46.1043"/>
</g>
<!-- TimerCollection -->
<g id="node32" class="node"><title>TimerCollection</title>
<ellipse fill="none" stroke="black" cx="810.787" cy="-162" rx="69.5877" ry="18"/>
<text text-anchor="middle" x="810.787" y="-158.3" font-family="Times New Roman,serif" font-size="14.00">TimerCollection</text>
</g>
<!-- TimerCollection&#45;&gt;Timer -->
<g id="edge51" class="edge"><title>TimerCollection&#45;&gt;Timer</title>
<path fill="none" stroke="black" d="M796.988,-144.055C789.853,-135.292 781.025,-124.451 773.212,-114.856"/>
<polygon fill="black" stroke="black" points="775.705,-112.374 766.676,-106.829 770.276,-116.794 775.705,-112.374"/>
</g>
<!-- TimerCollection&#45;&gt;TimerNotFoundException -->
<g id="edge53" class="edge"><title>TimerCollection&#45;&gt;TimerNotFoundException</title>
<path fill="none" stroke="black" d="M760.088,-149.594C751.012,-147.654 741.631,-145.714 732.787,-144 656.4,-129.196 569.048,-114.552 506.239,-104.421"/>
<polygon fill="black" stroke="black" points="506.412,-100.904 495.983,-102.772 505.301,-107.815 506.412,-100.904"/>
</g>
<!-- TimerCollection&#45;&gt;Callback -->
<g id="edge52" class="edge"><title>TimerCollection&#45;&gt;Callback</title>
<path fill="none" stroke="black" d="M813.199,-143.871C816.608,-119.67 822.87,-75.2108 826.928,-46.3932"/>
<polygon fill="black" stroke="black" points="830.437,-46.5797 828.366,-36.1893 823.505,-45.6034 830.437,-46.5797"/>
</g>
<!-- BaseCreature&#45;&gt;CreatureHealth -->
<g id="edge56" class="edge"><title>BaseCreature&#45;&gt;CreatureHealth</title>
<path fill="none" stroke="black" d="M1146.18,-220.566C1109.18,-208.952 1053.76,-191.558 1013.54,-178.931"/>
<polygon fill="black" stroke="black" points="1014.5,-175.566 1003.92,-175.91 1012.41,-182.245 1014.5,-175.566"/>
</g>
<!-- BaseCreature&#45;&gt;BarCollection -->
<g id="edge55" class="edge"><title>BaseCreature&#45;&gt;BarCollection</title>
<path fill="none" stroke="black" d="M1184.55,-215.697C1184,-207.983 1183.34,-198.712 1182.72,-190.112"/>
<polygon fill="black" stroke="black" points="1186.21,-189.83 1182.01,-180.104 1179.23,-190.328 1186.21,-189.83"/>
</g>
<!-- BaseCreature&#45;&gt;FlipXCollection -->
<g id="edge54" class="edge"><title>BaseCreature&#45;&gt;FlipXCollection</title>
<path fill="none" stroke="black" d="M1211.57,-217.684C1224.96,-208.421 1240.44,-195.423 1249.79,-180 1261.08,-161.362 1265.72,-136.972 1267.6,-118.438"/>
<polygon fill="black" stroke="black" points="1271.1,-118.539 1268.41,-108.291 1264.12,-117.978 1271.1,-118.539"/>
</g>
<!-- BaseCreature&#45;&gt;ICreaturePhysics -->
<g id="edge58" class="edge"><title>BaseCreature&#45;&gt;ICreaturePhysics</title>
<path fill="none" stroke="black" d="M1221.26,-219.503C1250.03,-208.558 1290.85,-193.032 1322.41,-181.024"/>
<polygon fill="black" stroke="black" points="1323.78,-184.246 1331.88,-177.419 1321.29,-177.704 1323.78,-184.246"/>
</g>
<!-- BaseCreature&#45;&gt;IBarDisplay -->
<g id="edge59" class="edge"><title>BaseCreature&#45;&gt;IBarDisplay</title>
<path fill="none" stroke="black" d="M1155.75,-218.241C1140.4,-209.22 1122.7,-196.277 1111.79,-180 1099.46,-161.615 1094.33,-136.859 1092.22,-118.124"/>
<polygon fill="black" stroke="black" points="1095.7,-117.789 1091.31,-108.149 1088.73,-118.426 1095.7,-117.789"/>
</g>
<!-- BaseCreature&#45;&gt;TimerCollection -->
<g id="edge57" class="edge"><title>BaseCreature&#45;&gt;TimerCollection</title>
<path fill="none" stroke="black" d="M1142.75,-221.631C1134.49,-219.623 1125.9,-217.65 1117.79,-216 1017.26,-195.539 990.638,-198.798 889.787,-180 883.955,-178.913 877.895,-177.721 871.841,-176.489"/>
<polygon fill="black" stroke="black" points="872.201,-172.99 861.699,-174.389 870.782,-179.844 872.201,-172.99"/>
</g>
<!-- ICreatureController&#45;&gt;ICollisionSystemParticipator -->
<g id="edge60" class="edge"><title>ICreatureController&#45;&gt;ICollisionSystemParticipator</title>
<path fill="none" stroke="black" stroke-dasharray="5,2" d="M361.064,-147.42C322.305,-136.392 267.344,-120.752 225.114,-108.735"/>
<polygon fill="black" stroke="black" points="226.067,-105.368 215.491,-105.997 224.151,-112.1 226.067,-105.368"/>
</g>
<!-- ICreatureControllerWrapper&#45;&gt;ICollisionSystemParticipatorWrapper -->
<g id="edge61" class="edge"><title>ICreatureControllerWrapper&#45;&gt;ICollisionSystemParticipatorWrapper</title>
<path fill="none" stroke="black" stroke-dasharray="5,2" d="M278.765,-216.765C257.554,-206.932 230.292,-194.294 207.529,-183.742"/>
<polygon fill="black" stroke="black" points="208.949,-180.542 198.404,-179.511 206.005,-186.893 208.949,-180.542"/>
</g>
<!-- ICreatureControllerWrapper&#45;&gt;ICreatureController -->
<g id="edge62" class="edge"><title>ICreatureControllerWrapper&#45;&gt;ICreatureController</title>
<path fill="none" stroke="black" d="M336.783,-216.055C349.244,-206.874 364.801,-195.41 378.264,-185.49"/>
<polygon fill="black" stroke="black" points="380.355,-188.297 386.329,-179.547 376.202,-182.662 380.355,-188.297"/>
</g>
<!-- IBasePhysics&#45;&gt;IFlipX -->
<g id="edge63" class="edge"><title>IBasePhysics&#45;&gt;IFlipX</title>
<path fill="none" stroke="black" stroke-dasharray="5,2" d="M1377.84,-75.6688C1343.52,-63.2852 1292.66,-44.9349 1258.2,-32.4981"/>
<polygon fill="black" stroke="black" points="1259.09,-29.1012 1248.5,-28.9994 1256.72,-35.6857 1259.09,-29.1012"/>
</g>
</g>
</svg>
