<?xml version="1.0" encoding="UTF-8" standalone="no"?>
<!DOCTYPE svg PUBLIC "-//W3C//DTD SVG 1.1//EN"
 "http://www.w3.org/Graphics/SVG/1.1/DTD/svg11.dtd">
<!-- Generated by graphviz version 2.38.0 (20140413.2041)
 -->
<!-- Title: %3 Pages: 1 -->
<svg width="2830pt" height="332pt"
 viewBox="0.00 0.00 2829.59 332.00" xmlns="http://www.w3.org/2000/svg" xmlns:xlink="http://www.w3.org/1999/xlink">
<g id="graph0" class="graph" transform="scale(1 1) rotate(0) translate(4 328)">
<title>%3</title>
<polygon fill="white" stroke="none" points="-4,4 -4,-328 2825.59,-328 2825.59,4 -4,4"/>
<!-- Timer -->
<g id="node1" class="node"><title>Timer</title>
<ellipse fill="none" stroke="black" cx="2482" cy="-90" rx="32.4942" ry="18"/>
<text text-anchor="middle" x="2482" y="-86.3" font-family="Times New Roman,serif" font-size="14.00">Timer</text>
</g>
<!-- Debug -->
<g id="node14" class="node"><title>Debug</title>
<ellipse fill="#e5e5e5" stroke="black" cx="1160" cy="-18" rx="34.394" ry="18"/>
<text text-anchor="middle" x="1160" y="-14.3" font-family="Times New Roman,serif" font-size="14.00">Debug</text>
</g>
<!-- Timer&#45;&gt;Debug -->
<g id="edge2" class="edge"><title>Timer&#45;&gt;Debug</title>
<path fill="none" stroke="black" d="M2458.17,-77.4771C2452.65,-75.273 2446.72,-73.262 2441,-72 2318.36,-44.9356 1416.34,-24.3985 1204.46,-19.9148"/>
<polygon fill="black" stroke="black" points="1204.4,-16.4128 1194.33,-19.7015 1204.25,-23.4112 1204.4,-16.4128"/>
</g>
<!-- Callback -->
<g id="node31" class="node"><title>Callback</title>
<ellipse fill="#e5e5e5" stroke="black" cx="2542" cy="-18" rx="42.4939" ry="18"/>
<text text-anchor="middle" x="2542" y="-14.3" font-family="Times New Roman,serif" font-size="14.00">Callback</text>
</g>
<!-- Timer&#45;&gt;Callback -->
<g id="edge1" class="edge"><title>Timer&#45;&gt;Callback</title>
<path fill="none" stroke="black" d="M2495.31,-73.4647C2502.94,-64.5657 2512.68,-53.2051 2521.28,-43.1644"/>
<polygon fill="black" stroke="black" points="2524.03,-45.3376 2527.88,-35.4672 2518.72,-40.782 2524.03,-45.3376"/>
</g>
<!-- BarBehaviour -->
<g id="node2" class="node"><title>BarBehaviour</title>
<ellipse fill="none" stroke="black" cx="1340" cy="-234" rx="59.5901" ry="18"/>
<text text-anchor="middle" x="1340" y="-230.3" font-family="Times New Roman,serif" font-size="14.00">BarBehaviour</text>
</g>
<!-- IBarDisplay -->
<g id="node6" class="node"><title>IBarDisplay</title>
<ellipse fill="none" stroke="black" stroke-dasharray="5,2" cx="2224" cy="-90" rx="53.8905" ry="18"/>
<text text-anchor="middle" x="2224" y="-86.3" font-family="Times New Roman,serif" font-size="14.00">IBarDisplay</text>
</g>
<!-- BarBehaviour&#45;&gt;IBarDisplay -->
<g id="edge4" class="edge"><title>BarBehaviour&#45;&gt;IBarDisplay</title>
<path fill="none" stroke="black" stroke-dasharray="5,2" d="M1382.86,-221.4C1391.46,-219.365 1400.48,-217.441 1409,-216 1577.57,-187.472 1624.43,-213.933 1792,-180 1844.07,-169.455 1854.33,-156.379 1906,-144 2001.07,-121.223 2026.57,-124.113 2123,-108 2137.18,-105.63 2152.48,-103.061 2166.78,-100.655"/>
<polygon fill="black" stroke="black" points="2167.7,-104.049 2176.98,-98.9369 2166.54,-97.1458 2167.7,-104.049"/>
</g>
<!-- MonoBehaviour -->
<g id="node35" class="node"><title>MonoBehaviour</title>
<ellipse fill="none" stroke="black" cx="1266" cy="-162" rx="69.5877" ry="18"/>
<text text-anchor="middle" x="1266" y="-158.3" font-family="Times New Roman,serif" font-size="14.00">MonoBehaviour</text>
</g>
<!-- BarBehaviour&#45;&gt;MonoBehaviour -->
<g id="edge3" class="edge"><title>BarBehaviour&#45;&gt;MonoBehaviour</title>
<path fill="none" stroke="black" stroke-width="2" d="M1322.46,-216.411C1312.97,-207.432 1301.09,-196.193 1290.67,-186.344"/>
<polygon fill="black" stroke="black" stroke-width="2" points="1293.08,-183.799 1283.41,-179.47 1288.27,-188.885 1293.08,-183.799"/>
</g>
<!-- ICollisionSystemParticipatorWrapper -->
<g id="node3" class="node"><title>ICollisionSystemParticipatorWrapper</title>
<ellipse fill="none" stroke="black" stroke-dasharray="5,2" cx="946.997" cy="-162" rx="146.774" ry="18"/>
<text text-anchor="middle" x="946.997" y="-158.3" font-family="Times New Roman,serif" font-size="14.00">ICollisionSystemParticipatorWrapper</text>
</g>
<!-- ICollisionSystemParticipator -->
<g id="node32" class="node"><title>ICollisionSystemParticipator</title>
<ellipse fill="none" stroke="black" stroke-dasharray="5,2" cx="946.997" cy="-90" rx="114.28" ry="18"/>
<text text-anchor="middle" x="946.997" y="-86.3" font-family="Times New Roman,serif" font-size="14.00">ICollisionSystemParticipator</text>
</g>
<!-- ICollisionSystemParticipatorWrapper&#45;&gt;ICollisionSystemParticipator -->
<g id="edge5" class="edge"><title>ICollisionSystemParticipatorWrapper&#45;&gt;ICollisionSystemParticipator</title>
<path fill="none" stroke="black" d="M941.081,-143.697C940.285,-135.983 940.059,-126.712 940.401,-118.112"/>
<polygon fill="black" stroke="black" points="943.895,-118.324 941.102,-108.104 936.912,-117.836 943.895,-118.324"/>
</g>
<!-- Enum -->
<g id="node4" class="node"><title>Enum</title>
<ellipse fill="none" stroke="black" cx="89.9965" cy="-90" rx="31.6951" ry="18"/>
<text text-anchor="middle" x="89.9965" y="-86.3" font-family="Times New Roman,serif" font-size="14.00">Enum</text>
</g>
<!-- ICreaturePhysics -->
<g id="node5" class="node"><title>ICreaturePhysics</title>
<ellipse fill="none" stroke="black" stroke-dasharray="5,2" cx="1988" cy="-162" rx="72.5877" ry="18"/>
<text text-anchor="middle" x="1988" y="-158.3" font-family="Times New Roman,serif" font-size="14.00">ICreaturePhysics</text>
</g>
<!-- IBasePhysics -->
<g id="node27" class="node"><title>IBasePhysics</title>
<ellipse fill="none" stroke="black" stroke-dasharray="5,2" cx="1900" cy="-90" rx="59.5901" ry="18"/>
<text text-anchor="middle" x="1900" y="-86.3" font-family="Times New Roman,serif" font-size="14.00">IBasePhysics</text>
</g>
<!-- ICreaturePhysics&#45;&gt;IBasePhysics -->
<g id="edge6" class="edge"><title>ICreaturePhysics&#45;&gt;IBasePhysics</title>
<path fill="none" stroke="black" stroke-dasharray="5,2" d="M1967.14,-144.411C1955.47,-135.125 1940.75,-123.421 1928.08,-113.338"/>
<polygon fill="black" stroke="black" points="1930.1,-110.474 1920.1,-106.988 1925.74,-115.952 1930.1,-110.474"/>
</g>
<!-- IFlipX -->
<g id="node36" class="node"><title>IFlipX</title>
<ellipse fill="none" stroke="black" stroke-dasharray="5,2" cx="2094" cy="-18" rx="34.394" ry="18"/>
<text text-anchor="middle" x="2094" y="-14.3" font-family="Times New Roman,serif" font-size="14.00">IFlipX</text>
</g>
<!-- IBarDisplay&#45;&gt;IFlipX -->
<g id="edge7" class="edge"><title>IBarDisplay&#45;&gt;IFlipX</title>
<path fill="none" stroke="black" stroke-dasharray="5,2" d="M2196.74,-74.3257C2176.16,-63.2407 2147.84,-47.9931 2126.15,-36.3116"/>
<polygon fill="black" stroke="black" points="2127.76,-33.2056 2117.3,-31.5462 2124.44,-39.3689 2127.76,-33.2056"/>
</g>
<!-- Exception -->
<g id="node7" class="node"><title>Exception</title>
<ellipse fill="none" stroke="black" cx="2715" cy="-18" rx="47.3916" ry="18"/>
<text text-anchor="middle" x="2715" y="-14.3" font-family="Times New Roman,serif" font-size="14.00">Exception</text>
</g>
<!-- NotNull -->
<g id="node8" class="node"><title>NotNull</title>
<ellipse fill="#e5e5e5" stroke="black" cx="38.9965" cy="-162" rx="38.9931" ry="18"/>
<text text-anchor="middle" x="38.9965" y="-158.3" font-family="Times New Roman,serif" font-size="14.00">NotNull</text>
</g>
<!-- ICreatureFsm -->
<g id="node9" class="node"><title>ICreatureFsm</title>
<ellipse fill="none" stroke="black" stroke-dasharray="5,2" cx="155.997" cy="-162" rx="60.3893" ry="18"/>
<text text-anchor="middle" x="155.997" y="-158.3" font-family="Times New Roman,serif" font-size="14.00">ICreatureFsm</text>
</g>
<!-- ICreatureFsm&#45;&gt;Enum -->
<g id="edge9" class="edge"><title>ICreatureFsm&#45;&gt;Enum</title>
<path fill="none" stroke="black" stroke-dasharray="5,2" d="M140.355,-144.411C131.813,-135.351 121.101,-123.99 111.756,-114.078"/>
<polygon fill="black" stroke="black" points="114.028,-111.386 104.621,-106.511 108.935,-116.188 114.028,-111.386"/>
</g>
<!-- struct -->
<g id="node12" class="node"><title>struct</title>
<ellipse fill="none" stroke="black" cx="170.997" cy="-90" rx="31.3957" ry="18"/>
<text text-anchor="middle" x="170.997" y="-86.3" font-family="Times New Roman,serif" font-size="14.00">struct</text>
</g>
<!-- ICreatureFsm&#45;&gt;struct -->
<g id="edge8" class="edge"><title>ICreatureFsm&#45;&gt;struct</title>
<path fill="none" stroke="black" stroke-width="2" d="M159.704,-143.697C161.357,-135.983 163.344,-126.712 165.187,-118.112"/>
<polygon fill="black" stroke="black" stroke-width="2" points="168.658,-118.616 167.331,-108.104 161.814,-117.149 168.658,-118.616"/>
</g>
<!-- ISystemParticipator -->
<g id="node10" class="node"><title>ISystemParticipator</title>
<ellipse fill="none" stroke="black" stroke-dasharray="5,2" cx="946.997" cy="-18" rx="82.5854" ry="18"/>
<text text-anchor="middle" x="946.997" y="-14.3" font-family="Times New Roman,serif" font-size="14.00">ISystemParticipator</text>
</g>
<!-- IRigidBody2d -->
<g id="node11" class="node"><title>IRigidBody2d</title>
<ellipse fill="none" stroke="black" stroke-dasharray="5,2" cx="1638" cy="-90" rx="62.2891" ry="18"/>
<text text-anchor="middle" x="1638" y="-86.3" font-family="Times New Roman,serif" font-size="14.00">IRigidBody2d</text>
</g>
<!-- ITransform -->
<g id="node13" class="node"><title>ITransform</title>
<ellipse fill="none" stroke="black" stroke-dasharray="5,2" cx="1770" cy="-90" rx="51.9908" ry="18"/>
<text text-anchor="middle" x="1770" y="-86.3" font-family="Times New Roman,serif" font-size="14.00">ITransform</text>
</g>
<!-- IHasSpriteRendererAndAudioSource -->
<g id="node15" class="node"><title>IHasSpriteRendererAndAudioSource</title>
<ellipse fill="none" stroke="black" stroke-dasharray="5,2" cx="417.997" cy="-162" rx="146.474" ry="18"/>
<text text-anchor="middle" x="417.997" y="-158.3" font-family="Times New Roman,serif" font-size="14.00">IHasSpriteRendererAndAudioSource</text>
</g>
<!-- CreatureFsm -->
<g id="node16" class="node"><title>CreatureFsm</title>
<ellipse fill="none" stroke="black" cx="243.997" cy="-234" rx="57.6901" ry="18"/>
<text text-anchor="middle" x="243.997" y="-230.3" font-family="Times New Roman,serif" font-size="14.00">CreatureFsm</text>
</g>
<!-- CreatureFsm&#45;&gt;NotNull -->
<g id="edge12" class="edge"><title>CreatureFsm&#45;&gt;NotNull</title>
<path fill="none" stroke="black" d="M205.873,-220.306C174.046,-209.666 127.507,-194.011 86.9965,-180 84.2551,-179.052 81.4278,-178.067 78.5818,-177.072"/>
<polygon fill="black" stroke="black" points="79.5253,-173.694 68.9305,-173.679 77.2036,-180.297 79.5253,-173.694"/>
</g>
<!-- CreatureFsm&#45;&gt;ICreatureFsm -->
<g id="edge10" class="edge"><title>CreatureFsm&#45;&gt;ICreatureFsm</title>
<path fill="none" stroke="black" stroke-dasharray="5,2" d="M223.586,-216.765C211.924,-207.488 197.123,-195.714 184.346,-185.551"/>
<polygon fill="black" stroke="black" points="186.301,-182.633 176.296,-179.147 181.943,-188.112 186.301,-182.633"/>
</g>
<!-- CreatureFsm&#45;&gt;Debug -->
<g id="edge13" class="edge"><title>CreatureFsm&#45;&gt;Debug</title>
<path fill="none" stroke="black" d="M242.331,-215.811C241.406,-195.54 243.333,-162.296 262.997,-144 390.462,-25.4014 866.568,-60.1117 1039,-36 1064.87,-32.3824 1093.85,-28.3116 1116.96,-25.0607"/>
<polygon fill="black" stroke="black" points="1117.72,-28.4885 1127.13,-23.6293 1116.74,-21.5568 1117.72,-28.4885"/>
</g>
<!-- CreatureFsm&#45;&gt;IHasSpriteRendererAndAudioSource -->
<g id="edge11" class="edge"><title>CreatureFsm&#45;&gt;IHasSpriteRendererAndAudioSource</title>
<path fill="none" stroke="black" d="M277.959,-219.337C303.549,-209.042 339.04,-194.764 367.889,-183.158"/>
<polygon fill="black" stroke="black" points="369.422,-186.314 377.393,-179.335 366.81,-179.82 369.422,-186.314"/>
</g>
<!-- TimerCollection -->
<g id="node17" class="node"><title>TimerCollection</title>
<ellipse fill="none" stroke="black" cx="2548" cy="-162" rx="69.5877" ry="18"/>
<text text-anchor="middle" x="2548" y="-158.3" font-family="Times New Roman,serif" font-size="14.00">TimerCollection</text>
</g>
<!-- TimerCollection&#45;&gt;Timer -->
<g id="edge14" class="edge"><title>TimerCollection&#45;&gt;Timer</title>
<path fill="none" stroke="black" d="M2532.36,-144.411C2523.81,-135.351 2513.1,-123.99 2503.76,-114.078"/>
<polygon fill="black" stroke="black" points="2506.03,-111.386 2496.62,-106.511 2500.93,-116.188 2506.03,-111.386"/>
</g>
<!-- TimerCollection&#45;&gt;Callback -->
<g id="edge15" class="edge"><title>TimerCollection&#45;&gt;Callback</title>
<path fill="none" stroke="black" d="M2551.75,-143.894C2555.17,-125.943 2559.23,-96.9229 2556,-72 2554.86,-63.2774 2552.72,-53.9451 2550.45,-45.5801"/>
<polygon fill="black" stroke="black" points="2553.81,-44.5985 2547.67,-35.9624 2547.09,-46.541 2553.81,-44.5985"/>
</g>
<!-- TimerNotFoundException -->
<g id="node34" class="node"><title>TimerNotFoundException</title>
<ellipse fill="none" stroke="black" cx="2715" cy="-90" rx="106.681" ry="18"/>
<text text-anchor="middle" x="2715" y="-86.3" font-family="Times New Roman,serif" font-size="14.00">TimerNotFoundException</text>
</g>
<!-- TimerCollection&#45;&gt;TimerNotFoundException -->
<g id="edge16" class="edge"><title>TimerCollection&#45;&gt;TimerNotFoundException</title>
<path fill="none" stroke="black" d="M2583.01,-146.326C2607.65,-135.997 2640.91,-122.055 2667.88,-110.751"/>
<polygon fill="black" stroke="black" points="2669.26,-113.967 2677.13,-106.873 2666.55,-107.511 2669.26,-113.967"/>
</g>
<!-- BarCollection -->
<g id="node18" class="node"><title>BarCollection</title>
<ellipse fill="none" stroke="black" cx="2177" cy="-162" rx="60.3893" ry="18"/>
<text text-anchor="middle" x="2177" y="-158.3" font-family="Times New Roman,serif" font-size="14.00">BarCollection</text>
</g>
<!-- BarCollection&#45;&gt;IBarDisplay -->
<g id="edge18" class="edge"><title>BarCollection&#45;&gt;IBarDisplay</title>
<path fill="none" stroke="black" d="M2188.37,-144.055C2193.97,-135.715 2200.84,-125.491 2207.04,-116.252"/>
<polygon fill="black" stroke="black" points="2210.06,-118.042 2212.72,-107.789 2204.24,-114.14 2210.06,-118.042"/>
</g>
<!-- BarCollection&#45;&gt;IFlipX -->
<g id="edge17" class="edge"><title>BarCollection&#45;&gt;IFlipX</title>
<path fill="none" stroke="black" stroke-dasharray="5,2" d="M2167.15,-144.153C2152.66,-119.36 2125.49,-72.8773 2108.65,-44.0691"/>
<polygon fill="black" stroke="black" points="2111.64,-42.2539 2103.57,-35.3867 2105.6,-45.7863 2111.64,-42.2539"/>
</g>
<!-- ICreatureControllerWrapper -->
<g id="node19" class="node"><title>ICreatureControllerWrapper</title>
<ellipse fill="none" stroke="black" stroke-dasharray="5,2" cx="770.997" cy="-234" rx="113.18" ry="18"/>
<text text-anchor="middle" x="770.997" y="-230.3" font-family="Times New Roman,serif" font-size="14.00">ICreatureControllerWrapper</text>
</g>
<!-- ICreatureControllerWrapper&#45;&gt;ICollisionSystemParticipatorWrapper -->
<g id="edge19" class="edge"><title>ICreatureControllerWrapper&#45;&gt;ICollisionSystemParticipatorWrapper</title>
<path fill="none" stroke="black" stroke-dasharray="5,2" d="M810.934,-217.116C836.336,-207.013 869.447,-193.844 896.645,-183.026"/>
<polygon fill="black" stroke="black" points="897.998,-186.255 905.996,-179.307 895.411,-179.751 897.998,-186.255"/>
</g>
<!-- ICreatureController -->
<g id="node28" class="node"><title>ICreatureController</title>
<ellipse fill="none" stroke="black" stroke-dasharray="5,2" cx="700.997" cy="-162" rx="81.4863" ry="18"/>
<text text-anchor="middle" x="700.997" y="-158.3" font-family="Times New Roman,serif" font-size="14.00">ICreatureController</text>
</g>
<!-- ICreatureControllerWrapper&#45;&gt;ICreatureController -->
<g id="edge20" class="edge"><title>ICreatureControllerWrapper&#45;&gt;ICreatureController</title>
<path fill="none" stroke="black" d="M754.051,-216.055C745.367,-207.371 734.641,-196.644 725.11,-187.114"/>
<polygon fill="black" stroke="black" points="727.332,-184.385 717.786,-179.789 722.382,-189.335 727.332,-184.385"/>
</g>
<!-- BaseCreatureBehaviour -->
<g id="node20" class="node"><title>BaseCreatureBehaviour</title>
<ellipse fill="none" stroke="black" cx="1006" cy="-306" rx="95.5831" ry="18"/>
<text text-anchor="middle" x="1006" y="-302.3" font-family="Times New Roman,serif" font-size="14.00">BaseCreatureBehaviour</text>
</g>
<!-- BaseCreatureBehaviour&#45;&gt;BarBehaviour -->
<g id="edge28" class="edge"><title>BaseCreatureBehaviour&#45;&gt;BarBehaviour</title>
<path fill="none" stroke="black" d="M1071.24,-292.785C1124.98,-282.522 1203.11,-267.144 1271,-252 1275.91,-250.903 1281.02,-249.724 1286.12,-248.516"/>
<polygon fill="black" stroke="black" points="1286.99,-251.909 1295.89,-246.173 1285.35,-245.101 1286.99,-251.909"/>
</g>
<!-- BaseCreatureBehaviour&#45;&gt;ICollisionSystemParticipatorWrapper -->
<g id="edge23" class="edge"><title>BaseCreatureBehaviour&#45;&gt;ICollisionSystemParticipatorWrapper</title>
<path fill="none" stroke="black" stroke-dasharray="5,2" d="M970.083,-289.068C955.141,-280.416 939.354,-268.14 930.997,-252 920.9,-232.502 926.611,-207.743 933.872,-189.293"/>
<polygon fill="black" stroke="black" points="937.123,-190.592 937.853,-180.023 930.691,-187.83 937.123,-190.592"/>
</g>
<!-- BaseCreatureBehaviour&#45;&gt;NotNull -->
<g id="edge31" class="edge"><title>BaseCreatureBehaviour&#45;&gt;NotNull</title>
<path fill="none" stroke="black" d="M910.331,-304.905C722.166,-303.734 310.63,-296.036 176.997,-252 133.507,-237.669 90.2662,-206.286 64.0814,-184.89"/>
<polygon fill="black" stroke="black" points="66.1249,-182.038 56.2004,-178.329 61.646,-187.417 66.1249,-182.038"/>
</g>
<!-- BaseCreatureBehaviour&#45;&gt;IHasSpriteRendererAndAudioSource -->
<g id="edge24" class="edge"><title>BaseCreatureBehaviour&#45;&gt;IHasSpriteRendererAndAudioSource</title>
<path fill="none" stroke="black" stroke-dasharray="5,2" d="M911.075,-303.608C822.816,-299.913 688.681,-288.117 577.997,-252 530.554,-236.519 481.124,-206.552 449.988,-185.689"/>
<polygon fill="black" stroke="black" points="451.56,-182.526 441.322,-179.8 447.626,-188.316 451.56,-182.526"/>
</g>
<!-- BaseCreatureBehaviour&#45;&gt;CreatureFsm -->
<g id="edge26" class="edge"><title>BaseCreatureBehaviour&#45;&gt;CreatureFsm</title>
<path fill="none" stroke="black" d="M922.269,-297.309C769.136,-283.241 447.007,-253.649 309.001,-240.972"/>
<polygon fill="black" stroke="black" points="309.27,-237.482 298.992,-240.052 308.629,-244.452 309.27,-237.482"/>
</g>
<!-- BaseCreatureBehaviour&#45;&gt;ICreatureControllerWrapper -->
<g id="edge22" class="edge"><title>BaseCreatureBehaviour&#45;&gt;ICreatureControllerWrapper</title>
<path fill="none" stroke="black" stroke-dasharray="5,2" d="M957.304,-290.496C920.867,-279.642 870.799,-264.729 831.742,-253.095"/>
<polygon fill="black" stroke="black" points="832.648,-249.712 822.065,-250.212 830.65,-256.421 832.648,-249.712"/>
</g>
<!-- CreaturePhysics -->
<g id="node21" class="node"><title>CreaturePhysics</title>
<ellipse fill="none" stroke="black" cx="1726" cy="-234" rx="69.5877" ry="18"/>
<text text-anchor="middle" x="1726" y="-230.3" font-family="Times New Roman,serif" font-size="14.00">CreaturePhysics</text>
</g>
<!-- BaseCreatureBehaviour&#45;&gt;CreaturePhysics -->
<g id="edge32" class="edge"><title>BaseCreatureBehaviour&#45;&gt;CreaturePhysics</title>
<path fill="none" stroke="black" d="M1097.47,-300.732C1221.37,-294.187 1449.21,-279.446 1642,-252 1649.47,-250.936 1657.29,-249.625 1665.01,-248.208"/>
<polygon fill="black" stroke="black" points="1665.91,-251.6 1675.08,-246.295 1664.6,-244.723 1665.91,-251.6"/>
</g>
<!-- CreaturePhysicsProperties -->
<g id="node22" class="node"><title>CreaturePhysicsProperties</title>
<ellipse fill="none" stroke="black" cx="1506" cy="-162" rx="106.681" ry="18"/>
<text text-anchor="middle" x="1506" y="-158.3" font-family="Times New Roman,serif" font-size="14.00">CreaturePhysicsProperties</text>
</g>
<!-- BaseCreatureBehaviour&#45;&gt;CreaturePhysicsProperties -->
<g id="edge27" class="edge"><title>BaseCreatureBehaviour&#45;&gt;CreaturePhysicsProperties</title>
<path fill="none" stroke="black" d="M1100.76,-303.547C1261.94,-300.085 1575.41,-288.665 1609,-252 1619.8,-240.201 1617.33,-229.659 1609,-216 1599.76,-200.859 1584.66,-189.861 1568.84,-181.947"/>
<polygon fill="black" stroke="black" points="1570.03,-178.64 1559.48,-177.636 1567.1,-184.998 1570.03,-178.64"/>
</g>
<!-- BaseCollisionSystemParticipatorWrapper -->
<g id="node23" class="node"><title>BaseCollisionSystemParticipatorWrapper</title>
<ellipse fill="none" stroke="black" cx="1101" cy="-234" rx="161.372" ry="18"/>
<text text-anchor="middle" x="1101" y="-230.3" font-family="Times New Roman,serif" font-size="14.00">BaseCollisionSystemParticipatorWrapper</text>
</g>
<!-- BaseCreatureBehaviour&#45;&gt;BaseCollisionSystemParticipatorWrapper -->
<g id="edge21" class="edge"><title>BaseCreatureBehaviour&#45;&gt;BaseCollisionSystemParticipatorWrapper</title>
<path fill="none" stroke="black" stroke-width="2" d="M1028.51,-288.411C1040.87,-279.304 1056.38,-267.873 1069.88,-257.925"/>
<polygon fill="black" stroke="black" stroke-width="2" points="1072.01,-260.706 1077.98,-251.956 1067.86,-255.071 1072.01,-260.706"/>
</g>
<!-- BaseCreature -->
<g id="node24" class="node"><title>BaseCreature</title>
<ellipse fill="none" stroke="black" cx="2177" cy="-234" rx="59.2899" ry="18"/>
<text text-anchor="middle" x="2177" y="-230.3" font-family="Times New Roman,serif" font-size="14.00">BaseCreature</text>
</g>
<!-- BaseCreatureBehaviour&#45;&gt;BaseCreature -->
<g id="edge25" class="edge"><title>BaseCreatureBehaviour&#45;&gt;BaseCreature</title>
<path fill="none" stroke="black" d="M1098.18,-301.063C1271.82,-293.413 1659.23,-275.233 1985,-252 2027.1,-248.997 2074.33,-244.826 2111.41,-241.367"/>
<polygon fill="black" stroke="black" points="2111.95,-244.831 2121.58,-240.412 2111.3,-237.862 2111.95,-244.831"/>
</g>
<!-- WrapperTransform -->
<g id="node25" class="node"><title>WrapperTransform</title>
<ellipse fill="none" stroke="black" cx="1895" cy="-234" rx="81.4863" ry="18"/>
<text text-anchor="middle" x="1895" y="-230.3" font-family="Times New Roman,serif" font-size="14.00">WrapperTransform</text>
</g>
<!-- BaseCreatureBehaviour&#45;&gt;WrapperTransform -->
<g id="edge34" class="edge"><title>BaseCreatureBehaviour&#45;&gt;WrapperTransform</title>
<path fill="none" stroke="black" d="M1099.83,-302.437C1249.5,-297.528 1551.24,-284.263 1805,-252 1812.35,-251.066 1820,-249.908 1827.61,-248.64"/>
<polygon fill="black" stroke="black" points="1828.29,-252.074 1837.55,-246.919 1827.1,-245.177 1828.29,-252.074"/>
</g>
<!-- BaseCreatureBehaviour&#45;&gt;ICreatureController -->
<g id="edge29" class="edge"><title>BaseCreatureBehaviour&#45;&gt;ICreatureController</title>
<path fill="none" stroke="black" d="M910.788,-304.369C816.715,-301.482 682.196,-290.492 648.997,-252 631.689,-231.933 651.803,-205.302 671.838,-186.415"/>
<polygon fill="black" stroke="black" points="674.338,-188.874 679.434,-179.586 669.658,-183.669 674.338,-188.874"/>
</g>
<!-- WrapperRigidbody2d -->
<g id="node29" class="node"><title>WrapperRigidbody2d</title>
<ellipse fill="none" stroke="black" cx="1509" cy="-234" rx="90.9839" ry="18"/>
<text text-anchor="middle" x="1509" y="-230.3" font-family="Times New Roman,serif" font-size="14.00">WrapperRigidbody2d</text>
</g>
<!-- BaseCreatureBehaviour&#45;&gt;WrapperRigidbody2d -->
<g id="edge33" class="edge"><title>BaseCreatureBehaviour&#45;&gt;WrapperRigidbody2d</title>
<path fill="none" stroke="black" d="M1084.13,-295.608C1165.41,-285.632 1296.3,-268.983 1409,-252 1416.92,-250.806 1425.19,-249.499 1433.42,-248.158"/>
<polygon fill="black" stroke="black" points="1434.13,-251.588 1443.43,-246.51 1432.99,-244.682 1434.13,-251.588"/>
</g>
<!-- BaseCreatureBehaviour&#45;&gt;ICollisionSystemParticipator -->
<g id="edge30" class="edge"><title>BaseCreatureBehaviour&#45;&gt;ICollisionSystemParticipator</title>
<path fill="none" stroke="black" d="M912.58,-302.047C818.045,-297.247 680.13,-284.7 638.997,-252 612.12,-230.634 617.327,-213.746 610.997,-180 608.046,-164.274 600.602,-156.163 610.997,-144 638.417,-111.915 739.969,-99.1362 824.32,-94.1072"/>
<polygon fill="black" stroke="black" points="824.729,-97.5898 834.515,-93.5315 824.334,-90.6009 824.729,-97.5898"/>
</g>
<!-- CreaturePhysics&#45;&gt;ICreaturePhysics -->
<g id="edge36" class="edge"><title>CreaturePhysics&#45;&gt;ICreaturePhysics</title>
<path fill="none" stroke="black" stroke-dasharray="5,2" d="M1772.53,-220.566C1816.74,-208.756 1883.31,-190.969 1930.75,-178.295"/>
<polygon fill="black" stroke="black" points="1931.81,-181.635 1940.57,-175.672 1930,-174.872 1931.81,-181.635"/>
</g>
<!-- CreaturePhysics&#45;&gt;IRigidBody2d -->
<g id="edge38" class="edge"><title>CreaturePhysics&#45;&gt;IRigidBody2d</title>
<path fill="none" stroke="black" d="M1698.94,-217.284C1685.34,-208.065 1669.72,-195.235 1660,-180 1648.11,-161.385 1642.65,-136.8 1640.13,-118.187"/>
<polygon fill="black" stroke="black" points="1643.58,-117.546 1638.97,-108.009 1636.63,-118.342 1643.58,-117.546"/>
</g>
<!-- CreaturePhysics&#45;&gt;ITransform -->
<g id="edge39" class="edge"><title>CreaturePhysics&#45;&gt;ITransform</title>
<path fill="none" stroke="black" d="M1755.63,-217.482C1769.39,-208.541 1784.37,-195.901 1792,-180 1801.67,-159.834 1794.09,-134.994 1785.29,-116.685"/>
<polygon fill="black" stroke="black" points="1788.38,-115.029 1780.66,-107.766 1782.16,-118.254 1788.38,-115.029"/>
</g>
<!-- CreaturePhysics&#45;&gt;CreaturePhysicsProperties -->
<g id="edge37" class="edge"><title>CreaturePhysics&#45;&gt;CreaturePhysicsProperties</title>
<path fill="none" stroke="black" d="M1683.84,-219.586C1649.71,-208.726 1601.28,-193.318 1563.58,-181.321"/>
<polygon fill="black" stroke="black" points="1564.34,-177.89 1553.74,-178.193 1562.21,-184.56 1564.34,-177.89"/>
</g>
<!-- BasePhysics -->
<g id="node37" class="node"><title>BasePhysics</title>
<ellipse fill="none" stroke="black" cx="1726" cy="-162" rx="56.59" ry="18"/>
<text text-anchor="middle" x="1726" y="-158.3" font-family="Times New Roman,serif" font-size="14.00">BasePhysics</text>
</g>
<!-- CreaturePhysics&#45;&gt;BasePhysics -->
<g id="edge35" class="edge"><title>CreaturePhysics&#45;&gt;BasePhysics</title>
<path fill="none" stroke="black" stroke-width="2" d="M1726,-215.697C1726,-207.983 1726,-198.712 1726,-190.112"/>
<polygon fill="black" stroke="black" stroke-width="2" points="1729.5,-190.104 1726,-180.104 1722.5,-190.104 1729.5,-190.104"/>
</g>
<!-- BaseCollisionSystemParticipatorWrapper&#45;&gt;ICollisionSystemParticipatorWrapper -->
<g id="edge42" class="edge"><title>BaseCollisionSystemParticipatorWrapper&#45;&gt;ICollisionSystemParticipatorWrapper</title>
<path fill="none" stroke="black" d="M1064.5,-216.411C1042.92,-206.604 1015.42,-194.1 992.441,-183.657"/>
<polygon fill="black" stroke="black" points="993.782,-180.422 983.23,-179.47 990.886,-186.794 993.782,-180.422"/>
</g>
<!-- BaseCollisionSystemParticipatorWrapper&#45;&gt;Debug -->
<g id="edge43" class="edge"><title>BaseCollisionSystemParticipatorWrapper&#45;&gt;Debug</title>
<path fill="none" stroke="black" d="M1108.65,-215.564C1112.95,-205.336 1118.2,-192.086 1122,-180 1136.54,-133.723 1148.44,-78.4252 1154.84,-46.1557"/>
<polygon fill="black" stroke="black" points="1158.32,-46.6273 1156.8,-36.1413 1151.45,-45.2831 1158.32,-46.6273"/>
</g>
<!-- BaseCollisionSystemParticipatorWrapper&#45;&gt;ICollisionSystemParticipator -->
<g id="edge41" class="edge"><title>BaseCollisionSystemParticipatorWrapper&#45;&gt;ICollisionSystemParticipator</title>
<path fill="none" stroke="black" d="M1107,-215.816C1112.6,-196.463 1118.03,-164.982 1103,-144 1089.22,-124.773 1068.07,-112.437 1045.75,-104.547"/>
<polygon fill="black" stroke="black" points="1046.72,-101.182 1036.12,-101.43 1044.56,-107.841 1046.72,-101.182"/>
</g>
<!-- BaseCollisionSystemParticipatorWrapper&#45;&gt;MonoBehaviour -->
<g id="edge40" class="edge"><title>BaseCollisionSystemParticipatorWrapper&#45;&gt;MonoBehaviour</title>
<path fill="none" stroke="black" stroke-width="2" d="M1140.1,-216.411C1164.69,-205.979 1196.47,-192.496 1221.95,-181.687"/>
<polygon fill="black" stroke="black" stroke-width="2" points="1223.54,-184.815 1231.38,-177.687 1220.8,-178.37 1223.54,-184.815"/>
</g>
<!-- BaseCreature&#45;&gt;ICreaturePhysics -->
<g id="edge48" class="edge"><title>BaseCreature&#45;&gt;ICreaturePhysics</title>
<path fill="none" stroke="black" d="M2141,-219.669C2111.4,-208.704 2069.17,-193.063 2036.57,-180.989"/>
<polygon fill="black" stroke="black" points="2037.38,-177.557 2026.78,-177.366 2034.95,-184.121 2037.38,-177.557"/>
</g>
<!-- BaseCreature&#45;&gt;IBarDisplay -->
<g id="edge49" class="edge"><title>BaseCreature&#45;&gt;IBarDisplay</title>
<path fill="none" stroke="black" d="M2206.87,-218.443C2221.53,-209.551 2237.78,-196.665 2246,-180 2255.88,-159.94 2248.29,-135.089 2239.43,-116.75"/>
<polygon fill="black" stroke="black" points="2242.49,-115.058 2234.76,-107.813 2236.29,-118.297 2242.49,-115.058"/>
</g>
<!-- BaseCreature&#45;&gt;TimerCollection -->
<g id="edge47" class="edge"><title>BaseCreature&#45;&gt;TimerCollection</title>
<path fill="none" stroke="black" d="M2225.88,-223.777C2292.03,-211.296 2410.19,-189.002 2483.54,-175.162"/>
<polygon fill="black" stroke="black" points="2484.4,-178.561 2493.58,-173.268 2483.1,-171.682 2484.4,-178.561"/>
</g>
<!-- BaseCreature&#45;&gt;BarCollection -->
<g id="edge45" class="edge"><title>BaseCreature&#45;&gt;BarCollection</title>
<path fill="none" stroke="black" d="M2177,-215.697C2177,-207.983 2177,-198.712 2177,-190.112"/>
<polygon fill="black" stroke="black" points="2180.5,-190.104 2177,-180.104 2173.5,-190.104 2180.5,-190.104"/>
</g>
<!-- FlipXCollection -->
<g id="node26" class="node"><title>FlipXCollection</title>
<ellipse fill="none" stroke="black" cx="2046" cy="-90" rx="68.4888" ry="18"/>
<text text-anchor="middle" x="2046" y="-86.3" font-family="Times New Roman,serif" font-size="14.00">FlipXCollection</text>
</g>
<!-- BaseCreature&#45;&gt;FlipXCollection -->
<g id="edge44" class="edge"><title>BaseCreature&#45;&gt;FlipXCollection</title>
<path fill="none" stroke="black" d="M2153.16,-217.444C2139.14,-207.65 2121.55,-194.205 2108,-180 2089.45,-160.568 2072.32,-135.156 2060.79,-116.463"/>
<polygon fill="black" stroke="black" points="2063.77,-114.625 2055.59,-107.881 2057.78,-118.249 2063.77,-114.625"/>
</g>
<!-- CreatureHealth -->
<g id="node30" class="node"><title>CreatureHealth</title>
<ellipse fill="none" stroke="black" cx="2362" cy="-162" rx="64.189" ry="18"/>
<text text-anchor="middle" x="2362" y="-158.3" font-family="Times New Roman,serif" font-size="14.00">CreatureHealth</text>
</g>
<!-- BaseCreature&#45;&gt;CreatureHealth -->
<g id="edge46" class="edge"><title>BaseCreature&#45;&gt;CreatureHealth</title>
<path fill="none" stroke="black" d="M2212.67,-219.503C2241.97,-208.414 2283.71,-192.623 2315.61,-180.552"/>
<polygon fill="black" stroke="black" points="2317.06,-183.747 2325.17,-176.934 2314.58,-177.2 2317.06,-183.747"/>
</g>
<!-- WrapperTransform&#45;&gt;ITransform -->
<g id="edge50" class="edge"><title>WrapperTransform&#45;&gt;ITransform</title>
<path fill="none" stroke="black" stroke-dasharray="5,2" d="M1880.17,-216.153C1858.06,-191.038 1816.36,-143.666 1791.08,-114.956"/>
<polygon fill="black" stroke="black" points="1793.66,-112.58 1784.42,-107.387 1788.4,-117.205 1793.66,-112.58"/>
</g>
<!-- FlipXCollection&#45;&gt;IFlipX -->
<g id="edge51" class="edge"><title>FlipXCollection&#45;&gt;IFlipX</title>
<path fill="none" stroke="black" stroke-dasharray="5,2" d="M2057.62,-72.055C2063.48,-63.5048 2070.7,-52.975 2077.16,-43.5561"/>
<polygon fill="black" stroke="black" points="2080.05,-45.5337 2082.81,-35.307 2074.27,-41.5749 2080.05,-45.5337"/>
</g>
<!-- IBasePhysics&#45;&gt;IFlipX -->
<g id="edge52" class="edge"><title>IBasePhysics&#45;&gt;IFlipX</title>
<path fill="none" stroke="black" stroke-dasharray="5,2" d="M1936.94,-75.6688C1971.26,-63.2852 2022.12,-44.9349 2056.59,-32.4981"/>
<polygon fill="black" stroke="black" points="2058.07,-35.6857 2066.28,-28.9994 2055.69,-29.1012 2058.07,-35.6857"/>
</g>
<!-- ICreatureController&#45;&gt;ICollisionSystemParticipator -->
<g id="edge53" class="edge"><title>ICreatureController&#45;&gt;ICollisionSystemParticipator</title>
<path fill="none" stroke="black" stroke-dasharray="5,2" d="M748.719,-147.42C787.478,-136.392 842.439,-120.752 884.669,-108.735"/>
<polygon fill="black" stroke="black" points="885.632,-112.1 894.292,-105.997 883.716,-105.368 885.632,-112.1"/>
</g>
<!-- WrapperRigidbody2d&#45;&gt;IRigidBody2d -->
<g id="edge54" class="edge"><title>WrapperRigidbody2d&#45;&gt;IRigidBody2d</title>
<path fill="none" stroke="black" stroke-dasharray="5,2" d="M1448.07,-220.554C1425.91,-212.767 1403.11,-200.201 1390,-180 1381.28,-166.581 1379.93,-156.44 1390,-144 1412.04,-116.747 1502.61,-102.892 1567.93,-96.3112"/>
<polygon fill="black" stroke="black" points="1568.57,-99.766 1578.18,-95.3167 1567.89,-92.7987 1568.57,-99.766"/>
</g>
<!-- CreatureHealth&#45;&gt;IBarDisplay -->
<g id="edge56" class="edge"><title>CreatureHealth&#45;&gt;IBarDisplay</title>
<path fill="none" stroke="black" d="M2332.39,-145.983C2311.74,-135.508 2284.01,-121.442 2261.77,-110.159"/>
<polygon fill="black" stroke="black" points="2263.11,-106.915 2252.61,-105.513 2259.94,-113.158 2263.11,-106.915"/>
</g>
<!-- CreatureHealth&#45;&gt;Callback -->
<g id="edge57" class="edge"><title>CreatureHealth&#45;&gt;Callback</title>
<path fill="none" stroke="black" d="M2422.43,-155.738C2456.64,-149.588 2497.54,-136.358 2523,-108 2537.96,-91.3344 2542.18,-65.8376 2542.96,-46.3991"/>
<polygon fill="black" stroke="black" points="2546.46,-46.3619 2543.09,-36.3178 2539.46,-46.272 2546.46,-46.3619"/>
</g>
<!-- ICreatureHealth -->
<g id="node33" class="node"><title>ICreatureHealth</title>
<ellipse fill="none" stroke="black" stroke-dasharray="5,2" cx="2364" cy="-90" rx="67.6881" ry="18"/>
<text text-anchor="middle" x="2364" y="-86.3" font-family="Times New Roman,serif" font-size="14.00">ICreatureHealth</text>
</g>
<!-- CreatureHealth&#45;&gt;ICreatureHealth -->
<g id="edge55" class="edge"><title>CreatureHealth&#45;&gt;ICreatureHealth</title>
<path fill="none" stroke="black" stroke-dasharray="5,2" d="M2362.49,-143.697C2362.71,-135.983 2362.98,-126.712 2363.22,-118.112"/>
<polygon fill="black" stroke="black" points="2366.72,-118.2 2363.51,-108.104 2359.72,-118 2366.72,-118.2"/>
</g>
<!-- ICollisionSystemParticipator&#45;&gt;ICollisionSystemParticipatorWrapper -->
<g id="edge59" class="edge"><title>ICollisionSystemParticipator&#45;&gt;ICollisionSystemParticipatorWrapper</title>
<path fill="none" stroke="black" stroke-dasharray="5,2" d="M952.892,-108.104C953.697,-115.791 953.933,-125.054 953.601,-133.665"/>
<polygon fill="black" stroke="black" points="950.105,-133.48 952.912,-143.697 957.089,-133.96 950.105,-133.48"/>
</g>
<!-- ICollisionSystemParticipator&#45;&gt;ISystemParticipator -->
<g id="edge58" class="edge"><title>ICollisionSystemParticipator&#45;&gt;ISystemParticipator</title>
<path fill="none" stroke="black" stroke-dasharray="5,2" d="M946.997,-71.6966C946.997,-63.9827 946.997,-54.7125 946.997,-46.1124"/>
<polygon fill="black" stroke="black" points="950.497,-46.1043 946.997,-36.1043 943.497,-46.1044 950.497,-46.1043"/>
</g>
<!-- TimerNotFoundException&#45;&gt;Exception -->
<g id="edge60" class="edge"><title>TimerNotFoundException&#45;&gt;Exception</title>
<path fill="none" stroke="black" stroke-width="2" d="M2715,-71.6966C2715,-63.9827 2715,-54.7125 2715,-46.1124"/>
<polygon fill="black" stroke="black" stroke-width="2" points="2718.5,-46.1043 2715,-36.1043 2711.5,-46.1044 2718.5,-46.1043"/>
</g>
<!-- BasePhysics&#45;&gt;IRigidBody2d -->
<g id="edge63" class="edge"><title>BasePhysics&#45;&gt;IRigidBody2d</title>
<path fill="none" stroke="black" d="M1706.03,-145.116C1694.3,-135.785 1679.28,-123.838 1666.34,-113.545"/>
<polygon fill="black" stroke="black" points="1668.2,-110.55 1658.19,-107.064 1663.84,-116.028 1668.2,-110.55"/>
</g>
<!-- BasePhysics&#45;&gt;ITransform -->
<g id="edge62" class="edge"><title>BasePhysics&#45;&gt;ITransform</title>
<path fill="none" stroke="black" d="M1736.65,-144.055C1741.84,-135.801 1748.18,-125.701 1753.94,-116.538"/>
<polygon fill="black" stroke="black" points="1757.08,-118.118 1759.44,-107.789 1751.16,-114.393 1757.08,-118.118"/>
</g>
<!-- BasePhysics&#45;&gt;IBasePhysics -->
<g id="edge61" class="edge"><title>BasePhysics&#45;&gt;IBasePhysics</title>
<path fill="none" stroke="black" stroke-dasharray="5,2" d="M1759.55,-147.503C1787.08,-136.426 1826.28,-120.657 1856.27,-108.591"/>
<polygon fill="black" stroke="black" points="1857.69,-111.794 1865.66,-104.814 1855.07,-105.299 1857.69,-111.794"/>
</g>
</g>
</svg>
