<?xml version="1.0" encoding="UTF-8" standalone="no"?>
<!DOCTYPE svg PUBLIC "-//W3C//DTD SVG 1.1//EN"
 "http://www.w3.org/Graphics/SVG/1.1/DTD/svg11.dtd">
<!-- Generated by graphviz version 2.38.0 (20140413.2041)
 -->
<!-- Title: %3 Pages: 1 -->
<svg width="1351pt" height="332pt"
 viewBox="0.00 0.00 1351.09 332.00" xmlns="http://www.w3.org/2000/svg" xmlns:xlink="http://www.w3.org/1999/xlink">
<g id="graph0" class="graph" transform="scale(1 1) rotate(0) translate(4 328)">
<title>%3</title>
<polygon fill="white" stroke="none" points="-4,4 -4,-328 1347.09,-328 1347.09,4 -4,4"/>
<!-- BulletBehaviour -->
<g id="node1" class="node"><title>BulletBehaviour</title>
<ellipse fill="none" stroke="black" cx="609.243" cy="-306" rx="67.6881" ry="18"/>
<text text-anchor="middle" x="609.243" y="-302.3" font-family="Times New Roman,serif" font-size="14.00">BulletBehaviour</text>
</g>
<!-- IDealsDamage -->
<g id="node10" class="node"><title>IDealsDamage</title>
<ellipse fill="none" stroke="black" stroke-dasharray="5,2" cx="536.243" cy="-234" rx="63.0888" ry="18"/>
<text text-anchor="middle" x="536.243" y="-230.3" font-family="Times New Roman,serif" font-size="14.00">IDealsDamage</text>
</g>
<!-- BulletBehaviour&#45;&gt;IDealsDamage -->
<g id="edge2" class="edge"><title>BulletBehaviour&#45;&gt;IDealsDamage</title>
<path fill="none" stroke="black" stroke-dasharray="5,2" d="M591.943,-288.411C582.67,-279.519 571.085,-268.411 560.886,-258.631"/>
<polygon fill="black" stroke="black" points="563.059,-255.865 553.419,-251.47 558.214,-260.917 563.059,-255.865"/>
</g>
<!-- SpellBehaviour -->
<g id="node13" class="node"><title>SpellBehaviour</title>
<ellipse fill="none" stroke="black" cx="683.243" cy="-234" rx="65.7887" ry="18"/>
<text text-anchor="middle" x="683.243" y="-230.3" font-family="Times New Roman,serif" font-size="14.00">SpellBehaviour</text>
</g>
<!-- BulletBehaviour&#45;&gt;SpellBehaviour -->
<g id="edge1" class="edge"><title>BulletBehaviour&#45;&gt;SpellBehaviour</title>
<path fill="none" stroke="black" stroke-width="2" d="M626.78,-288.411C636.272,-279.432 648.153,-268.193 658.565,-258.344"/>
<polygon fill="black" stroke="black" stroke-width="2" points="660.972,-260.885 665.832,-251.47 656.162,-255.799 660.972,-260.885"/>
</g>
<!-- ITransform -->
<g id="node2" class="node"><title>ITransform</title>
<ellipse fill="none" stroke="black" stroke-dasharray="5,2" cx="81.2428" cy="-90" rx="51.9908" ry="18"/>
<text text-anchor="middle" x="81.2428" y="-86.3" font-family="Times New Roman,serif" font-size="14.00">ITransform</text>
</g>
<!-- Exception -->
<g id="node3" class="node"><title>Exception</title>
<ellipse fill="none" stroke="black" cx="1032.24" cy="-18" rx="47.3916" ry="18"/>
<text text-anchor="middle" x="1032.24" y="-14.3" font-family="Times New Roman,serif" font-size="14.00">Exception</text>
</g>
<!-- IFlipX -->
<g id="node4" class="node"><title>IFlipX</title>
<ellipse fill="none" stroke="black" stroke-dasharray="5,2" cx="211.243" cy="-18" rx="34.394" ry="18"/>
<text text-anchor="middle" x="211.243" y="-14.3" font-family="Times New Roman,serif" font-size="14.00">IFlipX</text>
</g>
<!-- IRigidBody2d -->
<g id="node5" class="node"><title>IRigidBody2d</title>
<ellipse fill="none" stroke="black" stroke-dasharray="5,2" cx="351.243" cy="-90" rx="62.2891" ry="18"/>
<text text-anchor="middle" x="351.243" y="-86.3" font-family="Times New Roman,serif" font-size="14.00">IRigidBody2d</text>
</g>
<!-- BasePhysics -->
<g id="node6" class="node"><title>BasePhysics</title>
<ellipse fill="none" stroke="black" cx="237.243" cy="-162" rx="56.59" ry="18"/>
<text text-anchor="middle" x="237.243" y="-158.3" font-family="Times New Roman,serif" font-size="14.00">BasePhysics</text>
</g>
<!-- BasePhysics&#45;&gt;ITransform -->
<g id="edge4" class="edge"><title>BasePhysics&#45;&gt;ITransform</title>
<path fill="none" stroke="black" d="M205.674,-146.834C181.252,-135.876 147.281,-120.633 121.004,-108.842"/>
<polygon fill="black" stroke="black" points="122.26,-105.569 111.703,-104.668 119.394,-111.955 122.26,-105.569"/>
</g>
<!-- BasePhysics&#45;&gt;IRigidBody2d -->
<g id="edge5" class="edge"><title>BasePhysics&#45;&gt;IRigidBody2d</title>
<path fill="none" stroke="black" d="M261.979,-145.811C278.039,-135.95 299.195,-122.959 316.879,-112.1"/>
<polygon fill="black" stroke="black" points="319.075,-114.859 325.765,-106.644 315.412,-108.894 319.075,-114.859"/>
</g>
<!-- IBasePhysics -->
<g id="node17" class="node"><title>IBasePhysics</title>
<ellipse fill="none" stroke="black" stroke-dasharray="5,2" cx="211.243" cy="-90" rx="59.5901" ry="18"/>
<text text-anchor="middle" x="211.243" y="-86.3" font-family="Times New Roman,serif" font-size="14.00">IBasePhysics</text>
</g>
<!-- BasePhysics&#45;&gt;IBasePhysics -->
<g id="edge3" class="edge"><title>BasePhysics&#45;&gt;IBasePhysics</title>
<path fill="none" stroke="black" stroke-dasharray="5,2" d="M230.949,-144.055C228.023,-136.176 224.472,-126.617 221.195,-117.794"/>
<polygon fill="black" stroke="black" points="224.422,-116.431 217.659,-108.275 217.86,-118.868 224.422,-116.431"/>
</g>
<!-- Debug -->
<g id="node7" class="node"><title>Debug</title>
<ellipse fill="#e5e5e5" stroke="black" cx="1154.24" cy="-18" rx="34.394" ry="18"/>
<text text-anchor="middle" x="1154.24" y="-14.3" font-family="Times New Roman,serif" font-size="14.00">Debug</text>
</g>
<!-- WrapperTransform -->
<g id="node8" class="node"><title>WrapperTransform</title>
<ellipse fill="none" stroke="black" cx="81.2428" cy="-162" rx="81.4863" ry="18"/>
<text text-anchor="middle" x="81.2428" y="-158.3" font-family="Times New Roman,serif" font-size="14.00">WrapperTransform</text>
</g>
<!-- WrapperTransform&#45;&gt;ITransform -->
<g id="edge6" class="edge"><title>WrapperTransform&#45;&gt;ITransform</title>
<path fill="none" stroke="black" stroke-dasharray="5,2" d="M81.2428,-143.697C81.2428,-135.983 81.2428,-126.712 81.2428,-118.112"/>
<polygon fill="black" stroke="black" points="84.7429,-118.104 81.2428,-108.104 77.7429,-118.104 84.7429,-118.104"/>
</g>
<!-- ICollisionSystemParticipatorWrapper -->
<g id="node9" class="node"><title>ICollisionSystemParticipatorWrapper</title>
<ellipse fill="none" stroke="black" stroke-dasharray="5,2" cx="578.243" cy="-90" rx="146.774" ry="18"/>
<text text-anchor="middle" x="578.243" y="-86.3" font-family="Times New Roman,serif" font-size="14.00">ICollisionSystemParticipatorWrapper</text>
</g>
<!-- ICollisionSystemParticipator -->
<g id="node19" class="node"><title>ICollisionSystemParticipator</title>
<ellipse fill="none" stroke="black" stroke-dasharray="5,2" cx="784.243" cy="-162" rx="114.28" ry="18"/>
<text text-anchor="middle" x="784.243" y="-158.3" font-family="Times New Roman,serif" font-size="14.00">ICollisionSystemParticipator</text>
</g>
<!-- ICollisionSystemParticipatorWrapper&#45;&gt;ICollisionSystemParticipator -->
<g id="edge7" class="edge"><title>ICollisionSystemParticipatorWrapper&#45;&gt;ICollisionSystemParticipator</title>
<path fill="none" stroke="black" d="M630.556,-106.821C662.135,-117.145 702.115,-130.69 733.421,-141.654"/>
<polygon fill="black" stroke="black" points="732.664,-145.098 743.259,-145.116 734.988,-138.495 732.664,-145.098"/>
</g>
<!-- TimerNotFoundException -->
<g id="node11" class="node"><title>TimerNotFoundException</title>
<ellipse fill="none" stroke="black" cx="1032.24" cy="-90" rx="106.681" ry="18"/>
<text text-anchor="middle" x="1032.24" y="-86.3" font-family="Times New Roman,serif" font-size="14.00">TimerNotFoundException</text>
</g>
<!-- TimerNotFoundException&#45;&gt;Exception -->
<g id="edge8" class="edge"><title>TimerNotFoundException&#45;&gt;Exception</title>
<path fill="none" stroke="black" stroke-width="2" d="M1032.24,-71.6966C1032.24,-63.9827 1032.24,-54.7125 1032.24,-46.1124"/>
<polygon fill="black" stroke="black" stroke-width="2" points="1035.74,-46.1043 1032.24,-36.1043 1028.74,-46.1044 1035.74,-46.1043"/>
</g>
<!-- Timer -->
<g id="node12" class="node"><title>Timer</title>
<ellipse fill="none" stroke="black" cx="1189.24" cy="-90" rx="32.4942" ry="18"/>
<text text-anchor="middle" x="1189.24" y="-86.3" font-family="Times New Roman,serif" font-size="14.00">Timer</text>
</g>
<!-- Timer&#45;&gt;Debug -->
<g id="edge10" class="edge"><title>Timer&#45;&gt;Debug</title>
<path fill="none" stroke="black" d="M1180.95,-72.411C1176.87,-64.2493 1171.85,-54.2203 1167.28,-45.0653"/>
<polygon fill="black" stroke="black" points="1170.32,-43.3352 1162.72,-35.9562 1164.06,-46.4658 1170.32,-43.3352"/>
</g>
<!-- Callback -->
<g id="node15" class="node"><title>Callback</title>
<ellipse fill="none" stroke="black" cx="1249.24" cy="-18" rx="42.4939" ry="18"/>
<text text-anchor="middle" x="1249.24" y="-14.3" font-family="Times New Roman,serif" font-size="14.00">Callback</text>
</g>
<!-- Timer&#45;&gt;Callback -->
<g id="edge9" class="edge"><title>Timer&#45;&gt;Callback</title>
<path fill="none" stroke="black" d="M1202.56,-73.4647C1210.19,-64.5657 1219.92,-53.2051 1228.53,-43.1644"/>
<polygon fill="black" stroke="black" points="1231.28,-45.3376 1235.13,-35.4672 1225.96,-40.782 1231.28,-45.3376"/>
</g>
<!-- SpellBehaviour&#45;&gt;BasePhysics -->
<g id="edge14" class="edge"><title>SpellBehaviour&#45;&gt;BasePhysics</title>
<path fill="none" stroke="black" d="M635.783,-221.449C626.676,-219.458 617.19,-217.538 608.243,-216 473.718,-192.881 437.415,-205.08 303.243,-180 298.281,-179.073 293.141,-177.982 288.019,-176.809"/>
<polygon fill="black" stroke="black" points="288.783,-173.393 278.244,-174.472 287.156,-180.201 288.783,-173.393"/>
</g>
<!-- SpellBehaviour&#45;&gt;WrapperTransform -->
<g id="edge18" class="edge"><title>SpellBehaviour&#45;&gt;WrapperTransform</title>
<path fill="none" stroke="black" d="M636.227,-221.28C626.994,-219.28 617.348,-217.4 608.243,-216 415.626,-186.387 364.364,-206.121 171.243,-180 163.902,-179.007 156.252,-177.813 148.65,-176.523"/>
<polygon fill="black" stroke="black" points="149.166,-173.06 138.712,-174.781 147.957,-179.955 149.166,-173.06"/>
</g>
<!-- WrapperRigidbody2d -->
<g id="node14" class="node"><title>WrapperRigidbody2d</title>
<ellipse fill="none" stroke="black" cx="403.243" cy="-162" rx="90.9839" ry="18"/>
<text text-anchor="middle" x="403.243" y="-158.3" font-family="Times New Roman,serif" font-size="14.00">WrapperRigidbody2d</text>
</g>
<!-- SpellBehaviour&#45;&gt;WrapperRigidbody2d -->
<g id="edge17" class="edge"><title>SpellBehaviour&#45;&gt;WrapperRigidbody2d</title>
<path fill="none" stroke="black" d="M636.377,-221.284C590.014,-209.693 518.711,-191.867 467.167,-178.981"/>
<polygon fill="black" stroke="black" points="468.009,-175.584 457.459,-176.554 466.312,-182.375 468.009,-175.584"/>
</g>
<!-- MonoBehaviour -->
<g id="node16" class="node"><title>MonoBehaviour</title>
<ellipse fill="none" stroke="black" cx="582.243" cy="-162" rx="69.5877" ry="18"/>
<text text-anchor="middle" x="582.243" y="-158.3" font-family="Times New Roman,serif" font-size="14.00">MonoBehaviour</text>
</g>
<!-- SpellBehaviour&#45;&gt;MonoBehaviour -->
<g id="edge11" class="edge"><title>SpellBehaviour&#45;&gt;MonoBehaviour</title>
<path fill="none" stroke="black" stroke-width="2" d="M660.324,-217.116C646.604,-207.607 628.966,-195.382 613.926,-184.959"/>
<polygon fill="black" stroke="black" stroke-width="2" points="615.633,-181.883 605.42,-179.064 611.645,-187.637 615.633,-181.883"/>
</g>
<!-- SpellBehaviour&#45;&gt;ICollisionSystemParticipator -->
<g id="edge13" class="edge"><title>SpellBehaviour&#45;&gt;ICollisionSystemParticipator</title>
<path fill="none" stroke="black" stroke-dasharray="5,2" d="M706.161,-217.116C719.589,-207.809 736.771,-195.901 751.596,-185.626"/>
<polygon fill="black" stroke="black" points="753.781,-188.37 760.007,-179.797 749.794,-182.617 753.781,-188.37"/>
</g>
<!-- TimerCollection -->
<g id="node20" class="node"><title>TimerCollection</title>
<ellipse fill="none" stroke="black" cx="1009.24" cy="-162" rx="69.5877" ry="18"/>
<text text-anchor="middle" x="1009.24" y="-158.3" font-family="Times New Roman,serif" font-size="14.00">TimerCollection</text>
</g>
<!-- SpellBehaviour&#45;&gt;TimerCollection -->
<g id="edge16" class="edge"><title>SpellBehaviour&#45;&gt;TimerCollection</title>
<path fill="none" stroke="black" d="M733.11,-222.292C790.64,-209.939 885.272,-189.619 947.429,-176.273"/>
<polygon fill="black" stroke="black" points="948.453,-179.633 957.495,-174.111 946.983,-172.789 948.453,-179.633"/>
</g>
<!-- ConvertToInterface -->
<g id="node21" class="node"><title>ConvertToInterface</title>
<ellipse fill="#e5e5e5" stroke="black" cx="1179.24" cy="-162" rx="82.5854" ry="18"/>
<text text-anchor="middle" x="1179.24" y="-158.3" font-family="Times New Roman,serif" font-size="14.00">ConvertToInterface</text>
</g>
<!-- SpellBehaviour&#45;&gt;ConvertToInterface -->
<g id="edge15" class="edge"><title>SpellBehaviour&#45;&gt;ConvertToInterface</title>
<path fill="none" stroke="black" d="M742.751,-226.243C821.84,-217.026 965.856,-199.425 1088.24,-180 1095.23,-178.891 1102.5,-177.662 1109.75,-176.385"/>
<polygon fill="black" stroke="black" points="1110.38,-179.829 1119.6,-174.623 1109.14,-172.939 1110.38,-179.829"/>
</g>
<!-- ISpell -->
<g id="node22" class="node"><title>ISpell</title>
<ellipse fill="none" stroke="black" stroke-dasharray="5,2" cx="1311.24" cy="-162" rx="31.6951" ry="18"/>
<text text-anchor="middle" x="1311.24" y="-158.3" font-family="Times New Roman,serif" font-size="14.00">ISpell</text>
</g>
<!-- SpellBehaviour&#45;&gt;ISpell -->
<g id="edge12" class="edge"><title>SpellBehaviour&#45;&gt;ISpell</title>
<path fill="none" stroke="black" stroke-dasharray="5,2" d="M749.171,-233.689C859.109,-233.375 1086.08,-226.468 1271.24,-180 1273.59,-179.411 1275.98,-178.703 1278.35,-177.915"/>
<polygon fill="black" stroke="black" points="1279.83,-181.1 1287.98,-174.324 1277.38,-174.542 1279.83,-181.1"/>
</g>
<!-- WrapperRigidbody2d&#45;&gt;IRigidBody2d -->
<g id="edge19" class="edge"><title>WrapperRigidbody2d&#45;&gt;IRigidBody2d</title>
<path fill="none" stroke="black" stroke-dasharray="5,2" d="M390.655,-144.055C384.396,-135.629 376.708,-125.28 369.789,-115.966"/>
<polygon fill="black" stroke="black" points="372.488,-113.729 363.715,-107.789 366.868,-117.904 372.488,-113.729"/>
</g>
<!-- IBasePhysics&#45;&gt;IFlipX -->
<g id="edge20" class="edge"><title>IBasePhysics&#45;&gt;IFlipX</title>
<path fill="none" stroke="black" stroke-dasharray="5,2" d="M211.243,-71.6966C211.243,-63.9827 211.243,-54.7125 211.243,-46.1124"/>
<polygon fill="black" stroke="black" points="214.743,-46.1043 211.243,-36.1043 207.743,-46.1044 214.743,-46.1043"/>
</g>
<!-- ISystemParticipator -->
<g id="node18" class="node"><title>ISystemParticipator</title>
<ellipse fill="none" stroke="black" stroke-dasharray="5,2" cx="825.243" cy="-90" rx="82.5854" ry="18"/>
<text text-anchor="middle" x="825.243" y="-86.3" font-family="Times New Roman,serif" font-size="14.00">ISystemParticipator</text>
</g>
<!-- ICollisionSystemParticipator&#45;&gt;ICollisionSystemParticipatorWrapper -->
<g id="edge22" class="edge"><title>ICollisionSystemParticipator&#45;&gt;ICollisionSystemParticipatorWrapper</title>
<path fill="none" stroke="black" stroke-dasharray="5,2" d="M733.865,-145.811C702.261,-135.498 661.691,-121.764 629.86,-110.624"/>
<polygon fill="black" stroke="black" points="630.876,-107.271 620.281,-107.257 628.554,-113.875 630.876,-107.271"/>
</g>
<!-- ICollisionSystemParticipator&#45;&gt;ISystemParticipator -->
<g id="edge21" class="edge"><title>ICollisionSystemParticipator&#45;&gt;ISystemParticipator</title>
<path fill="none" stroke="black" stroke-dasharray="5,2" d="M794.168,-144.055C798.931,-135.922 804.744,-125.998 810.048,-116.943"/>
<polygon fill="black" stroke="black" points="813.09,-118.673 815.124,-108.275 807.05,-115.135 813.09,-118.673"/>
</g>
<!-- TimerCollection&#45;&gt;TimerNotFoundException -->
<g id="edge25" class="edge"><title>TimerCollection&#45;&gt;TimerNotFoundException</title>
<path fill="none" stroke="black" d="M1014.81,-144.055C1017.4,-136.176 1020.54,-126.617 1023.44,-117.794"/>
<polygon fill="black" stroke="black" points="1026.77,-118.868 1026.57,-108.275 1020.12,-116.683 1026.77,-118.868"/>
</g>
<!-- TimerCollection&#45;&gt;Timer -->
<g id="edge23" class="edge"><title>TimerCollection&#45;&gt;Timer</title>
<path fill="none" stroke="black" d="M1047.11,-146.896C1075.13,-136.382 1114.17,-121.558 1148.24,-108 1150.34,-107.167 1152.49,-106.302 1154.66,-105.424"/>
<polygon fill="black" stroke="black" points="1156.21,-108.57 1164.14,-101.544 1153.56,-102.092 1156.21,-108.57"/>
</g>
<!-- TimerCollection&#45;&gt;Callback -->
<g id="edge24" class="edge"><title>TimerCollection&#45;&gt;Callback</title>
<path fill="none" stroke="black" d="M1059.89,-149.555C1124.19,-134.925 1227.22,-111.103 1230.24,-108 1245.97,-91.8712 1250.07,-66.0973 1250.62,-46.4271"/>
<polygon fill="black" stroke="black" points="1254.12,-46.2235 1250.61,-36.2272 1247.12,-46.2308 1254.12,-46.2235"/>
</g>
</g>
</svg>
