<?xml version="1.0" encoding="UTF-8" standalone="no"?>
<!DOCTYPE svg PUBLIC "-//W3C//DTD SVG 1.1//EN"
 "http://www.w3.org/Graphics/SVG/1.1/DTD/svg11.dtd">
<!-- Generated by graphviz version 2.38.0 (20140413.2041)
 -->
<!-- Title: %3 Pages: 1 -->
<svg width="1388pt" height="332pt"
 viewBox="0.00 0.00 1388.29 332.00" xmlns="http://www.w3.org/2000/svg" xmlns:xlink="http://www.w3.org/1999/xlink">
<g id="graph0" class="graph" transform="scale(1 1) rotate(0) translate(4 328)">
<title>%3</title>
<polygon fill="white" stroke="none" points="-4,4 -4,-328 1384.29,-328 1384.29,4 -4,4"/>
<!-- Debug -->
<g id="node1" class="node"><title>Debug</title>
<ellipse fill="#e5e5e5" stroke="black" cx="34.4469" cy="-18" rx="34.394" ry="18"/>
<text text-anchor="middle" x="34.4469" y="-14.3" font-family="Times New Roman,serif" font-size="14.00">Debug</text>
</g>
<!-- BasePhysics -->
<g id="node2" class="node"><title>BasePhysics</title>
<ellipse fill="none" stroke="black" cx="631.447" cy="-162" rx="56.59" ry="18"/>
<text text-anchor="middle" x="631.447" y="-158.3" font-family="Times New Roman,serif" font-size="14.00">BasePhysics</text>
</g>
<!-- IBasePhysics -->
<g id="node9" class="node"><title>IBasePhysics</title>
<ellipse fill="none" stroke="black" stroke-dasharray="5,2" cx="631.447" cy="-90" rx="59.5901" ry="18"/>
<text text-anchor="middle" x="631.447" y="-86.3" font-family="Times New Roman,serif" font-size="14.00">IBasePhysics</text>
</g>
<!-- BasePhysics&#45;&gt;IBasePhysics -->
<g id="edge1" class="edge"><title>BasePhysics&#45;&gt;IBasePhysics</title>
<path fill="none" stroke="black" stroke-dasharray="5,2" d="M631.447,-143.697C631.447,-135.983 631.447,-126.712 631.447,-118.112"/>
<polygon fill="black" stroke="black" points="634.947,-118.104 631.447,-108.104 627.947,-118.104 634.947,-118.104"/>
</g>
<!-- IRigidBody2d -->
<g id="node10" class="node"><title>IRigidBody2d</title>
<ellipse fill="none" stroke="black" stroke-dasharray="5,2" cx="478.447" cy="-90" rx="62.2891" ry="18"/>
<text text-anchor="middle" x="478.447" y="-86.3" font-family="Times New Roman,serif" font-size="14.00">IRigidBody2d</text>
</g>
<!-- BasePhysics&#45;&gt;IRigidBody2d -->
<g id="edge3" class="edge"><title>BasePhysics&#45;&gt;IRigidBody2d</title>
<path fill="none" stroke="black" d="M600.485,-146.834C577.18,-136.172 545.009,-121.453 519.548,-109.805"/>
<polygon fill="black" stroke="black" points="520.701,-106.483 510.152,-105.505 517.789,-112.849 520.701,-106.483"/>
</g>
<!-- ITransform -->
<g id="node13" class="node"><title>ITransform</title>
<ellipse fill="none" stroke="black" stroke-dasharray="5,2" cx="773.447" cy="-90" rx="51.9908" ry="18"/>
<text text-anchor="middle" x="773.447" y="-86.3" font-family="Times New Roman,serif" font-size="14.00">ITransform</text>
</g>
<!-- BasePhysics&#45;&gt;ITransform -->
<g id="edge2" class="edge"><title>BasePhysics&#45;&gt;ITransform</title>
<path fill="none" stroke="black" d="M660.869,-146.496C682.432,-135.867 711.894,-121.343 735.269,-109.82"/>
<polygon fill="black" stroke="black" points="737.126,-112.807 744.548,-105.246 734.031,-106.528 737.126,-112.807"/>
</g>
<!-- MonoBehaviour -->
<g id="node3" class="node"><title>MonoBehaviour</title>
<ellipse fill="none" stroke="black" cx="286.447" cy="-162" rx="69.5877" ry="18"/>
<text text-anchor="middle" x="286.447" y="-158.3" font-family="Times New Roman,serif" font-size="14.00">MonoBehaviour</text>
</g>
<!-- IDealsDamage -->
<g id="node4" class="node"><title>IDealsDamage</title>
<ellipse fill="none" stroke="black" stroke-dasharray="5,2" cx="562.447" cy="-234" rx="63.0888" ry="18"/>
<text text-anchor="middle" x="562.447" y="-230.3" font-family="Times New Roman,serif" font-size="14.00">IDealsDamage</text>
</g>
<!-- Timer -->
<g id="node5" class="node"><title>Timer</title>
<ellipse fill="none" stroke="black" cx="69.4469" cy="-90" rx="32.4942" ry="18"/>
<text text-anchor="middle" x="69.4469" y="-86.3" font-family="Times New Roman,serif" font-size="14.00">Timer</text>
</g>
<!-- Timer&#45;&gt;Debug -->
<g id="edge5" class="edge"><title>Timer&#45;&gt;Debug</title>
<path fill="none" stroke="black" d="M61.1524,-72.411C57.0716,-64.2493 52.0571,-54.2203 47.4796,-45.0653"/>
<polygon fill="black" stroke="black" points="50.5277,-43.3352 42.925,-35.9562 44.2667,-46.4658 50.5277,-43.3352"/>
</g>
<!-- Callback -->
<g id="node16" class="node"><title>Callback</title>
<ellipse fill="none" stroke="black" cx="129.447" cy="-18" rx="42.4939" ry="18"/>
<text text-anchor="middle" x="129.447" y="-14.3" font-family="Times New Roman,serif" font-size="14.00">Callback</text>
</g>
<!-- Timer&#45;&gt;Callback -->
<g id="edge4" class="edge"><title>Timer&#45;&gt;Callback</title>
<path fill="none" stroke="black" d="M82.7629,-73.4647C90.3906,-64.5657 100.128,-53.2051 108.735,-43.1644"/>
<polygon fill="black" stroke="black" points="111.482,-45.3376 115.332,-35.4672 106.167,-40.782 111.482,-45.3376"/>
</g>
<!-- SpellBehaviour -->
<g id="node6" class="node"><title>SpellBehaviour</title>
<ellipse fill="none" stroke="black" cx="709.447" cy="-234" rx="65.7887" ry="18"/>
<text text-anchor="middle" x="709.447" y="-230.3" font-family="Times New Roman,serif" font-size="14.00">SpellBehaviour</text>
</g>
<!-- SpellBehaviour&#45;&gt;BasePhysics -->
<g id="edge9" class="edge"><title>SpellBehaviour&#45;&gt;BasePhysics</title>
<path fill="none" stroke="black" d="M690.962,-216.411C680.884,-207.367 668.251,-196.03 657.22,-186.13"/>
<polygon fill="black" stroke="black" points="659.31,-183.303 649.53,-179.228 654.635,-188.512 659.31,-183.303"/>
</g>
<!-- SpellBehaviour&#45;&gt;MonoBehaviour -->
<g id="edge6" class="edge"><title>SpellBehaviour&#45;&gt;MonoBehaviour</title>
<path fill="none" stroke="black" stroke-width="2" d="M661.968,-221.562C652.863,-219.56 643.382,-217.607 634.447,-216 515.731,-194.646 484.278,-200.704 365.447,-180 359.37,-178.941 353.05,-177.745 346.75,-176.489"/>
<polygon fill="black" stroke="black" stroke-width="2" points="347.402,-173.05 336.904,-174.478 346.001,-179.908 347.402,-173.05"/>
</g>
<!-- TimerCollection -->
<g id="node11" class="node"><title>TimerCollection</title>
<ellipse fill="none" stroke="black" cx="129.447" cy="-162" rx="69.5877" ry="18"/>
<text text-anchor="middle" x="129.447" y="-158.3" font-family="Times New Roman,serif" font-size="14.00">TimerCollection</text>
</g>
<!-- SpellBehaviour&#45;&gt;TimerCollection -->
<g id="edge11" class="edge"><title>SpellBehaviour&#45;&gt;TimerCollection</title>
<path fill="none" stroke="black" d="M662.429,-221.294C653.196,-219.293 643.551,-217.409 634.447,-216 446.235,-186.879 395.778,-208.339 207.447,-180 201.331,-179.08 194.977,-177.964 188.654,-176.748"/>
<polygon fill="black" stroke="black" points="189.275,-173.303 178.782,-174.77 187.899,-180.167 189.275,-173.303"/>
</g>
<!-- ICollisionSystemParticipator -->
<g id="node12" class="node"><title>ICollisionSystemParticipator</title>
<ellipse fill="none" stroke="black" stroke-dasharray="5,2" cx="1184.45" cy="-162" rx="114.28" ry="18"/>
<text text-anchor="middle" x="1184.45" y="-158.3" font-family="Times New Roman,serif" font-size="14.00">ICollisionSystemParticipator</text>
</g>
<!-- SpellBehaviour&#45;&gt;ICollisionSystemParticipator -->
<g id="edge8" class="edge"><title>SpellBehaviour&#45;&gt;ICollisionSystemParticipator</title>
<path fill="none" stroke="black" stroke-dasharray="5,2" d="M765.801,-224.695C846.855,-212.75 997.213,-190.592 1093.95,-176.337"/>
<polygon fill="black" stroke="black" points="1094.63,-179.774 1104.01,-174.854 1093.61,-172.849 1094.63,-179.774"/>
</g>
<!-- ConvertToInterface -->
<g id="node15" class="node"><title>ConvertToInterface</title>
<ellipse fill="#e5e5e5" stroke="black" cx="788.447" cy="-162" rx="82.5854" ry="18"/>
<text text-anchor="middle" x="788.447" y="-158.3" font-family="Times New Roman,serif" font-size="14.00">ConvertToInterface</text>
</g>
<!-- SpellBehaviour&#45;&gt;ConvertToInterface -->
<g id="edge10" class="edge"><title>SpellBehaviour&#45;&gt;ConvertToInterface</title>
<path fill="none" stroke="black" d="M728.169,-216.411C738.229,-207.497 750.803,-196.355 761.86,-186.558"/>
<polygon fill="black" stroke="black" points="764.422,-188.964 769.586,-179.713 759.78,-183.725 764.422,-188.964"/>
</g>
<!-- WrapperTransform -->
<g id="node17" class="node"><title>WrapperTransform</title>
<ellipse fill="none" stroke="black" cx="970.447" cy="-162" rx="81.4863" ry="18"/>
<text text-anchor="middle" x="970.447" y="-158.3" font-family="Times New Roman,serif" font-size="14.00">WrapperTransform</text>
</g>
<!-- SpellBehaviour&#45;&gt;WrapperTransform -->
<g id="edge13" class="edge"><title>SpellBehaviour&#45;&gt;WrapperTransform</title>
<path fill="none" stroke="black" d="M754.612,-220.887C797.927,-209.27 863.579,-191.662 911.1,-178.917"/>
<polygon fill="black" stroke="black" points="912.199,-182.246 920.951,-176.275 910.385,-175.485 912.199,-182.246"/>
</g>
<!-- WrapperRigidbody2d -->
<g id="node18" class="node"><title>WrapperRigidbody2d</title>
<ellipse fill="none" stroke="black" cx="465.447" cy="-162" rx="90.9839" ry="18"/>
<text text-anchor="middle" x="465.447" y="-158.3" font-family="Times New Roman,serif" font-size="14.00">WrapperRigidbody2d</text>
</g>
<!-- SpellBehaviour&#45;&gt;WrapperRigidbody2d -->
<g id="edge12" class="edge"><title>SpellBehaviour&#45;&gt;WrapperRigidbody2d</title>
<path fill="none" stroke="black" d="M665.825,-220.485C626.446,-209.188 568.176,-192.471 524.61,-179.973"/>
<polygon fill="black" stroke="black" points="525.569,-176.607 514.992,-177.214 523.639,-183.336 525.569,-176.607"/>
</g>
<!-- ISpell -->
<g id="node20" class="node"><title>ISpell</title>
<ellipse fill="none" stroke="black" stroke-dasharray="5,2" cx="1348.45" cy="-162" rx="31.6951" ry="18"/>
<text text-anchor="middle" x="1348.45" y="-158.3" font-family="Times New Roman,serif" font-size="14.00">ISpell</text>
</g>
<!-- SpellBehaviour&#45;&gt;ISpell -->
<g id="edge7" class="edge"><title>SpellBehaviour&#45;&gt;ISpell</title>
<path fill="none" stroke="black" stroke-dasharray="5,2" d="M775.105,-233.652C886.328,-233.329 1118.16,-226.467 1307.45,-180 1309.94,-179.389 1312.47,-178.65 1314.99,-177.827"/>
<polygon fill="black" stroke="black" points="1316.39,-181.044 1324.58,-174.324 1313.98,-174.47 1316.39,-181.044"/>
</g>
<!-- IFlipX -->
<g id="node7" class="node"><title>IFlipX</title>
<ellipse fill="none" stroke="black" stroke-dasharray="5,2" cx="631.447" cy="-18" rx="34.394" ry="18"/>
<text text-anchor="middle" x="631.447" y="-14.3" font-family="Times New Roman,serif" font-size="14.00">IFlipX</text>
</g>
<!-- ICollisionSystemParticipatorWrapper -->
<g id="node8" class="node"><title>ICollisionSystemParticipatorWrapper</title>
<ellipse fill="none" stroke="black" stroke-dasharray="5,2" cx="1184.45" cy="-90" rx="146.774" ry="18"/>
<text text-anchor="middle" x="1184.45" y="-86.3" font-family="Times New Roman,serif" font-size="14.00">ICollisionSystemParticipatorWrapper</text>
</g>
<!-- ICollisionSystemParticipatorWrapper&#45;&gt;ICollisionSystemParticipator -->
<g id="edge14" class="edge"><title>ICollisionSystemParticipatorWrapper&#45;&gt;ICollisionSystemParticipator</title>
<path fill="none" stroke="black" d="M1190.34,-108.104C1191.15,-115.791 1191.38,-125.054 1191.05,-133.665"/>
<polygon fill="black" stroke="black" points="1187.56,-133.48 1190.36,-143.697 1194.54,-133.96 1187.56,-133.48"/>
</g>
<!-- IBasePhysics&#45;&gt;IFlipX -->
<g id="edge15" class="edge"><title>IBasePhysics&#45;&gt;IFlipX</title>
<path fill="none" stroke="black" stroke-dasharray="5,2" d="M631.447,-71.6966C631.447,-63.9827 631.447,-54.7125 631.447,-46.1124"/>
<polygon fill="black" stroke="black" points="634.947,-46.1043 631.447,-36.1043 627.947,-46.1044 634.947,-46.1043"/>
</g>
<!-- TimerCollection&#45;&gt;Timer -->
<g id="edge16" class="edge"><title>TimerCollection&#45;&gt;Timer</title>
<path fill="none" stroke="black" d="M114.923,-144.055C107.336,-135.204 97.9309,-124.231 89.6462,-114.566"/>
<polygon fill="black" stroke="black" points="92.1804,-112.144 83.015,-106.829 86.8656,-116.7 92.1804,-112.144"/>
</g>
<!-- TimerCollection&#45;&gt;Callback -->
<g id="edge17" class="edge"><title>TimerCollection&#45;&gt;Callback</title>
<path fill="none" stroke="black" d="M129.447,-143.871C129.447,-119.67 129.447,-75.2108 129.447,-46.3932"/>
<polygon fill="black" stroke="black" points="132.947,-46.1892 129.447,-36.1893 125.947,-46.1893 132.947,-46.1892"/>
</g>
<!-- TimerNotFoundException -->
<g id="node21" class="node"><title>TimerNotFoundException</title>
<ellipse fill="none" stroke="black" cx="264.447" cy="-90" rx="106.681" ry="18"/>
<text text-anchor="middle" x="264.447" y="-86.3" font-family="Times New Roman,serif" font-size="14.00">TimerNotFoundException</text>
</g>
<!-- TimerCollection&#45;&gt;TimerNotFoundException -->
<g id="edge18" class="edge"><title>TimerCollection&#45;&gt;TimerNotFoundException</title>
<path fill="none" stroke="black" d="M159.073,-145.638C178.14,-135.752 203.167,-122.775 224.046,-111.949"/>
<polygon fill="black" stroke="black" points="225.743,-115.011 233.01,-107.301 222.521,-108.797 225.743,-115.011"/>
</g>
<!-- ICollisionSystemParticipator&#45;&gt;ICollisionSystemParticipatorWrapper -->
<g id="edge20" class="edge"><title>ICollisionSystemParticipator&#45;&gt;ICollisionSystemParticipatorWrapper</title>
<path fill="none" stroke="black" stroke-dasharray="5,2" d="M1178.53,-143.697C1177.74,-135.983 1177.51,-126.712 1177.85,-118.112"/>
<polygon fill="black" stroke="black" points="1181.35,-118.324 1178.55,-108.104 1174.36,-117.836 1181.35,-118.324"/>
</g>
<!-- ISystemParticipator -->
<g id="node19" class="node"><title>ISystemParticipator</title>
<ellipse fill="none" stroke="black" stroke-dasharray="5,2" cx="937.447" cy="-90" rx="82.5854" ry="18"/>
<text text-anchor="middle" x="937.447" y="-86.3" font-family="Times New Roman,serif" font-size="14.00">ISystemParticipator</text>
</g>
<!-- ICollisionSystemParticipator&#45;&gt;ISystemParticipator -->
<g id="edge19" class="edge"><title>ICollisionSystemParticipator&#45;&gt;ISystemParticipator</title>
<path fill="none" stroke="black" stroke-dasharray="5,2" d="M1131.46,-145.983C1091.43,-134.64 1036.55,-119.085 995.367,-107.415"/>
<polygon fill="black" stroke="black" points="996.317,-104.046 985.741,-104.687 994.408,-110.781 996.317,-104.046"/>
</g>
<!-- Exception -->
<g id="node14" class="node"><title>Exception</title>
<ellipse fill="none" stroke="black" cx="264.447" cy="-18" rx="47.3916" ry="18"/>
<text text-anchor="middle" x="264.447" y="-14.3" font-family="Times New Roman,serif" font-size="14.00">Exception</text>
</g>
<!-- WrapperTransform&#45;&gt;ITransform -->
<g id="edge21" class="edge"><title>WrapperTransform&#45;&gt;ITransform</title>
<path fill="none" stroke="black" stroke-dasharray="5,2" d="M929.149,-146.326C896.597,-134.759 851.289,-118.66 817.938,-106.809"/>
<polygon fill="black" stroke="black" points="819.03,-103.483 808.435,-103.432 816.686,-110.079 819.03,-103.483"/>
</g>
<!-- WrapperRigidbody2d&#45;&gt;IRigidBody2d -->
<g id="edge22" class="edge"><title>WrapperRigidbody2d&#45;&gt;IRigidBody2d</title>
<path fill="none" stroke="black" stroke-dasharray="5,2" d="M468.66,-143.697C470.093,-135.983 471.815,-126.712 473.412,-118.112"/>
<polygon fill="black" stroke="black" points="476.886,-118.575 475.27,-108.104 470.003,-117.297 476.886,-118.575"/>
</g>
<!-- TimerNotFoundException&#45;&gt;Exception -->
<g id="edge23" class="edge"><title>TimerNotFoundException&#45;&gt;Exception</title>
<path fill="none" stroke="black" stroke-width="2" d="M264.447,-71.6966C264.447,-63.9827 264.447,-54.7125 264.447,-46.1124"/>
<polygon fill="black" stroke="black" stroke-width="2" points="267.947,-46.1043 264.447,-36.1043 260.947,-46.1044 267.947,-46.1043"/>
</g>
<!-- BulletRingBehaviour -->
<g id="node22" class="node"><title>BulletRingBehaviour</title>
<ellipse fill="none" stroke="black" cx="635.447" cy="-306" rx="85.2851" ry="18"/>
<text text-anchor="middle" x="635.447" y="-302.3" font-family="Times New Roman,serif" font-size="14.00">BulletRingBehaviour</text>
</g>
<!-- BulletRingBehaviour&#45;&gt;IDealsDamage -->
<g id="edge25" class="edge"><title>BulletRingBehaviour&#45;&gt;IDealsDamage</title>
<path fill="none" stroke="black" stroke-dasharray="5,2" d="M617.776,-288.055C608.63,-279.285 597.312,-268.432 587.3,-258.831"/>
<polygon fill="black" stroke="black" points="589.596,-256.184 579.955,-251.789 584.751,-261.236 589.596,-256.184"/>
</g>
<!-- BulletRingBehaviour&#45;&gt;SpellBehaviour -->
<g id="edge24" class="edge"><title>BulletRingBehaviour&#45;&gt;SpellBehaviour</title>
<path fill="none" stroke="black" stroke-width="2" d="M653.36,-288.055C662.7,-279.22 674.274,-268.272 684.478,-258.62"/>
<polygon fill="black" stroke="black" stroke-width="2" points="687.094,-260.962 691.954,-251.547 682.284,-255.877 687.094,-260.962"/>
</g>
</g>
</svg>
