<?xml version="1.0" encoding="UTF-8" standalone="no"?>
<!DOCTYPE svg PUBLIC "-//W3C//DTD SVG 1.1//EN"
 "http://www.w3.org/Graphics/SVG/1.1/DTD/svg11.dtd">
<!-- Generated by graphviz version 2.38.0 (20140413.2041)
 -->
<!-- Title: %3 Pages: 1 -->
<svg width="244pt" height="116pt"
 viewBox="0.00 0.00 243.54 116.00" xmlns="http://www.w3.org/2000/svg" xmlns:xlink="http://www.w3.org/1999/xlink">
<g id="graph0" class="graph" transform="scale(1 1) rotate(0) translate(4 112)">
<title>%3</title>
<polygon fill="white" stroke="none" points="-4,4 -4,-112 239.54,-112 239.54,4 -4,4"/>
<!-- CameraFollowBehaviour -->
<g id="node1" class="node"><title>CameraFollowBehaviour</title>
<ellipse fill="none" stroke="black" cx="132.544" cy="-90" rx="100.983" ry="18"/>
<text text-anchor="middle" x="132.544" y="-86.3" font-family="Times New Roman,serif" font-size="14.00">CameraFollowBehaviour</text>
</g>
<!-- MonoBehaviour -->
<g id="node2" class="node"><title>MonoBehaviour</title>
<ellipse fill="none" stroke="black" cx="69.5438" cy="-18" rx="69.5877" ry="18"/>
<text text-anchor="middle" x="69.5438" y="-14.3" font-family="Times New Roman,serif" font-size="14.00">MonoBehaviour</text>
</g>
<!-- CameraFollowBehaviour&#45;&gt;MonoBehaviour -->
<g id="edge1" class="edge"><title>CameraFollowBehaviour&#45;&gt;MonoBehaviour</title>
<path fill="none" stroke="black" stroke-width="2" d="M117.293,-72.055C109.555,-63.4567 100.015,-52.8566 91.5015,-43.3974"/>
<polygon fill="black" stroke="black" stroke-width="2" points="93.9451,-40.8806 84.6539,-35.789 88.7421,-45.5634 93.9451,-40.8806"/>
</g>
<!-- NotNull -->
<g id="node3" class="node"><title>NotNull</title>
<ellipse fill="#e5e5e5" stroke="black" cx="196.544" cy="-18" rx="38.9931" ry="18"/>
<text text-anchor="middle" x="196.544" y="-14.3" font-family="Times New Roman,serif" font-size="14.00">NotNull</text>
</g>
<!-- CameraFollowBehaviour&#45;&gt;NotNull -->
<g id="edge2" class="edge"><title>CameraFollowBehaviour&#45;&gt;NotNull</title>
<path fill="none" stroke="black" d="M148.036,-72.055C156.21,-63.1153 166.362,-52.0116 175.263,-42.2762"/>
<polygon fill="black" stroke="black" points="177.907,-44.5714 182.071,-34.8294 172.74,-39.848 177.907,-44.5714"/>
</g>
</g>
</svg>
