<?xml version="1.0" encoding="UTF-8" standalone="no"?>
<!DOCTYPE svg PUBLIC "-//W3C//DTD SVG 1.1//EN"
 "http://www.w3.org/Graphics/SVG/1.1/DTD/svg11.dtd">
<!-- Generated by graphviz version 2.38.0 (20140413.2041)
 -->
<!-- Title: %3 Pages: 1 -->
<svg width="244pt" height="116pt"
 viewBox="0.00 0.00 243.54 116.00" xmlns="http://www.w3.org/2000/svg" xmlns:xlink="http://www.w3.org/1999/xlink">
<g id="graph0" class="graph" transform="scale(1 1) rotate(0) translate(4 112)">
<title>%3</title>
<polygon fill="white" stroke="none" points="-4,4 -4,-112 239.54,-112 239.54,4 -4,4"/>
<!-- NotNull -->
<g id="node1" class="node"><title>NotNull</title>
<ellipse fill="#e5e5e5" stroke="black" cx="38.9965" cy="-18" rx="38.9931" ry="18"/>
<text text-anchor="middle" x="38.9965" y="-14.3" font-family="Times New Roman,serif" font-size="14.00">NotNull</text>
</g>
<!-- MonoBehaviour -->
<g id="node2" class="node"><title>MonoBehaviour</title>
<ellipse fill="none" stroke="black" cx="165.997" cy="-18" rx="69.5877" ry="18"/>
<text text-anchor="middle" x="165.997" y="-14.3" font-family="Times New Roman,serif" font-size="14.00">MonoBehaviour</text>
</g>
<!-- CameraFollowBehaviour -->
<g id="node3" class="node"><title>CameraFollowBehaviour</title>
<ellipse fill="none" stroke="black" cx="101.997" cy="-90" rx="100.983" ry="18"/>
<text text-anchor="middle" x="101.997" y="-86.3" font-family="Times New Roman,serif" font-size="14.00">CameraFollowBehaviour</text>
</g>
<!-- CameraFollowBehaviour&#45;&gt;NotNull -->
<g id="edge2" class="edge"><title>CameraFollowBehaviour&#45;&gt;NotNull</title>
<path fill="none" stroke="black" d="M86.746,-72.055C78.7003,-63.1153 68.707,-52.0116 59.9451,-42.2762"/>
<polygon fill="black" stroke="black" points="62.5342,-39.921 53.243,-34.8294 57.3312,-44.6038 62.5342,-39.921"/>
</g>
<!-- CameraFollowBehaviour&#45;&gt;MonoBehaviour -->
<g id="edge1" class="edge"><title>CameraFollowBehaviour&#45;&gt;MonoBehaviour</title>
<path fill="none" stroke="black" stroke-width="2" d="M117.489,-72.055C125.35,-63.4567 135.042,-52.8566 143.69,-43.3974"/>
<polygon fill="black" stroke="black" stroke-width="2" points="146.482,-45.531 150.647,-35.789 141.316,-40.8076 146.482,-45.531"/>
</g>
</g>
</svg>
