<?xml version="1.0" encoding="UTF-8" standalone="no"?>
<!DOCTYPE svg PUBLIC "-//W3C//DTD SVG 1.1//EN"
 "http://www.w3.org/Graphics/SVG/1.1/DTD/svg11.dtd">
<!-- Generated by graphviz version 2.38.0 (20140413.2041)
 -->
<!-- Title: %3 Pages: 1 -->
<svg width="467pt" height="260pt"
 viewBox="0.00 0.00 467.34 260.00" xmlns="http://www.w3.org/2000/svg" xmlns:xlink="http://www.w3.org/1999/xlink">
<g id="graph0" class="graph" transform="scale(1 1) rotate(0) translate(4 256)">
<title>%3</title>
<polygon fill="white" stroke="none" points="-4,4 -4,-256 463.337,-256 463.337,4 -4,4"/>
<!-- MonoBehaviour -->
<g id="node1" class="node"><title>MonoBehaviour</title>
<ellipse fill="none" stroke="black" cx="69.5438" cy="-90" rx="69.5877" ry="18"/>
<text text-anchor="middle" x="69.5438" y="-86.3" font-family="Times New Roman,serif" font-size="14.00">MonoBehaviour</text>
</g>
<!-- BarBehaviour -->
<g id="node2" class="node"><title>BarBehaviour</title>
<ellipse fill="none" stroke="black" cx="139.544" cy="-162" rx="59.5901" ry="18"/>
<text text-anchor="middle" x="139.544" y="-158.3" font-family="Times New Roman,serif" font-size="14.00">BarBehaviour</text>
</g>
<!-- BarBehaviour&#45;&gt;MonoBehaviour -->
<g id="edge1" class="edge"><title>BarBehaviour&#45;&gt;MonoBehaviour</title>
<path fill="none" stroke="black" stroke-width="2" d="M122.955,-144.411C114.192,-135.648 103.276,-124.732 93.6008,-115.057"/>
<polygon fill="black" stroke="black" stroke-width="2" points="96.046,-112.552 86.5,-107.956 91.0963,-117.502 96.046,-112.552"/>
</g>
<!-- IBarDisplay -->
<g id="node7" class="node"><title>IBarDisplay</title>
<ellipse fill="none" stroke="black" stroke-dasharray="5,2" cx="210.544" cy="-90" rx="53.8905" ry="18"/>
<text text-anchor="middle" x="210.544" y="-86.3" font-family="Times New Roman,serif" font-size="14.00">IBarDisplay</text>
</g>
<!-- BarBehaviour&#45;&gt;IBarDisplay -->
<g id="edge2" class="edge"><title>BarBehaviour&#45;&gt;IBarDisplay</title>
<path fill="none" stroke="black" stroke-dasharray="5,2" d="M156.37,-144.411C165.389,-135.519 176.656,-124.411 186.575,-114.631"/>
<polygon fill="black" stroke="black" points="189.175,-116.983 193.839,-107.47 184.26,-111.998 189.175,-116.983"/>
</g>
<!-- NotNull -->
<g id="node3" class="node"><title>NotNull</title>
<ellipse fill="#e5e5e5" stroke="black" cx="256.544" cy="-162" rx="38.9931" ry="18"/>
<text text-anchor="middle" x="256.544" y="-158.3" font-family="Times New Roman,serif" font-size="14.00">NotNull</text>
</g>
<!-- ICanBeActivated -->
<g id="node4" class="node"><title>ICanBeActivated</title>
<ellipse fill="none" stroke="black" stroke-dasharray="5,2" cx="386.544" cy="-162" rx="72.5877" ry="18"/>
<text text-anchor="middle" x="386.544" y="-158.3" font-family="Times New Roman,serif" font-size="14.00">ICanBeActivated</text>
</g>
<!-- IFlipX -->
<g id="node5" class="node"><title>IFlipX</title>
<ellipse fill="none" stroke="black" stroke-dasharray="5,2" cx="210.544" cy="-18" rx="34.394" ry="18"/>
<text text-anchor="middle" x="210.544" y="-14.3" font-family="Times New Roman,serif" font-size="14.00">IFlipX</text>
</g>
<!-- ChargeEffectBehaviour -->
<g id="node6" class="node"><title>ChargeEffectBehaviour</title>
<ellipse fill="none" stroke="black" cx="256.544" cy="-234" rx="94.7833" ry="18"/>
<text text-anchor="middle" x="256.544" y="-230.3" font-family="Times New Roman,serif" font-size="14.00">ChargeEffectBehaviour</text>
</g>
<!-- ChargeEffectBehaviour&#45;&gt;BarBehaviour -->
<g id="edge3" class="edge"><title>ChargeEffectBehaviour&#45;&gt;BarBehaviour</title>
<path fill="none" stroke="black" stroke-width="2" d="M229.113,-216.588C212.663,-206.746 191.596,-194.142 174.027,-183.631"/>
<polygon fill="black" stroke="black" stroke-width="2" points="175.579,-180.481 165.201,-178.35 171.985,-186.488 175.579,-180.481"/>
</g>
<!-- ChargeEffectBehaviour&#45;&gt;NotNull -->
<g id="edge5" class="edge"><title>ChargeEffectBehaviour&#45;&gt;NotNull</title>
<path fill="none" stroke="black" d="M256.544,-215.697C256.544,-207.983 256.544,-198.712 256.544,-190.112"/>
<polygon fill="black" stroke="black" points="260.044,-190.104 256.544,-180.104 253.044,-190.104 260.044,-190.104"/>
</g>
<!-- ChargeEffectBehaviour&#45;&gt;ICanBeActivated -->
<g id="edge4" class="edge"><title>ChargeEffectBehaviour&#45;&gt;ICanBeActivated</title>
<path fill="none" stroke="black" stroke-dasharray="5,2" d="M286.695,-216.765C305.085,-206.863 328.758,-194.116 348.437,-183.519"/>
<polygon fill="black" stroke="black" points="350.305,-186.488 357.45,-178.666 346.986,-180.325 350.305,-186.488"/>
</g>
<!-- IBarDisplay&#45;&gt;IFlipX -->
<g id="edge6" class="edge"><title>IBarDisplay&#45;&gt;IFlipX</title>
<path fill="none" stroke="black" stroke-dasharray="5,2" d="M210.544,-71.6966C210.544,-63.9827 210.544,-54.7125 210.544,-46.1124"/>
<polygon fill="black" stroke="black" points="214.044,-46.1043 210.544,-36.1043 207.044,-46.1044 214.044,-46.1043"/>
</g>
</g>
</svg>
