<?xml version="1.0" encoding="UTF-8" standalone="no"?>
<!DOCTYPE svg PUBLIC "-//W3C//DTD SVG 1.1//EN"
 "http://www.w3.org/Graphics/SVG/1.1/DTD/svg11.dtd">
<!-- Generated by graphviz version 2.38.0 (20140413.2041)
 -->
<!-- Title: %3 Pages: 1 -->
<svg width="476pt" height="260pt"
 viewBox="0.00 0.00 476.13 260.00" xmlns="http://www.w3.org/2000/svg" xmlns:xlink="http://www.w3.org/1999/xlink">
<g id="graph0" class="graph" transform="scale(1 1) rotate(0) translate(4 256)">
<title>%3</title>
<polygon fill="white" stroke="none" points="-4,4 -4,-256 472.134,-256 472.134,4 -4,4"/>
<!-- Exception -->
<g id="node1" class="node"><title>Exception</title>
<ellipse fill="none" stroke="black" cx="361.544" cy="-18" rx="47.3916" ry="18"/>
<text text-anchor="middle" x="361.544" y="-14.3" font-family="Times New Roman,serif" font-size="14.00">Exception</text>
</g>
<!-- Debug -->
<g id="node2" class="node"><title>Debug</title>
<ellipse fill="#e5e5e5" stroke="black" cx="131.544" cy="-18" rx="34.394" ry="18"/>
<text text-anchor="middle" x="131.544" y="-14.3" font-family="Times New Roman,serif" font-size="14.00">Debug</text>
</g>
<!-- MonoBehaviour -->
<g id="node3" class="node"><title>MonoBehaviour</title>
<ellipse fill="none" stroke="black" cx="69.5438" cy="-162" rx="69.5877" ry="18"/>
<text text-anchor="middle" x="69.5438" y="-158.3" font-family="Times New Roman,serif" font-size="14.00">MonoBehaviour</text>
</g>
<!-- Timer -->
<g id="node4" class="node"><title>Timer</title>
<ellipse fill="none" stroke="black" cx="166.544" cy="-90" rx="32.4942" ry="18"/>
<text text-anchor="middle" x="166.544" y="-86.3" font-family="Times New Roman,serif" font-size="14.00">Timer</text>
</g>
<!-- Timer&#45;&gt;Debug -->
<g id="edge2" class="edge"><title>Timer&#45;&gt;Debug</title>
<path fill="none" stroke="black" d="M158.249,-72.411C154.168,-64.2493 149.154,-54.2203 144.576,-45.0653"/>
<polygon fill="black" stroke="black" points="147.625,-43.3352 140.022,-35.9562 141.364,-46.4658 147.625,-43.3352"/>
</g>
<!-- Callback -->
<g id="node7" class="node"><title>Callback</title>
<ellipse fill="#e5e5e5" stroke="black" cx="226.544" cy="-18" rx="42.4939" ry="18"/>
<text text-anchor="middle" x="226.544" y="-14.3" font-family="Times New Roman,serif" font-size="14.00">Callback</text>
</g>
<!-- Timer&#45;&gt;Callback -->
<g id="edge1" class="edge"><title>Timer&#45;&gt;Callback</title>
<path fill="none" stroke="black" d="M179.86,-73.4647C187.488,-64.5657 197.225,-53.2051 205.831,-43.1644"/>
<polygon fill="black" stroke="black" points="208.579,-45.3376 212.429,-35.4672 203.264,-40.782 208.579,-45.3376"/>
</g>
<!-- TimerCollection -->
<g id="node5" class="node"><title>TimerCollection</title>
<ellipse fill="none" stroke="black" cx="226.544" cy="-162" rx="69.5877" ry="18"/>
<text text-anchor="middle" x="226.544" y="-158.3" font-family="Times New Roman,serif" font-size="14.00">TimerCollection</text>
</g>
<!-- TimerCollection&#45;&gt;Timer -->
<g id="edge3" class="edge"><title>TimerCollection&#45;&gt;Timer</title>
<path fill="none" stroke="black" d="M212.02,-144.055C204.433,-135.204 195.028,-124.231 186.743,-114.566"/>
<polygon fill="black" stroke="black" points="189.277,-112.144 180.112,-106.829 183.962,-116.7 189.277,-112.144"/>
</g>
<!-- TimerCollection&#45;&gt;Callback -->
<g id="edge4" class="edge"><title>TimerCollection&#45;&gt;Callback</title>
<path fill="none" stroke="black" d="M226.544,-143.871C226.544,-119.67 226.544,-75.2108 226.544,-46.3932"/>
<polygon fill="black" stroke="black" points="230.044,-46.1892 226.544,-36.1893 223.044,-46.1893 230.044,-46.1892"/>
</g>
<!-- TimerNotFoundException -->
<g id="node9" class="node"><title>TimerNotFoundException</title>
<ellipse fill="none" stroke="black" cx="361.544" cy="-90" rx="106.681" ry="18"/>
<text text-anchor="middle" x="361.544" y="-86.3" font-family="Times New Roman,serif" font-size="14.00">TimerNotFoundException</text>
</g>
<!-- TimerCollection&#45;&gt;TimerNotFoundException -->
<g id="edge5" class="edge"><title>TimerCollection&#45;&gt;TimerNotFoundException</title>
<path fill="none" stroke="black" d="M256.17,-145.638C275.236,-135.752 300.263,-122.775 321.143,-111.949"/>
<polygon fill="black" stroke="black" points="322.84,-115.011 330.107,-107.301 319.618,-108.797 322.84,-115.011"/>
</g>
<!-- IFadeIn -->
<g id="node6" class="node"><title>IFadeIn</title>
<ellipse fill="none" stroke="black" stroke-dasharray="5,2" cx="353.544" cy="-162" rx="38.9931" ry="18"/>
<text text-anchor="middle" x="353.544" y="-158.3" font-family="Times New Roman,serif" font-size="14.00">IFadeIn</text>
</g>
<!-- FadeInBehaviour -->
<g id="node8" class="node"><title>FadeInBehaviour</title>
<ellipse fill="none" stroke="black" cx="226.544" cy="-234" rx="72.5877" ry="18"/>
<text text-anchor="middle" x="226.544" y="-230.3" font-family="Times New Roman,serif" font-size="14.00">FadeInBehaviour</text>
</g>
<!-- FadeInBehaviour&#45;&gt;MonoBehaviour -->
<g id="edge6" class="edge"><title>FadeInBehaviour&#45;&gt;MonoBehaviour</title>
<path fill="none" stroke="black" stroke-width="2" d="M192.863,-217.983C169.295,-207.475 137.619,-193.352 112.273,-182.051"/>
<polygon fill="black" stroke="black" stroke-width="2" points="113.457,-178.747 102.899,-177.872 110.607,-185.141 113.457,-178.747"/>
</g>
<!-- FadeInBehaviour&#45;&gt;TimerCollection -->
<g id="edge8" class="edge"><title>FadeInBehaviour&#45;&gt;TimerCollection</title>
<path fill="none" stroke="black" d="M226.544,-215.697C226.544,-207.983 226.544,-198.712 226.544,-190.112"/>
<polygon fill="black" stroke="black" points="230.044,-190.104 226.544,-180.104 223.044,-190.104 230.044,-190.104"/>
</g>
<!-- FadeInBehaviour&#45;&gt;IFadeIn -->
<g id="edge7" class="edge"><title>FadeInBehaviour&#45;&gt;IFadeIn</title>
<path fill="none" stroke="black" stroke-dasharray="5,2" d="M255.045,-217.291C274.451,-206.594 300.2,-192.402 320.504,-181.211"/>
<polygon fill="black" stroke="black" points="322.339,-184.196 329.407,-176.304 318.96,-178.065 322.339,-184.196"/>
</g>
<!-- TimerNotFoundException&#45;&gt;Exception -->
<g id="edge9" class="edge"><title>TimerNotFoundException&#45;&gt;Exception</title>
<path fill="none" stroke="black" stroke-width="2" d="M361.544,-71.6966C361.544,-63.9827 361.544,-54.7125 361.544,-46.1124"/>
<polygon fill="black" stroke="black" stroke-width="2" points="365.044,-46.1043 361.544,-36.1043 358.044,-46.1044 365.044,-46.1043"/>
</g>
</g>
</svg>
