<?xml version="1.0" encoding="UTF-8" standalone="no"?>
<!DOCTYPE svg PUBLIC "-//W3C//DTD SVG 1.1//EN"
 "http://www.w3.org/Graphics/SVG/1.1/DTD/svg11.dtd">
<!-- Generated by graphviz version 2.38.0 (20140413.2041)
 -->
<!-- Title: %3 Pages: 1 -->
<svg width="460pt" height="260pt"
 viewBox="0.00 0.00 460.44 260.00" xmlns="http://www.w3.org/2000/svg" xmlns:xlink="http://www.w3.org/1999/xlink">
<g id="graph0" class="graph" transform="scale(1 1) rotate(0) translate(4 256)">
<title>%3</title>
<polygon fill="white" stroke="none" points="-4,4 -4,-256 456.443,-256 456.443,4 -4,4"/>
<!-- Timer -->
<g id="node1" class="node"><title>Timer</title>
<ellipse fill="none" stroke="black" cx="69.4469" cy="-90" rx="32.4942" ry="18"/>
<text text-anchor="middle" x="69.4469" y="-86.3" font-family="Times New Roman,serif" font-size="14.00">Timer</text>
</g>
<!-- Debug -->
<g id="node3" class="node"><title>Debug</title>
<ellipse fill="#e5e5e5" stroke="black" cx="34.4469" cy="-18" rx="34.394" ry="18"/>
<text text-anchor="middle" x="34.4469" y="-14.3" font-family="Times New Roman,serif" font-size="14.00">Debug</text>
</g>
<!-- Timer&#45;&gt;Debug -->
<g id="edge2" class="edge"><title>Timer&#45;&gt;Debug</title>
<path fill="none" stroke="black" d="M61.1524,-72.411C57.0716,-64.2493 52.0571,-54.2203 47.4796,-45.0653"/>
<polygon fill="black" stroke="black" points="50.5277,-43.3352 42.925,-35.9562 44.2667,-46.4658 50.5277,-43.3352"/>
</g>
<!-- Callback -->
<g id="node5" class="node"><title>Callback</title>
<ellipse fill="#e5e5e5" stroke="black" cx="129.447" cy="-18" rx="42.4939" ry="18"/>
<text text-anchor="middle" x="129.447" y="-14.3" font-family="Times New Roman,serif" font-size="14.00">Callback</text>
</g>
<!-- Timer&#45;&gt;Callback -->
<g id="edge1" class="edge"><title>Timer&#45;&gt;Callback</title>
<path fill="none" stroke="black" d="M82.7629,-73.4647C90.3906,-64.5657 100.128,-53.2051 108.735,-43.1644"/>
<polygon fill="black" stroke="black" points="111.482,-45.3376 115.332,-35.4672 106.167,-40.782 111.482,-45.3376"/>
</g>
<!-- Exception -->
<g id="node2" class="node"><title>Exception</title>
<ellipse fill="none" stroke="black" cx="264.447" cy="-18" rx="47.3916" ry="18"/>
<text text-anchor="middle" x="264.447" y="-14.3" font-family="Times New Roman,serif" font-size="14.00">Exception</text>
</g>
<!-- TimerCollection -->
<g id="node4" class="node"><title>TimerCollection</title>
<ellipse fill="none" stroke="black" cx="129.447" cy="-162" rx="69.5877" ry="18"/>
<text text-anchor="middle" x="129.447" y="-158.3" font-family="Times New Roman,serif" font-size="14.00">TimerCollection</text>
</g>
<!-- TimerCollection&#45;&gt;Timer -->
<g id="edge3" class="edge"><title>TimerCollection&#45;&gt;Timer</title>
<path fill="none" stroke="black" d="M114.923,-144.055C107.336,-135.204 97.9309,-124.231 89.6462,-114.566"/>
<polygon fill="black" stroke="black" points="92.1804,-112.144 83.015,-106.829 86.8656,-116.7 92.1804,-112.144"/>
</g>
<!-- TimerCollection&#45;&gt;Callback -->
<g id="edge4" class="edge"><title>TimerCollection&#45;&gt;Callback</title>
<path fill="none" stroke="black" d="M129.447,-143.871C129.447,-119.67 129.447,-75.2108 129.447,-46.3932"/>
<polygon fill="black" stroke="black" points="132.947,-46.1892 129.447,-36.1893 125.947,-46.1893 132.947,-46.1892"/>
</g>
<!-- TimerNotFoundException -->
<g id="node6" class="node"><title>TimerNotFoundException</title>
<ellipse fill="none" stroke="black" cx="264.447" cy="-90" rx="106.681" ry="18"/>
<text text-anchor="middle" x="264.447" y="-86.3" font-family="Times New Roman,serif" font-size="14.00">TimerNotFoundException</text>
</g>
<!-- TimerCollection&#45;&gt;TimerNotFoundException -->
<g id="edge5" class="edge"><title>TimerCollection&#45;&gt;TimerNotFoundException</title>
<path fill="none" stroke="black" d="M159.073,-145.638C178.14,-135.752 203.167,-122.775 224.046,-111.949"/>
<polygon fill="black" stroke="black" points="225.743,-115.011 233.01,-107.301 222.521,-108.797 225.743,-115.011"/>
</g>
<!-- TimerNotFoundException&#45;&gt;Exception -->
<g id="edge6" class="edge"><title>TimerNotFoundException&#45;&gt;Exception</title>
<path fill="none" stroke="black" stroke-width="2" d="M264.447,-71.6966C264.447,-63.9827 264.447,-54.7125 264.447,-46.1124"/>
<polygon fill="black" stroke="black" stroke-width="2" points="267.947,-46.1043 264.447,-36.1043 260.947,-46.1044 267.947,-46.1043"/>
</g>
<!-- FadeInBehaviour -->
<g id="node7" class="node"><title>FadeInBehaviour</title>
<ellipse fill="none" stroke="black" cx="286.447" cy="-234" rx="72.5877" ry="18"/>
<text text-anchor="middle" x="286.447" y="-230.3" font-family="Times New Roman,serif" font-size="14.00">FadeInBehaviour</text>
</g>
<!-- FadeInBehaviour&#45;&gt;TimerCollection -->
<g id="edge9" class="edge"><title>FadeInBehaviour&#45;&gt;TimerCollection</title>
<path fill="none" stroke="black" d="M252.767,-217.983C229.198,-207.475 197.523,-193.352 172.176,-182.051"/>
<polygon fill="black" stroke="black" points="173.36,-178.747 162.802,-177.872 170.51,-185.141 173.36,-178.747"/>
</g>
<!-- MonoBehaviour -->
<g id="node8" class="node"><title>MonoBehaviour</title>
<ellipse fill="none" stroke="black" cx="286.447" cy="-162" rx="69.5877" ry="18"/>
<text text-anchor="middle" x="286.447" y="-158.3" font-family="Times New Roman,serif" font-size="14.00">MonoBehaviour</text>
</g>
<!-- FadeInBehaviour&#45;&gt;MonoBehaviour -->
<g id="edge7" class="edge"><title>FadeInBehaviour&#45;&gt;MonoBehaviour</title>
<path fill="none" stroke="black" stroke-width="2" d="M286.447,-215.697C286.447,-207.983 286.447,-198.712 286.447,-190.112"/>
<polygon fill="black" stroke="black" stroke-width="2" points="289.947,-190.104 286.447,-180.104 282.947,-190.104 289.947,-190.104"/>
</g>
<!-- IFadeIn -->
<g id="node9" class="node"><title>IFadeIn</title>
<ellipse fill="none" stroke="black" stroke-dasharray="5,2" cx="413.447" cy="-162" rx="38.9931" ry="18"/>
<text text-anchor="middle" x="413.447" y="-158.3" font-family="Times New Roman,serif" font-size="14.00">IFadeIn</text>
</g>
<!-- FadeInBehaviour&#45;&gt;IFadeIn -->
<g id="edge8" class="edge"><title>FadeInBehaviour&#45;&gt;IFadeIn</title>
<path fill="none" stroke="black" stroke-dasharray="5,2" d="M314.948,-217.291C334.355,-206.594 360.103,-192.402 380.407,-181.211"/>
<polygon fill="black" stroke="black" points="382.242,-184.196 389.311,-176.304 378.863,-178.065 382.242,-184.196"/>
</g>
</g>
</svg>
