<?xml version="1.0" encoding="UTF-8" standalone="no"?>
<!DOCTYPE svg PUBLIC "-//W3C//DTD SVG 1.1//EN"
 "http://www.w3.org/Graphics/SVG/1.1/DTD/svg11.dtd">
<!-- Generated by graphviz version 2.38.0 (20140413.2041)
 -->
<!-- Title: %3 Pages: 1 -->
<svg width="1263pt" height="332pt"
 viewBox="0.00 0.00 1263.39 332.00" xmlns="http://www.w3.org/2000/svg" xmlns:xlink="http://www.w3.org/1999/xlink">
<g id="graph0" class="graph" transform="scale(1 1) rotate(0) translate(4 328)">
<title>%3</title>
<polygon fill="white" stroke="none" points="-4,4 -4,-328 1259.39,-328 1259.39,4 -4,4"/>
<!-- IEventBus -->
<g id="node1" class="node"><title>IEventBus</title>
<ellipse fill="none" stroke="black" stroke-dasharray="5,2" cx="743.795" cy="-162" rx="48.1917" ry="18"/>
<text text-anchor="middle" x="743.795" y="-158.3" font-family="Times New Roman,serif" font-size="14.00">IEventBus</text>
</g>
<!-- PauseMenuBehaviour -->
<g id="node2" class="node"><title>PauseMenuBehaviour</title>
<ellipse fill="none" stroke="black" cx="339.795" cy="-234" rx="89.0842" ry="18"/>
<text text-anchor="middle" x="339.795" y="-230.3" font-family="Times New Roman,serif" font-size="14.00">PauseMenuBehaviour</text>
</g>
<!-- IPauseMenu -->
<g id="node3" class="node"><title>IPauseMenu</title>
<ellipse fill="none" stroke="black" stroke-dasharray="5,2" cx="327.795" cy="-162" rx="55.7903" ry="18"/>
<text text-anchor="middle" x="327.795" y="-158.3" font-family="Times New Roman,serif" font-size="14.00">IPauseMenu</text>
</g>
<!-- PauseMenuBehaviour&#45;&gt;IPauseMenu -->
<g id="edge2" class="edge"><title>PauseMenuBehaviour&#45;&gt;IPauseMenu</title>
<path fill="none" stroke="black" stroke-dasharray="5,2" d="M336.828,-215.697C335.506,-207.983 333.917,-198.712 332.443,-190.112"/>
<polygon fill="black" stroke="black" points="335.866,-189.369 330.727,-180.104 328.967,-190.552 335.866,-189.369"/>
</g>
<!-- MonoBehaviour -->
<g id="node13" class="node"><title>MonoBehaviour</title>
<ellipse fill="none" stroke="black" cx="468.795" cy="-90" rx="69.5877" ry="18"/>
<text text-anchor="middle" x="468.795" y="-86.3" font-family="Times New Roman,serif" font-size="14.00">MonoBehaviour</text>
</g>
<!-- PauseMenuBehaviour&#45;&gt;MonoBehaviour -->
<g id="edge1" class="edge"><title>PauseMenuBehaviour&#45;&gt;MonoBehaviour</title>
<path fill="none" stroke="black" stroke-width="2" d="M357.329,-216.149C367.824,-205.896 381.312,-192.423 392.795,-180 412.409,-158.78 433.686,-133.669 448.724,-115.54"/>
<polygon fill="black" stroke="black" stroke-width="2" points="451.497,-117.679 455.167,-107.741 446.1,-113.222 451.497,-117.679"/>
</g>
<!-- ICanBeActivated -->
<g id="node20" class="node"><title>ICanBeActivated</title>
<ellipse fill="none" stroke="black" stroke-dasharray="5,2" cx="308.795" cy="-90" rx="72.5877" ry="18"/>
<text text-anchor="middle" x="308.795" y="-86.3" font-family="Times New Roman,serif" font-size="14.00">ICanBeActivated</text>
</g>
<!-- IPauseMenu&#45;&gt;ICanBeActivated -->
<g id="edge3" class="edge"><title>IPauseMenu&#45;&gt;ICanBeActivated</title>
<path fill="none" stroke="black" stroke-dasharray="5,2" d="M323.195,-144.055C321.08,-136.261 318.518,-126.822 316.145,-118.079"/>
<polygon fill="black" stroke="black" points="319.481,-117.009 313.484,-108.275 312.725,-118.843 319.481,-117.009"/>
</g>
<!-- IFlipX -->
<g id="node4" class="node"><title>IFlipX</title>
<ellipse fill="none" stroke="black" stroke-dasharray="5,2" cx="59.7947" cy="-18" rx="34.394" ry="18"/>
<text text-anchor="middle" x="59.7947" y="-14.3" font-family="Times New Roman,serif" font-size="14.00">IFlipX</text>
</g>
<!-- Exception -->
<g id="node5" class="node"><title>Exception</title>
<ellipse fill="none" stroke="black" cx="1148.79" cy="-18" rx="47.3916" ry="18"/>
<text text-anchor="middle" x="1148.79" y="-14.3" font-family="Times New Roman,serif" font-size="14.00">Exception</text>
</g>
<!-- Debug -->
<g id="node6" class="node"><title>Debug</title>
<ellipse fill="#e5e5e5" stroke="black" cx="918.795" cy="-18" rx="34.394" ry="18"/>
<text text-anchor="middle" x="918.795" y="-14.3" font-family="Times New Roman,serif" font-size="14.00">Debug</text>
</g>
<!-- IFadeIn -->
<g id="node7" class="node"><title>IFadeIn</title>
<ellipse fill="none" stroke="black" stroke-dasharray="5,2" cx="848.795" cy="-162" rx="38.9931" ry="18"/>
<text text-anchor="middle" x="848.795" y="-158.3" font-family="Times New Roman,serif" font-size="14.00">IFadeIn</text>
</g>
<!-- NotNull -->
<g id="node8" class="node"><title>NotNull</title>
<ellipse fill="#e5e5e5" stroke="black" cx="214.795" cy="-162" rx="38.9931" ry="18"/>
<text text-anchor="middle" x="214.795" y="-158.3" font-family="Times New Roman,serif" font-size="14.00">NotNull</text>
</g>
<!-- ChargeEffectBehaviour -->
<g id="node9" class="node"><title>ChargeEffectBehaviour</title>
<ellipse fill="none" stroke="black" cx="99.7947" cy="-234" rx="94.7833" ry="18"/>
<text text-anchor="middle" x="99.7947" y="-230.3" font-family="Times New Roman,serif" font-size="14.00">ChargeEffectBehaviour</text>
</g>
<!-- ChargeEffectBehaviour&#45;&gt;NotNull -->
<g id="edge6" class="edge"><title>ChargeEffectBehaviour&#45;&gt;NotNull</title>
<path fill="none" stroke="black" d="M126.757,-216.588C143.717,-206.265 165.67,-192.902 183.412,-182.103"/>
<polygon fill="black" stroke="black" points="185.534,-184.908 192.257,-176.719 181.895,-178.929 185.534,-184.908"/>
</g>
<!-- BarBehaviour -->
<g id="node14" class="node"><title>BarBehaviour</title>
<ellipse fill="none" stroke="black" cx="59.7947" cy="-162" rx="59.5901" ry="18"/>
<text text-anchor="middle" x="59.7947" y="-158.3" font-family="Times New Roman,serif" font-size="14.00">BarBehaviour</text>
</g>
<!-- ChargeEffectBehaviour&#45;&gt;BarBehaviour -->
<g id="edge4" class="edge"><title>ChargeEffectBehaviour&#45;&gt;BarBehaviour</title>
<path fill="none" stroke="black" stroke-width="2" d="M90.1118,-216.055C85.3951,-207.801 79.6241,-197.701 74.3877,-188.538"/>
<polygon fill="black" stroke="black" stroke-width="2" points="77.3887,-186.735 69.3884,-179.789 71.311,-190.208 77.3887,-186.735"/>
</g>
<!-- ChargeEffectBehaviour&#45;&gt;ICanBeActivated -->
<g id="edge5" class="edge"><title>ChargeEffectBehaviour&#45;&gt;ICanBeActivated</title>
<path fill="none" stroke="black" stroke-dasharray="5,2" d="M108.675,-215.925C119.795,-196.078 140.605,-163.555 166.795,-144 190.55,-126.263 220.899,-113.873 247.437,-105.558"/>
<polygon fill="black" stroke="black" points="248.453,-108.908 257.023,-102.677 246.438,-102.204 248.453,-108.908"/>
</g>
<!-- ISceneLoader -->
<g id="node10" class="node"><title>ISceneLoader</title>
<ellipse fill="none" stroke="black" stroke-dasharray="5,2" cx="539.795" cy="-162" rx="61.99" ry="18"/>
<text text-anchor="middle" x="539.795" y="-158.3" font-family="Times New Roman,serif" font-size="14.00">ISceneLoader</text>
</g>
<!-- SceneLoaderBehaviour -->
<g id="node11" class="node"><title>SceneLoaderBehaviour</title>
<ellipse fill="none" stroke="black" cx="541.795" cy="-234" rx="94.7833" ry="18"/>
<text text-anchor="middle" x="541.795" y="-230.3" font-family="Times New Roman,serif" font-size="14.00">SceneLoaderBehaviour</text>
</g>
<!-- SceneLoaderBehaviour&#45;&gt;NotNull -->
<g id="edge9" class="edge"><title>SceneLoaderBehaviour&#45;&gt;NotNull</title>
<path fill="none" stroke="black" d="M474.08,-221.362C404.717,-209.221 301.703,-190.52 262.795,-180 259.68,-179.158 256.477,-178.21 253.276,-177.204"/>
<polygon fill="black" stroke="black" points="254.354,-173.875 243.761,-174.059 252.157,-180.521 254.354,-173.875"/>
</g>
<!-- SceneLoaderBehaviour&#45;&gt;ISceneLoader -->
<g id="edge8" class="edge"><title>SceneLoaderBehaviour&#45;&gt;ISceneLoader</title>
<path fill="none" stroke="black" stroke-dasharray="5,2" d="M541.3,-215.697C541.08,-207.983 540.815,-198.712 540.569,-190.112"/>
<polygon fill="black" stroke="black" points="544.068,-190 540.283,-180.104 537.071,-190.2 544.068,-190"/>
</g>
<!-- SceneLoaderBehaviour&#45;&gt;MonoBehaviour -->
<g id="edge7" class="edge"><title>SceneLoaderBehaviour&#45;&gt;MonoBehaviour</title>
<path fill="none" stroke="black" stroke-width="2" d="M507.197,-217.08C492.536,-208.371 476.974,-196.046 468.795,-180 459.116,-161.012 459.867,-136.649 462.618,-118.215"/>
<polygon fill="black" stroke="black" stroke-width="2" points="466.106,-118.59 464.406,-108.132 459.214,-117.368 466.106,-118.59"/>
</g>
<!-- Timer -->
<g id="node12" class="node"><title>Timer</title>
<ellipse fill="none" stroke="black" cx="953.795" cy="-90" rx="32.4942" ry="18"/>
<text text-anchor="middle" x="953.795" y="-86.3" font-family="Times New Roman,serif" font-size="14.00">Timer</text>
</g>
<!-- Timer&#45;&gt;Debug -->
<g id="edge11" class="edge"><title>Timer&#45;&gt;Debug</title>
<path fill="none" stroke="black" d="M945.5,-72.411C941.419,-64.2493 936.405,-54.2203 931.827,-45.0653"/>
<polygon fill="black" stroke="black" points="934.875,-43.3352 927.273,-35.9562 928.614,-46.4658 934.875,-43.3352"/>
</g>
<!-- Callback -->
<g id="node17" class="node"><title>Callback</title>
<ellipse fill="#e5e5e5" stroke="black" cx="1013.79" cy="-18" rx="42.4939" ry="18"/>
<text text-anchor="middle" x="1013.79" y="-14.3" font-family="Times New Roman,serif" font-size="14.00">Callback</text>
</g>
<!-- Timer&#45;&gt;Callback -->
<g id="edge10" class="edge"><title>Timer&#45;&gt;Callback</title>
<path fill="none" stroke="black" d="M967.111,-73.4647C974.738,-64.5657 984.476,-53.2051 993.082,-43.1644"/>
<polygon fill="black" stroke="black" points="995.829,-45.3376 999.68,-35.4672 990.515,-40.782 995.829,-45.3376"/>
</g>
<!-- BarBehaviour&#45;&gt;MonoBehaviour -->
<g id="edge12" class="edge"><title>BarBehaviour&#45;&gt;MonoBehaviour</title>
<path fill="none" stroke="black" stroke-width="2" d="M111.297,-152.791C202.601,-138.233 383.959,-109.291 390.795,-108 396.466,-106.929 402.355,-105.756 408.243,-104.544"/>
<polygon fill="black" stroke="black" stroke-width="2" points="409.04,-107.953 418.11,-102.476 407.604,-101.102 409.04,-107.953"/>
</g>
<!-- IBarDisplay -->
<g id="node22" class="node"><title>IBarDisplay</title>
<ellipse fill="none" stroke="black" stroke-dasharray="5,2" cx="59.7947" cy="-90" rx="53.8905" ry="18"/>
<text text-anchor="middle" x="59.7947" y="-86.3" font-family="Times New Roman,serif" font-size="14.00">IBarDisplay</text>
</g>
<!-- BarBehaviour&#45;&gt;IBarDisplay -->
<g id="edge13" class="edge"><title>BarBehaviour&#45;&gt;IBarDisplay</title>
<path fill="none" stroke="black" stroke-dasharray="5,2" d="M59.7947,-143.697C59.7947,-135.983 59.7947,-126.712 59.7947,-118.112"/>
<polygon fill="black" stroke="black" points="63.2948,-118.104 59.7947,-108.104 56.2948,-118.104 63.2948,-118.104"/>
</g>
<!-- GameStateBehaviour -->
<g id="node15" class="node"><title>GameStateBehaviour</title>
<ellipse fill="none" stroke="black" cx="541.795" cy="-306" rx="87.1846" ry="18"/>
<text text-anchor="middle" x="541.795" y="-302.3" font-family="Times New Roman,serif" font-size="14.00">GameStateBehaviour</text>
</g>
<!-- GameStateBehaviour&#45;&gt;PauseMenuBehaviour -->
<g id="edge17" class="edge"><title>GameStateBehaviour&#45;&gt;PauseMenuBehaviour</title>
<path fill="none" stroke="black" d="M498.956,-290.155C467.755,-279.343 425.323,-264.638 392.116,-253.131"/>
<polygon fill="black" stroke="black" points="393.167,-249.791 382.572,-249.824 390.875,-256.405 393.167,-249.791"/>
</g>
<!-- GameStateBehaviour&#45;&gt;NotNull -->
<g id="edge20" class="edge"><title>GameStateBehaviour&#45;&gt;NotNull</title>
<path fill="none" stroke="black" d="M459.5,-300.016C382.041,-293.675 273.351,-279.988 241.795,-252 224.387,-236.561 218.022,-210.303 215.783,-190.298"/>
<polygon fill="black" stroke="black" points="219.261,-189.889 214.936,-180.217 212.286,-190.475 219.261,-189.889"/>
</g>
<!-- GameStateBehaviour&#45;&gt;ChargeEffectBehaviour -->
<g id="edge18" class="edge"><title>GameStateBehaviour&#45;&gt;ChargeEffectBehaviour</title>
<path fill="none" stroke="black" d="M474.664,-294.369C395.646,-281.854 264.526,-261.089 180.168,-247.729"/>
<polygon fill="black" stroke="black" points="180.543,-244.245 170.119,-246.137 179.448,-251.159 180.543,-244.245"/>
</g>
<!-- GameStateBehaviour&#45;&gt;SceneLoaderBehaviour -->
<g id="edge19" class="edge"><title>GameStateBehaviour&#45;&gt;SceneLoaderBehaviour</title>
<path fill="none" stroke="black" d="M541.795,-287.697C541.795,-279.983 541.795,-270.712 541.795,-262.112"/>
<polygon fill="black" stroke="black" points="545.295,-262.104 541.795,-252.104 538.295,-262.104 545.295,-262.104"/>
</g>
<!-- GameStateBehaviour&#45;&gt;MonoBehaviour -->
<g id="edge14" class="edge"><title>GameStateBehaviour&#45;&gt;MonoBehaviour</title>
<path fill="none" stroke="black" stroke-width="2" d="M593.599,-291.384C613.498,-283.352 634.201,-270.921 645.795,-252 654.154,-238.357 649.384,-231.592 645.795,-216 637.814,-181.326 637.123,-167.933 610.795,-144 589.299,-124.46 559.936,-111.917 533.488,-103.969"/>
<polygon fill="black" stroke="black" stroke-width="2" points="534.092,-100.503 523.517,-101.143 532.183,-107.237 534.092,-100.503"/>
</g>
<!-- FadeInBehaviour -->
<g id="node19" class="node"><title>FadeInBehaviour</title>
<ellipse fill="none" stroke="black" cx="900.795" cy="-234" rx="72.5877" ry="18"/>
<text text-anchor="middle" x="900.795" y="-230.3" font-family="Times New Roman,serif" font-size="14.00">FadeInBehaviour</text>
</g>
<!-- GameStateBehaviour&#45;&gt;FadeInBehaviour -->
<g id="edge16" class="edge"><title>GameStateBehaviour&#45;&gt;FadeInBehaviour</title>
<path fill="none" stroke="black" d="M602.694,-293.125C667.389,-280.511 769.289,-260.642 835.582,-247.716"/>
<polygon fill="black" stroke="black" points="836.355,-251.131 845.5,-245.782 835.015,-244.26 836.355,-251.131"/>
</g>
<!-- GameState -->
<g id="node21" class="node"><title>GameState</title>
<ellipse fill="none" stroke="black" cx="745.795" cy="-234" rx="50.0912" ry="18"/>
<text text-anchor="middle" x="745.795" y="-230.3" font-family="Times New Roman,serif" font-size="14.00">GameState</text>
</g>
<!-- GameStateBehaviour&#45;&gt;GameState -->
<g id="edge15" class="edge"><title>GameStateBehaviour&#45;&gt;GameState</title>
<path fill="none" stroke="black" d="M585.058,-290.155C619.122,-278.466 666.444,-262.228 700.918,-250.399"/>
<polygon fill="black" stroke="black" points="702.403,-253.59 710.726,-247.033 700.131,-246.969 702.403,-253.59"/>
</g>
<!-- TimerCollection -->
<g id="node16" class="node"><title>TimerCollection</title>
<ellipse fill="none" stroke="black" cx="1013.79" cy="-162" rx="69.5877" ry="18"/>
<text text-anchor="middle" x="1013.79" y="-158.3" font-family="Times New Roman,serif" font-size="14.00">TimerCollection</text>
</g>
<!-- TimerCollection&#45;&gt;Timer -->
<g id="edge21" class="edge"><title>TimerCollection&#45;&gt;Timer</title>
<path fill="none" stroke="black" d="M999.27,-144.055C991.684,-135.204 982.279,-124.231 973.994,-114.566"/>
<polygon fill="black" stroke="black" points="976.528,-112.144 967.363,-106.829 971.213,-116.7 976.528,-112.144"/>
</g>
<!-- TimerCollection&#45;&gt;Callback -->
<g id="edge22" class="edge"><title>TimerCollection&#45;&gt;Callback</title>
<path fill="none" stroke="black" d="M1013.79,-143.871C1013.79,-119.67 1013.79,-75.2108 1013.79,-46.3932"/>
<polygon fill="black" stroke="black" points="1017.29,-46.1892 1013.79,-36.1893 1010.29,-46.1893 1017.29,-46.1892"/>
</g>
<!-- TimerNotFoundException -->
<g id="node18" class="node"><title>TimerNotFoundException</title>
<ellipse fill="none" stroke="black" cx="1148.79" cy="-90" rx="106.681" ry="18"/>
<text text-anchor="middle" x="1148.79" y="-86.3" font-family="Times New Roman,serif" font-size="14.00">TimerNotFoundException</text>
</g>
<!-- TimerCollection&#45;&gt;TimerNotFoundException -->
<g id="edge23" class="edge"><title>TimerCollection&#45;&gt;TimerNotFoundException</title>
<path fill="none" stroke="black" d="M1043.42,-145.638C1062.49,-135.752 1087.51,-122.775 1108.39,-111.949"/>
<polygon fill="black" stroke="black" points="1110.09,-115.011 1117.36,-107.301 1106.87,-108.797 1110.09,-115.011"/>
</g>
<!-- TimerNotFoundException&#45;&gt;Exception -->
<g id="edge24" class="edge"><title>TimerNotFoundException&#45;&gt;Exception</title>
<path fill="none" stroke="black" stroke-width="2" d="M1148.79,-71.6966C1148.79,-63.9827 1148.79,-54.7125 1148.79,-46.1124"/>
<polygon fill="black" stroke="black" stroke-width="2" points="1152.29,-46.1043 1148.79,-36.1043 1145.29,-46.1044 1152.29,-46.1043"/>
</g>
<!-- FadeInBehaviour&#45;&gt;IFadeIn -->
<g id="edge26" class="edge"><title>FadeInBehaviour&#45;&gt;IFadeIn</title>
<path fill="none" stroke="black" stroke-dasharray="5,2" d="M888.207,-216.055C881.855,-207.505 874.033,-196.975 867.036,-187.556"/>
<polygon fill="black" stroke="black" points="869.681,-185.247 860.908,-179.307 864.062,-189.422 869.681,-185.247"/>
</g>
<!-- FadeInBehaviour&#45;&gt;MonoBehaviour -->
<g id="edge25" class="edge"><title>FadeInBehaviour&#45;&gt;MonoBehaviour</title>
<path fill="none" stroke="black" stroke-width="2" d="M905.871,-215.799C910.599,-195.832 914.54,-163.192 896.795,-144 873.45,-118.752 663.211,-102.448 546.33,-95.2524"/>
<polygon fill="black" stroke="black" stroke-width="2" points="546.204,-91.7384 536.01,-94.6258 545.779,-98.7255 546.204,-91.7384"/>
</g>
<!-- FadeInBehaviour&#45;&gt;TimerCollection -->
<g id="edge27" class="edge"><title>FadeInBehaviour&#45;&gt;TimerCollection</title>
<path fill="none" stroke="black" d="M926.436,-217.116C942.184,-207.36 962.546,-194.747 979.649,-184.152"/>
<polygon fill="black" stroke="black" points="981.597,-187.063 988.255,-178.821 977.91,-181.112 981.597,-187.063"/>
</g>
<!-- GameState&#45;&gt;IEventBus -->
<g id="edge28" class="edge"><title>GameState&#45;&gt;IEventBus</title>
<path fill="none" stroke="black" stroke-dasharray="5,2" d="M745.3,-215.697C745.08,-207.983 744.815,-198.712 744.569,-190.112"/>
<polygon fill="black" stroke="black" points="748.068,-190 744.283,-180.104 741.071,-190.2 748.068,-190"/>
</g>
<!-- GameState&#45;&gt;IFadeIn -->
<g id="edge30" class="edge"><title>GameState&#45;&gt;IFadeIn</title>
<path fill="none" stroke="black" d="M768.144,-217.811C783.121,-207.633 803.001,-194.122 819.276,-183.061"/>
<polygon fill="black" stroke="black" points="821.589,-185.721 827.893,-177.205 817.655,-179.931 821.589,-185.721"/>
</g>
<!-- GameState&#45;&gt;ISceneLoader -->
<g id="edge32" class="edge"><title>GameState&#45;&gt;ISceneLoader</title>
<path fill="none" stroke="black" d="M710.382,-220.967C676.696,-209.52 625.741,-192.205 588.29,-179.479"/>
<polygon fill="black" stroke="black" points="589.19,-176.088 578.596,-176.185 586.938,-182.716 589.19,-176.088"/>
</g>
<!-- GameState&#45;&gt;TimerCollection -->
<g id="edge29" class="edge"><title>GameState&#45;&gt;TimerCollection</title>
<path fill="none" stroke="black" d="M785.051,-222.746C830.398,-210.902 905.382,-191.317 957.067,-177.817"/>
<polygon fill="black" stroke="black" points="957.965,-181.2 966.756,-175.286 956.196,-174.427 957.965,-181.2"/>
</g>
<!-- GameState&#45;&gt;ICanBeActivated -->
<g id="edge31" class="edge"><title>GameState&#45;&gt;ICanBeActivated</title>
<path fill="none" stroke="black" d="M727.121,-216.923C702.311,-196.495 656.297,-161.762 610.795,-144 518.091,-107.812 487.628,-126.225 389.795,-108 384.003,-106.921 377.989,-105.752 371.972,-104.549"/>
<polygon fill="black" stroke="black" points="372.379,-101.06 361.883,-102.502 370.987,-107.92 372.379,-101.06"/>
</g>
<!-- IBarDisplay&#45;&gt;IFlipX -->
<g id="edge33" class="edge"><title>IBarDisplay&#45;&gt;IFlipX</title>
<path fill="none" stroke="black" stroke-dasharray="5,2" d="M59.7947,-71.6966C59.7947,-63.9827 59.7947,-54.7125 59.7947,-46.1124"/>
<polygon fill="black" stroke="black" points="63.2948,-46.1043 59.7947,-36.1043 56.2948,-46.1044 63.2948,-46.1043"/>
</g>
</g>
</svg>
