<?xml version="1.0" encoding="UTF-8" standalone="no"?>
<!DOCTYPE svg PUBLIC "-//W3C//DTD SVG 1.1//EN"
 "http://www.w3.org/Graphics/SVG/1.1/DTD/svg11.dtd">
<!-- Generated by graphviz version 2.38.0 (20140413.2041)
 -->
<!-- Title: %3 Pages: 1 -->
<svg width="1008pt" height="332pt"
 viewBox="0.00 0.00 1007.63 332.00" xmlns="http://www.w3.org/2000/svg" xmlns:xlink="http://www.w3.org/1999/xlink">
<g id="graph0" class="graph" transform="scale(1 1) rotate(0) translate(4 328)">
<title>%3</title>
<polygon fill="white" stroke="none" points="-4,4 -4,-328 1003.63,-328 1003.63,4 -4,4"/>
<!-- MonoBehaviour -->
<g id="node1" class="node"><title>MonoBehaviour</title>
<ellipse fill="none" stroke="black" cx="206.042" cy="-162" rx="69.5877" ry="18"/>
<text text-anchor="middle" x="206.042" y="-158.3" font-family="Times New Roman,serif" font-size="14.00">MonoBehaviour</text>
</g>
<!-- SceneLoaderBehaviour -->
<g id="node2" class="node"><title>SceneLoaderBehaviour</title>
<ellipse fill="none" stroke="black" cx="329.042" cy="-234" rx="94.7833" ry="18"/>
<text text-anchor="middle" x="329.042" y="-230.3" font-family="Times New Roman,serif" font-size="14.00">SceneLoaderBehaviour</text>
</g>
<!-- SceneLoaderBehaviour&#45;&gt;MonoBehaviour -->
<g id="edge1" class="edge"><title>SceneLoaderBehaviour&#45;&gt;MonoBehaviour</title>
<path fill="none" stroke="black" stroke-width="2" d="M300.514,-216.765C283.194,-206.907 260.919,-194.231 242.35,-183.663"/>
<polygon fill="black" stroke="black" stroke-width="2" points="243.991,-180.57 233.569,-178.666 240.529,-186.654 243.991,-180.57"/>
</g>
<!-- NotNull -->
<g id="node11" class="node"><title>NotNull</title>
<ellipse fill="#e5e5e5" stroke="black" cx="333.042" cy="-162" rx="38.9931" ry="18"/>
<text text-anchor="middle" x="333.042" y="-158.3" font-family="Times New Roman,serif" font-size="14.00">NotNull</text>
</g>
<!-- SceneLoaderBehaviour&#45;&gt;NotNull -->
<g id="edge3" class="edge"><title>SceneLoaderBehaviour&#45;&gt;NotNull</title>
<path fill="none" stroke="black" d="M330.031,-215.697C330.472,-207.983 331.001,-198.712 331.493,-190.112"/>
<polygon fill="black" stroke="black" points="334.988,-190.288 332.065,-180.104 328,-189.888 334.988,-190.288"/>
</g>
<!-- ISceneLoader -->
<g id="node16" class="node"><title>ISceneLoader</title>
<ellipse fill="none" stroke="black" stroke-dasharray="5,2" cx="452.042" cy="-162" rx="61.99" ry="18"/>
<text text-anchor="middle" x="452.042" y="-158.3" font-family="Times New Roman,serif" font-size="14.00">ISceneLoader</text>
</g>
<!-- SceneLoaderBehaviour&#45;&gt;ISceneLoader -->
<g id="edge2" class="edge"><title>SceneLoaderBehaviour&#45;&gt;ISceneLoader</title>
<path fill="none" stroke="black" stroke-dasharray="5,2" d="M357.57,-216.765C375.012,-206.838 397.479,-194.052 416.126,-183.44"/>
<polygon fill="black" stroke="black" points="417.975,-186.415 424.935,-178.427 414.513,-180.331 417.975,-186.415"/>
</g>
<!-- TimerNotFoundException -->
<g id="node3" class="node"><title>TimerNotFoundException</title>
<ellipse fill="none" stroke="black" cx="893.042" cy="-90" rx="106.681" ry="18"/>
<text text-anchor="middle" x="893.042" y="-86.3" font-family="Times New Roman,serif" font-size="14.00">TimerNotFoundException</text>
</g>
<!-- Exception -->
<g id="node6" class="node"><title>Exception</title>
<ellipse fill="none" stroke="black" cx="893.042" cy="-18" rx="47.3916" ry="18"/>
<text text-anchor="middle" x="893.042" y="-14.3" font-family="Times New Roman,serif" font-size="14.00">Exception</text>
</g>
<!-- TimerNotFoundException&#45;&gt;Exception -->
<g id="edge4" class="edge"><title>TimerNotFoundException&#45;&gt;Exception</title>
<path fill="none" stroke="black" stroke-width="2" d="M893.042,-71.6966C893.042,-63.9827 893.042,-54.7125 893.042,-46.1124"/>
<polygon fill="black" stroke="black" stroke-width="2" points="896.542,-46.1043 893.042,-36.1043 889.542,-46.1044 896.542,-46.1043"/>
</g>
<!-- TimerCollection -->
<g id="node4" class="node"><title>TimerCollection</title>
<ellipse fill="none" stroke="black" cx="736.042" cy="-162" rx="69.5877" ry="18"/>
<text text-anchor="middle" x="736.042" y="-158.3" font-family="Times New Roman,serif" font-size="14.00">TimerCollection</text>
</g>
<!-- TimerCollection&#45;&gt;TimerNotFoundException -->
<g id="edge7" class="edge"><title>TimerCollection&#45;&gt;TimerNotFoundException</title>
<path fill="none" stroke="black" d="M769.338,-146.155C792.165,-135.977 822.728,-122.35 847.763,-111.188"/>
<polygon fill="black" stroke="black" points="849.352,-114.312 857.06,-107.043 846.501,-107.919 849.352,-114.312"/>
</g>
<!-- Callback -->
<g id="node5" class="node"><title>Callback</title>
<ellipse fill="#e5e5e5" stroke="black" cx="676.042" cy="-18" rx="42.4939" ry="18"/>
<text text-anchor="middle" x="676.042" y="-14.3" font-family="Times New Roman,serif" font-size="14.00">Callback</text>
</g>
<!-- TimerCollection&#45;&gt;Callback -->
<g id="edge6" class="edge"><title>TimerCollection&#45;&gt;Callback</title>
<path fill="none" stroke="black" d="M719.834,-144.166C711.239,-134.344 701.211,-121.297 695.042,-108 685.927,-88.3513 681.125,-64.2234 678.632,-46.0487"/>
<polygon fill="black" stroke="black" points="682.105,-45.6149 677.415,-36.1145 675.157,-46.4659 682.105,-45.6149"/>
</g>
<!-- Timer -->
<g id="node8" class="node"><title>Timer</title>
<ellipse fill="none" stroke="black" cx="736.042" cy="-90" rx="32.4942" ry="18"/>
<text text-anchor="middle" x="736.042" y="-86.3" font-family="Times New Roman,serif" font-size="14.00">Timer</text>
</g>
<!-- TimerCollection&#45;&gt;Timer -->
<g id="edge5" class="edge"><title>TimerCollection&#45;&gt;Timer</title>
<path fill="none" stroke="black" d="M736.042,-143.697C736.042,-135.983 736.042,-126.712 736.042,-118.112"/>
<polygon fill="black" stroke="black" points="739.542,-118.104 736.042,-108.104 732.542,-118.104 739.542,-118.104"/>
</g>
<!-- ICanBeActivated -->
<g id="node7" class="node"><title>ICanBeActivated</title>
<ellipse fill="none" stroke="black" stroke-dasharray="5,2" cx="319.042" cy="-90" rx="72.5877" ry="18"/>
<text text-anchor="middle" x="319.042" y="-86.3" font-family="Times New Roman,serif" font-size="14.00">ICanBeActivated</text>
</g>
<!-- Timer&#45;&gt;Callback -->
<g id="edge8" class="edge"><title>Timer&#45;&gt;Callback</title>
<path fill="none" stroke="black" d="M722.726,-73.4647C715.098,-64.5657 705.361,-53.2051 696.754,-43.1644"/>
<polygon fill="black" stroke="black" points="699.322,-40.782 690.157,-35.4672 694.007,-45.3376 699.322,-40.782"/>
</g>
<!-- Debug -->
<g id="node9" class="node"><title>Debug</title>
<ellipse fill="#e5e5e5" stroke="black" cx="771.042" cy="-18" rx="34.394" ry="18"/>
<text text-anchor="middle" x="771.042" y="-14.3" font-family="Times New Roman,serif" font-size="14.00">Debug</text>
</g>
<!-- Timer&#45;&gt;Debug -->
<g id="edge9" class="edge"><title>Timer&#45;&gt;Debug</title>
<path fill="none" stroke="black" d="M744.337,-72.411C748.417,-64.2493 753.432,-54.2203 758.009,-45.0653"/>
<polygon fill="black" stroke="black" points="761.222,-46.4658 762.564,-35.9562 754.961,-43.3352 761.222,-46.4658"/>
</g>
<!-- PauseMenuBehaviour -->
<g id="node10" class="node"><title>PauseMenuBehaviour</title>
<ellipse fill="none" stroke="black" cx="89.0421" cy="-234" rx="89.0842" ry="18"/>
<text text-anchor="middle" x="89.0421" y="-230.3" font-family="Times New Roman,serif" font-size="14.00">PauseMenuBehaviour</text>
</g>
<!-- PauseMenuBehaviour&#45;&gt;MonoBehaviour -->
<g id="edge10" class="edge"><title>PauseMenuBehaviour&#45;&gt;MonoBehaviour</title>
<path fill="none" stroke="black" stroke-width="2" d="M116.178,-216.765C132.389,-207.066 153.162,-194.638 170.651,-184.174"/>
<polygon fill="black" stroke="black" stroke-width="2" points="172.672,-187.044 179.456,-178.906 169.078,-181.037 172.672,-187.044"/>
</g>
<!-- IPauseMenu -->
<g id="node15" class="node"><title>IPauseMenu</title>
<ellipse fill="none" stroke="black" stroke-dasharray="5,2" cx="63.0421" cy="-162" rx="55.7903" ry="18"/>
<text text-anchor="middle" x="63.0421" y="-158.3" font-family="Times New Roman,serif" font-size="14.00">IPauseMenu</text>
</g>
<!-- PauseMenuBehaviour&#45;&gt;IPauseMenu -->
<g id="edge11" class="edge"><title>PauseMenuBehaviour&#45;&gt;IPauseMenu</title>
<path fill="none" stroke="black" stroke-dasharray="5,2" d="M82.6151,-215.697C79.687,-207.813 76.1551,-198.304 72.9022,-189.546"/>
<polygon fill="black" stroke="black" points="76.1581,-188.26 69.3951,-180.104 69.5961,-190.697 76.1581,-188.26"/>
</g>
<!-- IEventBus -->
<g id="node12" class="node"><title>IEventBus</title>
<ellipse fill="none" stroke="black" stroke-dasharray="5,2" cx="872.042" cy="-162" rx="48.1917" ry="18"/>
<text text-anchor="middle" x="872.042" y="-158.3" font-family="Times New Roman,serif" font-size="14.00">IEventBus</text>
</g>
<!-- IFadeIn -->
<g id="node13" class="node"><title>IFadeIn</title>
<ellipse fill="none" stroke="black" stroke-dasharray="5,2" cx="571.042" cy="-162" rx="38.9931" ry="18"/>
<text text-anchor="middle" x="571.042" y="-158.3" font-family="Times New Roman,serif" font-size="14.00">IFadeIn</text>
</g>
<!-- FadeInBehaviour -->
<g id="node14" class="node"><title>FadeInBehaviour</title>
<ellipse fill="none" stroke="black" cx="553.042" cy="-234" rx="72.5877" ry="18"/>
<text text-anchor="middle" x="553.042" y="-230.3" font-family="Times New Roman,serif" font-size="14.00">FadeInBehaviour</text>
</g>
<!-- FadeInBehaviour&#45;&gt;MonoBehaviour -->
<g id="edge12" class="edge"><title>FadeInBehaviour&#45;&gt;MonoBehaviour</title>
<path fill="none" stroke="black" stroke-width="2" d="M497.554,-222.307C443.318,-211.79 358.432,-195.152 285.042,-180 279.321,-178.819 273.371,-177.572 267.417,-176.312"/>
<polygon fill="black" stroke="black" stroke-width="2" points="267.945,-172.846 257.435,-174.19 266.489,-179.693 267.945,-172.846"/>
</g>
<!-- FadeInBehaviour&#45;&gt;TimerCollection -->
<g id="edge14" class="edge"><title>FadeInBehaviour&#45;&gt;TimerCollection</title>
<path fill="none" stroke="black" d="M590.96,-218.496C619.489,-207.583 658.748,-192.566 689.234,-180.905"/>
<polygon fill="black" stroke="black" points="690.71,-184.088 698.799,-177.246 688.209,-177.55 690.71,-184.088"/>
</g>
<!-- FadeInBehaviour&#45;&gt;IFadeIn -->
<g id="edge13" class="edge"><title>FadeInBehaviour&#45;&gt;IFadeIn</title>
<path fill="none" stroke="black" stroke-dasharray="5,2" d="M557.492,-215.697C559.497,-207.898 561.911,-198.509 564.143,-189.829"/>
<polygon fill="black" stroke="black" points="567.543,-190.661 566.644,-180.104 560.764,-188.918 567.543,-190.661"/>
</g>
<!-- IPauseMenu&#45;&gt;ICanBeActivated -->
<g id="edge15" class="edge"><title>IPauseMenu&#45;&gt;ICanBeActivated</title>
<path fill="none" stroke="black" stroke-dasharray="5,2" d="M104.173,-149.753C146.926,-138.063 214.159,-119.679 262.025,-106.591"/>
<polygon fill="black" stroke="black" points="263.207,-109.896 271.929,-103.882 261.36,-103.144 263.207,-109.896"/>
</g>
<!-- GameState -->
<g id="node17" class="node"><title>GameState</title>
<ellipse fill="none" stroke="black" cx="694.042" cy="-234" rx="50.0912" ry="18"/>
<text text-anchor="middle" x="694.042" y="-230.3" font-family="Times New Roman,serif" font-size="14.00">GameState</text>
</g>
<!-- GameState&#45;&gt;TimerCollection -->
<g id="edge17" class="edge"><title>GameState&#45;&gt;TimerCollection</title>
<path fill="none" stroke="black" d="M704.209,-216.055C709.089,-207.922 715.043,-197.998 720.477,-188.943"/>
<polygon fill="black" stroke="black" points="723.533,-190.651 725.677,-180.275 717.531,-187.049 723.533,-190.651"/>
</g>
<!-- GameState&#45;&gt;ICanBeActivated -->
<g id="edge19" class="edge"><title>GameState&#45;&gt;ICanBeActivated</title>
<path fill="none" stroke="black" d="M682.021,-216.139C665.136,-192.944 634.712,-153.028 619.042,-144 581.927,-122.616 471.677,-107.074 395.699,-98.5425"/>
<polygon fill="black" stroke="black" points="396.006,-95.0552 385.683,-97.4359 395.238,-102.013 396.006,-95.0552"/>
</g>
<!-- GameState&#45;&gt;IEventBus -->
<g id="edge16" class="edge"><title>GameState&#45;&gt;IEventBus</title>
<path fill="none" stroke="black" stroke-dasharray="5,2" d="M726.69,-220.161C755.978,-208.643 799.097,-191.686 830.767,-179.232"/>
<polygon fill="black" stroke="black" points="832.175,-182.439 840.2,-175.522 829.613,-175.925 832.175,-182.439"/>
</g>
<!-- GameState&#45;&gt;IFadeIn -->
<g id="edge18" class="edge"><title>GameState&#45;&gt;IFadeIn</title>
<path fill="none" stroke="black" d="M668.556,-218.496C649.762,-207.8 624.039,-193.161 603.731,-181.604"/>
<polygon fill="black" stroke="black" points="605.248,-178.44 594.826,-176.536 601.786,-184.524 605.248,-178.44"/>
</g>
<!-- GameState&#45;&gt;ISceneLoader -->
<g id="edge20" class="edge"><title>GameState&#45;&gt;ISceneLoader</title>
<path fill="none" stroke="black" d="M656.23,-222.063C615.36,-210.241 549.949,-191.32 504.206,-178.089"/>
<polygon fill="black" stroke="black" points="505.051,-174.69 494.472,-175.273 503.106,-181.414 505.051,-174.69"/>
</g>
<!-- GameStateBehaviour -->
<g id="node18" class="node"><title>GameStateBehaviour</title>
<ellipse fill="none" stroke="black" cx="390.042" cy="-306" rx="87.1846" ry="18"/>
<text text-anchor="middle" x="390.042" y="-302.3" font-family="Times New Roman,serif" font-size="14.00">GameStateBehaviour</text>
</g>
<!-- GameStateBehaviour&#45;&gt;MonoBehaviour -->
<g id="edge21" class="edge"><title>GameStateBehaviour&#45;&gt;MonoBehaviour</title>
<path fill="none" stroke="black" stroke-width="2" d="M313.608,-297.282C282.051,-290.263 247.643,-276.994 225.042,-252 210.021,-235.388 205.809,-209.886 205.042,-190.431"/>
<polygon fill="black" stroke="black" stroke-width="2" points="208.541,-190.299 204.923,-180.34 201.541,-190.381 208.541,-190.299"/>
</g>
<!-- GameStateBehaviour&#45;&gt;SceneLoaderBehaviour -->
<g id="edge25" class="edge"><title>GameStateBehaviour&#45;&gt;SceneLoaderBehaviour</title>
<path fill="none" stroke="black" d="M375.276,-288.055C367.783,-279.457 358.546,-268.857 350.303,-259.397"/>
<polygon fill="black" stroke="black" points="352.881,-257.029 343.673,-251.789 347.604,-261.628 352.881,-257.029"/>
</g>
<!-- GameStateBehaviour&#45;&gt;PauseMenuBehaviour -->
<g id="edge24" class="edge"><title>GameStateBehaviour&#45;&gt;PauseMenuBehaviour</title>
<path fill="none" stroke="black" d="M334.483,-292.079C283.71,-280.272 208.571,-262.798 154.819,-250.297"/>
<polygon fill="black" stroke="black" points="155.574,-246.879 145.042,-248.023 153.989,-253.697 155.574,-246.879"/>
</g>
<!-- GameStateBehaviour&#45;&gt;NotNull -->
<g id="edge26" class="edge"><title>GameStateBehaviour&#45;&gt;NotNull</title>
<path fill="none" stroke="black" d="M408.333,-288.121C425.824,-269.857 447.553,-240.113 433.042,-216 425.9,-204.132 396.294,-189.261 371.133,-178.294"/>
<polygon fill="black" stroke="black" points="372.335,-175.002 361.764,-174.297 369.588,-181.44 372.335,-175.002"/>
</g>
<!-- GameStateBehaviour&#45;&gt;FadeInBehaviour -->
<g id="edge23" class="edge"><title>GameStateBehaviour&#45;&gt;FadeInBehaviour</title>
<path fill="none" stroke="black" d="M426.217,-289.465C450.692,-278.954 483.164,-265.009 509.123,-253.861"/>
<polygon fill="black" stroke="black" points="510.557,-257.054 518.365,-249.892 507.795,-250.622 510.557,-257.054"/>
</g>
<!-- GameStateBehaviour&#45;&gt;GameState -->
<g id="edge22" class="edge"><title>GameStateBehaviour&#45;&gt;GameState</title>
<path fill="none" stroke="black" d="M450.717,-293.061C500.459,-282.99 572.586,-267.734 635.042,-252 638.886,-251.032 642.858,-249.986 646.84,-248.906"/>
<polygon fill="black" stroke="black" points="647.99,-252.219 656.692,-246.174 646.12,-245.473 647.99,-252.219"/>
</g>
</g>
</svg>
