<?xml version="1.0" encoding="UTF-8" standalone="no"?>
<!DOCTYPE svg PUBLIC "-//W3C//DTD SVG 1.1//EN"
 "http://www.w3.org/Graphics/SVG/1.1/DTD/svg11.dtd">
<!-- Generated by graphviz version 2.38.0 (20140413.2041)
 -->
<!-- Title: %3 Pages: 1 -->
<svg width="1248pt" height="332pt"
 viewBox="0.00 0.00 1248.24 332.00" xmlns="http://www.w3.org/2000/svg" xmlns:xlink="http://www.w3.org/1999/xlink">
<g id="graph0" class="graph" transform="scale(1 1) rotate(0) translate(4 328)">
<title>%3</title>
<polygon fill="white" stroke="none" points="-4,4 -4,-328 1244.24,-328 1244.24,4 -4,4"/>
<!-- Debug -->
<g id="node1" class="node"><title>Debug</title>
<ellipse fill="#e5e5e5" stroke="black" cx="34.4469" cy="-18" rx="34.394" ry="18"/>
<text text-anchor="middle" x="34.4469" y="-14.3" font-family="Times New Roman,serif" font-size="14.00">Debug</text>
</g>
<!-- BarBehaviour -->
<g id="node2" class="node"><title>BarBehaviour</title>
<ellipse fill="none" stroke="black" cx="1180.45" cy="-162" rx="59.5901" ry="18"/>
<text text-anchor="middle" x="1180.45" y="-158.3" font-family="Times New Roman,serif" font-size="14.00">BarBehaviour</text>
</g>
<!-- IBarDisplay -->
<g id="node5" class="node"><title>IBarDisplay</title>
<ellipse fill="none" stroke="black" stroke-dasharray="5,2" cx="1180.45" cy="-90" rx="53.8905" ry="18"/>
<text text-anchor="middle" x="1180.45" y="-86.3" font-family="Times New Roman,serif" font-size="14.00">IBarDisplay</text>
</g>
<!-- BarBehaviour&#45;&gt;IBarDisplay -->
<g id="edge2" class="edge"><title>BarBehaviour&#45;&gt;IBarDisplay</title>
<path fill="none" stroke="black" stroke-dasharray="5,2" d="M1180.45,-143.697C1180.45,-135.983 1180.45,-126.712 1180.45,-118.112"/>
<polygon fill="black" stroke="black" points="1183.95,-118.104 1180.45,-108.104 1176.95,-118.104 1183.95,-118.104"/>
</g>
<!-- MonoBehaviour -->
<g id="node19" class="node"><title>MonoBehaviour</title>
<ellipse fill="none" stroke="black" cx="823.447" cy="-90" rx="69.5877" ry="18"/>
<text text-anchor="middle" x="823.447" y="-86.3" font-family="Times New Roman,serif" font-size="14.00">MonoBehaviour</text>
</g>
<!-- BarBehaviour&#45;&gt;MonoBehaviour -->
<g id="edge1" class="edge"><title>BarBehaviour&#45;&gt;MonoBehaviour</title>
<path fill="none" stroke="black" stroke-width="2" d="M1134.72,-150.189C1125.38,-148.068 1115.61,-145.91 1106.45,-144 1032.36,-128.558 946.911,-112.843 889.461,-102.579"/>
<polygon fill="black" stroke="black" stroke-width="2" points="889.883,-99.0989 879.424,-100.79 888.654,-105.99 889.883,-99.0989"/>
</g>
<!-- PauseMenuBehaviour -->
<g id="node3" class="node"><title>PauseMenuBehaviour</title>
<ellipse fill="none" stroke="black" cx="521.447" cy="-234" rx="89.0842" ry="18"/>
<text text-anchor="middle" x="521.447" y="-230.3" font-family="Times New Roman,serif" font-size="14.00">PauseMenuBehaviour</text>
</g>
<!-- IPauseMenu -->
<g id="node4" class="node"><title>IPauseMenu</title>
<ellipse fill="none" stroke="black" stroke-dasharray="5,2" cx="559.447" cy="-162" rx="55.7903" ry="18"/>
<text text-anchor="middle" x="559.447" y="-158.3" font-family="Times New Roman,serif" font-size="14.00">IPauseMenu</text>
</g>
<!-- PauseMenuBehaviour&#45;&gt;IPauseMenu -->
<g id="edge4" class="edge"><title>PauseMenuBehaviour&#45;&gt;IPauseMenu</title>
<path fill="none" stroke="black" stroke-dasharray="5,2" d="M530.646,-216.055C535.08,-207.887 540.495,-197.912 545.428,-188.824"/>
<polygon fill="black" stroke="black" points="548.638,-190.247 550.333,-179.789 542.486,-186.908 548.638,-190.247"/>
</g>
<!-- PauseMenuBehaviour&#45;&gt;MonoBehaviour -->
<g id="edge3" class="edge"><title>PauseMenuBehaviour&#45;&gt;MonoBehaviour</title>
<path fill="none" stroke="black" stroke-width="2" d="M586.416,-221.608C653.891,-209.356 751.681,-190.257 766.447,-180 788.593,-164.617 804.096,-137.568 813.285,-117.315"/>
<polygon fill="black" stroke="black" stroke-width="2" points="816.556,-118.569 817.291,-108 810.125,-115.804 816.556,-118.569"/>
</g>
<!-- ICanBeActivated -->
<g id="node15" class="node"><title>ICanBeActivated</title>
<ellipse fill="none" stroke="black" stroke-dasharray="5,2" cx="559.447" cy="-90" rx="72.5877" ry="18"/>
<text text-anchor="middle" x="559.447" y="-86.3" font-family="Times New Roman,serif" font-size="14.00">ICanBeActivated</text>
</g>
<!-- IPauseMenu&#45;&gt;ICanBeActivated -->
<g id="edge5" class="edge"><title>IPauseMenu&#45;&gt;ICanBeActivated</title>
<path fill="none" stroke="black" stroke-dasharray="5,2" d="M559.447,-143.697C559.447,-135.983 559.447,-126.712 559.447,-118.112"/>
<polygon fill="black" stroke="black" points="562.947,-118.104 559.447,-108.104 555.947,-118.104 562.947,-118.104"/>
</g>
<!-- IFlipX -->
<g id="node14" class="node"><title>IFlipX</title>
<ellipse fill="none" stroke="black" stroke-dasharray="5,2" cx="1180.45" cy="-18" rx="34.394" ry="18"/>
<text text-anchor="middle" x="1180.45" y="-14.3" font-family="Times New Roman,serif" font-size="14.00">IFlipX</text>
</g>
<!-- IBarDisplay&#45;&gt;IFlipX -->
<g id="edge6" class="edge"><title>IBarDisplay&#45;&gt;IFlipX</title>
<path fill="none" stroke="black" stroke-dasharray="5,2" d="M1180.45,-71.6966C1180.45,-63.9827 1180.45,-54.7125 1180.45,-46.1124"/>
<polygon fill="black" stroke="black" points="1183.95,-46.1043 1180.45,-36.1043 1176.95,-46.1044 1183.95,-46.1043"/>
</g>
<!-- FadeInBehaviour -->
<g id="node6" class="node"><title>FadeInBehaviour</title>
<ellipse fill="none" stroke="black" cx="223.447" cy="-234" rx="72.5877" ry="18"/>
<text text-anchor="middle" x="223.447" y="-230.3" font-family="Times New Roman,serif" font-size="14.00">FadeInBehaviour</text>
</g>
<!-- IFadeIn -->
<g id="node18" class="node"><title>IFadeIn</title>
<ellipse fill="none" stroke="black" stroke-dasharray="5,2" cx="294.447" cy="-162" rx="38.9931" ry="18"/>
<text text-anchor="middle" x="294.447" y="-158.3" font-family="Times New Roman,serif" font-size="14.00">IFadeIn</text>
</g>
<!-- FadeInBehaviour&#45;&gt;IFadeIn -->
<g id="edge8" class="edge"><title>FadeInBehaviour&#45;&gt;IFadeIn</title>
<path fill="none" stroke="black" stroke-dasharray="5,2" d="M240.273,-216.411C249.553,-207.261 261.214,-195.765 271.338,-185.784"/>
<polygon fill="black" stroke="black" points="274.051,-188.024 278.715,-178.511 269.136,-183.039 274.051,-188.024"/>
</g>
<!-- FadeInBehaviour&#45;&gt;MonoBehaviour -->
<g id="edge7" class="edge"><title>FadeInBehaviour&#45;&gt;MonoBehaviour</title>
<path fill="none" stroke="black" stroke-width="2" d="M222.492,-215.925C222.376,-195.446 225.652,-161.672 246.447,-144 280.029,-115.461 597.563,-112.049 641.447,-108 676.815,-104.737 716.045,-101.077 749,-97.992"/>
<polygon fill="black" stroke="black" stroke-width="2" points="749.384,-101.471 759.014,-97.054 748.731,-94.5019 749.384,-101.471"/>
</g>
<!-- TimerCollection -->
<g id="node20" class="node"><title>TimerCollection</title>
<ellipse fill="none" stroke="black" cx="129.447" cy="-162" rx="69.5877" ry="18"/>
<text text-anchor="middle" x="129.447" y="-158.3" font-family="Times New Roman,serif" font-size="14.00">TimerCollection</text>
</g>
<!-- FadeInBehaviour&#45;&gt;TimerCollection -->
<g id="edge9" class="edge"><title>FadeInBehaviour&#45;&gt;TimerCollection</title>
<path fill="none" stroke="black" d="M201.645,-216.765C189.069,-207.4 173.076,-195.49 159.34,-185.261"/>
<polygon fill="black" stroke="black" points="161.241,-182.313 151.13,-179.147 157.06,-187.927 161.241,-182.313"/>
</g>
<!-- Timer -->
<g id="node7" class="node"><title>Timer</title>
<ellipse fill="none" stroke="black" cx="69.4469" cy="-90" rx="32.4942" ry="18"/>
<text text-anchor="middle" x="69.4469" y="-86.3" font-family="Times New Roman,serif" font-size="14.00">Timer</text>
</g>
<!-- Timer&#45;&gt;Debug -->
<g id="edge11" class="edge"><title>Timer&#45;&gt;Debug</title>
<path fill="none" stroke="black" d="M61.1524,-72.411C57.0716,-64.2493 52.0571,-54.2203 47.4796,-45.0653"/>
<polygon fill="black" stroke="black" points="50.5277,-43.3352 42.925,-35.9562 44.2667,-46.4658 50.5277,-43.3352"/>
</g>
<!-- Callback -->
<g id="node16" class="node"><title>Callback</title>
<ellipse fill="#e5e5e5" stroke="black" cx="129.447" cy="-18" rx="42.4939" ry="18"/>
<text text-anchor="middle" x="129.447" y="-14.3" font-family="Times New Roman,serif" font-size="14.00">Callback</text>
</g>
<!-- Timer&#45;&gt;Callback -->
<g id="edge10" class="edge"><title>Timer&#45;&gt;Callback</title>
<path fill="none" stroke="black" d="M82.7629,-73.4647C90.3906,-64.5657 100.128,-53.2051 108.735,-43.1644"/>
<polygon fill="black" stroke="black" points="111.482,-45.3376 115.332,-35.4672 106.167,-40.782 111.482,-45.3376"/>
</g>
<!-- SceneLoaderBehaviour -->
<g id="node8" class="node"><title>SceneLoaderBehaviour</title>
<ellipse fill="none" stroke="black" cx="723.447" cy="-234" rx="94.7833" ry="18"/>
<text text-anchor="middle" x="723.447" y="-230.3" font-family="Times New Roman,serif" font-size="14.00">SceneLoaderBehaviour</text>
</g>
<!-- ISceneLoader -->
<g id="node11" class="node"><title>ISceneLoader</title>
<ellipse fill="none" stroke="black" stroke-dasharray="5,2" cx="695.447" cy="-162" rx="61.99" ry="18"/>
<text text-anchor="middle" x="695.447" y="-158.3" font-family="Times New Roman,serif" font-size="14.00">ISceneLoader</text>
</g>
<!-- SceneLoaderBehaviour&#45;&gt;ISceneLoader -->
<g id="edge13" class="edge"><title>SceneLoaderBehaviour&#45;&gt;ISceneLoader</title>
<path fill="none" stroke="black" stroke-dasharray="5,2" d="M716.526,-215.697C713.372,-207.813 709.569,-198.304 706.065,-189.546"/>
<polygon fill="black" stroke="black" points="709.252,-188.089 702.289,-180.104 702.753,-190.689 709.252,-188.089"/>
</g>
<!-- NotNull -->
<g id="node13" class="node"><title>NotNull</title>
<ellipse fill="#e5e5e5" stroke="black" cx="890.447" cy="-162" rx="38.9931" ry="18"/>
<text text-anchor="middle" x="890.447" y="-158.3" font-family="Times New Roman,serif" font-size="14.00">NotNull</text>
</g>
<!-- SceneLoaderBehaviour&#45;&gt;NotNull -->
<g id="edge14" class="edge"><title>SceneLoaderBehaviour&#45;&gt;NotNull</title>
<path fill="none" stroke="black" d="M760.925,-217.291C788.453,-205.752 825.685,-190.146 853.166,-178.627"/>
<polygon fill="black" stroke="black" points="854.578,-181.83 862.448,-174.736 851.872,-175.374 854.578,-181.83"/>
</g>
<!-- SceneLoaderBehaviour&#45;&gt;MonoBehaviour -->
<g id="edge12" class="edge"><title>SceneLoaderBehaviour&#45;&gt;MonoBehaviour</title>
<path fill="none" stroke="black" stroke-width="2" d="M756.376,-216.939C771.532,-208.003 788.532,-195.53 799.447,-180 812.276,-161.746 818.25,-136.979 821.03,-118.206"/>
<polygon fill="black" stroke="black" stroke-width="2" points="824.512,-118.568 822.298,-108.207 817.568,-117.687 824.512,-118.568"/>
</g>
<!-- GameState -->
<g id="node9" class="node"><title>GameState</title>
<ellipse fill="none" stroke="black" cx="364.447" cy="-234" rx="50.0912" ry="18"/>
<text text-anchor="middle" x="364.447" y="-230.3" font-family="Times New Roman,serif" font-size="14.00">GameState</text>
</g>
<!-- GameState&#45;&gt;ISceneLoader -->
<g id="edge19" class="edge"><title>GameState&#45;&gt;ISceneLoader</title>
<path fill="none" stroke="black" d="M401.432,-221.711C408.695,-219.673 416.284,-217.669 423.447,-216 511.835,-195.409 535.613,-198.574 624.447,-180 629.512,-178.941 634.768,-177.787 640.024,-176.596"/>
<polygon fill="black" stroke="black" points="641.127,-179.934 650.083,-174.274 639.552,-173.113 641.127,-179.934"/>
</g>
<!-- GameState&#45;&gt;ICanBeActivated -->
<g id="edge18" class="edge"><title>GameState&#45;&gt;ICanBeActivated</title>
<path fill="none" stroke="black" d="M362.602,-215.997C361.443,-196.22 362.746,-163.763 380.447,-144 405.244,-116.314 443.745,-102.797 478.697,-96.3102"/>
<polygon fill="black" stroke="black" points="479.647,-99.6996 488.927,-94.588 478.484,-92.7968 479.647,-99.6996"/>
</g>
<!-- GameState&#45;&gt;IFadeIn -->
<g id="edge17" class="edge"><title>GameState&#45;&gt;IFadeIn</title>
<path fill="none" stroke="black" d="M348.212,-216.765C339.071,-207.624 327.507,-196.06 317.447,-186"/>
<polygon fill="black" stroke="black" points="319.659,-183.262 310.113,-178.666 314.709,-188.212 319.659,-183.262"/>
</g>
<!-- GameState&#45;&gt;TimerCollection -->
<g id="edge16" class="edge"><title>GameState&#45;&gt;TimerCollection</title>
<path fill="none" stroke="black" d="M327.21,-221.908C288.347,-210.332 227.043,-192.071 182.989,-178.949"/>
<polygon fill="black" stroke="black" points="183.89,-175.565 173.307,-176.065 181.892,-182.274 183.89,-175.565"/>
</g>
<!-- IEventBus -->
<g id="node22" class="node"><title>IEventBus</title>
<ellipse fill="none" stroke="black" stroke-dasharray="5,2" cx="437.447" cy="-162" rx="48.1917" ry="18"/>
<text text-anchor="middle" x="437.447" y="-158.3" font-family="Times New Roman,serif" font-size="14.00">IEventBus</text>
</g>
<!-- GameState&#45;&gt;IEventBus -->
<g id="edge15" class="edge"><title>GameState&#45;&gt;IEventBus</title>
<path fill="none" stroke="black" stroke-dasharray="5,2" d="M381.378,-216.765C390.936,-207.6 403.035,-195.998 413.546,-185.919"/>
<polygon fill="black" stroke="black" points="416.064,-188.353 420.859,-178.906 411.219,-183.301 416.064,-188.353"/>
</g>
<!-- TimerNotFoundException -->
<g id="node10" class="node"><title>TimerNotFoundException</title>
<ellipse fill="none" stroke="black" cx="264.447" cy="-90" rx="106.681" ry="18"/>
<text text-anchor="middle" x="264.447" y="-86.3" font-family="Times New Roman,serif" font-size="14.00">TimerNotFoundException</text>
</g>
<!-- Exception -->
<g id="node21" class="node"><title>Exception</title>
<ellipse fill="none" stroke="black" cx="264.447" cy="-18" rx="47.3916" ry="18"/>
<text text-anchor="middle" x="264.447" y="-14.3" font-family="Times New Roman,serif" font-size="14.00">Exception</text>
</g>
<!-- TimerNotFoundException&#45;&gt;Exception -->
<g id="edge20" class="edge"><title>TimerNotFoundException&#45;&gt;Exception</title>
<path fill="none" stroke="black" stroke-width="2" d="M264.447,-71.6966C264.447,-63.9827 264.447,-54.7125 264.447,-46.1124"/>
<polygon fill="black" stroke="black" stroke-width="2" points="267.947,-46.1043 264.447,-36.1043 260.947,-46.1044 267.947,-46.1043"/>
</g>
<!-- GameStateBehaviour -->
<g id="node12" class="node"><title>GameStateBehaviour</title>
<ellipse fill="none" stroke="black" cx="723.447" cy="-306" rx="87.1846" ry="18"/>
<text text-anchor="middle" x="723.447" y="-302.3" font-family="Times New Roman,serif" font-size="14.00">GameStateBehaviour</text>
</g>
<!-- GameStateBehaviour&#45;&gt;PauseMenuBehaviour -->
<g id="edge24" class="edge"><title>GameStateBehaviour&#45;&gt;PauseMenuBehaviour</title>
<path fill="none" stroke="black" d="M680.608,-290.155C649.408,-279.343 606.975,-264.638 573.768,-253.131"/>
<polygon fill="black" stroke="black" points="574.819,-249.791 564.224,-249.824 572.527,-256.405 574.819,-249.791"/>
</g>
<!-- GameStateBehaviour&#45;&gt;FadeInBehaviour -->
<g id="edge23" class="edge"><title>GameStateBehaviour&#45;&gt;FadeInBehaviour</title>
<path fill="none" stroke="black" d="M647.292,-297.156C563.311,-288.085 424.32,-271.827 305.447,-252 299.236,-250.964 292.779,-249.792 286.337,-248.559"/>
<polygon fill="black" stroke="black" points="286.752,-245.074 276.265,-246.584 285.405,-251.943 286.752,-245.074"/>
</g>
<!-- GameStateBehaviour&#45;&gt;SceneLoaderBehaviour -->
<g id="edge26" class="edge"><title>GameStateBehaviour&#45;&gt;SceneLoaderBehaviour</title>
<path fill="none" stroke="black" d="M723.447,-287.697C723.447,-279.983 723.447,-270.712 723.447,-262.112"/>
<polygon fill="black" stroke="black" points="726.947,-262.104 723.447,-252.104 719.947,-262.104 726.947,-262.104"/>
</g>
<!-- GameStateBehaviour&#45;&gt;GameState -->
<g id="edge22" class="edge"><title>GameStateBehaviour&#45;&gt;GameState</title>
<path fill="none" stroke="black" d="M654.518,-294.944C593.441,-285.53 502.022,-270.207 423.447,-252 419.416,-251.066 415.252,-250.025 411.087,-248.93"/>
<polygon fill="black" stroke="black" points="411.997,-245.55 401.429,-246.303 410.16,-252.305 411.997,-245.55"/>
</g>
<!-- GameStateBehaviour&#45;&gt;NotNull -->
<g id="edge27" class="edge"><title>GameStateBehaviour&#45;&gt;NotNull</title>
<path fill="none" stroke="black" d="M763.73,-289.931C784.251,-280.968 808.747,-268.173 827.447,-252 848.242,-234.015 865.719,-207.791 876.95,-188.466"/>
<polygon fill="black" stroke="black" points="880.086,-190.029 881.948,-179.599 873.989,-186.591 880.086,-190.029"/>
</g>
<!-- ChargeEffectBehaviour -->
<g id="node17" class="node"><title>ChargeEffectBehaviour</title>
<ellipse fill="none" stroke="black" cx="969.447" cy="-234" rx="94.7833" ry="18"/>
<text text-anchor="middle" x="969.447" y="-230.3" font-family="Times New Roman,serif" font-size="14.00">ChargeEffectBehaviour</text>
</g>
<!-- GameStateBehaviour&#45;&gt;ChargeEffectBehaviour -->
<g id="edge25" class="edge"><title>GameStateBehaviour&#45;&gt;ChargeEffectBehaviour</title>
<path fill="none" stroke="black" d="M772.343,-291.087C811.648,-279.902 867.048,-264.138 909.11,-252.169"/>
<polygon fill="black" stroke="black" points="910.293,-255.471 918.954,-249.368 908.377,-248.739 910.293,-255.471"/>
</g>
<!-- GameStateBehaviour&#45;&gt;MonoBehaviour -->
<g id="edge21" class="edge"><title>GameStateBehaviour&#45;&gt;MonoBehaviour</title>
<path fill="none" stroke="black" stroke-width="2" d="M810.475,-304.294C902.897,-301.478 1040.19,-290.675 1073.45,-252 1135.72,-179.585 977.415,-127.75 884.827,-104.57"/>
<polygon fill="black" stroke="black" stroke-width="2" points="885.528,-101.138 874.981,-102.151 883.857,-107.936 885.528,-101.138"/>
</g>
<!-- ChargeEffectBehaviour&#45;&gt;BarBehaviour -->
<g id="edge28" class="edge"><title>ChargeEffectBehaviour&#45;&gt;BarBehaviour</title>
<path fill="none" stroke="black" stroke-width="2" d="M1014.45,-218.069C1049.08,-206.581 1096.84,-190.737 1132.24,-178.992"/>
<polygon fill="black" stroke="black" stroke-width="2" points="1133.49,-182.266 1141.88,-175.795 1131.29,-175.622 1133.49,-182.266"/>
</g>
<!-- ChargeEffectBehaviour&#45;&gt;NotNull -->
<g id="edge30" class="edge"><title>ChargeEffectBehaviour&#45;&gt;NotNull</title>
<path fill="none" stroke="black" d="M950.323,-216.055C939.887,-206.808 926.839,-195.246 915.589,-185.277"/>
<polygon fill="black" stroke="black" points="917.583,-182.369 907.778,-178.356 912.941,-187.608 917.583,-182.369"/>
</g>
<!-- ChargeEffectBehaviour&#45;&gt;ICanBeActivated -->
<g id="edge29" class="edge"><title>ChargeEffectBehaviour&#45;&gt;ICanBeActivated</title>
<path fill="none" stroke="black" stroke-dasharray="5,2" d="M968.616,-215.951C966.64,-195.498 960.074,-161.751 938.447,-144 915.616,-125.261 741.626,-106.982 637.496,-97.5657"/>
<polygon fill="black" stroke="black" points="637.607,-94.0616 627.334,-96.6548 636.982,-101.034 637.607,-94.0616"/>
</g>
<!-- TimerCollection&#45;&gt;Timer -->
<g id="edge31" class="edge"><title>TimerCollection&#45;&gt;Timer</title>
<path fill="none" stroke="black" d="M114.923,-144.055C107.336,-135.204 97.9309,-124.231 89.6462,-114.566"/>
<polygon fill="black" stroke="black" points="92.1804,-112.144 83.015,-106.829 86.8656,-116.7 92.1804,-112.144"/>
</g>
<!-- TimerCollection&#45;&gt;TimerNotFoundException -->
<g id="edge33" class="edge"><title>TimerCollection&#45;&gt;TimerNotFoundException</title>
<path fill="none" stroke="black" d="M159.073,-145.638C178.14,-135.752 203.167,-122.775 224.046,-111.949"/>
<polygon fill="black" stroke="black" points="225.743,-115.011 233.01,-107.301 222.521,-108.797 225.743,-115.011"/>
</g>
<!-- TimerCollection&#45;&gt;Callback -->
<g id="edge32" class="edge"><title>TimerCollection&#45;&gt;Callback</title>
<path fill="none" stroke="black" d="M129.447,-143.871C129.447,-119.67 129.447,-75.2108 129.447,-46.3932"/>
<polygon fill="black" stroke="black" points="132.947,-46.1892 129.447,-36.1893 125.947,-46.1893 132.947,-46.1892"/>
</g>
</g>
</svg>
