<?xml version="1.0" encoding="UTF-8" standalone="no"?>
<!DOCTYPE svg PUBLIC "-//W3C//DTD SVG 1.1//EN"
 "http://www.w3.org/Graphics/SVG/1.1/DTD/svg11.dtd">
<!-- Generated by graphviz version 2.38.0 (20140413.2041)
 -->
<!-- Title: %3 Pages: 1 -->
<svg width="1230pt" height="332pt"
 viewBox="0.00 0.00 1230.25 332.00" xmlns="http://www.w3.org/2000/svg" xmlns:xlink="http://www.w3.org/1999/xlink">
<g id="graph0" class="graph" transform="scale(1 1) rotate(0) translate(4 328)">
<title>%3</title>
<polygon fill="white" stroke="none" points="-4,4 -4,-328 1226.25,-328 1226.25,4 -4,4"/>
<!-- TimerNotFoundException -->
<g id="node1" class="node"><title>TimerNotFoundException</title>
<ellipse fill="none" stroke="black" cx="1115.66" cy="-90" rx="106.681" ry="18"/>
<text text-anchor="middle" x="1115.66" y="-86.3" font-family="Times New Roman,serif" font-size="14.00">TimerNotFoundException</text>
</g>
<!-- Exception -->
<g id="node7" class="node"><title>Exception</title>
<ellipse fill="none" stroke="black" cx="1115.66" cy="-18" rx="47.3916" ry="18"/>
<text text-anchor="middle" x="1115.66" y="-14.3" font-family="Times New Roman,serif" font-size="14.00">Exception</text>
</g>
<!-- TimerNotFoundException&#45;&gt;Exception -->
<g id="edge1" class="edge"><title>TimerNotFoundException&#45;&gt;Exception</title>
<path fill="none" stroke="black" stroke-width="2" d="M1115.66,-71.6966C1115.66,-63.9827 1115.66,-54.7125 1115.66,-46.1124"/>
<polygon fill="black" stroke="black" stroke-width="2" points="1119.16,-46.1043 1115.66,-36.1043 1112.16,-46.1044 1119.16,-46.1043"/>
</g>
<!-- MonoBehaviour -->
<g id="node2" class="node"><title>MonoBehaviour</title>
<ellipse fill="none" stroke="black" cx="337.66" cy="-162" rx="69.5877" ry="18"/>
<text text-anchor="middle" x="337.66" y="-158.3" font-family="Times New Roman,serif" font-size="14.00">MonoBehaviour</text>
</g>
<!-- ICameraManipulator -->
<g id="node3" class="node"><title>ICameraManipulator</title>
<ellipse fill="none" stroke="black" stroke-dasharray="5,2" cx="651.66" cy="-162" rx="85.2851" ry="18"/>
<text text-anchor="middle" x="651.66" y="-158.3" font-family="Times New Roman,serif" font-size="14.00">ICameraManipulator</text>
</g>
<!-- IFadeIn -->
<g id="node4" class="node"><title>IFadeIn</title>
<ellipse fill="none" stroke="black" stroke-dasharray="5,2" cx="793.66" cy="-162" rx="38.9931" ry="18"/>
<text text-anchor="middle" x="793.66" y="-158.3" font-family="Times New Roman,serif" font-size="14.00">IFadeIn</text>
</g>
<!-- GameStateBehaviour -->
<g id="node5" class="node"><title>GameStateBehaviour</title>
<ellipse fill="none" stroke="black" cx="345.66" cy="-306" rx="87.1846" ry="18"/>
<text text-anchor="middle" x="345.66" y="-302.3" font-family="Times New Roman,serif" font-size="14.00">GameStateBehaviour</text>
</g>
<!-- GameStateBehaviour&#45;&gt;MonoBehaviour -->
<g id="edge2" class="edge"><title>GameStateBehaviour&#45;&gt;MonoBehaviour</title>
<path fill="none" stroke="black" stroke-width="2" d="M293.856,-291.384C273.957,-283.352 253.254,-270.921 241.66,-252 233.301,-238.357 233.528,-229.779 241.66,-216 251.213,-199.815 267.673,-188.231 284.294,-180.106"/>
<polygon fill="black" stroke="black" stroke-width="2" points="285.832,-183.252 293.501,-175.942 282.947,-176.874 285.832,-183.252"/>
</g>
<!-- NotNull -->
<g id="node8" class="node"><title>NotNull</title>
<ellipse fill="#e5e5e5" stroke="black" cx="210.66" cy="-162" rx="38.9931" ry="18"/>
<text text-anchor="middle" x="210.66" y="-158.3" font-family="Times New Roman,serif" font-size="14.00">NotNull</text>
</g>
<!-- GameStateBehaviour&#45;&gt;NotNull -->
<g id="edge8" class="edge"><title>GameStateBehaviour&#45;&gt;NotNull</title>
<path fill="none" stroke="black" d="M259.159,-303.756C169.924,-300.422 39.4173,-289.125 7.66023,-252 -2.74031,-239.842 -2.29174,-228.528 7.66023,-216 51.6495,-160.623 94.7765,-199.836 162.66,-180 165.62,-179.135 168.663,-178.191 171.714,-177.204"/>
<polygon fill="black" stroke="black" points="173.019,-180.458 181.384,-173.955 170.79,-173.822 173.019,-180.458"/>
</g>
<!-- PauseMenuBehaviour -->
<g id="node12" class="node"><title>PauseMenuBehaviour</title>
<ellipse fill="none" stroke="black" cx="105.66" cy="-234" rx="89.0842" ry="18"/>
<text text-anchor="middle" x="105.66" y="-230.3" font-family="Times New Roman,serif" font-size="14.00">PauseMenuBehaviour</text>
</g>
<!-- GameStateBehaviour&#45;&gt;PauseMenuBehaviour -->
<g id="edge5" class="edge"><title>GameStateBehaviour&#45;&gt;PauseMenuBehaviour</title>
<path fill="none" stroke="black" d="M297.381,-290.919C258.939,-279.706 204.985,-263.97 164.103,-252.046"/>
<polygon fill="black" stroke="black" points="164.853,-248.619 154.273,-249.179 162.893,-255.339 164.853,-248.619"/>
</g>
<!-- SceneLoaderBehaviour -->
<g id="node15" class="node"><title>SceneLoaderBehaviour</title>
<ellipse fill="none" stroke="black" cx="345.66" cy="-234" rx="94.7833" ry="18"/>
<text text-anchor="middle" x="345.66" y="-230.3" font-family="Times New Roman,serif" font-size="14.00">SceneLoaderBehaviour</text>
</g>
<!-- GameStateBehaviour&#45;&gt;SceneLoaderBehaviour -->
<g id="edge7" class="edge"><title>GameStateBehaviour&#45;&gt;SceneLoaderBehaviour</title>
<path fill="none" stroke="black" d="M345.66,-287.697C345.66,-279.983 345.66,-270.712 345.66,-262.112"/>
<polygon fill="black" stroke="black" points="349.16,-262.104 345.66,-252.104 342.16,-262.104 349.16,-262.104"/>
</g>
<!-- FadeInBehaviour -->
<g id="node16" class="node"><title>FadeInBehaviour</title>
<ellipse fill="none" stroke="black" cx="785.66" cy="-234" rx="72.5877" ry="18"/>
<text text-anchor="middle" x="785.66" y="-230.3" font-family="Times New Roman,serif" font-size="14.00">FadeInBehaviour</text>
</g>
<!-- GameStateBehaviour&#45;&gt;FadeInBehaviour -->
<g id="edge4" class="edge"><title>GameStateBehaviour&#45;&gt;FadeInBehaviour</title>
<path fill="none" stroke="black" d="M417.176,-295.644C489.581,-285.882 604.68,-269.572 703.66,-252 709.86,-250.899 716.31,-249.684 722.747,-248.425"/>
<polygon fill="black" stroke="black" points="723.69,-251.806 732.814,-246.421 722.323,-244.941 723.69,-251.806"/>
</g>
<!-- CameraManipulatorBehaviour -->
<g id="node18" class="node"><title>CameraManipulatorBehaviour</title>
<ellipse fill="none" stroke="black" cx="576.66" cy="-234" rx="118.079" ry="18"/>
<text text-anchor="middle" x="576.66" y="-230.3" font-family="Times New Roman,serif" font-size="14.00">CameraManipulatorBehaviour</text>
</g>
<!-- GameStateBehaviour&#45;&gt;CameraManipulatorBehaviour -->
<g id="edge6" class="edge"><title>GameStateBehaviour&#45;&gt;CameraManipulatorBehaviour</title>
<path fill="none" stroke="black" d="M392.685,-290.75C428.438,-279.916 477.893,-264.93 516.524,-253.223"/>
<polygon fill="black" stroke="black" points="517.542,-256.572 526.097,-250.322 515.512,-249.873 517.542,-256.572"/>
</g>
<!-- GameState -->
<g id="node19" class="node"><title>GameState</title>
<ellipse fill="none" stroke="black" cx="926.66" cy="-234" rx="50.0912" ry="18"/>
<text text-anchor="middle" x="926.66" y="-230.3" font-family="Times New Roman,serif" font-size="14.00">GameState</text>
</g>
<!-- GameStateBehaviour&#45;&gt;GameState -->
<g id="edge3" class="edge"><title>GameStateBehaviour&#45;&gt;GameState</title>
<path fill="none" stroke="black" d="M429.507,-301.124C533.193,-295.27 714.723,-281.549 867.66,-252 871.84,-251.192 876.152,-250.223 880.452,-249.162"/>
<polygon fill="black" stroke="black" points="881.615,-252.476 890.4,-246.553 879.839,-245.705 881.615,-252.476"/>
</g>
<!-- TimerCollection -->
<g id="node6" class="node"><title>TimerCollection</title>
<ellipse fill="none" stroke="black" cx="958.66" cy="-162" rx="69.5877" ry="18"/>
<text text-anchor="middle" x="958.66" y="-158.3" font-family="Times New Roman,serif" font-size="14.00">TimerCollection</text>
</g>
<!-- TimerCollection&#45;&gt;TimerNotFoundException -->
<g id="edge11" class="edge"><title>TimerCollection&#45;&gt;TimerNotFoundException</title>
<path fill="none" stroke="black" d="M991.956,-146.155C1014.78,-135.977 1045.35,-122.35 1070.38,-111.188"/>
<polygon fill="black" stroke="black" points="1071.97,-114.312 1079.68,-107.043 1069.12,-107.919 1071.97,-114.312"/>
</g>
<!-- Callback -->
<g id="node11" class="node"><title>Callback</title>
<ellipse fill="#e5e5e5" stroke="black" cx="898.66" cy="-18" rx="42.4939" ry="18"/>
<text text-anchor="middle" x="898.66" y="-14.3" font-family="Times New Roman,serif" font-size="14.00">Callback</text>
</g>
<!-- TimerCollection&#45;&gt;Callback -->
<g id="edge10" class="edge"><title>TimerCollection&#45;&gt;Callback</title>
<path fill="none" stroke="black" d="M942.452,-144.166C933.857,-134.344 923.829,-121.297 917.66,-108 908.545,-88.3513 903.743,-64.2234 901.25,-46.0487"/>
<polygon fill="black" stroke="black" points="904.723,-45.6149 900.033,-36.1145 897.775,-46.4659 904.723,-45.6149"/>
</g>
<!-- Timer -->
<g id="node20" class="node"><title>Timer</title>
<ellipse fill="none" stroke="black" cx="958.66" cy="-90" rx="32.4942" ry="18"/>
<text text-anchor="middle" x="958.66" y="-86.3" font-family="Times New Roman,serif" font-size="14.00">Timer</text>
</g>
<!-- TimerCollection&#45;&gt;Timer -->
<g id="edge9" class="edge"><title>TimerCollection&#45;&gt;Timer</title>
<path fill="none" stroke="black" d="M958.66,-143.697C958.66,-135.983 958.66,-126.712 958.66,-118.112"/>
<polygon fill="black" stroke="black" points="962.16,-118.104 958.66,-108.104 955.16,-118.104 962.16,-118.104"/>
</g>
<!-- ICanBeActivated -->
<g id="node9" class="node"><title>ICanBeActivated</title>
<ellipse fill="none" stroke="black" stroke-dasharray="5,2" cx="447.66" cy="-90" rx="72.5877" ry="18"/>
<text text-anchor="middle" x="447.66" y="-86.3" font-family="Times New Roman,serif" font-size="14.00">ICanBeActivated</text>
</g>
<!-- ISceneLoader -->
<g id="node10" class="node"><title>ISceneLoader</title>
<ellipse fill="none" stroke="black" stroke-dasharray="5,2" cx="486.66" cy="-162" rx="61.99" ry="18"/>
<text text-anchor="middle" x="486.66" y="-158.3" font-family="Times New Roman,serif" font-size="14.00">ISceneLoader</text>
</g>
<!-- PauseMenuBehaviour&#45;&gt;MonoBehaviour -->
<g id="edge12" class="edge"><title>PauseMenuBehaviour&#45;&gt;MonoBehaviour</title>
<path fill="none" stroke="black" stroke-width="2" d="M153.169,-218.666C191.299,-207.161 244.81,-191.015 284.389,-179.073"/>
<polygon fill="black" stroke="black" stroke-width="2" points="285.571,-182.373 294.133,-176.133 283.549,-175.671 285.571,-182.373"/>
</g>
<!-- IPauseMenu -->
<g id="node14" class="node"><title>IPauseMenu</title>
<ellipse fill="none" stroke="black" stroke-dasharray="5,2" cx="97.6602" cy="-162" rx="55.7903" ry="18"/>
<text text-anchor="middle" x="97.6602" y="-158.3" font-family="Times New Roman,serif" font-size="14.00">IPauseMenu</text>
</g>
<!-- PauseMenuBehaviour&#45;&gt;IPauseMenu -->
<g id="edge13" class="edge"><title>PauseMenuBehaviour&#45;&gt;IPauseMenu</title>
<path fill="none" stroke="black" stroke-dasharray="5,2" d="M103.683,-215.697C102.801,-207.983 101.742,-198.712 100.759,-190.112"/>
<polygon fill="black" stroke="black" points="104.228,-189.642 99.615,-180.104 97.2732,-190.437 104.228,-189.642"/>
</g>
<!-- Debug -->
<g id="node13" class="node"><title>Debug</title>
<ellipse fill="#e5e5e5" stroke="black" cx="993.66" cy="-18" rx="34.394" ry="18"/>
<text text-anchor="middle" x="993.66" y="-14.3" font-family="Times New Roman,serif" font-size="14.00">Debug</text>
</g>
<!-- IPauseMenu&#45;&gt;ICanBeActivated -->
<g id="edge14" class="edge"><title>IPauseMenu&#45;&gt;ICanBeActivated</title>
<path fill="none" stroke="black" stroke-dasharray="5,2" d="M138.814,-149.76C146.705,-147.74 154.919,-145.73 162.66,-144 235.984,-127.616 320.709,-112.317 378.603,-102.41"/>
<polygon fill="black" stroke="black" points="379.462,-105.814 388.732,-100.684 378.286,-98.9131 379.462,-105.814"/>
</g>
<!-- SceneLoaderBehaviour&#45;&gt;MonoBehaviour -->
<g id="edge15" class="edge"><title>SceneLoaderBehaviour&#45;&gt;MonoBehaviour</title>
<path fill="none" stroke="black" stroke-width="2" d="M343.683,-215.697C342.801,-207.983 341.742,-198.712 340.759,-190.112"/>
<polygon fill="black" stroke="black" stroke-width="2" points="344.228,-189.642 339.615,-180.104 337.273,-190.437 344.228,-189.642"/>
</g>
<!-- SceneLoaderBehaviour&#45;&gt;NotNull -->
<g id="edge17" class="edge"><title>SceneLoaderBehaviour&#45;&gt;NotNull</title>
<path fill="none" stroke="black" d="M314.689,-216.941C293.803,-206.111 266.241,-191.819 244.734,-180.668"/>
<polygon fill="black" stroke="black" points="246.114,-177.441 235.625,-175.945 242.892,-183.655 246.114,-177.441"/>
</g>
<!-- SceneLoaderBehaviour&#45;&gt;ISceneLoader -->
<g id="edge16" class="edge"><title>SceneLoaderBehaviour&#45;&gt;ISceneLoader</title>
<path fill="none" stroke="black" stroke-dasharray="5,2" d="M378.008,-216.941C398.782,-206.628 425.879,-193.175 447.816,-182.284"/>
<polygon fill="black" stroke="black" points="449.468,-185.372 456.868,-177.79 446.355,-179.102 449.468,-185.372"/>
</g>
<!-- FadeInBehaviour&#45;&gt;MonoBehaviour -->
<g id="edge18" class="edge"><title>FadeInBehaviour&#45;&gt;MonoBehaviour</title>
<path fill="none" stroke="black" stroke-width="2" d="M733.284,-221.49C723.466,-219.518 713.27,-217.594 703.66,-216 576.403,-194.89 542.808,-201.757 415.66,-180 409.884,-179.012 403.888,-177.886 397.903,-176.695"/>
<polygon fill="black" stroke="black" stroke-width="2" points="398.379,-173.22 387.88,-174.643 396.975,-180.078 398.379,-173.22"/>
</g>
<!-- FadeInBehaviour&#45;&gt;IFadeIn -->
<g id="edge19" class="edge"><title>FadeInBehaviour&#45;&gt;IFadeIn</title>
<path fill="none" stroke="black" stroke-dasharray="5,2" d="M787.638,-215.697C788.519,-207.983 789.579,-198.712 790.562,-190.112"/>
<polygon fill="black" stroke="black" points="794.047,-190.437 791.705,-180.104 787.093,-189.642 794.047,-190.437"/>
</g>
<!-- FadeInBehaviour&#45;&gt;TimerCollection -->
<g id="edge20" class="edge"><title>FadeInBehaviour&#45;&gt;TimerCollection</title>
<path fill="none" stroke="black" d="M821.927,-218.326C848.543,-207.556 884.87,-192.857 913.391,-181.317"/>
<polygon fill="black" stroke="black" points="914.781,-184.53 922.738,-177.535 912.155,-178.041 914.781,-184.53"/>
</g>
<!-- IEventBus -->
<g id="node17" class="node"><title>IEventBus</title>
<ellipse fill="none" stroke="black" stroke-dasharray="5,2" cx="1094.66" cy="-162" rx="48.1917" ry="18"/>
<text text-anchor="middle" x="1094.66" y="-158.3" font-family="Times New Roman,serif" font-size="14.00">IEventBus</text>
</g>
<!-- CameraManipulatorBehaviour&#45;&gt;MonoBehaviour -->
<g id="edge21" class="edge"><title>CameraManipulatorBehaviour&#45;&gt;MonoBehaviour</title>
<path fill="none" stroke="black" stroke-width="2" d="M524.801,-217.811C485.44,-206.283 431.48,-190.479 391.613,-178.802"/>
<polygon fill="black" stroke="black" stroke-width="2" points="392.38,-175.38 381.799,-175.928 390.412,-182.097 392.38,-175.38"/>
</g>
<!-- CameraManipulatorBehaviour&#45;&gt;ICameraManipulator -->
<g id="edge22" class="edge"><title>CameraManipulatorBehaviour&#45;&gt;ICameraManipulator</title>
<path fill="none" stroke="black" stroke-dasharray="5,2" d="M594.816,-216.055C604.212,-207.285 615.84,-196.432 626.127,-186.831"/>
<polygon fill="black" stroke="black" points="628.75,-189.171 633.672,-179.789 623.973,-184.054 628.75,-189.171"/>
</g>
<!-- GameState&#45;&gt;ICameraManipulator -->
<g id="edge28" class="edge"><title>GameState&#45;&gt;ICameraManipulator</title>
<path fill="none" stroke="black" d="M889.269,-221.983C882.11,-219.942 874.664,-217.868 867.66,-216 816.953,-202.479 759.204,-188.376 716.184,-178.12"/>
<polygon fill="black" stroke="black" points="716.948,-174.704 706.409,-175.796 715.328,-181.514 716.948,-174.704"/>
</g>
<!-- GameState&#45;&gt;IFadeIn -->
<g id="edge25" class="edge"><title>GameState&#45;&gt;IFadeIn</title>
<path fill="none" stroke="black" d="M899.425,-218.666C878.677,-207.746 849.986,-192.645 827.72,-180.926"/>
<polygon fill="black" stroke="black" points="829.092,-177.693 818.613,-176.133 825.832,-183.888 829.092,-177.693"/>
</g>
<!-- GameState&#45;&gt;TimerCollection -->
<g id="edge24" class="edge"><title>GameState&#45;&gt;TimerCollection</title>
<path fill="none" stroke="black" d="M934.407,-216.055C938.047,-208.091 942.472,-198.411 946.542,-189.51"/>
<polygon fill="black" stroke="black" points="949.788,-190.825 950.763,-180.275 943.422,-187.915 949.788,-190.825"/>
</g>
<!-- GameState&#45;&gt;ICanBeActivated -->
<g id="edge26" class="edge"><title>GameState&#45;&gt;ICanBeActivated</title>
<path fill="none" stroke="black" d="M911.992,-216.499C890.063,-192.009 850.371,-148.436 841.66,-144 788.423,-116.887 627.002,-102.206 528.065,-95.5428"/>
<polygon fill="black" stroke="black" points="528.013,-92.0318 517.804,-94.8652 527.552,-99.0166 528.013,-92.0318"/>
</g>
<!-- GameState&#45;&gt;ISceneLoader -->
<g id="edge27" class="edge"><title>GameState&#45;&gt;ISceneLoader</title>
<path fill="none" stroke="black" d="M890.383,-221.531C882.923,-219.46 875.081,-217.489 867.66,-216 731.669,-188.706 694.238,-204.192 557.66,-180 552.278,-179.047 546.694,-177.932 541.13,-176.738"/>
<polygon fill="black" stroke="black" points="541.704,-173.28 531.182,-174.519 540.18,-180.112 541.704,-173.28"/>
</g>
<!-- GameState&#45;&gt;IEventBus -->
<g id="edge23" class="edge"><title>GameState&#45;&gt;IEventBus</title>
<path fill="none" stroke="black" stroke-dasharray="5,2" d="M958.26,-219.834C985.416,-208.519 1024.74,-192.135 1054.19,-179.862"/>
<polygon fill="black" stroke="black" points="1055.89,-182.948 1063.77,-175.871 1053.19,-176.486 1055.89,-182.948"/>
</g>
<!-- Timer&#45;&gt;Callback -->
<g id="edge29" class="edge"><title>Timer&#45;&gt;Callback</title>
<path fill="none" stroke="black" d="M945.344,-73.4647C937.717,-64.5657 927.979,-53.2051 919.373,-43.1644"/>
<polygon fill="black" stroke="black" points="921.94,-40.782 912.775,-35.4672 916.625,-45.3376 921.94,-40.782"/>
</g>
<!-- Timer&#45;&gt;Debug -->
<g id="edge30" class="edge"><title>Timer&#45;&gt;Debug</title>
<path fill="none" stroke="black" d="M966.955,-72.411C971.036,-64.2493 976.05,-54.2203 980.628,-45.0653"/>
<polygon fill="black" stroke="black" points="983.84,-46.4658 985.182,-35.9562 977.579,-43.3352 983.84,-46.4658"/>
</g>
</g>
</svg>
