<?xml version="1.0" encoding="UTF-8" standalone="no"?>
<!DOCTYPE svg PUBLIC "-//W3C//DTD SVG 1.1//EN"
 "http://www.w3.org/Graphics/SVG/1.1/DTD/svg11.dtd">
<!-- Generated by graphviz version 2.38.0 (20140413.2041)
 -->
<!-- Title: %3 Pages: 1 -->
<svg width="576pt" height="332pt"
 viewBox="0.00 0.00 576.46 332.00" xmlns="http://www.w3.org/2000/svg" xmlns:xlink="http://www.w3.org/1999/xlink">
<g id="graph0" class="graph" transform="scale(1 1) rotate(0) translate(4 328)">
<title>%3</title>
<polygon fill="white" stroke="none" points="-4,4 -4,-328 572.455,-328 572.455,4 -4,4"/>
<!-- ICollisionSystemParticipatorWrapper -->
<g id="node1" class="node"><title>ICollisionSystemParticipatorWrapper</title>
<ellipse fill="none" stroke="black" stroke-dasharray="5,2" cx="167.912" cy="-234" rx="146.774" ry="18"/>
<text text-anchor="middle" x="167.912" y="-230.3" font-family="Times New Roman,serif" font-size="14.00">ICollisionSystemParticipatorWrapper</text>
</g>
<!-- ICollisionSystemParticipator -->
<g id="node7" class="node"><title>ICollisionSystemParticipator</title>
<ellipse fill="none" stroke="black" stroke-dasharray="5,2" cx="167.912" cy="-90" rx="114.28" ry="18"/>
<text text-anchor="middle" x="167.912" y="-86.3" font-family="Times New Roman,serif" font-size="14.00">ICollisionSystemParticipator</text>
</g>
<!-- ICollisionSystemParticipatorWrapper&#45;&gt;ICollisionSystemParticipator -->
<g id="edge1" class="edge"><title>ICollisionSystemParticipatorWrapper&#45;&gt;ICollisionSystemParticipator</title>
<path fill="none" stroke="black" d="M163.327,-215.871C160.769,-191.67 160.477,-147.211 162.453,-118.393"/>
<polygon fill="black" stroke="black" points="165.96,-118.45 163.321,-108.189 158.985,-117.857 165.96,-118.45"/>
</g>
<!-- IGround -->
<g id="node2" class="node"><title>IGround</title>
<ellipse fill="none" stroke="black" stroke-dasharray="5,2" cx="246.912" cy="-162" rx="42.4939" ry="18"/>
<text text-anchor="middle" x="246.912" y="-158.3" font-family="Times New Roman,serif" font-size="14.00">IGround</text>
</g>
<!-- ISystemParticipator -->
<g id="node3" class="node"><title>ISystemParticipator</title>
<ellipse fill="none" stroke="black" stroke-dasharray="5,2" cx="196.912" cy="-18" rx="82.5854" ry="18"/>
<text text-anchor="middle" x="196.912" y="-14.3" font-family="Times New Roman,serif" font-size="14.00">ISystemParticipator</text>
</g>
<!-- GroundBehaviour -->
<g id="node4" class="node"><title>GroundBehaviour</title>
<ellipse fill="none" stroke="black" cx="269.912" cy="-306" rx="75.2868" ry="18"/>
<text text-anchor="middle" x="269.912" y="-302.3" font-family="Times New Roman,serif" font-size="14.00">GroundBehaviour</text>
</g>
<!-- GroundBehaviour&#45;&gt;ICollisionSystemParticipatorWrapper -->
<g id="edge3" class="edge"><title>GroundBehaviour&#45;&gt;ICollisionSystemParticipatorWrapper</title>
<path fill="none" stroke="black" stroke-dasharray="5,2" d="M246.254,-288.765C232.775,-279.514 215.677,-267.78 200.896,-257.636"/>
<polygon fill="black" stroke="black" points="202.731,-254.651 192.505,-251.878 198.77,-260.422 202.731,-254.651"/>
</g>
<!-- Ground -->
<g id="node5" class="node"><title>Ground</title>
<ellipse fill="none" stroke="black" cx="371.912" cy="-234" rx="38.9931" ry="18"/>
<text text-anchor="middle" x="371.912" y="-230.3" font-family="Times New Roman,serif" font-size="14.00">Ground</text>
</g>
<!-- GroundBehaviour&#45;&gt;Ground -->
<g id="edge4" class="edge"><title>GroundBehaviour&#45;&gt;Ground</title>
<path fill="none" stroke="black" d="M293.569,-288.765C308.267,-278.678 327.267,-265.639 342.874,-254.927"/>
<polygon fill="black" stroke="black" points="344.883,-257.794 351.147,-249.25 340.922,-252.023 344.883,-257.794"/>
</g>
<!-- GroundBehaviour&#45;&gt;ICollisionSystemParticipator -->
<g id="edge5" class="edge"><title>GroundBehaviour&#45;&gt;ICollisionSystemParticipator</title>
<path fill="none" stroke="black" d="M198.35,-300.22C130.329,-294.008 35.0662,-280.395 11.9115,-252 -32.072,-198.063 61.5074,-140.922 121.93,-111.37"/>
<polygon fill="black" stroke="black" points="123.449,-114.523 130.95,-107.041 120.421,-108.212 123.449,-114.523"/>
</g>
<!-- MonoBehaviour -->
<g id="node9" class="node"><title>MonoBehaviour</title>
<ellipse fill="none" stroke="black" cx="498.912" cy="-234" rx="69.5877" ry="18"/>
<text text-anchor="middle" x="498.912" y="-230.3" font-family="Times New Roman,serif" font-size="14.00">MonoBehaviour</text>
</g>
<!-- GroundBehaviour&#45;&gt;MonoBehaviour -->
<g id="edge2" class="edge"><title>GroundBehaviour&#45;&gt;MonoBehaviour</title>
<path fill="none" stroke="black" stroke-width="2" d="M314.337,-291.42C352.067,-279.887 406.292,-263.312 446.209,-251.11"/>
<polygon fill="black" stroke="black" stroke-width="2" points="447.234,-254.456 455.774,-248.186 445.188,-247.762 447.234,-254.456"/>
</g>
<!-- Ground&#45;&gt;IGround -->
<g id="edge7" class="edge"><title>Ground&#45;&gt;IGround</title>
<path fill="none" stroke="black" stroke-dasharray="5,2" d="M348.106,-219.669C328.892,-208.909 301.634,-193.645 280.248,-181.668"/>
<polygon fill="black" stroke="black" points="281.918,-178.592 271.483,-176.76 278.498,-184.7 281.918,-178.592"/>
</g>
<!-- BaseCollisionSystemParticipator -->
<g id="node10" class="node"><title>BaseCollisionSystemParticipator</title>
<ellipse fill="none" stroke="black" cx="436.912" cy="-162" rx="129.177" ry="18"/>
<text text-anchor="middle" x="436.912" y="-158.3" font-family="Times New Roman,serif" font-size="14.00">BaseCollisionSystemParticipator</text>
</g>
<!-- Ground&#45;&gt;BaseCollisionSystemParticipator -->
<g id="edge6" class="edge"><title>Ground&#45;&gt;BaseCollisionSystemParticipator</title>
<path fill="none" stroke="black" stroke-width="2" d="M386.661,-217.116C394.7,-208.458 404.829,-197.55 413.884,-187.799"/>
<polygon fill="black" stroke="black" stroke-width="2" points="416.615,-190.002 420.855,-180.292 411.485,-185.239 416.615,-190.002"/>
</g>
<!-- SystemParticipator -->
<g id="node6" class="node"><title>SystemParticipator</title>
<ellipse fill="none" stroke="black" cx="407.912" cy="-90" rx="79.0865" ry="18"/>
<text text-anchor="middle" x="407.912" y="-86.3" font-family="Times New Roman,serif" font-size="14.00">SystemParticipator</text>
</g>
<!-- SystemParticipator&#45;&gt;ISystemParticipator -->
<g id="edge8" class="edge"><title>SystemParticipator&#45;&gt;ISystemParticipator</title>
<path fill="none" stroke="black" stroke-dasharray="5,2" d="M364.958,-74.7501C331.696,-63.7152 285.452,-48.3735 249.893,-36.5768"/>
<polygon fill="black" stroke="black" points="250.76,-33.1769 240.167,-33.35 248.556,-39.8208 250.76,-33.1769"/>
</g>
<!-- ConvertToInterface -->
<g id="node8" class="node"><title>ConvertToInterface</title>
<ellipse fill="#e5e5e5" stroke="black" cx="407.912" cy="-18" rx="82.5854" ry="18"/>
<text text-anchor="middle" x="407.912" y="-14.3" font-family="Times New Roman,serif" font-size="14.00">ConvertToInterface</text>
</g>
<!-- SystemParticipator&#45;&gt;ConvertToInterface -->
<g id="edge9" class="edge"><title>SystemParticipator&#45;&gt;ConvertToInterface</title>
<path fill="none" stroke="black" d="M407.912,-71.6966C407.912,-63.9827 407.912,-54.7125 407.912,-46.1124"/>
<polygon fill="black" stroke="black" points="411.412,-46.1043 407.912,-36.1043 404.412,-46.1044 411.412,-46.1043"/>
</g>
<!-- ICollisionSystemParticipator&#45;&gt;ICollisionSystemParticipatorWrapper -->
<g id="edge11" class="edge"><title>ICollisionSystemParticipator&#45;&gt;ICollisionSystemParticipatorWrapper</title>
<path fill="none" stroke="black" stroke-dasharray="5,2" d="M172.502,-108.189C175.057,-132.424 175.345,-176.888 173.366,-205.679"/>
<polygon fill="black" stroke="black" points="169.859,-205.61 172.496,-215.871 176.833,-206.205 169.859,-205.61"/>
</g>
<!-- ICollisionSystemParticipator&#45;&gt;ISystemParticipator -->
<g id="edge10" class="edge"><title>ICollisionSystemParticipator&#45;&gt;ISystemParticipator</title>
<path fill="none" stroke="black" stroke-dasharray="5,2" d="M175.08,-71.6966C178.346,-63.8132 182.285,-54.3042 185.914,-45.5464"/>
<polygon fill="black" stroke="black" points="189.231,-46.6825 189.825,-36.1043 182.764,-44.0033 189.231,-46.6825"/>
</g>
<!-- BaseCollisionSystemParticipator&#45;&gt;SystemParticipator -->
<g id="edge12" class="edge"><title>BaseCollisionSystemParticipator&#45;&gt;SystemParticipator</title>
<path fill="none" stroke="black" stroke-width="2" d="M429.743,-143.697C426.477,-135.813 422.538,-126.304 418.909,-117.546"/>
<polygon fill="black" stroke="black" stroke-width="2" points="422.059,-116.003 414.998,-108.104 415.592,-118.683 422.059,-116.003"/>
</g>
<!-- BaseCollisionSystemParticipator&#45;&gt;ICollisionSystemParticipator -->
<g id="edge13" class="edge"><title>BaseCollisionSystemParticipator&#45;&gt;ICollisionSystemParticipator</title>
<path fill="none" stroke="black" stroke-dasharray="5,2" d="M378.874,-145.897C336.371,-134.837 278.614,-119.807 234.278,-108.27"/>
<polygon fill="black" stroke="black" points="235.021,-104.847 224.462,-105.716 233.258,-111.621 235.021,-104.847"/>
</g>
</g>
</svg>
