<?xml version="1.0" encoding="UTF-8" standalone="no"?>
<!DOCTYPE svg PUBLIC "-//W3C//DTD SVG 1.1//EN"
 "http://www.w3.org/Graphics/SVG/1.1/DTD/svg11.dtd">
<!-- Generated by graphviz version 2.38.0 (20140413.2041)
 -->
<!-- Title: %3 Pages: 1 -->
<svg width="667pt" height="260pt"
 viewBox="0.00 0.00 667.43 260.00" xmlns="http://www.w3.org/2000/svg" xmlns:xlink="http://www.w3.org/1999/xlink">
<g id="graph0" class="graph" transform="scale(1 1) rotate(0) translate(4 256)">
<title>%3</title>
<polygon fill="white" stroke="none" points="-4,4 -4,-256 663.43,-256 663.43,4 -4,4"/>
<!-- Ground -->
<g id="node1" class="node"><title>Ground</title>
<ellipse fill="none" stroke="black" cx="279.543" cy="-162" rx="38.9931" ry="18"/>
<text text-anchor="middle" x="279.543" y="-158.3" font-family="Times New Roman,serif" font-size="14.00">Ground</text>
</g>
<!-- SystemParticipator -->
<g id="node4" class="node"><title>SystemParticipator</title>
<ellipse fill="none" stroke="black" cx="139.543" cy="-90" rx="79.0865" ry="18"/>
<text text-anchor="middle" x="139.543" y="-86.3" font-family="Times New Roman,serif" font-size="14.00">SystemParticipator</text>
</g>
<!-- Ground&#45;&gt;SystemParticipator -->
<g id="edge1" class="edge"><title>Ground&#45;&gt;SystemParticipator</title>
<path fill="none" stroke="black" stroke-width="2" d="M253.865,-148.161C233.167,-137.812 203.687,-123.072 179.848,-111.153"/>
<polygon fill="black" stroke="black" stroke-width="2" points="181.196,-107.914 170.687,-106.572 178.066,-114.175 181.196,-107.914"/>
</g>
<!-- IGround -->
<g id="node5" class="node"><title>IGround</title>
<ellipse fill="none" stroke="black" stroke-dasharray="5,2" cx="279.543" cy="-90" rx="42.4939" ry="18"/>
<text text-anchor="middle" x="279.543" y="-86.3" font-family="Times New Roman,serif" font-size="14.00">IGround</text>
</g>
<!-- Ground&#45;&gt;IGround -->
<g id="edge3" class="edge"><title>Ground&#45;&gt;IGround</title>
<path fill="none" stroke="black" stroke-dasharray="5,2" d="M279.543,-143.697C279.543,-135.983 279.543,-126.712 279.543,-118.112"/>
<polygon fill="black" stroke="black" points="283.043,-118.104 279.543,-108.104 276.043,-118.104 283.043,-118.104"/>
</g>
<!-- ICollisionSystemParticipator -->
<g id="node8" class="node"><title>ICollisionSystemParticipator</title>
<ellipse fill="none" stroke="black" stroke-dasharray="5,2" cx="454.543" cy="-90" rx="114.28" ry="18"/>
<text text-anchor="middle" x="454.543" y="-86.3" font-family="Times New Roman,serif" font-size="14.00">ICollisionSystemParticipator</text>
</g>
<!-- Ground&#45;&gt;ICollisionSystemParticipator -->
<g id="edge2" class="edge"><title>Ground&#45;&gt;ICollisionSystemParticipator</title>
<path fill="none" stroke="black" stroke-dasharray="5,2" d="M308.049,-149.597C334.293,-139.1 373.79,-123.301 405.161,-110.753"/>
<polygon fill="black" stroke="black" points="406.628,-113.936 414.613,-106.972 404.028,-107.436 406.628,-113.936"/>
</g>
<!-- ISystemParticipator -->
<g id="node2" class="node"><title>ISystemParticipator</title>
<ellipse fill="none" stroke="black" stroke-dasharray="5,2" cx="265.543" cy="-18" rx="82.5854" ry="18"/>
<text text-anchor="middle" x="265.543" y="-14.3" font-family="Times New Roman,serif" font-size="14.00">ISystemParticipator</text>
</g>
<!-- MonoBehaviour -->
<g id="node3" class="node"><title>MonoBehaviour</title>
<ellipse fill="none" stroke="black" cx="406.543" cy="-162" rx="69.5877" ry="18"/>
<text text-anchor="middle" x="406.543" y="-158.3" font-family="Times New Roman,serif" font-size="14.00">MonoBehaviour</text>
</g>
<!-- SystemParticipator&#45;&gt;ISystemParticipator -->
<g id="edge4" class="edge"><title>SystemParticipator&#45;&gt;ISystemParticipator</title>
<path fill="none" stroke="black" stroke-dasharray="5,2" d="M168.134,-73.1159C185.81,-63.2959 208.699,-50.5797 227.848,-39.9417"/>
<polygon fill="black" stroke="black" points="229.587,-42.9796 236.628,-35.0635 226.187,-36.8605 229.587,-42.9796"/>
</g>
<!-- ConvertToInterface -->
<g id="node9" class="node"><title>ConvertToInterface</title>
<ellipse fill="#e5e5e5" stroke="black" cx="82.5427" cy="-18" rx="82.5854" ry="18"/>
<text text-anchor="middle" x="82.5427" y="-14.3" font-family="Times New Roman,serif" font-size="14.00">ConvertToInterface</text>
</g>
<!-- SystemParticipator&#45;&gt;ConvertToInterface -->
<g id="edge5" class="edge"><title>SystemParticipator&#45;&gt;ConvertToInterface</title>
<path fill="none" stroke="black" d="M125.745,-72.055C118.813,-63.5427 110.284,-53.0684 102.64,-43.6815"/>
<polygon fill="black" stroke="black" points="105.242,-41.3334 96.2137,-35.789 99.814,-45.7534 105.242,-41.3334"/>
</g>
<!-- GroundBehaviour -->
<g id="node6" class="node"><title>GroundBehaviour</title>
<ellipse fill="none" stroke="black" cx="455.543" cy="-234" rx="75.2868" ry="18"/>
<text text-anchor="middle" x="455.543" y="-230.3" font-family="Times New Roman,serif" font-size="14.00">GroundBehaviour</text>
</g>
<!-- GroundBehaviour&#45;&gt;Ground -->
<g id="edge8" class="edge"><title>GroundBehaviour&#45;&gt;Ground</title>
<path fill="none" stroke="black" d="M418.218,-218.155C388.664,-206.4 347.542,-190.045 317.759,-178.2"/>
<polygon fill="black" stroke="black" points="318.712,-174.812 308.126,-174.368 316.124,-181.316 318.712,-174.812"/>
</g>
<!-- GroundBehaviour&#45;&gt;MonoBehaviour -->
<g id="edge6" class="edge"><title>GroundBehaviour&#45;&gt;MonoBehaviour</title>
<path fill="none" stroke="black" stroke-width="2" d="M443.681,-216.055C437.843,-207.715 430.686,-197.491 424.219,-188.252"/>
<polygon fill="black" stroke="black" stroke-width="2" points="426.897,-185.974 418.295,-179.789 421.162,-189.988 426.897,-185.974"/>
</g>
<!-- ICollisionSystemParticipatorWrapper -->
<g id="node7" class="node"><title>ICollisionSystemParticipatorWrapper</title>
<ellipse fill="none" stroke="black" stroke-dasharray="5,2" cx="512.543" cy="-18" rx="146.774" ry="18"/>
<text text-anchor="middle" x="512.543" y="-14.3" font-family="Times New Roman,serif" font-size="14.00">ICollisionSystemParticipatorWrapper</text>
</g>
<!-- GroundBehaviour&#45;&gt;ICollisionSystemParticipatorWrapper -->
<g id="edge7" class="edge"><title>GroundBehaviour&#45;&gt;ICollisionSystemParticipatorWrapper</title>
<path fill="none" stroke="black" stroke-dasharray="5,2" d="M480.235,-216.878C509.844,-195.897 557.933,-156.167 577.543,-108 583.576,-93.181 584.406,-86.453 577.543,-72 571.875,-60.0649 562.058,-49.9318 551.746,-41.8228"/>
<polygon fill="black" stroke="black" points="553.58,-38.828 543.439,-35.7577 549.452,-44.4814 553.58,-38.828"/>
</g>
<!-- GroundBehaviour&#45;&gt;ICollisionSystemParticipator -->
<g id="edge9" class="edge"><title>GroundBehaviour&#45;&gt;ICollisionSystemParticipator</title>
<path fill="none" stroke="black" d="M468.269,-215.845C474.829,-205.923 482.15,-192.883 485.543,-180 489.618,-164.528 489.727,-159.443 485.543,-144 482.963,-134.48 478.198,-124.917 473.165,-116.587"/>
<polygon fill="black" stroke="black" points="476.048,-114.601 467.688,-108.092 470.165,-118.393 476.048,-114.601"/>
</g>
<!-- ICollisionSystemParticipatorWrapper&#45;&gt;ICollisionSystemParticipator -->
<g id="edge10" class="edge"><title>ICollisionSystemParticipatorWrapper&#45;&gt;ICollisionSystemParticipator</title>
<path fill="none" stroke="black" d="M504.142,-36.2753C497.962,-44.7969 489.509,-55.2231 481.273,-64.5475"/>
<polygon fill="black" stroke="black" points="478.589,-62.2973 474.461,-72.055 483.773,-67.0011 478.589,-62.2973"/>
</g>
<!-- ICollisionSystemParticipator&#45;&gt;ISystemParticipator -->
<g id="edge11" class="edge"><title>ICollisionSystemParticipator&#45;&gt;ISystemParticipator</title>
<path fill="none" stroke="black" stroke-dasharray="5,2" d="M411.656,-73.1159C382.959,-62.4875 345.103,-48.4667 315.114,-37.3597"/>
<polygon fill="black" stroke="black" points="316.268,-34.055 305.675,-33.8639 313.837,-40.6193 316.268,-34.055"/>
</g>
<!-- ICollisionSystemParticipator&#45;&gt;ICollisionSystemParticipatorWrapper -->
<g id="edge12" class="edge"><title>ICollisionSystemParticipator&#45;&gt;ICollisionSystemParticipatorWrapper</title>
<path fill="none" stroke="black" stroke-dasharray="5,2" d="M462.964,-71.6966C469.113,-63.2198 477.507,-52.8636 485.697,-43.5826"/>
<polygon fill="black" stroke="black" points="488.353,-45.8643 492.475,-36.1043 483.166,-41.1632 488.353,-45.8643"/>
</g>
</g>
</svg>
