<?xml version="1.0" encoding="UTF-8" standalone="no"?>
<!DOCTYPE svg PUBLIC "-//W3C//DTD SVG 1.1//EN"
 "http://www.w3.org/Graphics/SVG/1.1/DTD/svg11.dtd">
<!-- Generated by graphviz version 2.38.0 (20140413.2041)
 -->
<!-- Title: %3 Pages: 1 -->
<svg width="719pt" height="332pt"
 viewBox="0.00 0.00 719.13 332.00" xmlns="http://www.w3.org/2000/svg" xmlns:xlink="http://www.w3.org/1999/xlink">
<g id="graph0" class="graph" transform="scale(1 1) rotate(0) translate(4 328)">
<title>%3</title>
<polygon fill="white" stroke="none" points="-4,4 -4,-328 715.133,-328 715.133,4 -4,4"/>
<!-- GroundBehaviour -->
<g id="node1" class="node"><title>GroundBehaviour</title>
<ellipse fill="none" stroke="black" cx="302.887" cy="-306" rx="75.2868" ry="18"/>
<text text-anchor="middle" x="302.887" y="-302.3" font-family="Times New Roman,serif" font-size="14.00">GroundBehaviour</text>
</g>
<!-- MonoBehaviour -->
<g id="node3" class="node"><title>MonoBehaviour</title>
<ellipse fill="none" stroke="black" cx="185.887" cy="-234" rx="69.5877" ry="18"/>
<text text-anchor="middle" x="185.887" y="-230.3" font-family="Times New Roman,serif" font-size="14.00">MonoBehaviour</text>
</g>
<!-- GroundBehaviour&#45;&gt;MonoBehaviour -->
<g id="edge1" class="edge"><title>GroundBehaviour&#45;&gt;MonoBehaviour</title>
<path fill="none" stroke="black" stroke-width="2" d="M276.338,-289.116C260.032,-279.36 238.95,-266.747 221.241,-256.152"/>
<polygon fill="black" stroke="black" stroke-width="2" points="222.709,-252.952 212.331,-250.821 219.115,-258.959 222.709,-252.952"/>
</g>
<!-- ICollisionSystemParticipatorWrapper -->
<g id="node7" class="node"><title>ICollisionSystemParticipatorWrapper</title>
<ellipse fill="none" stroke="black" stroke-dasharray="5,2" cx="146.887" cy="-162" rx="146.774" ry="18"/>
<text text-anchor="middle" x="146.887" y="-158.3" font-family="Times New Roman,serif" font-size="14.00">ICollisionSystemParticipatorWrapper</text>
</g>
<!-- GroundBehaviour&#45;&gt;ICollisionSystemParticipatorWrapper -->
<g id="edge2" class="edge"><title>GroundBehaviour&#45;&gt;ICollisionSystemParticipatorWrapper</title>
<path fill="none" stroke="black" stroke-dasharray="5,2" d="M299.512,-287.821C294.845,-268.178 284.659,-236.143 264.887,-216 250.554,-201.398 231.478,-190.477 212.85,-182.466"/>
<polygon fill="black" stroke="black" points="214.053,-179.177 203.471,-178.651 211.415,-185.661 214.053,-179.177"/>
</g>
<!-- ICollisionSystemParticipator -->
<g id="node8" class="node"><title>ICollisionSystemParticipator</title>
<ellipse fill="none" stroke="black" stroke-dasharray="5,2" cx="266.887" cy="-90" rx="114.28" ry="18"/>
<text text-anchor="middle" x="266.887" y="-86.3" font-family="Times New Roman,serif" font-size="14.00">ICollisionSystemParticipator</text>
</g>
<!-- GroundBehaviour&#45;&gt;ICollisionSystemParticipator -->
<g id="edge4" class="edge"><title>GroundBehaviour&#45;&gt;ICollisionSystemParticipator</title>
<path fill="none" stroke="black" d="M306.156,-287.588C311.092,-257.512 318.332,-194.227 302.887,-144 299.878,-134.215 294.38,-124.616 288.571,-116.334"/>
<polygon fill="black" stroke="black" points="291.294,-114.131 282.497,-108.226 285.692,-118.328 291.294,-114.131"/>
</g>
<!-- Ground -->
<g id="node10" class="node"><title>Ground</title>
<ellipse fill="none" stroke="black" cx="478.887" cy="-234" rx="38.9931" ry="18"/>
<text text-anchor="middle" x="478.887" y="-230.3" font-family="Times New Roman,serif" font-size="14.00">Ground</text>
</g>
<!-- GroundBehaviour&#45;&gt;Ground -->
<g id="edge3" class="edge"><title>GroundBehaviour&#45;&gt;Ground</title>
<path fill="none" stroke="black" d="M340.212,-290.155C369.766,-278.4 410.888,-262.045 440.671,-250.2"/>
<polygon fill="black" stroke="black" points="442.305,-253.316 450.304,-246.368 439.718,-246.812 442.305,-253.316"/>
</g>
<!-- ConvertToInterface -->
<g id="node2" class="node"><title>ConvertToInterface</title>
<ellipse fill="#e5e5e5" stroke="black" cx="478.887" cy="-18" rx="82.5854" ry="18"/>
<text text-anchor="middle" x="478.887" y="-14.3" font-family="Times New Roman,serif" font-size="14.00">ConvertToInterface</text>
</g>
<!-- ISystemParticipator -->
<g id="node4" class="node"><title>ISystemParticipator</title>
<ellipse fill="none" stroke="black" stroke-dasharray="5,2" cx="281.887" cy="-18" rx="82.5854" ry="18"/>
<text text-anchor="middle" x="281.887" y="-14.3" font-family="Times New Roman,serif" font-size="14.00">ISystemParticipator</text>
</g>
<!-- BaseCollisionSystemParticipator -->
<g id="node5" class="node"><title>BaseCollisionSystemParticipator</title>
<ellipse fill="none" stroke="black" cx="478.887" cy="-162" rx="129.177" ry="18"/>
<text text-anchor="middle" x="478.887" y="-158.3" font-family="Times New Roman,serif" font-size="14.00">BaseCollisionSystemParticipator</text>
</g>
<!-- BaseCollisionSystemParticipator&#45;&gt;ICollisionSystemParticipator -->
<g id="edge6" class="edge"><title>BaseCollisionSystemParticipator&#45;&gt;ICollisionSystemParticipator</title>
<path fill="none" stroke="black" stroke-dasharray="5,2" d="M431.046,-145.203C399.145,-134.67 357.066,-120.776 323.498,-109.692"/>
<polygon fill="black" stroke="black" points="324.417,-106.31 313.824,-106.498 322.222,-112.957 324.417,-106.31"/>
</g>
<!-- SystemParticipator -->
<g id="node9" class="node"><title>SystemParticipator</title>
<ellipse fill="none" stroke="black" cx="478.887" cy="-90" rx="79.0865" ry="18"/>
<text text-anchor="middle" x="478.887" y="-86.3" font-family="Times New Roman,serif" font-size="14.00">SystemParticipator</text>
</g>
<!-- BaseCollisionSystemParticipator&#45;&gt;SystemParticipator -->
<g id="edge5" class="edge"><title>BaseCollisionSystemParticipator&#45;&gt;SystemParticipator</title>
<path fill="none" stroke="black" stroke-width="2" d="M478.887,-143.697C478.887,-135.983 478.887,-126.712 478.887,-118.112"/>
<polygon fill="black" stroke="black" stroke-width="2" points="482.387,-118.104 478.887,-108.104 475.387,-118.104 482.387,-118.104"/>
</g>
<!-- IGround -->
<g id="node6" class="node"><title>IGround</title>
<ellipse fill="none" stroke="black" stroke-dasharray="5,2" cx="668.887" cy="-162" rx="42.4939" ry="18"/>
<text text-anchor="middle" x="668.887" y="-158.3" font-family="Times New Roman,serif" font-size="14.00">IGround</text>
</g>
<!-- ICollisionSystemParticipatorWrapper&#45;&gt;ICollisionSystemParticipator -->
<g id="edge7" class="edge"><title>ICollisionSystemParticipatorWrapper&#45;&gt;ICollisionSystemParticipator</title>
<path fill="none" stroke="black" d="M170.057,-144.055C185.491,-134.458 206.093,-122.367 224.37,-112.152"/>
<polygon fill="black" stroke="black" points="226.069,-115.212 233.123,-107.307 222.679,-109.087 226.069,-115.212"/>
</g>
<!-- ICollisionSystemParticipator&#45;&gt;ISystemParticipator -->
<g id="edge8" class="edge"><title>ICollisionSystemParticipator&#45;&gt;ISystemParticipator</title>
<path fill="none" stroke="black" stroke-dasharray="5,2" d="M270.595,-71.6966C272.248,-63.9827 274.234,-54.7125 276.077,-46.1124"/>
<polygon fill="black" stroke="black" points="279.549,-46.6157 278.222,-36.1043 272.704,-45.149 279.549,-46.6157"/>
</g>
<!-- ICollisionSystemParticipator&#45;&gt;ICollisionSystemParticipatorWrapper -->
<g id="edge9" class="edge"><title>ICollisionSystemParticipator&#45;&gt;ICollisionSystemParticipatorWrapper</title>
<path fill="none" stroke="black" stroke-dasharray="5,2" d="M244.09,-107.713C228.764,-117.254 208.226,-129.318 189.933,-139.553"/>
<polygon fill="black" stroke="black" points="188.216,-136.502 181.165,-144.411 191.608,-142.625 188.216,-136.502"/>
</g>
<!-- SystemParticipator&#45;&gt;ConvertToInterface -->
<g id="edge11" class="edge"><title>SystemParticipator&#45;&gt;ConvertToInterface</title>
<path fill="none" stroke="black" d="M478.887,-71.6966C478.887,-63.9827 478.887,-54.7125 478.887,-46.1124"/>
<polygon fill="black" stroke="black" points="482.387,-46.1043 478.887,-36.1043 475.387,-46.1044 482.387,-46.1043"/>
</g>
<!-- SystemParticipator&#45;&gt;ISystemParticipator -->
<g id="edge10" class="edge"><title>SystemParticipator&#45;&gt;ISystemParticipator</title>
<path fill="none" stroke="black" stroke-dasharray="5,2" d="M438.068,-74.496C407.632,-63.6811 365.851,-48.8351 333.162,-37.2194"/>
<polygon fill="black" stroke="black" points="333.926,-33.7766 323.331,-33.7263 331.582,-40.3726 333.926,-33.7766"/>
</g>
<!-- Ground&#45;&gt;BaseCollisionSystemParticipator -->
<g id="edge12" class="edge"><title>Ground&#45;&gt;BaseCollisionSystemParticipator</title>
<path fill="none" stroke="black" stroke-width="2" d="M478.887,-215.697C478.887,-207.983 478.887,-198.712 478.887,-190.112"/>
<polygon fill="black" stroke="black" stroke-width="2" points="482.387,-190.104 478.887,-180.104 475.387,-190.104 482.387,-190.104"/>
</g>
<!-- Ground&#45;&gt;IGround -->
<g id="edge13" class="edge"><title>Ground&#45;&gt;IGround</title>
<path fill="none" stroke="black" stroke-dasharray="5,2" d="M508.574,-222.063C540.725,-210.218 592.217,-191.247 628.141,-178.012"/>
<polygon fill="black" stroke="black" points="629.658,-181.183 637.831,-174.442 627.238,-174.614 629.658,-181.183"/>
</g>
</g>
</svg>
