<?xml version="1.0" encoding="UTF-8" standalone="no"?>
<!DOCTYPE svg PUBLIC "-//W3C//DTD SVG 1.1//EN"
 "http://www.w3.org/Graphics/SVG/1.1/DTD/svg11.dtd">
<!-- Generated by graphviz version 2.38.0 (20140413.2041)
 -->
<!-- Title: %3 Pages: 1 -->
<svg width="1295pt" height="188pt"
 viewBox="0.00 0.00 1295.44 188.00" xmlns="http://www.w3.org/2000/svg" xmlns:xlink="http://www.w3.org/1999/xlink">
<g id="graph0" class="graph" transform="scale(1 1) rotate(0) translate(4 184)">
<title>%3</title>
<polygon fill="white" stroke="none" points="-4,4 -4,-184 1291.44,-184 1291.44,4 -4,4"/>
<!-- LevelIconBehaviour -->
<g id="node1" class="node"><title>LevelIconBehaviour</title>
<ellipse fill="none" stroke="black" cx="742.893" cy="-162" rx="83.3857" ry="18"/>
<text text-anchor="middle" x="742.893" y="-158.3" font-family="Times New Roman,serif" font-size="14.00">LevelIconBehaviour</text>
</g>
<!-- IPointerExitHandler -->
<g id="node2" class="node"><title>IPointerExitHandler</title>
<ellipse fill="none" stroke="black" cx="81.8927" cy="-90" rx="81.7856" ry="18"/>
<text text-anchor="middle" x="81.8927" y="-86.3" font-family="Times New Roman,serif" font-size="14.00">IPointerExitHandler</text>
</g>
<!-- LevelIconBehaviour&#45;&gt;IPointerExitHandler -->
<g id="edge4" class="edge"><title>LevelIconBehaviour&#45;&gt;IPointerExitHandler</title>
<path fill="none" stroke="black" stroke-dasharray="5,2" d="M664.258,-155.986C554.068,-148.437 347.607,-132.39 172.893,-108 165.477,-106.965 157.747,-105.743 150.063,-104.438"/>
<polygon fill="black" stroke="black" points="150.47,-100.956 140.017,-102.682 149.265,-107.852 150.47,-100.956"/>
</g>
<!-- IPointerClickHandler -->
<g id="node3" class="node"><title>IPointerClickHandler</title>
<ellipse fill="none" stroke="black" cx="268.893" cy="-90" rx="87.1846" ry="18"/>
<text text-anchor="middle" x="268.893" y="-86.3" font-family="Times New Roman,serif" font-size="14.00">IPointerClickHandler</text>
</g>
<!-- LevelIconBehaviour&#45;&gt;IPointerClickHandler -->
<g id="edge2" class="edge"><title>LevelIconBehaviour&#45;&gt;IPointerClickHandler</title>
<path fill="none" stroke="black" stroke-dasharray="5,2" d="M673.459,-152.026C597.553,-142.038 472.393,-125.049 364.893,-108 357.37,-106.807 349.526,-105.508 341.705,-104.177"/>
<polygon fill="black" stroke="black" points="342.287,-100.726 331.838,-102.48 341.1,-107.625 342.287,-100.726"/>
</g>
<!-- IPointerDownHandler -->
<g id="node5" class="node"><title>IPointerDownHandler</title>
<ellipse fill="none" stroke="black" cx="463.893" cy="-90" rx="89.8845" ry="18"/>
<text text-anchor="middle" x="463.893" y="-86.3" font-family="Times New Roman,serif" font-size="14.00">IPointerDownHandler</text>
</g>
<!-- LevelIconBehaviour&#45;&gt;IPointerDownHandler -->
<g id="edge5" class="edge"><title>LevelIconBehaviour&#45;&gt;IPointerDownHandler</title>
<path fill="none" stroke="black" stroke-dasharray="5,2" d="M690.742,-147.916C644.558,-136.328 576.999,-119.378 527.622,-106.989"/>
<polygon fill="black" stroke="black" points="528.24,-103.536 517.689,-104.497 526.536,-110.326 528.24,-103.536"/>
</g>
<!-- IPointerUpHandler -->
<g id="node6" class="node"><title>IPointerUpHandler</title>
<ellipse fill="none" stroke="black" cx="650.893" cy="-90" rx="79.0865" ry="18"/>
<text text-anchor="middle" x="650.893" y="-86.3" font-family="Times New Roman,serif" font-size="14.00">IPointerUpHandler</text>
</g>
<!-- LevelIconBehaviour&#45;&gt;IPointerUpHandler -->
<g id="edge6" class="edge"><title>LevelIconBehaviour&#45;&gt;IPointerUpHandler</title>
<path fill="none" stroke="black" stroke-dasharray="5,2" d="M721.09,-144.411C709.06,-135.257 693.943,-123.755 680.821,-113.772"/>
<polygon fill="black" stroke="black" points="682.617,-110.74 672.539,-107.47 678.378,-116.311 682.617,-110.74"/>
</g>
<!-- IPointerEnterHandler -->
<g id="node7" class="node"><title>IPointerEnterHandler</title>
<ellipse fill="none" stroke="black" cx="834.893" cy="-90" rx="87.1846" ry="18"/>
<text text-anchor="middle" x="834.893" y="-86.3" font-family="Times New Roman,serif" font-size="14.00">IPointerEnterHandler</text>
</g>
<!-- LevelIconBehaviour&#45;&gt;IPointerEnterHandler -->
<g id="edge3" class="edge"><title>LevelIconBehaviour&#45;&gt;IPointerEnterHandler</title>
<path fill="none" stroke="black" stroke-dasharray="5,2" d="M764.695,-144.411C776.726,-135.257 791.843,-123.755 804.964,-113.772"/>
<polygon fill="black" stroke="black" points="807.408,-116.311 813.247,-107.47 803.169,-110.74 807.408,-116.311"/>
</g>
<!-- SceneLoaderBehaviour -->
<g id="node8" class="node"><title>SceneLoaderBehaviour</title>
<ellipse fill="none" stroke="black" cx="1072.89" cy="-90" rx="94.7833" ry="18"/>
<text text-anchor="middle" x="1072.89" y="-86.3" font-family="Times New Roman,serif" font-size="14.00">SceneLoaderBehaviour</text>
</g>
<!-- LevelIconBehaviour&#45;&gt;SceneLoaderBehaviour -->
<g id="edge7" class="edge"><title>LevelIconBehaviour&#45;&gt;SceneLoaderBehaviour</title>
<path fill="none" stroke="black" d="M799.998,-148.887C856.178,-136.97 942.077,-118.749 1002.46,-105.94"/>
<polygon fill="black" stroke="black" points="1003.24,-109.352 1012.3,-103.853 1001.79,-102.504 1003.24,-109.352"/>
</g>
<!-- NotNull -->
<g id="node9" class="node"><title>NotNull</title>
<ellipse fill="#e5e5e5" stroke="black" cx="949.893" cy="-18" rx="38.9931" ry="18"/>
<text text-anchor="middle" x="949.893" y="-14.3" font-family="Times New Roman,serif" font-size="14.00">NotNull</text>
</g>
<!-- LevelIconBehaviour&#45;&gt;NotNull -->
<g id="edge8" class="edge"><title>LevelIconBehaviour&#45;&gt;NotNull</title>
<path fill="none" stroke="black" d="M823.077,-157.003C860.729,-150.962 903.292,-137.439 930.893,-108 946.302,-91.5644 950.44,-65.8254 951.082,-46.2464"/>
<polygon fill="black" stroke="black" points="954.583,-46.1172 951.129,-36.1012 947.583,-46.085 954.583,-46.1172"/>
</g>
<!-- MonoBehaviour -->
<g id="node10" class="node"><title>MonoBehaviour</title>
<ellipse fill="none" stroke="black" cx="1217.89" cy="-18" rx="69.5877" ry="18"/>
<text text-anchor="middle" x="1217.89" y="-14.3" font-family="Times New Roman,serif" font-size="14.00">MonoBehaviour</text>
</g>
<!-- LevelIconBehaviour&#45;&gt;MonoBehaviour -->
<g id="edge1" class="edge"><title>LevelIconBehaviour&#45;&gt;MonoBehaviour</title>
<path fill="none" stroke="black" stroke-width="2" d="M825.87,-160.285C935.928,-157.773 1122.62,-147.594 1176.89,-108 1196.91,-93.3992 1207.42,-66.6125 1212.76,-46.2272"/>
<polygon fill="black" stroke="black" stroke-width="2" points="1216.22,-46.7847 1215.11,-36.249 1209.41,-45.1822 1216.22,-46.7847"/>
</g>
<!-- ISceneLoader -->
<g id="node4" class="node"><title>ISceneLoader</title>
<ellipse fill="none" stroke="black" stroke-dasharray="5,2" cx="1068.89" cy="-18" rx="61.99" ry="18"/>
<text text-anchor="middle" x="1068.89" y="-14.3" font-family="Times New Roman,serif" font-size="14.00">ISceneLoader</text>
</g>
<!-- SceneLoaderBehaviour&#45;&gt;ISceneLoader -->
<g id="edge10" class="edge"><title>SceneLoaderBehaviour&#45;&gt;ISceneLoader</title>
<path fill="none" stroke="black" stroke-dasharray="5,2" d="M1071.9,-71.6966C1071.46,-63.9827 1070.93,-54.7125 1070.44,-46.1124"/>
<polygon fill="black" stroke="black" points="1073.94,-45.8883 1069.87,-36.1043 1066.95,-46.2878 1073.94,-45.8883"/>
</g>
<!-- SceneLoaderBehaviour&#45;&gt;NotNull -->
<g id="edge11" class="edge"><title>SceneLoaderBehaviour&#45;&gt;NotNull</title>
<path fill="none" stroke="black" d="M1044.36,-72.7646C1025.86,-62.235 1001.71,-48.4884 982.455,-37.5311"/>
<polygon fill="black" stroke="black" points="984.14,-34.4633 973.718,-32.5589 980.678,-40.547 984.14,-34.4633"/>
</g>
<!-- SceneLoaderBehaviour&#45;&gt;MonoBehaviour -->
<g id="edge9" class="edge"><title>SceneLoaderBehaviour&#45;&gt;MonoBehaviour</title>
<path fill="none" stroke="black" stroke-width="2" d="M1105.8,-73.1159C1127.09,-62.8345 1154.97,-49.3785 1177.59,-38.4566"/>
<polygon fill="black" stroke="black" stroke-width="2" points="1179.13,-41.6009 1186.61,-34.1014 1176.08,-35.297 1179.13,-41.6009"/>
</g>
</g>
</svg>
