<?xml version="1.0" encoding="UTF-8" standalone="no"?>
<!DOCTYPE svg PUBLIC "-//W3C//DTD SVG 1.1//EN"
 "http://www.w3.org/Graphics/SVG/1.1/DTD/svg11.dtd">
<!-- Generated by graphviz version 2.38.0 (20140413.2041)
 -->
<!-- Title: %3 Pages: 1 -->
<svg width="1296pt" height="188pt"
 viewBox="0.00 0.00 1295.84 188.00" xmlns="http://www.w3.org/2000/svg" xmlns:xlink="http://www.w3.org/1999/xlink">
<g id="graph0" class="graph" transform="scale(1 1) rotate(0) translate(4 184)">
<title>%3</title>
<polygon fill="white" stroke="none" points="-4,4 -4,-184 1291.84,-184 1291.84,4 -4,4"/>
<!-- MonoBehaviour -->
<g id="node1" class="node"><title>MonoBehaviour</title>
<ellipse fill="none" stroke="black" cx="69.5438" cy="-18" rx="69.5877" ry="18"/>
<text text-anchor="middle" x="69.5438" y="-14.3" font-family="Times New Roman,serif" font-size="14.00">MonoBehaviour</text>
</g>
<!-- NotNull -->
<g id="node2" class="node"><title>NotNull</title>
<ellipse fill="#e5e5e5" stroke="black" cx="337.544" cy="-18" rx="38.9931" ry="18"/>
<text text-anchor="middle" x="337.544" y="-14.3" font-family="Times New Roman,serif" font-size="14.00">NotNull</text>
</g>
<!-- SceneLoaderBehaviour -->
<g id="node3" class="node"><title>SceneLoaderBehaviour</title>
<ellipse fill="none" stroke="black" cx="214.544" cy="-90" rx="94.7833" ry="18"/>
<text text-anchor="middle" x="214.544" y="-86.3" font-family="Times New Roman,serif" font-size="14.00">SceneLoaderBehaviour</text>
</g>
<!-- SceneLoaderBehaviour&#45;&gt;MonoBehaviour -->
<g id="edge1" class="edge"><title>SceneLoaderBehaviour&#45;&gt;MonoBehaviour</title>
<path fill="none" stroke="black" stroke-width="2" d="M181.641,-73.1159C160.344,-62.8345 132.471,-49.3785 109.847,-38.4566"/>
<polygon fill="black" stroke="black" stroke-width="2" points="111.353,-35.297 100.825,-34.1014 108.309,-41.6009 111.353,-35.297"/>
</g>
<!-- SceneLoaderBehaviour&#45;&gt;NotNull -->
<g id="edge3" class="edge"><title>SceneLoaderBehaviour&#45;&gt;NotNull</title>
<path fill="none" stroke="black" d="M243.072,-72.7646C261.574,-62.235 285.729,-48.4884 304.982,-37.5311"/>
<polygon fill="black" stroke="black" points="306.759,-40.547 313.719,-32.5589 303.297,-34.4633 306.759,-40.547"/>
</g>
<!-- ISceneLoader -->
<g id="node4" class="node"><title>ISceneLoader</title>
<ellipse fill="none" stroke="black" stroke-dasharray="5,2" cx="218.544" cy="-18" rx="61.99" ry="18"/>
<text text-anchor="middle" x="218.544" y="-14.3" font-family="Times New Roman,serif" font-size="14.00">ISceneLoader</text>
</g>
<!-- SceneLoaderBehaviour&#45;&gt;ISceneLoader -->
<g id="edge2" class="edge"><title>SceneLoaderBehaviour&#45;&gt;ISceneLoader</title>
<path fill="none" stroke="black" stroke-dasharray="5,2" d="M215.533,-71.6966C215.973,-63.9827 216.503,-54.7125 216.995,-46.1124"/>
<polygon fill="black" stroke="black" points="220.49,-46.2878 217.566,-36.1043 213.502,-45.8883 220.49,-46.2878"/>
</g>
<!-- IPointerExitHandler -->
<g id="node5" class="node"><title>IPointerExitHandler</title>
<ellipse fill="none" stroke="black" cx="447.544" cy="-90" rx="81.7856" ry="18"/>
<text text-anchor="middle" x="447.544" y="-86.3" font-family="Times New Roman,serif" font-size="14.00">IPointerExitHandler</text>
</g>
<!-- IPointerDownHandler -->
<g id="node6" class="node"><title>IPointerDownHandler</title>
<ellipse fill="none" stroke="black" cx="637.544" cy="-90" rx="89.8845" ry="18"/>
<text text-anchor="middle" x="637.544" y="-86.3" font-family="Times New Roman,serif" font-size="14.00">IPointerDownHandler</text>
</g>
<!-- IPointerEnterHandler -->
<g id="node7" class="node"><title>IPointerEnterHandler</title>
<ellipse fill="none" stroke="black" cx="832.544" cy="-90" rx="87.1846" ry="18"/>
<text text-anchor="middle" x="832.544" y="-86.3" font-family="Times New Roman,serif" font-size="14.00">IPointerEnterHandler</text>
</g>
<!-- IPointerClickHandler -->
<g id="node8" class="node"><title>IPointerClickHandler</title>
<ellipse fill="none" stroke="black" cx="1024.54" cy="-90" rx="87.1846" ry="18"/>
<text text-anchor="middle" x="1024.54" y="-86.3" font-family="Times New Roman,serif" font-size="14.00">IPointerClickHandler</text>
</g>
<!-- IPointerUpHandler -->
<g id="node9" class="node"><title>IPointerUpHandler</title>
<ellipse fill="none" stroke="black" cx="1208.54" cy="-90" rx="79.0865" ry="18"/>
<text text-anchor="middle" x="1208.54" y="-86.3" font-family="Times New Roman,serif" font-size="14.00">IPointerUpHandler</text>
</g>
<!-- LevelIconBehaviour -->
<g id="node10" class="node"><title>LevelIconBehaviour</title>
<ellipse fill="none" stroke="black" cx="542.544" cy="-162" rx="83.3857" ry="18"/>
<text text-anchor="middle" x="542.544" y="-158.3" font-family="Times New Roman,serif" font-size="14.00">LevelIconBehaviour</text>
</g>
<!-- LevelIconBehaviour&#45;&gt;MonoBehaviour -->
<g id="edge4" class="edge"><title>LevelIconBehaviour&#45;&gt;MonoBehaviour</title>
<path fill="none" stroke="black" stroke-width="2" d="M459.482,-160.227C349.869,-157.643 164.479,-147.374 110.544,-108 90.5355,-93.3936 80.0237,-66.6077 74.6785,-46.2241"/>
<polygon fill="black" stroke="black" stroke-width="2" points="78.0284,-45.1796 72.3314,-36.2468 71.2144,-46.7826 78.0284,-45.1796"/>
</g>
<!-- LevelIconBehaviour&#45;&gt;NotNull -->
<g id="edge11" class="edge"><title>LevelIconBehaviour&#45;&gt;NotNull</title>
<path fill="none" stroke="black" d="M462.726,-156.71C425.587,-150.578 383.717,-137.065 356.544,-108 341.158,-91.5428 337.017,-65.8063 336.368,-46.2337"/>
<polygon fill="black" stroke="black" points="339.867,-46.0746 336.317,-36.0923 332.868,-46.1097 339.867,-46.0746"/>
</g>
<!-- LevelIconBehaviour&#45;&gt;SceneLoaderBehaviour -->
<g id="edge10" class="edge"><title>LevelIconBehaviour&#45;&gt;SceneLoaderBehaviour</title>
<path fill="none" stroke="black" d="M485.411,-148.807C429.802,-136.939 345.159,-118.875 285.315,-106.104"/>
<polygon fill="black" stroke="black" points="285.698,-102.607 275.188,-103.942 284.237,-109.452 285.698,-102.607"/>
</g>
<!-- LevelIconBehaviour&#45;&gt;IPointerExitHandler -->
<g id="edge7" class="edge"><title>LevelIconBehaviour&#45;&gt;IPointerExitHandler</title>
<path fill="none" stroke="black" stroke-dasharray="5,2" d="M520.03,-144.411C507.489,-135.17 491.7,-123.536 478.061,-113.487"/>
<polygon fill="black" stroke="black" points="480.023,-110.584 469.896,-107.47 475.87,-116.22 480.023,-110.584"/>
</g>
<!-- LevelIconBehaviour&#45;&gt;IPointerDownHandler -->
<g id="edge8" class="edge"><title>LevelIconBehaviour&#45;&gt;IPointerDownHandler</title>
<path fill="none" stroke="black" stroke-dasharray="5,2" d="M565.058,-144.411C577.598,-135.17 593.388,-123.536 607.026,-113.487"/>
<polygon fill="black" stroke="black" points="609.217,-116.22 615.192,-107.47 605.065,-110.584 609.217,-116.22"/>
</g>
<!-- LevelIconBehaviour&#45;&gt;IPointerEnterHandler -->
<g id="edge6" class="edge"><title>LevelIconBehaviour&#45;&gt;IPointerEnterHandler</title>
<path fill="none" stroke="black" stroke-dasharray="5,2" d="M596.072,-148.079C644.657,-136.352 716.401,-119.035 768.113,-106.552"/>
<polygon fill="black" stroke="black" points="768.951,-109.951 777.851,-104.202 767.309,-103.146 768.951,-109.951"/>
</g>
<!-- LevelIconBehaviour&#45;&gt;IPointerClickHandler -->
<g id="edge5" class="edge"><title>LevelIconBehaviour&#45;&gt;IPointerClickHandler</title>
<path fill="none" stroke="black" stroke-dasharray="5,2" d="M612.747,-152.193C690.195,-142.283 818.453,-125.299 928.544,-108 936.068,-106.818 943.914,-105.526 951.735,-104.199"/>
<polygon fill="black" stroke="black" points="952.338,-107.647 961.602,-102.506 951.154,-100.748 952.338,-107.647"/>
</g>
<!-- LevelIconBehaviour&#45;&gt;IPointerUpHandler -->
<g id="edge9" class="edge"><title>LevelIconBehaviour&#45;&gt;IPointerUpHandler</title>
<path fill="none" stroke="black" stroke-dasharray="5,2" d="M621.834,-156.234C733.479,-148.954 943.209,-133.196 1120.54,-108 1127.64,-106.992 1135.03,-105.796 1142.38,-104.513"/>
<polygon fill="black" stroke="black" points="1143.13,-107.935 1152.35,-102.718 1141.89,-101.046 1143.13,-107.935"/>
</g>
</g>
</svg>
