<?xml version="1.0" encoding="UTF-8" standalone="no"?>
<!DOCTYPE svg PUBLIC "-//W3C//DTD SVG 1.1//EN"
 "http://www.w3.org/Graphics/SVG/1.1/DTD/svg11.dtd">
<!-- Generated by graphviz version 2.38.0 (20140413.2041)
 -->
<!-- Title: %3 Pages: 1 -->
<svg width="1214pt" height="188pt"
 viewBox="0.00 0.00 1214.19 188.00" xmlns="http://www.w3.org/2000/svg" xmlns:xlink="http://www.w3.org/1999/xlink">
<g id="graph0" class="graph" transform="scale(1 1) rotate(0) translate(4 184)">
<title>%3</title>
<polygon fill="white" stroke="none" points="-4,4 -4,-184 1210.19,-184 1210.19,4 -4,4"/>
<!-- IPointerExitHandler -->
<g id="node1" class="node"><title>IPointerExitHandler</title>
<ellipse fill="none" stroke="black" cx="81.8927" cy="-90" rx="81.7856" ry="18"/>
<text text-anchor="middle" x="81.8927" y="-86.3" font-family="Times New Roman,serif" font-size="14.00">IPointerExitHandler</text>
</g>
<!-- IPointerClickHandler -->
<g id="node2" class="node"><title>IPointerClickHandler</title>
<ellipse fill="none" stroke="black" cx="268.893" cy="-90" rx="87.1846" ry="18"/>
<text text-anchor="middle" x="268.893" y="-86.3" font-family="Times New Roman,serif" font-size="14.00">IPointerClickHandler</text>
</g>
<!-- MonoBehaviour -->
<g id="node3" class="node"><title>MonoBehaviour</title>
<ellipse fill="none" stroke="black" cx="361.893" cy="-18" rx="69.5877" ry="18"/>
<text text-anchor="middle" x="361.893" y="-14.3" font-family="Times New Roman,serif" font-size="14.00">MonoBehaviour</text>
</g>
<!-- NotNull -->
<g id="node4" class="node"><title>NotNull</title>
<ellipse fill="#e5e5e5" stroke="black" cx="629.893" cy="-18" rx="38.9931" ry="18"/>
<text text-anchor="middle" x="629.893" y="-14.3" font-family="Times New Roman,serif" font-size="14.00">NotNull</text>
</g>
<!-- IPointerEnterHandler -->
<g id="node5" class="node"><title>IPointerEnterHandler</title>
<ellipse fill="none" stroke="black" cx="744.893" cy="-90" rx="87.1846" ry="18"/>
<text text-anchor="middle" x="744.893" y="-86.3" font-family="Times New Roman,serif" font-size="14.00">IPointerEnterHandler</text>
</g>
<!-- IPointerDownHandler -->
<g id="node6" class="node"><title>IPointerDownHandler</title>
<ellipse fill="none" stroke="black" cx="939.893" cy="-90" rx="89.8845" ry="18"/>
<text text-anchor="middle" x="939.893" y="-86.3" font-family="Times New Roman,serif" font-size="14.00">IPointerDownHandler</text>
</g>
<!-- IPointerUpHandler -->
<g id="node7" class="node"><title>IPointerUpHandler</title>
<ellipse fill="none" stroke="black" cx="1126.89" cy="-90" rx="79.0865" ry="18"/>
<text text-anchor="middle" x="1126.89" y="-86.3" font-family="Times New Roman,serif" font-size="14.00">IPointerUpHandler</text>
</g>
<!-- LevelIconBehaviour -->
<g id="node8" class="node"><title>LevelIconBehaviour</title>
<ellipse fill="none" stroke="black" cx="567.893" cy="-162" rx="83.3857" ry="18"/>
<text text-anchor="middle" x="567.893" y="-158.3" font-family="Times New Roman,serif" font-size="14.00">LevelIconBehaviour</text>
</g>
<!-- LevelIconBehaviour&#45;&gt;IPointerExitHandler -->
<g id="edge4" class="edge"><title>LevelIconBehaviour&#45;&gt;IPointerExitHandler</title>
<path fill="none" stroke="black" stroke-dasharray="5,2" d="M496.733,-152.568C417.522,-142.922 285.788,-126.107 172.893,-108 165.801,-106.863 158.413,-105.604 151.047,-104.302"/>
<polygon fill="black" stroke="black" points="151.508,-100.829 141.046,-102.506 150.27,-107.719 151.508,-100.829"/>
</g>
<!-- LevelIconBehaviour&#45;&gt;IPointerClickHandler -->
<g id="edge2" class="edge"><title>LevelIconBehaviour&#45;&gt;IPointerClickHandler</title>
<path fill="none" stroke="black" stroke-dasharray="5,2" d="M513.746,-148.324C463.208,-136.492 387.718,-118.819 333.934,-106.227"/>
<polygon fill="black" stroke="black" points="334.689,-102.809 324.155,-103.938 333.094,-109.625 334.689,-102.809"/>
</g>
<!-- LevelIconBehaviour&#45;&gt;MonoBehaviour -->
<g id="edge1" class="edge"><title>LevelIconBehaviour&#45;&gt;MonoBehaviour</title>
<path fill="none" stroke="black" stroke-width="2" d="M498.912,-151.924C466.601,-144.642 429.468,-131.542 402.893,-108 384.567,-91.7655 373.888,-65.6573 368.05,-45.9073"/>
<polygon fill="black" stroke="black" stroke-width="2" points="371.424,-44.9767 365.423,-36.2449 364.669,-46.8128 371.424,-44.9767"/>
</g>
<!-- LevelIconBehaviour&#45;&gt;NotNull -->
<g id="edge8" class="edge"><title>LevelIconBehaviour&#45;&gt;NotNull</title>
<path fill="none" stroke="black" d="M584.915,-144.299C593.936,-134.519 604.453,-121.469 610.893,-108 620.235,-88.4583 625.021,-64.3228 627.45,-46.118"/>
<polygon fill="black" stroke="black" points="630.929,-46.5055 628.625,-36.1641 623.977,-45.6848 630.929,-46.5055"/>
</g>
<!-- LevelIconBehaviour&#45;&gt;IPointerEnterHandler -->
<g id="edge3" class="edge"><title>LevelIconBehaviour&#45;&gt;IPointerEnterHandler</title>
<path fill="none" stroke="black" stroke-dasharray="5,2" d="M605.864,-145.983C632.512,-135.444 668.353,-121.27 696.97,-109.953"/>
<polygon fill="black" stroke="black" points="698.362,-113.166 706.374,-106.233 695.787,-106.656 698.362,-113.166"/>
</g>
<!-- LevelIconBehaviour&#45;&gt;IPointerDownHandler -->
<g id="edge5" class="edge"><title>LevelIconBehaviour&#45;&gt;IPointerDownHandler</title>
<path fill="none" stroke="black" stroke-dasharray="5,2" d="M628.489,-149.597C693.637,-137.338 797.205,-117.85 866.818,-104.751"/>
<polygon fill="black" stroke="black" points="867.654,-108.155 876.834,-102.866 866.359,-101.276 867.654,-108.155"/>
</g>
<!-- LevelIconBehaviour&#45;&gt;IPointerUpHandler -->
<g id="edge6" class="edge"><title>LevelIconBehaviour&#45;&gt;IPointerUpHandler</title>
<path fill="none" stroke="black" stroke-dasharray="5,2" d="M643.591,-154.334C736.848,-145.696 899.996,-129.197 1038.89,-108 1045.71,-106.959 1052.81,-105.769 1059.89,-104.512"/>
<polygon fill="black" stroke="black" points="1060.99,-107.868 1070.2,-102.632 1059.74,-100.982 1060.99,-107.868"/>
</g>
<!-- SceneLoaderBehaviour -->
<g id="node9" class="node"><title>SceneLoaderBehaviour</title>
<ellipse fill="none" stroke="black" cx="506.893" cy="-90" rx="94.7833" ry="18"/>
<text text-anchor="middle" x="506.893" y="-86.3" font-family="Times New Roman,serif" font-size="14.00">SceneLoaderBehaviour</text>
</g>
<!-- LevelIconBehaviour&#45;&gt;SceneLoaderBehaviour -->
<g id="edge7" class="edge"><title>LevelIconBehaviour&#45;&gt;SceneLoaderBehaviour</title>
<path fill="none" stroke="black" d="M553.126,-144.055C545.634,-135.457 536.396,-124.857 528.153,-115.397"/>
<polygon fill="black" stroke="black" points="530.732,-113.029 521.523,-107.789 525.454,-117.628 530.732,-113.029"/>
</g>
<!-- SceneLoaderBehaviour&#45;&gt;MonoBehaviour -->
<g id="edge9" class="edge"><title>SceneLoaderBehaviour&#45;&gt;MonoBehaviour</title>
<path fill="none" stroke="black" stroke-width="2" d="M473.99,-73.1159C452.693,-62.8345 424.82,-49.3785 402.196,-38.4566"/>
<polygon fill="black" stroke="black" stroke-width="2" points="403.701,-35.297 393.174,-34.1014 400.658,-41.6009 403.701,-35.297"/>
</g>
<!-- SceneLoaderBehaviour&#45;&gt;NotNull -->
<g id="edge11" class="edge"><title>SceneLoaderBehaviour&#45;&gt;NotNull</title>
<path fill="none" stroke="black" d="M535.421,-72.7646C553.923,-62.235 578.077,-48.4884 597.331,-37.5311"/>
<polygon fill="black" stroke="black" points="599.108,-40.547 606.068,-32.5589 595.645,-34.4633 599.108,-40.547"/>
</g>
<!-- ISceneLoader -->
<g id="node10" class="node"><title>ISceneLoader</title>
<ellipse fill="none" stroke="black" stroke-dasharray="5,2" cx="510.893" cy="-18" rx="61.99" ry="18"/>
<text text-anchor="middle" x="510.893" y="-14.3" font-family="Times New Roman,serif" font-size="14.00">ISceneLoader</text>
</g>
<!-- SceneLoaderBehaviour&#45;&gt;ISceneLoader -->
<g id="edge10" class="edge"><title>SceneLoaderBehaviour&#45;&gt;ISceneLoader</title>
<path fill="none" stroke="black" stroke-dasharray="5,2" d="M507.881,-71.6966C508.322,-63.9827 508.852,-54.7125 509.343,-46.1124"/>
<polygon fill="black" stroke="black" points="512.839,-46.2878 509.915,-36.1043 505.85,-45.8883 512.839,-46.2878"/>
</g>
</g>
</svg>
