<?xml version="1.0" encoding="UTF-8" standalone="no"?>
<!DOCTYPE svg PUBLIC "-//W3C//DTD SVG 1.1//EN"
 "http://www.w3.org/Graphics/SVG/1.1/DTD/svg11.dtd">
<!-- Generated by graphviz version 2.38.0 (20140413.2041)
 -->
<!-- Title: %3 Pages: 1 -->
<svg width="1214pt" height="188pt"
 viewBox="0.00 0.00 1214.19 188.00" xmlns="http://www.w3.org/2000/svg" xmlns:xlink="http://www.w3.org/1999/xlink">
<g id="graph0" class="graph" transform="scale(1 1) rotate(0) translate(4 184)">
<title>%3</title>
<polygon fill="white" stroke="none" points="-4,4 -4,-184 1210.19,-184 1210.19,4 -4,4"/>
<!-- IPointerExitHandler -->
<g id="node1" class="node"><title>IPointerExitHandler</title>
<ellipse fill="none" stroke="black" cx="81.8927" cy="-90" rx="81.7856" ry="18"/>
<text text-anchor="middle" x="81.8927" y="-86.3" font-family="Times New Roman,serif" font-size="14.00">IPointerExitHandler</text>
</g>
<!-- SceneLoaderBehaviour -->
<g id="node2" class="node"><title>SceneLoaderBehaviour</title>
<ellipse fill="none" stroke="black" cx="314.893" cy="-90" rx="94.7833" ry="18"/>
<text text-anchor="middle" x="314.893" y="-86.3" font-family="Times New Roman,serif" font-size="14.00">SceneLoaderBehaviour</text>
</g>
<!-- MonoBehaviour -->
<g id="node6" class="node"><title>MonoBehaviour</title>
<ellipse fill="none" stroke="black" cx="169.893" cy="-18" rx="69.5877" ry="18"/>
<text text-anchor="middle" x="169.893" y="-14.3" font-family="Times New Roman,serif" font-size="14.00">MonoBehaviour</text>
</g>
<!-- SceneLoaderBehaviour&#45;&gt;MonoBehaviour -->
<g id="edge1" class="edge"><title>SceneLoaderBehaviour&#45;&gt;MonoBehaviour</title>
<path fill="none" stroke="black" stroke-width="2" d="M281.99,-73.1159C260.693,-62.8345 232.82,-49.3785 210.196,-38.4566"/>
<polygon fill="black" stroke="black" stroke-width="2" points="211.701,-35.297 201.174,-34.1014 208.658,-41.6009 211.701,-35.297"/>
</g>
<!-- NotNull -->
<g id="node9" class="node"><title>NotNull</title>
<ellipse fill="#e5e5e5" stroke="black" cx="437.893" cy="-18" rx="38.9931" ry="18"/>
<text text-anchor="middle" x="437.893" y="-14.3" font-family="Times New Roman,serif" font-size="14.00">NotNull</text>
</g>
<!-- SceneLoaderBehaviour&#45;&gt;NotNull -->
<g id="edge3" class="edge"><title>SceneLoaderBehaviour&#45;&gt;NotNull</title>
<path fill="none" stroke="black" d="M343.421,-72.7646C361.923,-62.235 386.077,-48.4884 405.331,-37.5311"/>
<polygon fill="black" stroke="black" points="407.108,-40.547 414.068,-32.5589 403.645,-34.4633 407.108,-40.547"/>
</g>
<!-- ISceneLoader -->
<g id="node10" class="node"><title>ISceneLoader</title>
<ellipse fill="none" stroke="black" stroke-dasharray="5,2" cx="318.893" cy="-18" rx="61.99" ry="18"/>
<text text-anchor="middle" x="318.893" y="-14.3" font-family="Times New Roman,serif" font-size="14.00">ISceneLoader</text>
</g>
<!-- SceneLoaderBehaviour&#45;&gt;ISceneLoader -->
<g id="edge2" class="edge"><title>SceneLoaderBehaviour&#45;&gt;ISceneLoader</title>
<path fill="none" stroke="black" stroke-dasharray="5,2" d="M315.881,-71.6966C316.322,-63.9827 316.852,-54.7125 317.343,-46.1124"/>
<polygon fill="black" stroke="black" points="320.839,-46.2878 317.915,-36.1043 313.85,-45.8883 320.839,-46.2878"/>
</g>
<!-- IPointerClickHandler -->
<g id="node3" class="node"><title>IPointerClickHandler</title>
<ellipse fill="none" stroke="black" cx="552.893" cy="-90" rx="87.1846" ry="18"/>
<text text-anchor="middle" x="552.893" y="-86.3" font-family="Times New Roman,serif" font-size="14.00">IPointerClickHandler</text>
</g>
<!-- IPointerDownHandler -->
<g id="node4" class="node"><title>IPointerDownHandler</title>
<ellipse fill="none" stroke="black" cx="747.893" cy="-90" rx="89.8845" ry="18"/>
<text text-anchor="middle" x="747.893" y="-86.3" font-family="Times New Roman,serif" font-size="14.00">IPointerDownHandler</text>
</g>
<!-- LevelIconBehaviour -->
<g id="node5" class="node"><title>LevelIconBehaviour</title>
<ellipse fill="none" stroke="black" cx="494.893" cy="-162" rx="83.3857" ry="18"/>
<text text-anchor="middle" x="494.893" y="-158.3" font-family="Times New Roman,serif" font-size="14.00">LevelIconBehaviour</text>
</g>
<!-- LevelIconBehaviour&#45;&gt;IPointerExitHandler -->
<g id="edge7" class="edge"><title>LevelIconBehaviour&#45;&gt;IPointerExitHandler</title>
<path fill="none" stroke="black" stroke-dasharray="5,2" d="M430.808,-150.471C366.754,-139.903 265.464,-123.074 177.893,-108 169.947,-106.632 161.635,-105.185 153.368,-103.735"/>
<polygon fill="black" stroke="black" points="153.788,-100.255 143.333,-101.97 152.575,-107.15 153.788,-100.255"/>
</g>
<!-- LevelIconBehaviour&#45;&gt;SceneLoaderBehaviour -->
<g id="edge10" class="edge"><title>LevelIconBehaviour&#45;&gt;SceneLoaderBehaviour</title>
<path fill="none" stroke="black" d="M456.278,-145.983C429.364,-135.516 393.228,-121.464 364.227,-110.186"/>
<polygon fill="black" stroke="black" points="365.277,-106.839 354.689,-106.476 362.74,-113.363 365.277,-106.839"/>
</g>
<!-- LevelIconBehaviour&#45;&gt;IPointerClickHandler -->
<g id="edge5" class="edge"><title>LevelIconBehaviour&#45;&gt;IPointerClickHandler</title>
<path fill="none" stroke="black" stroke-dasharray="5,2" d="M508.933,-144.055C515.986,-135.543 524.665,-125.068 532.442,-115.681"/>
<polygon fill="black" stroke="black" points="535.297,-117.722 538.982,-107.789 529.907,-113.256 535.297,-117.722"/>
</g>
<!-- LevelIconBehaviour&#45;&gt;IPointerDownHandler -->
<g id="edge8" class="edge"><title>LevelIconBehaviour&#45;&gt;IPointerDownHandler</title>
<path fill="none" stroke="black" stroke-dasharray="5,2" d="M543.974,-147.42C584.987,-136.073 643.643,-119.844 687.526,-107.702"/>
<polygon fill="black" stroke="black" points="688.511,-111.061 697.215,-105.021 686.644,-104.315 688.511,-111.061"/>
</g>
<!-- LevelIconBehaviour&#45;&gt;MonoBehaviour -->
<g id="edge4" class="edge"><title>LevelIconBehaviour&#45;&gt;MonoBehaviour</title>
<path fill="none" stroke="black" stroke-width="2" d="M418.729,-154.668C345.893,-147.242 242.597,-132.697 210.893,-108 191.35,-92.7763 180.774,-66.0754 175.287,-45.8798"/>
<polygon fill="black" stroke="black" stroke-width="2" points="178.646,-44.883 172.861,-36.0071 171.849,-46.5534 178.646,-44.883"/>
</g>
<!-- IPointerEnterHandler -->
<g id="node7" class="node"><title>IPointerEnterHandler</title>
<ellipse fill="none" stroke="black" cx="942.893" cy="-90" rx="87.1846" ry="18"/>
<text text-anchor="middle" x="942.893" y="-86.3" font-family="Times New Roman,serif" font-size="14.00">IPointerEnterHandler</text>
</g>
<!-- LevelIconBehaviour&#45;&gt;IPointerEnterHandler -->
<g id="edge6" class="edge"><title>LevelIconBehaviour&#45;&gt;IPointerEnterHandler</title>
<path fill="none" stroke="black" stroke-dasharray="5,2" d="M562.455,-151.356C633.378,-141.108 748.093,-124.183 846.893,-108 854.268,-106.792 861.954,-105.495 869.626,-104.176"/>
<polygon fill="black" stroke="black" points="870.419,-107.59 879.674,-102.434 869.224,-100.693 870.419,-107.59"/>
</g>
<!-- IPointerUpHandler -->
<g id="node8" class="node"><title>IPointerUpHandler</title>
<ellipse fill="none" stroke="black" cx="1126.89" cy="-90" rx="79.0865" ry="18"/>
<text text-anchor="middle" x="1126.89" y="-86.3" font-family="Times New Roman,serif" font-size="14.00">IPointerUpHandler</text>
</g>
<!-- LevelIconBehaviour&#45;&gt;IPointerUpHandler -->
<g id="edge9" class="edge"><title>LevelIconBehaviour&#45;&gt;IPointerUpHandler</title>
<path fill="none" stroke="black" stroke-dasharray="5,2" d="M573.094,-155.695C679.021,-147.982 873.846,-131.928 1038.89,-108 1045.72,-107.01 1052.82,-105.853 1059.9,-104.616"/>
<polygon fill="black" stroke="black" points="1061,-107.975 1070.22,-102.758 1059.76,-101.086 1061,-107.975"/>
</g>
<!-- LevelIconBehaviour&#45;&gt;NotNull -->
<g id="edge11" class="edge"><title>LevelIconBehaviour&#45;&gt;NotNull</title>
<path fill="none" stroke="black" d="M479.909,-143.973C471.955,-134.091 462.66,-121.048 456.893,-108 448.177,-88.2813 443.355,-64.2977 440.751,-46.198"/>
<polygon fill="black" stroke="black" points="444.191,-45.5052 439.432,-36.0392 437.249,-46.4066 444.191,-45.5052"/>
</g>
</g>
</svg>
