<?xml version="1.0" encoding="UTF-8" standalone="no"?>
<!DOCTYPE svg PUBLIC "-//W3C//DTD SVG 1.1//EN"
 "http://www.w3.org/Graphics/SVG/1.1/DTD/svg11.dtd">
<!-- Generated by graphviz version 2.38.0 (20140413.2041)
 -->
<!-- Title: %3 Pages: 1 -->
<svg width="234pt" height="116pt"
 viewBox="0.00 0.00 233.99 116.00" xmlns="http://www.w3.org/2000/svg" xmlns:xlink="http://www.w3.org/1999/xlink">
<g id="graph0" class="graph" transform="scale(1 1) rotate(0) translate(4 112)">
<title>%3</title>
<polygon fill="white" stroke="none" points="-4,4 -4,-112 229.991,-112 229.991,4 -4,4"/>
<!-- MonoBehaviour -->
<g id="node1" class="node"><title>MonoBehaviour</title>
<ellipse fill="none" stroke="black" cx="69.5438" cy="-18" rx="69.5877" ry="18"/>
<text text-anchor="middle" x="69.5438" y="-14.3" font-family="Times New Roman,serif" font-size="14.00">MonoBehaviour</text>
</g>
<!-- Debug -->
<g id="node2" class="node"><title>Debug</title>
<ellipse fill="#e5e5e5" stroke="black" cx="191.544" cy="-18" rx="34.394" ry="18"/>
<text text-anchor="middle" x="191.544" y="-14.3" font-family="Times New Roman,serif" font-size="14.00">Debug</text>
</g>
<!-- MainMenuBehaviour -->
<g id="node3" class="node"><title>MainMenuBehaviour</title>
<ellipse fill="none" stroke="black" cx="130.544" cy="-90" rx="85.5853" ry="18"/>
<text text-anchor="middle" x="130.544" y="-86.3" font-family="Times New Roman,serif" font-size="14.00">MainMenuBehaviour</text>
</g>
<!-- MainMenuBehaviour&#45;&gt;MonoBehaviour -->
<g id="edge1" class="edge"><title>MainMenuBehaviour&#45;&gt;MonoBehaviour</title>
<path fill="none" stroke="black" stroke-width="2" d="M115.777,-72.055C108.285,-63.4567 99.0474,-52.8566 90.8044,-43.3974"/>
<polygon fill="black" stroke="black" stroke-width="2" points="93.3828,-41.0287 84.1742,-35.789 88.1054,-45.6276 93.3828,-41.0287"/>
</g>
<!-- MainMenuBehaviour&#45;&gt;Debug -->
<g id="edge2" class="edge"><title>MainMenuBehaviour&#45;&gt;Debug</title>
<path fill="none" stroke="black" d="M145.31,-72.055C153.023,-63.2038 162.585,-52.2313 171.008,-42.5658"/>
<polygon fill="black" stroke="black" points="173.818,-44.668 177.75,-34.8294 168.541,-40.0691 173.818,-44.668"/>
</g>
</g>
</svg>
