<?xml version="1.0" encoding="UTF-8" standalone="no"?>
<!DOCTYPE svg PUBLIC "-//W3C//DTD SVG 1.1//EN"
 "http://www.w3.org/Graphics/SVG/1.1/DTD/svg11.dtd">
<!-- Generated by graphviz version 2.38.0 (20140413.2041)
 -->
<!-- Title: %3 Pages: 1 -->
<svg width="234pt" height="116pt"
 viewBox="0.00 0.00 233.99 116.00" xmlns="http://www.w3.org/2000/svg" xmlns:xlink="http://www.w3.org/1999/xlink">
<g id="graph0" class="graph" transform="scale(1 1) rotate(0) translate(4 112)">
<title>%3</title>
<polygon fill="white" stroke="none" points="-4,4 -4,-112 229.991,-112 229.991,4 -4,4"/>
<!-- Debug -->
<g id="node1" class="node"><title>Debug</title>
<ellipse fill="#e5e5e5" stroke="black" cx="34.4469" cy="-18" rx="34.394" ry="18"/>
<text text-anchor="middle" x="34.4469" y="-14.3" font-family="Times New Roman,serif" font-size="14.00">Debug</text>
</g>
<!-- MainMenuBehaviour -->
<g id="node2" class="node"><title>MainMenuBehaviour</title>
<ellipse fill="none" stroke="black" cx="95.4469" cy="-90" rx="85.5853" ry="18"/>
<text text-anchor="middle" x="95.4469" y="-86.3" font-family="Times New Roman,serif" font-size="14.00">MainMenuBehaviour</text>
</g>
<!-- MainMenuBehaviour&#45;&gt;Debug -->
<g id="edge2" class="edge"><title>MainMenuBehaviour&#45;&gt;Debug</title>
<path fill="none" stroke="black" d="M80.6805,-72.055C72.9674,-63.2038 63.4057,-52.2313 54.9828,-42.5658"/>
<polygon fill="black" stroke="black" points="57.4497,-40.0691 48.2412,-34.8294 52.1723,-44.668 57.4497,-40.0691"/>
</g>
<!-- MonoBehaviour -->
<g id="node3" class="node"><title>MonoBehaviour</title>
<ellipse fill="none" stroke="black" cx="156.447" cy="-18" rx="69.5877" ry="18"/>
<text text-anchor="middle" x="156.447" y="-14.3" font-family="Times New Roman,serif" font-size="14.00">MonoBehaviour</text>
</g>
<!-- MainMenuBehaviour&#45;&gt;MonoBehaviour -->
<g id="edge1" class="edge"><title>MainMenuBehaviour&#45;&gt;MonoBehaviour</title>
<path fill="none" stroke="black" stroke-width="2" d="M110.213,-72.055C117.706,-63.4567 126.943,-52.8566 135.186,-43.3974"/>
<polygon fill="black" stroke="black" stroke-width="2" points="137.885,-45.6276 141.817,-35.789 132.608,-41.0287 137.885,-45.6276"/>
</g>
</g>
</svg>
