<?xml version="1.0" encoding="UTF-8" standalone="no"?>
<!DOCTYPE svg PUBLIC "-//W3C//DTD SVG 1.1//EN"
 "http://www.w3.org/Graphics/SVG/1.1/DTD/svg11.dtd">
<!-- Generated by graphviz version 2.38.0 (20140413.2041)
 -->
<!-- Title: %3 Pages: 1 -->
<svg width="293pt" height="188pt"
 viewBox="0.00 0.00 293.34 188.00" xmlns="http://www.w3.org/2000/svg" xmlns:xlink="http://www.w3.org/1999/xlink">
<g id="graph0" class="graph" transform="scale(1 1) rotate(0) translate(4 184)">
<title>%3</title>
<polygon fill="white" stroke="none" points="-4,4 -4,-184 289.337,-184 289.337,4 -4,4"/>
<!-- PauseMenuBehaviour -->
<g id="node1" class="node"><title>PauseMenuBehaviour</title>
<ellipse fill="none" stroke="black" cx="143.794" cy="-162" rx="89.0842" ry="18"/>
<text text-anchor="middle" x="143.794" y="-158.3" font-family="Times New Roman,serif" font-size="14.00">PauseMenuBehaviour</text>
</g>
<!-- IPauseMenu -->
<g id="node2" class="node"><title>IPauseMenu</title>
<ellipse fill="none" stroke="black" stroke-dasharray="5,2" cx="72.7935" cy="-90" rx="55.7903" ry="18"/>
<text text-anchor="middle" x="72.7935" y="-86.3" font-family="Times New Roman,serif" font-size="14.00">IPauseMenu</text>
</g>
<!-- PauseMenuBehaviour&#45;&gt;IPauseMenu -->
<g id="edge2" class="edge"><title>PauseMenuBehaviour&#45;&gt;IPauseMenu</title>
<path fill="none" stroke="black" stroke-dasharray="5,2" d="M126.606,-144.055C117.58,-135.156 106.379,-124.112 96.5364,-114.408"/>
<polygon fill="black" stroke="black" points="98.9118,-111.835 89.3335,-107.307 93.9973,-116.82 98.9118,-111.835"/>
</g>
<!-- MonoBehaviour -->
<g id="node4" class="node"><title>MonoBehaviour</title>
<ellipse fill="none" stroke="black" cx="215.794" cy="-90" rx="69.5877" ry="18"/>
<text text-anchor="middle" x="215.794" y="-86.3" font-family="Times New Roman,serif" font-size="14.00">MonoBehaviour</text>
</g>
<!-- PauseMenuBehaviour&#45;&gt;MonoBehaviour -->
<g id="edge1" class="edge"><title>PauseMenuBehaviour&#45;&gt;MonoBehaviour</title>
<path fill="none" stroke="black" stroke-width="2" d="M161.223,-144.055C170.244,-135.285 181.407,-124.432 191.281,-114.831"/>
<polygon fill="black" stroke="black" stroke-width="2" points="193.795,-117.269 198.525,-107.789 188.915,-112.25 193.795,-117.269"/>
</g>
<!-- ICanBeActivated -->
<g id="node3" class="node"><title>ICanBeActivated</title>
<ellipse fill="none" stroke="black" stroke-dasharray="5,2" cx="72.7935" cy="-18" rx="72.5877" ry="18"/>
<text text-anchor="middle" x="72.7935" y="-14.3" font-family="Times New Roman,serif" font-size="14.00">ICanBeActivated</text>
</g>
<!-- IPauseMenu&#45;&gt;ICanBeActivated -->
<g id="edge3" class="edge"><title>IPauseMenu&#45;&gt;ICanBeActivated</title>
<path fill="none" stroke="black" stroke-dasharray="5,2" d="M72.7935,-71.6966C72.7935,-63.9827 72.7935,-54.7125 72.7935,-46.1124"/>
<polygon fill="black" stroke="black" points="76.2936,-46.1043 72.7935,-36.1043 69.2936,-46.1044 76.2936,-46.1043"/>
</g>
</g>
</svg>
