<?xml version="1.0" encoding="UTF-8" standalone="no"?>
<!DOCTYPE svg PUBLIC "-//W3C//DTD SVG 1.1//EN"
 "http://www.w3.org/Graphics/SVG/1.1/DTD/svg11.dtd">
<!-- Generated by graphviz version 2.38.0 (20140413.2041)
 -->
<!-- Title: %3 Pages: 1 -->
<svg width="385pt" height="116pt"
 viewBox="0.00 0.00 384.54 116.00" xmlns="http://www.w3.org/2000/svg" xmlns:xlink="http://www.w3.org/1999/xlink">
<g id="graph0" class="graph" transform="scale(1 1) rotate(0) translate(4 112)">
<title>%3</title>
<polygon fill="white" stroke="none" points="-4,4 -4,-112 380.54,-112 380.54,4 -4,4"/>
<!-- NotNull -->
<g id="node1" class="node"><title>NotNull</title>
<ellipse fill="#e5e5e5" stroke="black" cx="38.9965" cy="-18" rx="38.9931" ry="18"/>
<text text-anchor="middle" x="38.9965" y="-14.3" font-family="Times New Roman,serif" font-size="14.00">NotNull</text>
</g>
<!-- SceneLoaderBehaviour -->
<g id="node2" class="node"><title>SceneLoaderBehaviour</title>
<ellipse fill="none" stroke="black" cx="157.997" cy="-90" rx="94.7833" ry="18"/>
<text text-anchor="middle" x="157.997" y="-86.3" font-family="Times New Roman,serif" font-size="14.00">SceneLoaderBehaviour</text>
</g>
<!-- SceneLoaderBehaviour&#45;&gt;NotNull -->
<g id="edge3" class="edge"><title>SceneLoaderBehaviour&#45;&gt;NotNull</title>
<path fill="none" stroke="black" d="M130.396,-72.7646C112.577,-62.2827 89.3382,-48.6127 70.7526,-37.68"/>
<polygon fill="black" stroke="black" points="72.4407,-34.6124 62.0467,-32.5589 68.8915,-40.646 72.4407,-34.6124"/>
</g>
<!-- ISceneLoader -->
<g id="node3" class="node"><title>ISceneLoader</title>
<ellipse fill="none" stroke="black" stroke-dasharray="5,2" cx="157.997" cy="-18" rx="61.99" ry="18"/>
<text text-anchor="middle" x="157.997" y="-14.3" font-family="Times New Roman,serif" font-size="14.00">ISceneLoader</text>
</g>
<!-- SceneLoaderBehaviour&#45;&gt;ISceneLoader -->
<g id="edge2" class="edge"><title>SceneLoaderBehaviour&#45;&gt;ISceneLoader</title>
<path fill="none" stroke="black" stroke-dasharray="5,2" d="M157.997,-71.6966C157.997,-63.9827 157.997,-54.7125 157.997,-46.1124"/>
<polygon fill="black" stroke="black" points="161.497,-46.1043 157.997,-36.1043 154.497,-46.1044 161.497,-46.1043"/>
</g>
<!-- MonoBehaviour -->
<g id="node4" class="node"><title>MonoBehaviour</title>
<ellipse fill="none" stroke="black" cx="306.997" cy="-18" rx="69.5877" ry="18"/>
<text text-anchor="middle" x="306.997" y="-14.3" font-family="Times New Roman,serif" font-size="14.00">MonoBehaviour</text>
</g>
<!-- SceneLoaderBehaviour&#45;&gt;MonoBehaviour -->
<g id="edge1" class="edge"><title>SceneLoaderBehaviour&#45;&gt;MonoBehaviour</title>
<path fill="none" stroke="black" stroke-width="2" d="M191.807,-73.1159C213.692,-62.8345 242.334,-49.3785 265.582,-38.4566"/>
<polygon fill="black" stroke="black" stroke-width="2" points="267.289,-41.5214 274.852,-34.1014 264.313,-35.1858 267.289,-41.5214"/>
</g>
</g>
</svg>
