<?xml version="1.0" encoding="UTF-8" standalone="no"?>
<!DOCTYPE svg PUBLIC "-//W3C//DTD SVG 1.1//EN"
 "http://www.w3.org/Graphics/SVG/1.1/DTD/svg11.dtd">
<!-- Generated by graphviz version 2.38.0 (20140413.2041)
 -->
<!-- Title: %3 Pages: 1 -->
<svg width="385pt" height="116pt"
 viewBox="0.00 0.00 385.29 116.00" xmlns="http://www.w3.org/2000/svg" xmlns:xlink="http://www.w3.org/1999/xlink">
<g id="graph0" class="graph" transform="scale(1 1) rotate(0) translate(4 112)">
<title>%3</title>
<polygon fill="white" stroke="none" points="-4,4 -4,-112 381.288,-112 381.288,4 -4,4"/>
<!-- SceneLoaderBehaviour -->
<g id="node1" class="node"><title>SceneLoaderBehaviour</title>
<ellipse fill="none" stroke="black" cx="196.544" cy="-90" rx="94.7833" ry="18"/>
<text text-anchor="middle" x="196.544" y="-86.3" font-family="Times New Roman,serif" font-size="14.00">SceneLoaderBehaviour</text>
</g>
<!-- MonoBehaviour -->
<g id="node2" class="node"><title>MonoBehaviour</title>
<ellipse fill="none" stroke="black" cx="69.5438" cy="-18" rx="69.5877" ry="18"/>
<text text-anchor="middle" x="69.5438" y="-14.3" font-family="Times New Roman,serif" font-size="14.00">MonoBehaviour</text>
</g>
<!-- SceneLoaderBehaviour&#45;&gt;MonoBehaviour -->
<g id="edge1" class="edge"><title>SceneLoaderBehaviour&#45;&gt;MonoBehaviour</title>
<path fill="none" stroke="black" stroke-width="2" d="M167.088,-72.7646C149.123,-62.8626 125.996,-50.1156 106.771,-39.5188"/>
<polygon fill="black" stroke="black" stroke-width="2" points="108.413,-36.4277 97.966,-34.6658 105.034,-42.5582 108.413,-36.4277"/>
</g>
<!-- NotNull -->
<g id="node3" class="node"><title>NotNull</title>
<ellipse fill="#e5e5e5" stroke="black" cx="196.544" cy="-18" rx="38.9931" ry="18"/>
<text text-anchor="middle" x="196.544" y="-14.3" font-family="Times New Roman,serif" font-size="14.00">NotNull</text>
</g>
<!-- SceneLoaderBehaviour&#45;&gt;NotNull -->
<g id="edge3" class="edge"><title>SceneLoaderBehaviour&#45;&gt;NotNull</title>
<path fill="none" stroke="black" d="M196.544,-71.6966C196.544,-63.9827 196.544,-54.7125 196.544,-46.1124"/>
<polygon fill="black" stroke="black" points="200.044,-46.1043 196.544,-36.1043 193.044,-46.1044 200.044,-46.1043"/>
</g>
<!-- ISceneLoader -->
<g id="node4" class="node"><title>ISceneLoader</title>
<ellipse fill="none" stroke="black" stroke-dasharray="5,2" cx="315.544" cy="-18" rx="61.99" ry="18"/>
<text text-anchor="middle" x="315.544" y="-14.3" font-family="Times New Roman,serif" font-size="14.00">ISceneLoader</text>
</g>
<!-- SceneLoaderBehaviour&#45;&gt;ISceneLoader -->
<g id="edge2" class="edge"><title>SceneLoaderBehaviour&#45;&gt;ISceneLoader</title>
<path fill="none" stroke="black" stroke-dasharray="5,2" d="M224.144,-72.7646C240.866,-62.9283 262.36,-50.2845 280.303,-39.7298"/>
<polygon fill="black" stroke="black" points="282.474,-42.5138 289.318,-34.4268 278.924,-36.4802 282.474,-42.5138"/>
</g>
</g>
</svg>
