<?xml version="1.0" encoding="UTF-8" standalone="no"?>
<!DOCTYPE svg PUBLIC "-//W3C//DTD SVG 1.1//EN"
 "http://www.w3.org/Graphics/SVG/1.1/DTD/svg11.dtd">
<!-- Generated by graphviz version 2.38.0 (20140413.2041)
 -->
<!-- Title: %3 Pages: 1 -->
<svg width="314pt" height="188pt"
 viewBox="0.00 0.00 314.04 188.00" xmlns="http://www.w3.org/2000/svg" xmlns:xlink="http://www.w3.org/1999/xlink">
<g id="graph0" class="graph" transform="scale(1 1) rotate(0) translate(4 184)">
<title>%3</title>
<polygon fill="white" stroke="none" points="-4,4 -4,-184 310.045,-184 310.045,4 -4,4"/>
<!-- ISpellVisualizer -->
<g id="node1" class="node"><title>ISpellVisualizer</title>
<ellipse fill="none" stroke="black" stroke-dasharray="5,2" cx="66.9441" cy="-90" rx="66.8882" ry="18"/>
<text text-anchor="middle" x="66.9441" y="-86.3" font-family="Times New Roman,serif" font-size="14.00">ISpellVisualizer</text>
</g>
<!-- ISpell -->
<g id="node4" class="node"><title>ISpell</title>
<ellipse fill="none" stroke="black" stroke-dasharray="5,2" cx="192.944" cy="-18" rx="31.6951" ry="18"/>
<text text-anchor="middle" x="192.944" y="-14.3" font-family="Times New Roman,serif" font-size="14.00">ISpell</text>
</g>
<!-- ISpellVisualizer&#45;&gt;ISpell -->
<g id="edge1" class="edge"><title>ISpellVisualizer&#45;&gt;ISpell</title>
<path fill="none" stroke="black" d="M94.9075,-73.4647C114.775,-62.4272 141.459,-47.6028 161.972,-36.2069"/>
<polygon fill="black" stroke="black" points="163.874,-39.1541 170.915,-31.2381 160.474,-33.035 163.874,-39.1541"/>
</g>
<!-- SpellVizBehaviour -->
<g id="node2" class="node"><title>SpellVizBehaviour</title>
<ellipse fill="none" stroke="black" cx="220.944" cy="-162" rx="77.1866" ry="18"/>
<text text-anchor="middle" x="220.944" y="-158.3" font-family="Times New Roman,serif" font-size="14.00">SpellVizBehaviour</text>
</g>
<!-- SpellVizBehaviour&#45;&gt;ISpellVisualizer -->
<g id="edge3" class="edge"><title>SpellVizBehaviour&#45;&gt;ISpellVisualizer</title>
<path fill="none" stroke="black" stroke-dasharray="5,2" d="M187.148,-145.638C164.066,-135.146 133.326,-121.174 108.711,-109.985"/>
<polygon fill="black" stroke="black" points="110.157,-106.798 99.605,-105.846 107.26,-113.17 110.157,-106.798"/>
</g>
<!-- MonoBehaviour -->
<g id="node3" class="node"><title>MonoBehaviour</title>
<ellipse fill="none" stroke="black" cx="220.944" cy="-90" rx="69.5877" ry="18"/>
<text text-anchor="middle" x="220.944" y="-86.3" font-family="Times New Roman,serif" font-size="14.00">MonoBehaviour</text>
</g>
<!-- SpellVizBehaviour&#45;&gt;MonoBehaviour -->
<g id="edge2" class="edge"><title>SpellVizBehaviour&#45;&gt;MonoBehaviour</title>
<path fill="none" stroke="black" stroke-width="2" d="M220.944,-143.697C220.944,-135.983 220.944,-126.712 220.944,-118.112"/>
<polygon fill="black" stroke="black" stroke-width="2" points="224.444,-118.104 220.944,-108.104 217.444,-118.104 224.444,-118.104"/>
</g>
<!-- SpellVizBehaviour&#45;&gt;ISpell -->
<g id="edge4" class="edge"><title>SpellVizBehaviour&#45;&gt;ISpell</title>
<path fill="none" stroke="black" d="M257.894,-145.951C273.863,-137.372 290.929,-124.905 299.944,-108 307.473,-93.8822 308.381,-85.5946 299.944,-72 285.309,-48.4194 256.719,-35.0075 232.772,-27.5776"/>
<polygon fill="black" stroke="black" points="233.423,-24.124 222.847,-24.7474 231.504,-30.8556 233.423,-24.124"/>
</g>
</g>
</svg>
