<?xml version="1.0" encoding="UTF-8" standalone="no"?>
<!DOCTYPE svg PUBLIC "-//W3C//DTD SVG 1.1//EN"
 "http://www.w3.org/Graphics/SVG/1.1/DTD/svg11.dtd">
<!-- Generated by graphviz version 2.38.0 (20140413.2041)
 -->
<!-- Title: %3 Pages: 1 -->
<svg width="1429pt" height="260pt"
 viewBox="0.00 0.00 1428.88 260.00" xmlns="http://www.w3.org/2000/svg" xmlns:xlink="http://www.w3.org/1999/xlink">
<g id="graph0" class="graph" transform="scale(1 1) rotate(0) translate(4 256)">
<title>%3</title>
<polygon fill="white" stroke="none" points="-4,4 -4,-256 1424.88,-256 1424.88,4 -4,4"/>
<!-- ConvertToInterface -->
<g id="node1" class="node"><title>ConvertToInterface</title>
<ellipse fill="#e5e5e5" stroke="black" cx="178.887" cy="-162" rx="82.5854" ry="18"/>
<text text-anchor="middle" x="178.887" y="-158.3" font-family="Times New Roman,serif" font-size="14.00">ConvertToInterface</text>
</g>
<!-- ISystemParticipator -->
<g id="node2" class="node"><title>ISystemParticipator</title>
<ellipse fill="none" stroke="black" stroke-dasharray="5,2" cx="393.887" cy="-90" rx="82.5854" ry="18"/>
<text text-anchor="middle" x="393.887" y="-86.3" font-family="Times New Roman,serif" font-size="14.00">ISystemParticipator</text>
</g>
<!-- WrapperTransform -->
<g id="node3" class="node"><title>WrapperTransform</title>
<ellipse fill="none" stroke="black" cx="1007.89" cy="-162" rx="81.4863" ry="18"/>
<text text-anchor="middle" x="1007.89" y="-158.3" font-family="Times New Roman,serif" font-size="14.00">WrapperTransform</text>
</g>
<!-- ITransform -->
<g id="node12" class="node"><title>ITransform</title>
<ellipse fill="none" stroke="black" stroke-dasharray="5,2" cx="1020.89" cy="-90" rx="51.9908" ry="18"/>
<text text-anchor="middle" x="1020.89" y="-86.3" font-family="Times New Roman,serif" font-size="14.00">ITransform</text>
</g>
<!-- WrapperTransform&#45;&gt;ITransform -->
<g id="edge1" class="edge"><title>WrapperTransform&#45;&gt;ITransform</title>
<path fill="none" stroke="black" stroke-dasharray="5,2" d="M1011.1,-143.697C1012.53,-135.983 1014.25,-126.712 1015.85,-118.112"/>
<polygon fill="black" stroke="black" points="1019.33,-118.575 1017.71,-108.104 1012.44,-117.297 1019.33,-118.575"/>
</g>
<!-- ICollisionSystemParticipator -->
<g id="node4" class="node"><title>ICollisionSystemParticipator</title>
<ellipse fill="none" stroke="black" stroke-dasharray="5,2" cx="393.887" cy="-162" rx="114.28" ry="18"/>
<text text-anchor="middle" x="393.887" y="-158.3" font-family="Times New Roman,serif" font-size="14.00">ICollisionSystemParticipator</text>
</g>
<!-- ICollisionSystemParticipator&#45;&gt;ISystemParticipator -->
<g id="edge2" class="edge"><title>ICollisionSystemParticipator&#45;&gt;ISystemParticipator</title>
<path fill="none" stroke="black" stroke-dasharray="5,2" d="M393.887,-143.697C393.887,-135.983 393.887,-126.712 393.887,-118.112"/>
<polygon fill="black" stroke="black" points="397.387,-118.104 393.887,-108.104 390.387,-118.104 397.387,-118.104"/>
</g>
<!-- ICollisionSystemParticipatorWrapper -->
<g id="node14" class="node"><title>ICollisionSystemParticipatorWrapper</title>
<ellipse fill="none" stroke="black" stroke-dasharray="5,2" cx="146.887" cy="-90" rx="146.774" ry="18"/>
<text text-anchor="middle" x="146.887" y="-86.3" font-family="Times New Roman,serif" font-size="14.00">ICollisionSystemParticipatorWrapper</text>
</g>
<!-- ICollisionSystemParticipator&#45;&gt;ICollisionSystemParticipatorWrapper -->
<g id="edge3" class="edge"><title>ICollisionSystemParticipator&#45;&gt;ICollisionSystemParticipatorWrapper</title>
<path fill="none" stroke="black" stroke-dasharray="5,2" d="M336.493,-146.326C297.721,-135.719 246.694,-121.3 207.307,-109.842"/>
<polygon fill="black" stroke="black" points="208.139,-106.439 197.559,-106.997 206.177,-113.158 208.139,-106.439"/>
</g>
<!-- ISpell -->
<g id="node5" class="node"><title>ISpell</title>
<ellipse fill="none" stroke="black" stroke-dasharray="5,2" cx="719.887" cy="-162" rx="31.6951" ry="18"/>
<text text-anchor="middle" x="719.887" y="-158.3" font-family="Times New Roman,serif" font-size="14.00">ISpell</text>
</g>
<!-- MonoBehaviour -->
<g id="node6" class="node"><title>MonoBehaviour</title>
<ellipse fill="none" stroke="black" cx="838.887" cy="-162" rx="69.5877" ry="18"/>
<text text-anchor="middle" x="838.887" y="-158.3" font-family="Times New Roman,serif" font-size="14.00">MonoBehaviour</text>
</g>
<!-- SpellBehaviour -->
<g id="node7" class="node"><title>SpellBehaviour</title>
<ellipse fill="none" stroke="black" cx="778.887" cy="-234" rx="65.7887" ry="18"/>
<text text-anchor="middle" x="778.887" y="-230.3" font-family="Times New Roman,serif" font-size="14.00">SpellBehaviour</text>
</g>
<!-- SpellBehaviour&#45;&gt;ConvertToInterface -->
<g id="edge8" class="edge"><title>SpellBehaviour&#45;&gt;ConvertToInterface</title>
<path fill="none" stroke="black" d="M716.521,-228.086C620.511,-220.163 430.836,-203.085 270.887,-180 263.51,-178.935 255.821,-177.706 248.169,-176.405"/>
<polygon fill="black" stroke="black" points="248.614,-172.93 238.161,-174.662 247.413,-179.826 248.614,-172.93"/>
</g>
<!-- SpellBehaviour&#45;&gt;WrapperTransform -->
<g id="edge11" class="edge"><title>SpellBehaviour&#45;&gt;WrapperTransform</title>
<path fill="none" stroke="black" d="M820.889,-220.161C857.868,-208.857 911.985,-192.315 952.498,-179.931"/>
<polygon fill="black" stroke="black" points="953.684,-183.228 962.224,-176.958 951.638,-176.534 953.684,-183.228"/>
</g>
<!-- SpellBehaviour&#45;&gt;ICollisionSystemParticipator -->
<g id="edge6" class="edge"><title>SpellBehaviour&#45;&gt;ICollisionSystemParticipator</title>
<path fill="none" stroke="black" stroke-dasharray="5,2" d="M725.759,-223.34C661.105,-211.585 551.241,-191.61 475.748,-177.884"/>
<polygon fill="black" stroke="black" points="476.26,-174.42 465.795,-176.074 475.008,-181.307 476.26,-174.42"/>
</g>
<!-- SpellBehaviour&#45;&gt;ISpell -->
<g id="edge5" class="edge"><title>SpellBehaviour&#45;&gt;ISpell</title>
<path fill="none" stroke="black" stroke-dasharray="5,2" d="M764.905,-216.411C757.344,-207.441 747.882,-196.215 739.587,-186.373"/>
<polygon fill="black" stroke="black" points="742.081,-183.901 732.96,-178.511 736.729,-188.413 742.081,-183.901"/>
</g>
<!-- SpellBehaviour&#45;&gt;MonoBehaviour -->
<g id="edge4" class="edge"><title>SpellBehaviour&#45;&gt;MonoBehaviour</title>
<path fill="none" stroke="black" stroke-width="2" d="M793.106,-216.411C800.47,-207.82 809.607,-197.159 817.778,-187.627"/>
<polygon fill="black" stroke="black" stroke-width="2" points="820.503,-189.827 824.353,-179.956 815.188,-185.271 820.503,-189.827"/>
</g>
<!-- TimerCollection -->
<g id="node15" class="node"><title>TimerCollection</title>
<ellipse fill="none" stroke="black" cx="600.887" cy="-162" rx="69.5877" ry="18"/>
<text text-anchor="middle" x="600.887" y="-158.3" font-family="Times New Roman,serif" font-size="14.00">TimerCollection</text>
</g>
<!-- SpellBehaviour&#45;&gt;TimerCollection -->
<g id="edge9" class="edge"><title>SpellBehaviour&#45;&gt;TimerCollection</title>
<path fill="none" stroke="black" d="M742.866,-218.834C715.183,-207.948 676.748,-192.833 646.849,-181.075"/>
<polygon fill="black" stroke="black" points="648.052,-177.787 637.465,-177.385 645.491,-184.302 648.052,-177.787"/>
</g>
<!-- WrapperRigidbody2d -->
<g id="node16" class="node"><title>WrapperRigidbody2d</title>
<ellipse fill="none" stroke="black" cx="1329.89" cy="-162" rx="90.9839" ry="18"/>
<text text-anchor="middle" x="1329.89" y="-158.3" font-family="Times New Roman,serif" font-size="14.00">WrapperRigidbody2d</text>
</g>
<!-- SpellBehaviour&#45;&gt;WrapperRigidbody2d -->
<g id="edge10" class="edge"><title>SpellBehaviour&#45;&gt;WrapperRigidbody2d</title>
<path fill="none" stroke="black" d="M839.563,-226.871C926.281,-217.884 1090.59,-200.011 1229.89,-180 1237.88,-178.852 1246.22,-177.569 1254.52,-176.238"/>
<polygon fill="black" stroke="black" points="1255.3,-179.657 1264.61,-174.595 1254.17,-172.748 1255.3,-179.657"/>
</g>
<!-- BasePhysics -->
<g id="node18" class="node"><title>BasePhysics</title>
<ellipse fill="none" stroke="black" cx="1163.89" cy="-162" rx="56.59" ry="18"/>
<text text-anchor="middle" x="1163.89" y="-158.3" font-family="Times New Roman,serif" font-size="14.00">BasePhysics</text>
</g>
<!-- SpellBehaviour&#45;&gt;BasePhysics -->
<g id="edge7" class="edge"><title>SpellBehaviour&#45;&gt;BasePhysics</title>
<path fill="none" stroke="black" d="M835.928,-225.06C899.969,-215.79 1006.85,-199.249 1097.89,-180 1102.63,-178.997 1107.54,-177.88 1112.46,-176.711"/>
<polygon fill="black" stroke="black" points="1113.59,-180.036 1122.47,-174.257 1111.93,-173.237 1113.59,-180.036"/>
</g>
<!-- IFlipX -->
<g id="node8" class="node"><title>IFlipX</title>
<ellipse fill="none" stroke="black" stroke-dasharray="5,2" cx="1163.89" cy="-18" rx="34.394" ry="18"/>
<text text-anchor="middle" x="1163.89" y="-14.3" font-family="Times New Roman,serif" font-size="14.00">IFlipX</text>
</g>
<!-- Exception -->
<g id="node9" class="node"><title>Exception</title>
<ellipse fill="none" stroke="black" cx="600.887" cy="-18" rx="47.3916" ry="18"/>
<text text-anchor="middle" x="600.887" y="-14.3" font-family="Times New Roman,serif" font-size="14.00">Exception</text>
</g>
<!-- Timer -->
<g id="node10" class="node"><title>Timer</title>
<ellipse fill="none" stroke="black" cx="757.887" cy="-90" rx="32.4942" ry="18"/>
<text text-anchor="middle" x="757.887" y="-86.3" font-family="Times New Roman,serif" font-size="14.00">Timer</text>
</g>
<!-- Debug -->
<g id="node13" class="node"><title>Debug</title>
<ellipse fill="#e5e5e5" stroke="black" cx="722.887" cy="-18" rx="34.394" ry="18"/>
<text text-anchor="middle" x="722.887" y="-14.3" font-family="Times New Roman,serif" font-size="14.00">Debug</text>
</g>
<!-- Timer&#45;&gt;Debug -->
<g id="edge13" class="edge"><title>Timer&#45;&gt;Debug</title>
<path fill="none" stroke="black" d="M749.592,-72.411C745.512,-64.2493 740.497,-54.2203 735.92,-45.0653"/>
<polygon fill="black" stroke="black" points="738.968,-43.3352 731.365,-35.9562 732.707,-46.4658 738.968,-43.3352"/>
</g>
<!-- Callback -->
<g id="node20" class="node"><title>Callback</title>
<ellipse fill="#e5e5e5" stroke="black" cx="817.887" cy="-18" rx="42.4939" ry="18"/>
<text text-anchor="middle" x="817.887" y="-14.3" font-family="Times New Roman,serif" font-size="14.00">Callback</text>
</g>
<!-- Timer&#45;&gt;Callback -->
<g id="edge12" class="edge"><title>Timer&#45;&gt;Callback</title>
<path fill="none" stroke="black" d="M771.203,-73.4647C778.831,-64.5657 788.568,-53.2051 797.175,-43.1644"/>
<polygon fill="black" stroke="black" points="799.922,-45.3376 803.772,-35.4672 794.607,-40.782 799.922,-45.3376"/>
</g>
<!-- IRigidBody2d -->
<g id="node11" class="node"><title>IRigidBody2d</title>
<ellipse fill="none" stroke="black" stroke-dasharray="5,2" cx="1316.89" cy="-90" rx="62.2891" ry="18"/>
<text text-anchor="middle" x="1316.89" y="-86.3" font-family="Times New Roman,serif" font-size="14.00">IRigidBody2d</text>
</g>
<!-- ICollisionSystemParticipatorWrapper&#45;&gt;ICollisionSystemParticipator -->
<g id="edge14" class="edge"><title>ICollisionSystemParticipatorWrapper&#45;&gt;ICollisionSystemParticipator</title>
<path fill="none" stroke="black" d="M207.101,-106.447C246.119,-117.143 296.621,-131.426 335.309,-142.694"/>
<polygon fill="black" stroke="black" points="334.801,-146.192 345.381,-145.638 336.765,-139.473 334.801,-146.192"/>
</g>
<!-- TimerCollection&#45;&gt;Timer -->
<g id="edge15" class="edge"><title>TimerCollection&#45;&gt;Timer</title>
<path fill="none" stroke="black" d="M634.183,-146.155C660.638,-134.36 697.483,-117.932 724.073,-106.076"/>
<polygon fill="black" stroke="black" points="725.658,-109.202 733.366,-101.933 722.808,-102.808 725.658,-109.202"/>
</g>
<!-- TimerNotFoundException -->
<g id="node19" class="node"><title>TimerNotFoundException</title>
<ellipse fill="none" stroke="black" cx="600.887" cy="-90" rx="106.681" ry="18"/>
<text text-anchor="middle" x="600.887" y="-86.3" font-family="Times New Roman,serif" font-size="14.00">TimerNotFoundException</text>
</g>
<!-- TimerCollection&#45;&gt;TimerNotFoundException -->
<g id="edge17" class="edge"><title>TimerCollection&#45;&gt;TimerNotFoundException</title>
<path fill="none" stroke="black" d="M600.887,-143.697C600.887,-135.983 600.887,-126.712 600.887,-118.112"/>
<polygon fill="black" stroke="black" points="604.387,-118.104 600.887,-108.104 597.387,-118.104 604.387,-118.104"/>
</g>
<!-- TimerCollection&#45;&gt;Callback -->
<g id="edge16" class="edge"><title>TimerCollection&#45;&gt;Callback</title>
<path fill="none" stroke="black" d="M650.144,-149.175C707.064,-135.31 793.648,-113.514 798.887,-108 814.404,-91.6667 818.53,-65.9161 819.14,-46.3067"/>
<polygon fill="black" stroke="black" points="822.64,-46.1526 819.167,-36.1432 815.641,-46.1337 822.64,-46.1526"/>
</g>
<!-- WrapperRigidbody2d&#45;&gt;IRigidBody2d -->
<g id="edge18" class="edge"><title>WrapperRigidbody2d&#45;&gt;IRigidBody2d</title>
<path fill="none" stroke="black" stroke-dasharray="5,2" d="M1326.67,-143.697C1325.24,-135.983 1323.52,-126.712 1321.92,-118.112"/>
<polygon fill="black" stroke="black" points="1325.33,-117.297 1320.06,-108.104 1318.45,-118.575 1325.33,-117.297"/>
</g>
<!-- IBasePhysics -->
<g id="node17" class="node"><title>IBasePhysics</title>
<ellipse fill="none" stroke="black" stroke-dasharray="5,2" cx="1163.89" cy="-90" rx="59.5901" ry="18"/>
<text text-anchor="middle" x="1163.89" y="-86.3" font-family="Times New Roman,serif" font-size="14.00">IBasePhysics</text>
</g>
<!-- IBasePhysics&#45;&gt;IFlipX -->
<g id="edge19" class="edge"><title>IBasePhysics&#45;&gt;IFlipX</title>
<path fill="none" stroke="black" stroke-dasharray="5,2" d="M1163.89,-71.6966C1163.89,-63.9827 1163.89,-54.7125 1163.89,-46.1124"/>
<polygon fill="black" stroke="black" points="1167.39,-46.1043 1163.89,-36.1043 1160.39,-46.1044 1167.39,-46.1043"/>
</g>
<!-- BasePhysics&#45;&gt;IRigidBody2d -->
<g id="edge22" class="edge"><title>BasePhysics&#45;&gt;IRigidBody2d</title>
<path fill="none" stroke="black" d="M1194.85,-146.834C1218.15,-136.172 1250.33,-121.453 1275.79,-109.805"/>
<polygon fill="black" stroke="black" points="1277.55,-112.849 1285.18,-105.505 1274.63,-106.483 1277.55,-112.849"/>
</g>
<!-- BasePhysics&#45;&gt;ITransform -->
<g id="edge21" class="edge"><title>BasePhysics&#45;&gt;ITransform</title>
<path fill="none" stroke="black" d="M1134.26,-146.496C1112.45,-135.819 1082.61,-121.214 1059.02,-109.667"/>
<polygon fill="black" stroke="black" points="1060.51,-106.499 1049.99,-105.246 1057.43,-112.786 1060.51,-106.499"/>
</g>
<!-- BasePhysics&#45;&gt;IBasePhysics -->
<g id="edge20" class="edge"><title>BasePhysics&#45;&gt;IBasePhysics</title>
<path fill="none" stroke="black" stroke-dasharray="5,2" d="M1163.89,-143.697C1163.89,-135.983 1163.89,-126.712 1163.89,-118.112"/>
<polygon fill="black" stroke="black" points="1167.39,-118.104 1163.89,-108.104 1160.39,-118.104 1167.39,-118.104"/>
</g>
<!-- TimerNotFoundException&#45;&gt;Exception -->
<g id="edge23" class="edge"><title>TimerNotFoundException&#45;&gt;Exception</title>
<path fill="none" stroke="black" stroke-width="2" d="M600.887,-71.6966C600.887,-63.9827 600.887,-54.7125 600.887,-46.1124"/>
<polygon fill="black" stroke="black" stroke-width="2" points="604.387,-46.1043 600.887,-36.1043 597.387,-46.1044 604.387,-46.1043"/>
</g>
</g>
</svg>
