<?xml version="1.0" encoding="UTF-8" standalone="no"?>
<!DOCTYPE svg PUBLIC "-//W3C//DTD SVG 1.1//EN"
 "http://www.w3.org/Graphics/SVG/1.1/DTD/svg11.dtd">
<!-- Generated by graphviz version 2.38.0 (20140413.2041)
 -->
<!-- Title: %3 Pages: 1 -->
<svg width="2095pt" height="332pt"
 viewBox="0.00 0.00 2095.13 332.00" xmlns="http://www.w3.org/2000/svg" xmlns:xlink="http://www.w3.org/1999/xlink">
<g id="graph0" class="graph" transform="scale(1 1) rotate(0) translate(4 328)">
<title>%3</title>
<polygon fill="white" stroke="none" points="-4,4 -4,-328 2091.13,-328 2091.13,4 -4,4"/>
<!-- ICollisionSystemParticipator -->
<g id="node1" class="node"><title>ICollisionSystemParticipator</title>
<ellipse fill="none" stroke="black" stroke-dasharray="5,2" cx="1757.59" cy="-162" rx="114.28" ry="18"/>
<text text-anchor="middle" x="1757.59" y="-158.3" font-family="Times New Roman,serif" font-size="14.00">ICollisionSystemParticipator</text>
</g>
<!-- ISystemParticipator -->
<g id="node9" class="node"><title>ISystemParticipator</title>
<ellipse fill="none" stroke="black" stroke-dasharray="5,2" cx="2004.59" cy="-90" rx="82.5854" ry="18"/>
<text text-anchor="middle" x="2004.59" y="-86.3" font-family="Times New Roman,serif" font-size="14.00">ISystemParticipator</text>
</g>
<!-- ICollisionSystemParticipator&#45;&gt;ISystemParticipator -->
<g id="edge1" class="edge"><title>ICollisionSystemParticipator&#45;&gt;ISystemParticipator</title>
<path fill="none" stroke="black" stroke-dasharray="5,2" d="M1810.58,-145.983C1850.6,-134.64 1905.49,-119.085 1946.67,-107.415"/>
<polygon fill="black" stroke="black" points="1947.63,-110.781 1956.29,-104.687 1945.72,-104.046 1947.63,-110.781"/>
</g>
<!-- ICollisionSystemParticipatorWrapper -->
<g id="node25" class="node"><title>ICollisionSystemParticipatorWrapper</title>
<ellipse fill="none" stroke="black" stroke-dasharray="5,2" cx="1757.59" cy="-90" rx="146.774" ry="18"/>
<text text-anchor="middle" x="1757.59" y="-86.3" font-family="Times New Roman,serif" font-size="14.00">ICollisionSystemParticipatorWrapper</text>
</g>
<!-- ICollisionSystemParticipator&#45;&gt;ICollisionSystemParticipatorWrapper -->
<g id="edge2" class="edge"><title>ICollisionSystemParticipator&#45;&gt;ICollisionSystemParticipatorWrapper</title>
<path fill="none" stroke="black" stroke-dasharray="5,2" d="M1751.67,-143.697C1750.88,-135.983 1750.65,-126.712 1750.99,-118.112"/>
<polygon fill="black" stroke="black" points="1754.49,-118.324 1751.69,-108.104 1747.5,-117.836 1754.49,-118.324"/>
</g>
<!-- BasePhysics -->
<g id="node2" class="node"><title>BasePhysics</title>
<ellipse fill="none" stroke="black" cx="826.588" cy="-162" rx="56.59" ry="18"/>
<text text-anchor="middle" x="826.588" y="-158.3" font-family="Times New Roman,serif" font-size="14.00">BasePhysics</text>
</g>
<!-- IBasePhysics -->
<g id="node6" class="node"><title>IBasePhysics</title>
<ellipse fill="none" stroke="black" stroke-dasharray="5,2" cx="659.588" cy="-90" rx="59.5901" ry="18"/>
<text text-anchor="middle" x="659.588" y="-86.3" font-family="Times New Roman,serif" font-size="14.00">IBasePhysics</text>
</g>
<!-- BasePhysics&#45;&gt;IBasePhysics -->
<g id="edge3" class="edge"><title>BasePhysics&#45;&gt;IBasePhysics</title>
<path fill="none" stroke="black" stroke-dasharray="5,2" d="M793.594,-147.17C767.461,-136.216 730.756,-120.831 702.366,-108.931"/>
<polygon fill="black" stroke="black" points="703.661,-105.679 693.085,-105.041 700.954,-112.134 703.661,-105.679"/>
</g>
<!-- ITransform -->
<g id="node12" class="node"><title>ITransform</title>
<ellipse fill="none" stroke="black" stroke-dasharray="5,2" cx="876.588" cy="-90" rx="51.9908" ry="18"/>
<text text-anchor="middle" x="876.588" y="-86.3" font-family="Times New Roman,serif" font-size="14.00">ITransform</text>
</g>
<!-- BasePhysics&#45;&gt;ITransform -->
<g id="edge4" class="edge"><title>BasePhysics&#45;&gt;ITransform</title>
<path fill="none" stroke="black" d="M838.692,-144.055C844.71,-135.629 852.102,-125.28 858.755,-115.966"/>
<polygon fill="black" stroke="black" points="861.632,-117.961 864.596,-107.789 855.935,-113.892 861.632,-117.961"/>
</g>
<!-- IRigidBody2d -->
<g id="node18" class="node"><title>IRigidBody2d</title>
<ellipse fill="none" stroke="black" stroke-dasharray="5,2" cx="1079.59" cy="-90" rx="62.2891" ry="18"/>
<text text-anchor="middle" x="1079.59" y="-86.3" font-family="Times New Roman,serif" font-size="14.00">IRigidBody2d</text>
</g>
<!-- BasePhysics&#45;&gt;IRigidBody2d -->
<g id="edge5" class="edge"><title>BasePhysics&#45;&gt;IRigidBody2d</title>
<path fill="none" stroke="black" d="M867.8,-149.597C911.069,-137.626 979.257,-118.76 1026.52,-105.682"/>
<polygon fill="black" stroke="black" points="1027.57,-109.024 1036.27,-102.984 1025.7,-102.277 1027.57,-109.024"/>
</g>
<!-- Timer -->
<g id="node3" class="node"><title>Timer</title>
<ellipse fill="none" stroke="black" cx="1329.59" cy="-90" rx="32.4942" ry="18"/>
<text text-anchor="middle" x="1329.59" y="-86.3" font-family="Times New Roman,serif" font-size="14.00">Timer</text>
</g>
<!-- Callback -->
<g id="node10" class="node"><title>Callback</title>
<ellipse fill="#e5e5e5" stroke="black" cx="1269.59" cy="-18" rx="42.4939" ry="18"/>
<text text-anchor="middle" x="1269.59" y="-14.3" font-family="Times New Roman,serif" font-size="14.00">Callback</text>
</g>
<!-- Timer&#45;&gt;Callback -->
<g id="edge6" class="edge"><title>Timer&#45;&gt;Callback</title>
<path fill="none" stroke="black" d="M1316.27,-73.4647C1308.64,-64.5657 1298.91,-53.2051 1290.3,-43.1644"/>
<polygon fill="black" stroke="black" points="1292.87,-40.782 1283.7,-35.4672 1287.55,-45.3376 1292.87,-40.782"/>
</g>
<!-- Debug -->
<g id="node13" class="node"><title>Debug</title>
<ellipse fill="#e5e5e5" stroke="black" cx="1364.59" cy="-18" rx="34.394" ry="18"/>
<text text-anchor="middle" x="1364.59" y="-14.3" font-family="Times New Roman,serif" font-size="14.00">Debug</text>
</g>
<!-- Timer&#45;&gt;Debug -->
<g id="edge7" class="edge"><title>Timer&#45;&gt;Debug</title>
<path fill="none" stroke="black" d="M1337.88,-72.411C1341.96,-64.2493 1346.98,-54.2203 1351.56,-45.0653"/>
<polygon fill="black" stroke="black" points="1354.77,-46.4658 1356.11,-35.9562 1348.51,-43.3352 1354.77,-46.4658"/>
</g>
<!-- SpellSpawner -->
<g id="node4" class="node"><title>SpellSpawner</title>
<ellipse fill="none" stroke="black" cx="255.588" cy="-234" rx="60.3893" ry="18"/>
<text text-anchor="middle" x="255.588" y="-230.3" font-family="Times New Roman,serif" font-size="14.00">SpellSpawner</text>
</g>
<!-- ISpellVisualizer -->
<g id="node5" class="node"><title>ISpellVisualizer</title>
<ellipse fill="none" stroke="black" stroke-dasharray="5,2" cx="412.588" cy="-162" rx="66.8882" ry="18"/>
<text text-anchor="middle" x="412.588" y="-158.3" font-family="Times New Roman,serif" font-size="14.00">ISpellVisualizer</text>
</g>
<!-- SpellSpawner&#45;&gt;ISpellVisualizer -->
<g id="edge11" class="edge"><title>SpellSpawner&#45;&gt;ISpellVisualizer</title>
<path fill="none" stroke="black" d="M287.738,-218.666C311.628,-208.014 344.441,-193.384 370.432,-181.795"/>
<polygon fill="black" stroke="black" points="371.962,-184.946 379.67,-177.677 369.112,-178.552 371.962,-184.946"/>
</g>
<!-- ISpellInstantiator -->
<g id="node7" class="node"><title>ISpellInstantiator</title>
<ellipse fill="none" stroke="black" stroke-dasharray="5,2" cx="255.588" cy="-162" rx="72.2875" ry="18"/>
<text text-anchor="middle" x="255.588" y="-158.3" font-family="Times New Roman,serif" font-size="14.00">ISpellInstantiator</text>
</g>
<!-- SpellSpawner&#45;&gt;ISpellInstantiator -->
<g id="edge10" class="edge"><title>SpellSpawner&#45;&gt;ISpellInstantiator</title>
<path fill="none" stroke="black" d="M255.588,-215.697C255.588,-207.983 255.588,-198.712 255.588,-190.112"/>
<polygon fill="black" stroke="black" points="259.088,-190.104 255.588,-180.104 252.088,-190.104 259.088,-190.104"/>
</g>
<!-- ISpellCaster -->
<g id="node24" class="node"><title>ISpellCaster</title>
<ellipse fill="none" stroke="black" stroke-dasharray="5,2" cx="72.588" cy="-162" rx="55.4913" ry="18"/>
<text text-anchor="middle" x="72.588" y="-158.3" font-family="Times New Roman,serif" font-size="14.00">ISpellCaster</text>
</g>
<!-- SpellSpawner&#45;&gt;ISpellCaster -->
<g id="edge8" class="edge"><title>SpellSpawner&#45;&gt;ISpellCaster</title>
<path fill="none" stroke="black" stroke-dasharray="5,2" d="M219.869,-219.337C190.27,-208.015 148.078,-191.876 116.433,-179.771"/>
<polygon fill="black" stroke="black" points="117.568,-176.458 106.977,-176.154 115.067,-182.996 117.568,-176.458"/>
</g>
<!-- ISpell -->
<g id="node26" class="node"><title>ISpell</title>
<ellipse fill="none" stroke="black" stroke-dasharray="5,2" cx="459.588" cy="-90" rx="31.6951" ry="18"/>
<text text-anchor="middle" x="459.588" y="-86.3" font-family="Times New Roman,serif" font-size="14.00">ISpell</text>
</g>
<!-- SpellSpawner&#45;&gt;ISpell -->
<g id="edge9" class="edge"><title>SpellSpawner&#45;&gt;ISpell</title>
<path fill="none" stroke="black" d="M219.838,-219.251C202.885,-210.706 184.26,-197.887 174.588,-180 166.978,-165.926 164.361,-156.305 174.588,-144 205.02,-107.387 346.134,-95.9435 417.711,-92.4641"/>
<polygon fill="black" stroke="black" points="417.915,-95.9586 427.745,-92.0065 417.596,-88.9658 417.915,-95.9586"/>
</g>
<!-- ISpellVisualizer&#45;&gt;ISpell -->
<g id="edge12" class="edge"><title>ISpellVisualizer&#45;&gt;ISpell</title>
<path fill="none" stroke="black" d="M423.965,-144.055C429.648,-135.592 436.632,-125.19 442.907,-115.845"/>
<polygon fill="black" stroke="black" points="445.97,-117.56 448.639,-107.307 440.159,-113.658 445.97,-117.56"/>
</g>
<!-- IFlipX -->
<g id="node8" class="node"><title>IFlipX</title>
<ellipse fill="none" stroke="black" stroke-dasharray="5,2" cx="72.588" cy="-18" rx="34.394" ry="18"/>
<text text-anchor="middle" x="72.588" y="-14.3" font-family="Times New Roman,serif" font-size="14.00">IFlipX</text>
</g>
<!-- IBasePhysics&#45;&gt;IFlipX -->
<g id="edge13" class="edge"><title>IBasePhysics&#45;&gt;IFlipX</title>
<path fill="none" stroke="black" stroke-dasharray="5,2" d="M605.154,-82.5088C489.471,-68.7135 221.151,-36.7162 115.984,-24.175"/>
<polygon fill="black" stroke="black" points="116.083,-20.6621 105.739,-22.9532 115.254,-27.6128 116.083,-20.6621"/>
</g>
<!-- ISpellInstantiator&#45;&gt;ISpell -->
<g id="edge14" class="edge"><title>ISpellInstantiator&#45;&gt;ISpell</title>
<path fill="none" stroke="black" d="M296.38,-147.003C333.579,-134.238 388.012,-115.56 423.619,-103.342"/>
<polygon fill="black" stroke="black" points="424.81,-106.634 433.133,-100.078 422.538,-100.013 424.81,-106.634"/>
</g>
<!-- Exception -->
<g id="node11" class="node"><title>Exception</title>
<ellipse fill="none" stroke="black" cx="1486.59" cy="-18" rx="47.3916" ry="18"/>
<text text-anchor="middle" x="1486.59" y="-14.3" font-family="Times New Roman,serif" font-size="14.00">Exception</text>
</g>
<!-- SpellSpawnerBehaviour -->
<g id="node14" class="node"><title>SpellSpawnerBehaviour</title>
<ellipse fill="none" stroke="black" cx="473.588" cy="-306" rx="96.6831" ry="18"/>
<text text-anchor="middle" x="473.588" y="-302.3" font-family="Times New Roman,serif" font-size="14.00">SpellSpawnerBehaviour</text>
</g>
<!-- SpellSpawnerBehaviour&#45;&gt;SpellSpawner -->
<g id="edge20" class="edge"><title>SpellSpawnerBehaviour&#45;&gt;SpellSpawner</title>
<path fill="none" stroke="black" d="M427.356,-290.155C391.483,-278.636 341.852,-262.699 305.16,-250.918"/>
<polygon fill="black" stroke="black" points="305.768,-247.437 295.177,-247.712 303.628,-254.102 305.768,-247.437"/>
</g>
<!-- SpellSpawnerBehaviour&#45;&gt;ISpellInstantiator -->
<g id="edge17" class="edge"><title>SpellSpawnerBehaviour&#45;&gt;ISpellInstantiator</title>
<path fill="none" stroke="black" stroke-dasharray="5,2" d="M448.154,-288.433C408.645,-262.698 332.528,-213.117 288.755,-184.604"/>
<polygon fill="black" stroke="black" points="290.481,-181.551 280.191,-179.026 286.66,-187.417 290.481,-181.551"/>
</g>
<!-- SpellSpawnerBehaviour&#45;&gt;IFlipX -->
<g id="edge16" class="edge"><title>SpellSpawnerBehaviour&#45;&gt;IFlipX</title>
<path fill="none" stroke="black" stroke-dasharray="5,2" d="M380.532,-300.767C309.211,-295.169 209.319,-282.172 126.588,-252 68.8705,-230.95 38.6585,-233.574 8.58805,-180 -17.6061,-133.332 23.5242,-73.7644 51.0498,-41.7703"/>
<polygon fill="black" stroke="black" points="53.6957,-44.0617 57.7054,-34.2549 48.4553,-39.4208 53.6957,-44.0617"/>
</g>
<!-- SpellBehaviour -->
<g id="node17" class="node"><title>SpellBehaviour</title>
<ellipse fill="none" stroke="black" cx="904.588" cy="-234" rx="65.7887" ry="18"/>
<text text-anchor="middle" x="904.588" y="-230.3" font-family="Times New Roman,serif" font-size="14.00">SpellBehaviour</text>
</g>
<!-- SpellSpawnerBehaviour&#45;&gt;SpellBehaviour -->
<g id="edge21" class="edge"><title>SpellSpawnerBehaviour&#45;&gt;SpellBehaviour</title>
<path fill="none" stroke="black" d="M543.795,-293.597C625.687,-280.297 759.977,-258.487 839.574,-245.559"/>
<polygon fill="black" stroke="black" points="840.169,-249.009 849.478,-243.951 839.046,-242.099 840.169,-249.009"/>
</g>
<!-- MonoBehaviour -->
<g id="node20" class="node"><title>MonoBehaviour</title>
<ellipse fill="none" stroke="black" cx="643.588" cy="-162" rx="69.5877" ry="18"/>
<text text-anchor="middle" x="643.588" y="-158.3" font-family="Times New Roman,serif" font-size="14.00">MonoBehaviour</text>
</g>
<!-- SpellSpawnerBehaviour&#45;&gt;MonoBehaviour -->
<g id="edge15" class="edge"><title>SpellSpawnerBehaviour&#45;&gt;MonoBehaviour</title>
<path fill="none" stroke="black" stroke-width="2" d="M546.463,-294.074C594.053,-285.279 649.983,-271.21 664.588,-252 678.46,-233.754 670.006,-207.781 659.997,-188.6"/>
<polygon fill="black" stroke="black" stroke-width="2" points="662.998,-186.797 655.049,-179.793 656.895,-190.226 662.998,-186.797"/>
</g>
<!-- SpellVizBehaviour -->
<g id="node21" class="node"><title>SpellVizBehaviour</title>
<ellipse fill="none" stroke="black" cx="578.588" cy="-234" rx="77.1866" ry="18"/>
<text text-anchor="middle" x="578.588" y="-230.3" font-family="Times New Roman,serif" font-size="14.00">SpellVizBehaviour</text>
</g>
<!-- SpellSpawnerBehaviour&#45;&gt;SpellVizBehaviour -->
<g id="edge19" class="edge"><title>SpellSpawnerBehaviour&#45;&gt;SpellVizBehaviour</title>
<path fill="none" stroke="black" d="M498.206,-288.588C512.292,-279.197 530.151,-267.291 545.456,-257.088"/>
<polygon fill="black" stroke="black" points="547.745,-259.768 554.124,-251.309 543.862,-253.944 547.745,-259.768"/>
</g>
<!-- SpellSpawnerBehaviour&#45;&gt;ISpellCaster -->
<g id="edge18" class="edge"><title>SpellSpawnerBehaviour&#45;&gt;ISpellCaster</title>
<path fill="none" stroke="black" stroke-dasharray="5,2" d="M383.333,-299.445C325.087,-293.218 248.854,-280.011 186.588,-252 151.306,-236.128 117.199,-207.122 95.6323,-186.541"/>
<polygon fill="black" stroke="black" points="97.8824,-183.847 88.2753,-179.38 92.9998,-188.863 97.8824,-183.847"/>
</g>
<!-- SpellSpawnerBehaviour&#45;&gt;ISpell -->
<g id="edge23" class="edge"><title>SpellSpawnerBehaviour&#45;&gt;ISpell</title>
<path fill="none" stroke="black" d="M476.656,-287.828C482.799,-252.1 495.455,-170.857 488.588,-144 486.069,-134.149 481.3,-124.159 476.345,-115.548"/>
<polygon fill="black" stroke="black" points="479.204,-113.514 470.994,-106.817 473.236,-117.172 479.204,-113.514"/>
</g>
<!-- NotNull -->
<g id="node27" class="node"><title>NotNull</title>
<ellipse fill="#e5e5e5" stroke="black" cx="1027.59" cy="-234" rx="38.9931" ry="18"/>
<text text-anchor="middle" x="1027.59" y="-230.3" font-family="Times New Roman,serif" font-size="14.00">NotNull</text>
</g>
<!-- SpellSpawnerBehaviour&#45;&gt;NotNull -->
<g id="edge22" class="edge"><title>SpellSpawnerBehaviour&#45;&gt;NotNull</title>
<path fill="none" stroke="black" d="M567.925,-301.763C670.373,-296.713 838.297,-283.947 979.588,-252 982.779,-251.279 986.049,-250.411 989.311,-249.453"/>
<polygon fill="black" stroke="black" points="990.512,-252.744 998.977,-246.372 988.386,-246.075 990.512,-252.744"/>
</g>
<!-- TimerCollection -->
<g id="node15" class="node"><title>TimerCollection</title>
<ellipse fill="none" stroke="black" cx="1351.59" cy="-162" rx="69.5877" ry="18"/>
<text text-anchor="middle" x="1351.59" y="-158.3" font-family="Times New Roman,serif" font-size="14.00">TimerCollection</text>
</g>
<!-- TimerCollection&#45;&gt;Timer -->
<g id="edge24" class="edge"><title>TimerCollection&#45;&gt;Timer</title>
<path fill="none" stroke="black" d="M1346.15,-143.697C1343.7,-135.898 1340.75,-126.509 1338.02,-117.829"/>
<polygon fill="black" stroke="black" points="1341.3,-116.595 1334.96,-108.104 1334.62,-118.694 1341.3,-116.595"/>
</g>
<!-- TimerCollection&#45;&gt;Callback -->
<g id="edge25" class="edge"><title>TimerCollection&#45;&gt;Callback</title>
<path fill="none" stroke="black" d="M1325.57,-145.152C1312.54,-135.895 1297.64,-123.071 1288.59,-108 1277.37,-89.3182 1272.72,-64.9314 1270.82,-46.4104"/>
<polygon fill="black" stroke="black" points="1274.3,-45.9523 1270,-36.2708 1267.32,-46.5228 1274.3,-45.9523"/>
</g>
<!-- TimerNotFoundException -->
<g id="node19" class="node"><title>TimerNotFoundException</title>
<ellipse fill="none" stroke="black" cx="1486.59" cy="-90" rx="106.681" ry="18"/>
<text text-anchor="middle" x="1486.59" y="-86.3" font-family="Times New Roman,serif" font-size="14.00">TimerNotFoundException</text>
</g>
<!-- TimerCollection&#45;&gt;TimerNotFoundException -->
<g id="edge26" class="edge"><title>TimerCollection&#45;&gt;TimerNotFoundException</title>
<path fill="none" stroke="black" d="M1381.21,-145.638C1400.28,-135.752 1425.31,-122.775 1446.19,-111.949"/>
<polygon fill="black" stroke="black" points="1447.88,-115.011 1455.15,-107.301 1444.66,-108.797 1447.88,-115.011"/>
</g>
<!-- WrapperRigidbody2d -->
<g id="node16" class="node"><title>WrapperRigidbody2d</title>
<ellipse fill="none" stroke="black" cx="1172.59" cy="-162" rx="90.9839" ry="18"/>
<text text-anchor="middle" x="1172.59" y="-158.3" font-family="Times New Roman,serif" font-size="14.00">WrapperRigidbody2d</text>
</g>
<!-- WrapperRigidbody2d&#45;&gt;IRigidBody2d -->
<g id="edge27" class="edge"><title>WrapperRigidbody2d&#45;&gt;IRigidBody2d</title>
<path fill="none" stroke="black" stroke-dasharray="5,2" d="M1150.55,-144.411C1138.09,-135.036 1122.37,-123.198 1108.88,-113.051"/>
<polygon fill="black" stroke="black" points="1110.92,-110.205 1100.83,-106.988 1106.71,-115.798 1110.92,-110.205"/>
</g>
<!-- SpellBehaviour&#45;&gt;ICollisionSystemParticipator -->
<g id="edge30" class="edge"><title>SpellBehaviour&#45;&gt;ICollisionSystemParticipator</title>
<path fill="none" stroke="black" stroke-dasharray="5,2" d="M951.176,-221.181C960.532,-219.164 970.333,-217.302 979.588,-216 1259.07,-176.669 1332.43,-204.556 1613.59,-180 1629.27,-178.631 1645.88,-176.916 1662.03,-175.107"/>
<polygon fill="black" stroke="black" points="1662.47,-178.579 1672.01,-173.97 1661.68,-171.624 1662.47,-178.579"/>
</g>
<!-- SpellBehaviour&#45;&gt;BasePhysics -->
<g id="edge31" class="edge"><title>SpellBehaviour&#45;&gt;BasePhysics</title>
<path fill="none" stroke="black" d="M886.103,-216.411C876.025,-207.367 863.392,-196.03 852.361,-186.13"/>
<polygon fill="black" stroke="black" points="854.451,-183.303 844.671,-179.228 849.776,-188.512 854.451,-183.303"/>
</g>
<!-- SpellBehaviour&#45;&gt;TimerCollection -->
<g id="edge33" class="edge"><title>SpellBehaviour&#45;&gt;TimerCollection</title>
<path fill="none" stroke="black" d="M952.054,-221.484C961.16,-219.489 970.644,-217.559 979.588,-216 1108.84,-193.47 1143.21,-201.823 1272.59,-180 1278.67,-178.974 1284.99,-177.799 1291.3,-176.556"/>
<polygon fill="black" stroke="black" points="1292.04,-179.977 1301.15,-174.56 1290.65,-173.116 1292.04,-179.977"/>
</g>
<!-- SpellBehaviour&#45;&gt;WrapperRigidbody2d -->
<g id="edge34" class="edge"><title>SpellBehaviour&#45;&gt;WrapperRigidbody2d</title>
<path fill="none" stroke="black" d="M950.354,-221.046C994.272,-209.575 1060.95,-192.159 1109.82,-179.396"/>
<polygon fill="black" stroke="black" points="1110.86,-182.741 1119.65,-176.827 1109.09,-175.968 1110.86,-182.741"/>
</g>
<!-- SpellBehaviour&#45;&gt;MonoBehaviour -->
<g id="edge28" class="edge"><title>SpellBehaviour&#45;&gt;MonoBehaviour</title>
<path fill="none" stroke="black" stroke-width="2" d="M859.423,-220.887C815.154,-209.014 747.555,-190.884 699.824,-178.082"/>
<polygon fill="black" stroke="black" stroke-width="2" points="700.521,-174.646 689.955,-175.436 698.707,-181.407 700.521,-174.646"/>
</g>
<!-- WrapperTransform -->
<g id="node22" class="node"><title>WrapperTransform</title>
<ellipse fill="none" stroke="black" cx="982.588" cy="-162" rx="81.4863" ry="18"/>
<text text-anchor="middle" x="982.588" y="-158.3" font-family="Times New Roman,serif" font-size="14.00">WrapperTransform</text>
</g>
<!-- SpellBehaviour&#45;&gt;WrapperTransform -->
<g id="edge35" class="edge"><title>SpellBehaviour&#45;&gt;WrapperTransform</title>
<path fill="none" stroke="black" d="M923.073,-216.411C933.006,-207.497 945.421,-196.355 956.338,-186.558"/>
<polygon fill="black" stroke="black" points="958.861,-188.997 963.966,-179.713 954.185,-183.787 958.861,-188.997"/>
</g>
<!-- ConvertToInterface -->
<g id="node23" class="node"><title>ConvertToInterface</title>
<ellipse fill="#e5e5e5" stroke="black" cx="1521.59" cy="-162" rx="82.5854" ry="18"/>
<text text-anchor="middle" x="1521.59" y="-158.3" font-family="Times New Roman,serif" font-size="14.00">ConvertToInterface</text>
</g>
<!-- SpellBehaviour&#45;&gt;ConvertToInterface -->
<g id="edge32" class="edge"><title>SpellBehaviour&#45;&gt;ConvertToInterface</title>
<path fill="none" stroke="black" d="M951.601,-221.262C960.835,-219.263 970.481,-217.388 979.588,-216 1178.37,-185.697 1231.26,-206.5 1430.59,-180 1438.01,-179.013 1445.74,-177.823 1453.43,-176.535"/>
<polygon fill="black" stroke="black" points="1454.22,-179.95 1463.48,-174.796 1453.03,-173.053 1454.22,-179.95"/>
</g>
<!-- SpellBehaviour&#45;&gt;ISpell -->
<g id="edge29" class="edge"><title>SpellBehaviour&#45;&gt;ISpell</title>
<path fill="none" stroke="black" stroke-dasharray="5,2" d="M858.311,-221.189C828.95,-212.465 790.917,-198.826 760.588,-180 740.822,-167.731 743.238,-154.715 722.588,-144 684.404,-124.188 564.396,-105.373 500.525,-96.4311"/>
<polygon fill="black" stroke="black" points="500.789,-92.9344 490.403,-95.031 499.829,-99.8683 500.789,-92.9344"/>
</g>
<!-- TimerNotFoundException&#45;&gt;Exception -->
<g id="edge36" class="edge"><title>TimerNotFoundException&#45;&gt;Exception</title>
<path fill="none" stroke="black" stroke-width="2" d="M1486.59,-71.6966C1486.59,-63.9827 1486.59,-54.7125 1486.59,-46.1124"/>
<polygon fill="black" stroke="black" stroke-width="2" points="1490.09,-46.1043 1486.59,-36.1043 1483.09,-46.1044 1490.09,-46.1043"/>
</g>
<!-- SpellVizBehaviour&#45;&gt;ISpellVisualizer -->
<g id="edge38" class="edge"><title>SpellVizBehaviour&#45;&gt;ISpellVisualizer</title>
<path fill="none" stroke="black" stroke-dasharray="5,2" d="M542.977,-217.983C517.582,-207.274 483.286,-192.812 456.241,-181.408"/>
<polygon fill="black" stroke="black" points="457.578,-178.173 447.004,-177.513 454.858,-184.623 457.578,-178.173"/>
</g>
<!-- SpellVizBehaviour&#45;&gt;MonoBehaviour -->
<g id="edge37" class="edge"><title>SpellVizBehaviour&#45;&gt;MonoBehaviour</title>
<path fill="none" stroke="black" stroke-width="2" d="M594.323,-216.055C602.307,-207.457 612.15,-196.857 620.933,-187.397"/>
<polygon fill="black" stroke="black" stroke-width="2" points="623.759,-189.499 627.998,-179.789 618.629,-184.735 623.759,-189.499"/>
</g>
<!-- SpellVizBehaviour&#45;&gt;ISpell -->
<g id="edge39" class="edge"><title>SpellVizBehaviour&#45;&gt;ISpell</title>
<path fill="none" stroke="black" d="M569.639,-215.912C559.404,-197.203 541.473,-166.83 521.588,-144 511.185,-132.056 498.037,-120.432 486.528,-111.128"/>
<polygon fill="black" stroke="black" points="488.519,-108.24 478.501,-104.792 484.182,-113.735 488.519,-108.24"/>
</g>
<!-- WrapperTransform&#45;&gt;ITransform -->
<g id="edge40" class="edge"><title>WrapperTransform&#45;&gt;ITransform</title>
<path fill="none" stroke="black" stroke-dasharray="5,2" d="M958.003,-144.765C943.141,-134.95 924.048,-122.341 908.087,-111.801"/>
<polygon fill="black" stroke="black" points="909.862,-108.779 899.588,-106.189 906.004,-114.62 909.862,-108.779"/>
</g>
<!-- ISpellCaster&#45;&gt;IFlipX -->
<g id="edge41" class="edge"><title>ISpellCaster&#45;&gt;IFlipX</title>
<path fill="none" stroke="black" stroke-dasharray="5,2" d="M72.588,-143.871C72.588,-119.67 72.588,-75.2108 72.588,-46.3932"/>
<polygon fill="black" stroke="black" points="76.0881,-46.1892 72.588,-36.1893 69.0881,-46.1893 76.0881,-46.1892"/>
</g>
<!-- ICollisionSystemParticipatorWrapper&#45;&gt;ICollisionSystemParticipator -->
<g id="edge42" class="edge"><title>ICollisionSystemParticipatorWrapper&#45;&gt;ICollisionSystemParticipator</title>
<path fill="none" stroke="black" d="M1763.48,-108.104C1764.29,-115.791 1764.52,-125.054 1764.19,-133.665"/>
<polygon fill="black" stroke="black" points="1760.7,-133.48 1763.5,-143.697 1767.68,-133.96 1760.7,-133.48"/>
</g>
</g>
</svg>
