<?xml version="1.0" encoding="UTF-8" standalone="no"?>
<!DOCTYPE svg PUBLIC "-//W3C//DTD SVG 1.1//EN"
 "http://www.w3.org/Graphics/SVG/1.1/DTD/svg11.dtd">
<!-- Generated by graphviz version 2.38.0 (20140413.2041)
 -->
<!-- Title: %3 Pages: 1 -->
<svg width="1328pt" height="260pt"
 viewBox="0.00 0.00 1328.39 260.00" xmlns="http://www.w3.org/2000/svg" xmlns:xlink="http://www.w3.org/1999/xlink">
<g id="graph0" class="graph" transform="scale(1 1) rotate(0) translate(4 256)">
<title>%3</title>
<polygon fill="white" stroke="none" points="-4,4 -4,-256 1324.39,-256 1324.39,4 -4,4"/>
<!-- ConvertToInterface -->
<g id="node1" class="node"><title>ConvertToInterface</title>
<ellipse fill="#e5e5e5" stroke="black" cx="82.5427" cy="-162" rx="82.5854" ry="18"/>
<text text-anchor="middle" x="82.5427" y="-158.3" font-family="Times New Roman,serif" font-size="14.00">ConvertToInterface</text>
</g>
<!-- TimerCollection -->
<g id="node2" class="node"><title>TimerCollection</title>
<ellipse fill="none" stroke="black" cx="252.543" cy="-162" rx="69.5877" ry="18"/>
<text text-anchor="middle" x="252.543" y="-158.3" font-family="Times New Roman,serif" font-size="14.00">TimerCollection</text>
</g>
<!-- TimerNotFoundException -->
<g id="node11" class="node"><title>TimerNotFoundException</title>
<ellipse fill="none" stroke="black" cx="276.543" cy="-90" rx="106.681" ry="18"/>
<text text-anchor="middle" x="276.543" y="-86.3" font-family="Times New Roman,serif" font-size="14.00">TimerNotFoundException</text>
</g>
<!-- TimerCollection&#45;&gt;TimerNotFoundException -->
<g id="edge3" class="edge"><title>TimerCollection&#45;&gt;TimerNotFoundException</title>
<path fill="none" stroke="black" d="M258.352,-144.055C261.054,-136.176 264.331,-126.617 267.356,-117.794"/>
<polygon fill="black" stroke="black" points="270.687,-118.87 270.62,-108.275 264.066,-116.6 270.687,-118.87"/>
</g>
<!-- Timer -->
<g id="node14" class="node"><title>Timer</title>
<ellipse fill="none" stroke="black" cx="119.543" cy="-90" rx="32.4942" ry="18"/>
<text text-anchor="middle" x="119.543" y="-86.3" font-family="Times New Roman,serif" font-size="14.00">Timer</text>
</g>
<!-- TimerCollection&#45;&gt;Timer -->
<g id="edge1" class="edge"><title>TimerCollection&#45;&gt;Timer</title>
<path fill="none" stroke="black" d="M223.355,-145.638C202.079,-134.44 173.267,-119.276 151.395,-107.764"/>
<polygon fill="black" stroke="black" points="152.967,-104.637 142.488,-103.076 149.707,-110.831 152.967,-104.637"/>
</g>
<!-- Callback -->
<g id="node15" class="node"><title>Callback</title>
<ellipse fill="#e5e5e5" stroke="black" cx="59.5427" cy="-18" rx="42.4939" ry="18"/>
<text text-anchor="middle" x="59.5427" y="-14.3" font-family="Times New Roman,serif" font-size="14.00">Callback</text>
</g>
<!-- TimerCollection&#45;&gt;Callback -->
<g id="edge2" class="edge"><title>TimerCollection&#45;&gt;Callback</title>
<path fill="none" stroke="black" d="M204.227,-148.966C155.826,-136.49 87.2722,-117.508 78.5427,-108 63.3062,-91.4044 59.1485,-65.6837 58.4549,-46.1522"/>
<polygon fill="black" stroke="black" points="61.954,-46.0084 58.3776,-36.0355 54.9542,-46.062 61.954,-46.0084"/>
</g>
<!-- BasePhysics -->
<g id="node3" class="node"><title>BasePhysics</title>
<ellipse fill="none" stroke="black" cx="597.543" cy="-162" rx="56.59" ry="18"/>
<text text-anchor="middle" x="597.543" y="-158.3" font-family="Times New Roman,serif" font-size="14.00">BasePhysics</text>
</g>
<!-- IBasePhysics -->
<g id="node7" class="node"><title>IBasePhysics</title>
<ellipse fill="none" stroke="black" stroke-dasharray="5,2" cx="603.543" cy="-90" rx="59.5901" ry="18"/>
<text text-anchor="middle" x="603.543" y="-86.3" font-family="Times New Roman,serif" font-size="14.00">IBasePhysics</text>
</g>
<!-- BasePhysics&#45;&gt;IBasePhysics -->
<g id="edge4" class="edge"><title>BasePhysics&#45;&gt;IBasePhysics</title>
<path fill="none" stroke="black" stroke-dasharray="5,2" d="M599.026,-143.697C599.687,-135.983 600.482,-126.712 601.219,-118.112"/>
<polygon fill="black" stroke="black" points="604.71,-118.367 602.077,-108.104 597.735,-117.769 604.71,-118.367"/>
</g>
<!-- IRigidBody2d -->
<g id="node19" class="node"><title>IRigidBody2d</title>
<ellipse fill="none" stroke="black" stroke-dasharray="5,2" cx="463.543" cy="-90" rx="62.2891" ry="18"/>
<text text-anchor="middle" x="463.543" y="-86.3" font-family="Times New Roman,serif" font-size="14.00">IRigidBody2d</text>
</g>
<!-- BasePhysics&#45;&gt;IRigidBody2d -->
<g id="edge6" class="edge"><title>BasePhysics&#45;&gt;IRigidBody2d</title>
<path fill="none" stroke="black" d="M569.452,-146.326C549.709,-136.012 523.069,-122.096 501.447,-110.801"/>
<polygon fill="black" stroke="black" points="503.006,-107.666 492.522,-106.138 499.765,-113.871 503.006,-107.666"/>
</g>
<!-- ITransform -->
<g id="node20" class="node"><title>ITransform</title>
<ellipse fill="none" stroke="black" stroke-dasharray="5,2" cx="744.543" cy="-90" rx="51.9908" ry="18"/>
<text text-anchor="middle" x="744.543" y="-86.3" font-family="Times New Roman,serif" font-size="14.00">ITransform</text>
</g>
<!-- BasePhysics&#45;&gt;ITransform -->
<g id="edge5" class="edge"><title>BasePhysics&#45;&gt;ITransform</title>
<path fill="none" stroke="black" d="M627.645,-146.666C650.188,-135.931 681.216,-121.155 705.641,-109.525"/>
<polygon fill="black" stroke="black" points="707.459,-112.535 714.983,-105.076 704.45,-106.215 707.459,-112.535"/>
</g>
<!-- ICollisionSystemParticipator -->
<g id="node4" class="node"><title>ICollisionSystemParticipator</title>
<ellipse fill="none" stroke="black" stroke-dasharray="5,2" cx="967.543" cy="-162" rx="114.28" ry="18"/>
<text text-anchor="middle" x="967.543" y="-158.3" font-family="Times New Roman,serif" font-size="14.00">ICollisionSystemParticipator</text>
</g>
<!-- ICollisionSystemParticipatorWrapper -->
<g id="node13" class="node"><title>ICollisionSystemParticipatorWrapper</title>
<ellipse fill="none" stroke="black" stroke-dasharray="5,2" cx="967.543" cy="-90" rx="146.774" ry="18"/>
<text text-anchor="middle" x="967.543" y="-86.3" font-family="Times New Roman,serif" font-size="14.00">ICollisionSystemParticipatorWrapper</text>
</g>
<!-- ICollisionSystemParticipator&#45;&gt;ICollisionSystemParticipatorWrapper -->
<g id="edge8" class="edge"><title>ICollisionSystemParticipator&#45;&gt;ICollisionSystemParticipatorWrapper</title>
<path fill="none" stroke="black" stroke-dasharray="5,2" d="M961.627,-143.697C960.831,-135.983 960.605,-126.712 960.947,-118.112"/>
<polygon fill="black" stroke="black" points="964.441,-118.324 961.648,-108.104 957.458,-117.836 964.441,-118.324"/>
</g>
<!-- ISystemParticipator -->
<g id="node17" class="node"><title>ISystemParticipator</title>
<ellipse fill="none" stroke="black" stroke-dasharray="5,2" cx="1214.54" cy="-90" rx="82.5854" ry="18"/>
<text text-anchor="middle" x="1214.54" y="-86.3" font-family="Times New Roman,serif" font-size="14.00">ISystemParticipator</text>
</g>
<!-- ICollisionSystemParticipator&#45;&gt;ISystemParticipator -->
<g id="edge7" class="edge"><title>ICollisionSystemParticipator&#45;&gt;ISystemParticipator</title>
<path fill="none" stroke="black" stroke-dasharray="5,2" d="M1020.53,-145.983C1060.56,-134.64 1115.44,-119.085 1156.62,-107.415"/>
<polygon fill="black" stroke="black" points="1157.58,-110.781 1166.25,-104.687 1155.67,-104.046 1157.58,-110.781"/>
</g>
<!-- Exception -->
<g id="node5" class="node"><title>Exception</title>
<ellipse fill="none" stroke="black" cx="276.543" cy="-18" rx="47.3916" ry="18"/>
<text text-anchor="middle" x="276.543" y="-14.3" font-family="Times New Roman,serif" font-size="14.00">Exception</text>
</g>
<!-- WrapperRigidbody2d -->
<g id="node6" class="node"><title>WrapperRigidbody2d</title>
<ellipse fill="none" stroke="black" cx="431.543" cy="-162" rx="90.9839" ry="18"/>
<text text-anchor="middle" x="431.543" y="-158.3" font-family="Times New Roman,serif" font-size="14.00">WrapperRigidbody2d</text>
</g>
<!-- WrapperRigidbody2d&#45;&gt;IRigidBody2d -->
<g id="edge9" class="edge"><title>WrapperRigidbody2d&#45;&gt;IRigidBody2d</title>
<path fill="none" stroke="black" stroke-dasharray="5,2" d="M439.289,-144.055C442.929,-136.091 447.355,-126.411 451.424,-117.51"/>
<polygon fill="black" stroke="black" points="454.671,-118.825 455.645,-108.275 448.305,-115.915 454.671,-118.825"/>
</g>
<!-- IFlipX -->
<g id="node9" class="node"><title>IFlipX</title>
<ellipse fill="none" stroke="black" stroke-dasharray="5,2" cx="603.543" cy="-18" rx="34.394" ry="18"/>
<text text-anchor="middle" x="603.543" y="-14.3" font-family="Times New Roman,serif" font-size="14.00">IFlipX</text>
</g>
<!-- IBasePhysics&#45;&gt;IFlipX -->
<g id="edge10" class="edge"><title>IBasePhysics&#45;&gt;IFlipX</title>
<path fill="none" stroke="black" stroke-dasharray="5,2" d="M603.543,-71.6966C603.543,-63.9827 603.543,-54.7125 603.543,-46.1124"/>
<polygon fill="black" stroke="black" points="607.043,-46.1043 603.543,-36.1043 600.043,-46.1044 607.043,-46.1043"/>
</g>
<!-- Debug -->
<g id="node8" class="node"><title>Debug</title>
<ellipse fill="#e5e5e5" stroke="black" cx="154.543" cy="-18" rx="34.394" ry="18"/>
<text text-anchor="middle" x="154.543" y="-14.3" font-family="Times New Roman,serif" font-size="14.00">Debug</text>
</g>
<!-- WrapperTransform -->
<g id="node10" class="node"><title>WrapperTransform</title>
<ellipse fill="none" stroke="black" cx="753.543" cy="-162" rx="81.4863" ry="18"/>
<text text-anchor="middle" x="753.543" y="-158.3" font-family="Times New Roman,serif" font-size="14.00">WrapperTransform</text>
</g>
<!-- WrapperTransform&#45;&gt;ITransform -->
<g id="edge11" class="edge"><title>WrapperTransform&#45;&gt;ITransform</title>
<path fill="none" stroke="black" stroke-dasharray="5,2" d="M751.318,-143.697C750.326,-135.983 749.134,-126.712 748.029,-118.112"/>
<polygon fill="black" stroke="black" points="751.489,-117.576 746.742,-108.104 744.546,-118.469 751.489,-117.576"/>
</g>
<!-- TimerNotFoundException&#45;&gt;Exception -->
<g id="edge12" class="edge"><title>TimerNotFoundException&#45;&gt;Exception</title>
<path fill="none" stroke="black" stroke-width="2" d="M276.543,-71.6966C276.543,-63.9827 276.543,-54.7125 276.543,-46.1124"/>
<polygon fill="black" stroke="black" stroke-width="2" points="280.043,-46.1043 276.543,-36.1043 273.043,-46.1044 280.043,-46.1043"/>
</g>
<!-- SpellBehaviour -->
<g id="node12" class="node"><title>SpellBehaviour</title>
<ellipse fill="none" stroke="black" cx="675.543" cy="-234" rx="65.7887" ry="18"/>
<text text-anchor="middle" x="675.543" y="-230.3" font-family="Times New Roman,serif" font-size="14.00">SpellBehaviour</text>
</g>
<!-- SpellBehaviour&#45;&gt;ConvertToInterface -->
<g id="edge17" class="edge"><title>SpellBehaviour&#45;&gt;ConvertToInterface</title>
<path fill="none" stroke="black" d="M613.518,-228.049C518.514,-220.106 331.37,-203.036 173.543,-180 166.436,-178.963 159.037,-177.77 151.665,-176.506"/>
<polygon fill="black" stroke="black" points="152.114,-173.032 141.659,-174.749 150.903,-179.926 152.114,-173.032"/>
</g>
<!-- SpellBehaviour&#45;&gt;TimerCollection -->
<g id="edge18" class="edge"><title>SpellBehaviour&#45;&gt;TimerCollection</title>
<path fill="none" stroke="black" d="M618.153,-225.216C549.719,-215.689 431.97,-198.525 331.543,-180 325.709,-178.924 319.648,-177.74 313.593,-176.512"/>
<polygon fill="black" stroke="black" points="313.951,-173.012 303.45,-174.417 312.535,-179.868 313.951,-173.012"/>
</g>
<!-- SpellBehaviour&#45;&gt;BasePhysics -->
<g id="edge16" class="edge"><title>SpellBehaviour&#45;&gt;BasePhysics</title>
<path fill="none" stroke="black" d="M657.058,-216.411C646.98,-207.367 634.347,-196.03 623.316,-186.13"/>
<polygon fill="black" stroke="black" points="625.406,-183.303 615.626,-179.228 620.731,-188.512 625.406,-183.303"/>
</g>
<!-- SpellBehaviour&#45;&gt;ICollisionSystemParticipator -->
<g id="edge15" class="edge"><title>SpellBehaviour&#45;&gt;ICollisionSystemParticipator</title>
<path fill="none" stroke="black" stroke-dasharray="5,2" d="M723.434,-221.519C770.804,-210.163 843.82,-192.66 897.662,-179.752"/>
<polygon fill="black" stroke="black" points="898.573,-183.133 907.482,-177.398 896.941,-176.326 898.573,-183.133"/>
</g>
<!-- SpellBehaviour&#45;&gt;WrapperRigidbody2d -->
<g id="edge19" class="edge"><title>SpellBehaviour&#45;&gt;WrapperRigidbody2d</title>
<path fill="none" stroke="black" d="M631.92,-220.485C592.542,-209.188 534.271,-192.471 490.705,-179.973"/>
<polygon fill="black" stroke="black" points="491.665,-176.607 481.087,-177.214 489.734,-183.336 491.665,-176.607"/>
</g>
<!-- SpellBehaviour&#45;&gt;WrapperTransform -->
<g id="edge20" class="edge"><title>SpellBehaviour&#45;&gt;WrapperTransform</title>
<path fill="none" stroke="black" d="M694.028,-216.411C703.96,-207.497 716.375,-196.355 727.292,-186.558"/>
<polygon fill="black" stroke="black" points="729.815,-188.997 734.92,-179.713 725.14,-183.787 729.815,-188.997"/>
</g>
<!-- MonoBehaviour -->
<g id="node16" class="node"><title>MonoBehaviour</title>
<ellipse fill="none" stroke="black" cx="1169.54" cy="-162" rx="69.5877" ry="18"/>
<text text-anchor="middle" x="1169.54" y="-158.3" font-family="Times New Roman,serif" font-size="14.00">MonoBehaviour</text>
</g>
<!-- SpellBehaviour&#45;&gt;MonoBehaviour -->
<g id="edge13" class="edge"><title>SpellBehaviour&#45;&gt;MonoBehaviour</title>
<path fill="none" stroke="black" stroke-width="2" d="M735.916,-226.916C816.907,-218.383 965.076,-201.471 1090.54,-180 1096.62,-178.959 1102.94,-177.775 1109.25,-176.526"/>
<polygon fill="black" stroke="black" stroke-width="2" points="1109.99,-179.947 1119.09,-174.524 1108.6,-173.087 1109.99,-179.947"/>
</g>
<!-- ISpell -->
<g id="node18" class="node"><title>ISpell</title>
<ellipse fill="none" stroke="black" stroke-dasharray="5,2" cx="1288.54" cy="-162" rx="31.6951" ry="18"/>
<text text-anchor="middle" x="1288.54" y="-158.3" font-family="Times New Roman,serif" font-size="14.00">ISpell</text>
</g>
<!-- SpellBehaviour&#45;&gt;ISpell -->
<g id="edge14" class="edge"><title>SpellBehaviour&#45;&gt;ISpell</title>
<path fill="none" stroke="black" stroke-dasharray="5,2" d="M741.528,-233.464C849.305,-232.769 1069.09,-225.259 1248.54,-180 1250.89,-179.408 1253.27,-178.698 1255.65,-177.909"/>
<polygon fill="black" stroke="black" points="1257.13,-181.093 1265.27,-174.315 1254.68,-174.536 1257.13,-181.093"/>
</g>
<!-- ICollisionSystemParticipatorWrapper&#45;&gt;ICollisionSystemParticipator -->
<g id="edge21" class="edge"><title>ICollisionSystemParticipatorWrapper&#45;&gt;ICollisionSystemParticipator</title>
<path fill="none" stroke="black" d="M973.438,-108.104C974.243,-115.791 974.48,-125.054 974.147,-133.665"/>
<polygon fill="black" stroke="black" points="970.651,-133.48 973.458,-143.697 977.635,-133.96 970.651,-133.48"/>
</g>
<!-- Timer&#45;&gt;Debug -->
<g id="edge23" class="edge"><title>Timer&#45;&gt;Debug</title>
<path fill="none" stroke="black" d="M127.837,-72.411C131.918,-64.2493 136.933,-54.2203 141.51,-45.0653"/>
<polygon fill="black" stroke="black" points="144.723,-46.4658 146.065,-35.9562 138.462,-43.3352 144.723,-46.4658"/>
</g>
<!-- Timer&#45;&gt;Callback -->
<g id="edge22" class="edge"><title>Timer&#45;&gt;Callback</title>
<path fill="none" stroke="black" d="M106.227,-73.4647C98.599,-64.5657 88.8613,-53.2051 80.255,-43.1644"/>
<polygon fill="black" stroke="black" points="82.8228,-40.782 73.6574,-35.4672 77.5079,-45.3376 82.8228,-40.782"/>
</g>
</g>
</svg>
