<?xml version="1.0" encoding="UTF-8" standalone="no"?>
<!DOCTYPE svg PUBLIC "-//W3C//DTD SVG 1.1//EN"
 "http://www.w3.org/Graphics/SVG/1.1/DTD/svg11.dtd">
<!-- Generated by graphviz version 2.38.0 (20140413.2041)
 -->
<!-- Title: %3 Pages: 1 -->
<svg width="2219pt" height="332pt"
 viewBox="0.00 0.00 2219.44 332.00" xmlns="http://www.w3.org/2000/svg" xmlns:xlink="http://www.w3.org/1999/xlink">
<g id="graph0" class="graph" transform="scale(1 1) rotate(0) translate(4 328)">
<title>%3</title>
<polygon fill="white" stroke="none" points="-4,4 -4,-328 2215.44,-328 2215.44,4 -4,4"/>
<!-- SpellVizBehaviour -->
<g id="node1" class="node"><title>SpellVizBehaviour</title>
<ellipse fill="none" stroke="black" cx="398.896" cy="-234" rx="77.1866" ry="18"/>
<text text-anchor="middle" x="398.896" y="-230.3" font-family="Times New Roman,serif" font-size="14.00">SpellVizBehaviour</text>
</g>
<!-- ISpellVisualizer -->
<g id="node11" class="node"><title>ISpellVisualizer</title>
<ellipse fill="none" stroke="black" stroke-dasharray="5,2" cx="282.896" cy="-162" rx="66.8882" ry="18"/>
<text text-anchor="middle" x="282.896" y="-158.3" font-family="Times New Roman,serif" font-size="14.00">ISpellVisualizer</text>
</g>
<!-- SpellVizBehaviour&#45;&gt;ISpellVisualizer -->
<g id="edge2" class="edge"><title>SpellVizBehaviour&#45;&gt;ISpellVisualizer</title>
<path fill="none" stroke="black" stroke-dasharray="5,2" d="M372.283,-216.941C356.106,-207.179 335.268,-194.604 317.781,-184.052"/>
<polygon fill="black" stroke="black" points="319.355,-180.913 308.985,-178.743 315.738,-186.907 319.355,-180.913"/>
</g>
<!-- ISpell -->
<g id="node15" class="node"><title>ISpell</title>
<ellipse fill="none" stroke="black" stroke-dasharray="5,2" cx="234.896" cy="-90" rx="31.6951" ry="18"/>
<text text-anchor="middle" x="234.896" y="-86.3" font-family="Times New Roman,serif" font-size="14.00">ISpell</text>
</g>
<!-- SpellVizBehaviour&#45;&gt;ISpell -->
<g id="edge3" class="edge"><title>SpellVizBehaviour&#45;&gt;ISpell</title>
<path fill="none" stroke="black" d="M395.165,-215.748C390.085,-196.036 379.205,-163.937 358.896,-144 335.637,-121.167 301.005,-107.494 274.247,-99.771"/>
<polygon fill="black" stroke="black" points="274.986,-96.3448 264.418,-97.0955 273.148,-103.099 274.986,-96.3448"/>
</g>
<!-- MonoBehaviour -->
<g id="node25" class="node"><title>MonoBehaviour</title>
<ellipse fill="none" stroke="black" cx="603.896" cy="-162" rx="69.5877" ry="18"/>
<text text-anchor="middle" x="603.896" y="-158.3" font-family="Times New Roman,serif" font-size="14.00">MonoBehaviour</text>
</g>
<!-- SpellVizBehaviour&#45;&gt;MonoBehaviour -->
<g id="edge1" class="edge"><title>SpellVizBehaviour&#45;&gt;MonoBehaviour</title>
<path fill="none" stroke="black" stroke-width="2" d="M440.875,-218.666C473.746,-207.441 519.556,-191.799 554.246,-179.953"/>
<polygon fill="black" stroke="black" stroke-width="2" points="555.384,-183.264 563.716,-176.72 553.122,-176.639 555.384,-183.264"/>
</g>
<!-- Callback -->
<g id="node2" class="node"><title>Callback</title>
<ellipse fill="#e5e5e5" stroke="black" cx="1393.9" cy="-18" rx="42.4939" ry="18"/>
<text text-anchor="middle" x="1393.9" y="-14.3" font-family="Times New Roman,serif" font-size="14.00">Callback</text>
</g>
<!-- ISpellCaster -->
<g id="node3" class="node"><title>ISpellCaster</title>
<ellipse fill="none" stroke="black" stroke-dasharray="5,2" cx="460.896" cy="-162" rx="55.4913" ry="18"/>
<text text-anchor="middle" x="460.896" y="-158.3" font-family="Times New Roman,serif" font-size="14.00">ISpellCaster</text>
</g>
<!-- IFlipX -->
<g id="node6" class="node"><title>IFlipX</title>
<ellipse fill="none" stroke="black" stroke-dasharray="5,2" cx="739.896" cy="-18" rx="34.394" ry="18"/>
<text text-anchor="middle" x="739.896" y="-14.3" font-family="Times New Roman,serif" font-size="14.00">IFlipX</text>
</g>
<!-- ISpellCaster&#45;&gt;IFlipX -->
<g id="edge4" class="edge"><title>ISpellCaster&#45;&gt;IFlipX</title>
<path fill="none" stroke="black" stroke-dasharray="5,2" d="M489.442,-146.471C541.563,-119.943 651.837,-63.8183 707.01,-35.7373"/>
<polygon fill="black" stroke="black" points="708.686,-38.8117 716.011,-31.1565 705.511,-32.5732 708.686,-38.8117"/>
</g>
<!-- ISystemParticipator -->
<g id="node4" class="node"><title>ISystemParticipator</title>
<ellipse fill="none" stroke="black" stroke-dasharray="5,2" cx="2128.9" cy="-90" rx="82.5854" ry="18"/>
<text text-anchor="middle" x="2128.9" y="-86.3" font-family="Times New Roman,serif" font-size="14.00">ISystemParticipator</text>
</g>
<!-- ISpellInstantiator -->
<g id="node5" class="node"><title>ISpellInstantiator</title>
<ellipse fill="none" stroke="black" stroke-dasharray="5,2" cx="87.8956" cy="-162" rx="72.2875" ry="18"/>
<text text-anchor="middle" x="87.8956" y="-158.3" font-family="Times New Roman,serif" font-size="14.00">ISpellInstantiator</text>
</g>
<!-- ISpellInstantiator&#45;&gt;ISpell -->
<g id="edge5" class="edge"><title>ISpellInstantiator&#45;&gt;ISpell</title>
<path fill="none" stroke="black" d="M119.792,-145.811C144.094,-134.239 177.444,-118.358 201.991,-106.669"/>
<polygon fill="black" stroke="black" points="203.736,-109.715 211.26,-102.255 200.726,-103.395 203.736,-109.715"/>
</g>
<!-- TimerCollection -->
<g id="node7" class="node"><title>TimerCollection</title>
<ellipse fill="none" stroke="black" cx="1532.9" cy="-162" rx="69.5877" ry="18"/>
<text text-anchor="middle" x="1532.9" y="-158.3" font-family="Times New Roman,serif" font-size="14.00">TimerCollection</text>
</g>
<!-- TimerCollection&#45;&gt;Callback -->
<g id="edge7" class="edge"><title>TimerCollection&#45;&gt;Callback</title>
<path fill="none" stroke="black" d="M1481.27,-149.778C1457.12,-141.96 1429.99,-129.029 1412.9,-108 1398.83,-90.7028 1394.5,-65.4373 1393.44,-46.2411"/>
<polygon fill="black" stroke="black" points="1396.94,-45.9147 1393.15,-36.0186 1389.94,-46.1145 1396.94,-45.9147"/>
</g>
<!-- Timer -->
<g id="node18" class="node"><title>Timer</title>
<ellipse fill="none" stroke="black" cx="1453.9" cy="-90" rx="32.4942" ry="18"/>
<text text-anchor="middle" x="1453.9" y="-86.3" font-family="Times New Roman,serif" font-size="14.00">Timer</text>
</g>
<!-- TimerCollection&#45;&gt;Timer -->
<g id="edge6" class="edge"><title>TimerCollection&#45;&gt;Timer</title>
<path fill="none" stroke="black" d="M1514.17,-144.411C1503.35,-134.819 1489.61,-122.648 1477.99,-112.348"/>
<polygon fill="black" stroke="black" points="1480.15,-109.583 1470.34,-105.57 1475.5,-114.822 1480.15,-109.583"/>
</g>
<!-- TimerNotFoundException -->
<g id="node20" class="node"><title>TimerNotFoundException</title>
<ellipse fill="none" stroke="black" cx="1610.9" cy="-90" rx="106.681" ry="18"/>
<text text-anchor="middle" x="1610.9" y="-86.3" font-family="Times New Roman,serif" font-size="14.00">TimerNotFoundException</text>
</g>
<!-- TimerCollection&#45;&gt;TimerNotFoundException -->
<g id="edge8" class="edge"><title>TimerCollection&#45;&gt;TimerNotFoundException</title>
<path fill="none" stroke="black" d="M1551.38,-144.411C1561.24,-135.562 1573.55,-124.518 1584.41,-114.773"/>
<polygon fill="black" stroke="black" points="1586.9,-117.24 1592,-107.956 1582.22,-112.03 1586.9,-117.24"/>
</g>
<!-- IBasePhysics -->
<g id="node8" class="node"><title>IBasePhysics</title>
<ellipse fill="none" stroke="black" stroke-dasharray="5,2" cx="991.896" cy="-90" rx="59.5901" ry="18"/>
<text text-anchor="middle" x="991.896" y="-86.3" font-family="Times New Roman,serif" font-size="14.00">IBasePhysics</text>
</g>
<!-- IBasePhysics&#45;&gt;IFlipX -->
<g id="edge9" class="edge"><title>IBasePhysics&#45;&gt;IFlipX</title>
<path fill="none" stroke="black" stroke-dasharray="5,2" d="M949.432,-77.2046C901.864,-63.9913 825.387,-42.7475 779.163,-29.9075"/>
<polygon fill="black" stroke="black" points="780.072,-26.5275 769.5,-27.2233 778.198,-33.2722 780.072,-26.5275"/>
</g>
<!-- ITransform -->
<g id="node9" class="node"><title>ITransform</title>
<ellipse fill="none" stroke="black" stroke-dasharray="5,2" cx="854.896" cy="-90" rx="51.9908" ry="18"/>
<text text-anchor="middle" x="854.896" y="-86.3" font-family="Times New Roman,serif" font-size="14.00">ITransform</text>
</g>
<!-- IRigidBody2d -->
<g id="node10" class="node"><title>IRigidBody2d</title>
<ellipse fill="none" stroke="black" stroke-dasharray="5,2" cx="1256.9" cy="-90" rx="62.2891" ry="18"/>
<text text-anchor="middle" x="1256.9" y="-86.3" font-family="Times New Roman,serif" font-size="14.00">IRigidBody2d</text>
</g>
<!-- ISpellVisualizer&#45;&gt;ISpell -->
<g id="edge10" class="edge"><title>ISpellVisualizer&#45;&gt;ISpell</title>
<path fill="none" stroke="black" d="M271.276,-144.055C265.413,-135.505 258.193,-124.975 251.734,-115.556"/>
<polygon fill="black" stroke="black" points="254.619,-113.575 246.078,-107.307 248.846,-117.534 254.619,-113.575"/>
</g>
<!-- ICollisionSystemParticipator -->
<g id="node12" class="node"><title>ICollisionSystemParticipator</title>
<ellipse fill="none" stroke="black" stroke-dasharray="5,2" cx="1881.9" cy="-162" rx="114.28" ry="18"/>
<text text-anchor="middle" x="1881.9" y="-158.3" font-family="Times New Roman,serif" font-size="14.00">ICollisionSystemParticipator</text>
</g>
<!-- ICollisionSystemParticipator&#45;&gt;ISystemParticipator -->
<g id="edge11" class="edge"><title>ICollisionSystemParticipator&#45;&gt;ISystemParticipator</title>
<path fill="none" stroke="black" stroke-dasharray="5,2" d="M1934.88,-145.983C1974.91,-134.64 2029.79,-119.085 2070.98,-107.415"/>
<polygon fill="black" stroke="black" points="2071.93,-110.781 2080.6,-104.687 2070.03,-104.046 2071.93,-110.781"/>
</g>
<!-- ICollisionSystemParticipatorWrapper -->
<g id="node21" class="node"><title>ICollisionSystemParticipatorWrapper</title>
<ellipse fill="none" stroke="black" stroke-dasharray="5,2" cx="1881.9" cy="-90" rx="146.774" ry="18"/>
<text text-anchor="middle" x="1881.9" y="-86.3" font-family="Times New Roman,serif" font-size="14.00">ICollisionSystemParticipatorWrapper</text>
</g>
<!-- ICollisionSystemParticipator&#45;&gt;ICollisionSystemParticipatorWrapper -->
<g id="edge12" class="edge"><title>ICollisionSystemParticipator&#45;&gt;ICollisionSystemParticipatorWrapper</title>
<path fill="none" stroke="black" stroke-dasharray="5,2" d="M1875.98,-143.697C1875.18,-135.983 1874.96,-126.712 1875.3,-118.112"/>
<polygon fill="black" stroke="black" points="1878.79,-118.324 1876,-108.104 1871.81,-117.836 1878.79,-118.324"/>
</g>
<!-- SpellSpawnerBehaviour -->
<g id="node13" class="node"><title>SpellSpawnerBehaviour</title>
<ellipse fill="none" stroke="black" cx="503.896" cy="-306" rx="96.6831" ry="18"/>
<text text-anchor="middle" x="503.896" y="-302.3" font-family="Times New Roman,serif" font-size="14.00">SpellSpawnerBehaviour</text>
</g>
<!-- SpellSpawnerBehaviour&#45;&gt;SpellVizBehaviour -->
<g id="edge17" class="edge"><title>SpellSpawnerBehaviour&#45;&gt;SpellVizBehaviour</title>
<path fill="none" stroke="black" d="M479.278,-288.588C465.191,-279.197 447.332,-267.291 432.028,-257.088"/>
<polygon fill="black" stroke="black" points="433.621,-253.944 423.359,-251.309 429.738,-259.768 433.621,-253.944"/>
</g>
<!-- SpellSpawnerBehaviour&#45;&gt;ISpellCaster -->
<g id="edge16" class="edge"><title>SpellSpawnerBehaviour&#45;&gt;ISpellCaster</title>
<path fill="none" stroke="black" stroke-dasharray="5,2" d="M501.381,-287.983C498.445,-269.856 492.942,-240.464 484.896,-216 481.915,-206.937 477.866,-197.347 473.944,-188.852"/>
<polygon fill="black" stroke="black" points="477.097,-187.333 469.633,-179.814 470.779,-190.346 477.097,-187.333"/>
</g>
<!-- SpellSpawnerBehaviour&#45;&gt;ISpellInstantiator -->
<g id="edge15" class="edge"><title>SpellSpawnerBehaviour&#45;&gt;ISpellInstantiator</title>
<path fill="none" stroke="black" stroke-dasharray="5,2" d="M418.4,-297.448C335.154,-288.999 215.309,-273.607 173.896,-252 145.226,-237.042 120.543,-208.911 105.067,-188.266"/>
<polygon fill="black" stroke="black" points="107.724,-185.969 99.014,-179.937 102.062,-190.084 107.724,-185.969"/>
</g>
<!-- SpellSpawnerBehaviour&#45;&gt;IFlipX -->
<g id="edge14" class="edge"><title>SpellSpawnerBehaviour&#45;&gt;IFlipX</title>
<path fill="none" stroke="black" stroke-dasharray="5,2" d="M538.42,-289.161C578.512,-269.117 644.092,-230.967 682.896,-180 713.853,-139.34 728.962,-80.4552 735.531,-46.3136"/>
<polygon fill="black" stroke="black" points="739.033,-46.6165 737.373,-36.1525 732.145,-45.3678 739.033,-46.6165"/>
</g>
<!-- SpellSpawnerBehaviour&#45;&gt;ISpell -->
<g id="edge21" class="edge"><title>SpellSpawnerBehaviour&#45;&gt;ISpell</title>
<path fill="none" stroke="black" d="M408.959,-302.256C330.957,-297.529 218.612,-284.976 125.896,-252 67.6535,-231.285 37.2528,-233.849 6.89563,-180 -33.363,-108.588 116.547,-94.264 192.862,-91.5407"/>
<polygon fill="black" stroke="black" points="193.226,-95.0314 203.114,-91.2287 193.013,-88.0346 193.226,-95.0314"/>
</g>
<!-- SpellBehaviour -->
<g id="node16" class="node"><title>SpellBehaviour</title>
<ellipse fill="none" stroke="black" cx="926.896" cy="-234" rx="65.7887" ry="18"/>
<text text-anchor="middle" x="926.896" y="-230.3" font-family="Times New Roman,serif" font-size="14.00">SpellBehaviour</text>
</g>
<!-- SpellSpawnerBehaviour&#45;&gt;SpellBehaviour -->
<g id="edge19" class="edge"><title>SpellSpawnerBehaviour&#45;&gt;SpellBehaviour</title>
<path fill="none" stroke="black" d="M573.745,-293.441C653.806,-280.192 783.983,-258.65 861.933,-245.75"/>
<polygon fill="black" stroke="black" points="862.813,-249.152 872.107,-244.067 861.67,-242.246 862.813,-249.152"/>
</g>
<!-- SpellSpawner -->
<g id="node23" class="node"><title>SpellSpawner</title>
<ellipse fill="none" stroke="black" cx="242.896" cy="-234" rx="60.3893" ry="18"/>
<text text-anchor="middle" x="242.896" y="-230.3" font-family="Times New Roman,serif" font-size="14.00">SpellSpawner</text>
</g>
<!-- SpellSpawnerBehaviour&#45;&gt;SpellSpawner -->
<g id="edge18" class="edge"><title>SpellSpawnerBehaviour&#45;&gt;SpellSpawner</title>
<path fill="none" stroke="black" d="M451.078,-290.834C405.933,-278.727 341.287,-261.389 296.047,-249.255"/>
<polygon fill="black" stroke="black" points="296.697,-245.806 286.132,-246.596 294.884,-252.567 296.697,-245.806"/>
</g>
<!-- SpellSpawnerBehaviour&#45;&gt;MonoBehaviour -->
<g id="edge13" class="edge"><title>SpellSpawnerBehaviour&#45;&gt;MonoBehaviour</title>
<path fill="none" stroke="black" stroke-width="2" d="M515.958,-287.871C533.471,-263.003 566.047,-216.746 586.256,-188.048"/>
<polygon fill="black" stroke="black" stroke-width="2" points="589.205,-189.94 592.101,-179.748 583.482,-185.909 589.205,-189.94"/>
</g>
<!-- NotNull -->
<g id="node27" class="node"><title>NotNull</title>
<ellipse fill="#e5e5e5" stroke="black" cx="1049.9" cy="-234" rx="38.9931" ry="18"/>
<text text-anchor="middle" x="1049.9" y="-230.3" font-family="Times New Roman,serif" font-size="14.00">NotNull</text>
</g>
<!-- SpellSpawnerBehaviour&#45;&gt;NotNull -->
<g id="edge20" class="edge"><title>SpellSpawnerBehaviour&#45;&gt;NotNull</title>
<path fill="none" stroke="black" d="M598.129,-301.543C699.081,-296.319 863.476,-283.419 1001.9,-252 1005.09,-251.276 1008.36,-250.406 1011.62,-249.448"/>
<polygon fill="black" stroke="black" points="1012.82,-252.738 1021.28,-246.364 1010.69,-246.069 1012.82,-252.738"/>
</g>
<!-- WrapperTransform -->
<g id="node14" class="node"><title>WrapperTransform</title>
<ellipse fill="none" stroke="black" cx="848.896" cy="-162" rx="81.4863" ry="18"/>
<text text-anchor="middle" x="848.896" y="-158.3" font-family="Times New Roman,serif" font-size="14.00">WrapperTransform</text>
</g>
<!-- WrapperTransform&#45;&gt;ITransform -->
<g id="edge22" class="edge"><title>WrapperTransform&#45;&gt;ITransform</title>
<path fill="none" stroke="black" stroke-dasharray="5,2" d="M850.379,-143.697C851.04,-135.983 851.835,-126.712 852.572,-118.112"/>
<polygon fill="black" stroke="black" points="856.063,-118.367 853.43,-108.104 849.088,-117.769 856.063,-118.367"/>
</g>
<!-- SpellBehaviour&#45;&gt;TimerCollection -->
<g id="edge28" class="edge"><title>SpellBehaviour&#45;&gt;TimerCollection</title>
<path fill="none" stroke="black" d="M973.909,-221.26C983.142,-219.262 992.788,-217.387 1001.9,-216 1201.12,-185.648 1254.51,-209.262 1453.9,-180 1460.18,-179.078 1466.71,-177.95 1473.21,-176.718"/>
<polygon fill="black" stroke="black" points="1474.22,-180.086 1483.35,-174.711 1472.86,-173.219 1474.22,-180.086"/>
</g>
<!-- SpellBehaviour&#45;&gt;ICollisionSystemParticipator -->
<g id="edge25" class="edge"><title>SpellBehaviour&#45;&gt;ICollisionSystemParticipator</title>
<path fill="none" stroke="black" stroke-dasharray="5,2" d="M973.485,-221.197C982.842,-219.179 992.642,-217.313 1001.9,-216 1270.79,-177.854 1340.82,-196.533 1611.9,-180 1663.1,-176.877 1719.77,-173.324 1767.91,-170.277"/>
<polygon fill="black" stroke="black" points="1768.29,-173.76 1778.05,-169.634 1767.85,-166.774 1768.29,-173.76"/>
</g>
<!-- SpellBehaviour&#45;&gt;WrapperTransform -->
<g id="edge30" class="edge"><title>SpellBehaviour&#45;&gt;WrapperTransform</title>
<path fill="none" stroke="black" d="M908.411,-216.411C898.478,-207.497 886.063,-196.355 875.146,-186.558"/>
<polygon fill="black" stroke="black" points="877.298,-183.787 867.518,-179.713 872.623,-188.997 877.298,-183.787"/>
</g>
<!-- SpellBehaviour&#45;&gt;ISpell -->
<g id="edge24" class="edge"><title>SpellBehaviour&#45;&gt;ISpell</title>
<path fill="none" stroke="black" stroke-dasharray="5,2" d="M882.104,-220.682C847.924,-210.848 799.892,-196.089 758.896,-180 724.103,-166.346 718.815,-154.331 682.896,-144 537.926,-102.303 357.509,-93.348 277.041,-91.4697"/>
<polygon fill="black" stroke="black" points="276.889,-87.9659 266.819,-91.2572 276.744,-94.9644 276.889,-87.9659"/>
</g>
<!-- BasePhysics -->
<g id="node17" class="node"><title>BasePhysics</title>
<ellipse fill="none" stroke="black" cx="1004.9" cy="-162" rx="56.59" ry="18"/>
<text text-anchor="middle" x="1004.9" y="-158.3" font-family="Times New Roman,serif" font-size="14.00">BasePhysics</text>
</g>
<!-- SpellBehaviour&#45;&gt;BasePhysics -->
<g id="edge26" class="edge"><title>SpellBehaviour&#45;&gt;BasePhysics</title>
<path fill="none" stroke="black" d="M945.381,-216.411C955.458,-207.367 968.091,-196.03 979.122,-186.13"/>
<polygon fill="black" stroke="black" points="981.708,-188.512 986.812,-179.228 977.032,-183.303 981.708,-188.512"/>
</g>
<!-- ConvertToInterface -->
<g id="node19" class="node"><title>ConvertToInterface</title>
<ellipse fill="#e5e5e5" stroke="black" cx="1161.9" cy="-162" rx="82.5854" ry="18"/>
<text text-anchor="middle" x="1161.9" y="-158.3" font-family="Times New Roman,serif" font-size="14.00">ConvertToInterface</text>
</g>
<!-- SpellBehaviour&#45;&gt;ConvertToInterface -->
<g id="edge27" class="edge"><title>SpellBehaviour&#45;&gt;ConvertToInterface</title>
<path fill="none" stroke="black" d="M969.725,-220.242C1007.84,-208.888 1063.86,-192.203 1105.59,-179.772"/>
<polygon fill="black" stroke="black" points="1106.75,-183.078 1115.34,-176.869 1104.75,-176.37 1106.75,-183.078"/>
</g>
<!-- WrapperRigidbody2d -->
<g id="node24" class="node"><title>WrapperRigidbody2d</title>
<ellipse fill="none" stroke="black" cx="1353.9" cy="-162" rx="90.9839" ry="18"/>
<text text-anchor="middle" x="1353.9" y="-158.3" font-family="Times New Roman,serif" font-size="14.00">WrapperRigidbody2d</text>
</g>
<!-- SpellBehaviour&#45;&gt;WrapperRigidbody2d -->
<g id="edge29" class="edge"><title>SpellBehaviour&#45;&gt;WrapperRigidbody2d</title>
<path fill="none" stroke="black" d="M974.788,-221.537C983.769,-219.56 993.099,-217.623 1001.9,-216 1113.16,-195.478 1142.12,-197.482 1253.9,-180 1261.75,-178.772 1269.94,-177.448 1278.11,-176.1"/>
<polygon fill="black" stroke="black" points="1278.75,-179.542 1288.04,-174.45 1277.6,-172.637 1278.75,-179.542"/>
</g>
<!-- SpellBehaviour&#45;&gt;MonoBehaviour -->
<g id="edge23" class="edge"><title>SpellBehaviour&#45;&gt;MonoBehaviour</title>
<path fill="none" stroke="black" stroke-width="2" d="M877.135,-222.216C820.141,-209.864 726.731,-189.621 665.271,-176.301"/>
<polygon fill="black" stroke="black" stroke-width="2" points="665.83,-172.841 655.316,-174.144 664.348,-179.682 665.83,-172.841"/>
</g>
<!-- BasePhysics&#45;&gt;IBasePhysics -->
<g id="edge31" class="edge"><title>BasePhysics&#45;&gt;IBasePhysics</title>
<path fill="none" stroke="black" stroke-dasharray="5,2" d="M1001.68,-143.697C1000.25,-135.983 998.528,-126.712 996.931,-118.112"/>
<polygon fill="black" stroke="black" points="1000.34,-117.297 995.072,-108.104 993.457,-118.575 1000.34,-117.297"/>
</g>
<!-- BasePhysics&#45;&gt;ITransform -->
<g id="edge32" class="edge"><title>BasePhysics&#45;&gt;ITransform</title>
<path fill="none" stroke="black" d="M974.179,-146.666C950.922,-135.812 918.815,-120.829 893.769,-109.141"/>
<polygon fill="black" stroke="black" points="895.091,-105.896 884.549,-104.838 892.131,-112.239 895.091,-105.896"/>
</g>
<!-- BasePhysics&#45;&gt;IRigidBody2d -->
<g id="edge33" class="edge"><title>BasePhysics&#45;&gt;IRigidBody2d</title>
<path fill="none" stroke="black" d="M1045.94,-149.597C1088.91,-137.662 1156.55,-118.873 1203.61,-105.801"/>
<polygon fill="black" stroke="black" points="1204.63,-109.151 1213.33,-103.103 1202.75,-102.407 1204.63,-109.151"/>
</g>
<!-- Timer&#45;&gt;Callback -->
<g id="edge34" class="edge"><title>Timer&#45;&gt;Callback</title>
<path fill="none" stroke="black" d="M1440.58,-73.4647C1432.95,-64.5657 1423.21,-53.2051 1414.61,-43.1644"/>
<polygon fill="black" stroke="black" points="1417.18,-40.782 1408.01,-35.4672 1411.86,-45.3376 1417.18,-40.782"/>
</g>
<!-- Debug -->
<g id="node22" class="node"><title>Debug</title>
<ellipse fill="#e5e5e5" stroke="black" cx="1488.9" cy="-18" rx="34.394" ry="18"/>
<text text-anchor="middle" x="1488.9" y="-14.3" font-family="Times New Roman,serif" font-size="14.00">Debug</text>
</g>
<!-- Timer&#45;&gt;Debug -->
<g id="edge35" class="edge"><title>Timer&#45;&gt;Debug</title>
<path fill="none" stroke="black" d="M1462.19,-72.411C1466.27,-64.2493 1471.29,-54.2203 1475.86,-45.0653"/>
<polygon fill="black" stroke="black" points="1479.08,-46.4658 1480.42,-35.9562 1472.81,-43.3352 1479.08,-46.4658"/>
</g>
<!-- Exception -->
<g id="node26" class="node"><title>Exception</title>
<ellipse fill="none" stroke="black" cx="1610.9" cy="-18" rx="47.3916" ry="18"/>
<text text-anchor="middle" x="1610.9" y="-14.3" font-family="Times New Roman,serif" font-size="14.00">Exception</text>
</g>
<!-- TimerNotFoundException&#45;&gt;Exception -->
<g id="edge36" class="edge"><title>TimerNotFoundException&#45;&gt;Exception</title>
<path fill="none" stroke="black" stroke-width="2" d="M1610.9,-71.6966C1610.9,-63.9827 1610.9,-54.7125 1610.9,-46.1124"/>
<polygon fill="black" stroke="black" stroke-width="2" points="1614.4,-46.1043 1610.9,-36.1043 1607.4,-46.1044 1614.4,-46.1043"/>
</g>
<!-- ICollisionSystemParticipatorWrapper&#45;&gt;ICollisionSystemParticipator -->
<g id="edge37" class="edge"><title>ICollisionSystemParticipatorWrapper&#45;&gt;ICollisionSystemParticipator</title>
<path fill="none" stroke="black" d="M1887.79,-108.104C1888.6,-115.791 1888.83,-125.054 1888.5,-133.665"/>
<polygon fill="black" stroke="black" points="1885,-133.48 1887.81,-143.697 1891.99,-133.96 1885,-133.48"/>
</g>
<!-- SpellSpawner&#45;&gt;ISpellCaster -->
<g id="edge38" class="edge"><title>SpellSpawner&#45;&gt;ISpellCaster</title>
<path fill="none" stroke="black" stroke-dasharray="5,2" d="M282.374,-220.324C319.135,-208.519 374.004,-190.901 413.2,-178.315"/>
<polygon fill="black" stroke="black" points="414.356,-181.62 422.807,-175.23 412.216,-174.955 414.356,-181.62"/>
</g>
<!-- SpellSpawner&#45;&gt;ISpellInstantiator -->
<g id="edge40" class="edge"><title>SpellSpawner&#45;&gt;ISpellInstantiator</title>
<path fill="none" stroke="black" d="M211.155,-218.666C187.908,-208.167 156.104,-193.804 130.625,-182.297"/>
<polygon fill="black" stroke="black" points="131.755,-178.967 121.201,-178.041 128.874,-185.347 131.755,-178.967"/>
</g>
<!-- SpellSpawner&#45;&gt;ISpellVisualizer -->
<g id="edge41" class="edge"><title>SpellSpawner&#45;&gt;ISpellVisualizer</title>
<path fill="none" stroke="black" d="M252.579,-216.055C257.177,-208.007 262.779,-198.205 267.909,-189.226"/>
<polygon fill="black" stroke="black" points="271.101,-190.694 273.024,-180.275 265.024,-187.221 271.101,-190.694"/>
</g>
<!-- SpellSpawner&#45;&gt;ISpell -->
<g id="edge39" class="edge"><title>SpellSpawner&#45;&gt;ISpell</title>
<path fill="none" stroke="black" d="M227.661,-216.243C219.8,-206.445 211.015,-193.396 206.896,-180 202.193,-164.707 203.046,-159.53 206.896,-144 209.286,-134.357 213.788,-124.535 218.494,-116.009"/>
<polygon fill="black" stroke="black" points="221.541,-117.731 223.59,-107.336 215.506,-114.185 221.541,-117.731"/>
</g>
<!-- WrapperRigidbody2d&#45;&gt;IRigidBody2d -->
<g id="edge42" class="edge"><title>WrapperRigidbody2d&#45;&gt;IRigidBody2d</title>
<path fill="none" stroke="black" stroke-dasharray="5,2" d="M1330.91,-144.411C1317.92,-135.036 1301.51,-123.198 1287.45,-113.051"/>
<polygon fill="black" stroke="black" points="1289.21,-110.002 1279.05,-106.988 1285.11,-115.678 1289.21,-110.002"/>
</g>
</g>
</svg>
