<?xml version="1.0" encoding="UTF-8" standalone="no"?>
<!DOCTYPE svg PUBLIC "-//W3C//DTD SVG 1.1//EN"
 "http://www.w3.org/Graphics/SVG/1.1/DTD/svg11.dtd">
<!-- Generated by graphviz version 2.38.0 (20140413.2041)
 -->
<!-- Title: %3 Pages: 1 -->
<svg width="1531pt" height="260pt"
 viewBox="0.00 0.00 1531.48 260.00" xmlns="http://www.w3.org/2000/svg" xmlns:xlink="http://www.w3.org/1999/xlink">
<g id="graph0" class="graph" transform="scale(1 1) rotate(0) translate(4 256)">
<title>%3</title>
<polygon fill="white" stroke="none" points="-4,4 -4,-256 1527.48,-256 1527.48,4 -4,4"/>
<!-- ICollisionSystemParticipator -->
<g id="node1" class="node"><title>ICollisionSystemParticipator</title>
<ellipse fill="none" stroke="black" stroke-dasharray="5,2" cx="146.887" cy="-162" rx="114.28" ry="18"/>
<text text-anchor="middle" x="146.887" y="-158.3" font-family="Times New Roman,serif" font-size="14.00">ICollisionSystemParticipator</text>
</g>
<!-- ICollisionSystemParticipatorWrapper -->
<g id="node3" class="node"><title>ICollisionSystemParticipatorWrapper</title>
<ellipse fill="none" stroke="black" stroke-dasharray="5,2" cx="146.887" cy="-90" rx="146.774" ry="18"/>
<text text-anchor="middle" x="146.887" y="-86.3" font-family="Times New Roman,serif" font-size="14.00">ICollisionSystemParticipatorWrapper</text>
</g>
<!-- ICollisionSystemParticipator&#45;&gt;ICollisionSystemParticipatorWrapper -->
<g id="edge2" class="edge"><title>ICollisionSystemParticipator&#45;&gt;ICollisionSystemParticipatorWrapper</title>
<path fill="none" stroke="black" stroke-dasharray="5,2" d="M140.971,-143.697C140.176,-135.983 139.949,-126.712 140.292,-118.112"/>
<polygon fill="black" stroke="black" points="143.785,-118.324 140.992,-108.104 136.802,-117.836 143.785,-118.324"/>
</g>
<!-- ISystemParticipator -->
<g id="node14" class="node"><title>ISystemParticipator</title>
<ellipse fill="none" stroke="black" stroke-dasharray="5,2" cx="393.887" cy="-90" rx="82.5854" ry="18"/>
<text text-anchor="middle" x="393.887" y="-86.3" font-family="Times New Roman,serif" font-size="14.00">ISystemParticipator</text>
</g>
<!-- ICollisionSystemParticipator&#45;&gt;ISystemParticipator -->
<g id="edge1" class="edge"><title>ICollisionSystemParticipator&#45;&gt;ISystemParticipator</title>
<path fill="none" stroke="black" stroke-dasharray="5,2" d="M199.875,-145.983C239.9,-134.64 294.785,-119.085 335.967,-107.415"/>
<polygon fill="black" stroke="black" points="336.926,-110.781 345.593,-104.687 335.017,-104.046 336.926,-110.781"/>
</g>
<!-- IBasePhysics -->
<g id="node2" class="node"><title>IBasePhysics</title>
<ellipse fill="none" stroke="black" stroke-dasharray="5,2" cx="799.887" cy="-90" rx="59.5901" ry="18"/>
<text text-anchor="middle" x="799.887" y="-86.3" font-family="Times New Roman,serif" font-size="14.00">IBasePhysics</text>
</g>
<!-- IFlipX -->
<g id="node19" class="node"><title>IFlipX</title>
<ellipse fill="none" stroke="black" stroke-dasharray="5,2" cx="799.887" cy="-18" rx="34.394" ry="18"/>
<text text-anchor="middle" x="799.887" y="-14.3" font-family="Times New Roman,serif" font-size="14.00">IFlipX</text>
</g>
<!-- IBasePhysics&#45;&gt;IFlipX -->
<g id="edge3" class="edge"><title>IBasePhysics&#45;&gt;IFlipX</title>
<path fill="none" stroke="black" stroke-dasharray="5,2" d="M799.887,-71.6966C799.887,-63.9827 799.887,-54.7125 799.887,-46.1124"/>
<polygon fill="black" stroke="black" points="803.387,-46.1043 799.887,-36.1043 796.387,-46.1044 803.387,-46.1043"/>
</g>
<!-- ICollisionSystemParticipatorWrapper&#45;&gt;ICollisionSystemParticipator -->
<g id="edge4" class="edge"><title>ICollisionSystemParticipatorWrapper&#45;&gt;ICollisionSystemParticipator</title>
<path fill="none" stroke="black" d="M152.782,-108.104C153.588,-115.791 153.824,-125.054 153.491,-133.665"/>
<polygon fill="black" stroke="black" points="149.996,-133.48 152.803,-143.697 156.979,-133.96 149.996,-133.48"/>
</g>
<!-- Timer -->
<g id="node4" class="node"><title>Timer</title>
<ellipse fill="none" stroke="black" cx="1221.89" cy="-90" rx="32.4942" ry="18"/>
<text text-anchor="middle" x="1221.89" y="-86.3" font-family="Times New Roman,serif" font-size="14.00">Timer</text>
</g>
<!-- Callback -->
<g id="node11" class="node"><title>Callback</title>
<ellipse fill="#e5e5e5" stroke="black" cx="1281.89" cy="-18" rx="42.4939" ry="18"/>
<text text-anchor="middle" x="1281.89" y="-14.3" font-family="Times New Roman,serif" font-size="14.00">Callback</text>
</g>
<!-- Timer&#45;&gt;Callback -->
<g id="edge5" class="edge"><title>Timer&#45;&gt;Callback</title>
<path fill="none" stroke="black" d="M1235.2,-73.4647C1242.83,-64.5657 1252.57,-53.2051 1261.17,-43.1644"/>
<polygon fill="black" stroke="black" points="1263.92,-45.3376 1267.77,-35.4672 1258.61,-40.782 1263.92,-45.3376"/>
</g>
<!-- Debug -->
<g id="node20" class="node"><title>Debug</title>
<ellipse fill="#e5e5e5" stroke="black" cx="1186.89" cy="-18" rx="34.394" ry="18"/>
<text text-anchor="middle" x="1186.89" y="-14.3" font-family="Times New Roman,serif" font-size="14.00">Debug</text>
</g>
<!-- Timer&#45;&gt;Debug -->
<g id="edge6" class="edge"><title>Timer&#45;&gt;Debug</title>
<path fill="none" stroke="black" d="M1213.59,-72.411C1209.51,-64.2493 1204.5,-54.2203 1199.92,-45.0653"/>
<polygon fill="black" stroke="black" points="1202.97,-43.3352 1195.37,-35.9562 1196.71,-46.4658 1202.97,-43.3352"/>
</g>
<!-- WrapperRigidbody2d -->
<g id="node5" class="node"><title>WrapperRigidbody2d</title>
<ellipse fill="none" stroke="black" cx="369.887" cy="-162" rx="90.9839" ry="18"/>
<text text-anchor="middle" x="369.887" y="-158.3" font-family="Times New Roman,serif" font-size="14.00">WrapperRigidbody2d</text>
</g>
<!-- IRigidBody2d -->
<g id="node15" class="node"><title>IRigidBody2d</title>
<ellipse fill="none" stroke="black" stroke-dasharray="5,2" cx="607.887" cy="-90" rx="62.2891" ry="18"/>
<text text-anchor="middle" x="607.887" y="-86.3" font-family="Times New Roman,serif" font-size="14.00">IRigidBody2d</text>
</g>
<!-- WrapperRigidbody2d&#45;&gt;IRigidBody2d -->
<g id="edge7" class="edge"><title>WrapperRigidbody2d&#45;&gt;IRigidBody2d</title>
<path fill="none" stroke="black" stroke-dasharray="5,2" d="M418.337,-146.75C458.391,-134.97 515.134,-118.28 556.084,-106.236"/>
<polygon fill="black" stroke="black" points="557.267,-109.537 565.873,-103.357 555.292,-102.821 557.267,-109.537"/>
</g>
<!-- ConvertToInterface -->
<g id="node6" class="node"><title>ConvertToInterface</title>
<ellipse fill="#e5e5e5" stroke="black" cx="561.887" cy="-162" rx="82.5854" ry="18"/>
<text text-anchor="middle" x="561.887" y="-158.3" font-family="Times New Roman,serif" font-size="14.00">ConvertToInterface</text>
</g>
<!-- ISpell -->
<g id="node7" class="node"><title>ISpell</title>
<ellipse fill="none" stroke="black" stroke-dasharray="5,2" cx="693.887" cy="-162" rx="31.6951" ry="18"/>
<text text-anchor="middle" x="693.887" y="-158.3" font-family="Times New Roman,serif" font-size="14.00">ISpell</text>
</g>
<!-- ITransform -->
<g id="node8" class="node"><title>ITransform</title>
<ellipse fill="none" stroke="black" stroke-dasharray="5,2" cx="1021.89" cy="-90" rx="51.9908" ry="18"/>
<text text-anchor="middle" x="1021.89" y="-86.3" font-family="Times New Roman,serif" font-size="14.00">ITransform</text>
</g>
<!-- TimerNotFoundException -->
<g id="node9" class="node"><title>TimerNotFoundException</title>
<ellipse fill="none" stroke="black" cx="1416.89" cy="-90" rx="106.681" ry="18"/>
<text text-anchor="middle" x="1416.89" y="-86.3" font-family="Times New Roman,serif" font-size="14.00">TimerNotFoundException</text>
</g>
<!-- Exception -->
<g id="node18" class="node"><title>Exception</title>
<ellipse fill="none" stroke="black" cx="1416.89" cy="-18" rx="47.3916" ry="18"/>
<text text-anchor="middle" x="1416.89" y="-14.3" font-family="Times New Roman,serif" font-size="14.00">Exception</text>
</g>
<!-- TimerNotFoundException&#45;&gt;Exception -->
<g id="edge8" class="edge"><title>TimerNotFoundException&#45;&gt;Exception</title>
<path fill="none" stroke="black" stroke-width="2" d="M1416.89,-71.6966C1416.89,-63.9827 1416.89,-54.7125 1416.89,-46.1124"/>
<polygon fill="black" stroke="black" stroke-width="2" points="1420.39,-46.1043 1416.89,-36.1043 1413.39,-46.1044 1420.39,-46.1043"/>
</g>
<!-- BasePhysics -->
<g id="node10" class="node"><title>BasePhysics</title>
<ellipse fill="none" stroke="black" cx="799.887" cy="-162" rx="56.59" ry="18"/>
<text text-anchor="middle" x="799.887" y="-158.3" font-family="Times New Roman,serif" font-size="14.00">BasePhysics</text>
</g>
<!-- BasePhysics&#45;&gt;IBasePhysics -->
<g id="edge9" class="edge"><title>BasePhysics&#45;&gt;IBasePhysics</title>
<path fill="none" stroke="black" stroke-dasharray="5,2" d="M799.887,-143.697C799.887,-135.983 799.887,-126.712 799.887,-118.112"/>
<polygon fill="black" stroke="black" points="803.387,-118.104 799.887,-108.104 796.387,-118.104 803.387,-118.104"/>
</g>
<!-- BasePhysics&#45;&gt;ITransform -->
<g id="edge10" class="edge"><title>BasePhysics&#45;&gt;ITransform</title>
<path fill="none" stroke="black" d="M838.556,-148.807C876.544,-136.829 934.549,-118.539 975.112,-105.749"/>
<polygon fill="black" stroke="black" points="976.284,-109.049 984.768,-102.704 974.179,-102.373 976.284,-109.049"/>
</g>
<!-- BasePhysics&#45;&gt;IRigidBody2d -->
<g id="edge11" class="edge"><title>BasePhysics&#45;&gt;IRigidBody2d</title>
<path fill="none" stroke="black" d="M764.223,-147.998C733.329,-136.734 688.415,-120.359 654.646,-108.048"/>
<polygon fill="black" stroke="black" points="655.59,-104.667 644.996,-104.529 653.192,-111.243 655.59,-104.667"/>
</g>
<!-- MonoBehaviour -->
<g id="node12" class="node"><title>MonoBehaviour</title>
<ellipse fill="none" stroke="black" cx="943.887" cy="-162" rx="69.5877" ry="18"/>
<text text-anchor="middle" x="943.887" y="-158.3" font-family="Times New Roman,serif" font-size="14.00">MonoBehaviour</text>
</g>
<!-- SpellBehaviour -->
<g id="node13" class="node"><title>SpellBehaviour</title>
<ellipse fill="none" stroke="black" cx="746.887" cy="-234" rx="65.7887" ry="18"/>
<text text-anchor="middle" x="746.887" y="-230.3" font-family="Times New Roman,serif" font-size="14.00">SpellBehaviour</text>
</g>
<!-- SpellBehaviour&#45;&gt;ICollisionSystemParticipator -->
<g id="edge14" class="edge"><title>SpellBehaviour&#45;&gt;ICollisionSystemParticipator</title>
<path fill="none" stroke="black" stroke-dasharray="5,2" d="M686.587,-226.821C596.025,-217.424 419.542,-198.653 269.887,-180 259.836,-178.747 249.332,-177.382 238.878,-175.987"/>
<polygon fill="black" stroke="black" points="239.265,-172.508 228.888,-174.644 238.332,-179.445 239.265,-172.508"/>
</g>
<!-- SpellBehaviour&#45;&gt;WrapperRigidbody2d -->
<g id="edge18" class="edge"><title>SpellBehaviour&#45;&gt;WrapperRigidbody2d</title>
<path fill="none" stroke="black" d="M694.07,-223.193C628.845,-211.082 517.514,-190.411 443.821,-176.728"/>
<polygon fill="black" stroke="black" points="444.152,-173.229 433.681,-174.845 442.874,-180.112 444.152,-173.229"/>
</g>
<!-- SpellBehaviour&#45;&gt;ConvertToInterface -->
<g id="edge16" class="edge"><title>SpellBehaviour&#45;&gt;ConvertToInterface</title>
<path fill="none" stroke="black" d="M709.894,-219.003C681.54,-208.274 642.144,-193.368 611.126,-181.631"/>
<polygon fill="black" stroke="black" points="611.965,-178.206 601.374,-177.941 609.488,-184.753 611.965,-178.206"/>
</g>
<!-- SpellBehaviour&#45;&gt;ISpell -->
<g id="edge13" class="edge"><title>SpellBehaviour&#45;&gt;ISpell</title>
<path fill="none" stroke="black" stroke-dasharray="5,2" d="M734.057,-216.055C727.423,-207.292 719.214,-196.451 711.949,-186.856"/>
<polygon fill="black" stroke="black" points="714.699,-184.689 705.872,-178.829 709.118,-188.915 714.699,-184.689"/>
</g>
<!-- SpellBehaviour&#45;&gt;BasePhysics -->
<g id="edge15" class="edge"><title>SpellBehaviour&#45;&gt;BasePhysics</title>
<path fill="none" stroke="black" d="M759.717,-216.055C766.097,-207.629 773.932,-197.28 780.984,-187.966"/>
<polygon fill="black" stroke="black" points="783.929,-189.874 787.175,-179.789 778.348,-185.649 783.929,-189.874"/>
</g>
<!-- SpellBehaviour&#45;&gt;MonoBehaviour -->
<g id="edge12" class="edge"><title>SpellBehaviour&#45;&gt;MonoBehaviour</title>
<path fill="none" stroke="black" stroke-width="2" d="M785.338,-219.337C816.626,-208.22 860.984,-192.458 894.829,-180.432"/>
<polygon fill="black" stroke="black" stroke-width="2" points="896.27,-183.634 904.521,-176.988 893.927,-177.038 896.27,-183.634"/>
</g>
<!-- TimerCollection -->
<g id="node16" class="node"><title>TimerCollection</title>
<ellipse fill="none" stroke="black" cx="1281.89" cy="-162" rx="69.5877" ry="18"/>
<text text-anchor="middle" x="1281.89" y="-158.3" font-family="Times New Roman,serif" font-size="14.00">TimerCollection</text>
</g>
<!-- SpellBehaviour&#45;&gt;TimerCollection -->
<g id="edge17" class="edge"><title>SpellBehaviour&#45;&gt;TimerCollection</title>
<path fill="none" stroke="black" d="M808.737,-227.715C896.672,-219.77 1062.72,-203.171 1202.89,-180 1209.06,-178.979 1215.49,-177.797 1221.88,-176.542"/>
<polygon fill="black" stroke="black" points="1222.77,-179.934 1231.88,-174.521 1221.38,-173.073 1222.77,-179.934"/>
</g>
<!-- WrapperTransform -->
<g id="node17" class="node"><title>WrapperTransform</title>
<ellipse fill="none" stroke="black" cx="1112.89" cy="-162" rx="81.4863" ry="18"/>
<text text-anchor="middle" x="1112.89" y="-158.3" font-family="Times New Roman,serif" font-size="14.00">WrapperTransform</text>
</g>
<!-- SpellBehaviour&#45;&gt;WrapperTransform -->
<g id="edge19" class="edge"><title>SpellBehaviour&#45;&gt;WrapperTransform</title>
<path fill="none" stroke="black" d="M799.326,-222.971C863.474,-210.702 972.284,-189.891 1043.36,-176.297"/>
<polygon fill="black" stroke="black" points="1044.4,-179.662 1053.57,-174.346 1043.09,-172.786 1044.4,-179.662"/>
</g>
<!-- TimerCollection&#45;&gt;Timer -->
<g id="edge20" class="edge"><title>TimerCollection&#45;&gt;Timer</title>
<path fill="none" stroke="black" d="M1267.36,-144.055C1259.78,-135.204 1250.37,-124.231 1242.09,-114.566"/>
<polygon fill="black" stroke="black" points="1244.62,-112.144 1235.46,-106.829 1239.31,-116.7 1244.62,-112.144"/>
</g>
<!-- TimerCollection&#45;&gt;TimerNotFoundException -->
<g id="edge22" class="edge"><title>TimerCollection&#45;&gt;TimerNotFoundException</title>
<path fill="none" stroke="black" d="M1311.51,-145.638C1330.58,-135.752 1355.61,-122.775 1376.49,-111.949"/>
<polygon fill="black" stroke="black" points="1378.18,-115.011 1385.45,-107.301 1374.96,-108.797 1378.18,-115.011"/>
</g>
<!-- TimerCollection&#45;&gt;Callback -->
<g id="edge21" class="edge"><title>TimerCollection&#45;&gt;Callback</title>
<path fill="none" stroke="black" d="M1281.89,-143.871C1281.89,-119.67 1281.89,-75.2108 1281.89,-46.3932"/>
<polygon fill="black" stroke="black" points="1285.39,-46.1892 1281.89,-36.1893 1278.39,-46.1893 1285.39,-46.1892"/>
</g>
<!-- WrapperTransform&#45;&gt;ITransform -->
<g id="edge23" class="edge"><title>WrapperTransform&#45;&gt;ITransform</title>
<path fill="none" stroke="black" stroke-dasharray="5,2" d="M1091.32,-144.411C1079.16,-135.058 1063.82,-123.254 1050.65,-113.123"/>
<polygon fill="black" stroke="black" points="1052.42,-110.072 1042.36,-106.749 1048.15,-115.62 1052.42,-110.072"/>
</g>
</g>
</svg>
