<?xml version="1.0" encoding="UTF-8" standalone="no"?>
<!DOCTYPE svg PUBLIC "-//W3C//DTD SVG 1.1//EN"
 "http://www.w3.org/Graphics/SVG/1.1/DTD/svg11.dtd">
<!-- Generated by graphviz version 2.38.0 (20140413.2041)
 -->
<!-- Title: %3 Pages: 1 -->
<svg width="1361pt" height="260pt"
 viewBox="0.00 0.00 1361.09 260.00" xmlns="http://www.w3.org/2000/svg" xmlns:xlink="http://www.w3.org/1999/xlink">
<g id="graph0" class="graph" transform="scale(1 1) rotate(0) translate(4 256)">
<title>%3</title>
<polygon fill="white" stroke="none" points="-4,4 -4,-256 1357.09,-256 1357.09,4 -4,4"/>
<!-- IRigidBody2d -->
<g id="node1" class="node"><title>IRigidBody2d</title>
<ellipse fill="none" stroke="black" stroke-dasharray="5,2" cx="455.246" cy="-90" rx="62.2891" ry="18"/>
<text text-anchor="middle" x="455.246" y="-86.3" font-family="Times New Roman,serif" font-size="14.00">IRigidBody2d</text>
</g>
<!-- TimerNotFoundException -->
<g id="node2" class="node"><title>TimerNotFoundException</title>
<ellipse fill="none" stroke="black" cx="259.246" cy="-90" rx="106.681" ry="18"/>
<text text-anchor="middle" x="259.246" y="-86.3" font-family="Times New Roman,serif" font-size="14.00">TimerNotFoundException</text>
</g>
<!-- Exception -->
<g id="node14" class="node"><title>Exception</title>
<ellipse fill="none" stroke="black" cx="259.246" cy="-18" rx="47.3916" ry="18"/>
<text text-anchor="middle" x="259.246" y="-14.3" font-family="Times New Roman,serif" font-size="14.00">Exception</text>
</g>
<!-- TimerNotFoundException&#45;&gt;Exception -->
<g id="edge1" class="edge"><title>TimerNotFoundException&#45;&gt;Exception</title>
<path fill="none" stroke="black" stroke-width="2" d="M259.246,-71.6966C259.246,-63.9827 259.246,-54.7125 259.246,-46.1124"/>
<polygon fill="black" stroke="black" stroke-width="2" points="262.746,-46.1043 259.246,-36.1043 255.746,-46.1044 262.746,-46.1043"/>
</g>
<!-- SpellBehaviour -->
<g id="node3" class="node"><title>SpellBehaviour</title>
<ellipse fill="none" stroke="black" cx="682.246" cy="-234" rx="65.7887" ry="18"/>
<text text-anchor="middle" x="682.246" y="-230.3" font-family="Times New Roman,serif" font-size="14.00">SpellBehaviour</text>
</g>
<!-- WrapperRigidbody2d -->
<g id="node6" class="node"><title>WrapperRigidbody2d</title>
<ellipse fill="none" stroke="black" cx="281.246" cy="-162" rx="90.9839" ry="18"/>
<text text-anchor="middle" x="281.246" y="-158.3" font-family="Times New Roman,serif" font-size="14.00">WrapperRigidbody2d</text>
</g>
<!-- SpellBehaviour&#45;&gt;WrapperRigidbody2d -->
<g id="edge8" class="edge"><title>SpellBehaviour&#45;&gt;WrapperRigidbody2d</title>
<path fill="none" stroke="black" d="M628.582,-223.632C558.792,-211.449 436.461,-190.095 357.174,-176.254"/>
<polygon fill="black" stroke="black" points="357.698,-172.793 347.245,-174.521 356.494,-179.689 357.698,-172.793"/>
</g>
<!-- TimerCollection -->
<g id="node7" class="node"><title>TimerCollection</title>
<ellipse fill="none" stroke="black" cx="102.246" cy="-162" rx="69.5877" ry="18"/>
<text text-anchor="middle" x="102.246" y="-158.3" font-family="Times New Roman,serif" font-size="14.00">TimerCollection</text>
</g>
<!-- SpellBehaviour&#45;&gt;TimerCollection -->
<g id="edge7" class="edge"><title>SpellBehaviour&#45;&gt;TimerCollection</title>
<path fill="none" stroke="black" d="M619.479,-228.52C524.314,-221.241 338,-205.084 181.246,-180 175.064,-179.011 168.637,-177.85 162.238,-176.607"/>
<polygon fill="black" stroke="black" points="162.738,-173.138 152.245,-174.6 161.36,-180.001 162.738,-173.138"/>
</g>
<!-- MonoBehaviour -->
<g id="node8" class="node"><title>MonoBehaviour</title>
<ellipse fill="none" stroke="black" cx="460.246" cy="-162" rx="69.5877" ry="18"/>
<text text-anchor="middle" x="460.246" y="-158.3" font-family="Times New Roman,serif" font-size="14.00">MonoBehaviour</text>
</g>
<!-- SpellBehaviour&#45;&gt;MonoBehaviour -->
<g id="edge2" class="edge"><title>SpellBehaviour&#45;&gt;MonoBehaviour</title>
<path fill="none" stroke="black" stroke-width="2" d="M640.75,-219.916C604.422,-208.461 551.475,-191.766 512.313,-179.417"/>
<polygon fill="black" stroke="black" stroke-width="2" points="513.261,-176.047 502.672,-176.377 511.156,-182.723 513.261,-176.047"/>
</g>
<!-- BasePhysics -->
<g id="node9" class="node"><title>BasePhysics</title>
<ellipse fill="none" stroke="black" cx="604.246" cy="-162" rx="56.59" ry="18"/>
<text text-anchor="middle" x="604.246" y="-158.3" font-family="Times New Roman,serif" font-size="14.00">BasePhysics</text>
</g>
<!-- SpellBehaviour&#45;&gt;BasePhysics -->
<g id="edge5" class="edge"><title>SpellBehaviour&#45;&gt;BasePhysics</title>
<path fill="none" stroke="black" d="M663.761,-216.411C653.683,-207.367 641.051,-196.03 630.019,-186.13"/>
<polygon fill="black" stroke="black" points="632.11,-183.303 622.329,-179.228 627.434,-188.512 632.11,-183.303"/>
</g>
<!-- ConvertToInterface -->
<g id="node10" class="node"><title>ConvertToInterface</title>
<ellipse fill="#e5e5e5" stroke="black" cx="761.246" cy="-162" rx="82.5854" ry="18"/>
<text text-anchor="middle" x="761.246" y="-158.3" font-family="Times New Roman,serif" font-size="14.00">ConvertToInterface</text>
</g>
<!-- SpellBehaviour&#45;&gt;ConvertToInterface -->
<g id="edge6" class="edge"><title>SpellBehaviour&#45;&gt;ConvertToInterface</title>
<path fill="none" stroke="black" d="M700.968,-216.411C711.028,-207.497 723.602,-196.355 734.659,-186.558"/>
<polygon fill="black" stroke="black" points="737.222,-188.964 742.385,-179.713 732.579,-183.725 737.222,-188.964"/>
</g>
<!-- WrapperTransform -->
<g id="node12" class="node"><title>WrapperTransform</title>
<ellipse fill="none" stroke="black" cx="943.246" cy="-162" rx="81.4863" ry="18"/>
<text text-anchor="middle" x="943.246" y="-158.3" font-family="Times New Roman,serif" font-size="14.00">WrapperTransform</text>
</g>
<!-- SpellBehaviour&#45;&gt;WrapperTransform -->
<g id="edge9" class="edge"><title>SpellBehaviour&#45;&gt;WrapperTransform</title>
<path fill="none" stroke="black" d="M727.411,-220.887C770.727,-209.27 836.378,-191.662 883.899,-178.917"/>
<polygon fill="black" stroke="black" points="884.998,-182.246 893.75,-176.275 883.185,-175.485 884.998,-182.246"/>
</g>
<!-- ICollisionSystemParticipator -->
<g id="node15" class="node"><title>ICollisionSystemParticipator</title>
<ellipse fill="none" stroke="black" stroke-dasharray="5,2" cx="1157.25" cy="-162" rx="114.28" ry="18"/>
<text text-anchor="middle" x="1157.25" y="-158.3" font-family="Times New Roman,serif" font-size="14.00">ICollisionSystemParticipator</text>
</g>
<!-- SpellBehaviour&#45;&gt;ICollisionSystemParticipator -->
<g id="edge4" class="edge"><title>SpellBehaviour&#45;&gt;ICollisionSystemParticipator</title>
<path fill="none" stroke="black" stroke-dasharray="5,2" d="M738.6,-224.695C819.654,-212.75 970.012,-190.592 1066.75,-176.337"/>
<polygon fill="black" stroke="black" points="1067.43,-179.774 1076.81,-174.854 1066.41,-172.849 1067.43,-179.774"/>
</g>
<!-- ISpell -->
<g id="node16" class="node"><title>ISpell</title>
<ellipse fill="none" stroke="black" stroke-dasharray="5,2" cx="1321.25" cy="-162" rx="31.6951" ry="18"/>
<text text-anchor="middle" x="1321.25" y="-158.3" font-family="Times New Roman,serif" font-size="14.00">ISpell</text>
</g>
<!-- SpellBehaviour&#45;&gt;ISpell -->
<g id="edge3" class="edge"><title>SpellBehaviour&#45;&gt;ISpell</title>
<path fill="none" stroke="black" stroke-dasharray="5,2" d="M747.904,-233.652C859.127,-233.329 1090.96,-226.467 1280.25,-180 1282.73,-179.389 1285.27,-178.65 1287.79,-177.827"/>
<polygon fill="black" stroke="black" points="1289.19,-181.044 1297.38,-174.324 1286.78,-174.47 1289.19,-181.044"/>
</g>
<!-- IBasePhysics -->
<g id="node4" class="node"><title>IBasePhysics</title>
<ellipse fill="none" stroke="black" stroke-dasharray="5,2" cx="604.246" cy="-90" rx="59.5901" ry="18"/>
<text text-anchor="middle" x="604.246" y="-86.3" font-family="Times New Roman,serif" font-size="14.00">IBasePhysics</text>
</g>
<!-- IFlipX -->
<g id="node13" class="node"><title>IFlipX</title>
<ellipse fill="none" stroke="black" stroke-dasharray="5,2" cx="604.246" cy="-18" rx="34.394" ry="18"/>
<text text-anchor="middle" x="604.246" y="-14.3" font-family="Times New Roman,serif" font-size="14.00">IFlipX</text>
</g>
<!-- IBasePhysics&#45;&gt;IFlipX -->
<g id="edge10" class="edge"><title>IBasePhysics&#45;&gt;IFlipX</title>
<path fill="none" stroke="black" stroke-dasharray="5,2" d="M604.246,-71.6966C604.246,-63.9827 604.246,-54.7125 604.246,-46.1124"/>
<polygon fill="black" stroke="black" points="607.746,-46.1043 604.246,-36.1043 600.746,-46.1044 607.746,-46.1043"/>
</g>
<!-- ISystemParticipator -->
<g id="node5" class="node"><title>ISystemParticipator</title>
<ellipse fill="none" stroke="black" stroke-dasharray="5,2" cx="910.246" cy="-90" rx="82.5854" ry="18"/>
<text text-anchor="middle" x="910.246" y="-86.3" font-family="Times New Roman,serif" font-size="14.00">ISystemParticipator</text>
</g>
<!-- WrapperRigidbody2d&#45;&gt;IRigidBody2d -->
<g id="edge11" class="edge"><title>WrapperRigidbody2d&#45;&gt;IRigidBody2d</title>
<path fill="none" stroke="black" stroke-dasharray="5,2" d="M319.431,-145.638C346.367,-134.802 382.533,-120.252 410.772,-108.892"/>
<polygon fill="black" stroke="black" points="412.431,-111.997 420.402,-105.018 409.818,-105.503 412.431,-111.997"/>
</g>
<!-- TimerCollection&#45;&gt;TimerNotFoundException -->
<g id="edge14" class="edge"><title>TimerCollection&#45;&gt;TimerNotFoundException</title>
<path fill="none" stroke="black" d="M135.542,-146.155C158.369,-135.977 188.932,-122.35 213.967,-111.188"/>
<polygon fill="black" stroke="black" points="215.556,-114.312 223.264,-107.043 212.706,-107.919 215.556,-114.312"/>
</g>
<!-- Callback -->
<g id="node18" class="node"><title>Callback</title>
<ellipse fill="#e5e5e5" stroke="black" cx="42.2463" cy="-18" rx="42.4939" ry="18"/>
<text text-anchor="middle" x="42.2463" y="-14.3" font-family="Times New Roman,serif" font-size="14.00">Callback</text>
</g>
<!-- TimerCollection&#45;&gt;Callback -->
<g id="edge13" class="edge"><title>TimerCollection&#45;&gt;Callback</title>
<path fill="none" stroke="black" d="M86.038,-144.166C77.4435,-134.344 67.4149,-121.297 61.2463,-108 52.1307,-88.3513 47.3294,-64.2234 44.8358,-46.0487"/>
<polygon fill="black" stroke="black" points="48.3089,-45.6149 43.6191,-36.1145 41.3608,-46.4659 48.3089,-45.6149"/>
</g>
<!-- Timer -->
<g id="node19" class="node"><title>Timer</title>
<ellipse fill="none" stroke="black" cx="102.246" cy="-90" rx="32.4942" ry="18"/>
<text text-anchor="middle" x="102.246" y="-86.3" font-family="Times New Roman,serif" font-size="14.00">Timer</text>
</g>
<!-- TimerCollection&#45;&gt;Timer -->
<g id="edge12" class="edge"><title>TimerCollection&#45;&gt;Timer</title>
<path fill="none" stroke="black" d="M102.246,-143.697C102.246,-135.983 102.246,-126.712 102.246,-118.112"/>
<polygon fill="black" stroke="black" points="105.746,-118.104 102.246,-108.104 98.7464,-118.104 105.746,-118.104"/>
</g>
<!-- BasePhysics&#45;&gt;IRigidBody2d -->
<g id="edge17" class="edge"><title>BasePhysics&#45;&gt;IRigidBody2d</title>
<path fill="none" stroke="black" d="M573.734,-146.666C551.161,-136.061 520.194,-121.512 495.579,-109.948"/>
<polygon fill="black" stroke="black" points="497.026,-106.761 486.486,-105.677 494.049,-113.097 497.026,-106.761"/>
</g>
<!-- BasePhysics&#45;&gt;IBasePhysics -->
<g id="edge15" class="edge"><title>BasePhysics&#45;&gt;IBasePhysics</title>
<path fill="none" stroke="black" stroke-dasharray="5,2" d="M604.246,-143.697C604.246,-135.983 604.246,-126.712 604.246,-118.112"/>
<polygon fill="black" stroke="black" points="607.746,-118.104 604.246,-108.104 600.746,-118.104 607.746,-118.104"/>
</g>
<!-- ITransform -->
<g id="node20" class="node"><title>ITransform</title>
<ellipse fill="none" stroke="black" stroke-dasharray="5,2" cx="746.246" cy="-90" rx="51.9908" ry="18"/>
<text text-anchor="middle" x="746.246" y="-86.3" font-family="Times New Roman,serif" font-size="14.00">ITransform</text>
</g>
<!-- BasePhysics&#45;&gt;ITransform -->
<g id="edge16" class="edge"><title>BasePhysics&#45;&gt;ITransform</title>
<path fill="none" stroke="black" d="M633.669,-146.496C655.231,-135.867 684.693,-121.343 708.069,-109.82"/>
<polygon fill="black" stroke="black" points="709.925,-112.807 717.347,-105.246 706.83,-106.528 709.925,-112.807"/>
</g>
<!-- Debug -->
<g id="node11" class="node"><title>Debug</title>
<ellipse fill="#e5e5e5" stroke="black" cx="137.246" cy="-18" rx="34.394" ry="18"/>
<text text-anchor="middle" x="137.246" y="-14.3" font-family="Times New Roman,serif" font-size="14.00">Debug</text>
</g>
<!-- WrapperTransform&#45;&gt;ITransform -->
<g id="edge18" class="edge"><title>WrapperTransform&#45;&gt;ITransform</title>
<path fill="none" stroke="black" stroke-dasharray="5,2" d="M901.949,-146.326C869.396,-134.759 824.088,-118.66 790.738,-106.809"/>
<polygon fill="black" stroke="black" points="791.829,-103.483 781.234,-103.432 789.485,-110.079 791.829,-103.483"/>
</g>
<!-- ICollisionSystemParticipator&#45;&gt;ISystemParticipator -->
<g id="edge19" class="edge"><title>ICollisionSystemParticipator&#45;&gt;ISystemParticipator</title>
<path fill="none" stroke="black" stroke-dasharray="5,2" d="M1104.26,-145.983C1064.23,-134.64 1009.35,-119.085 968.166,-107.415"/>
<polygon fill="black" stroke="black" points="969.116,-104.046 958.54,-104.687 967.207,-110.781 969.116,-104.046"/>
</g>
<!-- ICollisionSystemParticipatorWrapper -->
<g id="node17" class="node"><title>ICollisionSystemParticipatorWrapper</title>
<ellipse fill="none" stroke="black" stroke-dasharray="5,2" cx="1157.25" cy="-90" rx="146.774" ry="18"/>
<text text-anchor="middle" x="1157.25" y="-86.3" font-family="Times New Roman,serif" font-size="14.00">ICollisionSystemParticipatorWrapper</text>
</g>
<!-- ICollisionSystemParticipator&#45;&gt;ICollisionSystemParticipatorWrapper -->
<g id="edge20" class="edge"><title>ICollisionSystemParticipator&#45;&gt;ICollisionSystemParticipatorWrapper</title>
<path fill="none" stroke="black" stroke-dasharray="5,2" d="M1151.33,-143.697C1150.53,-135.983 1150.31,-126.712 1150.65,-118.112"/>
<polygon fill="black" stroke="black" points="1154.14,-118.324 1151.35,-108.104 1147.16,-117.836 1154.14,-118.324"/>
</g>
<!-- ICollisionSystemParticipatorWrapper&#45;&gt;ICollisionSystemParticipator -->
<g id="edge21" class="edge"><title>ICollisionSystemParticipatorWrapper&#45;&gt;ICollisionSystemParticipator</title>
<path fill="none" stroke="black" d="M1163.14,-108.104C1163.95,-115.791 1164.18,-125.054 1163.85,-133.665"/>
<polygon fill="black" stroke="black" points="1160.35,-133.48 1163.16,-143.697 1167.34,-133.96 1160.35,-133.48"/>
</g>
<!-- Timer&#45;&gt;Debug -->
<g id="edge23" class="edge"><title>Timer&#45;&gt;Debug</title>
<path fill="none" stroke="black" d="M110.541,-72.411C114.622,-64.2493 119.636,-54.2203 124.214,-45.0653"/>
<polygon fill="black" stroke="black" points="127.426,-46.4658 128.768,-35.9562 121.165,-43.3352 127.426,-46.4658"/>
</g>
<!-- Timer&#45;&gt;Callback -->
<g id="edge22" class="edge"><title>Timer&#45;&gt;Callback</title>
<path fill="none" stroke="black" d="M88.9303,-73.4647C81.3026,-64.5657 71.5649,-53.2051 62.9586,-43.1644"/>
<polygon fill="black" stroke="black" points="65.5263,-40.782 56.361,-35.4672 60.2115,-45.3376 65.5263,-40.782"/>
</g>
</g>
</svg>
