<?xml version="1.0" encoding="UTF-8" standalone="no"?>
<!DOCTYPE svg PUBLIC "-//W3C//DTD SVG 1.1//EN"
 "http://www.w3.org/Graphics/SVG/1.1/DTD/svg11.dtd">
<!-- Generated by graphviz version 2.38.0 (20140413.2041)
 -->
<!-- Title: %3 Pages: 1 -->
<svg width="2000pt" height="332pt"
 viewBox="0.00 0.00 1999.57 332.00" xmlns="http://www.w3.org/2000/svg" xmlns:xlink="http://www.w3.org/1999/xlink">
<g id="graph0" class="graph" transform="scale(1 1) rotate(0) translate(4 328)">
<title>%3</title>
<polygon fill="white" stroke="none" points="-4,4 -4,-328 1995.57,-328 1995.57,4 -4,4"/>
<!-- Timer -->
<g id="node1" class="node"><title>Timer</title>
<ellipse fill="none" stroke="black" cx="1059.58" cy="-90" rx="32.4942" ry="18"/>
<text text-anchor="middle" x="1059.58" y="-86.3" font-family="Times New Roman,serif" font-size="14.00">Timer</text>
</g>
<!-- Callback -->
<g id="node6" class="node"><title>Callback</title>
<ellipse fill="#e5e5e5" stroke="black" cx="999.578" cy="-18" rx="42.4939" ry="18"/>
<text text-anchor="middle" x="999.578" y="-14.3" font-family="Times New Roman,serif" font-size="14.00">Callback</text>
</g>
<!-- Timer&#45;&gt;Callback -->
<g id="edge1" class="edge"><title>Timer&#45;&gt;Callback</title>
<path fill="none" stroke="black" d="M1046.26,-73.4647C1038.63,-64.5657 1028.9,-53.2051 1020.29,-43.1644"/>
<polygon fill="black" stroke="black" points="1022.86,-40.782 1013.69,-35.4672 1017.54,-45.3376 1022.86,-40.782"/>
</g>
<!-- Debug -->
<g id="node21" class="node"><title>Debug</title>
<ellipse fill="#e5e5e5" stroke="black" cx="1094.58" cy="-18" rx="34.394" ry="18"/>
<text text-anchor="middle" x="1094.58" y="-14.3" font-family="Times New Roman,serif" font-size="14.00">Debug</text>
</g>
<!-- Timer&#45;&gt;Debug -->
<g id="edge2" class="edge"><title>Timer&#45;&gt;Debug</title>
<path fill="none" stroke="black" d="M1067.87,-72.411C1071.95,-64.2493 1076.97,-54.2203 1081.54,-45.0653"/>
<polygon fill="black" stroke="black" points="1084.76,-46.4658 1086.1,-35.9562 1078.5,-43.3352 1084.76,-46.4658"/>
</g>
<!-- TimerNotFoundException -->
<g id="node2" class="node"><title>TimerNotFoundException</title>
<ellipse fill="none" stroke="black" cx="864.578" cy="-90" rx="106.681" ry="18"/>
<text text-anchor="middle" x="864.578" y="-86.3" font-family="Times New Roman,serif" font-size="14.00">TimerNotFoundException</text>
</g>
<!-- Exception -->
<g id="node11" class="node"><title>Exception</title>
<ellipse fill="none" stroke="black" cx="864.578" cy="-18" rx="47.3916" ry="18"/>
<text text-anchor="middle" x="864.578" y="-14.3" font-family="Times New Roman,serif" font-size="14.00">Exception</text>
</g>
<!-- TimerNotFoundException&#45;&gt;Exception -->
<g id="edge3" class="edge"><title>TimerNotFoundException&#45;&gt;Exception</title>
<path fill="none" stroke="black" stroke-width="2" d="M864.578,-71.6966C864.578,-63.9827 864.578,-54.7125 864.578,-46.1124"/>
<polygon fill="black" stroke="black" stroke-width="2" points="868.078,-46.1043 864.578,-36.1043 861.078,-46.1044 868.078,-46.1043"/>
</g>
<!-- TimerCollection -->
<g id="node3" class="node"><title>TimerCollection</title>
<ellipse fill="none" stroke="black" cx="1043.58" cy="-162" rx="69.5877" ry="18"/>
<text text-anchor="middle" x="1043.58" y="-158.3" font-family="Times New Roman,serif" font-size="14.00">TimerCollection</text>
</g>
<!-- TimerCollection&#45;&gt;Timer -->
<g id="edge4" class="edge"><title>TimerCollection&#45;&gt;Timer</title>
<path fill="none" stroke="black" d="M1047.53,-143.697C1049.3,-135.983 1051.41,-126.712 1053.38,-118.112"/>
<polygon fill="black" stroke="black" points="1056.85,-118.633 1055.67,-108.104 1050.03,-117.073 1056.85,-118.633"/>
</g>
<!-- TimerCollection&#45;&gt;TimerNotFoundException -->
<g id="edge6" class="edge"><title>TimerCollection&#45;&gt;TimerNotFoundException</title>
<path fill="none" stroke="black" d="M1006.92,-146.666C980.273,-136.244 943.885,-122.014 914.571,-110.55"/>
<polygon fill="black" stroke="black" points="915.513,-107.161 904.925,-106.778 912.963,-113.68 915.513,-107.161"/>
</g>
<!-- TimerCollection&#45;&gt;Callback -->
<g id="edge5" class="edge"><title>TimerCollection&#45;&gt;Callback</title>
<path fill="none" stroke="black" d="M1034.2,-143.754C1028.99,-133.588 1022.74,-120.338 1018.58,-108 1011.72,-87.6979 1006.8,-63.9282 1003.68,-46.063"/>
<polygon fill="black" stroke="black" points="1007.11,-45.3323 1002.02,-36.0422 1000.21,-46.481 1007.11,-45.3323"/>
</g>
<!-- WrapperTransform -->
<g id="node4" class="node"><title>WrapperTransform</title>
<ellipse fill="none" stroke="black" cx="1511.58" cy="-162" rx="81.4863" ry="18"/>
<text text-anchor="middle" x="1511.58" y="-158.3" font-family="Times New Roman,serif" font-size="14.00">WrapperTransform</text>
</g>
<!-- ITransform -->
<g id="node25" class="node"><title>ITransform</title>
<ellipse fill="none" stroke="black" stroke-dasharray="5,2" cx="1656.58" cy="-90" rx="51.9908" ry="18"/>
<text text-anchor="middle" x="1656.58" y="-86.3" font-family="Times New Roman,serif" font-size="14.00">ITransform</text>
</g>
<!-- WrapperTransform&#45;&gt;ITransform -->
<g id="edge7" class="edge"><title>WrapperTransform&#45;&gt;ITransform</title>
<path fill="none" stroke="black" stroke-dasharray="5,2" d="M1543.76,-145.465C1565.76,-134.844 1595.02,-120.718 1618.23,-109.514"/>
<polygon fill="black" stroke="black" points="1619.96,-112.565 1627.44,-105.066 1616.91,-106.261 1619.96,-112.565"/>
</g>
<!-- MonoBehaviour -->
<g id="node5" class="node"><title>MonoBehaviour</title>
<ellipse fill="none" stroke="black" cx="604.578" cy="-162" rx="69.5877" ry="18"/>
<text text-anchor="middle" x="604.578" y="-158.3" font-family="Times New Roman,serif" font-size="14.00">MonoBehaviour</text>
</g>
<!-- ISpellVisualizer -->
<g id="node7" class="node"><title>ISpellVisualizer</title>
<ellipse fill="none" stroke="black" stroke-dasharray="5,2" cx="283.578" cy="-162" rx="66.8882" ry="18"/>
<text text-anchor="middle" x="283.578" y="-158.3" font-family="Times New Roman,serif" font-size="14.00">ISpellVisualizer</text>
</g>
<!-- ISpell -->
<g id="node13" class="node"><title>ISpell</title>
<ellipse fill="none" stroke="black" stroke-dasharray="5,2" cx="235.578" cy="-90" rx="31.6951" ry="18"/>
<text text-anchor="middle" x="235.578" y="-86.3" font-family="Times New Roman,serif" font-size="14.00">ISpell</text>
</g>
<!-- ISpellVisualizer&#45;&gt;ISpell -->
<g id="edge8" class="edge"><title>ISpellVisualizer&#45;&gt;ISpell</title>
<path fill="none" stroke="black" d="M271.958,-144.055C266.095,-135.505 258.875,-124.975 252.416,-115.556"/>
<polygon fill="black" stroke="black" points="255.301,-113.575 246.76,-107.307 249.528,-117.534 255.301,-113.575"/>
</g>
<!-- SpellSpawner -->
<g id="node8" class="node"><title>SpellSpawner</title>
<ellipse fill="none" stroke="black" cx="283.578" cy="-234" rx="60.3893" ry="18"/>
<text text-anchor="middle" x="283.578" y="-230.3" font-family="Times New Roman,serif" font-size="14.00">SpellSpawner</text>
</g>
<!-- SpellSpawner&#45;&gt;ISpellVisualizer -->
<g id="edge12" class="edge"><title>SpellSpawner&#45;&gt;ISpellVisualizer</title>
<path fill="none" stroke="black" d="M283.578,-215.697C283.578,-207.983 283.578,-198.712 283.578,-190.112"/>
<polygon fill="black" stroke="black" points="287.078,-190.104 283.578,-180.104 280.078,-190.104 287.078,-190.104"/>
</g>
<!-- SpellSpawner&#45;&gt;ISpell -->
<g id="edge10" class="edge"><title>SpellSpawner&#45;&gt;ISpell</title>
<path fill="none" stroke="black" d="M250.37,-218.939C234.342,-210.251 216.656,-197.399 207.578,-180 196.809,-159.361 206.956,-133.845 217.929,-115.433"/>
<polygon fill="black" stroke="black" points="221.031,-117.079 223.464,-106.767 215.131,-113.311 221.031,-117.079"/>
</g>
<!-- ISpellCaster -->
<g id="node18" class="node"><title>ISpellCaster</title>
<ellipse fill="none" stroke="black" stroke-dasharray="5,2" cx="461.578" cy="-162" rx="55.4913" ry="18"/>
<text text-anchor="middle" x="461.578" y="-158.3" font-family="Times New Roman,serif" font-size="14.00">ISpellCaster</text>
</g>
<!-- SpellSpawner&#45;&gt;ISpellCaster -->
<g id="edge9" class="edge"><title>SpellSpawner&#45;&gt;ISpellCaster</title>
<path fill="none" stroke="black" stroke-dasharray="5,2" d="M318.745,-219.17C347.269,-207.953 387.61,-192.088 418.148,-180.079"/>
<polygon fill="black" stroke="black" points="419.666,-183.243 427.691,-176.326 417.104,-176.729 419.666,-183.243"/>
</g>
<!-- ISpellInstantiator -->
<g id="node27" class="node"><title>ISpellInstantiator</title>
<ellipse fill="none" stroke="black" stroke-dasharray="5,2" cx="88.5776" cy="-162" rx="72.2875" ry="18"/>
<text text-anchor="middle" x="88.5776" y="-158.3" font-family="Times New Roman,serif" font-size="14.00">ISpellInstantiator</text>
</g>
<!-- SpellSpawner&#45;&gt;ISpellInstantiator -->
<g id="edge11" class="edge"><title>SpellSpawner&#45;&gt;ISpellInstantiator</title>
<path fill="none" stroke="black" d="M246.441,-219.669C215.564,-208.585 171.372,-192.721 137.594,-180.596"/>
<polygon fill="black" stroke="black" points="138.513,-177.207 127.919,-177.122 136.148,-183.795 138.513,-177.207"/>
</g>
<!-- ICollisionSystemParticipatorWrapper -->
<g id="node9" class="node"><title>ICollisionSystemParticipatorWrapper</title>
<ellipse fill="none" stroke="black" stroke-dasharray="5,2" cx="1256.58" cy="-90" rx="146.774" ry="18"/>
<text text-anchor="middle" x="1256.58" y="-86.3" font-family="Times New Roman,serif" font-size="14.00">ICollisionSystemParticipatorWrapper</text>
</g>
<!-- ICollisionSystemParticipator -->
<g id="node12" class="node"><title>ICollisionSystemParticipator</title>
<ellipse fill="none" stroke="black" stroke-dasharray="5,2" cx="1256.58" cy="-162" rx="114.28" ry="18"/>
<text text-anchor="middle" x="1256.58" y="-158.3" font-family="Times New Roman,serif" font-size="14.00">ICollisionSystemParticipator</text>
</g>
<!-- ICollisionSystemParticipatorWrapper&#45;&gt;ICollisionSystemParticipator -->
<g id="edge13" class="edge"><title>ICollisionSystemParticipatorWrapper&#45;&gt;ICollisionSystemParticipator</title>
<path fill="none" stroke="black" d="M1262.47,-108.104C1263.28,-115.791 1263.51,-125.054 1263.18,-133.665"/>
<polygon fill="black" stroke="black" points="1259.69,-133.48 1262.49,-143.697 1266.67,-133.96 1259.69,-133.48"/>
</g>
<!-- IFlipX -->
<g id="node10" class="node"><title>IFlipX</title>
<ellipse fill="none" stroke="black" stroke-dasharray="5,2" cx="729.578" cy="-18" rx="34.394" ry="18"/>
<text text-anchor="middle" x="729.578" y="-14.3" font-family="Times New Roman,serif" font-size="14.00">IFlipX</text>
</g>
<!-- ICollisionSystemParticipator&#45;&gt;ICollisionSystemParticipatorWrapper -->
<g id="edge15" class="edge"><title>ICollisionSystemParticipator&#45;&gt;ICollisionSystemParticipatorWrapper</title>
<path fill="none" stroke="black" stroke-dasharray="5,2" d="M1250.66,-143.697C1249.87,-135.983 1249.64,-126.712 1249.98,-118.112"/>
<polygon fill="black" stroke="black" points="1253.48,-118.324 1250.68,-108.104 1246.49,-117.836 1253.48,-118.324"/>
</g>
<!-- ISystemParticipator -->
<g id="node19" class="node"><title>ISystemParticipator</title>
<ellipse fill="none" stroke="black" stroke-dasharray="5,2" cx="1503.58" cy="-90" rx="82.5854" ry="18"/>
<text text-anchor="middle" x="1503.58" y="-86.3" font-family="Times New Roman,serif" font-size="14.00">ISystemParticipator</text>
</g>
<!-- ICollisionSystemParticipator&#45;&gt;ISystemParticipator -->
<g id="edge14" class="edge"><title>ICollisionSystemParticipator&#45;&gt;ISystemParticipator</title>
<path fill="none" stroke="black" stroke-dasharray="5,2" d="M1309.57,-145.983C1349.59,-134.64 1404.48,-119.085 1445.66,-107.415"/>
<polygon fill="black" stroke="black" points="1446.62,-110.781 1455.28,-104.687 1444.71,-104.046 1446.62,-110.781"/>
</g>
<!-- SpellSpawnerBehaviour -->
<g id="node14" class="node"><title>SpellSpawnerBehaviour</title>
<ellipse fill="none" stroke="black" cx="604.578" cy="-306" rx="96.6831" ry="18"/>
<text text-anchor="middle" x="604.578" y="-302.3" font-family="Times New Roman,serif" font-size="14.00">SpellSpawnerBehaviour</text>
</g>
<!-- SpellSpawnerBehaviour&#45;&gt;MonoBehaviour -->
<g id="edge16" class="edge"><title>SpellSpawnerBehaviour&#45;&gt;MonoBehaviour</title>
<path fill="none" stroke="black" stroke-width="2" d="M604.578,-287.871C604.578,-263.67 604.578,-219.211 604.578,-190.393"/>
<polygon fill="black" stroke="black" stroke-width="2" points="608.078,-190.189 604.578,-180.189 601.078,-190.189 608.078,-190.189"/>
</g>
<!-- SpellSpawnerBehaviour&#45;&gt;SpellSpawner -->
<g id="edge21" class="edge"><title>SpellSpawnerBehaviour&#45;&gt;SpellSpawner</title>
<path fill="none" stroke="black" d="M544.2,-291.834C485.949,-279.131 398.402,-260.04 341.124,-247.549"/>
<polygon fill="black" stroke="black" points="341.663,-244.085 331.147,-245.373 340.172,-250.924 341.663,-244.085"/>
</g>
<!-- SpellSpawnerBehaviour&#45;&gt;IFlipX -->
<g id="edge17" class="edge"><title>SpellSpawnerBehaviour&#45;&gt;IFlipX</title>
<path fill="none" stroke="black" stroke-dasharray="5,2" d="M617.491,-288.09C634.698,-264.856 665.114,-221.238 683.578,-180 703.749,-134.947 717.399,-78.827 724.305,-46.1429"/>
<polygon fill="black" stroke="black" points="727.803,-46.5069 726.388,-36.007 720.946,-45.0978 727.803,-46.5069"/>
</g>
<!-- SpellSpawnerBehaviour&#45;&gt;ISpell -->
<g id="edge24" class="edge"><title>SpellSpawnerBehaviour&#45;&gt;ISpell</title>
<path fill="none" stroke="black" d="M510.972,-301.162C356.363,-292.44 59.4804,-264.782 7.57757,-180 -35.2781,-109.997 116.35,-94.9635 193.367,-91.8012"/>
<polygon fill="black" stroke="black" points="193.843,-95.2865 203.711,-91.4293 193.591,-88.291 193.843,-95.2865"/>
</g>
<!-- SpellVizBehaviour -->
<g id="node17" class="node"><title>SpellVizBehaviour</title>
<ellipse fill="none" stroke="black" cx="469.578" cy="-234" rx="77.1866" ry="18"/>
<text text-anchor="middle" x="469.578" y="-230.3" font-family="Times New Roman,serif" font-size="14.00">SpellVizBehaviour</text>
</g>
<!-- SpellSpawnerBehaviour&#45;&gt;SpellVizBehaviour -->
<g id="edge20" class="edge"><title>SpellSpawnerBehaviour&#45;&gt;SpellVizBehaviour</title>
<path fill="none" stroke="black" d="M573.606,-288.941C554.434,-279 529.636,-266.142 509.061,-255.473"/>
<polygon fill="black" stroke="black" points="510.429,-252.24 499.94,-250.743 507.206,-258.454 510.429,-252.24"/>
</g>
<!-- SpellSpawnerBehaviour&#45;&gt;ISpellCaster -->
<g id="edge19" class="edge"><title>SpellSpawnerBehaviour&#45;&gt;ISpellCaster</title>
<path fill="none" stroke="black" stroke-dasharray="5,2" d="M685.921,-296.207C758.331,-285.215 847.023,-261.957 806.578,-216 764.986,-168.74 587.357,-192.107 525.578,-180 520.956,-179.094 516.174,-178.043 511.402,-176.916"/>
<polygon fill="black" stroke="black" points="512.222,-173.513 501.675,-174.519 510.547,-180.31 512.222,-173.513"/>
</g>
<!-- NotNull -->
<g id="node23" class="node"><title>NotNull</title>
<ellipse fill="#e5e5e5" stroke="black" cx="758.578" cy="-234" rx="38.9931" ry="18"/>
<text text-anchor="middle" x="758.578" y="-230.3" font-family="Times New Roman,serif" font-size="14.00">NotNull</text>
</g>
<!-- SpellSpawnerBehaviour&#45;&gt;NotNull -->
<g id="edge23" class="edge"><title>SpellSpawnerBehaviour&#45;&gt;NotNull</title>
<path fill="none" stroke="black" d="M639.523,-289.116C664.231,-277.885 697.274,-262.865 722.28,-251.499"/>
<polygon fill="black" stroke="black" points="723.781,-254.662 731.436,-247.337 720.884,-248.289 723.781,-254.662"/>
</g>
<!-- SpellBehaviour -->
<g id="node26" class="node"><title>SpellBehaviour</title>
<ellipse fill="none" stroke="black" cx="1043.58" cy="-234" rx="65.7887" ry="18"/>
<text text-anchor="middle" x="1043.58" y="-230.3" font-family="Times New Roman,serif" font-size="14.00">SpellBehaviour</text>
</g>
<!-- SpellSpawnerBehaviour&#45;&gt;SpellBehaviour -->
<g id="edge22" class="edge"><title>SpellSpawnerBehaviour&#45;&gt;SpellBehaviour</title>
<path fill="none" stroke="black" d="M675.598,-293.675C759.26,-280.335 897.096,-258.357 978.218,-245.422"/>
<polygon fill="black" stroke="black" points="978.983,-248.844 988.307,-243.813 977.88,-241.932 978.983,-248.844"/>
</g>
<!-- SpellSpawnerBehaviour&#45;&gt;ISpellInstantiator -->
<g id="edge18" class="edge"><title>SpellSpawnerBehaviour&#45;&gt;ISpellInstantiator</title>
<path fill="none" stroke="black" stroke-dasharray="5,2" d="M508.005,-304.559C427.062,-301.248 309.791,-289.481 214.578,-252 175.844,-236.752 137.697,-207.212 113.703,-186.355"/>
<polygon fill="black" stroke="black" points="115.935,-183.657 106.128,-179.648 111.295,-188.898 115.935,-183.657"/>
</g>
<!-- BasePhysics -->
<g id="node15" class="node"><title>BasePhysics</title>
<ellipse fill="none" stroke="black" cx="1708.58" cy="-162" rx="56.59" ry="18"/>
<text text-anchor="middle" x="1708.58" y="-158.3" font-family="Times New Roman,serif" font-size="14.00">BasePhysics</text>
</g>
<!-- IBasePhysics -->
<g id="node20" class="node"><title>IBasePhysics</title>
<ellipse fill="none" stroke="black" stroke-dasharray="5,2" cx="1786.58" cy="-90" rx="59.5901" ry="18"/>
<text text-anchor="middle" x="1786.58" y="-86.3" font-family="Times New Roman,serif" font-size="14.00">IBasePhysics</text>
</g>
<!-- BasePhysics&#45;&gt;IBasePhysics -->
<g id="edge25" class="edge"><title>BasePhysics&#45;&gt;IBasePhysics</title>
<path fill="none" stroke="black" stroke-dasharray="5,2" d="M1726.67,-144.765C1736.74,-135.73 1749.44,-124.326 1760.56,-114.349"/>
<polygon fill="black" stroke="black" points="1763.21,-116.674 1768.31,-107.39 1758.53,-111.464 1763.21,-116.674"/>
</g>
<!-- IRigidBody2d -->
<g id="node22" class="node"><title>IRigidBody2d</title>
<ellipse fill="none" stroke="black" stroke-dasharray="5,2" cx="1926.58" cy="-90" rx="62.2891" ry="18"/>
<text text-anchor="middle" x="1926.58" y="-86.3" font-family="Times New Roman,serif" font-size="14.00">IRigidBody2d</text>
</g>
<!-- BasePhysics&#45;&gt;IRigidBody2d -->
<g id="edge27" class="edge"><title>BasePhysics&#45;&gt;IRigidBody2d</title>
<path fill="none" stroke="black" d="M1746.8,-148.727C1782.94,-137.124 1837.36,-119.649 1876.85,-106.967"/>
<polygon fill="black" stroke="black" points="1878.1,-110.242 1886.55,-103.852 1875.96,-103.577 1878.1,-110.242"/>
</g>
<!-- BasePhysics&#45;&gt;ITransform -->
<g id="edge26" class="edge"><title>BasePhysics&#45;&gt;ITransform</title>
<path fill="none" stroke="black" d="M1696.25,-144.411C1690,-135.992 1682.27,-125.585 1675.3,-116.201"/>
<polygon fill="black" stroke="black" points="1677.95,-113.897 1669.17,-107.956 1672.33,-118.071 1677.95,-113.897"/>
</g>
<!-- ConvertToInterface -->
<g id="node16" class="node"><title>ConvertToInterface</title>
<ellipse fill="#e5e5e5" stroke="black" cx="873.578" cy="-162" rx="82.5854" ry="18"/>
<text text-anchor="middle" x="873.578" y="-158.3" font-family="Times New Roman,serif" font-size="14.00">ConvertToInterface</text>
</g>
<!-- SpellVizBehaviour&#45;&gt;MonoBehaviour -->
<g id="edge28" class="edge"><title>SpellVizBehaviour&#45;&gt;MonoBehaviour</title>
<path fill="none" stroke="black" stroke-width="2" d="M499.874,-217.291C519.377,-207.178 544.906,-193.941 565.873,-183.069"/>
<polygon fill="black" stroke="black" stroke-width="2" points="567.58,-186.126 574.847,-178.416 564.358,-179.912 567.58,-186.126"/>
</g>
<!-- SpellVizBehaviour&#45;&gt;ISpellVisualizer -->
<g id="edge29" class="edge"><title>SpellVizBehaviour&#45;&gt;ISpellVisualizer</title>
<path fill="none" stroke="black" stroke-dasharray="5,2" d="M430.586,-218.326C401.461,-207.365 361.52,-192.333 330.621,-180.705"/>
<polygon fill="black" stroke="black" points="331.524,-177.305 320.932,-177.058 329.058,-183.856 331.524,-177.305"/>
</g>
<!-- SpellVizBehaviour&#45;&gt;ISpell -->
<g id="edge30" class="edge"><title>SpellVizBehaviour&#45;&gt;ISpell</title>
<path fill="none" stroke="black" d="M445.999,-216.761C431.663,-206.617 413.175,-193.044 397.578,-180 379.731,-165.076 379.023,-156.772 359.578,-144 332.456,-126.186 298.354,-112.126 272.781,-102.976"/>
<polygon fill="black" stroke="black" points="273.679,-99.5827 263.084,-99.595 271.374,-106.192 273.679,-99.5827"/>
</g>
<!-- ISpellCaster&#45;&gt;IFlipX -->
<g id="edge31" class="edge"><title>ISpellCaster&#45;&gt;IFlipX</title>
<path fill="none" stroke="black" stroke-dasharray="5,2" d="M489.249,-146.338C539.209,-119.867 644.206,-64.2344 697.329,-36.0867"/>
<polygon fill="black" stroke="black" points="699.117,-39.1008 706.314,-31.3261 695.839,-32.9154 699.117,-39.1008"/>
</g>
<!-- IBasePhysics&#45;&gt;IFlipX -->
<g id="edge32" class="edge"><title>IBasePhysics&#45;&gt;IFlipX</title>
<path fill="none" stroke="black" stroke-dasharray="5,2" d="M1744.51,-77.2067C1735.68,-75.1338 1726.37,-73.2446 1717.58,-72 1317.25,-15.3504 1209.7,-86.7171 808.578,-36 795.855,-34.3914 782.146,-31.7642 769.778,-29.0509"/>
<polygon fill="black" stroke="black" points="770.281,-25.5761 759.754,-26.7719 768.729,-32.4019 770.281,-25.5761"/>
</g>
<!-- WrapperRigidbody2d -->
<g id="node24" class="node"><title>WrapperRigidbody2d</title>
<ellipse fill="none" stroke="black" cx="1900.58" cy="-162" rx="90.9839" ry="18"/>
<text text-anchor="middle" x="1900.58" y="-158.3" font-family="Times New Roman,serif" font-size="14.00">WrapperRigidbody2d</text>
</g>
<!-- WrapperRigidbody2d&#45;&gt;IRigidBody2d -->
<g id="edge33" class="edge"><title>WrapperRigidbody2d&#45;&gt;IRigidBody2d</title>
<path fill="none" stroke="black" stroke-dasharray="5,2" d="M1907,-143.697C1909.93,-135.813 1913.46,-126.304 1916.72,-117.546"/>
<polygon fill="black" stroke="black" points="1920.02,-118.697 1920.22,-108.104 1913.46,-116.26 1920.02,-118.697"/>
</g>
<!-- SpellBehaviour&#45;&gt;TimerCollection -->
<g id="edge39" class="edge"><title>SpellBehaviour&#45;&gt;TimerCollection</title>
<path fill="none" stroke="black" d="M1043.58,-215.697C1043.58,-207.983 1043.58,-198.712 1043.58,-190.112"/>
<polygon fill="black" stroke="black" points="1047.08,-190.104 1043.58,-180.104 1040.08,-190.104 1047.08,-190.104"/>
</g>
<!-- SpellBehaviour&#45;&gt;WrapperTransform -->
<g id="edge41" class="edge"><title>SpellBehaviour&#45;&gt;WrapperTransform</title>
<path fill="none" stroke="black" d="M1100.03,-224.556C1184.12,-211.979 1342.43,-188.301 1436.29,-174.261"/>
<polygon fill="black" stroke="black" points="1436.91,-177.707 1446.29,-172.766 1435.88,-170.784 1436.91,-177.707"/>
</g>
<!-- SpellBehaviour&#45;&gt;MonoBehaviour -->
<g id="edge34" class="edge"><title>SpellBehaviour&#45;&gt;MonoBehaviour</title>
<path fill="none" stroke="black" stroke-width="2" d="M985.94,-225.324C915.586,-215.741 793.068,-198.361 688.578,-180 681.525,-178.761 674.156,-177.387 666.838,-175.972"/>
<polygon fill="black" stroke="black" stroke-width="2" points="667.412,-172.518 656.925,-174.027 666.064,-179.387 667.412,-172.518"/>
</g>
<!-- SpellBehaviour&#45;&gt;ICollisionSystemParticipator -->
<g id="edge36" class="edge"><title>SpellBehaviour&#45;&gt;ICollisionSystemParticipator</title>
<path fill="none" stroke="black" stroke-dasharray="5,2" d="M1083.89,-219.751C1116.66,-208.981 1163.29,-193.659 1199.83,-181.65"/>
<polygon fill="black" stroke="black" points="1200.96,-184.962 1209.37,-178.515 1198.78,-178.312 1200.96,-184.962"/>
</g>
<!-- SpellBehaviour&#45;&gt;ISpell -->
<g id="edge35" class="edge"><title>SpellBehaviour&#45;&gt;ISpell</title>
<path fill="none" stroke="black" stroke-dasharray="5,2" d="M988.044,-224.297C934.605,-215.33 851.795,-199.874 781.578,-180 736.93,-167.363 728.705,-154.8 683.578,-144 536.874,-108.891 357.332,-96.6109 277.404,-92.6818"/>
<polygon fill="black" stroke="black" points="277.406,-89.1781 267.252,-92.2018 277.076,-96.1703 277.406,-89.1781"/>
</g>
<!-- SpellBehaviour&#45;&gt;BasePhysics -->
<g id="edge37" class="edge"><title>SpellBehaviour&#45;&gt;BasePhysics</title>
<path fill="none" stroke="black" d="M1106.06,-228.354C1209.39,-220.383 1422.26,-202.738 1601.58,-180 1617.34,-178.001 1634.36,-175.469 1650.08,-172.975"/>
<polygon fill="black" stroke="black" points="1650.88,-176.391 1660.2,-171.347 1649.77,-169.48 1650.88,-176.391"/>
</g>
<!-- SpellBehaviour&#45;&gt;ConvertToInterface -->
<g id="edge38" class="edge"><title>SpellBehaviour&#45;&gt;ConvertToInterface</title>
<path fill="none" stroke="black" d="M1008.77,-218.666C983.131,-208.11 948.01,-193.648 919.99,-182.111"/>
<polygon fill="black" stroke="black" points="920.981,-178.734 910.402,-178.163 918.316,-185.207 920.981,-178.734"/>
</g>
<!-- SpellBehaviour&#45;&gt;WrapperRigidbody2d -->
<g id="edge40" class="edge"><title>SpellBehaviour&#45;&gt;WrapperRigidbody2d</title>
<path fill="none" stroke="black" d="M1107.74,-229.683C1235.09,-222.804 1528.72,-205.473 1774.58,-180 1789.12,-178.494 1804.56,-176.629 1819.48,-174.692"/>
<polygon fill="black" stroke="black" points="1820.24,-178.122 1829.7,-173.344 1819.33,-171.182 1820.24,-178.122"/>
</g>
<!-- ISpellInstantiator&#45;&gt;ISpell -->
<g id="edge42" class="edge"><title>ISpellInstantiator&#45;&gt;ISpell</title>
<path fill="none" stroke="black" d="M120.474,-145.811C144.776,-134.239 178.126,-118.358 202.673,-106.669"/>
<polygon fill="black" stroke="black" points="204.418,-109.715 211.942,-102.255 201.408,-103.395 204.418,-109.715"/>
</g>
</g>
</svg>
