<?xml version="1.0" encoding="UTF-8" standalone="no"?>
<!DOCTYPE svg PUBLIC "-//W3C//DTD SVG 1.1//EN"
 "http://www.w3.org/Graphics/SVG/1.1/DTD/svg11.dtd">
<!-- Generated by graphviz version 2.38.0 (20140413.2041)
 -->
<!-- Title: %3 Pages: 1 -->
<svg width="1939pt" height="332pt"
 viewBox="0.00 0.00 1938.69 332.00" xmlns="http://www.w3.org/2000/svg" xmlns:xlink="http://www.w3.org/1999/xlink">
<g id="graph0" class="graph" transform="scale(1 1) rotate(0) translate(4 328)">
<title>%3</title>
<polygon fill="white" stroke="none" points="-4,4 -4,-328 1934.69,-328 1934.69,4 -4,4"/>
<!-- IRigidBody2d -->
<g id="node1" class="node"><title>IRigidBody2d</title>
<ellipse fill="none" stroke="black" stroke-dasharray="5,2" cx="1152.25" cy="-90" rx="62.2891" ry="18"/>
<text text-anchor="middle" x="1152.25" y="-86.3" font-family="Times New Roman,serif" font-size="14.00">IRigidBody2d</text>
</g>
<!-- Timer -->
<g id="node2" class="node"><title>Timer</title>
<ellipse fill="none" stroke="black" cx="1861.25" cy="-90" rx="32.4942" ry="18"/>
<text text-anchor="middle" x="1861.25" y="-86.3" font-family="Times New Roman,serif" font-size="14.00">Timer</text>
</g>
<!-- Callback -->
<g id="node11" class="node"><title>Callback</title>
<ellipse fill="#e5e5e5" stroke="black" cx="1801.25" cy="-18" rx="42.4939" ry="18"/>
<text text-anchor="middle" x="1801.25" y="-14.3" font-family="Times New Roman,serif" font-size="14.00">Callback</text>
</g>
<!-- Timer&#45;&gt;Callback -->
<g id="edge1" class="edge"><title>Timer&#45;&gt;Callback</title>
<path fill="none" stroke="black" d="M1847.93,-73.4647C1840.3,-64.5657 1830.56,-53.2051 1821.96,-43.1644"/>
<polygon fill="black" stroke="black" points="1824.53,-40.782 1815.36,-35.4672 1819.21,-45.3376 1824.53,-40.782"/>
</g>
<!-- Debug -->
<g id="node12" class="node"><title>Debug</title>
<ellipse fill="#e5e5e5" stroke="black" cx="1896.25" cy="-18" rx="34.394" ry="18"/>
<text text-anchor="middle" x="1896.25" y="-14.3" font-family="Times New Roman,serif" font-size="14.00">Debug</text>
</g>
<!-- Timer&#45;&gt;Debug -->
<g id="edge2" class="edge"><title>Timer&#45;&gt;Debug</title>
<path fill="none" stroke="black" d="M1869.54,-72.411C1873.62,-64.2493 1878.63,-54.2203 1883.21,-45.0653"/>
<polygon fill="black" stroke="black" points="1886.43,-46.4658 1887.77,-35.9562 1880.16,-43.3352 1886.43,-46.4658"/>
</g>
<!-- WrapperRigidbody2d -->
<g id="node3" class="node"><title>WrapperRigidbody2d</title>
<ellipse fill="none" stroke="black" cx="1127.25" cy="-162" rx="90.9839" ry="18"/>
<text text-anchor="middle" x="1127.25" y="-158.3" font-family="Times New Roman,serif" font-size="14.00">WrapperRigidbody2d</text>
</g>
<!-- WrapperRigidbody2d&#45;&gt;IRigidBody2d -->
<g id="edge3" class="edge"><title>WrapperRigidbody2d&#45;&gt;IRigidBody2d</title>
<path fill="none" stroke="black" stroke-dasharray="5,2" d="M1133.42,-143.697C1136.24,-135.813 1139.64,-126.304 1142.76,-117.546"/>
<polygon fill="black" stroke="black" points="1146.07,-118.699 1146.14,-108.104 1139.48,-116.345 1146.07,-118.699"/>
</g>
<!-- NotNull -->
<g id="node4" class="node"><title>NotNull</title>
<ellipse fill="#e5e5e5" stroke="black" cx="1138.25" cy="-234" rx="38.9931" ry="18"/>
<text text-anchor="middle" x="1138.25" y="-230.3" font-family="Times New Roman,serif" font-size="14.00">NotNull</text>
</g>
<!-- BasePhysics -->
<g id="node5" class="node"><title>BasePhysics</title>
<ellipse fill="none" stroke="black" cx="1293.25" cy="-162" rx="56.59" ry="18"/>
<text text-anchor="middle" x="1293.25" y="-158.3" font-family="Times New Roman,serif" font-size="14.00">BasePhysics</text>
</g>
<!-- BasePhysics&#45;&gt;IRigidBody2d -->
<g id="edge6" class="edge"><title>BasePhysics&#45;&gt;IRigidBody2d</title>
<path fill="none" stroke="black" d="M1264.03,-146.496C1243.04,-136.078 1214.52,-121.919 1191.54,-110.51"/>
<polygon fill="black" stroke="black" points="1192.91,-107.28 1182.4,-105.968 1189.8,-113.55 1192.91,-107.28"/>
</g>
<!-- ITransform -->
<g id="node7" class="node"><title>ITransform</title>
<ellipse fill="none" stroke="black" stroke-dasharray="5,2" cx="1436.25" cy="-90" rx="51.9908" ry="18"/>
<text text-anchor="middle" x="1436.25" y="-86.3" font-family="Times New Roman,serif" font-size="14.00">ITransform</text>
</g>
<!-- BasePhysics&#45;&gt;ITransform -->
<g id="edge5" class="edge"><title>BasePhysics&#45;&gt;ITransform</title>
<path fill="none" stroke="black" d="M1322.87,-146.496C1344.69,-135.819 1374.52,-121.214 1398.11,-109.667"/>
<polygon fill="black" stroke="black" points="1399.7,-112.786 1407.14,-105.246 1396.62,-106.499 1399.7,-112.786"/>
</g>
<!-- IBasePhysics -->
<g id="node27" class="node"><title>IBasePhysics</title>
<ellipse fill="none" stroke="black" stroke-dasharray="5,2" cx="1292.25" cy="-90" rx="59.5901" ry="18"/>
<text text-anchor="middle" x="1292.25" y="-86.3" font-family="Times New Roman,serif" font-size="14.00">IBasePhysics</text>
</g>
<!-- BasePhysics&#45;&gt;IBasePhysics -->
<g id="edge4" class="edge"><title>BasePhysics&#45;&gt;IBasePhysics</title>
<path fill="none" stroke="black" stroke-dasharray="5,2" d="M1293,-143.697C1292.89,-135.983 1292.76,-126.712 1292.63,-118.112"/>
<polygon fill="black" stroke="black" points="1296.13,-118.053 1292.49,-108.104 1289.13,-118.153 1296.13,-118.053"/>
</g>
<!-- WrapperTransform -->
<g id="node6" class="node"><title>WrapperTransform</title>
<ellipse fill="none" stroke="black" cx="1449.25" cy="-162" rx="81.4863" ry="18"/>
<text text-anchor="middle" x="1449.25" y="-158.3" font-family="Times New Roman,serif" font-size="14.00">WrapperTransform</text>
</g>
<!-- WrapperTransform&#45;&gt;ITransform -->
<g id="edge7" class="edge"><title>WrapperTransform&#45;&gt;ITransform</title>
<path fill="none" stroke="black" stroke-dasharray="5,2" d="M1446.03,-143.697C1444.6,-135.983 1442.88,-126.712 1441.28,-118.112"/>
<polygon fill="black" stroke="black" points="1444.69,-117.297 1439.42,-108.104 1437.81,-118.575 1444.69,-117.297"/>
</g>
<!-- ICollisionSystemParticipatorWrapper -->
<g id="node8" class="node"><title>ICollisionSystemParticipatorWrapper</title>
<ellipse fill="none" stroke="black" stroke-dasharray="5,2" cx="924.245" cy="-90" rx="146.774" ry="18"/>
<text text-anchor="middle" x="924.245" y="-86.3" font-family="Times New Roman,serif" font-size="14.00">ICollisionSystemParticipatorWrapper</text>
</g>
<!-- ICollisionSystemParticipator -->
<g id="node25" class="node"><title>ICollisionSystemParticipator</title>
<ellipse fill="none" stroke="black" stroke-dasharray="5,2" cx="904.245" cy="-162" rx="114.28" ry="18"/>
<text text-anchor="middle" x="904.245" y="-158.3" font-family="Times New Roman,serif" font-size="14.00">ICollisionSystemParticipator</text>
</g>
<!-- ICollisionSystemParticipatorWrapper&#45;&gt;ICollisionSystemParticipator -->
<g id="edge8" class="edge"><title>ICollisionSystemParticipatorWrapper&#45;&gt;ICollisionSystemParticipator</title>
<path fill="none" stroke="black" d="M925.222,-108.275C923.777,-116.2 921.26,-125.773 918.362,-134.574"/>
<polygon fill="black" stroke="black" points="915.043,-133.46 914.965,-144.055 921.633,-135.822 915.043,-133.46"/>
</g>
<!-- ISpellInstantiator -->
<g id="node9" class="node"><title>ISpellInstantiator</title>
<ellipse fill="none" stroke="black" stroke-dasharray="5,2" cx="238.245" cy="-162" rx="72.2875" ry="18"/>
<text text-anchor="middle" x="238.245" y="-158.3" font-family="Times New Roman,serif" font-size="14.00">ISpellInstantiator</text>
</g>
<!-- ISpell -->
<g id="node10" class="node"><title>ISpell</title>
<ellipse fill="none" stroke="black" stroke-dasharray="5,2" cx="443.245" cy="-90" rx="31.6951" ry="18"/>
<text text-anchor="middle" x="443.245" y="-86.3" font-family="Times New Roman,serif" font-size="14.00">ISpell</text>
</g>
<!-- ISpellInstantiator&#45;&gt;ISpell -->
<g id="edge9" class="edge"><title>ISpellInstantiator&#45;&gt;ISpell</title>
<path fill="none" stroke="black" d="M279.237,-147.003C316.618,-134.238 371.319,-115.56 407.1,-103.342"/>
<polygon fill="black" stroke="black" points="408.328,-106.622 416.66,-100.078 406.065,-99.9971 408.328,-106.622"/>
</g>
<!-- SpellSpawner -->
<g id="node13" class="node"><title>SpellSpawner</title>
<ellipse fill="none" stroke="black" cx="230.245" cy="-234" rx="60.3893" ry="18"/>
<text text-anchor="middle" x="230.245" y="-230.3" font-family="Times New Roman,serif" font-size="14.00">SpellSpawner</text>
</g>
<!-- SpellSpawner&#45;&gt;ISpellInstantiator -->
<g id="edge12" class="edge"><title>SpellSpawner&#45;&gt;ISpellInstantiator</title>
<path fill="none" stroke="black" d="M232.223,-215.697C233.104,-207.983 234.164,-198.712 235.147,-190.112"/>
<polygon fill="black" stroke="black" points="238.632,-190.437 236.29,-180.104 231.677,-189.642 238.632,-190.437"/>
</g>
<!-- SpellSpawner&#45;&gt;ISpell -->
<g id="edge11" class="edge"><title>SpellSpawner&#45;&gt;ISpell</title>
<path fill="none" stroke="black" d="M198.313,-218.63C182.908,-209.858 165.922,-197.023 157.245,-180 149.979,-165.745 147.014,-156.301 157.245,-144 187.83,-107.226 329.754,-95.8551 401.493,-92.4278"/>
<polygon fill="black" stroke="black" points="401.714,-95.9215 411.547,-91.9777 401.4,-88.9285 401.714,-95.9215"/>
</g>
<!-- ISpellCaster -->
<g id="node16" class="node"><title>ISpellCaster</title>
<ellipse fill="none" stroke="black" stroke-dasharray="5,2" cx="55.2451" cy="-162" rx="55.4913" ry="18"/>
<text text-anchor="middle" x="55.2451" y="-158.3" font-family="Times New Roman,serif" font-size="14.00">ISpellCaster</text>
</g>
<!-- SpellSpawner&#45;&gt;ISpellCaster -->
<g id="edge10" class="edge"><title>SpellSpawner&#45;&gt;ISpellCaster</title>
<path fill="none" stroke="black" stroke-dasharray="5,2" d="M195.671,-219.17C167.717,-207.989 128.22,-192.19 98.2316,-180.195"/>
<polygon fill="black" stroke="black" points="99.4404,-176.909 88.8558,-176.444 96.8407,-183.408 99.4404,-176.909"/>
</g>
<!-- ISpellVisualizer -->
<g id="node17" class="node"><title>ISpellVisualizer</title>
<ellipse fill="none" stroke="black" stroke-dasharray="5,2" cx="395.245" cy="-162" rx="66.8882" ry="18"/>
<text text-anchor="middle" x="395.245" y="-158.3" font-family="Times New Roman,serif" font-size="14.00">ISpellVisualizer</text>
</g>
<!-- SpellSpawner&#45;&gt;ISpellVisualizer -->
<g id="edge13" class="edge"><title>SpellSpawner&#45;&gt;ISpellVisualizer</title>
<path fill="none" stroke="black" d="M263.635,-218.834C288.99,-208.078 324.075,-193.193 351.644,-181.497"/>
<polygon fill="black" stroke="black" points="353.215,-184.633 361.054,-177.505 350.481,-178.189 353.215,-184.633"/>
</g>
<!-- SpellVizBehaviour -->
<g id="node14" class="node"><title>SpellVizBehaviour</title>
<ellipse fill="none" stroke="black" cx="423.245" cy="-234" rx="77.1866" ry="18"/>
<text text-anchor="middle" x="423.245" y="-230.3" font-family="Times New Roman,serif" font-size="14.00">SpellVizBehaviour</text>
</g>
<!-- SpellVizBehaviour&#45;&gt;ISpell -->
<g id="edge16" class="edge"><title>SpellVizBehaviour&#45;&gt;ISpell</title>
<path fill="none" stroke="black" d="M444.203,-216.485C454.457,-207.039 465.752,-194.247 471.245,-180 479.482,-158.635 470.085,-133.728 460.017,-115.705"/>
<polygon fill="black" stroke="black" points="462.921,-113.743 454.78,-106.963 456.916,-117.34 462.921,-113.743"/>
</g>
<!-- SpellVizBehaviour&#45;&gt;ISpellVisualizer -->
<g id="edge15" class="edge"><title>SpellVizBehaviour&#45;&gt;ISpellVisualizer</title>
<path fill="none" stroke="black" stroke-dasharray="5,2" d="M416.467,-216.055C413.316,-208.176 409.492,-198.617 405.963,-189.794"/>
<polygon fill="black" stroke="black" points="409.119,-188.26 402.155,-180.275 402.62,-190.86 409.119,-188.26"/>
</g>
<!-- MonoBehaviour -->
<g id="node23" class="node"><title>MonoBehaviour</title>
<ellipse fill="none" stroke="black" cx="664.245" cy="-162" rx="69.5877" ry="18"/>
<text text-anchor="middle" x="664.245" y="-158.3" font-family="Times New Roman,serif" font-size="14.00">MonoBehaviour</text>
</g>
<!-- SpellVizBehaviour&#45;&gt;MonoBehaviour -->
<g id="edge14" class="edge"><title>SpellVizBehaviour&#45;&gt;MonoBehaviour</title>
<path fill="none" stroke="black" stroke-width="2" d="M469.712,-219.503C509.727,-207.881 567.525,-191.093 609.72,-178.837"/>
<polygon fill="black" stroke="black" stroke-width="2" points="610.923,-182.132 619.55,-175.982 608.971,-175.41 610.923,-182.132"/>
</g>
<!-- TimerNotFoundException -->
<g id="node15" class="node"><title>TimerNotFoundException</title>
<ellipse fill="none" stroke="black" cx="1666.25" cy="-90" rx="106.681" ry="18"/>
<text text-anchor="middle" x="1666.25" y="-86.3" font-family="Times New Roman,serif" font-size="14.00">TimerNotFoundException</text>
</g>
<!-- Exception -->
<g id="node22" class="node"><title>Exception</title>
<ellipse fill="none" stroke="black" cx="1666.25" cy="-18" rx="47.3916" ry="18"/>
<text text-anchor="middle" x="1666.25" y="-14.3" font-family="Times New Roman,serif" font-size="14.00">Exception</text>
</g>
<!-- TimerNotFoundException&#45;&gt;Exception -->
<g id="edge17" class="edge"><title>TimerNotFoundException&#45;&gt;Exception</title>
<path fill="none" stroke="black" stroke-width="2" d="M1666.25,-71.6966C1666.25,-63.9827 1666.25,-54.7125 1666.25,-46.1124"/>
<polygon fill="black" stroke="black" stroke-width="2" points="1669.75,-46.1043 1666.25,-36.1043 1662.75,-46.1044 1669.75,-46.1043"/>
</g>
<!-- IFlipX -->
<g id="node18" class="node"><title>IFlipX</title>
<ellipse fill="none" stroke="black" stroke-dasharray="5,2" cx="566.245" cy="-18" rx="34.394" ry="18"/>
<text text-anchor="middle" x="566.245" y="-14.3" font-family="Times New Roman,serif" font-size="14.00">IFlipX</text>
</g>
<!-- ISpellCaster&#45;&gt;IFlipX -->
<g id="edge18" class="edge"><title>ISpellCaster&#45;&gt;IFlipX</title>
<path fill="none" stroke="black" stroke-dasharray="5,2" d="M95.7695,-149.739C191.657,-123.093 431.523,-56.4374 526.562,-30.0274"/>
<polygon fill="black" stroke="black" points="527.662,-33.3544 536.36,-27.3047 525.788,-26.6099 527.662,-33.3544"/>
</g>
<!-- ISpellVisualizer&#45;&gt;ISpell -->
<g id="edge19" class="edge"><title>ISpellVisualizer&#45;&gt;ISpell</title>
<path fill="none" stroke="black" d="M406.865,-144.055C412.728,-135.505 419.948,-124.975 426.407,-115.556"/>
<polygon fill="black" stroke="black" points="429.294,-117.534 432.063,-107.307 423.521,-113.575 429.294,-117.534"/>
</g>
<!-- ConvertToInterface -->
<g id="node19" class="node"><title>ConvertToInterface</title>
<ellipse fill="#e5e5e5" stroke="black" cx="1631.25" cy="-162" rx="82.5854" ry="18"/>
<text text-anchor="middle" x="1631.25" y="-158.3" font-family="Times New Roman,serif" font-size="14.00">ConvertToInterface</text>
</g>
<!-- TimerCollection -->
<g id="node20" class="node"><title>TimerCollection</title>
<ellipse fill="none" stroke="black" cx="1801.25" cy="-162" rx="69.5877" ry="18"/>
<text text-anchor="middle" x="1801.25" y="-158.3" font-family="Times New Roman,serif" font-size="14.00">TimerCollection</text>
</g>
<!-- TimerCollection&#45;&gt;Timer -->
<g id="edge20" class="edge"><title>TimerCollection&#45;&gt;Timer</title>
<path fill="none" stroke="black" d="M1815.77,-144.055C1823.36,-135.204 1832.76,-124.231 1841.05,-114.566"/>
<polygon fill="black" stroke="black" points="1843.83,-116.7 1847.68,-106.829 1838.51,-112.144 1843.83,-116.7"/>
</g>
<!-- TimerCollection&#45;&gt;Callback -->
<g id="edge21" class="edge"><title>TimerCollection&#45;&gt;Callback</title>
<path fill="none" stroke="black" d="M1801.25,-143.871C1801.25,-119.67 1801.25,-75.2108 1801.25,-46.3932"/>
<polygon fill="black" stroke="black" points="1804.75,-46.1892 1801.25,-36.1893 1797.75,-46.1893 1804.75,-46.1892"/>
</g>
<!-- TimerCollection&#45;&gt;TimerNotFoundException -->
<g id="edge22" class="edge"><title>TimerCollection&#45;&gt;TimerNotFoundException</title>
<path fill="none" stroke="black" d="M1771.62,-145.638C1752.55,-135.752 1727.53,-122.775 1706.65,-111.949"/>
<polygon fill="black" stroke="black" points="1708.17,-108.797 1697.68,-107.301 1704.95,-115.011 1708.17,-108.797"/>
</g>
<!-- ISystemParticipator -->
<g id="node21" class="node"><title>ISystemParticipator</title>
<ellipse fill="none" stroke="black" stroke-dasharray="5,2" cx="677.245" cy="-90" rx="82.5854" ry="18"/>
<text text-anchor="middle" x="677.245" y="-86.3" font-family="Times New Roman,serif" font-size="14.00">ISystemParticipator</text>
</g>
<!-- SpellSpawnerBehaviour -->
<g id="node24" class="node"><title>SpellSpawnerBehaviour</title>
<ellipse fill="none" stroke="black" cx="528.245" cy="-306" rx="96.6831" ry="18"/>
<text text-anchor="middle" x="528.245" y="-302.3" font-family="Times New Roman,serif" font-size="14.00">SpellSpawnerBehaviour</text>
</g>
<!-- SpellSpawnerBehaviour&#45;&gt;NotNull -->
<g id="edge30" class="edge"><title>SpellSpawnerBehaviour&#45;&gt;NotNull</title>
<path fill="none" stroke="black" d="M624.066,-303.121C736.822,-299.271 929.111,-287.56 1090.25,-252 1093.44,-251.295 1096.71,-250.439 1099.98,-249.49"/>
<polygon fill="black" stroke="black" points="1101.17,-252.782 1109.65,-246.422 1099.05,-246.11 1101.17,-252.782"/>
</g>
<!-- SpellSpawnerBehaviour&#45;&gt;ISpellInstantiator -->
<g id="edge25" class="edge"><title>SpellSpawnerBehaviour&#45;&gt;ISpellInstantiator</title>
<path fill="none" stroke="black" stroke-dasharray="5,2" d="M456.533,-293.718C419.254,-285.773 373.943,-272.746 337.245,-252 316.993,-240.551 316.474,-231.633 299.245,-216 288.316,-206.084 276.07,-195.369 265.434,-186.185"/>
<polygon fill="black" stroke="black" points="267.526,-183.368 257.663,-179.5 262.961,-188.675 267.526,-183.368"/>
</g>
<!-- SpellSpawnerBehaviour&#45;&gt;ISpell -->
<g id="edge31" class="edge"><title>SpellSpawnerBehaviour&#45;&gt;ISpell</title>
<path fill="none" stroke="black" d="M526.609,-287.548C523.14,-256.868 513.127,-191.978 487.245,-144 481.42,-133.202 473.197,-122.546 465.434,-113.654"/>
<polygon fill="black" stroke="black" points="467.827,-111.083 458.516,-106.029 462.643,-115.786 467.827,-111.083"/>
</g>
<!-- SpellSpawnerBehaviour&#45;&gt;SpellSpawner -->
<g id="edge28" class="edge"><title>SpellSpawnerBehaviour&#45;&gt;SpellSpawner</title>
<path fill="none" stroke="black" d="M470.788,-291.503C417.559,-279 338.883,-260.519 286.155,-248.133"/>
<polygon fill="black" stroke="black" points="286.833,-244.697 276.297,-245.818 285.232,-251.512 286.833,-244.697"/>
</g>
<!-- SpellSpawnerBehaviour&#45;&gt;SpellVizBehaviour -->
<g id="edge27" class="edge"><title>SpellSpawnerBehaviour&#45;&gt;SpellVizBehaviour</title>
<path fill="none" stroke="black" d="M503.627,-288.588C489.541,-279.197 471.682,-267.291 456.377,-257.088"/>
<polygon fill="black" stroke="black" points="457.971,-253.944 447.709,-251.309 454.088,-259.768 457.971,-253.944"/>
</g>
<!-- SpellSpawnerBehaviour&#45;&gt;ISpellCaster -->
<g id="edge26" class="edge"><title>SpellSpawnerBehaviour&#45;&gt;ISpellCaster</title>
<path fill="none" stroke="black" stroke-dasharray="5,2" d="M441.307,-297.973C349.007,-289.541 209.866,-273.767 161.245,-252 127.601,-236.938 96.2162,-207.97 76.4635,-187.169"/>
<polygon fill="black" stroke="black" points="78.8491,-184.594 69.4822,-179.643 73.7171,-189.355 78.8491,-184.594"/>
</g>
<!-- SpellSpawnerBehaviour&#45;&gt;IFlipX -->
<g id="edge24" class="edge"><title>SpellSpawnerBehaviour&#45;&gt;IFlipX</title>
<path fill="none" stroke="black" stroke-dasharray="5,2" d="M530.508,-287.966C536.856,-240.192 554.869,-104.623 562.622,-46.2658"/>
<polygon fill="black" stroke="black" points="566.098,-46.6804 563.946,-36.3065 559.159,-45.7583 566.098,-46.6804"/>
</g>
<!-- SpellSpawnerBehaviour&#45;&gt;MonoBehaviour -->
<g id="edge23" class="edge"><title>SpellSpawnerBehaviour&#45;&gt;MonoBehaviour</title>
<path fill="none" stroke="black" stroke-width="2" d="M545.191,-287.896C555.398,-277.554 568.625,-264.075 580.245,-252 601.069,-230.36 624.507,-205.483 641.323,-187.542"/>
<polygon fill="black" stroke="black" stroke-width="2" points="644.27,-189.515 648.55,-179.823 639.16,-184.731 644.27,-189.515"/>
</g>
<!-- SpellBehaviour -->
<g id="node26" class="node"><title>SpellBehaviour</title>
<ellipse fill="none" stroke="black" cx="1015.25" cy="-234" rx="65.7887" ry="18"/>
<text text-anchor="middle" x="1015.25" y="-230.3" font-family="Times New Roman,serif" font-size="14.00">SpellBehaviour</text>
</g>
<!-- SpellSpawnerBehaviour&#45;&gt;SpellBehaviour -->
<g id="edge29" class="edge"><title>SpellSpawnerBehaviour&#45;&gt;SpellBehaviour</title>
<path fill="none" stroke="black" d="M602.21,-294.369C696.368,-280.834 857.669,-257.65 948.326,-244.619"/>
<polygon fill="black" stroke="black" points="949.085,-248.046 958.485,-243.159 948.089,-241.117 949.085,-248.046"/>
</g>
<!-- ICollisionSystemParticipator&#45;&gt;ICollisionSystemParticipatorWrapper -->
<g id="edge33" class="edge"><title>ICollisionSystemParticipator&#45;&gt;ICollisionSystemParticipatorWrapper</title>
<path fill="none" stroke="black" stroke-dasharray="5,2" d="M903.273,-143.697C904.712,-135.813 907.211,-126.304 910.089,-117.546"/>
<polygon fill="black" stroke="black" points="913.393,-118.699 913.463,-108.104 906.802,-116.343 913.393,-118.699"/>
</g>
<!-- ICollisionSystemParticipator&#45;&gt;ISystemParticipator -->
<g id="edge32" class="edge"><title>ICollisionSystemParticipator&#45;&gt;ISystemParticipator</title>
<path fill="none" stroke="black" stroke-dasharray="5,2" d="M854.709,-145.725C818.664,-134.609 769.839,-119.553 732.526,-108.047"/>
<polygon fill="black" stroke="black" points="733.403,-104.655 722.816,-105.053 731.34,-111.344 733.403,-104.655"/>
</g>
<!-- SpellBehaviour&#45;&gt;WrapperRigidbody2d -->
<g id="edge40" class="edge"><title>SpellBehaviour&#45;&gt;WrapperRigidbody2d</title>
<path fill="none" stroke="black" d="M1040.38,-217.291C1055.76,-207.679 1075.65,-195.246 1092.52,-184.703"/>
<polygon fill="black" stroke="black" points="1094.4,-187.655 1101.03,-179.387 1090.69,-181.719 1094.4,-187.655"/>
</g>
<!-- SpellBehaviour&#45;&gt;BasePhysics -->
<g id="edge37" class="edge"><title>SpellBehaviour&#45;&gt;BasePhysics</title>
<path fill="none" stroke="black" d="M1062.42,-221.308C1105.4,-210.632 1170.62,-194.372 1227.25,-180 1231.62,-178.889 1236.16,-177.732 1240.71,-176.567"/>
<polygon fill="black" stroke="black" points="1241.84,-179.893 1250.65,-174.018 1240.1,-173.112 1241.84,-179.893"/>
</g>
<!-- SpellBehaviour&#45;&gt;WrapperTransform -->
<g id="edge41" class="edge"><title>SpellBehaviour&#45;&gt;WrapperTransform</title>
<path fill="none" stroke="black" d="M1062.72,-221.562C1071.83,-219.56 1081.31,-217.607 1090.25,-216 1208.96,-194.646 1240.16,-199.201 1359.25,-180 1366.26,-178.869 1373.57,-177.615 1380.85,-176.315"/>
<polygon fill="black" stroke="black" points="1381.53,-179.749 1390.75,-174.521 1380.28,-172.862 1381.53,-179.749"/>
</g>
<!-- SpellBehaviour&#45;&gt;ISpell -->
<g id="edge35" class="edge"><title>SpellBehaviour&#45;&gt;ISpell</title>
<path fill="none" stroke="black" stroke-dasharray="5,2" d="M953.229,-228.015C904.159,-221.996 835.164,-208.798 781.245,-180 760.724,-169.04 764.022,-154.466 743.245,-144 698.449,-121.435 555.35,-103.213 484.205,-95.2857"/>
<polygon fill="black" stroke="black" points="484.573,-91.8051 474.25,-94.1914 483.808,-98.7632 484.573,-91.8051"/>
</g>
<!-- SpellBehaviour&#45;&gt;ConvertToInterface -->
<g id="edge38" class="edge"><title>SpellBehaviour&#45;&gt;ConvertToInterface</title>
<path fill="none" stroke="black" d="M1062.26,-221.264C1071.49,-219.266 1081.14,-217.39 1090.25,-216 1288.15,-185.795 1340.77,-206.223 1539.25,-180 1546.83,-178.998 1554.74,-177.789 1562.6,-176.483"/>
<polygon fill="black" stroke="black" points="1563.23,-179.926 1572.49,-174.785 1562.05,-173.026 1563.23,-179.926"/>
</g>
<!-- SpellBehaviour&#45;&gt;TimerCollection -->
<g id="edge39" class="edge"><title>SpellBehaviour&#45;&gt;TimerCollection</title>
<path fill="none" stroke="black" d="M1061.83,-221.181C1071.19,-219.164 1080.99,-217.303 1090.25,-216 1369.28,-176.719 1444.05,-218.122 1723.25,-180 1729.46,-179.151 1735.92,-178.07 1742.34,-176.867"/>
<polygon fill="black" stroke="black" points="1743.22,-180.26 1752.36,-174.89 1741.87,-173.393 1743.22,-180.26"/>
</g>
<!-- SpellBehaviour&#45;&gt;MonoBehaviour -->
<g id="edge34" class="edge"><title>SpellBehaviour&#45;&gt;MonoBehaviour</title>
<path fill="none" stroke="black" stroke-width="2" d="M963.549,-222.798C909.755,-212.167 823.079,-195 748.245,-180 741.482,-178.644 734.413,-177.222 727.372,-175.802"/>
<polygon fill="black" stroke="black" stroke-width="2" points="727.609,-172.279 717.114,-173.731 726.223,-179.141 727.609,-172.279"/>
</g>
<!-- SpellBehaviour&#45;&gt;ICollisionSystemParticipator -->
<g id="edge36" class="edge"><title>SpellBehaviour&#45;&gt;ICollisionSystemParticipator</title>
<path fill="none" stroke="black" stroke-dasharray="5,2" d="M990.335,-217.291C975.342,-207.836 956.017,-195.649 939.477,-185.218"/>
<polygon fill="black" stroke="black" points="940.945,-182.006 930.62,-179.633 937.211,-187.927 940.945,-182.006"/>
</g>
<!-- IBasePhysics&#45;&gt;IFlipX -->
<g id="edge42" class="edge"><title>IBasePhysics&#45;&gt;IFlipX</title>
<path fill="none" stroke="black" stroke-dasharray="5,2" d="M1249.4,-77.311C1240.79,-75.2832 1231.77,-73.3847 1223.25,-72 994.782,-34.8891 717.201,-23.3352 610.736,-20.1199"/>
<polygon fill="black" stroke="black" points="610.776,-16.6196 600.678,-19.8258 610.571,-23.6167 610.776,-16.6196"/>
</g>
</g>
</svg>
