<?xml version="1.0" encoding="UTF-8" standalone="no"?>
<!DOCTYPE svg PUBLIC "-//W3C//DTD SVG 1.1//EN"
 "http://www.w3.org/Graphics/SVG/1.1/DTD/svg11.dtd">
<!-- Generated by graphviz version 2.38.0 (20140413.2041)
 -->
<!-- Title: %3 Pages: 1 -->
<svg width="1163pt" height="404pt"
 viewBox="0.00 0.00 1162.81 404.00" xmlns="http://www.w3.org/2000/svg" xmlns:xlink="http://www.w3.org/1999/xlink">
<g id="graph0" class="graph" transform="scale(1 1) rotate(0) translate(4 400)">
<title>%3</title>
<polygon fill="white" stroke="none" points="-4,4 -4,-400 1158.81,-400 1158.81,4 -4,4"/>
<!-- GameState -->
<g id="node1" class="node"><title>GameState</title>
<ellipse fill="none" stroke="black" cx="216.245" cy="-234" rx="50.0912" ry="18"/>
<text text-anchor="middle" x="216.245" y="-230.3" font-family="Times New Roman,serif" font-size="14.00">GameState</text>
</g>
<!-- IEventBus -->
<g id="node3" class="node"><title>IEventBus</title>
<ellipse fill="none" stroke="black" stroke-dasharray="5,2" cx="56.2451" cy="-162" rx="48.1917" ry="18"/>
<text text-anchor="middle" x="56.2451" y="-158.3" font-family="Times New Roman,serif" font-size="14.00">IEventBus</text>
</g>
<!-- GameState&#45;&gt;IEventBus -->
<g id="edge1" class="edge"><title>GameState&#45;&gt;IEventBus</title>
<path fill="none" stroke="black" stroke-dasharray="5,2" d="M185.774,-219.669C160.225,-208.491 123.566,-192.453 95.7637,-180.289"/>
<polygon fill="black" stroke="black" points="96.8963,-176.965 86.3318,-176.163 94.0905,-183.378 96.8963,-176.965"/>
</g>
<!-- TimerCollection -->
<g id="node16" class="node"><title>TimerCollection</title>
<ellipse fill="none" stroke="black" cx="192.245" cy="-162" rx="69.5877" ry="18"/>
<text text-anchor="middle" x="192.245" y="-158.3" font-family="Times New Roman,serif" font-size="14.00">TimerCollection</text>
</g>
<!-- GameState&#45;&gt;TimerCollection -->
<g id="edge2" class="edge"><title>GameState&#45;&gt;TimerCollection</title>
<path fill="none" stroke="black" d="M210.435,-216.055C207.734,-208.176 204.456,-198.617 201.432,-189.794"/>
<polygon fill="black" stroke="black" points="204.722,-188.6 198.168,-180.275 198.101,-190.87 204.722,-188.6"/>
</g>
<!-- ISceneLoader -->
<g id="node18" class="node"><title>ISceneLoader</title>
<ellipse fill="none" stroke="black" stroke-dasharray="5,2" cx="514.245" cy="-162" rx="61.99" ry="18"/>
<text text-anchor="middle" x="514.245" y="-158.3" font-family="Times New Roman,serif" font-size="14.00">ISceneLoader</text>
</g>
<!-- GameState&#45;&gt;ISceneLoader -->
<g id="edge5" class="edge"><title>GameState&#45;&gt;ISceneLoader</title>
<path fill="none" stroke="black" d="M253.603,-221.856C260.765,-219.827 268.221,-217.789 275.245,-216 336.19,-200.478 406.533,-185.192 455.046,-175.056"/>
<polygon fill="black" stroke="black" points="455.979,-178.437 465.056,-172.973 454.553,-171.584 455.979,-178.437"/>
</g>
<!-- IFadeIn -->
<g id="node21" class="node"><title>IFadeIn</title>
<ellipse fill="none" stroke="black" stroke-dasharray="5,2" cx="357.245" cy="-162" rx="38.9931" ry="18"/>
<text text-anchor="middle" x="357.245" y="-158.3" font-family="Times New Roman,serif" font-size="14.00">IFadeIn</text>
</g>
<!-- GameState&#45;&gt;IFadeIn -->
<g id="edge3" class="edge"><title>GameState&#45;&gt;IFadeIn</title>
<path fill="none" stroke="black" d="M244.44,-219.003C266.859,-207.872 298.337,-192.245 322.346,-180.326"/>
<polygon fill="black" stroke="black" points="324.073,-183.376 331.473,-175.795 320.96,-177.106 324.073,-183.376"/>
</g>
<!-- ICanBeActivated -->
<g id="node26" class="node"><title>ICanBeActivated</title>
<ellipse fill="none" stroke="black" stroke-dasharray="5,2" cx="575.245" cy="-90" rx="72.5877" ry="18"/>
<text text-anchor="middle" x="575.245" y="-86.3" font-family="Times New Roman,serif" font-size="14.00">ICanBeActivated</text>
</g>
<!-- GameState&#45;&gt;ICanBeActivated -->
<g id="edge4" class="edge"><title>GameState&#45;&gt;ICanBeActivated</title>
<path fill="none" stroke="black" d="M233.044,-216.811C259.521,-191.311 308.093,-144.6 309.245,-144 326.622,-134.952 433.821,-115.27 506.714,-102.603"/>
<polygon fill="black" stroke="black" points="507.503,-106.019 516.759,-100.864 506.309,-99.1213 507.503,-106.019"/>
</g>
<!-- FadeInBehaviour -->
<g id="node2" class="node"><title>FadeInBehaviour</title>
<ellipse fill="none" stroke="black" cx="357.245" cy="-234" rx="72.5877" ry="18"/>
<text text-anchor="middle" x="357.245" y="-230.3" font-family="Times New Roman,serif" font-size="14.00">FadeInBehaviour</text>
</g>
<!-- MonoBehaviour -->
<g id="node11" class="node"><title>MonoBehaviour</title>
<ellipse fill="none" stroke="black" cx="966.245" cy="-90" rx="69.5877" ry="18"/>
<text text-anchor="middle" x="966.245" y="-86.3" font-family="Times New Roman,serif" font-size="14.00">MonoBehaviour</text>
</g>
<!-- FadeInBehaviour&#45;&gt;MonoBehaviour -->
<g id="edge6" class="edge"><title>FadeInBehaviour&#45;&gt;MonoBehaviour</title>
<path fill="none" stroke="black" stroke-width="2" d="M372.444,-216.059C394.693,-191.451 434.45,-148.268 443.245,-144 453.22,-139.16 749.59,-111.112 891.674,-97.8915"/>
<polygon fill="black" stroke="black" stroke-width="2" points="892.411,-101.338 902.044,-96.9274 891.763,-94.3682 892.411,-101.338"/>
</g>
<!-- FadeInBehaviour&#45;&gt;TimerCollection -->
<g id="edge8" class="edge"><title>FadeInBehaviour&#45;&gt;TimerCollection</title>
<path fill="none" stroke="black" d="M322.253,-218.155C297.12,-207.493 263.065,-193.045 236.114,-181.611"/>
<polygon fill="black" stroke="black" points="237.476,-178.387 226.904,-177.704 234.743,-184.831 237.476,-178.387"/>
</g>
<!-- FadeInBehaviour&#45;&gt;IFadeIn -->
<g id="edge7" class="edge"><title>FadeInBehaviour&#45;&gt;IFadeIn</title>
<path fill="none" stroke="black" stroke-dasharray="5,2" d="M357.245,-215.697C357.245,-207.983 357.245,-198.712 357.245,-190.112"/>
<polygon fill="black" stroke="black" points="360.745,-190.104 357.245,-180.104 353.745,-190.104 360.745,-190.104"/>
</g>
<!-- Callback -->
<g id="node4" class="node"><title>Callback</title>
<ellipse fill="#e5e5e5" stroke="black" cx="132.245" cy="-18" rx="42.4939" ry="18"/>
<text text-anchor="middle" x="132.245" y="-14.3" font-family="Times New Roman,serif" font-size="14.00">Callback</text>
</g>
<!-- PlayerInput -->
<g id="node5" class="node"><title>PlayerInput</title>
<ellipse fill="none" stroke="black" cx="55.2451" cy="-306" rx="51.9908" ry="18"/>
<text text-anchor="middle" x="55.2451" y="-302.3" font-family="Times New Roman,serif" font-size="14.00">PlayerInput</text>
</g>
<!-- IPlayerInput -->
<g id="node20" class="node"><title>IPlayerInput</title>
<ellipse fill="none" stroke="black" stroke-dasharray="5,2" cx="55.2451" cy="-234" rx="55.4913" ry="18"/>
<text text-anchor="middle" x="55.2451" y="-230.3" font-family="Times New Roman,serif" font-size="14.00">IPlayerInput</text>
</g>
<!-- PlayerInput&#45;&gt;IPlayerInput -->
<g id="edge9" class="edge"><title>PlayerInput&#45;&gt;IPlayerInput</title>
<path fill="none" stroke="black" stroke-dasharray="5,2" d="M55.2451,-287.697C55.2451,-279.983 55.2451,-270.712 55.2451,-262.112"/>
<polygon fill="black" stroke="black" points="58.7452,-262.104 55.2451,-252.104 51.7452,-262.104 58.7452,-262.104"/>
</g>
<!-- UiKeyboardListenerBehaviour -->
<g id="node6" class="node"><title>UiKeyboardListenerBehaviour</title>
<ellipse fill="none" stroke="black" cx="751.245" cy="-378" rx="120.479" ry="18"/>
<text text-anchor="middle" x="751.245" y="-374.3" font-family="Times New Roman,serif" font-size="14.00">UiKeyboardListenerBehaviour</text>
</g>
<!-- UiKeyboardListenerBehaviour&#45;&gt;PlayerInput -->
<g id="edge14" class="edge"><title>UiKeyboardListenerBehaviour&#45;&gt;PlayerInput</title>
<path fill="none" stroke="black" d="M634.226,-373.833C506.163,-368.838 295.229,-356.113 116.245,-324 111.803,-323.203 107.218,-322.225 102.649,-321.143"/>
<polygon fill="black" stroke="black" points="103.287,-317.695 92.7346,-318.643 101.575,-324.482 103.287,-317.695"/>
</g>
<!-- NotNull -->
<g id="node10" class="node"><title>NotNull</title>
<ellipse fill="#e5e5e5" stroke="black" cx="847.245" cy="-162" rx="38.9931" ry="18"/>
<text text-anchor="middle" x="847.245" y="-158.3" font-family="Times New Roman,serif" font-size="14.00">NotNull</text>
</g>
<!-- UiKeyboardListenerBehaviour&#45;&gt;NotNull -->
<g id="edge13" class="edge"><title>UiKeyboardListenerBehaviour&#45;&gt;NotNull</title>
<path fill="none" stroke="black" d="M794.572,-361.181C812.939,-352.608 833.28,-340.364 847.245,-324 879.294,-286.445 884.406,-264.093 873.245,-216 871.057,-206.57 866.944,-196.884 862.624,-188.414"/>
<polygon fill="black" stroke="black" points="865.601,-186.562 857.751,-179.447 859.451,-189.904 865.601,-186.562"/>
</g>
<!-- UiKeyboardListenerBehaviour&#45;&gt;MonoBehaviour -->
<g id="edge10" class="edge"><title>UiKeyboardListenerBehaviour&#45;&gt;MonoBehaviour</title>
<path fill="none" stroke="black" stroke-width="2" d="M827.443,-363.948C931.638,-344.37 1110.05,-304.074 1148.25,-252 1174.14,-216.693 1110.68,-144.381 1110.25,-144 1087.93,-124.468 1057.79,-111.901 1030.85,-103.935"/>
<polygon fill="black" stroke="black" stroke-width="2" points="1031.66,-100.528 1021.09,-101.204 1029.78,-107.269 1031.66,-100.528"/>
</g>
<!-- UiKeyboardListener -->
<g id="node13" class="node"><title>UiKeyboardListener</title>
<ellipse fill="none" stroke="black" cx="209.245" cy="-306" rx="83.6854" ry="18"/>
<text text-anchor="middle" x="209.245" y="-302.3" font-family="Times New Roman,serif" font-size="14.00">UiKeyboardListener</text>
</g>
<!-- UiKeyboardListenerBehaviour&#45;&gt;UiKeyboardListener -->
<g id="edge11" class="edge"><title>UiKeyboardListenerBehaviour&#45;&gt;UiKeyboardListener</title>
<path fill="none" stroke="black" d="M663.561,-365.675C560.009,-352.302 389.231,-330.245 289.179,-317.324"/>
<polygon fill="black" stroke="black" points="289.492,-313.835 279.126,-316.025 288.595,-320.777 289.492,-313.835"/>
</g>
<!-- GameStateBehaviour -->
<g id="node23" class="node"><title>GameStateBehaviour</title>
<ellipse fill="none" stroke="black" cx="751.245" cy="-306" rx="87.1846" ry="18"/>
<text text-anchor="middle" x="751.245" y="-302.3" font-family="Times New Roman,serif" font-size="14.00">GameStateBehaviour</text>
</g>
<!-- UiKeyboardListenerBehaviour&#45;&gt;GameStateBehaviour -->
<g id="edge12" class="edge"><title>UiKeyboardListenerBehaviour&#45;&gt;GameStateBehaviour</title>
<path fill="none" stroke="black" d="M751.245,-359.697C751.245,-351.983 751.245,-342.712 751.245,-334.112"/>
<polygon fill="black" stroke="black" points="754.745,-334.104 751.245,-324.104 747.745,-334.104 754.745,-334.104"/>
</g>
<!-- IPauseMenu -->
<g id="node7" class="node"><title>IPauseMenu</title>
<ellipse fill="none" stroke="black" stroke-dasharray="5,2" cx="960.245" cy="-162" rx="55.7903" ry="18"/>
<text text-anchor="middle" x="960.245" y="-158.3" font-family="Times New Roman,serif" font-size="14.00">IPauseMenu</text>
</g>
<!-- IPauseMenu&#45;&gt;ICanBeActivated -->
<g id="edge15" class="edge"><title>IPauseMenu&#45;&gt;ICanBeActivated</title>
<path fill="none" stroke="black" stroke-dasharray="5,2" d="M919.485,-149.636C911.484,-147.605 903.128,-145.622 895.245,-144 790.46,-122.435 762.55,-126.866 657.245,-108 651.047,-106.89 644.598,-105.668 638.162,-104.405"/>
<polygon fill="black" stroke="black" points="638.588,-100.921 628.096,-102.396 637.218,-107.786 638.588,-100.921"/>
</g>
<!-- TimerNotFoundException -->
<g id="node8" class="node"><title>TimerNotFoundException</title>
<ellipse fill="none" stroke="black" cx="349.245" cy="-90" rx="106.681" ry="18"/>
<text text-anchor="middle" x="349.245" y="-86.3" font-family="Times New Roman,serif" font-size="14.00">TimerNotFoundException</text>
</g>
<!-- Exception -->
<g id="node15" class="node"><title>Exception</title>
<ellipse fill="none" stroke="black" cx="349.245" cy="-18" rx="47.3916" ry="18"/>
<text text-anchor="middle" x="349.245" y="-14.3" font-family="Times New Roman,serif" font-size="14.00">Exception</text>
</g>
<!-- TimerNotFoundException&#45;&gt;Exception -->
<g id="edge16" class="edge"><title>TimerNotFoundException&#45;&gt;Exception</title>
<path fill="none" stroke="black" stroke-width="2" d="M349.245,-71.6966C349.245,-63.9827 349.245,-54.7125 349.245,-46.1124"/>
<polygon fill="black" stroke="black" stroke-width="2" points="352.745,-46.1043 349.245,-36.1043 345.745,-46.1044 352.745,-46.1043"/>
</g>
<!-- Debug -->
<g id="node9" class="node"><title>Debug</title>
<ellipse fill="#e5e5e5" stroke="black" cx="227.245" cy="-18" rx="34.394" ry="18"/>
<text text-anchor="middle" x="227.245" y="-14.3" font-family="Times New Roman,serif" font-size="14.00">Debug</text>
</g>
<!-- BarBehaviour -->
<g id="node12" class="node"><title>BarBehaviour</title>
<ellipse fill="none" stroke="black" cx="692.245" cy="-162" rx="59.5901" ry="18"/>
<text text-anchor="middle" x="692.245" y="-158.3" font-family="Times New Roman,serif" font-size="14.00">BarBehaviour</text>
</g>
<!-- BarBehaviour&#45;&gt;MonoBehaviour -->
<g id="edge17" class="edge"><title>BarBehaviour&#45;&gt;MonoBehaviour</title>
<path fill="none" stroke="black" stroke-width="2" d="M736.268,-149.753C783.069,-137.797 857.279,-118.838 908.687,-105.705"/>
<polygon fill="black" stroke="black" stroke-width="2" points="909.828,-109.026 918.65,-103.159 908.095,-102.244 909.828,-109.026"/>
</g>
<!-- IBarDisplay -->
<g id="node14" class="node"><title>IBarDisplay</title>
<ellipse fill="none" stroke="black" stroke-dasharray="5,2" cx="720.245" cy="-90" rx="53.8905" ry="18"/>
<text text-anchor="middle" x="720.245" y="-86.3" font-family="Times New Roman,serif" font-size="14.00">IBarDisplay</text>
</g>
<!-- BarBehaviour&#45;&gt;IBarDisplay -->
<g id="edge18" class="edge"><title>BarBehaviour&#45;&gt;IBarDisplay</title>
<path fill="none" stroke="black" stroke-dasharray="5,2" d="M699.023,-144.055C702.175,-136.176 705.998,-126.617 709.527,-117.794"/>
<polygon fill="black" stroke="black" points="712.871,-118.86 713.335,-108.275 706.371,-116.26 712.871,-118.86"/>
</g>
<!-- UiKeyboardListener&#45;&gt;IEventBus -->
<g id="edge19" class="edge"><title>UiKeyboardListener&#45;&gt;IEventBus</title>
<path fill="none" stroke="black" d="M193.044,-288.19C175.316,-269.984 145.868,-240.29 119.245,-216 107.775,-205.535 94.6948,-194.408 83.4367,-185.065"/>
<polygon fill="black" stroke="black" points="85.5525,-182.273 75.6102,-178.612 81.0995,-187.674 85.5525,-182.273"/>
</g>
<!-- UiKeyboardListener&#45;&gt;IPlayerInput -->
<g id="edge20" class="edge"><title>UiKeyboardListener&#45;&gt;IPlayerInput</title>
<path fill="none" stroke="black" d="M175.068,-289.465C151.495,-278.75 120.072,-264.467 95.3192,-253.216"/>
<polygon fill="black" stroke="black" points="96.7414,-250.017 86.1894,-249.066 93.8447,-256.39 96.7414,-250.017"/>
</g>
<!-- IFlipX -->
<g id="node17" class="node"><title>IFlipX</title>
<ellipse fill="none" stroke="black" stroke-dasharray="5,2" cx="720.245" cy="-18" rx="34.394" ry="18"/>
<text text-anchor="middle" x="720.245" y="-14.3" font-family="Times New Roman,serif" font-size="14.00">IFlipX</text>
</g>
<!-- IBarDisplay&#45;&gt;IFlipX -->
<g id="edge21" class="edge"><title>IBarDisplay&#45;&gt;IFlipX</title>
<path fill="none" stroke="black" stroke-dasharray="5,2" d="M720.245,-71.6966C720.245,-63.9827 720.245,-54.7125 720.245,-46.1124"/>
<polygon fill="black" stroke="black" points="723.745,-46.1043 720.245,-36.1043 716.745,-46.1044 723.745,-46.1043"/>
</g>
<!-- TimerCollection&#45;&gt;Callback -->
<g id="edge23" class="edge"><title>TimerCollection&#45;&gt;Callback</title>
<path fill="none" stroke="black" d="M176.037,-144.166C167.442,-134.344 157.414,-121.297 151.245,-108 142.13,-88.3513 137.328,-64.2234 134.835,-46.0487"/>
<polygon fill="black" stroke="black" points="138.308,-45.6149 133.618,-36.1145 131.36,-46.4659 138.308,-45.6149"/>
</g>
<!-- TimerCollection&#45;&gt;TimerNotFoundException -->
<g id="edge24" class="edge"><title>TimerCollection&#45;&gt;TimerNotFoundException</title>
<path fill="none" stroke="black" d="M225.541,-146.155C248.368,-135.977 278.931,-122.35 303.966,-111.188"/>
<polygon fill="black" stroke="black" points="305.555,-114.312 313.263,-107.043 302.704,-107.919 305.555,-114.312"/>
</g>
<!-- Timer -->
<g id="node19" class="node"><title>Timer</title>
<ellipse fill="none" stroke="black" cx="192.245" cy="-90" rx="32.4942" ry="18"/>
<text text-anchor="middle" x="192.245" y="-86.3" font-family="Times New Roman,serif" font-size="14.00">Timer</text>
</g>
<!-- TimerCollection&#45;&gt;Timer -->
<g id="edge22" class="edge"><title>TimerCollection&#45;&gt;Timer</title>
<path fill="none" stroke="black" d="M192.245,-143.697C192.245,-135.983 192.245,-126.712 192.245,-118.112"/>
<polygon fill="black" stroke="black" points="195.745,-118.104 192.245,-108.104 188.745,-118.104 195.745,-118.104"/>
</g>
<!-- Timer&#45;&gt;Callback -->
<g id="edge25" class="edge"><title>Timer&#45;&gt;Callback</title>
<path fill="none" stroke="black" d="M178.929,-73.4647C171.301,-64.5657 161.564,-53.2051 152.957,-43.1644"/>
<polygon fill="black" stroke="black" points="155.525,-40.782 146.36,-35.4672 150.21,-45.3376 155.525,-40.782"/>
</g>
<!-- Timer&#45;&gt;Debug -->
<g id="edge26" class="edge"><title>Timer&#45;&gt;Debug</title>
<path fill="none" stroke="black" d="M200.54,-72.411C204.62,-64.2493 209.635,-54.2203 214.212,-45.0653"/>
<polygon fill="black" stroke="black" points="217.425,-46.4658 218.767,-35.9562 211.164,-43.3352 217.425,-46.4658"/>
</g>
<!-- PauseMenuBehaviour -->
<g id="node22" class="node"><title>PauseMenuBehaviour</title>
<ellipse fill="none" stroke="black" cx="1029.25" cy="-234" rx="89.0842" ry="18"/>
<text text-anchor="middle" x="1029.25" y="-230.3" font-family="Times New Roman,serif" font-size="14.00">PauseMenuBehaviour</text>
</g>
<!-- PauseMenuBehaviour&#45;&gt;IPauseMenu -->
<g id="edge28" class="edge"><title>PauseMenuBehaviour&#45;&gt;IPauseMenu</title>
<path fill="none" stroke="black" stroke-dasharray="5,2" d="M1012.54,-216.055C1003.86,-207.243 993.097,-196.328 983.601,-186.694"/>
<polygon fill="black" stroke="black" points="985.832,-183.972 976.319,-179.307 980.847,-188.886 985.832,-183.972"/>
</g>
<!-- PauseMenuBehaviour&#45;&gt;MonoBehaviour -->
<g id="edge27" class="edge"><title>PauseMenuBehaviour&#45;&gt;MonoBehaviour</title>
<path fill="none" stroke="black" stroke-width="2" d="M1032.23,-216.002C1034.67,-197.373 1036.16,-167.069 1025.25,-144 1019.58,-132.019 1009.83,-121.554 999.87,-113.159"/>
<polygon fill="black" stroke="black" stroke-width="2" points="1001.93,-110.327 991.913,-106.881 997.596,-115.823 1001.93,-110.327"/>
</g>
<!-- GameStateBehaviour&#45;&gt;GameState -->
<g id="edge30" class="edge"><title>GameStateBehaviour&#45;&gt;GameState</title>
<path fill="none" stroke="black" d="M668.897,-300.088C573.48,-293.416 411.862,-279.084 275.245,-252 271.069,-251.172 266.76,-250.189 262.461,-249.119"/>
<polygon fill="black" stroke="black" points="263.078,-245.662 252.517,-246.497 261.294,-252.431 263.078,-245.662"/>
</g>
<!-- GameStateBehaviour&#45;&gt;FadeInBehaviour -->
<g id="edge31" class="edge"><title>GameStateBehaviour&#45;&gt;FadeInBehaviour</title>
<path fill="none" stroke="black" d="M684.476,-294.375C621.217,-284.139 523.607,-267.905 439.245,-252 433.151,-250.851 426.811,-249.613 420.476,-248.347"/>
<polygon fill="black" stroke="black" points="421.057,-244.894 410.562,-246.345 419.671,-251.756 421.057,-244.894"/>
</g>
<!-- GameStateBehaviour&#45;&gt;NotNull -->
<g id="edge35" class="edge"><title>GameStateBehaviour&#45;&gt;NotNull</title>
<path fill="none" stroke="black" d="M803.05,-291.384C822.948,-283.352 843.651,-270.921 855.245,-252 866.666,-233.361 863.091,-208.277 857.568,-189.49"/>
<polygon fill="black" stroke="black" points="860.825,-188.192 854.382,-179.782 854.174,-190.374 860.825,-188.192"/>
</g>
<!-- GameStateBehaviour&#45;&gt;MonoBehaviour -->
<g id="edge29" class="edge"><title>GameStateBehaviour&#45;&gt;MonoBehaviour</title>
<path fill="none" stroke="black" stroke-width="2" d="M838.468,-305.381C937.647,-303.734 1090.6,-294.173 1127.25,-252 1174.47,-197.65 1072.98,-139.134 1010.5,-109.896"/>
<polygon fill="black" stroke="black" stroke-width="2" points="1011.76,-106.623 1001.21,-105.629 1008.84,-112.984 1011.76,-106.623"/>
</g>
<!-- GameStateBehaviour&#45;&gt;PauseMenuBehaviour -->
<g id="edge32" class="edge"><title>GameStateBehaviour&#45;&gt;PauseMenuBehaviour</title>
<path fill="none" stroke="black" d="M804.189,-291.669C850.173,-280.09 916.872,-263.295 965.722,-250.995"/>
<polygon fill="black" stroke="black" points="966.709,-254.356 975.551,-248.52 964.999,-247.568 966.709,-254.356"/>
</g>
<!-- ChargeEffectBehaviour -->
<g id="node24" class="node"><title>ChargeEffectBehaviour</title>
<ellipse fill="none" stroke="black" cx="543.245" cy="-234" rx="94.7833" ry="18"/>
<text text-anchor="middle" x="543.245" y="-230.3" font-family="Times New Roman,serif" font-size="14.00">ChargeEffectBehaviour</text>
</g>
<!-- GameStateBehaviour&#45;&gt;ChargeEffectBehaviour -->
<g id="edge33" class="edge"><title>GameStateBehaviour&#45;&gt;ChargeEffectBehaviour</title>
<path fill="none" stroke="black" d="M707.641,-290.326C675.657,-279.562 632.009,-264.872 597.726,-253.335"/>
<polygon fill="black" stroke="black" points="598.461,-249.89 587.867,-250.017 596.229,-256.524 598.461,-249.89"/>
</g>
<!-- SceneLoaderBehaviour -->
<g id="node25" class="node"><title>SceneLoaderBehaviour</title>
<ellipse fill="none" stroke="black" cx="751.245" cy="-234" rx="94.7833" ry="18"/>
<text text-anchor="middle" x="751.245" y="-230.3" font-family="Times New Roman,serif" font-size="14.00">SceneLoaderBehaviour</text>
</g>
<!-- GameStateBehaviour&#45;&gt;SceneLoaderBehaviour -->
<g id="edge34" class="edge"><title>GameStateBehaviour&#45;&gt;SceneLoaderBehaviour</title>
<path fill="none" stroke="black" d="M751.245,-287.697C751.245,-279.983 751.245,-270.712 751.245,-262.112"/>
<polygon fill="black" stroke="black" points="754.745,-262.104 751.245,-252.104 747.745,-262.104 754.745,-262.104"/>
</g>
<!-- ChargeEffectBehaviour&#45;&gt;NotNull -->
<g id="edge38" class="edge"><title>ChargeEffectBehaviour&#45;&gt;NotNull</title>
<path fill="none" stroke="black" d="M601.141,-219.669C660.051,-206.104 750.052,-185.38 803.335,-173.111"/>
<polygon fill="black" stroke="black" points="804.201,-176.503 813.161,-170.848 802.631,-169.682 804.201,-176.503"/>
</g>
<!-- ChargeEffectBehaviour&#45;&gt;BarBehaviour -->
<g id="edge36" class="edge"><title>ChargeEffectBehaviour&#45;&gt;BarBehaviour</title>
<path fill="none" stroke="black" stroke-width="2" d="M577.056,-217.116C599.318,-206.657 628.572,-192.914 652.028,-181.894"/>
<polygon fill="black" stroke="black" stroke-width="2" points="653.797,-184.93 661.359,-177.51 650.82,-178.594 653.797,-184.93"/>
</g>
<!-- ChargeEffectBehaviour&#45;&gt;ICanBeActivated -->
<g id="edge37" class="edge"><title>ChargeEffectBehaviour&#45;&gt;ICanBeActivated</title>
<path fill="none" stroke="black" stroke-dasharray="5,2" d="M561.411,-216.224C570.454,-206.613 580.458,-193.748 585.245,-180 592.212,-159.992 588.929,-136.069 584.334,-118.067"/>
<polygon fill="black" stroke="black" points="587.64,-116.893 581.545,-108.227 580.905,-118.802 587.64,-116.893"/>
</g>
<!-- SceneLoaderBehaviour&#45;&gt;NotNull -->
<g id="edge41" class="edge"><title>SceneLoaderBehaviour&#45;&gt;NotNull</title>
<path fill="none" stroke="black" d="M773.996,-216.411C787.403,-206.635 804.485,-194.179 818.78,-183.756"/>
<polygon fill="black" stroke="black" points="821.245,-186.29 827.263,-177.57 817.121,-180.634 821.245,-186.29"/>
</g>
<!-- SceneLoaderBehaviour&#45;&gt;MonoBehaviour -->
<g id="edge39" class="edge"><title>SceneLoaderBehaviour&#45;&gt;MonoBehaviour</title>
<path fill="none" stroke="black" stroke-width="2" d="M756.192,-215.707C762.796,-195.65 776.396,-162.925 799.245,-144 826.419,-121.492 863.256,-108.5 895.418,-101.021"/>
<polygon fill="black" stroke="black" stroke-width="2" points="896.214,-104.43 905.234,-98.8729 894.717,-97.592 896.214,-104.43"/>
</g>
<!-- SceneLoaderBehaviour&#45;&gt;ISceneLoader -->
<g id="edge40" class="edge"><title>SceneLoaderBehaviour&#45;&gt;ISceneLoader</title>
<path fill="none" stroke="black" stroke-dasharray="5,2" d="M702.139,-218.496C662.307,-206.731 606.325,-190.197 565.84,-178.239"/>
<polygon fill="black" stroke="black" points="566.742,-174.856 556.16,-175.38 564.759,-181.569 566.742,-174.856"/>
</g>
</g>
</svg>
