<?xml version="1.0" encoding="UTF-8" standalone="no"?>
<!DOCTYPE svg PUBLIC "-//W3C//DTD SVG 1.1//EN"
 "http://www.w3.org/Graphics/SVG/1.1/DTD/svg11.dtd">
<!-- Generated by graphviz version 2.38.0 (20140413.2041)
 -->
<!-- Title: %3 Pages: 1 -->
<svg width="1277pt" height="404pt"
 viewBox="0.00 0.00 1276.59 404.00" xmlns="http://www.w3.org/2000/svg" xmlns:xlink="http://www.w3.org/1999/xlink">
<g id="graph0" class="graph" transform="scale(1 1) rotate(0) translate(4 400)">
<title>%3</title>
<polygon fill="white" stroke="none" points="-4,4 -4,-400 1272.59,-400 1272.59,4 -4,4"/>
<!-- TimerCollection -->
<g id="node1" class="node"><title>TimerCollection</title>
<ellipse fill="none" stroke="black" cx="1027" cy="-162" rx="69.5877" ry="18"/>
<text text-anchor="middle" x="1027" y="-158.3" font-family="Times New Roman,serif" font-size="14.00">TimerCollection</text>
</g>
<!-- TimerNotFoundException -->
<g id="node8" class="node"><title>TimerNotFoundException</title>
<ellipse fill="none" stroke="black" cx="1162" cy="-90" rx="106.681" ry="18"/>
<text text-anchor="middle" x="1162" y="-86.3" font-family="Times New Roman,serif" font-size="14.00">TimerNotFoundException</text>
</g>
<!-- TimerCollection&#45;&gt;TimerNotFoundException -->
<g id="edge3" class="edge"><title>TimerCollection&#45;&gt;TimerNotFoundException</title>
<path fill="none" stroke="black" d="M1056.62,-145.638C1075.69,-135.752 1100.72,-122.775 1121.6,-111.949"/>
<polygon fill="black" stroke="black" points="1123.29,-115.011 1130.56,-107.301 1120.07,-108.797 1123.29,-115.011"/>
</g>
<!-- Timer -->
<g id="node16" class="node"><title>Timer</title>
<ellipse fill="none" stroke="black" cx="966.997" cy="-90" rx="32.4942" ry="18"/>
<text text-anchor="middle" x="966.997" y="-86.3" font-family="Times New Roman,serif" font-size="14.00">Timer</text>
</g>
<!-- TimerCollection&#45;&gt;Timer -->
<g id="edge1" class="edge"><title>TimerCollection&#45;&gt;Timer</title>
<path fill="none" stroke="black" d="M1012.47,-144.055C1004.89,-135.204 995.481,-124.231 987.196,-114.566"/>
<polygon fill="black" stroke="black" points="989.73,-112.144 980.565,-106.829 984.415,-116.7 989.73,-112.144"/>
</g>
<!-- Callback -->
<g id="node20" class="node"><title>Callback</title>
<ellipse fill="#e5e5e5" stroke="black" cx="1027" cy="-18" rx="42.4939" ry="18"/>
<text text-anchor="middle" x="1027" y="-14.3" font-family="Times New Roman,serif" font-size="14.00">Callback</text>
</g>
<!-- TimerCollection&#45;&gt;Callback -->
<g id="edge2" class="edge"><title>TimerCollection&#45;&gt;Callback</title>
<path fill="none" stroke="black" d="M1027,-143.871C1027,-119.67 1027,-75.2108 1027,-46.3932"/>
<polygon fill="black" stroke="black" points="1030.5,-46.1892 1027,-36.1893 1023.5,-46.1893 1030.5,-46.1892"/>
</g>
<!-- ISceneLoader -->
<g id="node2" class="node"><title>ISceneLoader</title>
<ellipse fill="none" stroke="black" stroke-dasharray="5,2" cx="424.997" cy="-162" rx="61.99" ry="18"/>
<text text-anchor="middle" x="424.997" y="-158.3" font-family="Times New Roman,serif" font-size="14.00">ISceneLoader</text>
</g>
<!-- GameStateBehaviour -->
<g id="node3" class="node"><title>GameStateBehaviour</title>
<ellipse fill="none" stroke="black" cx="468.997" cy="-306" rx="87.1846" ry="18"/>
<text text-anchor="middle" x="468.997" y="-302.3" font-family="Times New Roman,serif" font-size="14.00">GameStateBehaviour</text>
</g>
<!-- FadeInBehaviour -->
<g id="node4" class="node"><title>FadeInBehaviour</title>
<ellipse fill="none" stroke="black" cx="873.997" cy="-234" rx="72.5877" ry="18"/>
<text text-anchor="middle" x="873.997" y="-230.3" font-family="Times New Roman,serif" font-size="14.00">FadeInBehaviour</text>
</g>
<!-- GameStateBehaviour&#45;&gt;FadeInBehaviour -->
<g id="edge6" class="edge"><title>GameStateBehaviour&#45;&gt;FadeInBehaviour</title>
<path fill="none" stroke="black" d="M536.883,-294.705C602.343,-284.579 704.138,-268.308 791.997,-252 798.094,-250.868 804.436,-249.642 810.772,-248.383"/>
<polygon fill="black" stroke="black" points="811.574,-251.792 820.688,-246.389 810.194,-244.929 811.574,-251.792"/>
</g>
<!-- MonoBehaviour -->
<g id="node9" class="node"><title>MonoBehaviour</title>
<ellipse fill="none" stroke="black" cx="275.997" cy="-162" rx="69.5877" ry="18"/>
<text text-anchor="middle" x="275.997" y="-158.3" font-family="Times New Roman,serif" font-size="14.00">MonoBehaviour</text>
</g>
<!-- GameStateBehaviour&#45;&gt;MonoBehaviour -->
<g id="edge4" class="edge"><title>GameStateBehaviour&#45;&gt;MonoBehaviour</title>
<path fill="none" stroke="black" stroke-width="2" d="M419.286,-291.192C394.38,-282.631 364.763,-269.816 341.997,-252 319.895,-234.704 301.549,-208.216 289.856,-188.63"/>
<polygon fill="black" stroke="black" stroke-width="2" points="292.849,-186.813 284.813,-179.908 286.789,-190.317 292.849,-186.813"/>
</g>
<!-- PauseMenuBehaviour -->
<g id="node11" class="node"><title>PauseMenuBehaviour</title>
<ellipse fill="none" stroke="black" cx="693.997" cy="-234" rx="89.0842" ry="18"/>
<text text-anchor="middle" x="693.997" y="-230.3" font-family="Times New Roman,serif" font-size="14.00">PauseMenuBehaviour</text>
</g>
<!-- GameStateBehaviour&#45;&gt;PauseMenuBehaviour -->
<g id="edge7" class="edge"><title>GameStateBehaviour&#45;&gt;PauseMenuBehaviour</title>
<path fill="none" stroke="black" d="M515.072,-290.666C550.596,-279.614 599.888,-264.278 637.741,-252.502"/>
<polygon fill="black" stroke="black" points="639.088,-255.748 647.597,-249.435 637.009,-249.064 639.088,-255.748"/>
</g>
<!-- SceneLoaderBehaviour -->
<g id="node12" class="node"><title>SceneLoaderBehaviour</title>
<ellipse fill="none" stroke="black" cx="199.997" cy="-234" rx="94.7833" ry="18"/>
<text text-anchor="middle" x="199.997" y="-230.3" font-family="Times New Roman,serif" font-size="14.00">SceneLoaderBehaviour</text>
</g>
<!-- GameStateBehaviour&#45;&gt;SceneLoaderBehaviour -->
<g id="edge9" class="edge"><title>GameStateBehaviour&#45;&gt;SceneLoaderBehaviour</title>
<path fill="none" stroke="black" d="M417.131,-291.503C373.23,-280.079 310.153,-263.665 263.287,-251.47"/>
<polygon fill="black" stroke="black" points="264.104,-248.066 253.544,-248.934 262.341,-254.84 264.104,-248.066"/>
</g>
<!-- CameraManipulatorBehaviour -->
<g id="node15" class="node"><title>CameraManipulatorBehaviour</title>
<ellipse fill="none" stroke="black" cx="468.997" cy="-234" rx="118.079" ry="18"/>
<text text-anchor="middle" x="468.997" y="-230.3" font-family="Times New Roman,serif" font-size="14.00">CameraManipulatorBehaviour</text>
</g>
<!-- GameStateBehaviour&#45;&gt;CameraManipulatorBehaviour -->
<g id="edge8" class="edge"><title>GameStateBehaviour&#45;&gt;CameraManipulatorBehaviour</title>
<path fill="none" stroke="black" d="M468.997,-287.697C468.997,-279.983 468.997,-270.712 468.997,-262.112"/>
<polygon fill="black" stroke="black" points="472.497,-262.104 468.997,-252.104 465.497,-262.104 472.497,-262.104"/>
</g>
<!-- GameState -->
<g id="node18" class="node"><title>GameState</title>
<ellipse fill="none" stroke="black" cx="1015" cy="-234" rx="50.0912" ry="18"/>
<text text-anchor="middle" x="1015" y="-230.3" font-family="Times New Roman,serif" font-size="14.00">GameState</text>
</g>
<!-- GameStateBehaviour&#45;&gt;GameState -->
<g id="edge5" class="edge"><title>GameStateBehaviour&#45;&gt;GameState</title>
<path fill="none" stroke="black" d="M551.941,-300.334C649.391,-293.85 815.601,-279.652 955.997,-252 960.174,-251.177 964.483,-250.198 968.782,-249.13"/>
<polygon fill="black" stroke="black" points="969.949,-252.442 978.728,-246.511 968.166,-245.673 969.949,-252.442"/>
</g>
<!-- NotNull -->
<g id="node19" class="node"><title>NotNull</title>
<ellipse fill="#e5e5e5" stroke="black" cx="38.9965" cy="-162" rx="38.9931" ry="18"/>
<text text-anchor="middle" x="38.9965" y="-158.3" font-family="Times New Roman,serif" font-size="14.00">NotNull</text>
</g>
<!-- GameStateBehaviour&#45;&gt;NotNull -->
<g id="edge10" class="edge"><title>GameStateBehaviour&#45;&gt;NotNull</title>
<path fill="none" stroke="black" d="M384.728,-301.124C289.719,-295.366 142.425,-281.835 95.9965,-252 73.1798,-237.338 57.7087,-209.936 48.7073,-189.395"/>
<polygon fill="black" stroke="black" points="51.8575,-187.854 44.8043,-179.948 45.3879,-190.526 51.8575,-187.854"/>
</g>
<!-- FadeInBehaviour&#45;&gt;TimerCollection -->
<g id="edge13" class="edge"><title>FadeInBehaviour&#45;&gt;TimerCollection</title>
<path fill="none" stroke="black" d="M907.195,-217.811C930.006,-207.375 960.476,-193.434 984.978,-182.224"/>
<polygon fill="black" stroke="black" points="986.751,-185.262 994.388,-177.919 983.839,-178.897 986.751,-185.262"/>
</g>
<!-- FadeInBehaviour&#45;&gt;MonoBehaviour -->
<g id="edge11" class="edge"><title>FadeInBehaviour&#45;&gt;MonoBehaviour</title>
<path fill="none" stroke="black" stroke-width="2" d="M822.112,-221.244C812.154,-219.272 801.782,-217.411 791.997,-216 598.673,-188.122 547.176,-208.86 353.997,-180 347.88,-179.086 341.525,-177.974 335.202,-176.761"/>
<polygon fill="black" stroke="black" stroke-width="2" points="335.822,-173.316 325.329,-174.786 334.448,-180.18 335.822,-173.316"/>
</g>
<!-- IFadeIn -->
<g id="node17" class="node"><title>IFadeIn</title>
<ellipse fill="none" stroke="black" stroke-dasharray="5,2" cx="861.997" cy="-162" rx="38.9931" ry="18"/>
<text text-anchor="middle" x="861.997" y="-158.3" font-family="Times New Roman,serif" font-size="14.00">IFadeIn</text>
</g>
<!-- FadeInBehaviour&#45;&gt;IFadeIn -->
<g id="edge12" class="edge"><title>FadeInBehaviour&#45;&gt;IFadeIn</title>
<path fill="none" stroke="black" stroke-dasharray="5,2" d="M871.03,-215.697C869.708,-207.983 868.119,-198.712 866.644,-190.112"/>
<polygon fill="black" stroke="black" points="870.068,-189.369 864.929,-180.104 863.169,-190.552 870.068,-189.369"/>
</g>
<!-- IEventBus -->
<g id="node5" class="node"><title>IEventBus</title>
<ellipse fill="none" stroke="black" stroke-dasharray="5,2" cx="1163" cy="-162" rx="48.1917" ry="18"/>
<text text-anchor="middle" x="1163" y="-158.3" font-family="Times New Roman,serif" font-size="14.00">IEventBus</text>
</g>
<!-- IPlayerInput -->
<g id="node6" class="node"><title>IPlayerInput</title>
<ellipse fill="none" stroke="black" stroke-dasharray="5,2" cx="1176" cy="-234" rx="55.4913" ry="18"/>
<text text-anchor="middle" x="1176" y="-230.3" font-family="Times New Roman,serif" font-size="14.00">IPlayerInput</text>
</g>
<!-- UiKeyboardListenerBehaviour -->
<g id="node7" class="node"><title>UiKeyboardListenerBehaviour</title>
<ellipse fill="none" stroke="black" cx="468.997" cy="-378" rx="120.479" ry="18"/>
<text text-anchor="middle" x="468.997" y="-374.3" font-family="Times New Roman,serif" font-size="14.00">UiKeyboardListenerBehaviour</text>
</g>
<!-- UiKeyboardListenerBehaviour&#45;&gt;GameStateBehaviour -->
<g id="edge16" class="edge"><title>UiKeyboardListenerBehaviour&#45;&gt;GameStateBehaviour</title>
<path fill="none" stroke="black" d="M468.997,-359.697C468.997,-351.983 468.997,-342.712 468.997,-334.112"/>
<polygon fill="black" stroke="black" points="472.497,-334.104 468.997,-324.104 465.497,-334.104 472.497,-334.104"/>
</g>
<!-- UiKeyboardListenerBehaviour&#45;&gt;MonoBehaviour -->
<g id="edge14" class="edge"><title>UiKeyboardListenerBehaviour&#45;&gt;MonoBehaviour</title>
<path fill="none" stroke="black" stroke-width="2" d="M354.279,-372.48C267.753,-362.313 154.334,-333.077 95.9965,-252 63.5754,-206.942 141.125,-183.503 204.385,-172.222"/>
<polygon fill="black" stroke="black" stroke-width="2" points="205.127,-175.646 214.396,-170.514 203.95,-168.746 205.127,-175.646"/>
</g>
<!-- UiKeyboardListenerBehaviour&#45;&gt;NotNull -->
<g id="edge17" class="edge"><title>UiKeyboardListenerBehaviour&#45;&gt;NotNull</title>
<path fill="none" stroke="black" d="M366.679,-368.441C281.699,-359.999 168.431,-345.26 127.997,-324 89.038,-303.515 80.8773,-290.748 59.9965,-252 49.6086,-232.724 44.3183,-208.383 41.6481,-190.031"/>
<polygon fill="black" stroke="black" points="45.1054,-189.474 40.36,-180.001 38.1624,-190.366 45.1054,-189.474"/>
</g>
<!-- UiKeyboardListener -->
<g id="node21" class="node"><title>UiKeyboardListener</title>
<ellipse fill="none" stroke="black" cx="1022" cy="-306" rx="83.6854" ry="18"/>
<text text-anchor="middle" x="1022" y="-302.3" font-family="Times New Roman,serif" font-size="14.00">UiKeyboardListener</text>
</g>
<!-- UiKeyboardListenerBehaviour&#45;&gt;UiKeyboardListener -->
<g id="edge15" class="edge"><title>UiKeyboardListenerBehaviour&#45;&gt;UiKeyboardListener</title>
<path fill="none" stroke="black" d="M557.539,-365.792C663.549,-352.373 839.553,-330.094 941.746,-317.158"/>
<polygon fill="black" stroke="black" points="942.223,-320.626 951.704,-315.898 941.343,-313.681 942.223,-320.626"/>
</g>
<!-- PlayerInput -->
<g id="node23" class="node"><title>PlayerInput</title>
<ellipse fill="none" stroke="black" cx="1176" cy="-306" rx="51.9908" ry="18"/>
<text text-anchor="middle" x="1176" y="-302.3" font-family="Times New Roman,serif" font-size="14.00">PlayerInput</text>
</g>
<!-- UiKeyboardListenerBehaviour&#45;&gt;PlayerInput -->
<g id="edge18" class="edge"><title>UiKeyboardListenerBehaviour&#45;&gt;PlayerInput</title>
<path fill="none" stroke="black" d="M586.56,-374.051C716.691,-369.237 932.218,-356.661 1115,-324 1119.44,-323.206 1124.02,-322.23 1128.59,-321.15"/>
<polygon fill="black" stroke="black" points="1129.67,-324.489 1138.51,-318.651 1127.96,-317.701 1129.67,-324.489"/>
</g>
<!-- Exception -->
<g id="node14" class="node"><title>Exception</title>
<ellipse fill="none" stroke="black" cx="1162" cy="-18" rx="47.3916" ry="18"/>
<text text-anchor="middle" x="1162" y="-14.3" font-family="Times New Roman,serif" font-size="14.00">Exception</text>
</g>
<!-- TimerNotFoundException&#45;&gt;Exception -->
<g id="edge19" class="edge"><title>TimerNotFoundException&#45;&gt;Exception</title>
<path fill="none" stroke="black" stroke-width="2" d="M1162,-71.6966C1162,-63.9827 1162,-54.7125 1162,-46.1124"/>
<polygon fill="black" stroke="black" stroke-width="2" points="1165.5,-46.1043 1162,-36.1043 1158.5,-46.1044 1165.5,-46.1043"/>
</g>
<!-- ICanBeActivated -->
<g id="node10" class="node"><title>ICanBeActivated</title>
<ellipse fill="none" stroke="black" stroke-dasharray="5,2" cx="796.997" cy="-90" rx="72.5877" ry="18"/>
<text text-anchor="middle" x="796.997" y="-86.3" font-family="Times New Roman,serif" font-size="14.00">ICanBeActivated</text>
</g>
<!-- PauseMenuBehaviour&#45;&gt;MonoBehaviour -->
<g id="edge20" class="edge"><title>PauseMenuBehaviour&#45;&gt;MonoBehaviour</title>
<path fill="none" stroke="black" stroke-width="2" d="M629.458,-221.577C618.307,-219.669 606.822,-217.744 595.997,-216 488.641,-198.706 460.957,-199.589 353.997,-180 348.232,-178.944 342.245,-177.774 336.264,-176.555"/>
<polygon fill="black" stroke="black" stroke-width="2" points="336.751,-173.081 326.248,-174.47 335.324,-179.934 336.751,-173.081"/>
</g>
<!-- IPauseMenu -->
<g id="node22" class="node"><title>IPauseMenu</title>
<ellipse fill="none" stroke="black" stroke-dasharray="5,2" cx="748.997" cy="-162" rx="55.7903" ry="18"/>
<text text-anchor="middle" x="748.997" y="-158.3" font-family="Times New Roman,serif" font-size="14.00">IPauseMenu</text>
</g>
<!-- PauseMenuBehaviour&#45;&gt;IPauseMenu -->
<g id="edge21" class="edge"><title>PauseMenuBehaviour&#45;&gt;IPauseMenu</title>
<path fill="none" stroke="black" stroke-dasharray="5,2" d="M707.311,-216.055C713.999,-207.543 722.229,-197.068 729.604,-187.681"/>
<polygon fill="black" stroke="black" points="732.379,-189.815 735.805,-179.789 726.875,-185.49 732.379,-189.815"/>
</g>
<!-- SceneLoaderBehaviour&#45;&gt;ISceneLoader -->
<g id="edge23" class="edge"><title>SceneLoaderBehaviour&#45;&gt;ISceneLoader</title>
<path fill="none" stroke="black" stroke-dasharray="5,2" d="M247.164,-218.326C284.426,-206.733 336.321,-190.588 374.435,-178.73"/>
<polygon fill="black" stroke="black" points="375.794,-181.973 384.303,-175.66 373.714,-175.289 375.794,-181.973"/>
</g>
<!-- SceneLoaderBehaviour&#45;&gt;MonoBehaviour -->
<g id="edge22" class="edge"><title>SceneLoaderBehaviour&#45;&gt;MonoBehaviour</title>
<path fill="none" stroke="black" stroke-width="2" d="M218.394,-216.055C228.08,-207.134 240.106,-196.057 250.66,-186.336"/>
<polygon fill="black" stroke="black" stroke-width="2" points="253.046,-188.897 258.031,-179.547 248.304,-183.748 253.046,-188.897"/>
</g>
<!-- SceneLoaderBehaviour&#45;&gt;NotNull -->
<g id="edge24" class="edge"><title>SceneLoaderBehaviour&#45;&gt;NotNull</title>
<path fill="none" stroke="black" d="M163.865,-217.291C137.607,-205.874 102.191,-190.476 75.7829,-178.994"/>
<polygon fill="black" stroke="black" points="77.061,-175.733 66.4948,-174.956 74.2699,-182.153 77.061,-175.733"/>
</g>
<!-- Debug -->
<g id="node13" class="node"><title>Debug</title>
<ellipse fill="#e5e5e5" stroke="black" cx="931.997" cy="-18" rx="34.394" ry="18"/>
<text text-anchor="middle" x="931.997" y="-14.3" font-family="Times New Roman,serif" font-size="14.00">Debug</text>
</g>
<!-- CameraManipulatorBehaviour&#45;&gt;MonoBehaviour -->
<g id="edge25" class="edge"><title>CameraManipulatorBehaviour&#45;&gt;MonoBehaviour</title>
<path fill="none" stroke="black" stroke-width="2" d="M425.202,-217.116C395.195,-206.233 355.382,-191.792 324.429,-180.566"/>
<polygon fill="black" stroke="black" stroke-width="2" points="325.308,-177.162 314.714,-177.043 322.921,-183.743 325.308,-177.162"/>
</g>
<!-- ICameraManipulator -->
<g id="node24" class="node"><title>ICameraManipulator</title>
<ellipse fill="none" stroke="black" stroke-dasharray="5,2" cx="589.997" cy="-162" rx="85.2851" ry="18"/>
<text text-anchor="middle" x="589.997" y="-158.3" font-family="Times New Roman,serif" font-size="14.00">ICameraManipulator</text>
</g>
<!-- CameraManipulatorBehaviour&#45;&gt;ICameraManipulator -->
<g id="edge26" class="edge"><title>CameraManipulatorBehaviour&#45;&gt;ICameraManipulator</title>
<path fill="none" stroke="black" stroke-dasharray="5,2" d="M497.672,-216.411C514.216,-206.84 535.199,-194.701 552.979,-184.415"/>
<polygon fill="black" stroke="black" points="555.041,-187.266 561.944,-179.228 551.536,-181.206 555.041,-187.266"/>
</g>
<!-- Timer&#45;&gt;Debug -->
<g id="edge28" class="edge"><title>Timer&#45;&gt;Debug</title>
<path fill="none" stroke="black" d="M958.702,-72.411C954.621,-64.2493 949.607,-54.2203 945.029,-45.0653"/>
<polygon fill="black" stroke="black" points="948.077,-43.3352 940.475,-35.9562 941.816,-46.4658 948.077,-43.3352"/>
</g>
<!-- Timer&#45;&gt;Callback -->
<g id="edge27" class="edge"><title>Timer&#45;&gt;Callback</title>
<path fill="none" stroke="black" d="M980.312,-73.4647C987.94,-64.5657 997.678,-53.2051 1006.28,-43.1644"/>
<polygon fill="black" stroke="black" points="1009.03,-45.3376 1012.88,-35.4672 1003.72,-40.782 1009.03,-45.3376"/>
</g>
<!-- GameState&#45;&gt;TimerCollection -->
<g id="edge30" class="edge"><title>GameState&#45;&gt;TimerCollection</title>
<path fill="none" stroke="black" d="M1017.96,-215.697C1019.29,-207.983 1020.87,-198.712 1022.35,-190.112"/>
<polygon fill="black" stroke="black" points="1025.82,-190.552 1024.06,-180.104 1018.92,-189.369 1025.82,-190.552"/>
</g>
<!-- GameState&#45;&gt;ISceneLoader -->
<g id="edge33" class="edge"><title>GameState&#45;&gt;ISceneLoader</title>
<path fill="none" stroke="black" d="M979.076,-221.399C971.519,-219.313 963.549,-217.369 955.997,-216 754.215,-179.424 698.558,-211.974 495.997,-180 490.519,-179.135 484.84,-178.07 479.189,-176.897"/>
<polygon fill="black" stroke="black" points="479.612,-173.407 469.095,-174.691 478.117,-180.246 479.612,-173.407"/>
</g>
<!-- GameState&#45;&gt;IEventBus -->
<g id="edge29" class="edge"><title>GameState&#45;&gt;IEventBus</title>
<path fill="none" stroke="black" stroke-dasharray="5,2" d="M1044.24,-219.17C1067.39,-208.218 1099.92,-192.835 1125.07,-180.936"/>
<polygon fill="black" stroke="black" points="1126.78,-184.002 1134.32,-176.563 1123.78,-177.675 1126.78,-184.002"/>
</g>
<!-- GameState&#45;&gt;ICanBeActivated -->
<g id="edge32" class="edge"><title>GameState&#45;&gt;ICanBeActivated</title>
<path fill="none" stroke="black" d="M994.385,-217.458C980.935,-207.131 963.131,-193.109 947.997,-180 930.412,-164.768 929.218,-157.107 909.997,-144 889.814,-130.238 865.494,-118.318 844.593,-109.288"/>
<polygon fill="black" stroke="black" points="845.832,-106.012 835.259,-105.345 843.109,-112.46 845.832,-106.012"/>
</g>
<!-- GameState&#45;&gt;IFadeIn -->
<g id="edge31" class="edge"><title>GameState&#45;&gt;IFadeIn</title>
<path fill="none" stroke="black" d="M985.133,-219.337C960.194,-207.927 924.56,-191.624 898.037,-179.489"/>
<polygon fill="black" stroke="black" points="899.264,-176.201 888.714,-175.224 896.351,-182.567 899.264,-176.201"/>
</g>
<!-- GameState&#45;&gt;ICameraManipulator -->
<g id="edge34" class="edge"><title>GameState&#45;&gt;ICameraManipulator</title>
<path fill="none" stroke="black" d="M978.385,-221.536C971.021,-219.49 963.301,-217.527 955.997,-216 836.633,-191.05 804.473,-198.856 683.997,-180 676.648,-178.85 668.99,-177.581 661.355,-176.27"/>
<polygon fill="black" stroke="black" points="661.813,-172.797 651.361,-174.53 660.612,-179.694 661.813,-172.797"/>
</g>
<!-- UiKeyboardListener&#45;&gt;IEventBus -->
<g id="edge35" class="edge"><title>UiKeyboardListener&#45;&gt;IEventBus</title>
<path fill="none" stroke="black" d="M1038.72,-288.153C1063.77,-262.931 1111.1,-215.261 1139.57,-186.589"/>
<polygon fill="black" stroke="black" points="1142.16,-188.949 1146.73,-179.387 1137.2,-184.017 1142.16,-188.949"/>
</g>
<!-- UiKeyboardListener&#45;&gt;IPlayerInput -->
<g id="edge36" class="edge"><title>UiKeyboardListener&#45;&gt;IPlayerInput</title>
<path fill="none" stroke="black" d="M1056.17,-289.465C1079.75,-278.75 1111.17,-264.467 1135.92,-253.216"/>
<polygon fill="black" stroke="black" points="1137.4,-256.39 1145.05,-249.066 1134.5,-250.017 1137.4,-256.39"/>
</g>
<!-- IPauseMenu&#45;&gt;ICanBeActivated -->
<g id="edge37" class="edge"><title>IPauseMenu&#45;&gt;ICanBeActivated</title>
<path fill="none" stroke="black" stroke-dasharray="5,2" d="M760.616,-144.055C766.335,-135.715 773.346,-125.491 779.681,-116.252"/>
<polygon fill="black" stroke="black" points="782.715,-118.016 785.484,-107.789 776.942,-114.057 782.715,-118.016"/>
</g>
<!-- PlayerInput&#45;&gt;IPlayerInput -->
<g id="edge38" class="edge"><title>PlayerInput&#45;&gt;IPlayerInput</title>
<path fill="none" stroke="black" stroke-dasharray="5,2" d="M1176,-287.697C1176,-279.983 1176,-270.712 1176,-262.112"/>
<polygon fill="black" stroke="black" points="1179.5,-262.104 1176,-252.104 1172.5,-262.104 1179.5,-262.104"/>
</g>
</g>
</svg>
