<?xml version="1.0" encoding="UTF-8" standalone="no"?>
<!DOCTYPE svg PUBLIC "-//W3C//DTD SVG 1.1//EN"
 "http://www.w3.org/Graphics/SVG/1.1/DTD/svg11.dtd">
<!-- Generated by graphviz version 2.38.0 (20140413.2041)
 -->
<!-- Title: %3 Pages: 1 -->
<svg width="1239pt" height="404pt"
 viewBox="0.00 0.00 1238.98 404.00" xmlns="http://www.w3.org/2000/svg" xmlns:xlink="http://www.w3.org/1999/xlink">
<g id="graph0" class="graph" transform="scale(1 1) rotate(0) translate(4 400)">
<title>%3</title>
<polygon fill="white" stroke="none" points="-4,4 -4,-400 1234.98,-400 1234.98,4 -4,4"/>
<!-- UiKeyboardListenerBehaviour -->
<g id="node1" class="node"><title>UiKeyboardListenerBehaviour</title>
<ellipse fill="none" stroke="black" cx="798.591" cy="-378" rx="120.479" ry="18"/>
<text text-anchor="middle" x="798.591" y="-374.3" font-family="Times New Roman,serif" font-size="14.00">UiKeyboardListenerBehaviour</text>
</g>
<!-- UiKeyboardListener -->
<g id="node5" class="node"><title>UiKeyboardListener</title>
<ellipse fill="none" stroke="black" cx="152.591" cy="-306" rx="83.6854" ry="18"/>
<text text-anchor="middle" x="152.591" y="-302.3" font-family="Times New Roman,serif" font-size="14.00">UiKeyboardListener</text>
</g>
<!-- UiKeyboardListenerBehaviour&#45;&gt;UiKeyboardListener -->
<g id="edge2" class="edge"><title>UiKeyboardListenerBehaviour&#45;&gt;UiKeyboardListener</title>
<path fill="none" stroke="black" d="M704.311,-366.784C578.068,-353.104 356.087,-329.051 235.768,-316.013"/>
<polygon fill="black" stroke="black" points="235.831,-312.499 225.512,-314.902 235.077,-319.459 235.831,-312.499"/>
</g>
<!-- MonoBehaviour -->
<g id="node10" class="node"><title>MonoBehaviour</title>
<ellipse fill="none" stroke="black" cx="900.591" cy="-90" rx="69.5877" ry="18"/>
<text text-anchor="middle" x="900.591" y="-86.3" font-family="Times New Roman,serif" font-size="14.00">MonoBehaviour</text>
</g>
<!-- UiKeyboardListenerBehaviour&#45;&gt;MonoBehaviour -->
<g id="edge1" class="edge"><title>UiKeyboardListenerBehaviour&#45;&gt;MonoBehaviour</title>
<path fill="none" stroke="black" stroke-width="2" d="M880.273,-364.786C991.98,-346.223 1183.3,-307.143 1224.59,-252 1239.35,-232.282 1223.89,-155.339 1212.59,-144 1195.89,-127.251 1060.52,-109.056 973.657,-98.9376"/>
<polygon fill="black" stroke="black" stroke-width="2" points="973.914,-95.4441 963.579,-97.7743 973.111,-102.398 973.914,-95.4441"/>
</g>
<!-- GameStateBehaviour -->
<g id="node16" class="node"><title>GameStateBehaviour</title>
<ellipse fill="none" stroke="black" cx="798.591" cy="-306" rx="87.1846" ry="18"/>
<text text-anchor="middle" x="798.591" y="-302.3" font-family="Times New Roman,serif" font-size="14.00">GameStateBehaviour</text>
</g>
<!-- UiKeyboardListenerBehaviour&#45;&gt;GameStateBehaviour -->
<g id="edge3" class="edge"><title>UiKeyboardListenerBehaviour&#45;&gt;GameStateBehaviour</title>
<path fill="none" stroke="black" d="M798.591,-359.697C798.591,-351.983 798.591,-342.712 798.591,-334.112"/>
<polygon fill="black" stroke="black" points="802.091,-334.104 798.591,-324.104 795.091,-334.104 802.091,-334.104"/>
</g>
<!-- NotNull -->
<g id="node23" class="node"><title>NotNull</title>
<ellipse fill="#e5e5e5" stroke="black" cx="988.591" cy="-162" rx="38.9931" ry="18"/>
<text text-anchor="middle" x="988.591" y="-158.3" font-family="Times New Roman,serif" font-size="14.00">NotNull</text>
</g>
<!-- UiKeyboardListenerBehaviour&#45;&gt;NotNull -->
<g id="edge4" class="edge"><title>UiKeyboardListenerBehaviour&#45;&gt;NotNull</title>
<path fill="none" stroke="black" d="M834.733,-360.814C873.966,-341.156 934.971,-304.05 964.591,-252 975.508,-232.815 981.628,-208.468 984.951,-190.09"/>
<polygon fill="black" stroke="black" points="988.434,-190.478 986.599,-180.043 981.526,-189.344 988.434,-190.478"/>
</g>
<!-- PlayerInput -->
<g id="node25" class="node"><title>PlayerInput</title>
<ellipse fill="none" stroke="black" cx="474.591" cy="-306" rx="51.9908" ry="18"/>
<text text-anchor="middle" x="474.591" y="-302.3" font-family="Times New Roman,serif" font-size="14.00">PlayerInput</text>
</g>
<!-- UiKeyboardListenerBehaviour&#45;&gt;PlayerInput -->
<g id="edge5" class="edge"><title>UiKeyboardListenerBehaviour&#45;&gt;PlayerInput</title>
<path fill="none" stroke="black" d="M733.024,-362.834C672.62,-349.784 584.093,-330.658 527.918,-318.521"/>
<polygon fill="black" stroke="black" points="528.333,-315.03 517.819,-316.34 526.855,-321.872 528.333,-315.03"/>
</g>
<!-- GameState -->
<g id="node2" class="node"><title>GameState</title>
<ellipse fill="none" stroke="black" cx="275.591" cy="-234" rx="50.0912" ry="18"/>
<text text-anchor="middle" x="275.591" y="-230.3" font-family="Times New Roman,serif" font-size="14.00">GameState</text>
</g>
<!-- ICanBeActivated -->
<g id="node4" class="node"><title>ICanBeActivated</title>
<ellipse fill="none" stroke="black" stroke-dasharray="5,2" cx="596.591" cy="-90" rx="72.5877" ry="18"/>
<text text-anchor="middle" x="596.591" y="-86.3" font-family="Times New Roman,serif" font-size="14.00">ICanBeActivated</text>
</g>
<!-- GameState&#45;&gt;ICanBeActivated -->
<g id="edge9" class="edge"><title>GameState&#45;&gt;ICanBeActivated</title>
<path fill="none" stroke="black" d="M296.202,-217.458C309.652,-207.131 327.456,-193.109 342.591,-180 360.175,-164.768 360.168,-155.143 380.591,-144 423.985,-120.322 477.999,-107.071 521.157,-99.7404"/>
<polygon fill="black" stroke="black" points="521.727,-103.194 531.035,-98.1329 520.603,-96.2847 521.727,-103.194"/>
</g>
<!-- IEventBus -->
<g id="node8" class="node"><title>IEventBus</title>
<ellipse fill="none" stroke="black" stroke-dasharray="5,2" cx="92.5905" cy="-162" rx="48.1917" ry="18"/>
<text text-anchor="middle" x="92.5905" y="-158.3" font-family="Times New Roman,serif" font-size="14.00">IEventBus</text>
</g>
<!-- GameState&#45;&gt;IEventBus -->
<g id="edge6" class="edge"><title>GameState&#45;&gt;IEventBus</title>
<path fill="none" stroke="black" stroke-dasharray="5,2" d="M242.451,-220.324C212.207,-208.755 167.365,-191.602 134.616,-179.075"/>
<polygon fill="black" stroke="black" points="135.46,-175.651 124.87,-175.347 132.959,-182.189 135.46,-175.651"/>
</g>
<!-- ISceneLoader -->
<g id="node12" class="node"><title>ISceneLoader</title>
<ellipse fill="none" stroke="black" stroke-dasharray="5,2" cx="735.591" cy="-162" rx="61.99" ry="18"/>
<text text-anchor="middle" x="735.591" y="-158.3" font-family="Times New Roman,serif" font-size="14.00">ISceneLoader</text>
</g>
<!-- GameState&#45;&gt;ISceneLoader -->
<g id="edge10" class="edge"><title>GameState&#45;&gt;ISceneLoader</title>
<path fill="none" stroke="black" d="M311.861,-221.496C319.321,-219.428 327.166,-217.467 334.591,-216 478.028,-187.656 517.431,-204.409 661.591,-180 667.732,-178.96 674.127,-177.725 680.473,-176.402"/>
<polygon fill="black" stroke="black" points="681.325,-179.799 690.361,-174.267 679.848,-172.957 681.325,-179.799"/>
</g>
<!-- TimerCollection -->
<g id="node19" class="node"><title>TimerCollection</title>
<ellipse fill="none" stroke="black" cx="263.591" cy="-162" rx="69.5877" ry="18"/>
<text text-anchor="middle" x="263.591" y="-158.3" font-family="Times New Roman,serif" font-size="14.00">TimerCollection</text>
</g>
<!-- GameState&#45;&gt;TimerCollection -->
<g id="edge7" class="edge"><title>GameState&#45;&gt;TimerCollection</title>
<path fill="none" stroke="black" d="M272.624,-215.697C271.302,-207.983 269.713,-198.712 268.238,-190.112"/>
<polygon fill="black" stroke="black" points="271.662,-189.369 266.523,-180.104 264.763,-190.552 271.662,-189.369"/>
</g>
<!-- IFadeIn -->
<g id="node26" class="node"><title>IFadeIn</title>
<ellipse fill="none" stroke="black" stroke-dasharray="5,2" cx="428.591" cy="-162" rx="38.9931" ry="18"/>
<text text-anchor="middle" x="428.591" y="-158.3" font-family="Times New Roman,serif" font-size="14.00">IFadeIn</text>
</g>
<!-- GameState&#45;&gt;IFadeIn -->
<g id="edge8" class="edge"><title>GameState&#45;&gt;IFadeIn</title>
<path fill="none" stroke="black" d="M305.454,-219.337C330.393,-207.927 366.027,-191.624 392.55,-179.489"/>
<polygon fill="black" stroke="black" points="394.236,-182.567 401.873,-175.224 391.323,-176.201 394.236,-182.567"/>
</g>
<!-- IBarDisplay -->
<g id="node3" class="node"><title>IBarDisplay</title>
<ellipse fill="none" stroke="black" stroke-dasharray="5,2" cx="1143.59" cy="-90" rx="53.8905" ry="18"/>
<text text-anchor="middle" x="1143.59" y="-86.3" font-family="Times New Roman,serif" font-size="14.00">IBarDisplay</text>
</g>
<!-- IFlipX -->
<g id="node24" class="node"><title>IFlipX</title>
<ellipse fill="none" stroke="black" stroke-dasharray="5,2" cx="1143.59" cy="-18" rx="34.394" ry="18"/>
<text text-anchor="middle" x="1143.59" y="-14.3" font-family="Times New Roman,serif" font-size="14.00">IFlipX</text>
</g>
<!-- IBarDisplay&#45;&gt;IFlipX -->
<g id="edge11" class="edge"><title>IBarDisplay&#45;&gt;IFlipX</title>
<path fill="none" stroke="black" stroke-dasharray="5,2" d="M1143.59,-71.6966C1143.59,-63.9827 1143.59,-54.7125 1143.59,-46.1124"/>
<polygon fill="black" stroke="black" points="1147.09,-46.1043 1143.59,-36.1043 1140.09,-46.1044 1147.09,-46.1043"/>
</g>
<!-- UiKeyboardListener&#45;&gt;IEventBus -->
<g id="edge12" class="edge"><title>UiKeyboardListener&#45;&gt;IEventBus</title>
<path fill="none" stroke="black" d="M123.498,-289.057C110.239,-280.08 95.8962,-267.535 88.5905,-252 79.4696,-232.604 81.3952,-208.129 85.0807,-189.756"/>
<polygon fill="black" stroke="black" points="88.4969,-190.517 87.3167,-179.988 81.6734,-188.955 88.4969,-190.517"/>
</g>
<!-- IPlayerInput -->
<g id="node9" class="node"><title>IPlayerInput</title>
<ellipse fill="none" stroke="black" stroke-dasharray="5,2" cx="152.591" cy="-234" rx="55.4913" ry="18"/>
<text text-anchor="middle" x="152.591" y="-230.3" font-family="Times New Roman,serif" font-size="14.00">IPlayerInput</text>
</g>
<!-- UiKeyboardListener&#45;&gt;IPlayerInput -->
<g id="edge13" class="edge"><title>UiKeyboardListener&#45;&gt;IPlayerInput</title>
<path fill="none" stroke="black" d="M152.591,-287.697C152.591,-279.983 152.591,-270.712 152.591,-262.112"/>
<polygon fill="black" stroke="black" points="156.091,-262.104 152.591,-252.104 149.091,-262.104 156.091,-262.104"/>
</g>
<!-- Exception -->
<g id="node6" class="node"><title>Exception</title>
<ellipse fill="none" stroke="black" cx="106.591" cy="-18" rx="47.3916" ry="18"/>
<text text-anchor="middle" x="106.591" y="-14.3" font-family="Times New Roman,serif" font-size="14.00">Exception</text>
</g>
<!-- IPauseMenu -->
<g id="node7" class="node"><title>IPauseMenu</title>
<ellipse fill="none" stroke="black" stroke-dasharray="5,2" cx="596.591" cy="-162" rx="55.7903" ry="18"/>
<text text-anchor="middle" x="596.591" y="-158.3" font-family="Times New Roman,serif" font-size="14.00">IPauseMenu</text>
</g>
<!-- IPauseMenu&#45;&gt;ICanBeActivated -->
<g id="edge14" class="edge"><title>IPauseMenu&#45;&gt;ICanBeActivated</title>
<path fill="none" stroke="black" stroke-dasharray="5,2" d="M596.591,-143.697C596.591,-135.983 596.591,-126.712 596.591,-118.112"/>
<polygon fill="black" stroke="black" points="600.091,-118.104 596.591,-108.104 593.091,-118.104 600.091,-118.104"/>
</g>
<!-- Debug -->
<g id="node11" class="node"><title>Debug</title>
<ellipse fill="#e5e5e5" stroke="black" cx="228.591" cy="-18" rx="34.394" ry="18"/>
<text text-anchor="middle" x="228.591" y="-14.3" font-family="Times New Roman,serif" font-size="14.00">Debug</text>
</g>
<!-- ChargeEffectBehaviour -->
<g id="node13" class="node"><title>ChargeEffectBehaviour</title>
<ellipse fill="none" stroke="black" cx="1120.59" cy="-234" rx="94.7833" ry="18"/>
<text text-anchor="middle" x="1120.59" y="-230.3" font-family="Times New Roman,serif" font-size="14.00">ChargeEffectBehaviour</text>
</g>
<!-- ChargeEffectBehaviour&#45;&gt;ICanBeActivated -->
<g id="edge16" class="edge"><title>ChargeEffectBehaviour&#45;&gt;ICanBeActivated</title>
<path fill="none" stroke="black" stroke-dasharray="5,2" d="M1105.76,-216.081C1084.04,-191.5 1045.22,-148.353 1036.59,-144 1005.05,-128.094 792.327,-107.734 674.605,-97.4959"/>
<polygon fill="black" stroke="black" points="674.825,-94.0019 664.56,-96.6269 674.221,-100.976 674.825,-94.0019"/>
</g>
<!-- BarBehaviour -->
<g id="node17" class="node"><title>BarBehaviour</title>
<ellipse fill="none" stroke="black" cx="1143.59" cy="-162" rx="59.5901" ry="18"/>
<text text-anchor="middle" x="1143.59" y="-158.3" font-family="Times New Roman,serif" font-size="14.00">BarBehaviour</text>
</g>
<!-- ChargeEffectBehaviour&#45;&gt;BarBehaviour -->
<g id="edge15" class="edge"><title>ChargeEffectBehaviour&#45;&gt;BarBehaviour</title>
<path fill="none" stroke="black" stroke-width="2" d="M1126.28,-215.697C1128.84,-207.898 1131.92,-198.509 1134.78,-189.829"/>
<polygon fill="black" stroke="black" stroke-width="2" points="1138.17,-190.697 1137.97,-180.104 1131.52,-188.512 1138.17,-190.697"/>
</g>
<!-- ChargeEffectBehaviour&#45;&gt;NotNull -->
<g id="edge17" class="edge"><title>ChargeEffectBehaviour&#45;&gt;NotNull</title>
<path fill="none" stroke="black" d="M1090.31,-216.941C1070.02,-206.181 1043.29,-192.005 1022.32,-180.886"/>
<polygon fill="black" stroke="black" points="1023.9,-177.764 1013.43,-176.171 1020.62,-183.948 1023.9,-177.764"/>
</g>
<!-- TimerNotFoundException -->
<g id="node14" class="node"><title>TimerNotFoundException</title>
<ellipse fill="none" stroke="black" cx="106.591" cy="-90" rx="106.681" ry="18"/>
<text text-anchor="middle" x="106.591" y="-86.3" font-family="Times New Roman,serif" font-size="14.00">TimerNotFoundException</text>
</g>
<!-- TimerNotFoundException&#45;&gt;Exception -->
<g id="edge18" class="edge"><title>TimerNotFoundException&#45;&gt;Exception</title>
<path fill="none" stroke="black" stroke-width="2" d="M106.591,-71.6966C106.591,-63.9827 106.591,-54.7125 106.591,-46.1124"/>
<polygon fill="black" stroke="black" stroke-width="2" points="110.091,-46.1043 106.591,-36.1043 103.091,-46.1044 110.091,-46.1043"/>
</g>
<!-- Timer -->
<g id="node15" class="node"><title>Timer</title>
<ellipse fill="none" stroke="black" cx="263.591" cy="-90" rx="32.4942" ry="18"/>
<text text-anchor="middle" x="263.591" y="-86.3" font-family="Times New Roman,serif" font-size="14.00">Timer</text>
</g>
<!-- Timer&#45;&gt;Debug -->
<g id="edge20" class="edge"><title>Timer&#45;&gt;Debug</title>
<path fill="none" stroke="black" d="M255.296,-72.411C251.215,-64.2493 246.201,-54.2203 241.623,-45.0653"/>
<polygon fill="black" stroke="black" points="244.671,-43.3352 237.069,-35.9562 238.41,-46.4658 244.671,-43.3352"/>
</g>
<!-- Callback -->
<g id="node18" class="node"><title>Callback</title>
<ellipse fill="#e5e5e5" stroke="black" cx="323.591" cy="-18" rx="42.4939" ry="18"/>
<text text-anchor="middle" x="323.591" y="-14.3" font-family="Times New Roman,serif" font-size="14.00">Callback</text>
</g>
<!-- Timer&#45;&gt;Callback -->
<g id="edge19" class="edge"><title>Timer&#45;&gt;Callback</title>
<path fill="none" stroke="black" d="M276.906,-73.4647C284.534,-64.5657 294.272,-53.2051 302.878,-43.1644"/>
<polygon fill="black" stroke="black" points="305.625,-45.3376 309.476,-35.4672 300.31,-40.782 305.625,-45.3376"/>
</g>
<!-- GameStateBehaviour&#45;&gt;GameState -->
<g id="edge22" class="edge"><title>GameStateBehaviour&#45;&gt;GameState</title>
<path fill="none" stroke="black" d="M716.648,-299.791C623.431,-292.907 466.973,-278.44 334.591,-252 330.416,-251.166 326.108,-250.179 321.809,-249.106"/>
<polygon fill="black" stroke="black" points="322.428,-245.649 311.865,-246.48 320.64,-252.417 322.428,-245.649"/>
</g>
<!-- GameStateBehaviour&#45;&gt;MonoBehaviour -->
<g id="edge21" class="edge"><title>GameStateBehaviour&#45;&gt;MonoBehaviour</title>
<path fill="none" stroke="black" stroke-width="2" d="M850.395,-291.384C870.294,-283.352 890.997,-270.921 902.591,-252 927.871,-210.743 918.05,-151.673 909.038,-117.739"/>
<polygon fill="black" stroke="black" stroke-width="2" points="912.392,-116.736 906.307,-108.063 905.655,-118.638 912.392,-116.736"/>
</g>
<!-- GameStateBehaviour&#45;&gt;ChargeEffectBehaviour -->
<g id="edge25" class="edge"><title>GameStateBehaviour&#45;&gt;ChargeEffectBehaviour</title>
<path fill="none" stroke="black" d="M856.158,-292.485C910.708,-280.627 992.73,-262.796 1050.94,-250.141"/>
<polygon fill="black" stroke="black" points="1051.77,-253.544 1060.79,-247.999 1050.28,-246.703 1051.77,-253.544"/>
</g>
<!-- FadeInBehaviour -->
<g id="node20" class="node"><title>FadeInBehaviour</title>
<ellipse fill="none" stroke="black" cx="416.591" cy="-234" rx="72.5877" ry="18"/>
<text text-anchor="middle" x="416.591" y="-230.3" font-family="Times New Roman,serif" font-size="14.00">FadeInBehaviour</text>
</g>
<!-- GameStateBehaviour&#45;&gt;FadeInBehaviour -->
<g id="edge23" class="edge"><title>GameStateBehaviour&#45;&gt;FadeInBehaviour</title>
<path fill="none" stroke="black" d="M733.237,-294.027C672.395,-283.675 579.23,-267.479 498.591,-252 492.5,-250.831 486.162,-249.579 479.829,-248.306"/>
<polygon fill="black" stroke="black" points="480.414,-244.853 469.917,-246.294 479.021,-251.713 480.414,-244.853"/>
</g>
<!-- SceneLoaderBehaviour -->
<g id="node21" class="node"><title>SceneLoaderBehaviour</title>
<ellipse fill="none" stroke="black" cx="798.591" cy="-234" rx="94.7833" ry="18"/>
<text text-anchor="middle" x="798.591" y="-230.3" font-family="Times New Roman,serif" font-size="14.00">SceneLoaderBehaviour</text>
</g>
<!-- GameStateBehaviour&#45;&gt;SceneLoaderBehaviour -->
<g id="edge26" class="edge"><title>GameStateBehaviour&#45;&gt;SceneLoaderBehaviour</title>
<path fill="none" stroke="black" d="M798.591,-287.697C798.591,-279.983 798.591,-270.712 798.591,-262.112"/>
<polygon fill="black" stroke="black" points="802.091,-262.104 798.591,-252.104 795.091,-262.104 802.091,-262.104"/>
</g>
<!-- PauseMenuBehaviour -->
<g id="node22" class="node"><title>PauseMenuBehaviour</title>
<ellipse fill="none" stroke="black" cx="596.591" cy="-234" rx="89.0842" ry="18"/>
<text text-anchor="middle" x="596.591" y="-230.3" font-family="Times New Roman,serif" font-size="14.00">PauseMenuBehaviour</text>
</g>
<!-- GameStateBehaviour&#45;&gt;PauseMenuBehaviour -->
<g id="edge24" class="edge"><title>GameStateBehaviour&#45;&gt;PauseMenuBehaviour</title>
<path fill="none" stroke="black" d="M755.752,-290.155C724.551,-279.343 682.118,-264.638 648.912,-253.131"/>
<polygon fill="black" stroke="black" points="649.963,-249.791 639.368,-249.824 647.671,-256.405 649.963,-249.791"/>
</g>
<!-- GameStateBehaviour&#45;&gt;NotNull -->
<g id="edge27" class="edge"><title>GameStateBehaviour&#45;&gt;NotNull</title>
<path fill="none" stroke="black" d="M855.399,-292.226C881.96,-284.088 912.699,-271.337 935.591,-252 955.453,-235.223 969.784,-209.01 978.497,-189.37"/>
<polygon fill="black" stroke="black" points="981.765,-190.629 982.432,-180.055 975.317,-187.905 981.765,-190.629"/>
</g>
<!-- BarBehaviour&#45;&gt;IBarDisplay -->
<g id="edge29" class="edge"><title>BarBehaviour&#45;&gt;IBarDisplay</title>
<path fill="none" stroke="black" stroke-dasharray="5,2" d="M1143.59,-143.697C1143.59,-135.983 1143.59,-126.712 1143.59,-118.112"/>
<polygon fill="black" stroke="black" points="1147.09,-118.104 1143.59,-108.104 1140.09,-118.104 1147.09,-118.104"/>
</g>
<!-- BarBehaviour&#45;&gt;MonoBehaviour -->
<g id="edge28" class="edge"><title>BarBehaviour&#45;&gt;MonoBehaviour</title>
<path fill="none" stroke="black" stroke-width="2" d="M1101.82,-148.967C1061.32,-137.301 999.669,-119.541 955.281,-106.754"/>
<polygon fill="black" stroke="black" stroke-width="2" points="956.1,-103.348 945.522,-103.943 954.163,-110.075 956.1,-103.348"/>
</g>
<!-- TimerCollection&#45;&gt;TimerNotFoundException -->
<g id="edge32" class="edge"><title>TimerCollection&#45;&gt;TimerNotFoundException</title>
<path fill="none" stroke="black" d="M230.295,-146.155C207.468,-135.977 176.905,-122.35 151.869,-111.188"/>
<polygon fill="black" stroke="black" points="153.131,-107.919 142.573,-107.043 150.281,-114.312 153.131,-107.919"/>
</g>
<!-- TimerCollection&#45;&gt;Timer -->
<g id="edge30" class="edge"><title>TimerCollection&#45;&gt;Timer</title>
<path fill="none" stroke="black" d="M263.591,-143.697C263.591,-135.983 263.591,-126.712 263.591,-118.112"/>
<polygon fill="black" stroke="black" points="267.091,-118.104 263.591,-108.104 260.091,-118.104 267.091,-118.104"/>
</g>
<!-- TimerCollection&#45;&gt;Callback -->
<g id="edge31" class="edge"><title>TimerCollection&#45;&gt;Callback</title>
<path fill="none" stroke="black" d="M279.799,-144.166C288.393,-134.344 298.422,-121.297 304.591,-108 313.706,-88.3513 318.507,-64.2234 321.001,-46.0487"/>
<polygon fill="black" stroke="black" points="324.476,-46.4659 322.218,-36.1145 317.528,-45.6149 324.476,-46.4659"/>
</g>
<!-- FadeInBehaviour&#45;&gt;MonoBehaviour -->
<g id="edge33" class="edge"><title>FadeInBehaviour&#45;&gt;MonoBehaviour</title>
<path fill="none" stroke="black" stroke-width="2" d="M435.447,-216.468C462.314,-193.262 510.668,-152.862 531.591,-144 583.072,-122.195 733.138,-105.681 825.271,-97.2489"/>
<polygon fill="black" stroke="black" stroke-width="2" points="825.736,-100.721 835.38,-96.3348 825.105,-93.7497 825.736,-100.721"/>
</g>
<!-- FadeInBehaviour&#45;&gt;TimerCollection -->
<g id="edge35" class="edge"><title>FadeInBehaviour&#45;&gt;TimerCollection</title>
<path fill="none" stroke="black" d="M383.392,-217.811C360.581,-207.375 330.111,-193.434 305.609,-182.224"/>
<polygon fill="black" stroke="black" points="306.748,-178.897 296.199,-177.919 303.836,-185.262 306.748,-178.897"/>
</g>
<!-- FadeInBehaviour&#45;&gt;IFadeIn -->
<g id="edge34" class="edge"><title>FadeInBehaviour&#45;&gt;IFadeIn</title>
<path fill="none" stroke="black" stroke-dasharray="5,2" d="M419.557,-215.697C420.879,-207.983 422.468,-198.712 423.943,-190.112"/>
<polygon fill="black" stroke="black" points="427.418,-190.552 425.658,-180.104 420.519,-189.369 427.418,-190.552"/>
</g>
<!-- SceneLoaderBehaviour&#45;&gt;MonoBehaviour -->
<g id="edge36" class="edge"><title>SceneLoaderBehaviour&#45;&gt;MonoBehaviour</title>
<path fill="none" stroke="black" stroke-width="2" d="M817.657,-215.928C828.091,-206.032 840.841,-192.99 850.591,-180 865.38,-160.295 878.851,-135.747 888.075,-117.425"/>
<polygon fill="black" stroke="black" stroke-width="2" points="891.333,-118.731 892.619,-108.215 885.056,-115.634 891.333,-118.731"/>
</g>
<!-- SceneLoaderBehaviour&#45;&gt;ISceneLoader -->
<g id="edge37" class="edge"><title>SceneLoaderBehaviour&#45;&gt;ISceneLoader</title>
<path fill="none" stroke="black" stroke-dasharray="5,2" d="M783.34,-216.055C775.602,-207.457 766.061,-196.857 757.548,-187.397"/>
<polygon fill="black" stroke="black" points="759.992,-184.881 750.701,-179.789 754.789,-189.563 759.992,-184.881"/>
</g>
<!-- SceneLoaderBehaviour&#45;&gt;NotNull -->
<g id="edge38" class="edge"><title>SceneLoaderBehaviour&#45;&gt;NotNull</title>
<path fill="none" stroke="black" d="M840.287,-217.638C872.857,-205.639 917.785,-189.086 949.634,-177.352"/>
<polygon fill="black" stroke="black" points="950.897,-180.617 959.07,-173.876 948.477,-174.049 950.897,-180.617"/>
</g>
<!-- PauseMenuBehaviour&#45;&gt;IPauseMenu -->
<g id="edge40" class="edge"><title>PauseMenuBehaviour&#45;&gt;IPauseMenu</title>
<path fill="none" stroke="black" stroke-dasharray="5,2" d="M596.591,-215.697C596.591,-207.983 596.591,-198.712 596.591,-190.112"/>
<polygon fill="black" stroke="black" points="600.091,-190.104 596.591,-180.104 593.091,-190.104 600.091,-190.104"/>
</g>
<!-- PauseMenuBehaviour&#45;&gt;MonoBehaviour -->
<g id="edge39" class="edge"><title>PauseMenuBehaviour&#45;&gt;MonoBehaviour</title>
<path fill="none" stroke="black" stroke-width="2" d="M658.466,-221.001C710.838,-210.188 781.301,-193.903 806.591,-180 822.426,-171.294 855.462,-138.403 877.838,-115.15"/>
<polygon fill="black" stroke="black" stroke-width="2" points="880.597,-117.329 884.978,-107.682 875.538,-112.491 880.597,-117.329"/>
</g>
<!-- PlayerInput&#45;&gt;IPlayerInput -->
<g id="edge41" class="edge"><title>PlayerInput&#45;&gt;IPlayerInput</title>
<path fill="none" stroke="black" stroke-dasharray="5,2" d="M429.676,-296.579C378.068,-286.717 290.924,-269.492 216.591,-252 212.256,-250.98 207.768,-249.879 203.272,-248.746"/>
<polygon fill="black" stroke="black" points="204.03,-245.327 193.474,-246.231 202.289,-252.107 204.03,-245.327"/>
</g>
</g>
</svg>
