<?xml version="1.0" encoding="UTF-8" standalone="no"?>
<!DOCTYPE svg PUBLIC "-//W3C//DTD SVG 1.1//EN"
 "http://www.w3.org/Graphics/SVG/1.1/DTD/svg11.dtd">
<!-- Generated by graphviz version 2.38.0 (20140413.2041)
 -->
<!-- Title: %3 Pages: 1 -->
<svg width="954pt" height="404pt"
 viewBox="0.00 0.00 954.09 404.00" xmlns="http://www.w3.org/2000/svg" xmlns:xlink="http://www.w3.org/1999/xlink">
<g id="graph0" class="graph" transform="scale(1 1) rotate(0) translate(4 400)">
<title>%3</title>
<polygon fill="white" stroke="none" points="-4,4 -4,-400 950.092,-400 950.092,4 -4,4"/>
<!-- UiKeyboardListenerBehaviour -->
<g id="node1" class="node"><title>UiKeyboardListenerBehaviour</title>
<ellipse fill="none" stroke="black" cx="602.096" cy="-378" rx="120.479" ry="18"/>
<text text-anchor="middle" x="602.096" y="-374.3" font-family="Times New Roman,serif" font-size="14.00">UiKeyboardListenerBehaviour</text>
</g>
<!-- PlayerInput -->
<g id="node3" class="node"><title>PlayerInput</title>
<ellipse fill="none" stroke="black" cx="379.096" cy="-306" rx="51.9908" ry="18"/>
<text text-anchor="middle" x="379.096" y="-302.3" font-family="Times New Roman,serif" font-size="14.00">PlayerInput</text>
</g>
<!-- UiKeyboardListenerBehaviour&#45;&gt;PlayerInput -->
<g id="edge5" class="edge"><title>UiKeyboardListenerBehaviour&#45;&gt;PlayerInput</title>
<path fill="none" stroke="black" d="M552.881,-361.552C515.086,-349.688 463.232,-333.411 426.021,-321.73"/>
<polygon fill="black" stroke="black" points="427.006,-318.371 416.417,-318.715 424.909,-325.049 427.006,-318.371"/>
</g>
<!-- GameStateBehaviour -->
<g id="node11" class="node"><title>GameStateBehaviour</title>
<ellipse fill="none" stroke="black" cx="602.096" cy="-306" rx="87.1846" ry="18"/>
<text text-anchor="middle" x="602.096" y="-302.3" font-family="Times New Roman,serif" font-size="14.00">GameStateBehaviour</text>
</g>
<!-- UiKeyboardListenerBehaviour&#45;&gt;GameStateBehaviour -->
<g id="edge3" class="edge"><title>UiKeyboardListenerBehaviour&#45;&gt;GameStateBehaviour</title>
<path fill="none" stroke="black" d="M602.096,-359.697C602.096,-351.983 602.096,-342.712 602.096,-334.112"/>
<polygon fill="black" stroke="black" points="605.596,-334.104 602.096,-324.104 598.596,-334.104 605.596,-334.104"/>
</g>
<!-- NotNull -->
<g id="node15" class="node"><title>NotNull</title>
<ellipse fill="#e5e5e5" stroke="black" cx="907.096" cy="-162" rx="38.9931" ry="18"/>
<text text-anchor="middle" x="907.096" y="-158.3" font-family="Times New Roman,serif" font-size="14.00">NotNull</text>
</g>
<!-- UiKeyboardListenerBehaviour&#45;&gt;NotNull -->
<g id="edge4" class="edge"><title>UiKeyboardListenerBehaviour&#45;&gt;NotNull</title>
<path fill="none" stroke="black" d="M707.218,-369.164C752.188,-362.119 803.742,-348.864 845.096,-324 881.04,-302.389 891.437,-291.295 906.096,-252 913.465,-232.245 913.263,-208.263 911.467,-190.174"/>
<polygon fill="black" stroke="black" points="914.914,-189.527 910.233,-180.022 907.965,-190.371 914.914,-189.527"/>
</g>
<!-- MonoBehaviour -->
<g id="node18" class="node"><title>MonoBehaviour</title>
<ellipse fill="none" stroke="black" cx="777.096" cy="-162" rx="69.5877" ry="18"/>
<text text-anchor="middle" x="777.096" y="-158.3" font-family="Times New Roman,serif" font-size="14.00">MonoBehaviour</text>
</g>
<!-- UiKeyboardListenerBehaviour&#45;&gt;MonoBehaviour -->
<g id="edge1" class="edge"><title>UiKeyboardListenerBehaviour&#45;&gt;MonoBehaviour</title>
<path fill="none" stroke="black" stroke-width="2" d="M687.052,-365.153C754.257,-350.824 843.89,-319.564 888.096,-252 896.856,-238.611 896.631,-229.533 888.096,-216 876.691,-197.916 857.229,-185.871 837.757,-177.906"/>
<polygon fill="black" stroke="black" stroke-width="2" points="838.825,-174.568 828.233,-174.316 836.356,-181.119 838.825,-174.568"/>
</g>
<!-- UiKeyboardListener -->
<g id="node22" class="node"><title>UiKeyboardListener</title>
<ellipse fill="none" stroke="black" cx="100.096" cy="-306" rx="83.6854" ry="18"/>
<text text-anchor="middle" x="100.096" y="-302.3" font-family="Times New Roman,serif" font-size="14.00">UiKeyboardListener</text>
</g>
<!-- UiKeyboardListenerBehaviour&#45;&gt;UiKeyboardListener -->
<g id="edge2" class="edge"><title>UiKeyboardListenerBehaviour&#45;&gt;UiKeyboardListener</title>
<path fill="none" stroke="black" d="M517.506,-365.205C422.837,-352.004 270.685,-330.787 178.577,-317.944"/>
<polygon fill="black" stroke="black" points="178.866,-314.45 168.478,-316.535 177.899,-321.383 178.866,-314.45"/>
</g>
<!-- PauseMenuBehaviour -->
<g id="node2" class="node"><title>PauseMenuBehaviour</title>
<ellipse fill="none" stroke="black" cx="544.096" cy="-234" rx="89.0842" ry="18"/>
<text text-anchor="middle" x="544.096" y="-230.3" font-family="Times New Roman,serif" font-size="14.00">PauseMenuBehaviour</text>
</g>
<!-- PauseMenuBehaviour&#45;&gt;MonoBehaviour -->
<g id="edge6" class="edge"><title>PauseMenuBehaviour&#45;&gt;MonoBehaviour</title>
<path fill="none" stroke="black" stroke-width="2" d="M591.528,-218.75C629.798,-207.252 683.633,-191.079 723.467,-179.112"/>
<polygon fill="black" stroke="black" stroke-width="2" points="724.704,-182.394 733.274,-176.165 722.69,-175.691 724.704,-182.394"/>
</g>
<!-- IPauseMenu -->
<g id="node19" class="node"><title>IPauseMenu</title>
<ellipse fill="none" stroke="black" stroke-dasharray="5,2" cx="336.096" cy="-162" rx="55.7903" ry="18"/>
<text text-anchor="middle" x="336.096" y="-158.3" font-family="Times New Roman,serif" font-size="14.00">IPauseMenu</text>
</g>
<!-- PauseMenuBehaviour&#45;&gt;IPauseMenu -->
<g id="edge7" class="edge"><title>PauseMenuBehaviour&#45;&gt;IPauseMenu</title>
<path fill="none" stroke="black" stroke-dasharray="5,2" d="M500.238,-218.24C465.811,-206.654 417.988,-190.56 382.84,-178.731"/>
<polygon fill="black" stroke="black" points="383.878,-175.388 373.284,-175.515 381.645,-182.022 383.878,-175.388"/>
</g>
<!-- IPlayerInput -->
<g id="node14" class="node"><title>IPlayerInput</title>
<ellipse fill="none" stroke="black" stroke-dasharray="5,2" cx="100.096" cy="-234" rx="55.4913" ry="18"/>
<text text-anchor="middle" x="100.096" y="-230.3" font-family="Times New Roman,serif" font-size="14.00">IPlayerInput</text>
</g>
<!-- PlayerInput&#45;&gt;IPlayerInput -->
<g id="edge8" class="edge"><title>PlayerInput&#45;&gt;IPlayerInput</title>
<path fill="none" stroke="black" stroke-dasharray="5,2" d="M337.422,-294.961C294.067,-284.463 224.242,-267.4 164.096,-252 159.961,-250.941 155.68,-249.832 151.381,-248.71"/>
<polygon fill="black" stroke="black" points="151.942,-245.238 141.381,-246.083 150.163,-252.008 151.942,-245.238"/>
</g>
<!-- IEventBus -->
<g id="node4" class="node"><title>IEventBus</title>
<ellipse fill="none" stroke="black" stroke-dasharray="5,2" cx="48.0957" cy="-162" rx="48.1917" ry="18"/>
<text text-anchor="middle" x="48.0957" y="-158.3" font-family="Times New Roman,serif" font-size="14.00">IEventBus</text>
</g>
<!-- ISceneLoader -->
<g id="node5" class="node"><title>ISceneLoader</title>
<ellipse fill="none" stroke="black" stroke-dasharray="5,2" cx="628.096" cy="-162" rx="61.99" ry="18"/>
<text text-anchor="middle" x="628.096" y="-158.3" font-family="Times New Roman,serif" font-size="14.00">ISceneLoader</text>
</g>
<!-- SceneLoaderBehaviour -->
<g id="node6" class="node"><title>SceneLoaderBehaviour</title>
<ellipse fill="none" stroke="black" cx="784.096" cy="-234" rx="94.7833" ry="18"/>
<text text-anchor="middle" x="784.096" y="-230.3" font-family="Times New Roman,serif" font-size="14.00">SceneLoaderBehaviour</text>
</g>
<!-- SceneLoaderBehaviour&#45;&gt;ISceneLoader -->
<g id="edge10" class="edge"><title>SceneLoaderBehaviour&#45;&gt;ISceneLoader</title>
<path fill="none" stroke="black" stroke-dasharray="5,2" d="M748.697,-217.116C725.102,-206.529 694.005,-192.575 669.298,-181.488"/>
<polygon fill="black" stroke="black" points="670.727,-178.293 660.171,-177.393 667.862,-184.68 670.727,-178.293"/>
</g>
<!-- SceneLoaderBehaviour&#45;&gt;NotNull -->
<g id="edge11" class="edge"><title>SceneLoaderBehaviour&#45;&gt;NotNull</title>
<path fill="none" stroke="black" d="M812.624,-216.765C831.126,-206.235 855.28,-192.488 874.534,-181.531"/>
<polygon fill="black" stroke="black" points="876.311,-184.547 883.271,-176.559 872.848,-178.463 876.311,-184.547"/>
</g>
<!-- SceneLoaderBehaviour&#45;&gt;MonoBehaviour -->
<g id="edge9" class="edge"><title>SceneLoaderBehaviour&#45;&gt;MonoBehaviour</title>
<path fill="none" stroke="black" stroke-width="2" d="M782.365,-215.697C781.594,-207.983 780.667,-198.712 779.807,-190.112"/>
<polygon fill="black" stroke="black" stroke-width="2" points="783.284,-189.706 778.806,-180.104 776.319,-190.403 783.284,-189.706"/>
</g>
<!-- FadeInBehaviour -->
<g id="node7" class="node"><title>FadeInBehaviour</title>
<ellipse fill="none" stroke="black" cx="364.096" cy="-234" rx="72.5877" ry="18"/>
<text text-anchor="middle" x="364.096" y="-230.3" font-family="Times New Roman,serif" font-size="14.00">FadeInBehaviour</text>
</g>
<!-- TimerCollection -->
<g id="node9" class="node"><title>TimerCollection</title>
<ellipse fill="none" stroke="black" cx="479.096" cy="-162" rx="69.5877" ry="18"/>
<text text-anchor="middle" x="479.096" y="-158.3" font-family="Times New Roman,serif" font-size="14.00">TimerCollection</text>
</g>
<!-- FadeInBehaviour&#45;&gt;TimerCollection -->
<g id="edge14" class="edge"><title>FadeInBehaviour&#45;&gt;TimerCollection</title>
<path fill="none" stroke="black" d="M390.191,-217.116C406.218,-207.36 426.94,-194.747 444.346,-184.152"/>
<polygon fill="black" stroke="black" points="446.382,-187.01 453.104,-178.821 442.742,-181.031 446.382,-187.01"/>
</g>
<!-- IFadeIn -->
<g id="node13" class="node"><title>IFadeIn</title>
<ellipse fill="none" stroke="black" stroke-dasharray="5,2" cx="223.096" cy="-162" rx="38.9931" ry="18"/>
<text text-anchor="middle" x="223.096" y="-158.3" font-family="Times New Roman,serif" font-size="14.00">IFadeIn</text>
</g>
<!-- FadeInBehaviour&#45;&gt;IFadeIn -->
<g id="edge13" class="edge"><title>FadeInBehaviour&#45;&gt;IFadeIn</title>
<path fill="none" stroke="black" stroke-dasharray="5,2" d="M333.153,-217.638C310.923,-206.602 280.935,-191.715 257.876,-180.267"/>
<polygon fill="black" stroke="black" points="259.291,-177.062 248.778,-175.75 256.179,-183.332 259.291,-177.062"/>
</g>
<!-- FadeInBehaviour&#45;&gt;MonoBehaviour -->
<g id="edge12" class="edge"><title>FadeInBehaviour&#45;&gt;MonoBehaviour</title>
<path fill="none" stroke="black" stroke-width="2" d="M416.934,-221.535C426.614,-219.58 436.643,-217.651 446.096,-216 557.98,-196.462 587.313,-200.107 699.096,-180 704.863,-178.963 710.853,-177.804 716.835,-176.593"/>
<polygon fill="black" stroke="black" stroke-width="2" points="717.772,-179.973 726.853,-174.517 716.351,-173.119 717.772,-179.973"/>
</g>
<!-- Exception -->
<g id="node8" class="node"><title>Exception</title>
<ellipse fill="none" stroke="black" cx="353.096" cy="-18" rx="47.3916" ry="18"/>
<text text-anchor="middle" x="353.096" y="-14.3" font-family="Times New Roman,serif" font-size="14.00">Exception</text>
</g>
<!-- Timer -->
<g id="node12" class="node"><title>Timer</title>
<ellipse fill="none" stroke="black" cx="510.096" cy="-90" rx="32.4942" ry="18"/>
<text text-anchor="middle" x="510.096" y="-86.3" font-family="Times New Roman,serif" font-size="14.00">Timer</text>
</g>
<!-- TimerCollection&#45;&gt;Timer -->
<g id="edge15" class="edge"><title>TimerCollection&#45;&gt;Timer</title>
<path fill="none" stroke="black" d="M486.6,-144.055C490.179,-135.973 494.542,-126.121 498.532,-117.112"/>
<polygon fill="black" stroke="black" points="501.812,-118.35 502.661,-107.789 495.411,-115.515 501.812,-118.35"/>
</g>
<!-- Callback -->
<g id="node16" class="node"><title>Callback</title>
<ellipse fill="#e5e5e5" stroke="black" cx="570.096" cy="-18" rx="42.4939" ry="18"/>
<text text-anchor="middle" x="570.096" y="-14.3" font-family="Times New Roman,serif" font-size="14.00">Callback</text>
</g>
<!-- TimerCollection&#45;&gt;Callback -->
<g id="edge16" class="edge"><title>TimerCollection&#45;&gt;Callback</title>
<path fill="none" stroke="black" d="M509.183,-145.714C523.991,-136.691 540.825,-123.909 551.096,-108 562.987,-89.5808 567.57,-64.9799 569.273,-46.3108"/>
<polygon fill="black" stroke="black" points="572.781,-46.3126 569.977,-36.0957 565.798,-45.8316 572.781,-46.3126"/>
</g>
<!-- TimerNotFoundException -->
<g id="node21" class="node"><title>TimerNotFoundException</title>
<ellipse fill="none" stroke="black" cx="353.096" cy="-90" rx="106.681" ry="18"/>
<text text-anchor="middle" x="353.096" y="-86.3" font-family="Times New Roman,serif" font-size="14.00">TimerNotFoundException</text>
</g>
<!-- TimerCollection&#45;&gt;TimerNotFoundException -->
<g id="edge17" class="edge"><title>TimerCollection&#45;&gt;TimerNotFoundException</title>
<path fill="none" stroke="black" d="M451.132,-145.465C433.607,-135.729 410.779,-123.046 391.56,-112.369"/>
<polygon fill="black" stroke="black" points="393.178,-109.264 382.737,-107.467 389.778,-115.383 393.178,-109.264"/>
</g>
<!-- Debug -->
<g id="node10" class="node"><title>Debug</title>
<ellipse fill="#e5e5e5" stroke="black" cx="475.096" cy="-18" rx="34.394" ry="18"/>
<text text-anchor="middle" x="475.096" y="-14.3" font-family="Times New Roman,serif" font-size="14.00">Debug</text>
</g>
<!-- GameStateBehaviour&#45;&gt;PauseMenuBehaviour -->
<g id="edge21" class="edge"><title>GameStateBehaviour&#45;&gt;PauseMenuBehaviour</title>
<path fill="none" stroke="black" d="M588.056,-288.055C581.003,-279.543 572.324,-269.068 564.546,-259.681"/>
<polygon fill="black" stroke="black" points="567.082,-257.256 558.007,-251.789 561.692,-261.722 567.082,-257.256"/>
</g>
<!-- GameStateBehaviour&#45;&gt;SceneLoaderBehaviour -->
<g id="edge22" class="edge"><title>GameStateBehaviour&#45;&gt;SceneLoaderBehaviour</title>
<path fill="none" stroke="black" d="M641.587,-289.811C668.826,-279.334 705.246,-265.327 734.45,-254.095"/>
<polygon fill="black" stroke="black" points="735.976,-257.258 744.053,-250.401 733.463,-250.724 735.976,-257.258"/>
</g>
<!-- GameStateBehaviour&#45;&gt;FadeInBehaviour -->
<g id="edge20" class="edge"><title>GameStateBehaviour&#45;&gt;FadeInBehaviour</title>
<path fill="none" stroke="black" d="M554.219,-290.919C515.094,-279.411 459.766,-263.138 418.878,-251.112"/>
<polygon fill="black" stroke="black" points="419.657,-247.693 409.076,-248.229 417.682,-254.409 419.657,-247.693"/>
</g>
<!-- GameStateBehaviour&#45;&gt;NotNull -->
<g id="edge23" class="edge"><title>GameStateBehaviour&#45;&gt;NotNull</title>
<path fill="none" stroke="black" d="M684.231,-299.787C758.233,-293.362 859.643,-279.692 888.096,-252 904.411,-236.121 908.379,-209.918 908.731,-190.046"/>
<polygon fill="black" stroke="black" points="912.23,-190.002 908.62,-180.041 905.231,-190.079 912.23,-190.002"/>
</g>
<!-- GameState -->
<g id="node17" class="node"><title>GameState</title>
<ellipse fill="none" stroke="black" cx="223.096" cy="-234" rx="50.0912" ry="18"/>
<text text-anchor="middle" x="223.096" y="-230.3" font-family="Times New Roman,serif" font-size="14.00">GameState</text>
</g>
<!-- GameStateBehaviour&#45;&gt;GameState -->
<g id="edge19" class="edge"><title>GameStateBehaviour&#45;&gt;GameState</title>
<path fill="none" stroke="black" d="M530.777,-295.615C465.622,-286.468 366.819,-271.154 282.096,-252 278.002,-251.074 273.771,-250.031 269.543,-248.929"/>
<polygon fill="black" stroke="black" points="270.315,-245.512 259.748,-246.276 268.485,-252.269 270.315,-245.512"/>
</g>
<!-- GameStateBehaviour&#45;&gt;MonoBehaviour -->
<g id="edge18" class="edge"><title>GameStateBehaviour&#45;&gt;MonoBehaviour</title>
<path fill="none" stroke="black" stroke-width="2" d="M614.115,-287.989C628.287,-268.794 653.322,-237.458 680.096,-216 696.545,-202.817 716.739,-191.188 734.434,-182.208"/>
<polygon fill="black" stroke="black" stroke-width="2" points="736.015,-185.331 743.426,-177.759 732.911,-179.056 736.015,-185.331"/>
</g>
<!-- Timer&#45;&gt;Debug -->
<g id="edge25" class="edge"><title>Timer&#45;&gt;Debug</title>
<path fill="none" stroke="black" d="M501.801,-72.411C497.72,-64.2493 492.706,-54.2203 488.128,-45.0653"/>
<polygon fill="black" stroke="black" points="491.177,-43.3352 483.574,-35.9562 484.916,-46.4658 491.177,-43.3352"/>
</g>
<!-- Timer&#45;&gt;Callback -->
<g id="edge24" class="edge"><title>Timer&#45;&gt;Callback</title>
<path fill="none" stroke="black" d="M523.412,-73.4647C531.039,-64.5657 540.777,-53.2051 549.383,-43.1644"/>
<polygon fill="black" stroke="black" points="552.13,-45.3376 555.981,-35.4672 546.816,-40.782 552.13,-45.3376"/>
</g>
<!-- GameState&#45;&gt;IEventBus -->
<g id="edge26" class="edge"><title>GameState&#45;&gt;IEventBus</title>
<path fill="none" stroke="black" stroke-dasharray="5,2" d="M190.998,-220.161C162.417,-208.728 120.439,-191.937 89.3686,-179.509"/>
<polygon fill="black" stroke="black" points="90.2797,-176.104 79.6951,-175.64 87.6799,-182.603 90.2797,-176.104"/>
</g>
<!-- GameState&#45;&gt;ISceneLoader -->
<g id="edge30" class="edge"><title>GameState&#45;&gt;ISceneLoader</title>
<path fill="none" stroke="black" d="M259.705,-221.525C267.069,-219.48 274.79,-217.52 282.096,-216 403.208,-190.803 436.478,-202.63 558.096,-180 563.116,-179.066 568.315,-177.997 573.508,-176.861"/>
<polygon fill="black" stroke="black" points="574.461,-180.234 583.44,-174.61 572.914,-173.407 574.461,-180.234"/>
</g>
<!-- GameState&#45;&gt;TimerCollection -->
<g id="edge27" class="edge"><title>GameState&#45;&gt;TimerCollection</title>
<path fill="none" stroke="black" d="M260.837,-222.018C267.896,-219.994 275.216,-217.917 282.096,-216 329.275,-202.858 382.965,-188.449 422.366,-177.977"/>
<polygon fill="black" stroke="black" points="423.296,-181.352 432.063,-175.403 421.5,-174.586 423.296,-181.352"/>
</g>
<!-- GameState&#45;&gt;IFadeIn -->
<g id="edge28" class="edge"><title>GameState&#45;&gt;IFadeIn</title>
<path fill="none" stroke="black" d="M223.096,-215.697C223.096,-207.983 223.096,-198.712 223.096,-190.112"/>
<polygon fill="black" stroke="black" points="226.596,-190.104 223.096,-180.104 219.596,-190.104 226.596,-190.104"/>
</g>
<!-- ICanBeActivated -->
<g id="node20" class="node"><title>ICanBeActivated</title>
<ellipse fill="none" stroke="black" stroke-dasharray="5,2" cx="156.096" cy="-90" rx="72.5877" ry="18"/>
<text text-anchor="middle" x="156.096" y="-86.3" font-family="Times New Roman,serif" font-size="14.00">ICanBeActivated</text>
</g>
<!-- GameState&#45;&gt;ICanBeActivated -->
<g id="edge29" class="edge"><title>GameState&#45;&gt;ICanBeActivated</title>
<path fill="none" stroke="black" d="M204.526,-217.108C194.336,-207.394 182.336,-194.144 175.096,-180 165.226,-160.719 160.478,-136.565 158.197,-118.287"/>
<polygon fill="black" stroke="black" points="161.671,-117.852 157.119,-108.285 154.711,-118.603 161.671,-117.852"/>
</g>
<!-- IPauseMenu&#45;&gt;ICanBeActivated -->
<g id="edge31" class="edge"><title>IPauseMenu&#45;&gt;ICanBeActivated</title>
<path fill="none" stroke="black" stroke-dasharray="5,2" d="M301.815,-147.669C273.835,-136.787 234.008,-121.299 203.061,-109.264"/>
<polygon fill="black" stroke="black" points="203.94,-105.851 193.351,-105.488 201.402,-112.375 203.94,-105.851"/>
</g>
<!-- TimerNotFoundException&#45;&gt;Exception -->
<g id="edge32" class="edge"><title>TimerNotFoundException&#45;&gt;Exception</title>
<path fill="none" stroke="black" stroke-width="2" d="M353.096,-71.6966C353.096,-63.9827 353.096,-54.7125 353.096,-46.1124"/>
<polygon fill="black" stroke="black" stroke-width="2" points="356.596,-46.1043 353.096,-36.1043 349.596,-46.1044 356.596,-46.1043"/>
</g>
<!-- UiKeyboardListener&#45;&gt;IEventBus -->
<g id="edge33" class="edge"><title>UiKeyboardListener&#45;&gt;IEventBus</title>
<path fill="none" stroke="black" d="M71.0031,-289.057C57.7441,-280.08 43.4014,-267.535 36.0957,-252 26.8588,-232.358 31.2173,-207.758 37.116,-189.402"/>
<polygon fill="black" stroke="black" points="40.4357,-190.512 40.4749,-179.918 33.8373,-188.176 40.4357,-190.512"/>
</g>
<!-- UiKeyboardListener&#45;&gt;IPlayerInput -->
<g id="edge34" class="edge"><title>UiKeyboardListener&#45;&gt;IPlayerInput</title>
<path fill="none" stroke="black" d="M100.096,-287.697C100.096,-279.983 100.096,-270.712 100.096,-262.112"/>
<polygon fill="black" stroke="black" points="103.596,-262.104 100.096,-252.104 96.5958,-262.104 103.596,-262.104"/>
</g>
</g>
</svg>
