<?xml version="1.0" encoding="UTF-8" standalone="no"?>
<!DOCTYPE svg PUBLIC "-//W3C//DTD SVG 1.1//EN"
 "http://www.w3.org/Graphics/SVG/1.1/DTD/svg11.dtd">
<!-- Generated by graphviz version 2.38.0 (20140413.2041)
 -->
<!-- Title: %3 Pages: 1 -->
<svg width="396pt" height="188pt"
 viewBox="0.00 0.00 396.44 188.00" xmlns="http://www.w3.org/2000/svg" xmlns:xlink="http://www.w3.org/1999/xlink">
<g id="graph0" class="graph" transform="scale(1 1) rotate(0) translate(4 184)">
<title>%3</title>
<polygon fill="white" stroke="none" points="-4,4 -4,-184 392.437,-184 392.437,4 -4,4"/>
<!-- ITakesStatusEffect -->
<g id="node1" class="node"><title>ITakesStatusEffect</title>
<ellipse fill="none" stroke="black" stroke-dasharray="5,2" cx="79.9429" cy="-162" rx="79.8859" ry="18"/>
<text text-anchor="middle" x="79.9429" y="-158.3" font-family="Times New Roman,serif" font-size="14.00">ITakesStatusEffect</text>
</g>
<!-- IDealsStatusEffect -->
<g id="node2" class="node"><title>IDealsStatusEffect</title>
<ellipse fill="none" stroke="black" stroke-dasharray="5,2" cx="79.9429" cy="-90" rx="77.9862" ry="18"/>
<text text-anchor="middle" x="79.9429" y="-86.3" font-family="Times New Roman,serif" font-size="14.00">IDealsStatusEffect</text>
</g>
<!-- ITakesStatusEffect&#45;&gt;IDealsStatusEffect -->
<g id="edge1" class="edge"><title>ITakesStatusEffect&#45;&gt;IDealsStatusEffect</title>
<path fill="none" stroke="black" d="M74.0272,-143.697C73.2315,-135.983 73.005,-126.712 73.3476,-118.112"/>
<polygon fill="black" stroke="black" points="76.8413,-118.324 74.0479,-108.104 69.8583,-117.836 76.8413,-118.324"/>
</g>
<!-- IStatusEffect -->
<g id="node3" class="node"><title>IStatusEffect</title>
<ellipse fill="none" stroke="black" stroke-dasharray="5,2" cx="169.943" cy="-18" rx="57.6901" ry="18"/>
<text text-anchor="middle" x="169.943" y="-14.3" font-family="Times New Roman,serif" font-size="14.00">IStatusEffect</text>
</g>
<!-- ITakesStatusEffect&#45;&gt;IStatusEffect -->
<g id="edge2" class="edge"><title>ITakesStatusEffect&#45;&gt;IStatusEffect</title>
<path fill="none" stroke="black" d="M120.711,-146.46C138.086,-138.041 156.684,-125.562 166.943,-108 177.814,-89.3889 177.735,-64.6534 175.407,-45.9836"/>
<polygon fill="black" stroke="black" points="178.86,-45.4064 173.891,-36.049 171.94,-46.4626 178.86,-45.4064"/>
</g>
<!-- IDealsStatusEffect&#45;&gt;ITakesStatusEffect -->
<g id="edge4" class="edge"><title>IDealsStatusEffect&#45;&gt;ITakesStatusEffect</title>
<path fill="none" stroke="black" d="M85.8379,-108.104C86.6434,-115.791 86.8798,-125.054 86.5469,-133.665"/>
<polygon fill="black" stroke="black" points="83.0515,-133.48 85.8586,-143.697 90.035,-133.96 83.0515,-133.48"/>
</g>
<!-- IDealsStatusEffect&#45;&gt;IStatusEffect -->
<g id="edge3" class="edge"><title>IDealsStatusEffect&#45;&gt;IStatusEffect</title>
<path fill="none" stroke="black" d="M101.272,-72.411C113.211,-63.1248 128.258,-51.4214 141.222,-41.3384"/>
<polygon fill="black" stroke="black" points="143.642,-43.8903 149.387,-34.9881 139.344,-38.3648 143.642,-43.8903"/>
</g>
<!-- StatusEffect -->
<g id="node4" class="node"><title>StatusEffect</title>
<ellipse fill="none" stroke="black" cx="284.943" cy="-90" rx="55.4913" ry="18"/>
<text text-anchor="middle" x="284.943" y="-86.3" font-family="Times New Roman,serif" font-size="14.00">StatusEffect</text>
</g>
<!-- StatusEffect&#45;&gt;IStatusEffect -->
<g id="edge6" class="edge"><title>StatusEffect&#45;&gt;IStatusEffect</title>
<path fill="none" stroke="black" stroke-dasharray="5,2" d="M259.99,-73.811C243.676,-63.881 222.151,-50.7787 204.237,-39.8745"/>
<polygon fill="black" stroke="black" points="205.606,-36.6109 195.245,-34.401 201.967,-42.5903 205.606,-36.6109"/>
</g>
<!-- ScriptableObject -->
<g id="node5" class="node"><title>ScriptableObject</title>
<ellipse fill="none" stroke="black" cx="316.943" cy="-18" rx="71.4873" ry="18"/>
<text text-anchor="middle" x="316.943" y="-14.3" font-family="Times New Roman,serif" font-size="14.00">ScriptableObject</text>
</g>
<!-- StatusEffect&#45;&gt;ScriptableObject -->
<g id="edge5" class="edge"><title>StatusEffect&#45;&gt;ScriptableObject</title>
<path fill="none" stroke="black" stroke-width="2" d="M292.689,-72.055C296.33,-64.0915 300.755,-54.4107 304.824,-45.5097"/>
<polygon fill="black" stroke="black" stroke-width="2" points="308.071,-46.8252 309.046,-36.2753 301.705,-43.9149 308.071,-46.8252"/>
</g>
</g>
</svg>
