<?xml version="1.0" encoding="UTF-8" standalone="no"?>
<!DOCTYPE svg PUBLIC "-//W3C//DTD SVG 1.1//EN"
 "http://www.w3.org/Graphics/SVG/1.1/DTD/svg11.dtd">
<!-- Generated by graphviz version 2.38.0 (20140413.2041)
 -->
<!-- Title: %3 Pages: 1 -->
<svg width="364pt" height="188pt"
 viewBox="0.00 0.00 364.49 188.00" xmlns="http://www.w3.org/2000/svg" xmlns:xlink="http://www.w3.org/1999/xlink">
<g id="graph0" class="graph" transform="scale(1 1) rotate(0) translate(4 184)">
<title>%3</title>
<polygon fill="white" stroke="none" points="-4,4 -4,-184 360.487,-184 360.487,4 -4,4"/>
<!-- ITakesStatusEffect -->
<g id="node1" class="node"><title>ITakesStatusEffect</title>
<ellipse fill="none" stroke="black" stroke-dasharray="5,2" cx="224.494" cy="-90" rx="79.8859" ry="18"/>
<text text-anchor="middle" x="224.494" y="-86.3" font-family="Times New Roman,serif" font-size="14.00">ITakesStatusEffect</text>
</g>
<!-- IStatusEffect -->
<g id="node4" class="node"><title>IStatusEffect</title>
<ellipse fill="none" stroke="black" stroke-dasharray="5,2" cx="224.494" cy="-18" rx="57.6901" ry="18"/>
<text text-anchor="middle" x="224.494" y="-14.3" font-family="Times New Roman,serif" font-size="14.00">IStatusEffect</text>
</g>
<!-- ITakesStatusEffect&#45;&gt;IStatusEffect -->
<g id="edge1" class="edge"><title>ITakesStatusEffect&#45;&gt;IStatusEffect</title>
<path fill="none" stroke="black" d="M224.494,-71.6966C224.494,-63.9827 224.494,-54.7125 224.494,-46.1124"/>
<polygon fill="black" stroke="black" points="227.994,-46.1043 224.494,-36.1043 220.994,-46.1044 227.994,-46.1043"/>
</g>
<!-- ScriptableObject -->
<g id="node2" class="node"><title>ScriptableObject</title>
<ellipse fill="none" stroke="black" cx="71.4937" cy="-18" rx="71.4873" ry="18"/>
<text text-anchor="middle" x="71.4937" y="-14.3" font-family="Times New Roman,serif" font-size="14.00">ScriptableObject</text>
</g>
<!-- StatusEffect -->
<g id="node3" class="node"><title>StatusEffect</title>
<ellipse fill="none" stroke="black" cx="71.4937" cy="-90" rx="55.4913" ry="18"/>
<text text-anchor="middle" x="71.4937" y="-86.3" font-family="Times New Roman,serif" font-size="14.00">StatusEffect</text>
</g>
<!-- StatusEffect&#45;&gt;ScriptableObject -->
<g id="edge2" class="edge"><title>StatusEffect&#45;&gt;ScriptableObject</title>
<path fill="none" stroke="black" stroke-width="2" d="M71.4937,-71.6966C71.4937,-63.9827 71.4937,-54.7125 71.4937,-46.1124"/>
<polygon fill="black" stroke="black" stroke-width="2" points="74.9938,-46.1043 71.4937,-36.1043 67.9938,-46.1044 74.9938,-46.1043"/>
</g>
<!-- StatusEffect&#45;&gt;IStatusEffect -->
<g id="edge3" class="edge"><title>StatusEffect&#45;&gt;IStatusEffect</title>
<path fill="none" stroke="black" stroke-dasharray="5,2" d="M102.088,-75.0027C125.699,-64.2003 158.568,-49.1622 184.301,-37.3889"/>
<polygon fill="black" stroke="black" points="185.791,-40.5562 193.428,-33.213 182.879,-34.1907 185.791,-40.5562"/>
</g>
<!-- IDealsStatusEffect -->
<g id="node5" class="node"><title>IDealsStatusEffect</title>
<ellipse fill="none" stroke="black" stroke-dasharray="5,2" cx="278.494" cy="-162" rx="77.9862" ry="18"/>
<text text-anchor="middle" x="278.494" y="-158.3" font-family="Times New Roman,serif" font-size="14.00">IDealsStatusEffect</text>
</g>
<!-- IDealsStatusEffect&#45;&gt;ITakesStatusEffect -->
<g id="edge5" class="edge"><title>IDealsStatusEffect&#45;&gt;ITakesStatusEffect</title>
<path fill="none" stroke="black" d="M265.422,-144.055C258.921,-135.629 250.938,-125.28 243.753,-115.966"/>
<polygon fill="black" stroke="black" points="246.324,-113.569 237.445,-107.789 240.782,-117.845 246.324,-113.569"/>
</g>
<!-- IDealsStatusEffect&#45;&gt;IStatusEffect -->
<g id="edge4" class="edge"><title>IDealsStatusEffect&#45;&gt;IStatusEffect</title>
<path fill="none" stroke="black" d="M293.749,-144.286C308.578,-125.905 327.031,-95.8171 313.494,-72 304.431,-56.0551 288.464,-44.403 272.533,-36.154"/>
<polygon fill="black" stroke="black" points="273.739,-32.8511 263.209,-31.6836 270.713,-39.163 273.739,-32.8511"/>
</g>
</g>
</svg>
