<?xml version="1.0" encoding="UTF-8" standalone="no"?>
<!DOCTYPE svg PUBLIC "-//W3C//DTD SVG 1.1//EN"
 "http://www.w3.org/Graphics/SVG/1.1/DTD/svg11.dtd">
<!-- Generated by graphviz version 2.38.0 (20140413.2041)
 -->
<!-- Title: %3 Pages: 1 -->
<svg width="327pt" height="188pt"
 viewBox="0.00 0.00 327.42 188.00" xmlns="http://www.w3.org/2000/svg" xmlns:xlink="http://www.w3.org/1999/xlink">
<g id="graph0" class="graph" transform="scale(1 1) rotate(0) translate(4 184)">
<title>%3</title>
<polygon fill="white" stroke="none" points="-4,4 -4,-184 323.423,-184 323.423,4 -4,4"/>
<!-- IDealsStatusEffect -->
<g id="node1" class="node"><title>IDealsStatusEffect</title>
<ellipse fill="none" stroke="black" stroke-dasharray="5,2" cx="94.9297" cy="-162" rx="77.9862" ry="18"/>
<text text-anchor="middle" x="94.9297" y="-158.3" font-family="Times New Roman,serif" font-size="14.00">IDealsStatusEffect</text>
</g>
<!-- IStatusEffect -->
<g id="node2" class="node"><title>IStatusEffect</title>
<ellipse fill="none" stroke="black" stroke-dasharray="5,2" cx="94.9297" cy="-18" rx="57.6901" ry="18"/>
<text text-anchor="middle" x="94.9297" y="-14.3" font-family="Times New Roman,serif" font-size="14.00">IStatusEffect</text>
</g>
<!-- IDealsStatusEffect&#45;&gt;IStatusEffect -->
<g id="edge1" class="edge"><title>IDealsStatusEffect&#45;&gt;IStatusEffect</title>
<path fill="none" stroke="black" d="M52.5088,-146.621C34.8172,-138.283 16.0602,-125.824 5.92967,-108 -1.97656,-94.0899 -1.97656,-85.9101 5.92967,-72 14.9924,-56.0551 30.959,-44.403 46.8905,-36.154"/>
<polygon fill="black" stroke="black" points="48.7104,-39.163 56.2143,-31.6836 45.6839,-32.8511 48.7104,-39.163"/>
</g>
<!-- ITakesStatusEffect -->
<g id="node5" class="node"><title>ITakesStatusEffect</title>
<ellipse fill="none" stroke="black" stroke-dasharray="5,2" cx="94.9297" cy="-90" rx="79.8859" ry="18"/>
<text text-anchor="middle" x="94.9297" y="-86.3" font-family="Times New Roman,serif" font-size="14.00">ITakesStatusEffect</text>
</g>
<!-- IDealsStatusEffect&#45;&gt;ITakesStatusEffect -->
<g id="edge2" class="edge"><title>IDealsStatusEffect&#45;&gt;ITakesStatusEffect</title>
<path fill="none" stroke="black" d="M89.0139,-143.697C88.2182,-135.983 87.9917,-126.712 88.3344,-118.112"/>
<polygon fill="black" stroke="black" points="91.828,-118.324 89.0346,-108.104 84.8451,-117.836 91.828,-118.324"/>
</g>
<!-- ScriptableObject -->
<g id="node3" class="node"><title>ScriptableObject</title>
<ellipse fill="none" stroke="black" cx="247.93" cy="-18" rx="71.4873" ry="18"/>
<text text-anchor="middle" x="247.93" y="-14.3" font-family="Times New Roman,serif" font-size="14.00">ScriptableObject</text>
</g>
<!-- StatusEffect -->
<g id="node4" class="node"><title>StatusEffect</title>
<ellipse fill="none" stroke="black" cx="247.93" cy="-90" rx="55.4913" ry="18"/>
<text text-anchor="middle" x="247.93" y="-86.3" font-family="Times New Roman,serif" font-size="14.00">StatusEffect</text>
</g>
<!-- StatusEffect&#45;&gt;IStatusEffect -->
<g id="edge4" class="edge"><title>StatusEffect&#45;&gt;IStatusEffect</title>
<path fill="none" stroke="black" stroke-dasharray="5,2" d="M217.336,-75.0027C193.725,-64.2003 160.856,-49.1622 135.123,-37.3889"/>
<polygon fill="black" stroke="black" points="136.545,-34.1907 125.995,-33.213 133.632,-40.5562 136.545,-34.1907"/>
</g>
<!-- StatusEffect&#45;&gt;ScriptableObject -->
<g id="edge3" class="edge"><title>StatusEffect&#45;&gt;ScriptableObject</title>
<path fill="none" stroke="black" stroke-width="2" d="M247.93,-71.6966C247.93,-63.9827 247.93,-54.7125 247.93,-46.1124"/>
<polygon fill="black" stroke="black" stroke-width="2" points="251.43,-46.1043 247.93,-36.1043 244.43,-46.1044 251.43,-46.1043"/>
</g>
<!-- ITakesStatusEffect&#45;&gt;IDealsStatusEffect -->
<g id="edge5" class="edge"><title>ITakesStatusEffect&#45;&gt;IDealsStatusEffect</title>
<path fill="none" stroke="black" d="M100.825,-108.104C101.63,-115.791 101.867,-125.054 101.534,-133.665"/>
<polygon fill="black" stroke="black" points="98.0382,-133.48 100.845,-143.697 105.022,-133.96 98.0382,-133.48"/>
</g>
<!-- ITakesStatusEffect&#45;&gt;IStatusEffect -->
<g id="edge6" class="edge"><title>ITakesStatusEffect&#45;&gt;IStatusEffect</title>
<path fill="none" stroke="black" d="M94.9297,-71.6966C94.9297,-63.9827 94.9297,-54.7125 94.9297,-46.1124"/>
<polygon fill="black" stroke="black" points="98.4298,-46.1043 94.9297,-36.1043 91.4298,-46.1044 98.4298,-46.1043"/>
</g>
</g>
</svg>
