<?xml version="1.0" encoding="UTF-8" standalone="no"?>
<!DOCTYPE svg PUBLIC "-//W3C//DTD SVG 1.1//EN"
 "http://www.w3.org/Graphics/SVG/1.1/DTD/svg11.dtd">
<!-- Generated by graphviz version 2.38.0 (20140413.2041)
 -->
<!-- Title: %3 Pages: 1 -->
<svg width="220pt" height="188pt"
 viewBox="0.00 0.00 219.94 188.00" xmlns="http://www.w3.org/2000/svg" xmlns:xlink="http://www.w3.org/1999/xlink">
<g id="graph0" class="graph" transform="scale(1 1) rotate(0) translate(4 184)">
<title>%3</title>
<polygon fill="white" stroke="none" points="-4,4 -4,-184 215.936,-184 215.936,4 -4,4"/>
<!-- ITakesStatusEffect -->
<g id="node1" class="node"><title>ITakesStatusEffect</title>
<ellipse fill="none" stroke="black" stroke-dasharray="5,2" cx="79.9429" cy="-90" rx="79.8859" ry="18"/>
<text text-anchor="middle" x="79.9429" y="-86.3" font-family="Times New Roman,serif" font-size="14.00">ITakesStatusEffect</text>
</g>
<!-- IStatusEffect -->
<g id="node3" class="node"><title>IStatusEffect</title>
<ellipse fill="none" stroke="black" stroke-dasharray="5,2" cx="133.943" cy="-18" rx="57.6901" ry="18"/>
<text text-anchor="middle" x="133.943" y="-14.3" font-family="Times New Roman,serif" font-size="14.00">IStatusEffect</text>
</g>
<!-- ITakesStatusEffect&#45;&gt;IStatusEffect -->
<g id="edge1" class="edge"><title>ITakesStatusEffect&#45;&gt;IStatusEffect</title>
<path fill="none" stroke="black" d="M93.0148,-72.055C99.5151,-63.6287 107.499,-53.2798 114.683,-43.9663"/>
<polygon fill="black" stroke="black" points="117.655,-45.8447 120.991,-35.789 112.112,-41.569 117.655,-45.8447"/>
</g>
<!-- IDealsStatusEffect -->
<g id="node2" class="node"><title>IDealsStatusEffect</title>
<ellipse fill="none" stroke="black" stroke-dasharray="5,2" cx="133.943" cy="-162" rx="77.9862" ry="18"/>
<text text-anchor="middle" x="133.943" y="-158.3" font-family="Times New Roman,serif" font-size="14.00">IDealsStatusEffect</text>
</g>
<!-- IDealsStatusEffect&#45;&gt;ITakesStatusEffect -->
<g id="edge3" class="edge"><title>IDealsStatusEffect&#45;&gt;ITakesStatusEffect</title>
<path fill="none" stroke="black" d="M120.871,-144.055C114.371,-135.629 106.387,-125.28 99.2026,-115.966"/>
<polygon fill="black" stroke="black" points="101.774,-113.569 92.8944,-107.789 96.2312,-117.845 101.774,-113.569"/>
</g>
<!-- IDealsStatusEffect&#45;&gt;IStatusEffect -->
<g id="edge2" class="edge"><title>IDealsStatusEffect&#45;&gt;IStatusEffect</title>
<path fill="none" stroke="black" d="M148.761,-144.173C156.405,-134.353 164.946,-121.306 168.943,-108 173.546,-92.6764 173.546,-87.3236 168.943,-72 165.976,-62.1243 160.507,-52.3913 154.759,-44.0146"/>
<polygon fill="black" stroke="black" points="157.494,-41.8258 148.761,-35.8271 151.847,-45.9625 157.494,-41.8258"/>
</g>
</g>
</svg>
