<?xml version="1.0" encoding="UTF-8" standalone="no"?>
<!DOCTYPE svg PUBLIC "-//W3C//DTD SVG 1.1//EN"
 "http://www.w3.org/Graphics/SVG/1.1/DTD/svg11.dtd">
<!-- Generated by graphviz version 2.38.0 (20140413.2041)
 -->
<!-- Title: %3 Pages: 1 -->
<svg width="284pt" height="116pt"
 viewBox="0.00 0.00 284.34 116.00" xmlns="http://www.w3.org/2000/svg" xmlns:xlink="http://www.w3.org/1999/xlink">
<g id="graph0" class="graph" transform="scale(1 1) rotate(0) translate(4 112)">
<title>%3</title>
<polygon fill="white" stroke="none" points="-4,4 -4,-112 280.339,-112 280.339,4 -4,4"/>
<!-- IStatusEffect -->
<g id="node1" class="node"><title>IStatusEffect</title>
<ellipse fill="none" stroke="black" stroke-dasharray="5,2" cx="57.8449" cy="-18" rx="57.6901" ry="18"/>
<text text-anchor="middle" x="57.8449" y="-14.3" font-family="Times New Roman,serif" font-size="14.00">IStatusEffect</text>
</g>
<!-- StatusEffect -->
<g id="node2" class="node"><title>StatusEffect</title>
<ellipse fill="none" stroke="black" cx="130.845" cy="-90" rx="55.4913" ry="18"/>
<text text-anchor="middle" x="130.845" y="-86.3" font-family="Times New Roman,serif" font-size="14.00">StatusEffect</text>
</g>
<!-- StatusEffect&#45;&gt;IStatusEffect -->
<g id="edge2" class="edge"><title>StatusEffect&#45;&gt;IStatusEffect</title>
<path fill="none" stroke="black" stroke-dasharray="5,2" d="M113.914,-72.7646C104.492,-63.7297 92.5994,-52.3262 82.1942,-42.3487"/>
<polygon fill="black" stroke="black" points="84.5774,-39.7848 74.9371,-35.3898 79.7325,-44.8373 84.5774,-39.7848"/>
</g>
<!-- ScriptableObject -->
<g id="node3" class="node"><title>ScriptableObject</title>
<ellipse fill="none" stroke="black" cx="204.845" cy="-18" rx="71.4873" ry="18"/>
<text text-anchor="middle" x="204.845" y="-14.3" font-family="Times New Roman,serif" font-size="14.00">ScriptableObject</text>
</g>
<!-- StatusEffect&#45;&gt;ScriptableObject -->
<g id="edge1" class="edge"><title>StatusEffect&#45;&gt;ScriptableObject</title>
<path fill="none" stroke="black" stroke-width="2" d="M148.008,-72.7646C157.49,-63.7947 169.441,-52.4902 179.934,-42.5643"/>
<polygon fill="black" stroke="black" stroke-width="2" points="182.401,-45.0481 187.261,-35.6334 177.591,-39.9628 182.401,-45.0481"/>
</g>
</g>
</svg>
