<?xml version="1.0" encoding="UTF-8" standalone="no"?>
<!DOCTYPE svg PUBLIC "-//W3C//DTD SVG 1.1//EN"
 "http://www.w3.org/Graphics/SVG/1.1/DTD/svg11.dtd">
<!-- Generated by graphviz version 2.38.0 (20140413.2041)
 -->
<!-- Title: %3 Pages: 1 -->
<svg width="272pt" height="188pt"
 viewBox="0.00 0.00 272.49 188.00" xmlns="http://www.w3.org/2000/svg" xmlns:xlink="http://www.w3.org/1999/xlink">
<g id="graph0" class="graph" transform="scale(1 1) rotate(0) translate(4 184)">
<title>%3</title>
<polygon fill="white" stroke="none" points="-4,4 -4,-184 268.489,-184 268.489,4 -4,4"/>
<!-- IFlipX -->
<g id="node1" class="node"><title>IFlipX</title>
<ellipse fill="none" stroke="black" stroke-dasharray="5,2" cx="210.544" cy="-18" rx="34.394" ry="18"/>
<text text-anchor="middle" x="210.544" y="-14.3" font-family="Times New Roman,serif" font-size="14.00">IFlipX</text>
</g>
<!-- MonoBehaviour -->
<g id="node2" class="node"><title>MonoBehaviour</title>
<ellipse fill="none" stroke="black" cx="69.5438" cy="-90" rx="69.5877" ry="18"/>
<text text-anchor="middle" x="69.5438" y="-86.3" font-family="Times New Roman,serif" font-size="14.00">MonoBehaviour</text>
</g>
<!-- IBarDisplay -->
<g id="node3" class="node"><title>IBarDisplay</title>
<ellipse fill="none" stroke="black" stroke-dasharray="5,2" cx="210.544" cy="-90" rx="53.8905" ry="18"/>
<text text-anchor="middle" x="210.544" y="-86.3" font-family="Times New Roman,serif" font-size="14.00">IBarDisplay</text>
</g>
<!-- IBarDisplay&#45;&gt;IFlipX -->
<g id="edge1" class="edge"><title>IBarDisplay&#45;&gt;IFlipX</title>
<path fill="none" stroke="black" stroke-dasharray="5,2" d="M210.544,-71.6966C210.544,-63.9827 210.544,-54.7125 210.544,-46.1124"/>
<polygon fill="black" stroke="black" points="214.044,-46.1043 210.544,-36.1043 207.044,-46.1044 214.044,-46.1043"/>
</g>
<!-- BarBehaviour -->
<g id="node4" class="node"><title>BarBehaviour</title>
<ellipse fill="none" stroke="black" cx="139.544" cy="-162" rx="59.5901" ry="18"/>
<text text-anchor="middle" x="139.544" y="-158.3" font-family="Times New Roman,serif" font-size="14.00">BarBehaviour</text>
</g>
<!-- BarBehaviour&#45;&gt;MonoBehaviour -->
<g id="edge2" class="edge"><title>BarBehaviour&#45;&gt;MonoBehaviour</title>
<path fill="none" stroke="black" stroke-width="2" d="M122.955,-144.411C114.192,-135.648 103.276,-124.732 93.6008,-115.057"/>
<polygon fill="black" stroke="black" stroke-width="2" points="96.046,-112.552 86.5,-107.956 91.0963,-117.502 96.046,-112.552"/>
</g>
<!-- BarBehaviour&#45;&gt;IBarDisplay -->
<g id="edge3" class="edge"><title>BarBehaviour&#45;&gt;IBarDisplay</title>
<path fill="none" stroke="black" stroke-dasharray="5,2" d="M156.37,-144.411C165.389,-135.519 176.656,-124.411 186.575,-114.631"/>
<polygon fill="black" stroke="black" points="189.175,-116.983 193.839,-107.47 184.26,-111.998 189.175,-116.983"/>
</g>
</g>
</svg>
