<?xml version="1.0" encoding="UTF-8" standalone="no"?>
<!DOCTYPE svg PUBLIC "-//W3C//DTD SVG 1.1//EN"
 "http://www.w3.org/Graphics/SVG/1.1/DTD/svg11.dtd">
<!-- Generated by graphviz version 2.38.0 (20140413.2041)
 -->
<!-- Title: %3 Pages: 1 -->
<svg width="2515pt" height="332pt"
 viewBox="0.00 0.00 2514.62 332.00" xmlns="http://www.w3.org/2000/svg" xmlns:xlink="http://www.w3.org/1999/xlink">
<g id="graph0" class="graph" transform="scale(1 1) rotate(0) translate(4 328)">
<title>%3</title>
<polygon fill="white" stroke="none" points="-4,4 -4,-328 2510.62,-328 2510.62,4 -4,4"/>
<!-- CreaturePhysics -->
<g id="node1" class="node"><title>CreaturePhysics</title>
<ellipse fill="none" stroke="black" cx="449.992" cy="-234" rx="69.5877" ry="18"/>
<text text-anchor="middle" x="449.992" y="-230.3" font-family="Times New Roman,serif" font-size="14.00">CreaturePhysics</text>
</g>
<!-- BasePhysics -->
<g id="node8" class="node"><title>BasePhysics</title>
<ellipse fill="none" stroke="black" cx="406.992" cy="-162" rx="56.59" ry="18"/>
<text text-anchor="middle" x="406.992" y="-158.3" font-family="Times New Roman,serif" font-size="14.00">BasePhysics</text>
</g>
<!-- CreaturePhysics&#45;&gt;BasePhysics -->
<g id="edge1" class="edge"><title>CreaturePhysics&#45;&gt;BasePhysics</title>
<path fill="none" stroke="black" stroke-width="2" d="M439.583,-216.055C434.512,-207.801 428.308,-197.701 422.679,-188.538"/>
<polygon fill="black" stroke="black" stroke-width="2" points="425.522,-186.478 417.305,-179.789 419.557,-190.142 425.522,-186.478"/>
</g>
<!-- ICreaturePhysics -->
<g id="node15" class="node"><title>ICreaturePhysics</title>
<ellipse fill="none" stroke="black" stroke-dasharray="5,2" cx="630.992" cy="-162" rx="72.5877" ry="18"/>
<text text-anchor="middle" x="630.992" y="-158.3" font-family="Times New Roman,serif" font-size="14.00">ICreaturePhysics</text>
</g>
<!-- CreaturePhysics&#45;&gt;ICreaturePhysics -->
<g id="edge2" class="edge"><title>CreaturePhysics&#45;&gt;ICreaturePhysics</title>
<path fill="none" stroke="black" stroke-dasharray="5,2" d="M487.057,-218.666C515.054,-207.838 553.682,-192.899 583.873,-181.223"/>
<polygon fill="black" stroke="black" points="585.29,-184.427 593.355,-177.556 582.765,-177.899 585.29,-184.427"/>
</g>
<!-- IRigidBody2d -->
<g id="node29" class="node"><title>IRigidBody2d</title>
<ellipse fill="none" stroke="black" stroke-dasharray="5,2" cx="321.992" cy="-90" rx="62.2891" ry="18"/>
<text text-anchor="middle" x="321.992" y="-86.3" font-family="Times New Roman,serif" font-size="14.00">IRigidBody2d</text>
</g>
<!-- CreaturePhysics&#45;&gt;IRigidBody2d -->
<g id="edge4" class="edge"><title>CreaturePhysics&#45;&gt;IRigidBody2d</title>
<path fill="none" stroke="black" d="M403.016,-220.649C381.067,-212.554 356.429,-199.716 340.992,-180 327.331,-162.552 322.936,-137.509 321.754,-118.429"/>
<polygon fill="black" stroke="black" points="325.245,-118.126 321.386,-108.259 318.25,-118.379 325.245,-118.126"/>
</g>
<!-- ITransform -->
<g id="node33" class="node"><title>ITransform</title>
<ellipse fill="none" stroke="black" stroke-dasharray="5,2" cx="491.992" cy="-90" rx="51.9908" ry="18"/>
<text text-anchor="middle" x="491.992" y="-86.3" font-family="Times New Roman,serif" font-size="14.00">ITransform</text>
</g>
<!-- CreaturePhysics&#45;&gt;ITransform -->
<g id="edge5" class="edge"><title>CreaturePhysics&#45;&gt;ITransform</title>
<path fill="none" stroke="black" d="M458.556,-215.671C463.327,-205.477 469.077,-192.227 472.992,-180 479.526,-159.593 484.47,-135.83 487.674,-117.993"/>
<polygon fill="black" stroke="black" points="491.148,-118.442 489.401,-107.992 484.25,-117.251 491.148,-118.442"/>
</g>
<!-- CreaturePhysicsProperties -->
<g id="node36" class="node"><title>CreaturePhysicsProperties</title>
<ellipse fill="none" stroke="black" cx="186.992" cy="-162" rx="106.681" ry="18"/>
<text text-anchor="middle" x="186.992" y="-158.3" font-family="Times New Roman,serif" font-size="14.00">CreaturePhysicsProperties</text>
</g>
<!-- CreaturePhysics&#45;&gt;CreaturePhysicsProperties -->
<g id="edge3" class="edge"><title>CreaturePhysics&#45;&gt;CreaturePhysicsProperties</title>
<path fill="none" stroke="black" d="M403.276,-220.566C360.969,-209.306 298.252,-192.613 251.233,-180.099"/>
<polygon fill="black" stroke="black" points="252.015,-176.685 241.451,-177.495 250.215,-183.449 252.015,-176.685"/>
</g>
<!-- NotNull -->
<g id="node2" class="node"><title>NotNull</title>
<ellipse fill="#e5e5e5" stroke="black" cx="760.992" cy="-162" rx="38.9931" ry="18"/>
<text text-anchor="middle" x="760.992" y="-158.3" font-family="Times New Roman,serif" font-size="14.00">NotNull</text>
</g>
<!-- ISystemParticipator -->
<g id="node3" class="node"><title>ISystemParticipator</title>
<ellipse fill="none" stroke="black" stroke-dasharray="5,2" cx="2306.99" cy="-18" rx="82.5854" ry="18"/>
<text text-anchor="middle" x="2306.99" y="-14.3" font-family="Times New Roman,serif" font-size="14.00">ISystemParticipator</text>
</g>
<!-- Enum -->
<g id="node4" class="node"><title>Enum</title>
<ellipse fill="none" stroke="black" cx="891.992" cy="-90" rx="31.6951" ry="18"/>
<text text-anchor="middle" x="891.992" y="-86.3" font-family="Times New Roman,serif" font-size="14.00">Enum</text>
</g>
<!-- CreatureHealth -->
<g id="node5" class="node"><title>CreatureHealth</title>
<ellipse fill="none" stroke="black" cx="1619.99" cy="-162" rx="64.189" ry="18"/>
<text text-anchor="middle" x="1619.99" y="-158.3" font-family="Times New Roman,serif" font-size="14.00">CreatureHealth</text>
</g>
<!-- Callback -->
<g id="node6" class="node"><title>Callback</title>
<ellipse fill="none" stroke="black" cx="1771.99" cy="-18" rx="42.4939" ry="18"/>
<text text-anchor="middle" x="1771.99" y="-14.3" font-family="Times New Roman,serif" font-size="14.00">Callback</text>
</g>
<!-- CreatureHealth&#45;&gt;Callback -->
<g id="edge8" class="edge"><title>CreatureHealth&#45;&gt;Callback</title>
<path fill="none" stroke="black" d="M1601.7,-144.464C1583.19,-125.704 1559.59,-94.7669 1576.99,-72 1594.52,-49.0718 1670.06,-33.7232 1721.81,-25.6821"/>
<polygon fill="black" stroke="black" points="1722.45,-29.1249 1731.82,-24.1712 1721.41,-22.2033 1722.45,-29.1249"/>
</g>
<!-- IBarDisplay -->
<g id="node9" class="node"><title>IBarDisplay</title>
<ellipse fill="none" stroke="black" stroke-dasharray="5,2" cx="1475.99" cy="-90" rx="53.8905" ry="18"/>
<text text-anchor="middle" x="1475.99" y="-86.3" font-family="Times New Roman,serif" font-size="14.00">IBarDisplay</text>
</g>
<!-- CreatureHealth&#45;&gt;IBarDisplay -->
<g id="edge7" class="edge"><title>CreatureHealth&#45;&gt;IBarDisplay</title>
<path fill="none" stroke="black" d="M1589.45,-146.155C1567.59,-135.526 1537.98,-121.135 1514.5,-109.719"/>
<polygon fill="black" stroke="black" points="1516.03,-106.569 1505.5,-105.345 1512.97,-112.865 1516.03,-106.569"/>
</g>
<!-- ICreatureHealth -->
<g id="node21" class="node"><title>ICreatureHealth</title>
<ellipse fill="none" stroke="black" stroke-dasharray="5,2" cx="1653.99" cy="-90" rx="67.6881" ry="18"/>
<text text-anchor="middle" x="1653.99" y="-86.3" font-family="Times New Roman,serif" font-size="14.00">ICreatureHealth</text>
</g>
<!-- CreatureHealth&#45;&gt;ICreatureHealth -->
<g id="edge6" class="edge"><title>CreatureHealth&#45;&gt;ICreatureHealth</title>
<path fill="none" stroke="black" stroke-dasharray="5,2" d="M1628.22,-144.055C1632.09,-136.091 1636.79,-126.411 1641.12,-117.51"/>
<polygon fill="black" stroke="black" points="1644.38,-118.8 1645.6,-108.275 1638.08,-115.741 1644.38,-118.8"/>
</g>
<!-- Exception -->
<g id="node7" class="node"><title>Exception</title>
<ellipse fill="none" stroke="black" cx="1966.99" cy="-18" rx="47.3916" ry="18"/>
<text text-anchor="middle" x="1966.99" y="-14.3" font-family="Times New Roman,serif" font-size="14.00">Exception</text>
</g>
<!-- BasePhysics&#45;&gt;IRigidBody2d -->
<g id="edge11" class="edge"><title>BasePhysics&#45;&gt;IRigidBody2d</title>
<path fill="none" stroke="black" d="M387.278,-144.765C376.013,-135.488 361.717,-123.714 349.375,-113.551"/>
<polygon fill="black" stroke="black" points="351.544,-110.803 341.599,-107.147 347.094,-116.206 351.544,-110.803"/>
</g>
<!-- BasePhysics&#45;&gt;ITransform -->
<g id="edge10" class="edge"><title>BasePhysics&#45;&gt;ITransform</title>
<path fill="none" stroke="black" d="M426.706,-144.765C438.051,-135.422 452.472,-123.546 464.873,-113.334"/>
<polygon fill="black" stroke="black" points="467.183,-115.965 472.678,-106.906 462.733,-110.561 467.183,-115.965"/>
</g>
<!-- IBasePhysics -->
<g id="node34" class="node"><title>IBasePhysics</title>
<ellipse fill="none" stroke="black" stroke-dasharray="5,2" cx="630.992" cy="-90" rx="59.5901" ry="18"/>
<text text-anchor="middle" x="630.992" y="-86.3" font-family="Times New Roman,serif" font-size="14.00">IBasePhysics</text>
</g>
<!-- BasePhysics&#45;&gt;IBasePhysics -->
<g id="edge9" class="edge"><title>BasePhysics&#45;&gt;IBasePhysics</title>
<path fill="none" stroke="black" stroke-dasharray="5,2" d="M445.754,-148.887C483.35,-137.138 540.552,-119.262 581.437,-106.486"/>
<polygon fill="black" stroke="black" points="582.697,-109.759 591.198,-103.436 580.609,-103.078 582.697,-109.759"/>
</g>
<!-- IFlipX -->
<g id="node11" class="node"><title>IFlipX</title>
<ellipse fill="none" stroke="black" stroke-dasharray="5,2" cx="1345.99" cy="-18" rx="34.394" ry="18"/>
<text text-anchor="middle" x="1345.99" y="-14.3" font-family="Times New Roman,serif" font-size="14.00">IFlipX</text>
</g>
<!-- IBarDisplay&#45;&gt;IFlipX -->
<g id="edge12" class="edge"><title>IBarDisplay&#45;&gt;IFlipX</title>
<path fill="none" stroke="black" stroke-dasharray="5,2" d="M1448.74,-74.3257C1428.15,-63.2407 1399.84,-47.9931 1378.14,-36.3116"/>
<polygon fill="black" stroke="black" points="1379.76,-33.2056 1369.29,-31.5462 1376.44,-39.3689 1379.76,-33.2056"/>
</g>
<!-- BaseCreatureBehaviour -->
<g id="node10" class="node"><title>BaseCreatureBehaviour</title>
<ellipse fill="none" stroke="black" cx="1309.99" cy="-306" rx="95.5831" ry="18"/>
<text text-anchor="middle" x="1309.99" y="-302.3" font-family="Times New Roman,serif" font-size="14.00">BaseCreatureBehaviour</text>
</g>
<!-- BaseCreatureBehaviour&#45;&gt;CreaturePhysics -->
<g id="edge22" class="edge"><title>BaseCreatureBehaviour&#45;&gt;CreaturePhysics</title>
<path fill="none" stroke="black" d="M1220.67,-299.469C1085.84,-290.866 822.353,-273.059 598.992,-252 573.704,-249.616 546.051,-246.58 521.508,-243.735"/>
<polygon fill="black" stroke="black" points="521.893,-240.257 511.555,-242.573 521.081,-247.209 521.893,-240.257"/>
</g>
<!-- BaseCreatureBehaviour&#45;&gt;NotNull -->
<g id="edge21" class="edge"><title>BaseCreatureBehaviour&#45;&gt;NotNull</title>
<path fill="none" stroke="black" d="M1214.56,-304.537C1129.4,-301.385 1002.54,-289.861 898.992,-252 856.228,-236.365 813.109,-205.597 786.724,-184.664"/>
<polygon fill="black" stroke="black" points="788.748,-181.8 778.767,-178.245 784.352,-187.248 788.748,-181.8"/>
</g>
<!-- CreatureFsm -->
<g id="node12" class="node"><title>CreatureFsm</title>
<ellipse fill="none" stroke="black" cx="965.992" cy="-234" rx="57.6901" ry="18"/>
<text text-anchor="middle" x="965.992" y="-230.3" font-family="Times New Roman,serif" font-size="14.00">CreatureFsm</text>
</g>
<!-- BaseCreatureBehaviour&#45;&gt;CreatureFsm -->
<g id="edge18" class="edge"><title>BaseCreatureBehaviour&#45;&gt;CreatureFsm</title>
<path fill="none" stroke="black" d="M1247.7,-292.324C1183.69,-279.299 1084.89,-259.194 1022.92,-246.584"/>
<polygon fill="black" stroke="black" points="1023.42,-243.114 1012.92,-244.55 1022.02,-249.973 1023.42,-243.114"/>
</g>
<!-- BaseCreature -->
<g id="node13" class="node"><title>BaseCreature</title>
<ellipse fill="none" stroke="black" cx="1395.99" cy="-234" rx="59.2899" ry="18"/>
<text text-anchor="middle" x="1395.99" y="-230.3" font-family="Times New Roman,serif" font-size="14.00">BaseCreature</text>
</g>
<!-- BaseCreatureBehaviour&#45;&gt;BaseCreature -->
<g id="edge17" class="edge"><title>BaseCreatureBehaviour&#45;&gt;BaseCreature</title>
<path fill="none" stroke="black" d="M1330.37,-288.411C1341.78,-279.125 1356.16,-267.421 1368.55,-257.338"/>
<polygon fill="black" stroke="black" points="1370.8,-260.015 1376.35,-250.988 1366.38,-254.586 1370.8,-260.015"/>
</g>
<!-- ICollisionSystemParticipatorWrapper -->
<g id="node17" class="node"><title>ICollisionSystemParticipatorWrapper</title>
<ellipse fill="none" stroke="black" stroke-dasharray="5,2" cx="2162.99" cy="-162" rx="146.774" ry="18"/>
<text text-anchor="middle" x="2162.99" y="-158.3" font-family="Times New Roman,serif" font-size="14.00">ICollisionSystemParticipatorWrapper</text>
</g>
<!-- BaseCreatureBehaviour&#45;&gt;ICollisionSystemParticipatorWrapper -->
<g id="edge15" class="edge"><title>BaseCreatureBehaviour&#45;&gt;ICollisionSystemParticipatorWrapper</title>
<path fill="none" stroke="black" stroke-dasharray="5,2" d="M1386.22,-295.127C1461.7,-285.124 1580.52,-268.772 1682.99,-252 1822.54,-229.158 1984.08,-198.286 2079.67,-179.554"/>
<polygon fill="black" stroke="black" points="2080.42,-182.972 2089.56,-177.611 2079.08,-176.103 2080.42,-182.972"/>
</g>
<!-- MonoBehaviour -->
<g id="node18" class="node"><title>MonoBehaviour</title>
<ellipse fill="none" stroke="black" cx="1928.99" cy="-162" rx="69.5877" ry="18"/>
<text text-anchor="middle" x="1928.99" y="-158.3" font-family="Times New Roman,serif" font-size="14.00">MonoBehaviour</text>
</g>
<!-- BaseCreatureBehaviour&#45;&gt;MonoBehaviour -->
<g id="edge13" class="edge"><title>BaseCreatureBehaviour&#45;&gt;MonoBehaviour</title>
<path fill="none" stroke="black" stroke-width="2" d="M1380.85,-293.896C1440.19,-284.175 1526.99,-268.98 1601.99,-252 1699.36,-229.957 1811.3,-198.037 1875.73,-179.016"/>
<polygon fill="black" stroke="black" stroke-width="2" points="1877.06,-182.273 1885.65,-176.078 1875.07,-175.561 1877.06,-182.273"/>
</g>
<!-- ICreatureControllerWrapper -->
<g id="node19" class="node"><title>ICreatureControllerWrapper</title>
<ellipse fill="none" stroke="black" stroke-dasharray="5,2" cx="2162.99" cy="-234" rx="113.18" ry="18"/>
<text text-anchor="middle" x="2162.99" y="-230.3" font-family="Times New Roman,serif" font-size="14.00">ICreatureControllerWrapper</text>
</g>
<!-- BaseCreatureBehaviour&#45;&gt;ICreatureControllerWrapper -->
<g id="edge14" class="edge"><title>BaseCreatureBehaviour&#45;&gt;ICreatureControllerWrapper</title>
<path fill="none" stroke="black" stroke-dasharray="5,2" d="M1395.69,-297.968C1552.06,-285.135 1883.33,-257.95 2054.92,-243.869"/>
<polygon fill="black" stroke="black" points="2055.3,-247.35 2064.98,-243.043 2054.72,-240.373 2055.3,-247.35"/>
</g>
<!-- WrapperRigidbody2d -->
<g id="node20" class="node"><title>WrapperRigidbody2d</title>
<ellipse fill="none" stroke="black" cx="90.9919" cy="-234" rx="90.9839" ry="18"/>
<text text-anchor="middle" x="90.9919" y="-230.3" font-family="Times New Roman,serif" font-size="14.00">WrapperRigidbody2d</text>
</g>
<!-- BaseCreatureBehaviour&#45;&gt;WrapperRigidbody2d -->
<g id="edge23" class="edge"><title>BaseCreatureBehaviour&#45;&gt;WrapperRigidbody2d</title>
<path fill="none" stroke="black" d="M1216.02,-302.524C1028.99,-297.119 596.936,-282.252 234.992,-252 215.445,-250.366 194.457,-248.152 174.716,-245.862"/>
<polygon fill="black" stroke="black" points="174.862,-242.355 164.521,-244.661 174.042,-249.307 174.862,-242.355"/>
</g>
<!-- IHasSpriteRendererAndAudioSource -->
<g id="node22" class="node"><title>IHasSpriteRendererAndAudioSource</title>
<ellipse fill="none" stroke="black" stroke-dasharray="5,2" cx="1139.99" cy="-162" rx="146.474" ry="18"/>
<text text-anchor="middle" x="1139.99" y="-158.3" font-family="Times New Roman,serif" font-size="14.00">IHasSpriteRendererAndAudioSource</text>
</g>
<!-- BaseCreatureBehaviour&#45;&gt;IHasSpriteRendererAndAudioSource -->
<g id="edge16" class="edge"><title>BaseCreatureBehaviour&#45;&gt;IHasSpriteRendererAndAudioSource</title>
<path fill="none" stroke="black" stroke-dasharray="5,2" d="M1289.82,-288.153C1259.61,-262.92 1202.51,-215.221 1168.19,-186.552"/>
<polygon fill="black" stroke="black" points="1170.32,-183.77 1160.4,-180.046 1165.83,-189.143 1170.32,-183.77"/>
</g>
<!-- ICreatureController -->
<g id="node23" class="node"><title>ICreatureController</title>
<ellipse fill="none" stroke="black" stroke-dasharray="5,2" cx="2408.99" cy="-162" rx="81.4863" ry="18"/>
<text text-anchor="middle" x="2408.99" y="-158.3" font-family="Times New Roman,serif" font-size="14.00">ICreatureController</text>
</g>
<!-- BaseCreatureBehaviour&#45;&gt;ICreatureController -->
<g id="edge25" class="edge"><title>BaseCreatureBehaviour&#45;&gt;ICreatureController</title>
<path fill="none" stroke="black" d="M1404.24,-302.881C1632.73,-297.316 2203.44,-280.703 2284.99,-252 2324.07,-238.247 2361.66,-208.102 2385.01,-186.714"/>
<polygon fill="black" stroke="black" points="2387.45,-189.221 2392.36,-179.833 2382.67,-184.11 2387.45,-189.221"/>
</g>
<!-- ICollisionSystemParticipator -->
<g id="node26" class="node"><title>ICollisionSystemParticipator</title>
<ellipse fill="none" stroke="black" stroke-dasharray="5,2" cx="2306.99" cy="-90" rx="114.28" ry="18"/>
<text text-anchor="middle" x="2306.99" y="-86.3" font-family="Times New Roman,serif" font-size="14.00">ICollisionSystemParticipator</text>
</g>
<!-- BaseCreatureBehaviour&#45;&gt;ICollisionSystemParticipator -->
<g id="edge26" class="edge"><title>BaseCreatureBehaviour&#45;&gt;ICollisionSystemParticipator</title>
<path fill="none" stroke="black" d="M1405.23,-304.261C1623.62,-301.886 2155.06,-292.045 2328.99,-252 2408.95,-233.59 2453.68,-248.404 2498.99,-180 2527.34,-137.204 2467.55,-114.612 2407.39,-102.917"/>
<polygon fill="black" stroke="black" points="2407.82,-99.438 2397.35,-101.064 2406.55,-106.322 2407.82,-99.438"/>
</g>
<!-- BarBehaviour -->
<g id="node28" class="node"><title>BarBehaviour</title>
<ellipse fill="none" stroke="black" cx="1532.99" cy="-234" rx="59.5901" ry="18"/>
<text text-anchor="middle" x="1532.99" y="-230.3" font-family="Times New Roman,serif" font-size="14.00">BarBehaviour</text>
</g>
<!-- BaseCreatureBehaviour&#45;&gt;BarBehaviour -->
<g id="edge20" class="edge"><title>BaseCreatureBehaviour&#45;&gt;BarBehaviour</title>
<path fill="none" stroke="black" d="M1357.01,-290.24C1394.08,-278.605 1445.63,-262.422 1483.36,-250.58"/>
<polygon fill="black" stroke="black" points="1484.63,-253.85 1493.12,-247.515 1482.53,-247.171 1484.63,-253.85"/>
</g>
<!-- WrapperTransform -->
<g id="node32" class="node"><title>WrapperTransform</title>
<ellipse fill="none" stroke="black" cx="688.992" cy="-234" rx="81.4863" ry="18"/>
<text text-anchor="middle" x="688.992" y="-230.3" font-family="Times New Roman,serif" font-size="14.00">WrapperTransform</text>
</g>
<!-- BaseCreatureBehaviour&#45;&gt;WrapperTransform -->
<g id="edge24" class="edge"><title>BaseCreatureBehaviour&#45;&gt;WrapperTransform</title>
<path fill="none" stroke="black" d="M1229.99,-296.017C1136.28,-285.49 976.361,-267.513 838.992,-252 816.521,-249.462 792.157,-246.704 769.729,-244.162"/>
<polygon fill="black" stroke="black" points="769.905,-240.66 759.574,-243.011 769.117,-247.615 769.905,-240.66"/>
</g>
<!-- BaseCreatureBehaviour&#45;&gt;CreaturePhysicsProperties -->
<g id="edge19" class="edge"><title>BaseCreatureBehaviour&#45;&gt;CreaturePhysicsProperties</title>
<path fill="none" stroke="black" d="M1214.85,-304.35C1009.03,-302.179 528.364,-292.763 370.992,-252 315.732,-237.686 257.265,-206.218 221.442,-184.807"/>
<polygon fill="black" stroke="black" points="223.205,-181.783 212.838,-179.597 219.579,-187.771 223.205,-181.783"/>
</g>
<!-- CreatureFsm&#45;&gt;NotNull -->
<g id="edge29" class="edge"><title>CreatureFsm&#45;&gt;NotNull</title>
<path fill="none" stroke="black" d="M927.868,-220.306C896.041,-209.666 849.502,-194.011 808.992,-180 806.25,-179.052 803.423,-178.067 800.577,-177.072"/>
<polygon fill="black" stroke="black" points="801.521,-173.694 790.926,-173.679 799.199,-180.297 801.521,-173.694"/>
</g>
<!-- CreatureFsm&#45;&gt;IHasSpriteRendererAndAudioSource -->
<g id="edge28" class="edge"><title>CreatureFsm&#45;&gt;IHasSpriteRendererAndAudioSource</title>
<path fill="none" stroke="black" d="M999.954,-219.337C1025.54,-209.042 1061.04,-194.764 1089.88,-183.158"/>
<polygon fill="black" stroke="black" points="1091.42,-186.314 1099.39,-179.335 1088.81,-179.82 1091.42,-186.314"/>
</g>
<!-- ICreatureFsm -->
<g id="node30" class="node"><title>ICreatureFsm</title>
<ellipse fill="none" stroke="black" stroke-dasharray="5,2" cx="877.992" cy="-162" rx="60.3893" ry="18"/>
<text text-anchor="middle" x="877.992" y="-158.3" font-family="Times New Roman,serif" font-size="14.00">ICreatureFsm</text>
</g>
<!-- CreatureFsm&#45;&gt;ICreatureFsm -->
<g id="edge27" class="edge"><title>CreatureFsm&#45;&gt;ICreatureFsm</title>
<path fill="none" stroke="black" stroke-dasharray="5,2" d="M945.582,-216.765C933.92,-207.488 919.119,-195.714 906.342,-185.551"/>
<polygon fill="black" stroke="black" points="908.296,-182.633 898.291,-179.147 903.939,-188.112 908.296,-182.633"/>
</g>
<!-- Debug -->
<g id="node31" class="node"><title>Debug</title>
<ellipse fill="#e5e5e5" stroke="black" cx="1530.99" cy="-18" rx="34.394" ry="18"/>
<text text-anchor="middle" x="1530.99" y="-14.3" font-family="Times New Roman,serif" font-size="14.00">Debug</text>
</g>
<!-- CreatureFsm&#45;&gt;Debug -->
<g id="edge30" class="edge"><title>CreatureFsm&#45;&gt;Debug</title>
<path fill="none" stroke="black" d="M964.828,-215.966C964.441,-196.158 966.938,-163.673 984.992,-144 1059.14,-63.2037 1114.29,-97.291 1220.99,-72 1315.16,-49.6805 1427.54,-32.8609 1487.76,-24.6246"/>
<polygon fill="black" stroke="black" points="1488.24,-28.0922 1497.68,-23.2819 1487.3,-21.1555 1488.24,-28.0922"/>
</g>
<!-- BaseCreature&#45;&gt;CreatureHealth -->
<g id="edge33" class="edge"><title>BaseCreature&#45;&gt;CreatureHealth</title>
<path fill="none" stroke="black" d="M1435.78,-220.566C1472.95,-208.952 1528.61,-191.558 1569.01,-178.931"/>
<polygon fill="black" stroke="black" points="1570.18,-182.234 1578.68,-175.91 1568.09,-175.553 1570.18,-182.234"/>
</g>
<!-- BaseCreature&#45;&gt;IBarDisplay -->
<g id="edge36" class="edge"><title>BaseCreature&#45;&gt;IBarDisplay</title>
<path fill="none" stroke="black" d="M1427.99,-218.839C1443.8,-210.06 1461.49,-197.155 1470.99,-180 1481.34,-161.328 1481.98,-136.94 1480.38,-118.417"/>
<polygon fill="black" stroke="black" points="1483.84,-117.819 1479.24,-108.275 1476.88,-118.605 1483.84,-117.819"/>
</g>
<!-- BaseCreature&#45;&gt;ICreaturePhysics -->
<g id="edge35" class="edge"><title>BaseCreature&#45;&gt;ICreaturePhysics</title>
<path fill="none" stroke="black" d="M1337.25,-230.955C1218.71,-226.276 942.612,-212.577 712.992,-180 706.415,-179.067 699.574,-177.926 692.773,-176.68"/>
<polygon fill="black" stroke="black" points="693.35,-173.227 682.872,-174.792 692.039,-180.103 693.35,-173.227"/>
</g>
<!-- BarCollection -->
<g id="node16" class="node"><title>BarCollection</title>
<ellipse fill="none" stroke="black" cx="1401.99" cy="-162" rx="60.3893" ry="18"/>
<text text-anchor="middle" x="1401.99" y="-158.3" font-family="Times New Roman,serif" font-size="14.00">BarCollection</text>
</g>
<!-- BaseCreature&#45;&gt;BarCollection -->
<g id="edge32" class="edge"><title>BaseCreature&#45;&gt;BarCollection</title>
<path fill="none" stroke="black" d="M1397.48,-215.697C1398.14,-207.983 1398.93,-198.712 1399.67,-190.112"/>
<polygon fill="black" stroke="black" points="1403.16,-190.367 1400.53,-180.104 1396.18,-189.769 1403.16,-190.367"/>
</g>
<!-- TimerCollection -->
<g id="node24" class="node"><title>TimerCollection</title>
<ellipse fill="none" stroke="black" cx="1771.99" cy="-162" rx="69.5877" ry="18"/>
<text text-anchor="middle" x="1771.99" y="-158.3" font-family="Times New Roman,serif" font-size="14.00">TimerCollection</text>
</g>
<!-- BaseCreature&#45;&gt;TimerCollection -->
<g id="edge34" class="edge"><title>BaseCreature&#45;&gt;TimerCollection</title>
<path fill="none" stroke="black" d="M1439.03,-221.627C1447.28,-219.619 1455.88,-217.648 1463.99,-216 1564.96,-195.486 1591.7,-198.845 1692.99,-180 1698.82,-178.915 1704.88,-177.725 1710.94,-176.493"/>
<polygon fill="black" stroke="black" points="1712,-179.849 1721.08,-174.394 1710.58,-172.994 1712,-179.849"/>
</g>
<!-- FlipXCollection -->
<g id="node25" class="node"><title>FlipXCollection</title>
<ellipse fill="none" stroke="black" cx="1297.99" cy="-90" rx="68.4888" ry="18"/>
<text text-anchor="middle" x="1297.99" y="-86.3" font-family="Times New Roman,serif" font-size="14.00">FlipXCollection</text>
</g>
<!-- BaseCreature&#45;&gt;FlipXCollection -->
<g id="edge31" class="edge"><title>BaseCreature&#45;&gt;FlipXCollection</title>
<path fill="none" stroke="black" d="M1372.19,-217.419C1359.17,-207.901 1343.58,-194.742 1332.99,-180 1319.5,-161.228 1310.34,-136.552 1304.78,-117.946"/>
<polygon fill="black" stroke="black" points="1308.14,-116.981 1302.06,-108.309 1301.41,-118.884 1308.14,-116.981"/>
</g>
<!-- struct -->
<g id="node14" class="node"><title>struct</title>
<ellipse fill="none" stroke="black" cx="810.992" cy="-90" rx="31.3957" ry="18"/>
<text text-anchor="middle" x="810.992" y="-86.3" font-family="Times New Roman,serif" font-size="14.00">struct</text>
</g>
<!-- ICreaturePhysics&#45;&gt;IBasePhysics -->
<g id="edge37" class="edge"><title>ICreaturePhysics&#45;&gt;IBasePhysics</title>
<path fill="none" stroke="black" stroke-dasharray="5,2" d="M630.992,-143.697C630.992,-135.983 630.992,-126.712 630.992,-118.112"/>
<polygon fill="black" stroke="black" points="634.492,-118.104 630.992,-108.104 627.492,-118.104 634.492,-118.104"/>
</g>
<!-- BarCollection&#45;&gt;IBarDisplay -->
<g id="edge39" class="edge"><title>BarCollection&#45;&gt;IBarDisplay</title>
<path fill="none" stroke="black" d="M1419.53,-144.411C1429.09,-135.367 1441.07,-124.03 1451.54,-114.13"/>
<polygon fill="black" stroke="black" points="1453.98,-116.643 1458.84,-107.228 1449.17,-111.558 1453.98,-116.643"/>
</g>
<!-- BarCollection&#45;&gt;IFlipX -->
<g id="edge38" class="edge"><title>BarCollection&#45;&gt;IFlipX</title>
<path fill="none" stroke="black" stroke-dasharray="5,2" d="M1397.93,-143.904C1393.34,-125.712 1385.18,-96.2661 1374.99,-72 1371.05,-62.6256 1365.94,-52.7513 1361.11,-44.0998"/>
<polygon fill="black" stroke="black" points="1364.05,-42.2029 1356.04,-35.2734 1357.98,-45.6884 1364.05,-42.2029"/>
</g>
<!-- ICollisionSystemParticipatorWrapper&#45;&gt;ICollisionSystemParticipator -->
<g id="edge40" class="edge"><title>ICollisionSystemParticipatorWrapper&#45;&gt;ICollisionSystemParticipator</title>
<path fill="none" stroke="black" d="M2191.62,-144.233C2210.87,-134.359 2236.6,-121.799 2258.92,-111.359"/>
<polygon fill="black" stroke="black" points="2260.65,-114.414 2268.24,-107.028 2257.7,-108.065 2260.65,-114.414"/>
</g>
<!-- ICreatureControllerWrapper&#45;&gt;ICollisionSystemParticipatorWrapper -->
<g id="edge41" class="edge"><title>ICreatureControllerWrapper&#45;&gt;ICollisionSystemParticipatorWrapper</title>
<path fill="none" stroke="black" stroke-dasharray="5,2" d="M2162.99,-215.697C2162.99,-207.983 2162.99,-198.712 2162.99,-190.112"/>
<polygon fill="black" stroke="black" points="2166.49,-190.104 2162.99,-180.104 2159.49,-190.104 2166.49,-190.104"/>
</g>
<!-- ICreatureControllerWrapper&#45;&gt;ICreatureController -->
<g id="edge42" class="edge"><title>ICreatureControllerWrapper&#45;&gt;ICreatureController</title>
<path fill="none" stroke="black" d="M2215.77,-217.983C2255.54,-206.664 2310.06,-191.151 2351.05,-179.488"/>
<polygon fill="black" stroke="black" points="2352.23,-182.79 2360.89,-176.687 2350.32,-176.057 2352.23,-182.79"/>
</g>
<!-- WrapperRigidbody2d&#45;&gt;IRigidBody2d -->
<g id="edge43" class="edge"><title>WrapperRigidbody2d&#45;&gt;IRigidBody2d</title>
<path fill="none" stroke="black" stroke-dasharray="5,2" d="M79.5865,-216.006C68.0845,-196.536 54.2346,-164.665 70.9919,-144 93.4379,-116.319 185.91,-102.535 252.084,-96.0902"/>
<polygon fill="black" stroke="black" points="252.425,-99.5736 262.055,-95.1548 251.771,-92.6042 252.425,-99.5736"/>
</g>
<!-- ICreatureController&#45;&gt;ICollisionSystemParticipator -->
<g id="edge44" class="edge"><title>ICreatureController&#45;&gt;ICollisionSystemParticipator</title>
<path fill="none" stroke="black" stroke-dasharray="5,2" d="M2385.33,-144.765C2371.76,-135.446 2354.51,-123.609 2339.65,-113.414"/>
<polygon fill="black" stroke="black" points="2341.45,-110.406 2331.23,-107.633 2337.49,-116.178 2341.45,-110.406"/>
</g>
<!-- TimerCollection&#45;&gt;Callback -->
<g id="edge46" class="edge"><title>TimerCollection&#45;&gt;Callback</title>
<path fill="none" stroke="black" d="M1789.73,-144.146C1798.56,-134.512 1808.33,-121.651 1812.99,-108 1818.16,-92.8592 1818.16,-87.1408 1812.99,-72 1809.34,-61.3218 1802.57,-51.1264 1795.57,-42.5811"/>
<polygon fill="black" stroke="black" points="1798.1,-40.1548 1788.88,-34.9318 1792.83,-44.7632 1798.1,-40.1548"/>
</g>
<!-- Timer -->
<g id="node27" class="node"><title>Timer</title>
<ellipse fill="none" stroke="black" cx="1771.99" cy="-90" rx="32.4942" ry="18"/>
<text text-anchor="middle" x="1771.99" y="-86.3" font-family="Times New Roman,serif" font-size="14.00">Timer</text>
</g>
<!-- TimerCollection&#45;&gt;Timer -->
<g id="edge45" class="edge"><title>TimerCollection&#45;&gt;Timer</title>
<path fill="none" stroke="black" d="M1771.99,-143.697C1771.99,-135.983 1771.99,-126.712 1771.99,-118.112"/>
<polygon fill="black" stroke="black" points="1775.49,-118.104 1771.99,-108.104 1768.49,-118.104 1775.49,-118.104"/>
</g>
<!-- TimerNotFoundException -->
<g id="node35" class="node"><title>TimerNotFoundException</title>
<ellipse fill="none" stroke="black" cx="1966.99" cy="-90" rx="106.681" ry="18"/>
<text text-anchor="middle" x="1966.99" y="-86.3" font-family="Times New Roman,serif" font-size="14.00">TimerNotFoundException</text>
</g>
<!-- TimerCollection&#45;&gt;TimerNotFoundException -->
<g id="edge47" class="edge"><title>TimerCollection&#45;&gt;TimerNotFoundException</title>
<path fill="none" stroke="black" d="M1810.98,-147.003C1840.5,-136.409 1881.36,-121.74 1913.86,-110.073"/>
<polygon fill="black" stroke="black" points="1915.43,-113.23 1923.66,-106.557 1913.06,-106.641 1915.43,-113.23"/>
</g>
<!-- FlipXCollection&#45;&gt;IFlipX -->
<g id="edge48" class="edge"><title>FlipXCollection&#45;&gt;IFlipX</title>
<path fill="none" stroke="black" stroke-dasharray="5,2" d="M1309.61,-72.055C1315.47,-63.5048 1322.69,-52.975 1329.15,-43.5561"/>
<polygon fill="black" stroke="black" points="1332.04,-45.5337 1334.81,-35.307 1326.27,-41.5749 1332.04,-45.5337"/>
</g>
<!-- ICollisionSystemParticipator&#45;&gt;ISystemParticipator -->
<g id="edge49" class="edge"><title>ICollisionSystemParticipator&#45;&gt;ISystemParticipator</title>
<path fill="none" stroke="black" stroke-dasharray="5,2" d="M2306.99,-71.6966C2306.99,-63.9827 2306.99,-54.7125 2306.99,-46.1124"/>
<polygon fill="black" stroke="black" points="2310.49,-46.1043 2306.99,-36.1043 2303.49,-46.1044 2310.49,-46.1043"/>
</g>
<!-- ICollisionSystemParticipator&#45;&gt;ICollisionSystemParticipatorWrapper -->
<g id="edge50" class="edge"><title>ICollisionSystemParticipator&#45;&gt;ICollisionSystemParticipatorWrapper</title>
<path fill="none" stroke="black" stroke-dasharray="5,2" d="M2278.78,-107.552C2259.72,-117.336 2234.18,-129.815 2211.9,-140.253"/>
<polygon fill="black" stroke="black" points="2210.17,-137.198 2202.57,-144.588 2213.12,-143.545 2210.17,-137.198"/>
</g>
<!-- Timer&#45;&gt;Callback -->
<g id="edge51" class="edge"><title>Timer&#45;&gt;Callback</title>
<path fill="none" stroke="black" d="M1771.99,-71.6966C1771.99,-63.9827 1771.99,-54.7125 1771.99,-46.1124"/>
<polygon fill="black" stroke="black" points="1775.49,-46.1043 1771.99,-36.1043 1768.49,-46.1044 1775.49,-46.1043"/>
</g>
<!-- Timer&#45;&gt;Debug -->
<g id="edge52" class="edge"><title>Timer&#45;&gt;Debug</title>
<path fill="none" stroke="black" d="M1747.04,-78.0319C1741.79,-75.8993 1736.25,-73.7771 1730.99,-72 1676.88,-53.7034 1612.82,-37.6868 1572.05,-28.1777"/>
<polygon fill="black" stroke="black" points="1572.74,-24.7447 1562.21,-25.9029 1571.16,-31.5649 1572.74,-24.7447"/>
</g>
<!-- BarBehaviour&#45;&gt;IBarDisplay -->
<g id="edge54" class="edge"><title>BarBehaviour&#45;&gt;IBarDisplay</title>
<path fill="none" stroke="black" stroke-dasharray="5,2" d="M1528.38,-215.955C1523.25,-197.804 1514.32,-168.393 1503.99,-144 1500.12,-134.851 1495.24,-125.155 1490.64,-116.592"/>
<polygon fill="black" stroke="black" points="1493.71,-114.906 1485.83,-107.825 1487.58,-118.275 1493.71,-114.906"/>
</g>
<!-- BarBehaviour&#45;&gt;MonoBehaviour -->
<g id="edge53" class="edge"><title>BarBehaviour&#45;&gt;MonoBehaviour</title>
<path fill="none" stroke="black" stroke-width="2" d="M1585.19,-225.112C1648.3,-215.386 1757.69,-197.931 1850.99,-180 1856.66,-178.911 1862.55,-177.726 1868.43,-176.506"/>
<polygon fill="black" stroke="black" stroke-width="2" points="1869.23,-179.914 1878.3,-174.429 1867.79,-173.064 1869.23,-179.914"/>
</g>
<!-- ICreatureFsm&#45;&gt;Enum -->
<g id="edge56" class="edge"><title>ICreatureFsm&#45;&gt;Enum</title>
<path fill="none" stroke="black" stroke-dasharray="5,2" d="M881.453,-143.697C882.995,-135.983 884.849,-126.712 886.569,-118.112"/>
<polygon fill="black" stroke="black" points="890.042,-118.597 888.571,-108.104 883.178,-117.224 890.042,-118.597"/>
</g>
<!-- ICreatureFsm&#45;&gt;struct -->
<g id="edge55" class="edge"><title>ICreatureFsm&#45;&gt;struct</title>
<path fill="none" stroke="black" stroke-width="2" d="M862.114,-144.411C853.233,-135.132 842.042,-123.441 832.397,-113.363"/>
<polygon fill="black" stroke="black" stroke-width="2" points="834.829,-110.842 825.386,-106.038 829.772,-115.683 834.829,-110.842"/>
</g>
<!-- WrapperTransform&#45;&gt;ITransform -->
<g id="edge57" class="edge"><title>WrapperTransform&#45;&gt;ITransform</title>
<path fill="none" stroke="black" stroke-dasharray="5,2" d="M633.287,-220.755C605.756,-212.628 573.313,-199.729 548.992,-180 528.39,-163.288 512.879,-137.067 503.279,-117.407"/>
<polygon fill="black" stroke="black" points="506.326,-115.661 498.923,-108.082 499.984,-118.623 506.326,-115.661"/>
</g>
<!-- IBasePhysics&#45;&gt;IFlipX -->
<g id="edge58" class="edge"><title>IBasePhysics&#45;&gt;IFlipX</title>
<path fill="none" stroke="black" stroke-dasharray="5,2" d="M684.8,-82.0971C710.817,-78.8538 742.507,-75.0415 770.992,-72 968.919,-50.8656 1205.72,-30.632 1302.03,-22.6157"/>
<polygon fill="black" stroke="black" points="1302.58,-26.0819 1312.26,-21.7663 1302,-19.106 1302.58,-26.0819"/>
</g>
<!-- TimerNotFoundException&#45;&gt;Exception -->
<g id="edge59" class="edge"><title>TimerNotFoundException&#45;&gt;Exception</title>
<path fill="none" stroke="black" stroke-width="2" d="M1966.99,-71.6966C1966.99,-63.9827 1966.99,-54.7125 1966.99,-46.1124"/>
<polygon fill="black" stroke="black" stroke-width="2" points="1970.49,-46.1043 1966.99,-36.1043 1963.49,-46.1044 1970.49,-46.1043"/>
</g>
</g>
</svg>
