<?xml version="1.0" encoding="UTF-8" standalone="no"?>
<!DOCTYPE svg PUBLIC "-//W3C//DTD SVG 1.1//EN"
 "http://www.w3.org/Graphics/SVG/1.1/DTD/svg11.dtd">
<!-- Generated by graphviz version 2.38.0 (20140413.2041)
 -->
<!-- Title: %3 Pages: 1 -->
<svg width="1170pt" height="332pt"
 viewBox="0.00 0.00 1169.94 332.00" xmlns="http://www.w3.org/2000/svg" xmlns:xlink="http://www.w3.org/1999/xlink">
<g id="graph0" class="graph" transform="scale(1 1) rotate(0) translate(4 328)">
<title>%3</title>
<polygon fill="white" stroke="none" points="-4,4 -4,-328 1165.94,-328 1165.94,4 -4,4"/>
<!-- Debug -->
<g id="node1" class="node"><title>Debug</title>
<ellipse fill="#e5e5e5" stroke="black" cx="413.945" cy="-18" rx="34.394" ry="18"/>
<text text-anchor="middle" x="413.945" y="-14.3" font-family="Times New Roman,serif" font-size="14.00">Debug</text>
</g>
<!-- IBarDisplay -->
<g id="node2" class="node"><title>IBarDisplay</title>
<ellipse fill="none" stroke="black" stroke-dasharray="5,2" cx="53.9452" cy="-162" rx="53.8905" ry="18"/>
<text text-anchor="middle" x="53.9452" y="-158.3" font-family="Times New Roman,serif" font-size="14.00">IBarDisplay</text>
</g>
<!-- IFlipX -->
<g id="node19" class="node"><title>IFlipX</title>
<ellipse fill="none" stroke="black" stroke-dasharray="5,2" cx="53.9452" cy="-90" rx="34.394" ry="18"/>
<text text-anchor="middle" x="53.9452" y="-86.3" font-family="Times New Roman,serif" font-size="14.00">IFlipX</text>
</g>
<!-- IBarDisplay&#45;&gt;IFlipX -->
<g id="edge1" class="edge"><title>IBarDisplay&#45;&gt;IFlipX</title>
<path fill="none" stroke="black" stroke-dasharray="5,2" d="M53.9452,-143.697C53.9452,-135.983 53.9452,-126.712 53.9452,-118.112"/>
<polygon fill="black" stroke="black" points="57.4453,-118.104 53.9452,-108.104 50.4453,-118.104 57.4453,-118.104"/>
</g>
<!-- TimerCollection -->
<g id="node3" class="node"><title>TimerCollection</title>
<ellipse fill="none" stroke="black" cx="448.945" cy="-162" rx="69.5877" ry="18"/>
<text text-anchor="middle" x="448.945" y="-158.3" font-family="Times New Roman,serif" font-size="14.00">TimerCollection</text>
</g>
<!-- TimerNotFoundException -->
<g id="node9" class="node"><title>TimerNotFoundException</title>
<ellipse fill="none" stroke="black" cx="291.945" cy="-90" rx="106.681" ry="18"/>
<text text-anchor="middle" x="291.945" y="-86.3" font-family="Times New Roman,serif" font-size="14.00">TimerNotFoundException</text>
</g>
<!-- TimerCollection&#45;&gt;TimerNotFoundException -->
<g id="edge4" class="edge"><title>TimerCollection&#45;&gt;TimerNotFoundException</title>
<path fill="none" stroke="black" d="M415.65,-146.155C392.822,-135.977 362.259,-122.35 337.224,-111.188"/>
<polygon fill="black" stroke="black" points="338.486,-107.919 327.927,-107.043 335.635,-114.312 338.486,-107.919"/>
</g>
<!-- Timer -->
<g id="node12" class="node"><title>Timer</title>
<ellipse fill="none" stroke="black" cx="448.945" cy="-90" rx="32.4942" ry="18"/>
<text text-anchor="middle" x="448.945" y="-86.3" font-family="Times New Roman,serif" font-size="14.00">Timer</text>
</g>
<!-- TimerCollection&#45;&gt;Timer -->
<g id="edge2" class="edge"><title>TimerCollection&#45;&gt;Timer</title>
<path fill="none" stroke="black" d="M448.945,-143.697C448.945,-135.983 448.945,-126.712 448.945,-118.112"/>
<polygon fill="black" stroke="black" points="452.445,-118.104 448.945,-108.104 445.445,-118.104 452.445,-118.104"/>
</g>
<!-- Callback -->
<g id="node14" class="node"><title>Callback</title>
<ellipse fill="#e5e5e5" stroke="black" cx="508.945" cy="-18" rx="42.4939" ry="18"/>
<text text-anchor="middle" x="508.945" y="-14.3" font-family="Times New Roman,serif" font-size="14.00">Callback</text>
</g>
<!-- TimerCollection&#45;&gt;Callback -->
<g id="edge3" class="edge"><title>TimerCollection&#45;&gt;Callback</title>
<path fill="none" stroke="black" d="M465.153,-144.166C473.748,-134.344 483.777,-121.297 489.945,-108 499.061,-88.3513 503.862,-64.2234 506.356,-46.0487"/>
<polygon fill="black" stroke="black" points="509.831,-46.4659 507.572,-36.1145 502.883,-45.6149 509.831,-46.4659"/>
</g>
<!-- IEventBus -->
<g id="node4" class="node"><title>IEventBus</title>
<ellipse fill="none" stroke="black" stroke-dasharray="5,2" cx="889.945" cy="-162" rx="48.1917" ry="18"/>
<text text-anchor="middle" x="889.945" y="-158.3" font-family="Times New Roman,serif" font-size="14.00">IEventBus</text>
</g>
<!-- ChargeEffectBehaviour -->
<g id="node5" class="node"><title>ChargeEffectBehaviour</title>
<ellipse fill="none" stroke="black" cx="690.945" cy="-306" rx="94.7833" ry="18"/>
<text text-anchor="middle" x="690.945" y="-302.3" font-family="Times New Roman,serif" font-size="14.00">ChargeEffectBehaviour</text>
</g>
<!-- BarBehaviour -->
<g id="node6" class="node"><title>BarBehaviour</title>
<ellipse fill="none" stroke="black" cx="190.945" cy="-234" rx="59.5901" ry="18"/>
<text text-anchor="middle" x="190.945" y="-230.3" font-family="Times New Roman,serif" font-size="14.00">BarBehaviour</text>
</g>
<!-- ChargeEffectBehaviour&#45;&gt;BarBehaviour -->
<g id="edge5" class="edge"><title>ChargeEffectBehaviour&#45;&gt;BarBehaviour</title>
<path fill="none" stroke="black" stroke-width="2" d="M606.66,-297.634C519.447,-289.312 379.505,-273.998 259.945,-252 254.843,-251.061 249.556,-249.972 244.282,-248.808"/>
<polygon fill="black" stroke="black" stroke-width="2" points="244.737,-245.321 234.207,-246.495 243.171,-252.144 244.737,-245.321"/>
</g>
<!-- ICanBeActivated -->
<g id="node10" class="node"><title>ICanBeActivated</title>
<ellipse fill="none" stroke="black" stroke-dasharray="5,2" cx="608.945" cy="-162" rx="72.5877" ry="18"/>
<text text-anchor="middle" x="608.945" y="-158.3" font-family="Times New Roman,serif" font-size="14.00">ICanBeActivated</text>
</g>
<!-- ChargeEffectBehaviour&#45;&gt;ICanBeActivated -->
<g id="edge6" class="edge"><title>ChargeEffectBehaviour&#45;&gt;ICanBeActivated</title>
<path fill="none" stroke="black" stroke-dasharray="5,2" d="M690.538,-287.729C689.381,-268.861 685.368,-238.348 671.945,-216 664.732,-203.99 653.807,-193.407 643.07,-184.919"/>
<polygon fill="black" stroke="black" points="645.063,-182.04 634.96,-178.848 640.868,-187.643 645.063,-182.04"/>
</g>
<!-- NotNull -->
<g id="node22" class="node"><title>NotNull</title>
<ellipse fill="#e5e5e5" stroke="black" cx="1122.95" cy="-162" rx="38.9931" ry="18"/>
<text text-anchor="middle" x="1122.95" y="-158.3" font-family="Times New Roman,serif" font-size="14.00">NotNull</text>
</g>
<!-- ChargeEffectBehaviour&#45;&gt;NotNull -->
<g id="edge7" class="edge"><title>ChargeEffectBehaviour&#45;&gt;NotNull</title>
<path fill="none" stroke="black" d="M786.05,-305.131C893.411,-303.217 1059,-293.371 1103.95,-252 1120.7,-236.58 1124.61,-210.32 1124.83,-190.309"/>
<polygon fill="black" stroke="black" points="1128.33,-190.159 1124.64,-180.225 1121.33,-190.288 1128.33,-190.159"/>
</g>
<!-- BarBehaviour&#45;&gt;IBarDisplay -->
<g id="edge9" class="edge"><title>BarBehaviour&#45;&gt;IBarDisplay</title>
<path fill="none" stroke="black" stroke-dasharray="5,2" d="M161.891,-218.155C141.41,-207.69 113.793,-193.579 91.6204,-182.25"/>
<polygon fill="black" stroke="black" points="92.9852,-179.017 82.4877,-177.584 89.8002,-185.251 92.9852,-179.017"/>
</g>
<!-- MonoBehaviour -->
<g id="node13" class="node"><title>MonoBehaviour</title>
<ellipse fill="none" stroke="black" cx="194.945" cy="-162" rx="69.5877" ry="18"/>
<text text-anchor="middle" x="194.945" y="-158.3" font-family="Times New Roman,serif" font-size="14.00">MonoBehaviour</text>
</g>
<!-- BarBehaviour&#45;&gt;MonoBehaviour -->
<g id="edge8" class="edge"><title>BarBehaviour&#45;&gt;MonoBehaviour</title>
<path fill="none" stroke="black" stroke-width="2" d="M191.934,-215.697C192.375,-207.983 192.905,-198.712 193.396,-190.112"/>
<polygon fill="black" stroke="black" stroke-width="2" points="196.892,-190.288 193.968,-180.104 189.903,-189.888 196.892,-190.288"/>
</g>
<!-- PauseMenuBehaviour -->
<g id="node7" class="node"><title>PauseMenuBehaviour</title>
<ellipse fill="none" stroke="black" cx="295.945" cy="-306" rx="89.0842" ry="18"/>
<text text-anchor="middle" x="295.945" y="-302.3" font-family="Times New Roman,serif" font-size="14.00">PauseMenuBehaviour</text>
</g>
<!-- PauseMenuBehaviour&#45;&gt;MonoBehaviour -->
<g id="edge10" class="edge"><title>PauseMenuBehaviour&#45;&gt;MonoBehaviour</title>
<path fill="none" stroke="black" stroke-width="2" d="M211.343,-300.272C177.974,-293.747 142.716,-280.039 121.945,-252 112.421,-239.143 114.679,-230.255 121.945,-216 128.822,-202.509 140.918,-191.648 153.309,-183.356"/>
<polygon fill="black" stroke="black" stroke-width="2" points="155.234,-186.28 161.874,-178.024 151.535,-180.337 155.234,-186.28"/>
</g>
<!-- IPauseMenu -->
<g id="node16" class="node"><title>IPauseMenu</title>
<ellipse fill="none" stroke="black" stroke-dasharray="5,2" cx="606.945" cy="-234" rx="55.7903" ry="18"/>
<text text-anchor="middle" x="606.945" y="-230.3" font-family="Times New Roman,serif" font-size="14.00">IPauseMenu</text>
</g>
<!-- PauseMenuBehaviour&#45;&gt;IPauseMenu -->
<g id="edge11" class="edge"><title>PauseMenuBehaviour&#45;&gt;IPauseMenu</title>
<path fill="none" stroke="black" stroke-dasharray="5,2" d="M356.516,-292.718C406.412,-282.416 478.943,-267.018 541.945,-252 546.34,-250.952 550.893,-249.833 555.456,-248.686"/>
<polygon fill="black" stroke="black" points="556.576,-252.013 565.402,-246.153 554.848,-245.23 556.576,-252.013"/>
</g>
<!-- SceneLoaderBehaviour -->
<g id="node8" class="node"><title>SceneLoaderBehaviour</title>
<ellipse fill="none" stroke="black" cx="813.945" cy="-234" rx="94.7833" ry="18"/>
<text text-anchor="middle" x="813.945" y="-230.3" font-family="Times New Roman,serif" font-size="14.00">SceneLoaderBehaviour</text>
</g>
<!-- SceneLoaderBehaviour&#45;&gt;MonoBehaviour -->
<g id="edge12" class="edge"><title>SceneLoaderBehaviour&#45;&gt;MonoBehaviour</title>
<path fill="none" stroke="black" stroke-width="2" d="M736.978,-223.374C715.907,-220.851 693.058,-218.218 671.945,-216 495.306,-197.442 449.533,-206.732 273.945,-180 267.665,-179.044 261.135,-177.894 254.64,-176.649"/>
<polygon fill="black" stroke="black" stroke-width="2" points="254.994,-173.151 244.503,-174.629 253.625,-180.016 254.994,-173.151"/>
</g>
<!-- ISceneLoader -->
<g id="node21" class="node"><title>ISceneLoader</title>
<ellipse fill="none" stroke="black" stroke-dasharray="5,2" cx="761.945" cy="-162" rx="61.99" ry="18"/>
<text text-anchor="middle" x="761.945" y="-158.3" font-family="Times New Roman,serif" font-size="14.00">ISceneLoader</text>
</g>
<!-- SceneLoaderBehaviour&#45;&gt;ISceneLoader -->
<g id="edge13" class="edge"><title>SceneLoaderBehaviour&#45;&gt;ISceneLoader</title>
<path fill="none" stroke="black" stroke-dasharray="5,2" d="M801.357,-216.055C795.098,-207.629 787.41,-197.28 780.492,-187.966"/>
<polygon fill="black" stroke="black" points="783.19,-185.729 774.417,-179.789 777.571,-189.904 783.19,-185.729"/>
</g>
<!-- SceneLoaderBehaviour&#45;&gt;NotNull -->
<g id="edge14" class="edge"><title>SceneLoaderBehaviour&#45;&gt;NotNull</title>
<path fill="none" stroke="black" d="M883.26,-221.654C936.22,-212.329 1010.78,-197.783 1074.95,-180 1077.92,-179.177 1080.97,-178.262 1084.03,-177.296"/>
<polygon fill="black" stroke="black" points="1085.32,-180.556 1093.71,-174.088 1083.11,-173.911 1085.32,-180.556"/>
</g>
<!-- Exception -->
<g id="node17" class="node"><title>Exception</title>
<ellipse fill="none" stroke="black" cx="291.945" cy="-18" rx="47.3916" ry="18"/>
<text text-anchor="middle" x="291.945" y="-14.3" font-family="Times New Roman,serif" font-size="14.00">Exception</text>
</g>
<!-- TimerNotFoundException&#45;&gt;Exception -->
<g id="edge15" class="edge"><title>TimerNotFoundException&#45;&gt;Exception</title>
<path fill="none" stroke="black" stroke-width="2" d="M291.945,-71.6966C291.945,-63.9827 291.945,-54.7125 291.945,-46.1124"/>
<polygon fill="black" stroke="black" stroke-width="2" points="295.445,-46.1043 291.945,-36.1043 288.445,-46.1044 295.445,-46.1043"/>
</g>
<!-- FadeInBehaviour -->
<g id="node11" class="node"><title>FadeInBehaviour</title>
<ellipse fill="none" stroke="black" cx="341.945" cy="-234" rx="72.5877" ry="18"/>
<text text-anchor="middle" x="341.945" y="-230.3" font-family="Times New Roman,serif" font-size="14.00">FadeInBehaviour</text>
</g>
<!-- FadeInBehaviour&#45;&gt;TimerCollection -->
<g id="edge18" class="edge"><title>FadeInBehaviour&#45;&gt;TimerCollection</title>
<path fill="none" stroke="black" d="M366.493,-216.941C381.174,-207.336 400.016,-195.009 415.982,-184.565"/>
<polygon fill="black" stroke="black" points="418.059,-187.388 424.511,-178.985 414.227,-181.53 418.059,-187.388"/>
</g>
<!-- FadeInBehaviour&#45;&gt;MonoBehaviour -->
<g id="edge16" class="edge"><title>FadeInBehaviour&#45;&gt;MonoBehaviour</title>
<path fill="none" stroke="black" stroke-width="2" d="M310.048,-217.811C288.207,-207.41 259.056,-193.529 235.556,-182.339"/>
<polygon fill="black" stroke="black" stroke-width="2" points="237.06,-179.178 226.527,-178.039 234.051,-185.498 237.06,-179.178"/>
</g>
<!-- IFadeIn -->
<g id="node15" class="node"><title>IFadeIn</title>
<ellipse fill="none" stroke="black" stroke-dasharray="5,2" cx="321.945" cy="-162" rx="38.9931" ry="18"/>
<text text-anchor="middle" x="321.945" y="-158.3" font-family="Times New Roman,serif" font-size="14.00">IFadeIn</text>
</g>
<!-- FadeInBehaviour&#45;&gt;IFadeIn -->
<g id="edge17" class="edge"><title>FadeInBehaviour&#45;&gt;IFadeIn</title>
<path fill="none" stroke="black" stroke-dasharray="5,2" d="M337.001,-215.697C334.773,-207.898 332.091,-198.509 329.611,-189.829"/>
<polygon fill="black" stroke="black" points="332.945,-188.758 326.832,-180.104 326.214,-190.681 332.945,-188.758"/>
</g>
<!-- Timer&#45;&gt;Debug -->
<g id="edge20" class="edge"><title>Timer&#45;&gt;Debug</title>
<path fill="none" stroke="black" d="M440.651,-72.411C436.57,-64.2493 431.555,-54.2203 426.978,-45.0653"/>
<polygon fill="black" stroke="black" points="430.026,-43.3352 422.423,-35.9562 423.765,-46.4658 430.026,-43.3352"/>
</g>
<!-- Timer&#45;&gt;Callback -->
<g id="edge19" class="edge"><title>Timer&#45;&gt;Callback</title>
<path fill="none" stroke="black" d="M462.261,-73.4647C469.889,-64.5657 479.627,-53.2051 488.233,-43.1644"/>
<polygon fill="black" stroke="black" points="490.98,-45.3376 494.83,-35.4672 485.665,-40.782 490.98,-45.3376"/>
</g>
<!-- IPauseMenu&#45;&gt;ICanBeActivated -->
<g id="edge21" class="edge"><title>IPauseMenu&#45;&gt;ICanBeActivated</title>
<path fill="none" stroke="black" stroke-dasharray="5,2" d="M607.44,-215.697C607.66,-207.983 607.925,-198.712 608.171,-190.112"/>
<polygon fill="black" stroke="black" points="611.669,-190.2 608.457,-180.104 604.672,-190 611.669,-190.2"/>
</g>
<!-- IPlayerInput -->
<g id="node18" class="node"><title>IPlayerInput</title>
<ellipse fill="none" stroke="black" stroke-dasharray="5,2" cx="1010.95" cy="-162" rx="55.4913" ry="18"/>
<text text-anchor="middle" x="1010.95" y="-158.3" font-family="Times New Roman,serif" font-size="14.00">IPlayerInput</text>
</g>
<!-- GameState -->
<g id="node20" class="node"><title>GameState</title>
<ellipse fill="none" stroke="black" cx="482.945" cy="-234" rx="50.0912" ry="18"/>
<text text-anchor="middle" x="482.945" y="-230.3" font-family="Times New Roman,serif" font-size="14.00">GameState</text>
</g>
<!-- GameState&#45;&gt;TimerCollection -->
<g id="edge23" class="edge"><title>GameState&#45;&gt;TimerCollection</title>
<path fill="none" stroke="black" d="M474.715,-216.055C470.847,-208.091 466.145,-198.411 461.821,-189.51"/>
<polygon fill="black" stroke="black" points="464.853,-187.741 457.336,-180.275 458.557,-190.8 464.853,-187.741"/>
</g>
<!-- GameState&#45;&gt;IEventBus -->
<g id="edge22" class="edge"><title>GameState&#45;&gt;IEventBus</title>
<path fill="none" stroke="black" stroke-dasharray="5,2" d="M519.231,-221.574C526.69,-219.5 534.53,-217.517 541.945,-216 669.62,-189.878 705.394,-206.716 832.945,-180 836.87,-179.178 840.915,-178.214 844.954,-177.171"/>
<polygon fill="black" stroke="black" points="846.187,-180.462 854.909,-174.448 844.34,-173.71 846.187,-180.462"/>
</g>
<!-- GameState&#45;&gt;ICanBeActivated -->
<g id="edge25" class="edge"><title>GameState&#45;&gt;ICanBeActivated</title>
<path fill="none" stroke="black" d="M509.052,-218.496C527.18,-208.425 551.6,-194.859 571.757,-183.66"/>
<polygon fill="black" stroke="black" points="573.639,-186.619 580.681,-178.703 570.239,-180.499 573.639,-186.619"/>
</g>
<!-- GameState&#45;&gt;IFadeIn -->
<g id="edge24" class="edge"><title>GameState&#45;&gt;IFadeIn</title>
<path fill="none" stroke="black" d="M452.283,-219.669C425.677,-208.101 387.097,-191.327 358.813,-179.03"/>
<polygon fill="black" stroke="black" points="359.841,-175.66 349.275,-174.883 357.05,-182.08 359.841,-175.66"/>
</g>
<!-- GameState&#45;&gt;ISceneLoader -->
<g id="edge26" class="edge"><title>GameState&#45;&gt;ISceneLoader</title>
<path fill="none" stroke="black" d="M520.33,-221.959C527.49,-219.921 534.937,-217.853 541.945,-216 549.978,-213.876 643.495,-191.408 705.989,-176.415"/>
<polygon fill="black" stroke="black" points="706.827,-179.814 715.735,-174.078 705.194,-173.007 706.827,-179.814"/>
</g>
<!-- UiKeyboardListener -->
<g id="node23" class="node"><title>UiKeyboardListener</title>
<ellipse fill="none" stroke="black" cx="1010.95" cy="-234" rx="83.6854" ry="18"/>
<text text-anchor="middle" x="1010.95" y="-230.3" font-family="Times New Roman,serif" font-size="14.00">UiKeyboardListener</text>
</g>
<!-- UiKeyboardListener&#45;&gt;IEventBus -->
<g id="edge27" class="edge"><title>UiKeyboardListener&#45;&gt;IEventBus</title>
<path fill="none" stroke="black" d="M983.185,-216.941C965.557,-206.742 942.622,-193.474 923.91,-182.649"/>
<polygon fill="black" stroke="black" points="925.513,-179.533 915.105,-177.555 922.008,-185.592 925.513,-179.533"/>
</g>
<!-- UiKeyboardListener&#45;&gt;IPlayerInput -->
<g id="edge28" class="edge"><title>UiKeyboardListener&#45;&gt;IPlayerInput</title>
<path fill="none" stroke="black" d="M1010.95,-215.697C1010.95,-207.983 1010.95,-198.712 1010.95,-190.112"/>
<polygon fill="black" stroke="black" points="1014.45,-190.104 1010.95,-180.104 1007.45,-190.104 1014.45,-190.104"/>
</g>
</g>
</svg>
