<?xml version="1.0" encoding="UTF-8" standalone="no"?>
<!DOCTYPE svg PUBLIC "-//W3C//DTD SVG 1.1//EN"
 "http://www.w3.org/Graphics/SVG/1.1/DTD/svg11.dtd">
<!-- Generated by graphviz version 2.38.0 (20140413.2041)
 -->
<!-- Title: %3 Pages: 1 -->
<svg width="1049pt" height="260pt"
 viewBox="0.00 0.00 1049.14 260.00" xmlns="http://www.w3.org/2000/svg" xmlns:xlink="http://www.w3.org/1999/xlink">
<g id="graph0" class="graph" transform="scale(1 1) rotate(0) translate(4 256)">
<title>%3</title>
<polygon fill="white" stroke="none" points="-4,4 -4,-256 1045.14,-256 1045.14,4 -4,4"/>
<!-- UiKeyboardListener -->
<g id="node1" class="node"><title>UiKeyboardListener</title>
<ellipse fill="none" stroke="black" cx="115.245" cy="-234" rx="83.6854" ry="18"/>
<text text-anchor="middle" x="115.245" y="-230.3" font-family="Times New Roman,serif" font-size="14.00">UiKeyboardListener</text>
</g>
<!-- IPlayerInput -->
<g id="node7" class="node"><title>IPlayerInput</title>
<ellipse fill="none" stroke="black" stroke-dasharray="5,2" cx="55.2451" cy="-162" rx="55.4913" ry="18"/>
<text text-anchor="middle" x="55.2451" y="-158.3" font-family="Times New Roman,serif" font-size="14.00">IPlayerInput</text>
</g>
<!-- UiKeyboardListener&#45;&gt;IPlayerInput -->
<g id="edge2" class="edge"><title>UiKeyboardListener&#45;&gt;IPlayerInput</title>
<path fill="none" stroke="black" d="M100.721,-216.055C93.3509,-207.457 84.265,-196.857 76.1571,-187.397"/>
<polygon fill="black" stroke="black" points="78.801,-185.104 69.6357,-179.789 73.4862,-189.659 78.801,-185.104"/>
</g>
<!-- IEventBus -->
<g id="node15" class="node"><title>IEventBus</title>
<ellipse fill="none" stroke="black" stroke-dasharray="5,2" cx="176.245" cy="-162" rx="48.1917" ry="18"/>
<text text-anchor="middle" x="176.245" y="-158.3" font-family="Times New Roman,serif" font-size="14.00">IEventBus</text>
</g>
<!-- UiKeyboardListener&#45;&gt;IEventBus -->
<g id="edge1" class="edge"><title>UiKeyboardListener&#45;&gt;IEventBus</title>
<path fill="none" stroke="black" d="M130.011,-216.055C137.614,-207.33 147.014,-196.544 155.348,-186.981"/>
<polygon fill="black" stroke="black" points="158.104,-189.146 162.035,-179.307 152.826,-184.547 158.104,-189.146"/>
</g>
<!-- IFadeIn -->
<g id="node2" class="node"><title>IFadeIn</title>
<ellipse fill="none" stroke="black" stroke-dasharray="5,2" cx="477.245" cy="-162" rx="38.9931" ry="18"/>
<text text-anchor="middle" x="477.245" y="-158.3" font-family="Times New Roman,serif" font-size="14.00">IFadeIn</text>
</g>
<!-- TimerCollection -->
<g id="node3" class="node"><title>TimerCollection</title>
<ellipse fill="none" stroke="black" cx="312.245" cy="-162" rx="69.5877" ry="18"/>
<text text-anchor="middle" x="312.245" y="-158.3" font-family="Times New Roman,serif" font-size="14.00">TimerCollection</text>
</g>
<!-- TimerNotFoundException -->
<g id="node4" class="node"><title>TimerNotFoundException</title>
<ellipse fill="none" stroke="black" cx="155.245" cy="-90" rx="106.681" ry="18"/>
<text text-anchor="middle" x="155.245" y="-86.3" font-family="Times New Roman,serif" font-size="14.00">TimerNotFoundException</text>
</g>
<!-- TimerCollection&#45;&gt;TimerNotFoundException -->
<g id="edge5" class="edge"><title>TimerCollection&#45;&gt;TimerNotFoundException</title>
<path fill="none" stroke="black" d="M278.949,-146.155C256.122,-135.977 225.559,-122.35 200.524,-111.188"/>
<polygon fill="black" stroke="black" points="201.786,-107.919 191.227,-107.043 198.935,-114.312 201.786,-107.919"/>
</g>
<!-- Timer -->
<g id="node6" class="node"><title>Timer</title>
<ellipse fill="none" stroke="black" cx="312.245" cy="-90" rx="32.4942" ry="18"/>
<text text-anchor="middle" x="312.245" y="-86.3" font-family="Times New Roman,serif" font-size="14.00">Timer</text>
</g>
<!-- TimerCollection&#45;&gt;Timer -->
<g id="edge3" class="edge"><title>TimerCollection&#45;&gt;Timer</title>
<path fill="none" stroke="black" d="M312.245,-143.697C312.245,-135.983 312.245,-126.712 312.245,-118.112"/>
<polygon fill="black" stroke="black" points="315.745,-118.104 312.245,-108.104 308.745,-118.104 315.745,-118.104"/>
</g>
<!-- Callback -->
<g id="node18" class="node"><title>Callback</title>
<ellipse fill="#e5e5e5" stroke="black" cx="372.245" cy="-18" rx="42.4939" ry="18"/>
<text text-anchor="middle" x="372.245" y="-14.3" font-family="Times New Roman,serif" font-size="14.00">Callback</text>
</g>
<!-- TimerCollection&#45;&gt;Callback -->
<g id="edge4" class="edge"><title>TimerCollection&#45;&gt;Callback</title>
<path fill="none" stroke="black" d="M328.453,-144.166C337.048,-134.344 347.076,-121.297 353.245,-108 362.361,-88.3513 367.162,-64.2234 369.656,-46.0487"/>
<polygon fill="black" stroke="black" points="373.131,-46.4659 370.872,-36.1145 366.182,-45.6149 373.131,-46.4659"/>
</g>
<!-- Exception -->
<g id="node8" class="node"><title>Exception</title>
<ellipse fill="none" stroke="black" cx="155.245" cy="-18" rx="47.3916" ry="18"/>
<text text-anchor="middle" x="155.245" y="-14.3" font-family="Times New Roman,serif" font-size="14.00">Exception</text>
</g>
<!-- TimerNotFoundException&#45;&gt;Exception -->
<g id="edge6" class="edge"><title>TimerNotFoundException&#45;&gt;Exception</title>
<path fill="none" stroke="black" stroke-width="2" d="M155.245,-71.6966C155.245,-63.9827 155.245,-54.7125 155.245,-46.1124"/>
<polygon fill="black" stroke="black" stroke-width="2" points="158.745,-46.1043 155.245,-36.1043 151.745,-46.1044 158.745,-46.1043"/>
</g>
<!-- Debug -->
<g id="node5" class="node"><title>Debug</title>
<ellipse fill="#e5e5e5" stroke="black" cx="277.245" cy="-18" rx="34.394" ry="18"/>
<text text-anchor="middle" x="277.245" y="-14.3" font-family="Times New Roman,serif" font-size="14.00">Debug</text>
</g>
<!-- Timer&#45;&gt;Debug -->
<g id="edge8" class="edge"><title>Timer&#45;&gt;Debug</title>
<path fill="none" stroke="black" d="M303.951,-72.411C299.87,-64.2493 294.855,-54.2203 290.278,-45.0653"/>
<polygon fill="black" stroke="black" points="293.326,-43.3352 285.723,-35.9562 287.065,-46.4658 293.326,-43.3352"/>
</g>
<!-- Timer&#45;&gt;Callback -->
<g id="edge7" class="edge"><title>Timer&#45;&gt;Callback</title>
<path fill="none" stroke="black" d="M325.561,-73.4647C333.189,-64.5657 342.926,-53.2051 351.533,-43.1644"/>
<polygon fill="black" stroke="black" points="354.28,-45.3376 358.13,-35.4672 348.965,-40.782 354.28,-45.3376"/>
</g>
<!-- PauseMenuBehaviour -->
<g id="node9" class="node"><title>PauseMenuBehaviour</title>
<ellipse fill="none" stroke="black" cx="951.245" cy="-234" rx="89.0842" ry="18"/>
<text text-anchor="middle" x="951.245" y="-230.3" font-family="Times New Roman,serif" font-size="14.00">PauseMenuBehaviour</text>
</g>
<!-- MonoBehaviour -->
<g id="node11" class="node"><title>MonoBehaviour</title>
<ellipse fill="none" stroke="black" cx="842.245" cy="-162" rx="69.5877" ry="18"/>
<text text-anchor="middle" x="842.245" y="-158.3" font-family="Times New Roman,serif" font-size="14.00">MonoBehaviour</text>
</g>
<!-- PauseMenuBehaviour&#45;&gt;MonoBehaviour -->
<g id="edge9" class="edge"><title>PauseMenuBehaviour&#45;&gt;MonoBehaviour</title>
<path fill="none" stroke="black" stroke-width="2" d="M925.689,-216.588C910.824,-207.041 891.91,-194.895 875.85,-184.581"/>
<polygon fill="black" stroke="black" stroke-width="2" points="877.57,-181.526 867.265,-179.068 873.788,-187.416 877.57,-181.526"/>
</g>
<!-- IPauseMenu -->
<g id="node14" class="node"><title>IPauseMenu</title>
<ellipse fill="none" stroke="black" stroke-dasharray="5,2" cx="985.245" cy="-162" rx="55.7903" ry="18"/>
<text text-anchor="middle" x="985.245" y="-158.3" font-family="Times New Roman,serif" font-size="14.00">IPauseMenu</text>
</g>
<!-- PauseMenuBehaviour&#45;&gt;IPauseMenu -->
<g id="edge10" class="edge"><title>PauseMenuBehaviour&#45;&gt;IPauseMenu</title>
<path fill="none" stroke="black" stroke-dasharray="5,2" d="M959.476,-216.055C963.344,-208.091 968.046,-198.411 972.369,-189.51"/>
<polygon fill="black" stroke="black" points="975.633,-190.8 976.854,-180.275 969.337,-187.741 975.633,-190.8"/>
</g>
<!-- ISceneLoader -->
<g id="node10" class="node"><title>ISceneLoader</title>
<ellipse fill="none" stroke="black" stroke-dasharray="5,2" cx="596.245" cy="-162" rx="61.99" ry="18"/>
<text text-anchor="middle" x="596.245" y="-158.3" font-family="Times New Roman,serif" font-size="14.00">ISceneLoader</text>
</g>
<!-- FadeInBehaviour -->
<g id="node12" class="node"><title>FadeInBehaviour</title>
<ellipse fill="none" stroke="black" cx="503.245" cy="-234" rx="72.5877" ry="18"/>
<text text-anchor="middle" x="503.245" y="-230.3" font-family="Times New Roman,serif" font-size="14.00">FadeInBehaviour</text>
</g>
<!-- FadeInBehaviour&#45;&gt;IFadeIn -->
<g id="edge12" class="edge"><title>FadeInBehaviour&#45;&gt;IFadeIn</title>
<path fill="none" stroke="black" stroke-dasharray="5,2" d="M496.951,-216.055C493.981,-208.059 490.368,-198.331 487.051,-189.4"/>
<polygon fill="black" stroke="black" points="490.244,-187.945 483.481,-179.789 483.682,-190.382 490.244,-187.945"/>
</g>
<!-- FadeInBehaviour&#45;&gt;TimerCollection -->
<g id="edge13" class="edge"><title>FadeInBehaviour&#45;&gt;TimerCollection</title>
<path fill="none" stroke="black" d="M464.132,-218.666C434.064,-207.646 392.378,-192.368 360.282,-180.605"/>
<polygon fill="black" stroke="black" points="361.246,-177.231 350.653,-177.076 358.838,-183.804 361.246,-177.231"/>
</g>
<!-- FadeInBehaviour&#45;&gt;MonoBehaviour -->
<g id="edge11" class="edge"><title>FadeInBehaviour&#45;&gt;MonoBehaviour</title>
<path fill="none" stroke="black" stroke-width="2" d="M557.811,-222.056C610.445,-211.458 692.344,-194.855 763.245,-180 768.963,-178.802 774.911,-177.544 780.862,-176.277"/>
<polygon fill="black" stroke="black" stroke-width="2" points="781.794,-179.657 790.843,-174.146 780.332,-172.812 781.794,-179.657"/>
</g>
<!-- GameState -->
<g id="node13" class="node"><title>GameState</title>
<ellipse fill="none" stroke="black" cx="362.245" cy="-234" rx="50.0912" ry="18"/>
<text text-anchor="middle" x="362.245" y="-230.3" font-family="Times New Roman,serif" font-size="14.00">GameState</text>
</g>
<!-- GameState&#45;&gt;IFadeIn -->
<g id="edge16" class="edge"><title>GameState&#45;&gt;IFadeIn</title>
<path fill="none" stroke="black" d="M386.634,-218.155C403.858,-207.67 427.097,-193.525 445.727,-182.185"/>
<polygon fill="black" stroke="black" points="447.734,-185.061 454.456,-176.872 444.094,-179.081 447.734,-185.061"/>
</g>
<!-- GameState&#45;&gt;TimerCollection -->
<g id="edge15" class="edge"><title>GameState&#45;&gt;TimerCollection</title>
<path fill="none" stroke="black" d="M350.396,-216.411C344.382,-207.992 336.949,-197.585 330.246,-188.201"/>
<polygon fill="black" stroke="black" points="333.017,-186.059 324.357,-179.956 327.321,-190.128 333.017,-186.059"/>
</g>
<!-- GameState&#45;&gt;ISceneLoader -->
<g id="edge18" class="edge"><title>GameState&#45;&gt;ISceneLoader</title>
<path fill="none" stroke="black" d="M399.323,-221.908C438.621,-210.153 500.96,-191.504 544.955,-178.343"/>
<polygon fill="black" stroke="black" points="546.027,-181.676 554.604,-175.457 544.021,-174.969 546.027,-181.676"/>
</g>
<!-- GameState&#45;&gt;IEventBus -->
<g id="edge14" class="edge"><title>GameState&#45;&gt;IEventBus</title>
<path fill="none" stroke="black" stroke-dasharray="5,2" d="M328.992,-220.485C298.083,-208.853 251.905,-191.474 218.417,-178.871"/>
<polygon fill="black" stroke="black" points="219.49,-175.535 208.898,-175.289 217.025,-182.087 219.49,-175.535"/>
</g>
<!-- ICanBeActivated -->
<g id="node17" class="node"><title>ICanBeActivated</title>
<ellipse fill="none" stroke="black" stroke-dasharray="5,2" cx="729.245" cy="-90" rx="72.5877" ry="18"/>
<text text-anchor="middle" x="729.245" y="-86.3" font-family="Times New Roman,serif" font-size="14.00">ICanBeActivated</text>
</g>
<!-- GameState&#45;&gt;ICanBeActivated -->
<g id="edge17" class="edge"><title>GameState&#45;&gt;ICanBeActivated</title>
<path fill="none" stroke="black" d="M369.993,-216.159C380.391,-195.59 400.889,-161.393 429.245,-144 465.705,-121.637 575.842,-106.376 652.007,-98.1696"/>
<polygon fill="black" stroke="black" points="652.474,-101.64 662.05,-97.1069 651.738,-94.6786 652.474,-101.64"/>
</g>
<!-- IPauseMenu&#45;&gt;ICanBeActivated -->
<g id="edge19" class="edge"><title>IPauseMenu&#45;&gt;ICanBeActivated</title>
<path fill="none" stroke="black" stroke-dasharray="5,2" d="M944.114,-149.753C901.362,-138.063 834.128,-119.679 786.262,-106.591"/>
<polygon fill="black" stroke="black" points="786.927,-103.144 776.358,-103.882 785.081,-109.896 786.927,-103.144"/>
</g>
<!-- NotNull -->
<g id="node16" class="node"><title>NotNull</title>
<ellipse fill="#e5e5e5" stroke="black" cx="715.245" cy="-162" rx="38.9931" ry="18"/>
<text text-anchor="middle" x="715.245" y="-158.3" font-family="Times New Roman,serif" font-size="14.00">NotNull</text>
</g>
<!-- SceneLoaderBehaviour -->
<g id="node19" class="node"><title>SceneLoaderBehaviour</title>
<ellipse fill="none" stroke="black" cx="715.245" cy="-234" rx="94.7833" ry="18"/>
<text text-anchor="middle" x="715.245" y="-230.3" font-family="Times New Roman,serif" font-size="14.00">SceneLoaderBehaviour</text>
</g>
<!-- SceneLoaderBehaviour&#45;&gt;ISceneLoader -->
<g id="edge21" class="edge"><title>SceneLoaderBehaviour&#45;&gt;ISceneLoader</title>
<path fill="none" stroke="black" stroke-dasharray="5,2" d="M687.645,-216.765C670.923,-206.928 649.429,-194.284 631.486,-183.73"/>
<polygon fill="black" stroke="black" points="632.865,-180.48 622.471,-178.427 629.315,-186.514 632.865,-180.48"/>
</g>
<!-- SceneLoaderBehaviour&#45;&gt;MonoBehaviour -->
<g id="edge20" class="edge"><title>SceneLoaderBehaviour&#45;&gt;MonoBehaviour</title>
<path fill="none" stroke="black" stroke-width="2" d="M744.701,-216.765C762.666,-206.863 785.792,-194.116 805.018,-183.519"/>
<polygon fill="black" stroke="black" stroke-width="2" points="806.755,-186.558 813.823,-178.666 803.376,-180.428 806.755,-186.558"/>
</g>
<!-- SceneLoaderBehaviour&#45;&gt;NotNull -->
<g id="edge22" class="edge"><title>SceneLoaderBehaviour&#45;&gt;NotNull</title>
<path fill="none" stroke="black" d="M715.245,-215.697C715.245,-207.983 715.245,-198.712 715.245,-190.112"/>
<polygon fill="black" stroke="black" points="718.745,-190.104 715.245,-180.104 711.745,-190.104 718.745,-190.104"/>
</g>
</g>
</svg>
