<?xml version="1.0" encoding="UTF-8" standalone="no"?>
<!DOCTYPE svg PUBLIC "-//W3C//DTD SVG 1.1//EN"
 "http://www.w3.org/Graphics/SVG/1.1/DTD/svg11.dtd">
<!-- Generated by graphviz version 2.38.0 (20140413.2041)
 -->
<!-- Title: %3 Pages: 1 -->
<svg width="1261pt" height="260pt"
 viewBox="0.00 0.00 1261.29 260.00" xmlns="http://www.w3.org/2000/svg" xmlns:xlink="http://www.w3.org/1999/xlink">
<g id="graph0" class="graph" transform="scale(1 1) rotate(0) translate(4 256)">
<title>%3</title>
<polygon fill="white" stroke="none" points="-4,4 -4,-256 1257.29,-256 1257.29,4 -4,4"/>
<!-- TimerCollection -->
<g id="node1" class="node"><title>TimerCollection</title>
<ellipse fill="none" stroke="black" cx="941.042" cy="-162" rx="69.5877" ry="18"/>
<text text-anchor="middle" x="941.042" y="-158.3" font-family="Times New Roman,serif" font-size="14.00">TimerCollection</text>
</g>
<!-- TimerNotFoundException -->
<g id="node6" class="node"><title>TimerNotFoundException</title>
<ellipse fill="none" stroke="black" cx="1098.04" cy="-90" rx="106.681" ry="18"/>
<text text-anchor="middle" x="1098.04" y="-86.3" font-family="Times New Roman,serif" font-size="14.00">TimerNotFoundException</text>
</g>
<!-- TimerCollection&#45;&gt;TimerNotFoundException -->
<g id="edge3" class="edge"><title>TimerCollection&#45;&gt;TimerNotFoundException</title>
<path fill="none" stroke="black" d="M974.338,-146.155C997.165,-135.977 1027.73,-122.35 1052.76,-111.188"/>
<polygon fill="black" stroke="black" points="1054.35,-114.312 1062.06,-107.043 1051.5,-107.919 1054.35,-114.312"/>
</g>
<!-- Timer -->
<g id="node11" class="node"><title>Timer</title>
<ellipse fill="none" stroke="black" cx="941.042" cy="-90" rx="32.4942" ry="18"/>
<text text-anchor="middle" x="941.042" y="-86.3" font-family="Times New Roman,serif" font-size="14.00">Timer</text>
</g>
<!-- TimerCollection&#45;&gt;Timer -->
<g id="edge1" class="edge"><title>TimerCollection&#45;&gt;Timer</title>
<path fill="none" stroke="black" d="M941.042,-143.697C941.042,-135.983 941.042,-126.712 941.042,-118.112"/>
<polygon fill="black" stroke="black" points="944.542,-118.104 941.042,-108.104 937.542,-118.104 944.542,-118.104"/>
</g>
<!-- Callback -->
<g id="node13" class="node"><title>Callback</title>
<ellipse fill="#e5e5e5" stroke="black" cx="881.042" cy="-18" rx="42.4939" ry="18"/>
<text text-anchor="middle" x="881.042" y="-14.3" font-family="Times New Roman,serif" font-size="14.00">Callback</text>
</g>
<!-- TimerCollection&#45;&gt;Callback -->
<g id="edge2" class="edge"><title>TimerCollection&#45;&gt;Callback</title>
<path fill="none" stroke="black" d="M924.834,-144.166C916.239,-134.344 906.211,-121.297 900.042,-108 890.927,-88.3513 886.125,-64.2234 883.632,-46.0487"/>
<polygon fill="black" stroke="black" points="887.105,-45.6149 882.415,-36.1145 880.157,-46.4659 887.105,-45.6149"/>
</g>
<!-- Debug -->
<g id="node2" class="node"><title>Debug</title>
<ellipse fill="#e5e5e5" stroke="black" cx="976.042" cy="-18" rx="34.394" ry="18"/>
<text text-anchor="middle" x="976.042" y="-14.3" font-family="Times New Roman,serif" font-size="14.00">Debug</text>
</g>
<!-- UiKeyboardListener -->
<g id="node3" class="node"><title>UiKeyboardListener</title>
<ellipse fill="none" stroke="black" cx="1137.04" cy="-234" rx="83.6854" ry="18"/>
<text text-anchor="middle" x="1137.04" y="-230.3" font-family="Times New Roman,serif" font-size="14.00">UiKeyboardListener</text>
</g>
<!-- IPlayerInput -->
<g id="node9" class="node"><title>IPlayerInput</title>
<ellipse fill="none" stroke="black" stroke-dasharray="5,2" cx="1198.04" cy="-162" rx="55.4913" ry="18"/>
<text text-anchor="middle" x="1198.04" y="-158.3" font-family="Times New Roman,serif" font-size="14.00">IPlayerInput</text>
</g>
<!-- UiKeyboardListener&#45;&gt;IPlayerInput -->
<g id="edge5" class="edge"><title>UiKeyboardListener&#45;&gt;IPlayerInput</title>
<path fill="none" stroke="black" d="M1151.81,-216.055C1159.3,-207.457 1168.54,-196.857 1176.78,-187.397"/>
<polygon fill="black" stroke="black" points="1179.48,-189.628 1183.41,-179.789 1174.2,-185.029 1179.48,-189.628"/>
</g>
<!-- IEventBus -->
<g id="node15" class="node"><title>IEventBus</title>
<ellipse fill="none" stroke="black" stroke-dasharray="5,2" cx="1077.04" cy="-162" rx="48.1917" ry="18"/>
<text text-anchor="middle" x="1077.04" y="-158.3" font-family="Times New Roman,serif" font-size="14.00">IEventBus</text>
</g>
<!-- UiKeyboardListener&#45;&gt;IEventBus -->
<g id="edge4" class="edge"><title>UiKeyboardListener&#45;&gt;IEventBus</title>
<path fill="none" stroke="black" d="M1122.52,-216.055C1115.04,-207.33 1105.79,-196.544 1097.6,-186.981"/>
<polygon fill="black" stroke="black" points="1100.18,-184.622 1091.02,-179.307 1094.87,-189.177 1100.18,-184.622"/>
</g>
<!-- NotNull -->
<g id="node4" class="node"><title>NotNull</title>
<ellipse fill="#e5e5e5" stroke="black" cx="193.042" cy="-162" rx="38.9931" ry="18"/>
<text text-anchor="middle" x="193.042" y="-158.3" font-family="Times New Roman,serif" font-size="14.00">NotNull</text>
</g>
<!-- PauseMenuBehaviour -->
<g id="node5" class="node"><title>PauseMenuBehaviour</title>
<ellipse fill="none" stroke="black" cx="89.0421" cy="-234" rx="89.0842" ry="18"/>
<text text-anchor="middle" x="89.0421" y="-230.3" font-family="Times New Roman,serif" font-size="14.00">PauseMenuBehaviour</text>
</g>
<!-- IPauseMenu -->
<g id="node8" class="node"><title>IPauseMenu</title>
<ellipse fill="none" stroke="black" stroke-dasharray="5,2" cx="80.0421" cy="-162" rx="55.7903" ry="18"/>
<text text-anchor="middle" x="80.0421" y="-158.3" font-family="Times New Roman,serif" font-size="14.00">IPauseMenu</text>
</g>
<!-- PauseMenuBehaviour&#45;&gt;IPauseMenu -->
<g id="edge7" class="edge"><title>PauseMenuBehaviour&#45;&gt;IPauseMenu</title>
<path fill="none" stroke="black" stroke-dasharray="5,2" d="M86.8174,-215.697C85.8256,-207.983 84.6337,-198.712 83.528,-190.112"/>
<polygon fill="black" stroke="black" points="86.988,-189.576 82.2412,-180.104 80.0451,-190.469 86.988,-189.576"/>
</g>
<!-- MonoBehaviour -->
<g id="node12" class="node"><title>MonoBehaviour</title>
<ellipse fill="none" stroke="black" cx="320.042" cy="-162" rx="69.5877" ry="18"/>
<text text-anchor="middle" x="320.042" y="-158.3" font-family="Times New Roman,serif" font-size="14.00">MonoBehaviour</text>
</g>
<!-- PauseMenuBehaviour&#45;&gt;MonoBehaviour -->
<g id="edge6" class="edge"><title>PauseMenuBehaviour&#45;&gt;MonoBehaviour</title>
<path fill="none" stroke="black" stroke-width="2" d="M136.346,-218.666C174.311,-207.161 227.593,-191.015 267.001,-179.073"/>
<polygon fill="black" stroke="black" stroke-width="2" points="268.148,-182.383 276.703,-176.133 266.118,-175.684 268.148,-182.383"/>
</g>
<!-- Exception -->
<g id="node17" class="node"><title>Exception</title>
<ellipse fill="none" stroke="black" cx="1098.04" cy="-18" rx="47.3916" ry="18"/>
<text text-anchor="middle" x="1098.04" y="-14.3" font-family="Times New Roman,serif" font-size="14.00">Exception</text>
</g>
<!-- TimerNotFoundException&#45;&gt;Exception -->
<g id="edge8" class="edge"><title>TimerNotFoundException&#45;&gt;Exception</title>
<path fill="none" stroke="black" stroke-width="2" d="M1098.04,-71.6966C1098.04,-63.9827 1098.04,-54.7125 1098.04,-46.1124"/>
<polygon fill="black" stroke="black" stroke-width="2" points="1101.54,-46.1043 1098.04,-36.1043 1094.54,-46.1044 1101.54,-46.1043"/>
</g>
<!-- ICameraManipulator -->
<g id="node7" class="node"><title>ICameraManipulator</title>
<ellipse fill="none" stroke="black" stroke-dasharray="5,2" cx="634.042" cy="-162" rx="85.2851" ry="18"/>
<text text-anchor="middle" x="634.042" y="-158.3" font-family="Times New Roman,serif" font-size="14.00">ICameraManipulator</text>
</g>
<!-- ICanBeActivated -->
<g id="node20" class="node"><title>ICanBeActivated</title>
<ellipse fill="none" stroke="black" stroke-dasharray="5,2" cx="430.042" cy="-90" rx="72.5877" ry="18"/>
<text text-anchor="middle" x="430.042" y="-86.3" font-family="Times New Roman,serif" font-size="14.00">ICanBeActivated</text>
</g>
<!-- IPauseMenu&#45;&gt;ICanBeActivated -->
<g id="edge9" class="edge"><title>IPauseMenu&#45;&gt;ICanBeActivated</title>
<path fill="none" stroke="black" stroke-dasharray="5,2" d="M121.196,-149.76C129.087,-147.74 137.301,-145.73 145.042,-144 218.366,-127.616 303.091,-112.317 360.984,-102.41"/>
<polygon fill="black" stroke="black" points="361.844,-105.814 371.114,-100.684 360.668,-98.9131 361.844,-105.814"/>
</g>
<!-- ISceneLoader -->
<g id="node10" class="node"><title>ISceneLoader</title>
<ellipse fill="none" stroke="black" stroke-dasharray="5,2" cx="469.042" cy="-162" rx="61.99" ry="18"/>
<text text-anchor="middle" x="469.042" y="-158.3" font-family="Times New Roman,serif" font-size="14.00">ISceneLoader</text>
</g>
<!-- Timer&#45;&gt;Debug -->
<g id="edge11" class="edge"><title>Timer&#45;&gt;Debug</title>
<path fill="none" stroke="black" d="M949.337,-72.411C953.417,-64.2493 958.432,-54.2203 963.009,-45.0653"/>
<polygon fill="black" stroke="black" points="966.222,-46.4658 967.564,-35.9562 959.961,-43.3352 966.222,-46.4658"/>
</g>
<!-- Timer&#45;&gt;Callback -->
<g id="edge10" class="edge"><title>Timer&#45;&gt;Callback</title>
<path fill="none" stroke="black" d="M927.726,-73.4647C920.098,-64.5657 910.361,-53.2051 901.754,-43.1644"/>
<polygon fill="black" stroke="black" points="904.322,-40.782 895.157,-35.4672 899.007,-45.3376 904.322,-40.782"/>
</g>
<!-- CameraManipulatorBehaviour -->
<g id="node14" class="node"><title>CameraManipulatorBehaviour</title>
<ellipse fill="none" stroke="black" cx="541.042" cy="-234" rx="118.079" ry="18"/>
<text text-anchor="middle" x="541.042" y="-230.3" font-family="Times New Roman,serif" font-size="14.00">CameraManipulatorBehaviour</text>
</g>
<!-- CameraManipulatorBehaviour&#45;&gt;ICameraManipulator -->
<g id="edge13" class="edge"><title>CameraManipulatorBehaviour&#45;&gt;ICameraManipulator</title>
<path fill="none" stroke="black" stroke-dasharray="5,2" d="M563.555,-216.055C575.638,-206.96 590.696,-195.626 603.789,-185.771"/>
<polygon fill="black" stroke="black" points="606.173,-188.358 612.058,-179.547 601.963,-182.765 606.173,-188.358"/>
</g>
<!-- CameraManipulatorBehaviour&#45;&gt;MonoBehaviour -->
<g id="edge12" class="edge"><title>CameraManipulatorBehaviour&#45;&gt;MonoBehaviour</title>
<path fill="none" stroke="black" stroke-width="2" d="M492.269,-217.552C456.715,-206.29 408.608,-191.053 372.274,-179.544"/>
<polygon fill="black" stroke="black" stroke-width="2" points="372.948,-176.086 362.358,-176.403 370.834,-182.759 372.948,-176.086"/>
</g>
<!-- SceneLoaderBehaviour -->
<g id="node16" class="node"><title>SceneLoaderBehaviour</title>
<ellipse fill="none" stroke="black" cx="310.042" cy="-234" rx="94.7833" ry="18"/>
<text text-anchor="middle" x="310.042" y="-230.3" font-family="Times New Roman,serif" font-size="14.00">SceneLoaderBehaviour</text>
</g>
<!-- SceneLoaderBehaviour&#45;&gt;NotNull -->
<g id="edge16" class="edge"><title>SceneLoaderBehaviour&#45;&gt;NotNull</title>
<path fill="none" stroke="black" d="M282.611,-216.588C265.356,-206.265 243.021,-192.902 224.971,-182.103"/>
<polygon fill="black" stroke="black" points="226.351,-178.85 215.972,-176.719 222.757,-184.857 226.351,-178.85"/>
</g>
<!-- SceneLoaderBehaviour&#45;&gt;ISceneLoader -->
<g id="edge15" class="edge"><title>SceneLoaderBehaviour&#45;&gt;ISceneLoader</title>
<path fill="none" stroke="black" stroke-dasharray="5,2" d="M345.725,-217.291C369.838,-206.675 401.771,-192.616 427.1,-181.465"/>
<polygon fill="black" stroke="black" points="428.713,-184.579 436.455,-177.347 425.892,-178.173 428.713,-184.579"/>
</g>
<!-- SceneLoaderBehaviour&#45;&gt;MonoBehaviour -->
<g id="edge14" class="edge"><title>SceneLoaderBehaviour&#45;&gt;MonoBehaviour</title>
<path fill="none" stroke="black" stroke-width="2" d="M312.514,-215.697C313.616,-207.983 314.94,-198.712 316.169,-190.112"/>
<polygon fill="black" stroke="black" stroke-width="2" points="319.649,-190.499 317.599,-180.104 312.72,-189.509 319.649,-190.499"/>
</g>
<!-- IFadeIn -->
<g id="node18" class="node"><title>IFadeIn</title>
<ellipse fill="none" stroke="black" stroke-dasharray="5,2" cx="776.042" cy="-162" rx="38.9931" ry="18"/>
<text text-anchor="middle" x="776.042" y="-158.3" font-family="Times New Roman,serif" font-size="14.00">IFadeIn</text>
</g>
<!-- GameState -->
<g id="node19" class="node"><title>GameState</title>
<ellipse fill="none" stroke="black" cx="891.042" cy="-234" rx="50.0912" ry="18"/>
<text text-anchor="middle" x="891.042" y="-230.3" font-family="Times New Roman,serif" font-size="14.00">GameState</text>
</g>
<!-- GameState&#45;&gt;TimerCollection -->
<g id="edge18" class="edge"><title>GameState&#45;&gt;TimerCollection</title>
<path fill="none" stroke="black" d="M902.891,-216.411C908.905,-207.992 916.339,-197.585 923.042,-188.201"/>
<polygon fill="black" stroke="black" points="925.966,-190.128 928.931,-179.956 920.27,-186.059 925.966,-190.128"/>
</g>
<!-- GameState&#45;&gt;ICameraManipulator -->
<g id="edge22" class="edge"><title>GameState&#45;&gt;ICameraManipulator</title>
<path fill="none" stroke="black" d="M853.303,-222.011C846.244,-219.988 838.923,-217.912 832.042,-216 786.211,-203.265 734.258,-189.379 695.072,-179.016"/>
<polygon fill="black" stroke="black" points="695.958,-175.63 685.396,-176.46 694.17,-182.398 695.958,-175.63"/>
</g>
<!-- GameState&#45;&gt;ISceneLoader -->
<g id="edge21" class="edge"><title>GameState&#45;&gt;ISceneLoader</title>
<path fill="none" stroke="black" d="M854.757,-221.572C847.298,-219.498 839.457,-217.516 832.042,-216 703.93,-189.817 668.717,-203.261 540.042,-180 534.663,-179.028 529.082,-177.9 523.519,-176.698"/>
<polygon fill="black" stroke="black" points="524.096,-173.241 513.572,-174.47 522.566,-180.072 524.096,-173.241"/>
</g>
<!-- GameState&#45;&gt;IEventBus -->
<g id="edge17" class="edge"><title>GameState&#45;&gt;IEventBus</title>
<path fill="none" stroke="black" stroke-dasharray="5,2" d="M924.295,-220.485C955.204,-208.853 1001.38,-191.474 1034.87,-178.871"/>
<polygon fill="black" stroke="black" points="1036.26,-182.087 1044.39,-175.289 1033.8,-175.535 1036.26,-182.087"/>
</g>
<!-- GameState&#45;&gt;IFadeIn -->
<g id="edge19" class="edge"><title>GameState&#45;&gt;IFadeIn</title>
<path fill="none" stroke="black" d="M866.654,-218.155C849.429,-207.67 826.191,-193.525 807.56,-182.185"/>
<polygon fill="black" stroke="black" points="809.193,-179.081 798.831,-176.872 805.553,-185.061 809.193,-179.081"/>
</g>
<!-- GameState&#45;&gt;ICanBeActivated -->
<g id="edge20" class="edge"><title>GameState&#45;&gt;ICanBeActivated</title>
<path fill="none" stroke="black" d="M883.408,-215.97C873.127,-195.205 852.75,-160.805 824.042,-144 772.503,-113.829 610.595,-100.23 511.09,-94.5843"/>
<polygon fill="black" stroke="black" points="511.243,-91.0875 501.066,-94.0304 510.857,-98.0769 511.243,-91.0875"/>
</g>
<!-- FadeInBehaviour -->
<g id="node21" class="node"><title>FadeInBehaviour</title>
<ellipse fill="none" stroke="black" cx="750.042" cy="-234" rx="72.5877" ry="18"/>
<text text-anchor="middle" x="750.042" y="-230.3" font-family="Times New Roman,serif" font-size="14.00">FadeInBehaviour</text>
</g>
<!-- FadeInBehaviour&#45;&gt;TimerCollection -->
<g id="edge25" class="edge"><title>FadeInBehaviour&#45;&gt;TimerCollection</title>
<path fill="none" stroke="black" d="M789.155,-218.666C819.223,-207.646 860.909,-192.368 893.005,-180.605"/>
<polygon fill="black" stroke="black" points="894.45,-183.804 902.635,-177.076 892.041,-177.231 894.45,-183.804"/>
</g>
<!-- FadeInBehaviour&#45;&gt;MonoBehaviour -->
<g id="edge23" class="edge"><title>FadeInBehaviour&#45;&gt;MonoBehaviour</title>
<path fill="none" stroke="black" stroke-width="2" d="M697.215,-221.466C687.534,-219.518 677.502,-217.609 668.042,-216 548.694,-195.699 517.285,-200.908 398.042,-180 392.27,-178.988 386.277,-177.847 380.293,-176.646"/>
<polygon fill="black" stroke="black" stroke-width="2" points="380.773,-173.171 370.273,-174.582 379.361,-180.028 380.773,-173.171"/>
</g>
<!-- FadeInBehaviour&#45;&gt;IFadeIn -->
<g id="edge24" class="edge"><title>FadeInBehaviour&#45;&gt;IFadeIn</title>
<path fill="none" stroke="black" stroke-dasharray="5,2" d="M756.336,-216.055C759.306,-208.059 762.919,-198.331 766.237,-189.4"/>
<polygon fill="black" stroke="black" points="769.605,-190.382 769.806,-179.789 763.043,-187.945 769.605,-190.382"/>
</g>
</g>
</svg>
