<?xml version="1.0" encoding="UTF-8" standalone="no"?>
<!DOCTYPE svg PUBLIC "-//W3C//DTD SVG 1.1//EN"
 "http://www.w3.org/Graphics/SVG/1.1/DTD/svg11.dtd">
<!-- Generated by graphviz version 2.38.0 (20140413.2041)
 -->
<!-- Title: %3 Pages: 1 -->
<svg width="684pt" height="260pt"
 viewBox="0.00 0.00 684.44 260.00" xmlns="http://www.w3.org/2000/svg" xmlns:xlink="http://www.w3.org/1999/xlink">
<g id="graph0" class="graph" transform="scale(1 1) rotate(0) translate(4 256)">
<title>%3</title>
<polygon fill="white" stroke="none" points="-4,4 -4,-256 680.443,-256 680.443,4 -4,4"/>
<!-- IFadeIn -->
<g id="node1" class="node"><title>IFadeIn</title>
<ellipse fill="none" stroke="black" stroke-dasharray="5,2" cx="38.9965" cy="-162" rx="38.9931" ry="18"/>
<text text-anchor="middle" x="38.9965" y="-158.3" font-family="Times New Roman,serif" font-size="14.00">IFadeIn</text>
</g>
<!-- ICanBeActivated -->
<g id="node2" class="node"><title>ICanBeActivated</title>
<ellipse fill="none" stroke="black" stroke-dasharray="5,2" cx="168.997" cy="-162" rx="72.5877" ry="18"/>
<text text-anchor="middle" x="168.997" y="-158.3" font-family="Times New Roman,serif" font-size="14.00">ICanBeActivated</text>
</g>
<!-- IEventBus -->
<g id="node3" class="node"><title>IEventBus</title>
<ellipse fill="none" stroke="black" stroke-dasharray="5,2" cx="307.997" cy="-162" rx="48.1917" ry="18"/>
<text text-anchor="middle" x="307.997" y="-158.3" font-family="Times New Roman,serif" font-size="14.00">IEventBus</text>
</g>
<!-- Debug -->
<g id="node4" class="node"><title>Debug</title>
<ellipse fill="none" stroke="black" cx="641.997" cy="-18" rx="34.394" ry="18"/>
<text text-anchor="middle" x="641.997" y="-14.3" font-family="Times New Roman,serif" font-size="14.00">Debug</text>
</g>
<!-- GameState -->
<g id="node5" class="node"><title>GameState</title>
<ellipse fill="none" stroke="black" cx="375.997" cy="-234" rx="50.0912" ry="18"/>
<text text-anchor="middle" x="375.997" y="-230.3" font-family="Times New Roman,serif" font-size="14.00">GameState</text>
</g>
<!-- GameState&#45;&gt;IFadeIn -->
<g id="edge3" class="edge"><title>GameState&#45;&gt;IFadeIn</title>
<path fill="none" stroke="black" d="M329.949,-226.864C272.497,-218.682 171.519,-202.564 86.9965,-180 83.8789,-179.168 80.6745,-178.227 77.4715,-177.226"/>
<polygon fill="black" stroke="black" points="78.5477,-173.896 67.9546,-174.09 76.3565,-180.544 78.5477,-173.896"/>
</g>
<!-- GameState&#45;&gt;ICanBeActivated -->
<g id="edge4" class="edge"><title>GameState&#45;&gt;ICanBeActivated</title>
<path fill="none" stroke="black" d="M340.882,-221.125C307.74,-209.918 257.664,-192.984 220.098,-180.281"/>
<polygon fill="black" stroke="black" points="220.942,-176.871 210.348,-176.984 218.7,-183.503 220.942,-176.871"/>
</g>
<!-- GameState&#45;&gt;IEventBus -->
<g id="edge1" class="edge"><title>GameState&#45;&gt;IEventBus</title>
<path fill="none" stroke="black" stroke-dasharray="5,2" d="M360.225,-216.765C351.471,-207.753 340.428,-196.385 330.753,-186.426"/>
<polygon fill="black" stroke="black" points="333.161,-183.881 323.682,-179.147 328.14,-188.759 333.161,-183.881"/>
</g>
<!-- TimerCollection -->
<g id="node7" class="node"><title>TimerCollection</title>
<ellipse fill="none" stroke="black" cx="443.997" cy="-162" rx="69.5877" ry="18"/>
<text text-anchor="middle" x="443.997" y="-158.3" font-family="Times New Roman,serif" font-size="14.00">TimerCollection</text>
</g>
<!-- GameState&#45;&gt;TimerCollection -->
<g id="edge2" class="edge"><title>GameState&#45;&gt;TimerCollection</title>
<path fill="none" stroke="black" d="M391.768,-216.765C400.397,-207.882 411.25,-196.709 420.824,-186.854"/>
<polygon fill="black" stroke="black" points="423.381,-189.245 427.838,-179.633 418.36,-184.367 423.381,-189.245"/>
</g>
<!-- ISceneLoader -->
<g id="node8" class="node"><title>ISceneLoader</title>
<ellipse fill="none" stroke="black" stroke-dasharray="5,2" cx="592.997" cy="-162" rx="61.99" ry="18"/>
<text text-anchor="middle" x="592.997" y="-158.3" font-family="Times New Roman,serif" font-size="14.00">ISceneLoader</text>
</g>
<!-- GameState&#45;&gt;ISceneLoader -->
<g id="edge5" class="edge"><title>GameState&#45;&gt;ISceneLoader</title>
<path fill="none" stroke="black" d="M412.317,-221.284C448.32,-209.67 503.728,-191.796 543.693,-178.905"/>
<polygon fill="black" stroke="black" points="544.801,-182.225 553.244,-175.823 542.652,-175.563 544.801,-182.225"/>
</g>
<!-- Timer -->
<g id="node9" class="node"><title>Timer</title>
<ellipse fill="none" stroke="black" cx="641.997" cy="-90" rx="32.4942" ry="18"/>
<text text-anchor="middle" x="641.997" y="-86.3" font-family="Times New Roman,serif" font-size="14.00">Timer</text>
</g>
<!-- GameState&#45;&gt;Timer -->
<g id="edge6" class="edge"><title>GameState&#45;&gt;Timer</title>
<path fill="none" stroke="black" d="M425.634,-231.249C499.851,-227.47 634.228,-215.746 663.997,-180 679.032,-161.945 669.412,-135.118 658.572,-115.64"/>
<polygon fill="black" stroke="black" points="661.549,-113.8 653.422,-107.003 655.537,-117.384 661.549,-113.8"/>
</g>
<!-- Exception -->
<g id="node6" class="node"><title>Exception</title>
<ellipse fill="none" stroke="black" cx="443.997" cy="-18" rx="47.3916" ry="18"/>
<text text-anchor="middle" x="443.997" y="-14.3" font-family="Times New Roman,serif" font-size="14.00">Exception</text>
</g>
<!-- TimerCollection&#45;&gt;Timer -->
<g id="edge7" class="edge"><title>TimerCollection&#45;&gt;Timer</title>
<path fill="none" stroke="black" d="M483.589,-147.003C519.231,-134.402 571.175,-116.038 605.749,-103.815"/>
<polygon fill="black" stroke="black" points="607.185,-107.019 615.447,-100.386 604.852,-100.42 607.185,-107.019"/>
</g>
<!-- TimerNotFoundException -->
<g id="node10" class="node"><title>TimerNotFoundException</title>
<ellipse fill="none" stroke="black" cx="443.997" cy="-90" rx="106.681" ry="18"/>
<text text-anchor="middle" x="443.997" y="-86.3" font-family="Times New Roman,serif" font-size="14.00">TimerNotFoundException</text>
</g>
<!-- TimerCollection&#45;&gt;TimerNotFoundException -->
<g id="edge8" class="edge"><title>TimerCollection&#45;&gt;TimerNotFoundException</title>
<path fill="none" stroke="black" d="M443.997,-143.697C443.997,-135.983 443.997,-126.712 443.997,-118.112"/>
<polygon fill="black" stroke="black" points="447.497,-118.104 443.997,-108.104 440.497,-118.104 447.497,-118.104"/>
</g>
<!-- Timer&#45;&gt;Debug -->
<g id="edge9" class="edge"><title>Timer&#45;&gt;Debug</title>
<path fill="none" stroke="black" d="M641.997,-71.6966C641.997,-63.9827 641.997,-54.7125 641.997,-46.1124"/>
<polygon fill="black" stroke="black" points="645.497,-46.1043 641.997,-36.1043 638.497,-46.1044 645.497,-46.1043"/>
</g>
<!-- TimerNotFoundException&#45;&gt;Exception -->
<g id="edge10" class="edge"><title>TimerNotFoundException&#45;&gt;Exception</title>
<path fill="none" stroke="black" stroke-width="2" d="M443.997,-71.6966C443.997,-63.9827 443.997,-54.7125 443.997,-46.1124"/>
<polygon fill="black" stroke="black" stroke-width="2" points="447.497,-46.1043 443.997,-36.1043 440.497,-46.1044 447.497,-46.1043"/>
</g>
</g>
</svg>
