<?xml version="1.0" encoding="UTF-8" standalone="no"?>
<!DOCTYPE svg PUBLIC "-//W3C//DTD SVG 1.1//EN"
 "http://www.w3.org/Graphics/SVG/1.1/DTD/svg11.dtd">
<!-- Generated by graphviz version 2.38.0 (20140413.2041)
 -->
<!-- Title: %3 Pages: 1 -->
<svg width="232pt" height="116pt"
 viewBox="0.00 0.00 232.34 116.00" xmlns="http://www.w3.org/2000/svg" xmlns:xlink="http://www.w3.org/1999/xlink">
<g id="graph0" class="graph" transform="scale(1 1) rotate(0) translate(4 112)">
<title>%3</title>
<polygon fill="white" stroke="none" points="-4,4 -4,-112 228.341,-112 228.341,4 -4,4"/>
<!-- UiKeyboardListener -->
<g id="node1" class="node"><title>UiKeyboardListener</title>
<ellipse fill="none" stroke="black" cx="108.096" cy="-90" rx="83.6854" ry="18"/>
<text text-anchor="middle" x="108.096" y="-86.3" font-family="Times New Roman,serif" font-size="14.00">UiKeyboardListener</text>
</g>
<!-- IEventBus -->
<g id="node2" class="node"><title>IEventBus</title>
<ellipse fill="none" stroke="black" stroke-dasharray="5,2" cx="48.0957" cy="-18" rx="48.1917" ry="18"/>
<text text-anchor="middle" x="48.0957" y="-14.3" font-family="Times New Roman,serif" font-size="14.00">IEventBus</text>
</g>
<!-- UiKeyboardListener&#45;&gt;IEventBus -->
<g id="edge1" class="edge"><title>UiKeyboardListener&#45;&gt;IEventBus</title>
<path fill="none" stroke="black" d="M93.5714,-72.055C86.0931,-63.3303 76.8481,-52.5444 68.6507,-42.9808"/>
<polygon fill="black" stroke="black" points="71.2385,-40.6218 62.0732,-35.307 65.9237,-45.1774 71.2385,-40.6218"/>
</g>
<!-- IPlayerInput -->
<g id="node3" class="node"><title>IPlayerInput</title>
<ellipse fill="none" stroke="black" stroke-dasharray="5,2" cx="169.096" cy="-18" rx="55.4913" ry="18"/>
<text text-anchor="middle" x="169.096" y="-14.3" font-family="Times New Roman,serif" font-size="14.00">IPlayerInput</text>
</g>
<!-- UiKeyboardListener&#45;&gt;IPlayerInput -->
<g id="edge2" class="edge"><title>UiKeyboardListener&#45;&gt;IPlayerInput</title>
<path fill="none" stroke="black" d="M122.862,-72.055C130.355,-63.4567 139.592,-52.8566 147.835,-43.3974"/>
<polygon fill="black" stroke="black" points="150.534,-45.6276 154.465,-35.789 145.257,-41.0287 150.534,-45.6276"/>
</g>
</g>
</svg>
