<?xml version="1.0" encoding="UTF-8" standalone="no"?>
<!DOCTYPE svg PUBLIC "-//W3C//DTD SVG 1.1//EN"
 "http://www.w3.org/Graphics/SVG/1.1/DTD/svg11.dtd">
<!-- Generated by graphviz version 2.38.0 (20140413.2041)
 -->
<!-- Title: %3 Pages: 1 -->
<svg width="667pt" height="188pt"
 viewBox="0.00 0.00 667.43 188.00" xmlns="http://www.w3.org/2000/svg" xmlns:xlink="http://www.w3.org/1999/xlink">
<g id="graph0" class="graph" transform="scale(1 1) rotate(0) translate(4 184)">
<title>%3</title>
<polygon fill="white" stroke="none" points="-4,4 -4,-184 663.43,-184 663.43,4 -4,4"/>
<!-- ICollisionSystemParticipator -->
<g id="node1" class="node"><title>ICollisionSystemParticipator</title>
<ellipse fill="none" stroke="black" stroke-dasharray="5,2" cx="146.887" cy="-90" rx="114.28" ry="18"/>
<text text-anchor="middle" x="146.887" y="-86.3" font-family="Times New Roman,serif" font-size="14.00">ICollisionSystemParticipator</text>
</g>
<!-- ISystemParticipator -->
<g id="node4" class="node"><title>ISystemParticipator</title>
<ellipse fill="none" stroke="black" stroke-dasharray="5,2" cx="393.887" cy="-18" rx="82.5854" ry="18"/>
<text text-anchor="middle" x="393.887" y="-14.3" font-family="Times New Roman,serif" font-size="14.00">ISystemParticipator</text>
</g>
<!-- ICollisionSystemParticipator&#45;&gt;ISystemParticipator -->
<g id="edge1" class="edge"><title>ICollisionSystemParticipator&#45;&gt;ISystemParticipator</title>
<path fill="none" stroke="black" stroke-dasharray="5,2" d="M199.875,-73.9832C239.9,-62.64 294.785,-47.0854 335.967,-35.4145"/>
<polygon fill="black" stroke="black" points="336.926,-38.7807 345.593,-32.6866 335.017,-32.0459 336.926,-38.7807"/>
</g>
<!-- ICollisionSystemParticipatorWrapper -->
<g id="node5" class="node"><title>ICollisionSystemParticipatorWrapper</title>
<ellipse fill="none" stroke="black" stroke-dasharray="5,2" cx="146.887" cy="-18" rx="146.774" ry="18"/>
<text text-anchor="middle" x="146.887" y="-14.3" font-family="Times New Roman,serif" font-size="14.00">ICollisionSystemParticipatorWrapper</text>
</g>
<!-- ICollisionSystemParticipator&#45;&gt;ICollisionSystemParticipatorWrapper -->
<g id="edge2" class="edge"><title>ICollisionSystemParticipator&#45;&gt;ICollisionSystemParticipatorWrapper</title>
<path fill="none" stroke="black" stroke-dasharray="5,2" d="M140.971,-71.6966C140.176,-63.9827 139.949,-54.7125 140.292,-46.1124"/>
<polygon fill="black" stroke="black" points="143.785,-46.3243 140.992,-36.1043 136.802,-45.8356 143.785,-46.3243"/>
</g>
<!-- IGround -->
<g id="node2" class="node"><title>IGround</title>
<ellipse fill="none" stroke="black" stroke-dasharray="5,2" cx="321.887" cy="-90" rx="42.4939" ry="18"/>
<text text-anchor="middle" x="321.887" y="-86.3" font-family="Times New Roman,serif" font-size="14.00">IGround</text>
</g>
<!-- Ground -->
<g id="node3" class="node"><title>Ground</title>
<ellipse fill="none" stroke="black" cx="321.887" cy="-162" rx="38.9931" ry="18"/>
<text text-anchor="middle" x="321.887" y="-158.3" font-family="Times New Roman,serif" font-size="14.00">Ground</text>
</g>
<!-- Ground&#45;&gt;ICollisionSystemParticipator -->
<g id="edge4" class="edge"><title>Ground&#45;&gt;ICollisionSystemParticipator</title>
<path fill="none" stroke="black" stroke-dasharray="5,2" d="M293.381,-149.597C267.137,-139.1 227.64,-123.301 196.268,-110.753"/>
<polygon fill="black" stroke="black" points="197.402,-107.436 186.817,-106.972 194.802,-113.936 197.402,-107.436"/>
</g>
<!-- Ground&#45;&gt;IGround -->
<g id="edge5" class="edge"><title>Ground&#45;&gt;IGround</title>
<path fill="none" stroke="black" stroke-dasharray="5,2" d="M321.887,-143.697C321.887,-135.983 321.887,-126.712 321.887,-118.112"/>
<polygon fill="black" stroke="black" points="325.387,-118.104 321.887,-108.104 318.387,-118.104 325.387,-118.104"/>
</g>
<!-- SystemParticipator -->
<g id="node6" class="node"><title>SystemParticipator</title>
<ellipse fill="none" stroke="black" cx="461.887" cy="-90" rx="79.0865" ry="18"/>
<text text-anchor="middle" x="461.887" y="-86.3" font-family="Times New Roman,serif" font-size="14.00">SystemParticipator</text>
</g>
<!-- Ground&#45;&gt;SystemParticipator -->
<g id="edge3" class="edge"><title>Ground&#45;&gt;SystemParticipator</title>
<path fill="none" stroke="black" stroke-width="2" d="M347.565,-148.161C368.263,-137.812 397.742,-123.072 421.581,-111.153"/>
<polygon fill="black" stroke="black" stroke-width="2" points="423.364,-114.175 430.743,-106.572 420.234,-107.914 423.364,-114.175"/>
</g>
<!-- ICollisionSystemParticipatorWrapper&#45;&gt;ICollisionSystemParticipator -->
<g id="edge6" class="edge"><title>ICollisionSystemParticipatorWrapper&#45;&gt;ICollisionSystemParticipator</title>
<path fill="none" stroke="black" d="M152.782,-36.1043C153.588,-43.7913 153.824,-53.0537 153.491,-61.6651"/>
<polygon fill="black" stroke="black" points="149.996,-61.4805 152.803,-71.6966 156.979,-61.9597 149.996,-61.4805"/>
</g>
<!-- SystemParticipator&#45;&gt;ISystemParticipator -->
<g id="edge7" class="edge"><title>SystemParticipator&#45;&gt;ISystemParticipator</title>
<path fill="none" stroke="black" stroke-dasharray="5,2" d="M445.426,-72.055C436.99,-63.3707 426.57,-52.6444 417.312,-43.114"/>
<polygon fill="black" stroke="black" points="419.675,-40.5231 410.196,-35.789 414.654,-45.4006 419.675,-40.5231"/>
</g>
<!-- ConvertToInterface -->
<g id="node7" class="node"><title>ConvertToInterface</title>
<ellipse fill="#e5e5e5" stroke="black" cx="576.887" cy="-18" rx="82.5854" ry="18"/>
<text text-anchor="middle" x="576.887" y="-14.3" font-family="Times New Roman,serif" font-size="14.00">ConvertToInterface</text>
</g>
<!-- SystemParticipator&#45;&gt;ConvertToInterface -->
<g id="edge8" class="edge"><title>SystemParticipator&#45;&gt;ConvertToInterface</title>
<path fill="none" stroke="black" d="M488.27,-72.9406C504.082,-63.3163 524.385,-50.9577 541.568,-40.4987"/>
<polygon fill="black" stroke="black" points="543.506,-43.4163 550.228,-35.2271 539.866,-37.4369 543.506,-43.4163"/>
</g>
</g>
</svg>
