<?xml version="1.0" encoding="UTF-8" standalone="no"?>
<!DOCTYPE svg PUBLIC "-//W3C//DTD SVG 1.1//EN"
 "http://www.w3.org/Graphics/SVG/1.1/DTD/svg11.dtd">
<!-- Generated by graphviz version 2.38.0 (20140413.2041)
 -->
<!-- Title: %3 Pages: 1 -->
<svg width="667pt" height="188pt"
 viewBox="0.00 0.00 667.43 188.00" xmlns="http://www.w3.org/2000/svg" xmlns:xlink="http://www.w3.org/1999/xlink">
<g id="graph0" class="graph" transform="scale(1 1) rotate(0) translate(4 184)">
<title>%3</title>
<polygon fill="white" stroke="none" points="-4,4 -4,-184 663.43,-184 663.43,4 -4,4"/>
<!-- ICollisionSystemParticipator -->
<g id="node1" class="node"><title>ICollisionSystemParticipator</title>
<ellipse fill="none" stroke="black" stroke-dasharray="5,2" cx="163.887" cy="-90" rx="114.28" ry="18"/>
<text text-anchor="middle" x="163.887" y="-86.3" font-family="Times New Roman,serif" font-size="14.00">ICollisionSystemParticipator</text>
</g>
<!-- ISystemParticipator -->
<g id="node3" class="node"><title>ISystemParticipator</title>
<ellipse fill="none" stroke="black" stroke-dasharray="5,2" cx="393.887" cy="-18" rx="82.5854" ry="18"/>
<text text-anchor="middle" x="393.887" y="-14.3" font-family="Times New Roman,serif" font-size="14.00">ISystemParticipator</text>
</g>
<!-- ICollisionSystemParticipator&#45;&gt;ISystemParticipator -->
<g id="edge1" class="edge"><title>ICollisionSystemParticipator&#45;&gt;ISystemParticipator</title>
<path fill="none" stroke="black" stroke-dasharray="5,2" d="M214.077,-73.7247C250.599,-62.6094 300.069,-47.5532 337.876,-36.0469"/>
<polygon fill="black" stroke="black" points="339.166,-39.3126 347.714,-33.0526 337.128,-32.6159 339.166,-39.3126"/>
</g>
<!-- ICollisionSystemParticipatorWrapper -->
<g id="node6" class="node"><title>ICollisionSystemParticipatorWrapper</title>
<ellipse fill="none" stroke="black" stroke-dasharray="5,2" cx="146.887" cy="-18" rx="146.774" ry="18"/>
<text text-anchor="middle" x="146.887" y="-14.3" font-family="Times New Roman,serif" font-size="14.00">ICollisionSystemParticipatorWrapper</text>
</g>
<!-- ICollisionSystemParticipator&#45;&gt;ICollisionSystemParticipatorWrapper -->
<g id="edge2" class="edge"><title>ICollisionSystemParticipator&#45;&gt;ICollisionSystemParticipatorWrapper</title>
<path fill="none" stroke="black" stroke-dasharray="5,2" d="M153.894,-72.055C151.203,-64.3456 148.698,-55.0269 146.927,-46.3642"/>
<polygon fill="black" stroke="black" points="150.334,-45.5261 145.17,-36.2753 143.438,-46.7277 150.334,-45.5261"/>
</g>
<!-- SystemParticipator -->
<g id="node2" class="node"><title>SystemParticipator</title>
<ellipse fill="none" stroke="black" cx="393.887" cy="-90" rx="79.0865" ry="18"/>
<text text-anchor="middle" x="393.887" y="-86.3" font-family="Times New Roman,serif" font-size="14.00">SystemParticipator</text>
</g>
<!-- SystemParticipator&#45;&gt;ISystemParticipator -->
<g id="edge3" class="edge"><title>SystemParticipator&#45;&gt;ISystemParticipator</title>
<path fill="none" stroke="black" stroke-dasharray="5,2" d="M393.887,-71.6966C393.887,-63.9827 393.887,-54.7125 393.887,-46.1124"/>
<polygon fill="black" stroke="black" points="397.387,-46.1043 393.887,-36.1043 390.387,-46.1044 397.387,-46.1043"/>
</g>
<!-- ConvertToInterface -->
<g id="node7" class="node"><title>ConvertToInterface</title>
<ellipse fill="#e5e5e5" stroke="black" cx="576.887" cy="-18" rx="82.5854" ry="18"/>
<text text-anchor="middle" x="576.887" y="-14.3" font-family="Times New Roman,serif" font-size="14.00">ConvertToInterface</text>
</g>
<!-- SystemParticipator&#45;&gt;ConvertToInterface -->
<g id="edge4" class="edge"><title>SystemParticipator&#45;&gt;ConvertToInterface</title>
<path fill="none" stroke="black" d="M432.697,-74.1548C460.625,-63.4719 498.488,-48.9887 528.406,-37.5445"/>
<polygon fill="black" stroke="black" points="529.729,-40.7861 537.818,-33.9443 527.228,-34.248 529.729,-40.7861"/>
</g>
<!-- IGround -->
<g id="node4" class="node"><title>IGround</title>
<ellipse fill="none" stroke="black" stroke-dasharray="5,2" cx="533.887" cy="-90" rx="42.4939" ry="18"/>
<text text-anchor="middle" x="533.887" y="-86.3" font-family="Times New Roman,serif" font-size="14.00">IGround</text>
</g>
<!-- Ground -->
<g id="node5" class="node"><title>Ground</title>
<ellipse fill="none" stroke="black" cx="393.887" cy="-162" rx="38.9931" ry="18"/>
<text text-anchor="middle" x="393.887" y="-158.3" font-family="Times New Roman,serif" font-size="14.00">Ground</text>
</g>
<!-- Ground&#45;&gt;ICollisionSystemParticipator -->
<g id="edge6" class="edge"><title>Ground&#45;&gt;ICollisionSystemParticipator</title>
<path fill="none" stroke="black" stroke-dasharray="5,2" d="M361.906,-151.267C326.333,-140.44 268.065,-122.706 223.923,-109.272"/>
<polygon fill="black" stroke="black" points="224.752,-105.866 214.166,-106.302 222.714,-112.562 224.752,-105.866"/>
</g>
<!-- Ground&#45;&gt;SystemParticipator -->
<g id="edge5" class="edge"><title>Ground&#45;&gt;SystemParticipator</title>
<path fill="none" stroke="black" stroke-width="2" d="M393.887,-143.697C393.887,-135.983 393.887,-126.712 393.887,-118.112"/>
<polygon fill="black" stroke="black" stroke-width="2" points="397.387,-118.104 393.887,-108.104 390.387,-118.104 397.387,-118.104"/>
</g>
<!-- Ground&#45;&gt;IGround -->
<g id="edge7" class="edge"><title>Ground&#45;&gt;IGround</title>
<path fill="none" stroke="black" stroke-dasharray="5,2" d="M419.565,-148.161C441.684,-137.101 473.833,-121.027 498.409,-108.739"/>
<polygon fill="black" stroke="black" points="500.041,-111.836 507.42,-104.233 496.911,-105.575 500.041,-111.836"/>
</g>
<!-- ICollisionSystemParticipatorWrapper&#45;&gt;ICollisionSystemParticipator -->
<g id="edge8" class="edge"><title>ICollisionSystemParticipatorWrapper&#45;&gt;ICollisionSystemParticipator</title>
<path fill="none" stroke="black" d="M156.936,-36.1043C159.608,-43.7913 162.094,-53.0537 163.853,-61.6651"/>
<polygon fill="black" stroke="black" points="160.436,-62.4459 165.6,-71.6966 167.332,-61.2442 160.436,-62.4459"/>
</g>
</g>
</svg>
