<?xml version="1.0" encoding="UTF-8" standalone="no"?>
<!DOCTYPE svg PUBLIC "-//W3C//DTD SVG 1.1//EN"
 "http://www.w3.org/Graphics/SVG/1.1/DTD/svg11.dtd">
<!-- Generated by graphviz version 2.38.0 (20140413.2041)
 -->
<!-- Title: %3 Pages: 1 -->
<svg width="667pt" height="188pt"
 viewBox="0.00 0.00 667.43 188.00" xmlns="http://www.w3.org/2000/svg" xmlns:xlink="http://www.w3.org/1999/xlink">
<g id="graph0" class="graph" transform="scale(1 1) rotate(0) translate(4 184)">
<title>%3</title>
<polygon fill="white" stroke="none" points="-4,4 -4,-184 663.43,-184 663.43,4 -4,4"/>
<!-- SystemParticipator -->
<g id="node1" class="node"><title>SystemParticipator</title>
<ellipse fill="none" stroke="black" cx="197.543" cy="-90" rx="79.0865" ry="18"/>
<text text-anchor="middle" x="197.543" y="-86.3" font-family="Times New Roman,serif" font-size="14.00">SystemParticipator</text>
</g>
<!-- ISystemParticipator -->
<g id="node6" class="node"><title>ISystemParticipator</title>
<ellipse fill="none" stroke="black" stroke-dasharray="5,2" cx="265.543" cy="-18" rx="82.5854" ry="18"/>
<text text-anchor="middle" x="265.543" y="-14.3" font-family="Times New Roman,serif" font-size="14.00">ISystemParticipator</text>
</g>
<!-- SystemParticipator&#45;&gt;ISystemParticipator -->
<g id="edge1" class="edge"><title>SystemParticipator&#45;&gt;ISystemParticipator</title>
<path fill="none" stroke="black" stroke-dasharray="5,2" d="M214.004,-72.055C222.44,-63.3707 232.86,-52.6444 242.118,-43.114"/>
<polygon fill="black" stroke="black" points="244.776,-45.4006 249.233,-35.789 239.755,-40.5231 244.776,-45.4006"/>
</g>
<!-- ConvertToInterface -->
<g id="node7" class="node"><title>ConvertToInterface</title>
<ellipse fill="none" stroke="black" cx="82.5427" cy="-18" rx="82.5854" ry="18"/>
<text text-anchor="middle" x="82.5427" y="-14.3" font-family="Times New Roman,serif" font-size="14.00">ConvertToInterface</text>
</g>
<!-- SystemParticipator&#45;&gt;ConvertToInterface -->
<g id="edge2" class="edge"><title>SystemParticipator&#45;&gt;ConvertToInterface</title>
<path fill="none" stroke="black" d="M171.159,-72.9406C155.348,-63.3163 135.045,-50.9577 117.862,-40.4987"/>
<polygon fill="black" stroke="black" points="119.563,-37.4369 109.201,-35.2271 115.924,-43.4163 119.563,-37.4369"/>
</g>
<!-- Ground -->
<g id="node2" class="node"><title>Ground</title>
<ellipse fill="none" stroke="black" cx="337.543" cy="-162" rx="38.9931" ry="18"/>
<text text-anchor="middle" x="337.543" y="-158.3" font-family="Times New Roman,serif" font-size="14.00">Ground</text>
</g>
<!-- Ground&#45;&gt;SystemParticipator -->
<g id="edge3" class="edge"><title>Ground&#45;&gt;SystemParticipator</title>
<path fill="none" stroke="black" stroke-width="2" d="M311.865,-148.161C291.167,-137.812 261.687,-123.072 237.848,-111.153"/>
<polygon fill="black" stroke="black" stroke-width="2" points="239.196,-107.914 228.687,-106.572 236.066,-114.175 239.196,-107.914"/>
</g>
<!-- IGround -->
<g id="node3" class="node"><title>IGround</title>
<ellipse fill="none" stroke="black" stroke-dasharray="5,2" cx="337.543" cy="-90" rx="42.4939" ry="18"/>
<text text-anchor="middle" x="337.543" y="-86.3" font-family="Times New Roman,serif" font-size="14.00">IGround</text>
</g>
<!-- Ground&#45;&gt;IGround -->
<g id="edge5" class="edge"><title>Ground&#45;&gt;IGround</title>
<path fill="none" stroke="black" stroke-dasharray="5,2" d="M337.543,-143.697C337.543,-135.983 337.543,-126.712 337.543,-118.112"/>
<polygon fill="black" stroke="black" points="341.043,-118.104 337.543,-108.104 334.043,-118.104 341.043,-118.104"/>
</g>
<!-- ICollisionSystemParticipator -->
<g id="node5" class="node"><title>ICollisionSystemParticipator</title>
<ellipse fill="none" stroke="black" stroke-dasharray="5,2" cx="512.543" cy="-90" rx="114.28" ry="18"/>
<text text-anchor="middle" x="512.543" y="-86.3" font-family="Times New Roman,serif" font-size="14.00">ICollisionSystemParticipator</text>
</g>
<!-- Ground&#45;&gt;ICollisionSystemParticipator -->
<g id="edge4" class="edge"><title>Ground&#45;&gt;ICollisionSystemParticipator</title>
<path fill="none" stroke="black" stroke-dasharray="5,2" d="M366.049,-149.597C392.293,-139.1 431.79,-123.301 463.161,-110.753"/>
<polygon fill="black" stroke="black" points="464.628,-113.936 472.613,-106.972 462.028,-107.436 464.628,-113.936"/>
</g>
<!-- ICollisionSystemParticipatorWrapper -->
<g id="node4" class="node"><title>ICollisionSystemParticipatorWrapper</title>
<ellipse fill="none" stroke="black" stroke-dasharray="5,2" cx="512.543" cy="-18" rx="146.774" ry="18"/>
<text text-anchor="middle" x="512.543" y="-14.3" font-family="Times New Roman,serif" font-size="14.00">ICollisionSystemParticipatorWrapper</text>
</g>
<!-- ICollisionSystemParticipatorWrapper&#45;&gt;ICollisionSystemParticipator -->
<g id="edge6" class="edge"><title>ICollisionSystemParticipatorWrapper&#45;&gt;ICollisionSystemParticipator</title>
<path fill="none" stroke="black" d="M518.438,-36.1043C519.243,-43.7913 519.48,-53.0537 519.147,-61.6651"/>
<polygon fill="black" stroke="black" points="515.651,-61.4805 518.458,-71.6966 522.635,-61.9597 515.651,-61.4805"/>
</g>
<!-- ICollisionSystemParticipator&#45;&gt;ICollisionSystemParticipatorWrapper -->
<g id="edge8" class="edge"><title>ICollisionSystemParticipator&#45;&gt;ICollisionSystemParticipatorWrapper</title>
<path fill="none" stroke="black" stroke-dasharray="5,2" d="M506.627,-71.6966C505.831,-63.9827 505.605,-54.7125 505.947,-46.1124"/>
<polygon fill="black" stroke="black" points="509.441,-46.3243 506.648,-36.1043 502.458,-45.8356 509.441,-46.3243"/>
</g>
<!-- ICollisionSystemParticipator&#45;&gt;ISystemParticipator -->
<g id="edge7" class="edge"><title>ICollisionSystemParticipator&#45;&gt;ISystemParticipator</title>
<path fill="none" stroke="black" stroke-dasharray="5,2" d="M459.555,-73.9832C419.53,-62.64 364.644,-47.0854 323.462,-35.4145"/>
<polygon fill="black" stroke="black" points="324.412,-32.0459 313.837,-32.6866 322.504,-38.7807 324.412,-32.0459"/>
</g>
</g>
</svg>
