<?xml version="1.0" encoding="UTF-8" standalone="no"?>
<!DOCTYPE svg PUBLIC "-//W3C//DTD SVG 1.1//EN"
 "http://www.w3.org/Graphics/SVG/1.1/DTD/svg11.dtd">
<!-- Generated by graphviz version 2.38.0 (20140413.2041)
 -->
<!-- Title: %3 Pages: 1 -->
<svg width="363pt" height="291pt"
 viewBox="0.00 0.00 362.79 291.00" xmlns="http://www.w3.org/2000/svg" xmlns:xlink="http://www.w3.org/1999/xlink">
<g id="graph0" class="graph" transform="scale(1 1) rotate(0) translate(4 287)">
<title>%3</title>
<polygon fill="white" stroke="none" points="-4,4 -4,-287 358.795,-287 358.795,4 -4,4"/>
<!-- abstract class -->
<g id="node1" class="node"><title>abstract class</title>
<ellipse fill="none" stroke="black" stroke-dasharray="1,5" cx="59.7947" cy="-105" rx="59.5901" ry="18"/>
<text text-anchor="middle" x="59.7947" y="-101.3" font-family="Times New Roman,serif" font-size="14.00">abstract class</text>
</g>
<!-- subclass -->
<g id="node2" class="node"><title>subclass</title>
<ellipse fill="none" stroke="black" cx="178.795" cy="-265" rx="42.4939" ry="18"/>
<text text-anchor="middle" x="178.795" y="-261.3" font-family="Times New Roman,serif" font-size="14.00">subclass</text>
</g>
<!-- class -->
<g id="node3" class="node"><title>class</title>
<ellipse fill="none" stroke="black" cx="178.795" cy="-192" rx="28.6953" ry="18"/>
<text text-anchor="middle" x="178.795" y="-188.3" font-family="Times New Roman,serif" font-size="14.00">class</text>
</g>
<!-- subclass&#45;&gt;class -->
<g id="edge1" class="edge"><title>subclass&#45;&gt;class</title>
<path fill="none" stroke="black" stroke-width="2" d="M178.795,-246.813C178.795,-238.789 178.795,-229.047 178.795,-220.069"/>
<polygon fill="black" stroke="black" stroke-width="2" points="182.295,-220.029 178.795,-210.029 175.295,-220.029 182.295,-220.029"/>
<text text-anchor="middle" x="143.295" y="-232.002" font-family="Times New Roman,serif" font-size="14.00">derives from</text>
</g>
<!-- class&#45;&gt;abstract class -->
<g id="edge2" class="edge"><title>class&#45;&gt;abstract class</title>
<path fill="none" stroke="black" stroke-width="2" d="M160.462,-177.905C141.814,-164.585 112.583,-143.706 90.4148,-127.871"/>
<polygon fill="black" stroke="black" stroke-width="2" points="92.1728,-124.826 82.0011,-121.862 88.1041,-130.522 92.1728,-124.826"/>
<text text-anchor="middle" x="86.0032" y="-153.877" font-family="Times New Roman,serif" font-size="14.00">derives from</text>
</g>
<!-- interface -->
<g id="node4" class="node"><title>interface</title>
<ellipse fill="none" stroke="black" stroke-dasharray="5,2" cx="178.795" cy="-105" rx="41.6928" ry="18"/>
<text text-anchor="middle" x="178.795" y="-101.3" font-family="Times New Roman,serif" font-size="14.00">interface</text>
</g>
<!-- class&#45;&gt;interface -->
<g id="edge3" class="edge"><title>class&#45;&gt;interface</title>
<path fill="none" stroke="black" stroke-dasharray="5,2" d="M178.795,-173.799C178.795,-162.163 178.795,-146.548 178.795,-133.237"/>
<polygon fill="black" stroke="black" points="182.295,-133.175 178.795,-123.175 175.295,-133.175 182.295,-133.175"/>
<text text-anchor="middle" x="210.795" y="-144.8" font-family="Times New Roman,serif" font-size="14.00">implements</text>
</g>
<!-- other class -->
<g id="node5" class="node"><title>other class</title>
<ellipse fill="none" stroke="black" cx="288.795" cy="-105" rx="50.0912" ry="18"/>
<text text-anchor="middle" x="288.795" y="-101.3" font-family="Times New Roman,serif" font-size="14.00">other class</text>
</g>
<!-- class&#45;&gt;other class -->
<g id="edge4" class="edge"><title>class&#45;&gt;other class</title>
<path fill="none" stroke="black" d="M202.513,-181.595C216.247,-175.49 233.409,-166.686 246.795,-156 255.791,-148.817 264.259,-139.466 271.202,-130.796"/>
<polygon fill="black" stroke="black" points="274.04,-132.847 277.359,-122.786 268.49,-128.581 274.04,-132.847"/>
<text text-anchor="middle" x="295.795" y="-144.8" font-family="Times New Roman,serif" font-size="14.00">depends on</text>
</g>
<!-- static class -->
<g id="node6" class="node"><title>static class</title>
<ellipse fill="#e5e5e5" stroke="black" cx="288.795" cy="-18" rx="50.0912" ry="18"/>
<text text-anchor="middle" x="288.795" y="-14.3" font-family="Times New Roman,serif" font-size="14.00">static class</text>
</g>
<!-- other class&#45;&gt;static class -->
<g id="edge5" class="edge"><title>other class&#45;&gt;static class</title>
<path fill="none" stroke="black" d="M288.795,-86.799C288.795,-75.1626 288.795,-59.5479 288.795,-46.2368"/>
<polygon fill="black" stroke="black" points="292.295,-46.1754 288.795,-36.1754 285.295,-46.1755 292.295,-46.1754"/>
<text text-anchor="middle" x="321.795" y="-57.8" font-family="Times New Roman,serif" font-size="14.00">depends on</text>
</g>
</g>
</svg>
