<?xml version="1.0" encoding="UTF-8" standalone="no"?>
<!DOCTYPE svg PUBLIC "-//W3C//DTD SVG 1.1//EN"
 "http://www.w3.org/Graphics/SVG/1.1/DTD/svg11.dtd">
<!-- Generated by graphviz version 2.38.0 (20140413.2041)
 -->
<!-- Title: %3 Pages: 1 -->
<svg width="163pt" height="188pt"
 viewBox="0.00 0.00 163.39 188.00" xmlns="http://www.w3.org/2000/svg" xmlns:xlink="http://www.w3.org/1999/xlink">
<g id="graph0" class="graph" transform="scale(1 1) rotate(0) translate(4 184)">
<title>%3</title>
<polygon fill="white" stroke="none" points="-4,4 -4,-184 159.39,-184 159.39,4 -4,4"/>
<!-- IFlipX -->
<g id="node1" class="node"><title>IFlipX</title>
<ellipse fill="none" stroke="black" stroke-dasharray="5,2" cx="60.4446" cy="-18" rx="34.394" ry="18"/>
<text text-anchor="middle" x="60.4446" y="-14.3" font-family="Times New Roman,serif" font-size="14.00">IFlipX</text>
</g>
<!-- BarCollection -->
<g id="node2" class="node"><title>BarCollection</title>
<ellipse fill="none" stroke="black" cx="60.4446" cy="-162" rx="60.3893" ry="18"/>
<text text-anchor="middle" x="60.4446" y="-158.3" font-family="Times New Roman,serif" font-size="14.00">BarCollection</text>
</g>
<!-- BarCollection&#45;&gt;IFlipX -->
<g id="edge1" class="edge"><title>BarCollection&#45;&gt;IFlipX</title>
<path fill="none" stroke="black" stroke-dasharray="5,2" d="M51.314,-143.88C46.4372,-133.756 40.9372,-120.506 38.4446,-108 35.3173,-92.3086 35.3173,-87.6914 38.4446,-72 40.2641,-62.8707 43.6862,-53.3451 47.2987,-44.9286"/>
<polygon fill="black" stroke="black" points="50.5667,-46.198 51.5422,-35.6481 44.2007,-43.2871 50.5667,-46.198"/>
</g>
<!-- IBarDisplay -->
<g id="node3" class="node"><title>IBarDisplay</title>
<ellipse fill="none" stroke="black" stroke-dasharray="5,2" cx="101.445" cy="-90" rx="53.8905" ry="18"/>
<text text-anchor="middle" x="101.445" y="-86.3" font-family="Times New Roman,serif" font-size="14.00">IBarDisplay</text>
</g>
<!-- BarCollection&#45;&gt;IBarDisplay -->
<g id="edge2" class="edge"><title>BarCollection&#45;&gt;IBarDisplay</title>
<path fill="none" stroke="black" d="M70.3696,-144.055C75.2043,-135.801 81.1195,-125.701 86.4868,-116.538"/>
<polygon fill="black" stroke="black" points="89.5771,-118.187 91.6111,-107.789 83.5369,-114.649 89.5771,-118.187"/>
</g>
<!-- IBarDisplay&#45;&gt;IFlipX -->
<g id="edge3" class="edge"><title>IBarDisplay&#45;&gt;IFlipX</title>
<path fill="none" stroke="black" stroke-dasharray="5,2" d="M91.5197,-72.055C86.6139,-63.6793 80.5955,-53.4039 75.166,-44.1341"/>
<polygon fill="black" stroke="black" points="78.0701,-42.1669 69.9959,-35.307 72.0299,-45.7048 78.0701,-42.1669"/>
</g>
</g>
</svg>
