<?xml version="1.0" encoding="UTF-8" standalone="no"?>
<!DOCTYPE svg PUBLIC "-//W3C//DTD SVG 1.1//EN"
 "http://www.w3.org/Graphics/SVG/1.1/DTD/svg11.dtd">
<!-- Generated by graphviz version 2.38.0 (20140413.2041)
 -->
<!-- Title: %3 Pages: 1 -->
<svg width="1003pt" height="260pt"
 viewBox="0.00 0.00 1002.83 260.00" xmlns="http://www.w3.org/2000/svg" xmlns:xlink="http://www.w3.org/1999/xlink">
<g id="graph0" class="graph" transform="scale(1 1) rotate(0) translate(4 256)">
<title>%3</title>
<polygon fill="white" stroke="none" points="-4,4 -4,-256 998.834,-256 998.834,4 -4,4"/>
<!-- FlipXCollection -->
<g id="node1" class="node"><title>FlipXCollection</title>
<ellipse fill="none" stroke="black" cx="68.2439" cy="-162" rx="68.4888" ry="18"/>
<text text-anchor="middle" x="68.2439" y="-158.3" font-family="Times New Roman,serif" font-size="14.00">FlipXCollection</text>
</g>
<!-- IFlipX -->
<g id="node15" class="node"><title>IFlipX</title>
<ellipse fill="none" stroke="black" stroke-dasharray="5,2" cx="271.244" cy="-18" rx="34.394" ry="18"/>
<text text-anchor="middle" x="271.244" y="-14.3" font-family="Times New Roman,serif" font-size="14.00">IFlipX</text>
</g>
<!-- FlipXCollection&#45;&gt;IFlipX -->
<g id="edge1" class="edge"><title>FlipXCollection&#45;&gt;IFlipX</title>
<path fill="none" stroke="black" stroke-dasharray="5,2" d="M82.1041,-144.169C98.6691,-124.852 127.967,-93.1242 158.244,-72 181.724,-55.618 211.067,-42.0282 233.967,-32.7121"/>
<polygon fill="black" stroke="black" points="235.349,-35.9293 243.351,-28.9854 232.765,-29.4235 235.349,-35.9293"/>
</g>
<!-- ICreaturePhysics -->
<g id="node2" class="node"><title>ICreaturePhysics</title>
<ellipse fill="none" stroke="black" stroke-dasharray="5,2" cx="227.244" cy="-162" rx="72.5877" ry="18"/>
<text text-anchor="middle" x="227.244" y="-158.3" font-family="Times New Roman,serif" font-size="14.00">ICreaturePhysics</text>
</g>
<!-- IBasePhysics -->
<g id="node7" class="node"><title>IBasePhysics</title>
<ellipse fill="none" stroke="black" stroke-dasharray="5,2" cx="227.244" cy="-90" rx="59.5901" ry="18"/>
<text text-anchor="middle" x="227.244" y="-86.3" font-family="Times New Roman,serif" font-size="14.00">IBasePhysics</text>
</g>
<!-- ICreaturePhysics&#45;&gt;IBasePhysics -->
<g id="edge2" class="edge"><title>ICreaturePhysics&#45;&gt;IBasePhysics</title>
<path fill="none" stroke="black" stroke-dasharray="5,2" d="M227.244,-143.697C227.244,-135.983 227.244,-126.712 227.244,-118.112"/>
<polygon fill="black" stroke="black" points="230.744,-118.104 227.244,-108.104 223.744,-118.104 230.744,-118.104"/>
</g>
<!-- BarCollection -->
<g id="node3" class="node"><title>BarCollection</title>
<ellipse fill="none" stroke="black" cx="378.244" cy="-162" rx="60.3893" ry="18"/>
<text text-anchor="middle" x="378.244" y="-158.3" font-family="Times New Roman,serif" font-size="14.00">BarCollection</text>
</g>
<!-- IBarDisplay -->
<g id="node10" class="node"><title>IBarDisplay</title>
<ellipse fill="none" stroke="black" stroke-dasharray="5,2" cx="397.244" cy="-90" rx="53.8905" ry="18"/>
<text text-anchor="middle" x="397.244" y="-86.3" font-family="Times New Roman,serif" font-size="14.00">IBarDisplay</text>
</g>
<!-- BarCollection&#45;&gt;IBarDisplay -->
<g id="edge4" class="edge"><title>BarCollection&#45;&gt;IBarDisplay</title>
<path fill="none" stroke="black" d="M382.941,-143.697C385.057,-135.898 387.606,-126.509 389.962,-117.829"/>
<polygon fill="black" stroke="black" points="393.36,-118.672 392.601,-108.104 386.604,-116.838 393.36,-118.672"/>
</g>
<!-- BarCollection&#45;&gt;IFlipX -->
<g id="edge3" class="edge"><title>BarCollection&#45;&gt;IFlipX</title>
<path fill="none" stroke="black" stroke-dasharray="5,2" d="M363.637,-144.085C354.906,-133.809 343.707,-120.335 334.244,-108 317.904,-86.7027 300.337,-61.6933 287.915,-43.6179"/>
<polygon fill="black" stroke="black" points="290.793,-41.6259 282.259,-35.3482 285.016,-45.578 290.793,-41.6259"/>
</g>
<!-- CreatureHealth -->
<g id="node4" class="node"><title>CreatureHealth</title>
<ellipse fill="none" stroke="black" cx="558.244" cy="-162" rx="64.189" ry="18"/>
<text text-anchor="middle" x="558.244" y="-158.3" font-family="Times New Roman,serif" font-size="14.00">CreatureHealth</text>
</g>
<!-- Callback -->
<g id="node5" class="node"><title>Callback</title>
<ellipse fill="#e5e5e5" stroke="black" cx="653.244" cy="-18" rx="42.4939" ry="18"/>
<text text-anchor="middle" x="653.244" y="-14.3" font-family="Times New Roman,serif" font-size="14.00">Callback</text>
</g>
<!-- CreatureHealth&#45;&gt;Callback -->
<g id="edge7" class="edge"><title>CreatureHealth&#45;&gt;Callback</title>
<path fill="none" stroke="black" d="M531.865,-145.343C519.168,-136.219 505.214,-123.457 498.244,-108 491.667,-93.4144 488.939,-85.0159 498.244,-72 521.427,-39.5727 565.688,-26.7663 600.997,-21.8162"/>
<polygon fill="black" stroke="black" points="601.664,-25.2607 611.163,-20.5686 600.811,-18.3128 601.664,-25.2607"/>
</g>
<!-- CreatureHealth&#45;&gt;IBarDisplay -->
<g id="edge6" class="edge"><title>CreatureHealth&#45;&gt;IBarDisplay</title>
<path fill="none" stroke="black" d="M524.885,-146.496C499.701,-135.547 465.014,-120.465 438.155,-108.787"/>
<polygon fill="black" stroke="black" points="439.212,-105.431 428.646,-104.653 436.421,-111.85 439.212,-105.431"/>
</g>
<!-- ICreatureHealth -->
<g id="node12" class="node"><title>ICreatureHealth</title>
<ellipse fill="none" stroke="black" stroke-dasharray="5,2" cx="575.244" cy="-90" rx="67.6881" ry="18"/>
<text text-anchor="middle" x="575.244" y="-86.3" font-family="Times New Roman,serif" font-size="14.00">ICreatureHealth</text>
</g>
<!-- CreatureHealth&#45;&gt;ICreatureHealth -->
<g id="edge5" class="edge"><title>CreatureHealth&#45;&gt;ICreatureHealth</title>
<path fill="none" stroke="black" stroke-dasharray="5,2" d="M562.446,-143.697C564.34,-135.898 566.62,-126.509 568.728,-117.829"/>
<polygon fill="black" stroke="black" points="572.131,-118.648 571.09,-108.104 565.329,-116.996 572.131,-118.648"/>
</g>
<!-- TimerCollection -->
<g id="node6" class="node"><title>TimerCollection</title>
<ellipse fill="none" stroke="black" cx="720.244" cy="-162" rx="69.5877" ry="18"/>
<text text-anchor="middle" x="720.244" y="-158.3" font-family="Times New Roman,serif" font-size="14.00">TimerCollection</text>
</g>
<!-- TimerCollection&#45;&gt;Callback -->
<g id="edge9" class="edge"><title>TimerCollection&#45;&gt;Callback</title>
<path fill="none" stroke="black" d="M709.981,-144.096C703.921,-133.824 696.279,-120.35 690.244,-108 680.187,-87.4187 670.305,-63.3992 663.288,-45.5038"/>
<polygon fill="black" stroke="black" points="666.482,-44.0595 659.604,-36.0005 659.955,-46.5895 666.482,-44.0595"/>
</g>
<!-- Timer -->
<g id="node8" class="node"><title>Timer</title>
<ellipse fill="none" stroke="black" cx="731.244" cy="-90" rx="32.4942" ry="18"/>
<text text-anchor="middle" x="731.244" y="-86.3" font-family="Times New Roman,serif" font-size="14.00">Timer</text>
</g>
<!-- TimerCollection&#45;&gt;Timer -->
<g id="edge8" class="edge"><title>TimerCollection&#45;&gt;Timer</title>
<path fill="none" stroke="black" d="M722.963,-143.697C724.175,-135.983 725.632,-126.712 726.983,-118.112"/>
<polygon fill="black" stroke="black" points="730.461,-118.526 728.556,-108.104 723.546,-117.44 730.461,-118.526"/>
</g>
<!-- TimerNotFoundException -->
<g id="node14" class="node"><title>TimerNotFoundException</title>
<ellipse fill="none" stroke="black" cx="888.244" cy="-90" rx="106.681" ry="18"/>
<text text-anchor="middle" x="888.244" y="-86.3" font-family="Times New Roman,serif" font-size="14.00">TimerNotFoundException</text>
</g>
<!-- TimerCollection&#45;&gt;TimerNotFoundException -->
<g id="edge10" class="edge"><title>TimerCollection&#45;&gt;TimerNotFoundException</title>
<path fill="none" stroke="black" d="M755.462,-146.326C780.25,-135.997 813.711,-122.055 840.841,-110.751"/>
<polygon fill="black" stroke="black" points="842.264,-113.95 850.148,-106.873 839.571,-107.489 842.264,-113.95"/>
</g>
<!-- IBasePhysics&#45;&gt;IFlipX -->
<g id="edge11" class="edge"><title>IBasePhysics&#45;&gt;IFlipX</title>
<path fill="none" stroke="black" stroke-dasharray="5,2" d="M237.895,-72.055C243.215,-63.592 249.753,-53.1897 255.627,-43.8447"/>
<polygon fill="black" stroke="black" points="258.635,-45.636 260.994,-35.307 252.709,-41.9108 258.635,-45.636"/>
</g>
<!-- Timer&#45;&gt;Callback -->
<g id="edge12" class="edge"><title>Timer&#45;&gt;Callback</title>
<path fill="none" stroke="black" d="M714.702,-74.1548C704.064,-64.6076 690.044,-52.0254 678.081,-41.2895"/>
<polygon fill="black" stroke="black" points="680.353,-38.6258 670.573,-34.5516 675.678,-43.8356 680.353,-38.6258"/>
</g>
<!-- Debug -->
<g id="node9" class="node"><title>Debug</title>
<ellipse fill="#e5e5e5" stroke="black" cx="748.244" cy="-18" rx="34.394" ry="18"/>
<text text-anchor="middle" x="748.244" y="-14.3" font-family="Times New Roman,serif" font-size="14.00">Debug</text>
</g>
<!-- Timer&#45;&gt;Debug -->
<g id="edge13" class="edge"><title>Timer&#45;&gt;Debug</title>
<path fill="none" stroke="black" d="M735.359,-72.055C737.252,-64.2609 739.544,-54.8219 741.668,-46.0789"/>
<polygon fill="black" stroke="black" points="745.09,-46.8189 744.049,-36.2753 738.287,-45.1668 745.09,-46.8189"/>
</g>
<!-- IBarDisplay&#45;&gt;IFlipX -->
<g id="edge14" class="edge"><title>IBarDisplay&#45;&gt;IFlipX</title>
<path fill="none" stroke="black" stroke-dasharray="5,2" d="M370.523,-74.1548C350.764,-63.1776 323.782,-48.188 302.935,-36.6059"/>
<polygon fill="black" stroke="black" points="304.567,-33.5089 294.126,-31.712 301.167,-39.628 304.567,-33.5089"/>
</g>
<!-- Exception -->
<g id="node11" class="node"><title>Exception</title>
<ellipse fill="none" stroke="black" cx="888.244" cy="-18" rx="47.3916" ry="18"/>
<text text-anchor="middle" x="888.244" y="-14.3" font-family="Times New Roman,serif" font-size="14.00">Exception</text>
</g>
<!-- BaseCreature -->
<g id="node13" class="node"><title>BaseCreature</title>
<ellipse fill="none" stroke="black" cx="422.244" cy="-234" rx="59.2899" ry="18"/>
<text text-anchor="middle" x="422.244" y="-230.3" font-family="Times New Roman,serif" font-size="14.00">BaseCreature</text>
</g>
<!-- BaseCreature&#45;&gt;FlipXCollection -->
<g id="edge15" class="edge"><title>BaseCreature&#45;&gt;FlipXCollection</title>
<path fill="none" stroke="black" d="M372.874,-223.989C317.408,-213.764 224.73,-196.375 145.244,-180 139.797,-178.878 134.139,-177.684 128.476,-176.469"/>
<polygon fill="black" stroke="black" points="128.832,-172.965 118.318,-174.27 127.351,-179.806 128.832,-172.965"/>
</g>
<!-- BaseCreature&#45;&gt;ICreaturePhysics -->
<g id="edge19" class="edge"><title>BaseCreature&#45;&gt;ICreaturePhysics</title>
<path fill="none" stroke="black" d="M385.566,-219.834C354.739,-208.767 310.406,-192.853 276.489,-180.678"/>
<polygon fill="black" stroke="black" points="277.367,-177.274 266.773,-177.19 275.002,-183.863 277.367,-177.274"/>
</g>
<!-- BaseCreature&#45;&gt;BarCollection -->
<g id="edge16" class="edge"><title>BaseCreature&#45;&gt;BarCollection</title>
<path fill="none" stroke="black" d="M411.593,-216.055C406.404,-207.801 400.056,-197.701 394.296,-188.538"/>
<polygon fill="black" stroke="black" points="397.082,-186.393 388.797,-179.789 391.156,-190.118 397.082,-186.393"/>
</g>
<!-- BaseCreature&#45;&gt;CreatureHealth -->
<g id="edge17" class="edge"><title>BaseCreature&#45;&gt;CreatureHealth</title>
<path fill="none" stroke="black" d="M451.086,-218.155C471.144,-207.831 498.098,-193.957 519.955,-182.708"/>
<polygon fill="black" stroke="black" points="521.685,-185.754 528.975,-178.065 518.481,-179.53 521.685,-185.754"/>
</g>
<!-- BaseCreature&#45;&gt;TimerCollection -->
<g id="edge18" class="edge"><title>BaseCreature&#45;&gt;TimerCollection</title>
<path fill="none" stroke="black" d="M467.504,-222.369C519.113,-210.246 603.687,-190.379 660.63,-177.003"/>
<polygon fill="black" stroke="black" points="661.64,-180.361 670.575,-174.667 660.04,-173.547 661.64,-180.361"/>
</g>
<!-- BaseCreature&#45;&gt;IBarDisplay -->
<g id="edge20" class="edge"><title>BaseCreature&#45;&gt;IBarDisplay</title>
<path fill="none" stroke="black" d="M433.375,-216.256C443.968,-198.107 456.961,-168.462 447.244,-144 442.693,-132.543 434.361,-122.129 425.786,-113.623"/>
<polygon fill="black" stroke="black" points="427.99,-110.894 418.277,-106.662 423.231,-116.027 427.99,-110.894"/>
</g>
<!-- TimerNotFoundException&#45;&gt;Exception -->
<g id="edge21" class="edge"><title>TimerNotFoundException&#45;&gt;Exception</title>
<path fill="none" stroke="black" stroke-width="2" d="M888.244,-71.6966C888.244,-63.9827 888.244,-54.7125 888.244,-46.1124"/>
<polygon fill="black" stroke="black" stroke-width="2" points="891.744,-46.1043 888.244,-36.1043 884.744,-46.1044 891.744,-46.1043"/>
</g>
</g>
</svg>
