<?xml version="1.0" encoding="UTF-8" standalone="no"?>
<!DOCTYPE svg PUBLIC "-//W3C//DTD SVG 1.1//EN"
 "http://www.w3.org/Graphics/SVG/1.1/DTD/svg11.dtd">
<!-- Generated by graphviz version 2.38.0 (20140413.2041)
 -->
<!-- Title: %3 Pages: 1 -->
<svg width="894pt" height="260pt"
 viewBox="0.00 0.00 893.69 260.00" xmlns="http://www.w3.org/2000/svg" xmlns:xlink="http://www.w3.org/1999/xlink">
<g id="graph0" class="graph" transform="scale(1 1) rotate(0) translate(4 256)">
<title>%3</title>
<polygon fill="white" stroke="none" points="-4,4 -4,-256 889.691,-256 889.691,4 -4,4"/>
<!-- Exception -->
<g id="node1" class="node"><title>Exception</title>
<ellipse fill="none" stroke="black" cx="694.244" cy="-18" rx="47.3916" ry="18"/>
<text text-anchor="middle" x="694.244" y="-14.3" font-family="Times New Roman,serif" font-size="14.00">Exception</text>
</g>
<!-- FlipXCollection -->
<g id="node2" class="node"><title>FlipXCollection</title>
<ellipse fill="none" stroke="black" cx="68.2439" cy="-162" rx="68.4888" ry="18"/>
<text text-anchor="middle" x="68.2439" y="-158.3" font-family="Times New Roman,serif" font-size="14.00">FlipXCollection</text>
</g>
<!-- IFlipX -->
<g id="node13" class="node"><title>IFlipX</title>
<ellipse fill="none" stroke="black" stroke-dasharray="5,2" cx="334.244" cy="-18" rx="34.394" ry="18"/>
<text text-anchor="middle" x="334.244" y="-14.3" font-family="Times New Roman,serif" font-size="14.00">IFlipX</text>
</g>
<!-- FlipXCollection&#45;&gt;IFlipX -->
<g id="edge1" class="edge"><title>FlipXCollection&#45;&gt;IFlipX</title>
<path fill="none" stroke="black" stroke-dasharray="5,2" d="M74.2576,-143.79C82.247,-123.498 98.3239,-90.2337 123.244,-72 172.591,-35.8936 243.906,-24.2582 289.67,-20.5829"/>
<polygon fill="black" stroke="black" points="290.149,-24.0579 299.877,-19.8612 289.655,-17.0754 290.149,-24.0579"/>
</g>
<!-- TimerNotFoundException -->
<g id="node3" class="node"><title>TimerNotFoundException</title>
<ellipse fill="none" stroke="black" cx="694.244" cy="-90" rx="106.681" ry="18"/>
<text text-anchor="middle" x="694.244" y="-86.3" font-family="Times New Roman,serif" font-size="14.00">TimerNotFoundException</text>
</g>
<!-- TimerNotFoundException&#45;&gt;Exception -->
<g id="edge2" class="edge"><title>TimerNotFoundException&#45;&gt;Exception</title>
<path fill="none" stroke="black" stroke-width="2" d="M694.244,-71.6966C694.244,-63.9827 694.244,-54.7125 694.244,-46.1124"/>
<polygon fill="black" stroke="black" stroke-width="2" points="697.744,-46.1043 694.244,-36.1043 690.744,-46.1044 697.744,-46.1043"/>
</g>
<!-- ICreaturePhysics -->
<g id="node4" class="node"><title>ICreaturePhysics</title>
<ellipse fill="none" stroke="black" stroke-dasharray="5,2" cx="227.244" cy="-162" rx="72.5877" ry="18"/>
<text text-anchor="middle" x="227.244" y="-158.3" font-family="Times New Roman,serif" font-size="14.00">ICreaturePhysics</text>
</g>
<!-- IBasePhysics -->
<g id="node5" class="node"><title>IBasePhysics</title>
<ellipse fill="none" stroke="black" stroke-dasharray="5,2" cx="192.244" cy="-90" rx="59.5901" ry="18"/>
<text text-anchor="middle" x="192.244" y="-86.3" font-family="Times New Roman,serif" font-size="14.00">IBasePhysics</text>
</g>
<!-- ICreaturePhysics&#45;&gt;IBasePhysics -->
<g id="edge3" class="edge"><title>ICreaturePhysics&#45;&gt;IBasePhysics</title>
<path fill="none" stroke="black" stroke-dasharray="5,2" d="M218.771,-144.055C214.747,-136.007 209.846,-126.205 205.357,-117.226"/>
<polygon fill="black" stroke="black" points="208.484,-115.654 200.882,-108.275 202.223,-118.785 208.484,-115.654"/>
</g>
<!-- IBasePhysics&#45;&gt;IFlipX -->
<g id="edge4" class="edge"><title>IBasePhysics&#45;&gt;IFlipX</title>
<path fill="none" stroke="black" stroke-dasharray="5,2" d="M222.012,-74.3257C244.986,-63.0002 276.776,-47.3294 300.658,-35.5563"/>
<polygon fill="black" stroke="black" points="302.29,-38.6541 309.712,-31.0932 299.195,-32.3755 302.29,-38.6541"/>
</g>
<!-- CreatureHealth -->
<g id="node6" class="node"><title>CreatureHealth</title>
<ellipse fill="none" stroke="black" cx="382.244" cy="-162" rx="64.189" ry="18"/>
<text text-anchor="middle" x="382.244" y="-158.3" font-family="Times New Roman,serif" font-size="14.00">CreatureHealth</text>
</g>
<!-- ICreatureHealth -->
<g id="node7" class="node"><title>ICreatureHealth</title>
<ellipse fill="none" stroke="black" stroke-dasharray="5,2" cx="337.244" cy="-90" rx="67.6881" ry="18"/>
<text text-anchor="middle" x="337.244" y="-86.3" font-family="Times New Roman,serif" font-size="14.00">ICreatureHealth</text>
</g>
<!-- CreatureHealth&#45;&gt;ICreatureHealth -->
<g id="edge5" class="edge"><title>CreatureHealth&#45;&gt;ICreatureHealth</title>
<path fill="none" stroke="black" stroke-dasharray="5,2" d="M371.351,-144.055C365.989,-135.715 359.417,-125.491 353.477,-116.252"/>
<polygon fill="black" stroke="black" points="356.389,-114.308 348.037,-107.789 350.5,-118.093 356.389,-114.308"/>
</g>
<!-- IBarDisplay -->
<g id="node8" class="node"><title>IBarDisplay</title>
<ellipse fill="none" stroke="black" stroke-dasharray="5,2" cx="477.244" cy="-90" rx="53.8905" ry="18"/>
<text text-anchor="middle" x="477.244" y="-86.3" font-family="Times New Roman,serif" font-size="14.00">IBarDisplay</text>
</g>
<!-- CreatureHealth&#45;&gt;IBarDisplay -->
<g id="edge6" class="edge"><title>CreatureHealth&#45;&gt;IBarDisplay</title>
<path fill="none" stroke="black" d="M404.278,-144.765C417.169,-135.266 433.613,-123.149 447.626,-112.824"/>
<polygon fill="black" stroke="black" points="450.009,-115.416 455.983,-106.666 445.856,-109.78 450.009,-115.416"/>
</g>
<!-- IBarDisplay&#45;&gt;IFlipX -->
<g id="edge7" class="edge"><title>IBarDisplay&#45;&gt;IFlipX</title>
<path fill="none" stroke="black" stroke-dasharray="5,2" d="M447.961,-74.6655C424.733,-63.2952 392.244,-47.3915 367.937,-35.4933"/>
<polygon fill="black" stroke="black" points="369.252,-32.2399 358.731,-30.9868 366.174,-38.527 369.252,-32.2399"/>
</g>
<!-- Debug -->
<g id="node9" class="node"><title>Debug</title>
<ellipse fill="none" stroke="black" cx="851.244" cy="-18" rx="34.394" ry="18"/>
<text text-anchor="middle" x="851.244" y="-14.3" font-family="Times New Roman,serif" font-size="14.00">Debug</text>
</g>
<!-- TimerCollection -->
<g id="node10" class="node"><title>TimerCollection</title>
<ellipse fill="none" stroke="black" cx="710.244" cy="-162" rx="69.5877" ry="18"/>
<text text-anchor="middle" x="710.244" y="-158.3" font-family="Times New Roman,serif" font-size="14.00">TimerCollection</text>
</g>
<!-- TimerCollection&#45;&gt;TimerNotFoundException -->
<g id="edge9" class="edge"><title>TimerCollection&#45;&gt;TimerNotFoundException</title>
<path fill="none" stroke="black" d="M706.289,-143.697C704.526,-135.983 702.407,-126.712 700.441,-118.112"/>
<polygon fill="black" stroke="black" points="703.794,-117.073 698.154,-108.104 696.97,-118.633 703.794,-117.073"/>
</g>
<!-- Timer -->
<g id="node14" class="node"><title>Timer</title>
<ellipse fill="none" stroke="black" cx="851.244" cy="-90" rx="32.4942" ry="18"/>
<text text-anchor="middle" x="851.244" y="-86.3" font-family="Times New Roman,serif" font-size="14.00">Timer</text>
</g>
<!-- TimerCollection&#45;&gt;Timer -->
<g id="edge8" class="edge"><title>TimerCollection&#45;&gt;Timer</title>
<path fill="none" stroke="black" d="M740.839,-145.811C763.761,-134.431 795.075,-118.885 818.5,-107.256"/>
<polygon fill="black" stroke="black" points="820.29,-110.275 827.691,-102.693 817.178,-104.005 820.29,-110.275"/>
</g>
<!-- BaseCreature -->
<g id="node11" class="node"><title>BaseCreature</title>
<ellipse fill="none" stroke="black" cx="474.244" cy="-234" rx="59.2899" ry="18"/>
<text text-anchor="middle" x="474.244" y="-230.3" font-family="Times New Roman,serif" font-size="14.00">BaseCreature</text>
</g>
<!-- BaseCreature&#45;&gt;FlipXCollection -->
<g id="edge10" class="edge"><title>BaseCreature&#45;&gt;FlipXCollection</title>
<path fill="none" stroke="black" d="M421.944,-225.524C356.904,-216.01 242.565,-198.566 145.244,-180 139.558,-178.915 133.65,-177.725 127.748,-176.494"/>
<polygon fill="black" stroke="black" points="128.371,-173.048 117.862,-174.395 126.917,-179.896 128.371,-173.048"/>
</g>
<!-- BaseCreature&#45;&gt;ICreaturePhysics -->
<g id="edge14" class="edge"><title>BaseCreature&#45;&gt;ICreaturePhysics</title>
<path fill="none" stroke="black" d="M432.623,-221.205C391.507,-209.552 328.354,-191.655 282.934,-178.783"/>
<polygon fill="black" stroke="black" points="283.814,-175.394 273.238,-176.035 281.905,-182.129 283.814,-175.394"/>
</g>
<!-- BaseCreature&#45;&gt;CreatureHealth -->
<g id="edge12" class="edge"><title>BaseCreature&#45;&gt;CreatureHealth</title>
<path fill="none" stroke="black" d="M453.368,-217.116C440.987,-207.696 425.104,-195.611 411.489,-185.251"/>
<polygon fill="black" stroke="black" points="413.434,-182.333 403.356,-179.064 409.195,-187.904 413.434,-182.333"/>
</g>
<!-- BaseCreature&#45;&gt;IBarDisplay -->
<g id="edge15" class="edge"><title>BaseCreature&#45;&gt;IBarDisplay</title>
<path fill="none" stroke="black" d="M474.606,-215.871C475.117,-191.67 476.056,-147.211 476.665,-118.393"/>
<polygon fill="black" stroke="black" points="480.169,-118.261 476.881,-108.189 473.17,-118.113 480.169,-118.261"/>
</g>
<!-- BaseCreature&#45;&gt;TimerCollection -->
<g id="edge13" class="edge"><title>BaseCreature&#45;&gt;TimerCollection</title>
<path fill="none" stroke="black" d="M515.083,-220.887C554.248,-209.27 613.609,-191.663 656.578,-178.918"/>
<polygon fill="black" stroke="black" points="657.712,-182.232 666.304,-176.033 655.721,-175.521 657.712,-182.232"/>
</g>
<!-- BarCollection -->
<g id="node12" class="node"><title>BarCollection</title>
<ellipse fill="none" stroke="black" cx="562.244" cy="-162" rx="60.3893" ry="18"/>
<text text-anchor="middle" x="562.244" y="-158.3" font-family="Times New Roman,serif" font-size="14.00">BarCollection</text>
</g>
<!-- BaseCreature&#45;&gt;BarCollection -->
<g id="edge11" class="edge"><title>BaseCreature&#45;&gt;BarCollection</title>
<path fill="none" stroke="black" d="M494.654,-216.765C506.316,-207.488 521.117,-195.714 533.894,-185.551"/>
<polygon fill="black" stroke="black" points="536.297,-188.112 541.944,-179.147 531.94,-182.633 536.297,-188.112"/>
</g>
<!-- BaseCreature&#45;&gt;Timer -->
<g id="edge16" class="edge"><title>BaseCreature&#45;&gt;Timer</title>
<path fill="none" stroke="black" d="M530.884,-228.735C609.63,-221.929 747.253,-206.591 789.244,-180 812.867,-165.041 829.944,-137.493 840.122,-116.993"/>
<polygon fill="black" stroke="black" points="843.329,-118.398 844.437,-107.861 837,-115.407 843.329,-118.398"/>
</g>
<!-- BarCollection&#45;&gt;IBarDisplay -->
<g id="edge18" class="edge"><title>BarCollection&#45;&gt;IBarDisplay</title>
<path fill="none" stroke="black" d="M542.53,-144.765C531.185,-135.422 516.764,-123.546 504.363,-113.334"/>
<polygon fill="black" stroke="black" points="506.503,-110.561 496.558,-106.906 502.053,-115.965 506.503,-110.561"/>
</g>
<!-- BarCollection&#45;&gt;IFlipX -->
<g id="edge17" class="edge"><title>BarCollection&#45;&gt;IFlipX</title>
<path fill="none" stroke="black" stroke-dasharray="5,2" d="M562.907,-143.771C562.698,-123.776 559.174,-91.1103 540.244,-72 517.66,-49.201 430.794,-32.9305 377.337,-24.8323"/>
<polygon fill="black" stroke="black" points="377.848,-21.3699 367.444,-23.3688 376.824,-28.2945 377.848,-21.3699"/>
</g>
<!-- Timer&#45;&gt;Debug -->
<g id="edge19" class="edge"><title>Timer&#45;&gt;Debug</title>
<path fill="none" stroke="black" d="M851.244,-71.6966C851.244,-63.9827 851.244,-54.7125 851.244,-46.1124"/>
<polygon fill="black" stroke="black" points="854.744,-46.1043 851.244,-36.1043 847.744,-46.1044 854.744,-46.1043"/>
</g>
</g>
</svg>
