<?xml version="1.0" encoding="UTF-8" standalone="no"?>
<!DOCTYPE svg PUBLIC "-//W3C//DTD SVG 1.1//EN"
 "http://www.w3.org/Graphics/SVG/1.1/DTD/svg11.dtd">
<!-- Generated by graphviz version 2.38.0 (20140413.2041)
 -->
<!-- Title: %3 Pages: 1 -->
<svg width="982pt" height="260pt"
 viewBox="0.00 0.00 982.38 260.00" xmlns="http://www.w3.org/2000/svg" xmlns:xlink="http://www.w3.org/1999/xlink">
<g id="graph0" class="graph" transform="scale(1 1) rotate(0) translate(4 256)">
<title>%3</title>
<polygon fill="white" stroke="none" points="-4,4 -4,-256 978.384,-256 978.384,4 -4,4"/>
<!-- FlipXCollection -->
<g id="node1" class="node"><title>FlipXCollection</title>
<ellipse fill="none" stroke="black" cx="407.794" cy="-162" rx="68.4888" ry="18"/>
<text text-anchor="middle" x="407.794" y="-158.3" font-family="Times New Roman,serif" font-size="14.00">FlipXCollection</text>
</g>
<!-- IFlipX -->
<g id="node8" class="node"><title>IFlipX</title>
<ellipse fill="none" stroke="black" stroke-dasharray="5,2" cx="266.794" cy="-18" rx="34.394" ry="18"/>
<text text-anchor="middle" x="266.794" y="-14.3" font-family="Times New Roman,serif" font-size="14.00">IFlipX</text>
</g>
<!-- FlipXCollection&#45;&gt;IFlipX -->
<g id="edge1" class="edge"><title>FlipXCollection&#45;&gt;IFlipX</title>
<path fill="none" stroke="black" stroke-dasharray="5,2" d="M404.678,-143.985C400.333,-124.495 390.754,-92.6052 371.794,-72 354.048,-52.7149 327.704,-39.4455 305.844,-31.007"/>
<polygon fill="black" stroke="black" points="306.756,-27.614 296.163,-27.4656 304.352,-34.188 306.756,-27.614"/>
</g>
<!-- IBarDisplay -->
<g id="node2" class="node"><title>IBarDisplay</title>
<ellipse fill="none" stroke="black" stroke-dasharray="5,2" cx="308.794" cy="-90" rx="53.8905" ry="18"/>
<text text-anchor="middle" x="308.794" y="-86.3" font-family="Times New Roman,serif" font-size="14.00">IBarDisplay</text>
</g>
<!-- IBarDisplay&#45;&gt;IFlipX -->
<g id="edge2" class="edge"><title>IBarDisplay&#45;&gt;IFlipX</title>
<path fill="none" stroke="black" stroke-dasharray="5,2" d="M298.627,-72.055C293.601,-63.6793 287.436,-53.4039 281.874,-44.1341"/>
<polygon fill="black" stroke="black" points="284.724,-42.0812 276.578,-35.307 278.722,-45.6827 284.724,-42.0812"/>
</g>
<!-- BaseCreature -->
<g id="node3" class="node"><title>BaseCreature</title>
<ellipse fill="none" stroke="black" cx="359.794" cy="-234" rx="59.2899" ry="18"/>
<text text-anchor="middle" x="359.794" y="-230.3" font-family="Times New Roman,serif" font-size="14.00">BaseCreature</text>
</g>
<!-- BaseCreature&#45;&gt;FlipXCollection -->
<g id="edge3" class="edge"><title>BaseCreature&#45;&gt;FlipXCollection</title>
<path fill="none" stroke="black" d="M371.413,-216.055C377.132,-207.715 384.143,-197.491 390.478,-188.252"/>
<polygon fill="black" stroke="black" points="393.512,-190.016 396.281,-179.789 387.739,-186.057 393.512,-190.016"/>
</g>
<!-- BaseCreature&#45;&gt;IBarDisplay -->
<g id="edge8" class="edge"><title>BaseCreature&#45;&gt;IBarDisplay</title>
<path fill="none" stroke="black" d="M348.949,-215.882C342.917,-205.76 335.667,-192.51 330.794,-180 322.957,-159.886 317.25,-136.106 313.614,-118.188"/>
<polygon fill="black" stroke="black" points="317.004,-117.283 311.666,-108.132 310.132,-118.615 317.004,-117.283"/>
</g>
<!-- CreatureHealth -->
<g id="node4" class="node"><title>CreatureHealth</title>
<ellipse fill="none" stroke="black" cx="558.794" cy="-162" rx="64.189" ry="18"/>
<text text-anchor="middle" x="558.794" y="-158.3" font-family="Times New Roman,serif" font-size="14.00">CreatureHealth</text>
</g>
<!-- BaseCreature&#45;&gt;CreatureHealth -->
<g id="edge5" class="edge"><title>BaseCreature&#45;&gt;CreatureHealth</title>
<path fill="none" stroke="black" d="M397.224,-219.834C429.333,-208.539 475.8,-192.194 510.668,-179.929"/>
<polygon fill="black" stroke="black" points="511.902,-183.205 520.174,-176.585 509.579,-176.602 511.902,-183.205"/>
</g>
<!-- BarCollection -->
<g id="node10" class="node"><title>BarCollection</title>
<ellipse fill="none" stroke="black" cx="223.794" cy="-162" rx="60.3893" ry="18"/>
<text text-anchor="middle" x="223.794" y="-158.3" font-family="Times New Roman,serif" font-size="14.00">BarCollection</text>
</g>
<!-- BaseCreature&#45;&gt;BarCollection -->
<g id="edge4" class="edge"><title>BaseCreature&#45;&gt;BarCollection</title>
<path fill="none" stroke="black" d="M330.951,-218.155C310.893,-207.831 283.939,-193.957 262.083,-182.708"/>
<polygon fill="black" stroke="black" points="263.556,-179.53 253.063,-178.065 260.353,-185.754 263.556,-179.53"/>
</g>
<!-- ICreaturePhysics -->
<g id="node11" class="node"><title>ICreaturePhysics</title>
<ellipse fill="none" stroke="black" stroke-dasharray="5,2" cx="72.7935" cy="-162" rx="72.5877" ry="18"/>
<text text-anchor="middle" x="72.7935" y="-158.3" font-family="Times New Roman,serif" font-size="14.00">ICreaturePhysics</text>
</g>
<!-- BaseCreature&#45;&gt;ICreaturePhysics -->
<g id="edge7" class="edge"><title>BaseCreature&#45;&gt;ICreaturePhysics</title>
<path fill="none" stroke="black" d="M315.265,-222.139C266.203,-210.173 187.049,-190.867 132.603,-177.588"/>
<polygon fill="black" stroke="black" points="133.282,-174.151 122.737,-175.181 131.623,-180.951 133.282,-174.151"/>
</g>
<!-- TimerCollection -->
<g id="node12" class="node"><title>TimerCollection</title>
<ellipse fill="none" stroke="black" cx="710.794" cy="-162" rx="69.5877" ry="18"/>
<text text-anchor="middle" x="710.794" y="-158.3" font-family="Times New Roman,serif" font-size="14.00">TimerCollection</text>
</g>
<!-- BaseCreature&#45;&gt;TimerCollection -->
<g id="edge6" class="edge"><title>BaseCreature&#45;&gt;TimerCollection</title>
<path fill="none" stroke="black" d="M408.989,-223.713C463.513,-213.351 554.029,-195.942 631.794,-180 637.516,-178.827 643.468,-177.585 649.422,-176.329"/>
<polygon fill="black" stroke="black" points="650.349,-179.71 659.404,-174.21 648.896,-172.863 650.349,-179.71"/>
</g>
<!-- CreatureHealth&#45;&gt;IBarDisplay -->
<g id="edge10" class="edge"><title>CreatureHealth&#45;&gt;IBarDisplay</title>
<path fill="none" stroke="black" d="M514.961,-148.727C471.255,-136.489 404.226,-117.721 358.548,-104.931"/>
<polygon fill="black" stroke="black" points="359.429,-101.543 348.856,-102.217 357.542,-108.284 359.429,-101.543"/>
</g>
<!-- ICreatureHealth -->
<g id="node7" class="node"><title>ICreatureHealth</title>
<ellipse fill="none" stroke="black" stroke-dasharray="5,2" cx="516.794" cy="-90" rx="67.6881" ry="18"/>
<text text-anchor="middle" x="516.794" y="-86.3" font-family="Times New Roman,serif" font-size="14.00">ICreatureHealth</text>
</g>
<!-- CreatureHealth&#45;&gt;ICreatureHealth -->
<g id="edge9" class="edge"><title>CreatureHealth&#45;&gt;ICreatureHealth</title>
<path fill="none" stroke="black" stroke-dasharray="5,2" d="M548.627,-144.055C543.747,-135.922 537.792,-125.998 532.359,-116.943"/>
<polygon fill="black" stroke="black" points="535.305,-115.049 527.159,-108.275 529.302,-118.651 535.305,-115.049"/>
</g>
<!-- Callback -->
<g id="node15" class="node"><title>Callback</title>
<ellipse fill="none" stroke="black" cx="632.794" cy="-18" rx="42.4939" ry="18"/>
<text text-anchor="middle" x="632.794" y="-14.3" font-family="Times New Roman,serif" font-size="14.00">Callback</text>
</g>
<!-- CreatureHealth&#45;&gt;Callback -->
<g id="edge11" class="edge"><title>CreatureHealth&#45;&gt;Callback</title>
<path fill="none" stroke="black" d="M570.904,-144.272C578.024,-134.062 586.942,-120.591 593.794,-108 604.951,-87.4953 615.441,-63.1542 622.725,-45.1149"/>
<polygon fill="black" stroke="black" points="625.984,-46.3914 626.427,-35.8058 619.48,-43.8052 625.984,-46.3914"/>
</g>
<!-- Exception -->
<g id="node5" class="node"><title>Exception</title>
<ellipse fill="none" stroke="black" cx="867.794" cy="-18" rx="47.3916" ry="18"/>
<text text-anchor="middle" x="867.794" y="-14.3" font-family="Times New Roman,serif" font-size="14.00">Exception</text>
</g>
<!-- IBasePhysics -->
<g id="node6" class="node"><title>IBasePhysics</title>
<ellipse fill="none" stroke="black" stroke-dasharray="5,2" cx="104.794" cy="-90" rx="59.5901" ry="18"/>
<text text-anchor="middle" x="104.794" y="-86.3" font-family="Times New Roman,serif" font-size="14.00">IBasePhysics</text>
</g>
<!-- IBasePhysics&#45;&gt;IFlipX -->
<g id="edge12" class="edge"><title>IBasePhysics&#45;&gt;IFlipX</title>
<path fill="none" stroke="black" stroke-dasharray="5,2" d="M137.577,-74.8345C164.869,-63.0415 203.644,-46.287 231.588,-34.2122"/>
<polygon fill="black" stroke="black" points="233.193,-37.3316 240.984,-30.1522 230.416,-30.9059 233.193,-37.3316"/>
</g>
<!-- Debug -->
<g id="node9" class="node"><title>Debug</title>
<ellipse fill="#e5e5e5" stroke="black" cx="727.794" cy="-18" rx="34.394" ry="18"/>
<text text-anchor="middle" x="727.794" y="-14.3" font-family="Times New Roman,serif" font-size="14.00">Debug</text>
</g>
<!-- BarCollection&#45;&gt;IBarDisplay -->
<g id="edge14" class="edge"><title>BarCollection&#45;&gt;IBarDisplay</title>
<path fill="none" stroke="black" d="M243.508,-144.765C254.853,-135.422 269.273,-123.546 281.674,-113.334"/>
<polygon fill="black" stroke="black" points="283.985,-115.965 289.479,-106.906 279.535,-110.561 283.985,-115.965"/>
</g>
<!-- BarCollection&#45;&gt;IFlipX -->
<g id="edge13" class="edge"><title>BarCollection&#45;&gt;IFlipX</title>
<path fill="none" stroke="black" stroke-dasharray="5,2" d="M227.334,-143.746C231.211,-125.674 237.933,-96.5572 245.794,-72 248.613,-63.1924 252.172,-53.7536 255.555,-45.3177"/>
<polygon fill="black" stroke="black" points="258.831,-46.5534 259.39,-35.9734 252.355,-43.8953 258.831,-46.5534"/>
</g>
<!-- ICreaturePhysics&#45;&gt;IBasePhysics -->
<g id="edge15" class="edge"><title>ICreaturePhysics&#45;&gt;IBasePhysics</title>
<path fill="none" stroke="black" stroke-dasharray="5,2" d="M80.5398,-144.055C84.1803,-136.091 88.6058,-126.411 92.6748,-117.51"/>
<polygon fill="black" stroke="black" points="95.9218,-118.825 96.8963,-108.275 89.5554,-115.915 95.9218,-118.825"/>
</g>
<!-- TimerNotFoundException -->
<g id="node13" class="node"><title>TimerNotFoundException</title>
<ellipse fill="none" stroke="black" cx="867.794" cy="-90" rx="106.681" ry="18"/>
<text text-anchor="middle" x="867.794" y="-86.3" font-family="Times New Roman,serif" font-size="14.00">TimerNotFoundException</text>
</g>
<!-- TimerCollection&#45;&gt;TimerNotFoundException -->
<g id="edge18" class="edge"><title>TimerCollection&#45;&gt;TimerNotFoundException</title>
<path fill="none" stroke="black" d="M744.089,-146.155C766.916,-135.977 797.479,-122.35 822.515,-111.188"/>
<polygon fill="black" stroke="black" points="824.103,-114.312 831.811,-107.043 821.253,-107.919 824.103,-114.312"/>
</g>
<!-- Timer -->
<g id="node14" class="node"><title>Timer</title>
<ellipse fill="none" stroke="black" cx="710.794" cy="-90" rx="32.4942" ry="18"/>
<text text-anchor="middle" x="710.794" y="-86.3" font-family="Times New Roman,serif" font-size="14.00">Timer</text>
</g>
<!-- TimerCollection&#45;&gt;Timer -->
<g id="edge16" class="edge"><title>TimerCollection&#45;&gt;Timer</title>
<path fill="none" stroke="black" d="M710.794,-143.697C710.794,-135.983 710.794,-126.712 710.794,-118.112"/>
<polygon fill="black" stroke="black" points="714.294,-118.104 710.794,-108.104 707.294,-118.104 714.294,-118.104"/>
</g>
<!-- TimerCollection&#45;&gt;Callback -->
<g id="edge17" class="edge"><title>TimerCollection&#45;&gt;Callback</title>
<path fill="none" stroke="black" d="M695.903,-144.157C687.522,-134.126 677.272,-120.876 669.794,-108 658.218,-88.0703 648.388,-63.823 641.776,-45.6732"/>
<polygon fill="black" stroke="black" points="644.996,-44.2819 638.354,-36.0272 638.399,-46.622 644.996,-44.2819"/>
</g>
<!-- TimerNotFoundException&#45;&gt;Exception -->
<g id="edge19" class="edge"><title>TimerNotFoundException&#45;&gt;Exception</title>
<path fill="none" stroke="black" stroke-width="2" d="M867.794,-71.6966C867.794,-63.9827 867.794,-54.7125 867.794,-46.1124"/>
<polygon fill="black" stroke="black" stroke-width="2" points="871.294,-46.1043 867.794,-36.1043 864.294,-46.1044 871.294,-46.1043"/>
</g>
<!-- Timer&#45;&gt;Debug -->
<g id="edge21" class="edge"><title>Timer&#45;&gt;Debug</title>
<path fill="none" stroke="black" d="M714.909,-72.055C716.802,-64.2609 719.094,-54.8219 721.217,-46.0789"/>
<polygon fill="black" stroke="black" points="724.639,-46.8189 723.598,-36.2753 717.837,-45.1668 724.639,-46.8189"/>
</g>
<!-- Timer&#45;&gt;Callback -->
<g id="edge20" class="edge"><title>Timer&#45;&gt;Callback</title>
<path fill="none" stroke="black" d="M694.252,-74.1548C683.613,-64.6076 669.593,-52.0254 657.63,-41.2895"/>
<polygon fill="black" stroke="black" points="659.903,-38.6258 650.122,-34.5516 655.227,-43.8356 659.903,-38.6258"/>
</g>
</g>
</svg>
