<?xml version="1.0" encoding="UTF-8" standalone="no"?>
<!DOCTYPE svg PUBLIC "-//W3C//DTD SVG 1.1//EN"
 "http://www.w3.org/Graphics/SVG/1.1/DTD/svg11.dtd">
<!-- Generated by graphviz version 2.38.0 (20140413.2041)
 -->
<!-- Title: %3 Pages: 1 -->
<svg width="984pt" height="260pt"
 viewBox="0.00 0.00 984.38 260.00" xmlns="http://www.w3.org/2000/svg" xmlns:xlink="http://www.w3.org/1999/xlink">
<g id="graph0" class="graph" transform="scale(1 1) rotate(0) translate(4 256)">
<title>%3</title>
<polygon fill="white" stroke="none" points="-4,4 -4,-256 980.384,-256 980.384,4 -4,4"/>
<!-- Timer -->
<g id="node1" class="node"><title>Timer</title>
<ellipse fill="none" stroke="black" cx="263.591" cy="-90" rx="32.4942" ry="18"/>
<text text-anchor="middle" x="263.591" y="-86.3" font-family="Times New Roman,serif" font-size="14.00">Timer</text>
</g>
<!-- Debug -->
<g id="node3" class="node"><title>Debug</title>
<ellipse fill="#e5e5e5" stroke="black" cx="245.591" cy="-18" rx="34.394" ry="18"/>
<text text-anchor="middle" x="245.591" y="-14.3" font-family="Times New Roman,serif" font-size="14.00">Debug</text>
</g>
<!-- Timer&#45;&gt;Debug -->
<g id="edge2" class="edge"><title>Timer&#45;&gt;Debug</title>
<path fill="none" stroke="black" d="M259.233,-72.055C257.229,-64.2609 254.802,-54.8219 252.554,-46.0789"/>
<polygon fill="black" stroke="black" points="255.913,-45.0886 250.033,-36.2753 249.134,-46.8319 255.913,-45.0886"/>
</g>
<!-- Callback -->
<g id="node15" class="node"><title>Callback</title>
<ellipse fill="#e5e5e5" stroke="black" cx="340.591" cy="-18" rx="42.4939" ry="18"/>
<text text-anchor="middle" x="340.591" y="-14.3" font-family="Times New Roman,serif" font-size="14.00">Callback</text>
</g>
<!-- Timer&#45;&gt;Callback -->
<g id="edge1" class="edge"><title>Timer&#45;&gt;Callback</title>
<path fill="none" stroke="black" d="M279.92,-74.1548C290.422,-64.6076 304.263,-52.0254 316.072,-41.2895"/>
<polygon fill="black" stroke="black" points="318.439,-43.8681 323.484,-34.5516 313.73,-38.6885 318.439,-43.8681"/>
</g>
<!-- IBasePhysics -->
<g id="node2" class="node"><title>IBasePhysics</title>
<ellipse fill="none" stroke="black" stroke-dasharray="5,2" cx="864.591" cy="-90" rx="59.5901" ry="18"/>
<text text-anchor="middle" x="864.591" y="-86.3" font-family="Times New Roman,serif" font-size="14.00">IBasePhysics</text>
</g>
<!-- IFlipX -->
<g id="node6" class="node"><title>IFlipX</title>
<ellipse fill="none" stroke="black" stroke-dasharray="5,2" cx="714.591" cy="-18" rx="34.394" ry="18"/>
<text text-anchor="middle" x="714.591" y="-14.3" font-family="Times New Roman,serif" font-size="14.00">IFlipX</text>
</g>
<!-- IBasePhysics&#45;&gt;IFlipX -->
<g id="edge3" class="edge"><title>IBasePhysics&#45;&gt;IFlipX</title>
<path fill="none" stroke="black" stroke-dasharray="5,2" d="M833.51,-74.496C808.857,-62.9909 774.427,-46.9238 748.955,-35.037"/>
<polygon fill="black" stroke="black" points="750.213,-31.7614 739.671,-30.7041 747.252,-38.1047 750.213,-31.7614"/>
</g>
<!-- BaseCreature -->
<g id="node4" class="node"><title>BaseCreature</title>
<ellipse fill="none" stroke="black" cx="553.591" cy="-234" rx="59.2899" ry="18"/>
<text text-anchor="middle" x="553.591" y="-230.3" font-family="Times New Roman,serif" font-size="14.00">BaseCreature</text>
</g>
<!-- BarCollection -->
<g id="node7" class="node"><title>BarCollection</title>
<ellipse fill="none" stroke="black" cx="597.591" cy="-162" rx="60.3893" ry="18"/>
<text text-anchor="middle" x="597.591" y="-158.3" font-family="Times New Roman,serif" font-size="14.00">BarCollection</text>
</g>
<!-- BaseCreature&#45;&gt;BarCollection -->
<g id="edge5" class="edge"><title>BaseCreature&#45;&gt;BarCollection</title>
<path fill="none" stroke="black" d="M564.242,-216.055C569.43,-207.801 575.778,-197.701 581.538,-188.538"/>
<polygon fill="black" stroke="black" points="584.679,-190.118 587.037,-179.789 578.752,-186.393 584.679,-190.118"/>
</g>
<!-- ICreaturePhysics -->
<g id="node8" class="node"><title>ICreaturePhysics</title>
<ellipse fill="none" stroke="black" stroke-dasharray="5,2" cx="903.591" cy="-162" rx="72.5877" ry="18"/>
<text text-anchor="middle" x="903.591" y="-158.3" font-family="Times New Roman,serif" font-size="14.00">ICreaturePhysics</text>
</g>
<!-- BaseCreature&#45;&gt;ICreaturePhysics -->
<g id="edge8" class="edge"><title>BaseCreature&#45;&gt;ICreaturePhysics</title>
<path fill="none" stroke="black" d="M602.032,-223.559C655.729,-213.061 744.89,-195.534 821.591,-180 827.433,-178.817 833.507,-177.576 839.589,-176.328"/>
<polygon fill="black" stroke="black" points="840.704,-179.672 849.793,-174.227 839.292,-172.816 840.704,-179.672"/>
</g>
<!-- IBarDisplay -->
<g id="node9" class="node"><title>IBarDisplay</title>
<ellipse fill="none" stroke="black" stroke-dasharray="5,2" cx="597.591" cy="-90" rx="53.8905" ry="18"/>
<text text-anchor="middle" x="597.591" y="-86.3" font-family="Times New Roman,serif" font-size="14.00">IBarDisplay</text>
</g>
<!-- BaseCreature&#45;&gt;IBarDisplay -->
<g id="edge9" class="edge"><title>BaseCreature&#45;&gt;IBarDisplay</title>
<path fill="none" stroke="black" d="M541.922,-216.262C530.653,-197.86 516.884,-167.753 528.591,-144 535.318,-130.349 547.437,-119.234 559.663,-110.773"/>
<polygon fill="black" stroke="black" points="561.574,-113.705 568.078,-105.341 557.778,-107.824 561.574,-113.705"/>
</g>
<!-- TimerCollection -->
<g id="node12" class="node"><title>TimerCollection</title>
<ellipse fill="none" stroke="black" cx="264.591" cy="-162" rx="69.5877" ry="18"/>
<text text-anchor="middle" x="264.591" y="-158.3" font-family="Times New Roman,serif" font-size="14.00">TimerCollection</text>
</g>
<!-- BaseCreature&#45;&gt;TimerCollection -->
<g id="edge7" class="edge"><title>BaseCreature&#45;&gt;TimerCollection</title>
<path fill="none" stroke="black" d="M508.751,-222.139C458.9,-210.065 378.195,-190.517 323.332,-177.228"/>
<polygon fill="black" stroke="black" points="323.945,-173.775 313.402,-174.823 322.297,-180.579 323.945,-173.775"/>
</g>
<!-- FlipXCollection -->
<g id="node13" class="node"><title>FlipXCollection</title>
<ellipse fill="none" stroke="black" cx="744.591" cy="-162" rx="68.4888" ry="18"/>
<text text-anchor="middle" x="744.591" y="-158.3" font-family="Times New Roman,serif" font-size="14.00">FlipXCollection</text>
</g>
<!-- BaseCreature&#45;&gt;FlipXCollection -->
<g id="edge4" class="edge"><title>BaseCreature&#45;&gt;FlipXCollection</title>
<path fill="none" stroke="black" d="M589.966,-219.669C620.307,-208.549 663.776,-192.618 696.902,-180.477"/>
<polygon fill="black" stroke="black" points="698.202,-183.729 706.387,-177.001 695.793,-177.156 698.202,-183.729"/>
</g>
<!-- CreatureHealth -->
<g id="node14" class="node"><title>CreatureHealth</title>
<ellipse fill="none" stroke="black" cx="417.591" cy="-162" rx="64.189" ry="18"/>
<text text-anchor="middle" x="417.591" y="-158.3" font-family="Times New Roman,serif" font-size="14.00">CreatureHealth</text>
</g>
<!-- BaseCreature&#45;&gt;CreatureHealth -->
<g id="edge6" class="edge"><title>BaseCreature&#45;&gt;CreatureHealth</title>
<path fill="none" stroke="black" d="M524.748,-218.155C504.69,-207.831 477.736,-193.957 455.88,-182.708"/>
<polygon fill="black" stroke="black" points="457.353,-179.53 446.86,-178.065 454.15,-185.754 457.353,-179.53"/>
</g>
<!-- ICreatureHealth -->
<g id="node5" class="node"><title>ICreatureHealth</title>
<ellipse fill="none" stroke="black" stroke-dasharray="5,2" cx="457.591" cy="-90" rx="67.6881" ry="18"/>
<text text-anchor="middle" x="457.591" y="-86.3" font-family="Times New Roman,serif" font-size="14.00">ICreatureHealth</text>
</g>
<!-- BarCollection&#45;&gt;IFlipX -->
<g id="edge10" class="edge"><title>BarCollection&#45;&gt;IFlipX</title>
<path fill="none" stroke="black" stroke-dasharray="5,2" d="M619.864,-145.149C632.691,-135.351 648.595,-122.002 660.591,-108 677.212,-88.5984 691.942,-63.4865 701.802,-44.8863"/>
<polygon fill="black" stroke="black" points="705.007,-46.3073 706.498,-35.8179 698.792,-43.0883 705.007,-46.3073"/>
</g>
<!-- BarCollection&#45;&gt;IBarDisplay -->
<g id="edge11" class="edge"><title>BarCollection&#45;&gt;IBarDisplay</title>
<path fill="none" stroke="black" d="M597.591,-143.697C597.591,-135.983 597.591,-126.712 597.591,-118.112"/>
<polygon fill="black" stroke="black" points="601.091,-118.104 597.591,-108.104 594.091,-118.104 601.091,-118.104"/>
</g>
<!-- ICreaturePhysics&#45;&gt;IBasePhysics -->
<g id="edge12" class="edge"><title>ICreaturePhysics&#45;&gt;IBasePhysics</title>
<path fill="none" stroke="black" stroke-dasharray="5,2" d="M894.15,-144.055C889.551,-135.801 883.924,-125.701 878.819,-116.538"/>
<polygon fill="black" stroke="black" points="881.869,-114.821 873.944,-107.789 875.754,-118.228 881.869,-114.821"/>
</g>
<!-- IBarDisplay&#45;&gt;IFlipX -->
<g id="edge13" class="edge"><title>IBarDisplay&#45;&gt;IFlipX</title>
<path fill="none" stroke="black" stroke-dasharray="5,2" d="M622.69,-73.9832C640.659,-63.2324 664.951,-48.6986 684.047,-37.2736"/>
<polygon fill="black" stroke="black" points="685.899,-40.2445 692.683,-32.1068 682.305,-34.2375 685.899,-40.2445"/>
</g>
<!-- Exception -->
<g id="node10" class="node"><title>Exception</title>
<ellipse fill="none" stroke="black" cx="106.591" cy="-18" rx="47.3916" ry="18"/>
<text text-anchor="middle" x="106.591" y="-14.3" font-family="Times New Roman,serif" font-size="14.00">Exception</text>
</g>
<!-- TimerNotFoundException -->
<g id="node11" class="node"><title>TimerNotFoundException</title>
<ellipse fill="none" stroke="black" cx="106.591" cy="-90" rx="106.681" ry="18"/>
<text text-anchor="middle" x="106.591" y="-86.3" font-family="Times New Roman,serif" font-size="14.00">TimerNotFoundException</text>
</g>
<!-- TimerNotFoundException&#45;&gt;Exception -->
<g id="edge14" class="edge"><title>TimerNotFoundException&#45;&gt;Exception</title>
<path fill="none" stroke="black" stroke-width="2" d="M106.591,-71.6966C106.591,-63.9827 106.591,-54.7125 106.591,-46.1124"/>
<polygon fill="black" stroke="black" stroke-width="2" points="110.091,-46.1043 106.591,-36.1043 103.091,-46.1044 110.091,-46.1043"/>
</g>
<!-- TimerCollection&#45;&gt;Timer -->
<g id="edge15" class="edge"><title>TimerCollection&#45;&gt;Timer</title>
<path fill="none" stroke="black" d="M264.343,-143.697C264.233,-135.983 264.101,-126.712 263.978,-118.112"/>
<polygon fill="black" stroke="black" points="267.477,-118.053 263.835,-108.104 260.478,-118.153 267.477,-118.053"/>
</g>
<!-- TimerCollection&#45;&gt;TimerNotFoundException -->
<g id="edge17" class="edge"><title>TimerCollection&#45;&gt;TimerNotFoundException</title>
<path fill="none" stroke="black" d="M231.083,-146.155C208.11,-135.977 177.352,-122.35 152.158,-111.188"/>
<polygon fill="black" stroke="black" points="153.362,-107.894 142.802,-107.043 150.527,-114.294 153.362,-107.894"/>
</g>
<!-- TimerCollection&#45;&gt;Callback -->
<g id="edge16" class="edge"><title>TimerCollection&#45;&gt;Callback</title>
<path fill="none" stroke="black" d="M279.136,-144.129C287.317,-134.088 297.317,-120.838 304.591,-108 315.907,-88.0257 325.467,-63.7819 331.885,-45.6447"/>
<polygon fill="black" stroke="black" points="335.257,-46.6014 335.205,-36.0067 328.639,-44.3219 335.257,-46.6014"/>
</g>
<!-- FlipXCollection&#45;&gt;IFlipX -->
<g id="edge18" class="edge"><title>FlipXCollection&#45;&gt;IFlipX</title>
<path fill="none" stroke="black" stroke-dasharray="5,2" d="M740.972,-143.871C735.836,-119.564 726.383,-74.8187 720.298,-46.0132"/>
<polygon fill="black" stroke="black" points="723.714,-45.2498 718.222,-36.1893 716.865,-46.6968 723.714,-45.2498"/>
</g>
<!-- CreatureHealth&#45;&gt;ICreatureHealth -->
<g id="edge19" class="edge"><title>CreatureHealth&#45;&gt;ICreatureHealth</title>
<path fill="none" stroke="black" stroke-dasharray="5,2" d="M427.273,-144.055C431.872,-136.007 437.474,-126.205 442.604,-117.226"/>
<polygon fill="black" stroke="black" points="445.796,-118.694 447.719,-108.275 439.719,-115.221 445.796,-118.694"/>
</g>
<!-- CreatureHealth&#45;&gt;IBarDisplay -->
<g id="edge20" class="edge"><title>CreatureHealth&#45;&gt;IBarDisplay</title>
<path fill="none" stroke="black" d="M453.584,-147.003C482.56,-135.734 523.388,-119.856 554.176,-107.884"/>
<polygon fill="black" stroke="black" points="555.739,-111.031 563.791,-104.144 553.202,-104.507 555.739,-111.031"/>
</g>
<!-- CreatureHealth&#45;&gt;Callback -->
<g id="edge21" class="edge"><title>CreatureHealth&#45;&gt;Callback</title>
<path fill="none" stroke="black" d="M404.754,-144.343C397.216,-134.158 387.788,-120.689 380.591,-108 369.026,-87.6101 358.277,-63.2597 350.84,-45.1876"/>
<polygon fill="black" stroke="black" points="354.061,-43.8156 347.065,-35.8585 347.572,-46.4412 354.061,-43.8156"/>
</g>
</g>
</svg>
