<?xml version="1.0" encoding="UTF-8" standalone="no"?>
<!DOCTYPE svg PUBLIC "-//W3C//DTD SVG 1.1//EN"
 "http://www.w3.org/Graphics/SVG/1.1/DTD/svg11.dtd">
<!-- Generated by graphviz version 2.38.0 (20140413.2041)
 -->
<!-- Title: %3 Pages: 1 -->
<svg width="593pt" height="260pt"
 viewBox="0.00 0.00 593.38 260.00" xmlns="http://www.w3.org/2000/svg" xmlns:xlink="http://www.w3.org/1999/xlink">
<g id="graph0" class="graph" transform="scale(1 1) rotate(0) translate(4 256)">
<title>%3</title>
<polygon fill="white" stroke="none" points="-4,4 -4,-256 589.384,-256 589.384,4 -4,4"/>
<!-- ICreaturePhysics -->
<g id="node1" class="node"><title>ICreaturePhysics</title>
<ellipse fill="none" stroke="black" stroke-dasharray="5,2" cx="72.7935" cy="-162" rx="72.5877" ry="18"/>
<text text-anchor="middle" x="72.7935" y="-158.3" font-family="Times New Roman,serif" font-size="14.00">ICreaturePhysics</text>
</g>
<!-- IBasePhysics -->
<g id="node4" class="node"><title>IBasePhysics</title>
<ellipse fill="none" stroke="black" stroke-dasharray="5,2" cx="73.7935" cy="-90" rx="59.5901" ry="18"/>
<text text-anchor="middle" x="73.7935" y="-86.3" font-family="Times New Roman,serif" font-size="14.00">IBasePhysics</text>
</g>
<!-- ICreaturePhysics&#45;&gt;IBasePhysics -->
<g id="edge1" class="edge"><title>ICreaturePhysics&#45;&gt;IBasePhysics</title>
<path fill="none" stroke="black" stroke-dasharray="5,2" d="M73.0407,-143.697C73.1509,-135.983 73.2834,-126.712 73.4062,-118.112"/>
<polygon fill="black" stroke="black" points="76.9059,-118.153 73.5492,-108.104 69.9066,-118.053 76.9059,-118.153"/>
</g>
<!-- ITransform -->
<g id="node2" class="node"><title>ITransform</title>
<ellipse fill="none" stroke="black" stroke-dasharray="5,2" cx="205.794" cy="-90" rx="51.9908" ry="18"/>
<text text-anchor="middle" x="205.794" y="-86.3" font-family="Times New Roman,serif" font-size="14.00">ITransform</text>
</g>
<!-- IRigidBody2d -->
<g id="node3" class="node"><title>IRigidBody2d</title>
<ellipse fill="none" stroke="black" stroke-dasharray="5,2" cx="341.794" cy="-90" rx="62.2891" ry="18"/>
<text text-anchor="middle" x="341.794" y="-86.3" font-family="Times New Roman,serif" font-size="14.00">IRigidBody2d</text>
</g>
<!-- IFlipX -->
<g id="node5" class="node"><title>IFlipX</title>
<ellipse fill="none" stroke="black" stroke-dasharray="5,2" cx="73.7935" cy="-18" rx="34.394" ry="18"/>
<text text-anchor="middle" x="73.7935" y="-14.3" font-family="Times New Roman,serif" font-size="14.00">IFlipX</text>
</g>
<!-- IBasePhysics&#45;&gt;IFlipX -->
<g id="edge2" class="edge"><title>IBasePhysics&#45;&gt;IFlipX</title>
<path fill="none" stroke="black" stroke-dasharray="5,2" d="M73.7935,-71.6966C73.7935,-63.9827 73.7935,-54.7125 73.7935,-46.1124"/>
<polygon fill="black" stroke="black" points="77.2936,-46.1043 73.7935,-36.1043 70.2936,-46.1044 77.2936,-46.1043"/>
</g>
<!-- CreaturePhysics -->
<g id="node6" class="node"><title>CreaturePhysics</title>
<ellipse fill="none" stroke="black" cx="258.794" cy="-234" rx="69.5877" ry="18"/>
<text text-anchor="middle" x="258.794" y="-230.3" font-family="Times New Roman,serif" font-size="14.00">CreaturePhysics</text>
</g>
<!-- CreaturePhysics&#45;&gt;ICreaturePhysics -->
<g id="edge4" class="edge"><title>CreaturePhysics&#45;&gt;ICreaturePhysics</title>
<path fill="none" stroke="black" stroke-dasharray="5,2" d="M221.154,-218.834C192.101,-207.901 151.716,-192.702 120.416,-180.922"/>
<polygon fill="black" stroke="black" points="121.608,-177.631 111.016,-177.385 119.142,-184.183 121.608,-177.631"/>
</g>
<!-- CreaturePhysics&#45;&gt;ITransform -->
<g id="edge7" class="edge"><title>CreaturePhysics&#45;&gt;ITransform</title>
<path fill="none" stroke="black" d="M229.159,-217.482C215.396,-208.541 200.418,-195.901 192.794,-180 183.394,-160.397 188.063,-135.794 194.278,-117.427"/>
<polygon fill="black" stroke="black" points="197.603,-118.528 197.811,-107.936 191.042,-116.087 197.603,-118.528"/>
</g>
<!-- CreaturePhysics&#45;&gt;IRigidBody2d -->
<g id="edge6" class="edge"><title>CreaturePhysics&#45;&gt;IRigidBody2d</title>
<path fill="none" stroke="black" d="M286.517,-217.267C300.131,-208.121 315.553,-195.364 324.794,-180 335.976,-161.406 340.044,-137.013 341.417,-118.467"/>
<polygon fill="black" stroke="black" points="344.921,-118.48 341.948,-108.311 337.93,-118.115 344.921,-118.48"/>
</g>
<!-- CreaturePhysicsProperties -->
<g id="node7" class="node"><title>CreaturePhysicsProperties</title>
<ellipse fill="none" stroke="black" cx="478.794" cy="-162" rx="106.681" ry="18"/>
<text text-anchor="middle" x="478.794" y="-158.3" font-family="Times New Roman,serif" font-size="14.00">CreaturePhysicsProperties</text>
</g>
<!-- CreaturePhysics&#45;&gt;CreaturePhysicsProperties -->
<g id="edge5" class="edge"><title>CreaturePhysics&#45;&gt;CreaturePhysicsProperties</title>
<path fill="none" stroke="black" d="M300.951,-219.586C335.082,-208.726 383.509,-193.318 421.212,-181.321"/>
<polygon fill="black" stroke="black" points="422.577,-184.56 431.045,-178.193 420.455,-177.89 422.577,-184.56"/>
</g>
<!-- BasePhysics -->
<g id="node8" class="node"><title>BasePhysics</title>
<ellipse fill="none" stroke="black" cx="258.794" cy="-162" rx="56.59" ry="18"/>
<text text-anchor="middle" x="258.794" y="-158.3" font-family="Times New Roman,serif" font-size="14.00">BasePhysics</text>
</g>
<!-- CreaturePhysics&#45;&gt;BasePhysics -->
<g id="edge3" class="edge"><title>CreaturePhysics&#45;&gt;BasePhysics</title>
<path fill="none" stroke="black" stroke-width="2" d="M258.794,-215.697C258.794,-207.983 258.794,-198.712 258.794,-190.112"/>
<polygon fill="black" stroke="black" stroke-width="2" points="262.294,-190.104 258.794,-180.104 255.294,-190.104 262.294,-190.104"/>
</g>
<!-- BasePhysics&#45;&gt;ITransform -->
<g id="edge9" class="edge"><title>BasePhysics&#45;&gt;ITransform</title>
<path fill="none" stroke="black" d="M246.233,-144.411C239.859,-135.992 231.979,-125.585 224.874,-116.201"/>
<polygon fill="black" stroke="black" points="227.459,-113.816 218.632,-107.956 221.878,-118.042 227.459,-113.816"/>
</g>
<!-- BasePhysics&#45;&gt;IRigidBody2d -->
<g id="edge10" class="edge"><title>BasePhysics&#45;&gt;IRigidBody2d</title>
<path fill="none" stroke="black" d="M278.044,-144.765C288.939,-135.576 302.738,-123.938 314.71,-113.842"/>
<polygon fill="black" stroke="black" points="317.26,-116.27 322.647,-107.147 312.747,-110.919 317.26,-116.27"/>
</g>
<!-- BasePhysics&#45;&gt;IBasePhysics -->
<g id="edge8" class="edge"><title>BasePhysics&#45;&gt;IBasePhysics</title>
<path fill="none" stroke="black" stroke-dasharray="5,2" d="M223.561,-147.669C193.919,-136.453 151.341,-120.342 119.154,-108.164"/>
<polygon fill="black" stroke="black" points="120.117,-104.786 109.525,-104.52 117.639,-111.333 120.117,-104.786"/>
</g>
</g>
</svg>
