<?xml version="1.0" encoding="UTF-8" standalone="no"?>
<!DOCTYPE svg PUBLIC "-//W3C//DTD SVG 1.1//EN"
 "http://www.w3.org/Graphics/SVG/1.1/DTD/svg11.dtd">
<!-- Generated by graphviz version 2.38.0 (20140413.2041)
 -->
<!-- Title: %3 Pages: 1 -->
<svg width="356pt" height="188pt"
 viewBox="0.00 0.00 356.09 188.00" xmlns="http://www.w3.org/2000/svg" xmlns:xlink="http://www.w3.org/1999/xlink">
<g id="graph0" class="graph" transform="scale(1 1) rotate(0) translate(4 184)">
<title>%3</title>
<polygon fill="white" stroke="none" points="-4,4 -4,-184 352.085,-184 352.085,4 -4,4"/>
<!-- ISystemParticipator -->
<g id="node1" class="node"><title>ISystemParticipator</title>
<ellipse fill="none" stroke="black" stroke-dasharray="5,2" cx="82.5427" cy="-18" rx="82.5854" ry="18"/>
<text text-anchor="middle" x="82.5427" y="-14.3" font-family="Times New Roman,serif" font-size="14.00">ISystemParticipator</text>
</g>
<!-- SystemParticipator -->
<g id="node2" class="node"><title>SystemParticipator</title>
<ellipse fill="none" stroke="black" cx="173.543" cy="-90" rx="79.0865" ry="18"/>
<text text-anchor="middle" x="173.543" y="-86.3" font-family="Times New Roman,serif" font-size="14.00">SystemParticipator</text>
</g>
<!-- SystemParticipator&#45;&gt;ISystemParticipator -->
<g id="edge1" class="edge"><title>SystemParticipator&#45;&gt;ISystemParticipator</title>
<path fill="none" stroke="black" stroke-dasharray="5,2" d="M151.977,-72.411C140.077,-63.2575 125.125,-51.7553 112.146,-41.7715"/>
<polygon fill="black" stroke="black" points="114.014,-38.7929 103.954,-35.4699 109.746,-44.3413 114.014,-38.7929"/>
</g>
<!-- ConvertToInterface -->
<g id="node3" class="node"><title>ConvertToInterface</title>
<ellipse fill="#e5e5e5" stroke="black" cx="265.543" cy="-18" rx="82.5854" ry="18"/>
<text text-anchor="middle" x="265.543" y="-14.3" font-family="Times New Roman,serif" font-size="14.00">ConvertToInterface</text>
</g>
<!-- SystemParticipator&#45;&gt;ConvertToInterface -->
<g id="edge2" class="edge"><title>SystemParticipator&#45;&gt;ConvertToInterface</title>
<path fill="none" stroke="black" d="M195.345,-72.411C207.376,-63.2575 222.493,-51.7553 235.614,-41.7715"/>
<polygon fill="black" stroke="black" points="238.057,-44.3106 243.896,-35.4699 233.819,-38.7398 238.057,-44.3106"/>
</g>
<!-- Creature -->
<g id="node4" class="node"><title>Creature</title>
<ellipse fill="none" stroke="black" cx="173.543" cy="-162" rx="41.6928" ry="18"/>
<text text-anchor="middle" x="173.543" y="-158.3" font-family="Times New Roman,serif" font-size="14.00">Creature</text>
</g>
<!-- Creature&#45;&gt;SystemParticipator -->
<g id="edge3" class="edge"><title>Creature&#45;&gt;SystemParticipator</title>
<path fill="none" stroke="black" stroke-width="2" d="M173.543,-143.697C173.543,-135.983 173.543,-126.712 173.543,-118.112"/>
<polygon fill="black" stroke="black" stroke-width="2" points="177.043,-118.104 173.543,-108.104 170.043,-118.104 177.043,-118.104"/>
</g>
</g>
</svg>
