<?xml version="1.0" encoding="UTF-8" standalone="no"?>
<!DOCTYPE svg PUBLIC "-//W3C//DTD SVG 1.1//EN"
 "http://www.w3.org/Graphics/SVG/1.1/DTD/svg11.dtd">
<!-- Generated by graphviz version 2.38.0 (20140413.2041)
 -->
<!-- Title: %3 Pages: 1 -->
<svg width="570pt" height="260pt"
 viewBox="0.00 0.00 570.13 260.00" xmlns="http://www.w3.org/2000/svg" xmlns:xlink="http://www.w3.org/1999/xlink">
<g id="graph0" class="graph" transform="scale(1 1) rotate(0) translate(4 256)">
<title>%3</title>
<polygon fill="white" stroke="none" points="-4,4 -4,-256 566.129,-256 566.129,4 -4,4"/>
<!-- ICreaturePhysics -->
<g id="node1" class="node"><title>ICreaturePhysics</title>
<ellipse fill="none" stroke="black" stroke-dasharray="5,2" cx="72.7935" cy="-162" rx="72.5877" ry="18"/>
<text text-anchor="middle" x="72.7935" y="-158.3" font-family="Times New Roman,serif" font-size="14.00">ICreaturePhysics</text>
</g>
<!-- IBasePhysics -->
<g id="node6" class="node"><title>IBasePhysics</title>
<ellipse fill="none" stroke="black" stroke-dasharray="5,2" cx="86.7935" cy="-90" rx="59.5901" ry="18"/>
<text text-anchor="middle" x="86.7935" y="-86.3" font-family="Times New Roman,serif" font-size="14.00">IBasePhysics</text>
</g>
<!-- ICreaturePhysics&#45;&gt;IBasePhysics -->
<g id="edge1" class="edge"><title>ICreaturePhysics&#45;&gt;IBasePhysics</title>
<path fill="none" stroke="black" stroke-dasharray="5,2" d="M76.2542,-143.697C77.797,-135.983 79.651,-126.712 81.3711,-118.112"/>
<polygon fill="black" stroke="black" points="84.8435,-118.597 83.3727,-108.104 77.9794,-117.224 84.8435,-118.597"/>
</g>
<!-- IFlipX -->
<g id="node2" class="node"><title>IFlipX</title>
<ellipse fill="none" stroke="black" stroke-dasharray="5,2" cx="86.7935" cy="-18" rx="34.394" ry="18"/>
<text text-anchor="middle" x="86.7935" y="-14.3" font-family="Times New Roman,serif" font-size="14.00">IFlipX</text>
</g>
<!-- BasePhysics -->
<g id="node3" class="node"><title>BasePhysics</title>
<ellipse fill="none" stroke="black" cx="258.794" cy="-162" rx="56.59" ry="18"/>
<text text-anchor="middle" x="258.794" y="-158.3" font-family="Times New Roman,serif" font-size="14.00">BasePhysics</text>
</g>
<!-- ITransform -->
<g id="node5" class="node"><title>ITransform</title>
<ellipse fill="none" stroke="black" stroke-dasharray="5,2" cx="244.794" cy="-90" rx="51.9908" ry="18"/>
<text text-anchor="middle" x="244.794" y="-86.3" font-family="Times New Roman,serif" font-size="14.00">ITransform</text>
</g>
<!-- BasePhysics&#45;&gt;ITransform -->
<g id="edge3" class="edge"><title>BasePhysics&#45;&gt;ITransform</title>
<path fill="none" stroke="black" d="M255.333,-143.697C253.79,-135.983 251.936,-126.712 250.216,-118.112"/>
<polygon fill="black" stroke="black" points="253.608,-117.224 248.214,-108.104 246.744,-118.597 253.608,-117.224"/>
</g>
<!-- BasePhysics&#45;&gt;IBasePhysics -->
<g id="edge2" class="edge"><title>BasePhysics&#45;&gt;IBasePhysics</title>
<path fill="none" stroke="black" stroke-dasharray="5,2" d="M225.222,-147.337C198.169,-136.327 159.923,-120.762 130.485,-108.781"/>
<polygon fill="black" stroke="black" points="131.45,-105.395 120.868,-104.868 128.811,-111.879 131.45,-105.395"/>
</g>
<!-- IRigidBody2d -->
<g id="node8" class="node"><title>IRigidBody2d</title>
<ellipse fill="none" stroke="black" stroke-dasharray="5,2" cx="496.794" cy="-90" rx="62.2891" ry="18"/>
<text text-anchor="middle" x="496.794" y="-86.3" font-family="Times New Roman,serif" font-size="14.00">IRigidBody2d</text>
</g>
<!-- BasePhysics&#45;&gt;IRigidBody2d -->
<g id="edge4" class="edge"><title>BasePhysics&#45;&gt;IRigidBody2d</title>
<path fill="none" stroke="black" d="M298.898,-149.205C339.049,-137.396 401.008,-119.172 444.889,-106.266"/>
<polygon fill="black" stroke="black" points="445.911,-109.614 454.517,-103.434 443.936,-102.898 445.911,-109.614"/>
</g>
<!-- CreaturePhysicsProperties -->
<g id="node4" class="node"><title>CreaturePhysicsProperties</title>
<ellipse fill="none" stroke="black" cx="439.794" cy="-162" rx="106.681" ry="18"/>
<text text-anchor="middle" x="439.794" y="-158.3" font-family="Times New Roman,serif" font-size="14.00">CreaturePhysicsProperties</text>
</g>
<!-- IBasePhysics&#45;&gt;IFlipX -->
<g id="edge5" class="edge"><title>IBasePhysics&#45;&gt;IFlipX</title>
<path fill="none" stroke="black" stroke-dasharray="5,2" d="M86.7935,-71.6966C86.7935,-63.9827 86.7935,-54.7125 86.7935,-46.1124"/>
<polygon fill="black" stroke="black" points="90.2936,-46.1043 86.7935,-36.1043 83.2936,-46.1044 90.2936,-46.1043"/>
</g>
<!-- CreaturePhysics -->
<g id="node7" class="node"><title>CreaturePhysics</title>
<ellipse fill="none" stroke="black" cx="258.794" cy="-234" rx="69.5877" ry="18"/>
<text text-anchor="middle" x="258.794" y="-230.3" font-family="Times New Roman,serif" font-size="14.00">CreaturePhysics</text>
</g>
<!-- CreaturePhysics&#45;&gt;ICreaturePhysics -->
<g id="edge7" class="edge"><title>CreaturePhysics&#45;&gt;ICreaturePhysics</title>
<path fill="none" stroke="black" stroke-dasharray="5,2" d="M221.154,-218.834C192.101,-207.901 151.716,-192.702 120.416,-180.922"/>
<polygon fill="black" stroke="black" points="121.608,-177.631 111.016,-177.385 119.142,-184.183 121.608,-177.631"/>
</g>
<!-- CreaturePhysics&#45;&gt;BasePhysics -->
<g id="edge6" class="edge"><title>CreaturePhysics&#45;&gt;BasePhysics</title>
<path fill="none" stroke="black" stroke-width="2" d="M258.794,-215.697C258.794,-207.983 258.794,-198.712 258.794,-190.112"/>
<polygon fill="black" stroke="black" stroke-width="2" points="262.294,-190.104 258.794,-180.104 255.294,-190.104 262.294,-190.104"/>
</g>
<!-- CreaturePhysics&#45;&gt;CreaturePhysicsProperties -->
<g id="edge8" class="edge"><title>CreaturePhysics&#45;&gt;CreaturePhysicsProperties</title>
<path fill="none" stroke="black" d="M295.858,-218.666C323.016,-208.163 360.176,-193.791 389.935,-182.282"/>
<polygon fill="black" stroke="black" points="391.251,-185.526 399.315,-178.655 388.726,-178.997 391.251,-185.526"/>
</g>
<!-- CreaturePhysics&#45;&gt;ITransform -->
<g id="edge10" class="edge"><title>CreaturePhysics&#45;&gt;ITransform</title>
<path fill="none" stroke="black" d="M229.159,-217.482C215.396,-208.541 200.418,-195.901 192.794,-180 185.876,-165.573 186.741,-158.811 192.794,-144 197.594,-132.254 206.391,-121.704 215.401,-113.168"/>
<polygon fill="black" stroke="black" points="217.775,-115.742 222.937,-106.49 213.132,-110.503 217.775,-115.742"/>
</g>
<!-- CreaturePhysics&#45;&gt;IRigidBody2d -->
<g id="edge9" class="edge"><title>CreaturePhysics&#45;&gt;IRigidBody2d</title>
<path fill="none" stroke="black" d="M327.15,-230.631C405.619,-226.306 527.211,-214.134 555.794,-180 573.601,-158.733 550.438,-131.923 528.113,-113.314"/>
<polygon fill="black" stroke="black" points="530.006,-110.348 520.003,-106.855 525.645,-115.823 530.006,-110.348"/>
</g>
</g>
</svg>
