<?xml version="1.0" encoding="UTF-8" standalone="no"?>
<!DOCTYPE svg PUBLIC "-//W3C//DTD SVG 1.1//EN"
 "http://www.w3.org/Graphics/SVG/1.1/DTD/svg11.dtd">
<!-- Generated by graphviz version 2.38.0 (20140413.2041)
 -->
<!-- Title: %3 Pages: 1 -->
<svg width="667pt" height="260pt"
 viewBox="0.00 0.00 667.43 260.00" xmlns="http://www.w3.org/2000/svg" xmlns:xlink="http://www.w3.org/1999/xlink">
<g id="graph0" class="graph" transform="scale(1 1) rotate(0) translate(4 256)">
<title>%3</title>
<polygon fill="white" stroke="none" points="-4,4 -4,-256 663.43,-256 663.43,4 -4,4"/>
<!-- ICreatureController -->
<g id="node1" class="node"><title>ICreatureController</title>
<ellipse fill="none" stroke="black" stroke-dasharray="5,2" cx="452.543" cy="-162" rx="81.4863" ry="18"/>
<text text-anchor="middle" x="452.543" y="-158.3" font-family="Times New Roman,serif" font-size="14.00">ICreatureController</text>
</g>
<!-- ICollisionSystemParticipator -->
<g id="node3" class="node"><title>ICollisionSystemParticipator</title>
<ellipse fill="none" stroke="black" stroke-dasharray="5,2" cx="423.543" cy="-90" rx="114.28" ry="18"/>
<text text-anchor="middle" x="423.543" y="-86.3" font-family="Times New Roman,serif" font-size="14.00">ICollisionSystemParticipator</text>
</g>
<!-- ICreatureController&#45;&gt;ICollisionSystemParticipator -->
<g id="edge1" class="edge"><title>ICreatureController&#45;&gt;ICollisionSystemParticipator</title>
<path fill="none" stroke="black" stroke-dasharray="5,2" d="M445.523,-144.055C442.259,-136.176 438.298,-126.617 434.643,-117.794"/>
<polygon fill="black" stroke="black" points="437.761,-116.174 430.7,-108.275 431.294,-118.853 437.761,-116.174"/>
</g>
<!-- BaseCollisionSystemParticipator -->
<g id="node2" class="node"><title>BaseCollisionSystemParticipator</title>
<ellipse fill="none" stroke="black" cx="215.543" cy="-162" rx="129.177" ry="18"/>
<text text-anchor="middle" x="215.543" y="-158.3" font-family="Times New Roman,serif" font-size="14.00">BaseCollisionSystemParticipator</text>
</g>
<!-- BaseCollisionSystemParticipator&#45;&gt;ICollisionSystemParticipator -->
<g id="edge3" class="edge"><title>BaseCollisionSystemParticipator&#45;&gt;ICollisionSystemParticipator</title>
<path fill="none" stroke="black" stroke-dasharray="5,2" d="M262.481,-145.203C293.78,-134.67 335.065,-120.776 368,-109.692"/>
<polygon fill="black" stroke="black" points="369.13,-113.005 377.491,-106.498 366.897,-106.371 369.13,-113.005"/>
</g>
<!-- SystemParticipator -->
<g id="node6" class="node"><title>SystemParticipator</title>
<ellipse fill="none" stroke="black" cx="211.543" cy="-90" rx="79.0865" ry="18"/>
<text text-anchor="middle" x="211.543" y="-86.3" font-family="Times New Roman,serif" font-size="14.00">SystemParticipator</text>
</g>
<!-- BaseCollisionSystemParticipator&#45;&gt;SystemParticipator -->
<g id="edge2" class="edge"><title>BaseCollisionSystemParticipator&#45;&gt;SystemParticipator</title>
<path fill="none" stroke="black" stroke-width="2" d="M214.554,-143.697C214.113,-135.983 213.583,-126.712 213.092,-118.112"/>
<polygon fill="black" stroke="black" stroke-width="2" points="216.585,-117.888 212.52,-108.104 209.596,-118.288 216.585,-117.888"/>
</g>
<!-- ISystemParticipator -->
<g id="node8" class="node"><title>ISystemParticipator</title>
<ellipse fill="none" stroke="black" stroke-dasharray="5,2" cx="265.543" cy="-18" rx="82.5854" ry="18"/>
<text text-anchor="middle" x="265.543" y="-14.3" font-family="Times New Roman,serif" font-size="14.00">ISystemParticipator</text>
</g>
<!-- ICollisionSystemParticipator&#45;&gt;ISystemParticipator -->
<g id="edge4" class="edge"><title>ICollisionSystemParticipator&#45;&gt;ISystemParticipator</title>
<path fill="none" stroke="black" stroke-dasharray="5,2" d="M386.897,-72.7646C363.88,-62.5673 334.053,-49.3527 309.73,-38.5765"/>
<polygon fill="black" stroke="black" points="310.924,-35.2775 300.363,-34.4268 308.088,-41.6775 310.924,-35.2775"/>
</g>
<!-- ICollisionSystemParticipatorWrapper -->
<g id="node9" class="node"><title>ICollisionSystemParticipatorWrapper</title>
<ellipse fill="none" stroke="black" stroke-dasharray="5,2" cx="512.543" cy="-18" rx="146.774" ry="18"/>
<text text-anchor="middle" x="512.543" y="-14.3" font-family="Times New Roman,serif" font-size="14.00">ICollisionSystemParticipatorWrapper</text>
</g>
<!-- ICollisionSystemParticipator&#45;&gt;ICollisionSystemParticipatorWrapper -->
<g id="edge5" class="edge"><title>ICollisionSystemParticipator&#45;&gt;ICollisionSystemParticipatorWrapper</title>
<path fill="none" stroke="black" stroke-dasharray="5,2" d="M439.209,-72.055C449.729,-63.0268 463.846,-51.7916 476.932,-41.9875"/>
<polygon fill="black" stroke="black" points="479.365,-44.5419 485.335,-35.789 475.21,-38.9087 479.365,-44.5419"/>
</g>
<!-- Creature -->
<g id="node4" class="node"><title>Creature</title>
<ellipse fill="none" stroke="black" cx="215.543" cy="-234" rx="41.6928" ry="18"/>
<text text-anchor="middle" x="215.543" y="-230.3" font-family="Times New Roman,serif" font-size="14.00">Creature</text>
</g>
<!-- Creature&#45;&gt;BaseCollisionSystemParticipator -->
<g id="edge6" class="edge"><title>Creature&#45;&gt;BaseCollisionSystemParticipator</title>
<path fill="none" stroke="black" stroke-width="2" d="M215.543,-215.697C215.543,-207.983 215.543,-198.712 215.543,-190.112"/>
<polygon fill="black" stroke="black" stroke-width="2" points="219.043,-190.104 215.543,-180.104 212.043,-190.104 219.043,-190.104"/>
</g>
<!-- ICreatureControllerWrapper -->
<g id="node5" class="node"><title>ICreatureControllerWrapper</title>
<ellipse fill="none" stroke="black" stroke-dasharray="5,2" cx="508.543" cy="-234" rx="113.18" ry="18"/>
<text text-anchor="middle" x="508.543" y="-230.3" font-family="Times New Roman,serif" font-size="14.00">ICreatureControllerWrapper</text>
</g>
<!-- ICreatureControllerWrapper&#45;&gt;ICreatureController -->
<g id="edge8" class="edge"><title>ICreatureControllerWrapper&#45;&gt;ICreatureController</title>
<path fill="none" stroke="black" d="M494.987,-216.055C488.177,-207.543 479.797,-197.068 472.288,-187.681"/>
<polygon fill="black" stroke="black" points="474.954,-185.411 465.974,-179.789 469.488,-189.784 474.954,-185.411"/>
</g>
<!-- ICreatureControllerWrapper&#45;&gt;ICollisionSystemParticipatorWrapper -->
<g id="edge7" class="edge"><title>ICreatureControllerWrapper&#45;&gt;ICollisionSystemParticipatorWrapper</title>
<path fill="none" stroke="black" stroke-dasharray="5,2" d="M522.661,-216.018C529.999,-206.149 538.302,-193.105 542.543,-180 557.33,-134.3 560.056,-118.093 546.543,-72 543.742,-62.4472 538.632,-52.9843 533.209,-44.7561"/>
<polygon fill="black" stroke="black" points="535.919,-42.5248 527.297,-36.3664 530.197,-46.5569 535.919,-42.5248"/>
</g>
<!-- ConvertToInterface -->
<g id="node7" class="node"><title>ConvertToInterface</title>
<ellipse fill="#e5e5e5" stroke="black" cx="82.5427" cy="-18" rx="82.5854" ry="18"/>
<text text-anchor="middle" x="82.5427" y="-14.3" font-family="Times New Roman,serif" font-size="14.00">ConvertToInterface</text>
</g>
<!-- SystemParticipator&#45;&gt;ConvertToInterface -->
<g id="edge10" class="edge"><title>SystemParticipator&#45;&gt;ConvertToInterface</title>
<path fill="none" stroke="black" d="M182.271,-73.1159C164.174,-63.2959 140.74,-50.5797 121.135,-39.9417"/>
<polygon fill="black" stroke="black" points="122.604,-36.7567 112.145,-35.0635 119.266,-42.9093 122.604,-36.7567"/>
</g>
<!-- SystemParticipator&#45;&gt;ISystemParticipator -->
<g id="edge9" class="edge"><title>SystemParticipator&#45;&gt;ISystemParticipator</title>
<path fill="none" stroke="black" stroke-dasharray="5,2" d="M224.615,-72.055C231.115,-63.6287 239.098,-53.2798 246.283,-43.9663"/>
<polygon fill="black" stroke="black" points="249.254,-45.8447 252.591,-35.789 243.712,-41.569 249.254,-45.8447"/>
</g>
<!-- ICollisionSystemParticipatorWrapper&#45;&gt;ICollisionSystemParticipator -->
<g id="edge11" class="edge"><title>ICollisionSystemParticipatorWrapper&#45;&gt;ICollisionSystemParticipator</title>
<path fill="none" stroke="black" d="M496.863,-35.9562C486.179,-45.1246 471.789,-56.5666 458.536,-66.4744"/>
<polygon fill="black" stroke="black" points="456.451,-63.6629 450.474,-72.411 460.602,-69.2995 456.451,-63.6629"/>
</g>
</g>
</svg>
