<?xml version="1.0" encoding="UTF-8" standalone="no"?>
<!DOCTYPE svg PUBLIC "-//W3C//DTD SVG 1.1//EN"
 "http://www.w3.org/Graphics/SVG/1.1/DTD/svg11.dtd">
<!-- Generated by graphviz version 2.38.0 (20140413.2041)
 -->
<!-- Title: %3 Pages: 1 -->
<svg width="973pt" height="260pt"
 viewBox="0.00 0.00 972.58 260.00" xmlns="http://www.w3.org/2000/svg" xmlns:xlink="http://www.w3.org/1999/xlink">
<g id="graph0" class="graph" transform="scale(1 1) rotate(0) translate(4 256)">
<title>%3</title>
<polygon fill="white" stroke="none" points="-4,4 -4,-256 968.582,-256 968.582,4 -4,4"/>
<!-- IBasePhysics -->
<g id="node1" class="node"><title>IBasePhysics</title>
<ellipse fill="none" stroke="black" stroke-dasharray="5,2" cx="381.992" cy="-90" rx="59.5901" ry="18"/>
<text text-anchor="middle" x="381.992" y="-86.3" font-family="Times New Roman,serif" font-size="14.00">IBasePhysics</text>
</g>
<!-- IFlipX -->
<g id="node3" class="node"><title>IFlipX</title>
<ellipse fill="none" stroke="black" stroke-dasharray="5,2" cx="381.992" cy="-18" rx="34.394" ry="18"/>
<text text-anchor="middle" x="381.992" y="-14.3" font-family="Times New Roman,serif" font-size="14.00">IFlipX</text>
</g>
<!-- IBasePhysics&#45;&gt;IFlipX -->
<g id="edge1" class="edge"><title>IBasePhysics&#45;&gt;IFlipX</title>
<path fill="none" stroke="black" stroke-dasharray="5,2" d="M381.992,-71.6966C381.992,-63.9827 381.992,-54.7125 381.992,-46.1124"/>
<polygon fill="black" stroke="black" points="385.492,-46.1043 381.992,-36.1043 378.492,-46.1044 385.492,-46.1043"/>
</g>
<!-- CreaturePhysicsProperties -->
<g id="node2" class="node"><title>CreaturePhysicsProperties</title>
<ellipse fill="none" stroke="black" cx="857.992" cy="-162" rx="106.681" ry="18"/>
<text text-anchor="middle" x="857.992" y="-158.3" font-family="Times New Roman,serif" font-size="14.00">CreaturePhysicsProperties</text>
</g>
<!-- ICreaturePhysics -->
<g id="node4" class="node"><title>ICreaturePhysics</title>
<ellipse fill="none" stroke="black" stroke-dasharray="5,2" cx="310.992" cy="-162" rx="72.5877" ry="18"/>
<text text-anchor="middle" x="310.992" y="-158.3" font-family="Times New Roman,serif" font-size="14.00">ICreaturePhysics</text>
</g>
<!-- ICreaturePhysics&#45;&gt;IBasePhysics -->
<g id="edge2" class="edge"><title>ICreaturePhysics&#45;&gt;IBasePhysics</title>
<path fill="none" stroke="black" stroke-dasharray="5,2" d="M327.818,-144.411C336.837,-135.519 348.104,-124.411 358.023,-114.631"/>
<polygon fill="black" stroke="black" points="360.623,-116.983 365.287,-107.47 355.708,-111.998 360.623,-116.983"/>
</g>
<!-- WrapperRigidbody2d -->
<g id="node5" class="node"><title>WrapperRigidbody2d</title>
<ellipse fill="none" stroke="black" cx="90.9919" cy="-162" rx="90.9839" ry="18"/>
<text text-anchor="middle" x="90.9919" y="-158.3" font-family="Times New Roman,serif" font-size="14.00">WrapperRigidbody2d</text>
</g>
<!-- IRigidBody2d -->
<g id="node10" class="node"><title>IRigidBody2d</title>
<ellipse fill="none" stroke="black" stroke-dasharray="5,2" cx="209.992" cy="-90" rx="62.2891" ry="18"/>
<text text-anchor="middle" x="209.992" y="-86.3" font-family="Times New Roman,serif" font-size="14.00">IRigidBody2d</text>
</g>
<!-- WrapperRigidbody2d&#45;&gt;IRigidBody2d -->
<g id="edge3" class="edge"><title>WrapperRigidbody2d&#45;&gt;IRigidBody2d</title>
<path fill="none" stroke="black" stroke-dasharray="5,2" d="M118.592,-144.765C135.314,-134.928 156.808,-122.284 174.751,-111.73"/>
<polygon fill="black" stroke="black" points="176.922,-114.514 183.766,-106.427 173.372,-108.48 176.922,-114.514"/>
</g>
<!-- WrapperTransform -->
<g id="node6" class="node"><title>WrapperTransform</title>
<ellipse fill="none" stroke="black" cx="651.992" cy="-162" rx="81.4863" ry="18"/>
<text text-anchor="middle" x="651.992" y="-158.3" font-family="Times New Roman,serif" font-size="14.00">WrapperTransform</text>
</g>
<!-- ITransform -->
<g id="node7" class="node"><title>ITransform</title>
<ellipse fill="none" stroke="black" stroke-dasharray="5,2" cx="542.992" cy="-90" rx="51.9908" ry="18"/>
<text text-anchor="middle" x="542.992" y="-86.3" font-family="Times New Roman,serif" font-size="14.00">ITransform</text>
</g>
<!-- WrapperTransform&#45;&gt;ITransform -->
<g id="edge4" class="edge"><title>WrapperTransform&#45;&gt;ITransform</title>
<path fill="none" stroke="black" stroke-dasharray="5,2" d="M626.711,-144.765C611.429,-134.95 591.795,-122.341 575.382,-111.801"/>
<polygon fill="black" stroke="black" points="576.949,-108.648 566.643,-106.189 573.166,-114.538 576.949,-108.648"/>
</g>
<!-- BasePhysics -->
<g id="node8" class="node"><title>BasePhysics</title>
<ellipse fill="none" stroke="black" cx="457.992" cy="-162" rx="56.59" ry="18"/>
<text text-anchor="middle" x="457.992" y="-158.3" font-family="Times New Roman,serif" font-size="14.00">BasePhysics</text>
</g>
<!-- BasePhysics&#45;&gt;IBasePhysics -->
<g id="edge5" class="edge"><title>BasePhysics&#45;&gt;IBasePhysics</title>
<path fill="none" stroke="black" stroke-dasharray="5,2" d="M440.365,-144.765C430.556,-135.73 418.175,-124.326 407.342,-114.349"/>
<polygon fill="black" stroke="black" points="409.513,-111.59 399.787,-107.39 404.771,-116.739 409.513,-111.59"/>
</g>
<!-- BasePhysics&#45;&gt;ITransform -->
<g id="edge6" class="edge"><title>BasePhysics&#45;&gt;ITransform</title>
<path fill="none" stroke="black" d="M477.706,-144.765C489.051,-135.422 503.472,-123.546 515.873,-113.334"/>
<polygon fill="black" stroke="black" points="518.183,-115.965 523.678,-106.906 513.733,-110.561 518.183,-115.965"/>
</g>
<!-- BasePhysics&#45;&gt;IRigidBody2d -->
<g id="edge7" class="edge"><title>BasePhysics&#45;&gt;IRigidBody2d</title>
<path fill="none" stroke="black" d="M417.04,-149.441C374.871,-137.539 308.989,-118.943 262.897,-105.933"/>
<polygon fill="black" stroke="black" points="263.663,-102.512 253.088,-103.164 261.762,-109.249 263.663,-102.512"/>
</g>
<!-- CreaturePhysics -->
<g id="node9" class="node"><title>CreaturePhysics</title>
<ellipse fill="none" stroke="black" cx="457.992" cy="-234" rx="69.5877" ry="18"/>
<text text-anchor="middle" x="457.992" y="-230.3" font-family="Times New Roman,serif" font-size="14.00">CreaturePhysics</text>
</g>
<!-- CreaturePhysics&#45;&gt;CreaturePhysicsProperties -->
<g id="edge10" class="edge"><title>CreaturePhysics&#45;&gt;CreaturePhysicsProperties</title>
<path fill="none" stroke="black" d="M514.031,-223.193C582.348,-211.238 698.337,-190.94 776.52,-177.258"/>
<polygon fill="black" stroke="black" points="777.568,-180.627 786.815,-175.456 776.361,-173.732 777.568,-180.627"/>
</g>
<!-- CreaturePhysics&#45;&gt;ICreaturePhysics -->
<g id="edge9" class="edge"><title>CreaturePhysics&#45;&gt;ICreaturePhysics</title>
<path fill="none" stroke="black" stroke-dasharray="5,2" d="M426.095,-217.811C404.498,-207.527 375.756,-193.84 352.396,-182.716"/>
<polygon fill="black" stroke="black" points="353.613,-179.419 343.08,-178.28 350.604,-185.739 353.613,-179.419"/>
</g>
<!-- CreaturePhysics&#45;&gt;ITransform -->
<g id="edge12" class="edge"><title>CreaturePhysics&#45;&gt;ITransform</title>
<path fill="none" stroke="black" d="M485.246,-217.409C498.903,-208.225 514.509,-195.388 523.992,-180 535.425,-161.447 540.053,-137.051 541.891,-118.493"/>
<polygon fill="black" stroke="black" points="545.395,-118.571 542.681,-108.329 538.416,-118.028 545.395,-118.571"/>
</g>
<!-- CreaturePhysics&#45;&gt;BasePhysics -->
<g id="edge8" class="edge"><title>CreaturePhysics&#45;&gt;BasePhysics</title>
<path fill="none" stroke="black" stroke-width="2" d="M457.992,-215.697C457.992,-207.983 457.992,-198.712 457.992,-190.112"/>
<polygon fill="black" stroke="black" stroke-width="2" points="461.492,-190.104 457.992,-180.104 454.492,-190.104 461.492,-190.104"/>
</g>
<!-- CreaturePhysics&#45;&gt;IRigidBody2d -->
<g id="edge11" class="edge"><title>CreaturePhysics&#45;&gt;IRigidBody2d</title>
<path fill="none" stroke="black" d="M395.469,-226.089C335.871,-218.21 251.914,-203.317 228.992,-180 213.198,-163.934 209.104,-138.153 208.576,-118.464"/>
<polygon fill="black" stroke="black" points="212.076,-118.26 208.598,-108.253 205.076,-118.245 212.076,-118.26"/>
</g>
</g>
</svg>
