<?xml version="1.0" encoding="UTF-8" standalone="no"?>
<!DOCTYPE svg PUBLIC "-//W3C//DTD SVG 1.1//EN"
 "http://www.w3.org/Graphics/SVG/1.1/DTD/svg11.dtd">
<!-- Generated by graphviz version 2.38.0 (20140413.2041)
 -->
<!-- Title: %3 Pages: 1 -->
<svg width="667pt" height="260pt"
 viewBox="0.00 0.00 667.43 260.00" xmlns="http://www.w3.org/2000/svg" xmlns:xlink="http://www.w3.org/1999/xlink">
<g id="graph0" class="graph" transform="scale(1 1) rotate(0) translate(4 256)">
<title>%3</title>
<polygon fill="white" stroke="none" points="-4,4 -4,-256 663.43,-256 663.43,4 -4,4"/>
<!-- ConvertToInterface -->
<g id="node1" class="node"><title>ConvertToInterface</title>
<ellipse fill="#e5e5e5" stroke="black" cx="576.887" cy="-18" rx="82.5854" ry="18"/>
<text text-anchor="middle" x="576.887" y="-14.3" font-family="Times New Roman,serif" font-size="14.00">ConvertToInterface</text>
</g>
<!-- Creature -->
<g id="node2" class="node"><title>Creature</title>
<ellipse fill="none" stroke="black" cx="443.887" cy="-234" rx="41.6928" ry="18"/>
<text text-anchor="middle" x="443.887" y="-230.3" font-family="Times New Roman,serif" font-size="14.00">Creature</text>
</g>
<!-- BaseCollisionSystemParticipator -->
<g id="node4" class="node"><title>BaseCollisionSystemParticipator</title>
<ellipse fill="none" stroke="black" cx="443.887" cy="-162" rx="129.177" ry="18"/>
<text text-anchor="middle" x="443.887" y="-158.3" font-family="Times New Roman,serif" font-size="14.00">BaseCollisionSystemParticipator</text>
</g>
<!-- Creature&#45;&gt;BaseCollisionSystemParticipator -->
<g id="edge1" class="edge"><title>Creature&#45;&gt;BaseCollisionSystemParticipator</title>
<path fill="none" stroke="black" stroke-width="2" d="M443.887,-215.697C443.887,-207.983 443.887,-198.712 443.887,-190.112"/>
<polygon fill="black" stroke="black" stroke-width="2" points="447.387,-190.104 443.887,-180.104 440.387,-190.104 447.387,-190.104"/>
</g>
<!-- SystemParticipator -->
<g id="node3" class="node"><title>SystemParticipator</title>
<ellipse fill="none" stroke="black" cx="447.887" cy="-90" rx="79.0865" ry="18"/>
<text text-anchor="middle" x="447.887" y="-86.3" font-family="Times New Roman,serif" font-size="14.00">SystemParticipator</text>
</g>
<!-- SystemParticipator&#45;&gt;ConvertToInterface -->
<g id="edge3" class="edge"><title>SystemParticipator&#45;&gt;ConvertToInterface</title>
<path fill="none" stroke="black" d="M477.159,-73.1159C495.256,-63.2959 518.69,-50.5797 538.294,-39.9417"/>
<polygon fill="black" stroke="black" points="540.164,-42.9093 547.284,-35.0635 536.825,-36.7567 540.164,-42.9093"/>
</g>
<!-- ISystemParticipator -->
<g id="node7" class="node"><title>ISystemParticipator</title>
<ellipse fill="none" stroke="black" stroke-dasharray="5,2" cx="393.887" cy="-18" rx="82.5854" ry="18"/>
<text text-anchor="middle" x="393.887" y="-14.3" font-family="Times New Roman,serif" font-size="14.00">ISystemParticipator</text>
</g>
<!-- SystemParticipator&#45;&gt;ISystemParticipator -->
<g id="edge2" class="edge"><title>SystemParticipator&#45;&gt;ISystemParticipator</title>
<path fill="none" stroke="black" stroke-dasharray="5,2" d="M434.815,-72.055C428.315,-63.6287 420.331,-53.2798 413.147,-43.9663"/>
<polygon fill="black" stroke="black" points="415.718,-41.569 406.838,-35.789 410.175,-45.8447 415.718,-41.569"/>
</g>
<!-- BaseCollisionSystemParticipator&#45;&gt;SystemParticipator -->
<g id="edge4" class="edge"><title>BaseCollisionSystemParticipator&#45;&gt;SystemParticipator</title>
<path fill="none" stroke="black" stroke-width="2" d="M444.876,-143.697C445.317,-135.983 445.846,-126.712 446.338,-118.112"/>
<polygon fill="black" stroke="black" stroke-width="2" points="449.833,-118.288 446.91,-108.104 442.845,-117.888 449.833,-118.288"/>
</g>
<!-- ICollisionSystemParticipator -->
<g id="node6" class="node"><title>ICollisionSystemParticipator</title>
<ellipse fill="none" stroke="black" stroke-dasharray="5,2" cx="235.887" cy="-90" rx="114.28" ry="18"/>
<text text-anchor="middle" x="235.887" y="-86.3" font-family="Times New Roman,serif" font-size="14.00">ICollisionSystemParticipator</text>
</g>
<!-- BaseCollisionSystemParticipator&#45;&gt;ICollisionSystemParticipator -->
<g id="edge5" class="edge"><title>BaseCollisionSystemParticipator&#45;&gt;ICollisionSystemParticipator</title>
<path fill="none" stroke="black" stroke-dasharray="5,2" d="M396.948,-145.203C365.65,-134.67 324.365,-120.776 291.43,-109.692"/>
<polygon fill="black" stroke="black" points="292.533,-106.371 281.939,-106.498 290.3,-113.005 292.533,-106.371"/>
</g>
<!-- ICollisionSystemParticipatorWrapper -->
<g id="node5" class="node"><title>ICollisionSystemParticipatorWrapper</title>
<ellipse fill="none" stroke="black" stroke-dasharray="5,2" cx="146.887" cy="-18" rx="146.774" ry="18"/>
<text text-anchor="middle" x="146.887" y="-14.3" font-family="Times New Roman,serif" font-size="14.00">ICollisionSystemParticipatorWrapper</text>
</g>
<!-- ICollisionSystemParticipatorWrapper&#45;&gt;ICollisionSystemParticipator -->
<g id="edge6" class="edge"><title>ICollisionSystemParticipatorWrapper&#45;&gt;ICollisionSystemParticipator</title>
<path fill="none" stroke="black" d="M174.095,-35.789C186.39,-44.7058 200.689,-55.8085 212.498,-65.5617"/>
<polygon fill="black" stroke="black" points="210.314,-68.2982 220.221,-72.055 214.819,-62.9404 210.314,-68.2982"/>
</g>
<!-- ICollisionSystemParticipator&#45;&gt;ICollisionSystemParticipatorWrapper -->
<g id="edge8" class="edge"><title>ICollisionSystemParticipator&#45;&gt;ICollisionSystemParticipatorWrapper</title>
<path fill="none" stroke="black" stroke-dasharray="5,2" d="M208.955,-72.411C196.62,-63.476 182.223,-52.3033 170.337,-42.4893"/>
<polygon fill="black" stroke="black" points="172.473,-39.7121 162.566,-35.9562 167.968,-45.0703 172.473,-39.7121"/>
</g>
<!-- ICollisionSystemParticipator&#45;&gt;ISystemParticipator -->
<g id="edge7" class="edge"><title>ICollisionSystemParticipator&#45;&gt;ISystemParticipator</title>
<path fill="none" stroke="black" stroke-dasharray="5,2" d="M272.532,-72.7646C295.549,-62.5673 325.377,-49.3527 349.7,-38.5765"/>
<polygon fill="black" stroke="black" points="351.341,-41.6775 359.067,-34.4268 348.506,-35.2775 351.341,-41.6775"/>
</g>
<!-- ICreatureController -->
<g id="node8" class="node"><title>ICreatureController</title>
<ellipse fill="none" stroke="black" stroke-dasharray="5,2" cx="210.887" cy="-162" rx="81.4863" ry="18"/>
<text text-anchor="middle" x="210.887" y="-158.3" font-family="Times New Roman,serif" font-size="14.00">ICreatureController</text>
</g>
<!-- ICreatureController&#45;&gt;ICollisionSystemParticipator -->
<g id="edge9" class="edge"><title>ICreatureController&#45;&gt;ICollisionSystemParticipator</title>
<path fill="none" stroke="black" stroke-dasharray="5,2" d="M217.067,-143.697C219.882,-135.813 223.278,-126.304 226.406,-117.546"/>
<polygon fill="black" stroke="black" points="229.711,-118.699 229.778,-108.104 223.119,-116.345 229.711,-118.699"/>
</g>
<!-- ICreatureControllerWrapper -->
<g id="node9" class="node"><title>ICreatureControllerWrapper</title>
<ellipse fill="none" stroke="black" stroke-dasharray="5,2" cx="147.887" cy="-234" rx="113.18" ry="18"/>
<text text-anchor="middle" x="147.887" y="-230.3" font-family="Times New Roman,serif" font-size="14.00">ICreatureControllerWrapper</text>
</g>
<!-- ICreatureControllerWrapper&#45;&gt;ICollisionSystemParticipatorWrapper -->
<g id="edge10" class="edge"><title>ICreatureControllerWrapper&#45;&gt;ICollisionSystemParticipatorWrapper</title>
<path fill="none" stroke="black" stroke-dasharray="5,2" d="M137.23,-215.997C131.428,-205.913 124.678,-192.663 120.887,-180 107.082,-133.891 99.3456,-118.187 112.887,-72 115.688,-62.4472 120.798,-52.9843 126.22,-44.7561"/>
<polygon fill="black" stroke="black" points="129.233,-46.5569 132.132,-36.3664 123.511,-42.5248 129.233,-46.5569"/>
</g>
<!-- ICreatureControllerWrapper&#45;&gt;ICreatureController -->
<g id="edge11" class="edge"><title>ICreatureControllerWrapper&#45;&gt;ICreatureController</title>
<path fill="none" stroke="black" d="M163.138,-216.055C170.876,-207.457 180.416,-196.857 188.929,-187.397"/>
<polygon fill="black" stroke="black" points="191.689,-189.563 195.777,-179.789 186.486,-184.881 191.689,-189.563"/>
</g>
</g>
</svg>
