<?xml version="1.0" encoding="UTF-8" standalone="no"?>
<!DOCTYPE svg PUBLIC "-//W3C//DTD SVG 1.1//EN"
 "http://www.w3.org/Graphics/SVG/1.1/DTD/svg11.dtd">
<!-- Generated by graphviz version 2.38.0 (20140413.2041)
 -->
<!-- Title: %3 Pages: 1 -->
<svg width="950pt" height="260pt"
 viewBox="0.00 0.00 950.08 260.00" xmlns="http://www.w3.org/2000/svg" xmlns:xlink="http://www.w3.org/1999/xlink">
<g id="graph0" class="graph" transform="scale(1 1) rotate(0) translate(4 256)">
<title>%3</title>
<polygon fill="white" stroke="none" points="-4,4 -4,-256 946.08,-256 946.08,4 -4,4"/>
<!-- BasePhysics -->
<g id="node1" class="node"><title>BasePhysics</title>
<ellipse fill="none" stroke="black" cx="688.992" cy="-162" rx="56.59" ry="18"/>
<text text-anchor="middle" x="688.992" y="-158.3" font-family="Times New Roman,serif" font-size="14.00">BasePhysics</text>
</g>
<!-- IRigidBody2d -->
<g id="node4" class="node"><title>IRigidBody2d</title>
<ellipse fill="none" stroke="black" stroke-dasharray="5,2" cx="209.992" cy="-90" rx="62.2891" ry="18"/>
<text text-anchor="middle" x="209.992" y="-86.3" font-family="Times New Roman,serif" font-size="14.00">IRigidBody2d</text>
</g>
<!-- BasePhysics&#45;&gt;IRigidBody2d -->
<g id="edge3" class="edge"><title>BasePhysics&#45;&gt;IRigidBody2d</title>
<path fill="none" stroke="black" d="M648.26,-149.492C640.257,-147.474 631.893,-145.532 623.992,-144 503.635,-120.657 361.532,-105.019 279,-97.0973"/>
<polygon fill="black" stroke="black" points="279.276,-93.6078 268.989,-96.1463 278.613,-100.576 279.276,-93.6078"/>
</g>
<!-- ITransform -->
<g id="node5" class="node"><title>ITransform</title>
<ellipse fill="none" stroke="black" stroke-dasharray="5,2" cx="844.992" cy="-90" rx="51.9908" ry="18"/>
<text text-anchor="middle" x="844.992" y="-86.3" font-family="Times New Roman,serif" font-size="14.00">ITransform</text>
</g>
<!-- BasePhysics&#45;&gt;ITransform -->
<g id="edge2" class="edge"><title>BasePhysics&#45;&gt;ITransform</title>
<path fill="none" stroke="black" d="M720.561,-146.834C744.983,-135.876 778.953,-120.633 805.231,-108.842"/>
<polygon fill="black" stroke="black" points="806.841,-111.955 814.532,-104.668 803.975,-105.569 806.841,-111.955"/>
</g>
<!-- IBasePhysics -->
<g id="node10" class="node"><title>IBasePhysics</title>
<ellipse fill="none" stroke="black" stroke-dasharray="5,2" cx="614.992" cy="-90" rx="59.5901" ry="18"/>
<text text-anchor="middle" x="614.992" y="-86.3" font-family="Times New Roman,serif" font-size="14.00">IBasePhysics</text>
</g>
<!-- BasePhysics&#45;&gt;IBasePhysics -->
<g id="edge1" class="edge"><title>BasePhysics&#45;&gt;IBasePhysics</title>
<path fill="none" stroke="black" stroke-dasharray="5,2" d="M671.829,-144.765C662.278,-135.73 650.223,-124.326 639.675,-114.349"/>
<polygon fill="black" stroke="black" points="641.988,-111.719 632.318,-107.39 637.178,-116.804 641.988,-111.719"/>
</g>
<!-- CreaturePhysicsProperties -->
<g id="node2" class="node"><title>CreaturePhysicsProperties</title>
<ellipse fill="none" stroke="black" cx="344.992" cy="-162" rx="106.681" ry="18"/>
<text text-anchor="middle" x="344.992" y="-158.3" font-family="Times New Roman,serif" font-size="14.00">CreaturePhysicsProperties</text>
</g>
<!-- CreaturePhysics -->
<g id="node3" class="node"><title>CreaturePhysics</title>
<ellipse fill="none" stroke="black" cx="541.992" cy="-234" rx="69.5877" ry="18"/>
<text text-anchor="middle" x="541.992" y="-230.3" font-family="Times New Roman,serif" font-size="14.00">CreaturePhysics</text>
</g>
<!-- CreaturePhysics&#45;&gt;BasePhysics -->
<g id="edge4" class="edge"><title>CreaturePhysics&#45;&gt;BasePhysics</title>
<path fill="none" stroke="black" stroke-width="2" d="M573.889,-217.811C596.103,-207.233 625.878,-193.054 649.579,-181.768"/>
<polygon fill="black" stroke="black" stroke-width="2" points="651.141,-184.901 658.664,-177.442 648.131,-178.581 651.141,-184.901"/>
</g>
<!-- CreaturePhysics&#45;&gt;CreaturePhysicsProperties -->
<g id="edge6" class="edge"><title>CreaturePhysics&#45;&gt;CreaturePhysicsProperties</title>
<path fill="none" stroke="black" d="M502.6,-219.003C472.656,-208.363 431.148,-193.614 398.245,-181.923"/>
<polygon fill="black" stroke="black" points="399.368,-178.607 388.773,-178.557 397.024,-185.203 399.368,-178.607"/>
</g>
<!-- CreaturePhysics&#45;&gt;IRigidBody2d -->
<g id="edge7" class="edge"><title>CreaturePhysics&#45;&gt;IRigidBody2d</title>
<path fill="none" stroke="black" d="M473.707,-230.197C392.367,-225.409 263.164,-212.746 228.992,-180 212.554,-164.247 208.601,-138.029 208.287,-118.119"/>
<polygon fill="black" stroke="black" points="211.787,-118.137 208.418,-108.092 204.787,-118.045 211.787,-118.137"/>
</g>
<!-- CreaturePhysics&#45;&gt;ITransform -->
<g id="edge8" class="edge"><title>CreaturePhysics&#45;&gt;ITransform</title>
<path fill="none" stroke="black" d="M608.918,-228.716C715.475,-221.205 913.893,-204.135 934.992,-180 945.522,-167.954 942.932,-157.891 934.992,-144 925.425,-127.264 908.283,-115.288 891.507,-107.004"/>
<polygon fill="black" stroke="black" points="892.824,-103.758 882.275,-102.776 889.909,-110.122 892.824,-103.758"/>
</g>
<!-- ICreaturePhysics -->
<g id="node6" class="node"><title>ICreaturePhysics</title>
<ellipse fill="none" stroke="black" stroke-dasharray="5,2" cx="541.992" cy="-162" rx="72.5877" ry="18"/>
<text text-anchor="middle" x="541.992" y="-158.3" font-family="Times New Roman,serif" font-size="14.00">ICreaturePhysics</text>
</g>
<!-- CreaturePhysics&#45;&gt;ICreaturePhysics -->
<g id="edge5" class="edge"><title>CreaturePhysics&#45;&gt;ICreaturePhysics</title>
<path fill="none" stroke="black" stroke-dasharray="5,2" d="M541.992,-215.697C541.992,-207.983 541.992,-198.712 541.992,-190.112"/>
<polygon fill="black" stroke="black" points="545.492,-190.104 541.992,-180.104 538.492,-190.104 545.492,-190.104"/>
</g>
<!-- ICreaturePhysics&#45;&gt;IBasePhysics -->
<g id="edge9" class="edge"><title>ICreaturePhysics&#45;&gt;IBasePhysics</title>
<path fill="none" stroke="black" stroke-dasharray="5,2" d="M559.292,-144.411C568.565,-135.519 580.149,-124.411 590.348,-114.631"/>
<polygon fill="black" stroke="black" points="593.021,-116.917 597.816,-107.47 588.176,-111.865 593.021,-116.917"/>
</g>
<!-- WrapperTransform -->
<g id="node7" class="node"><title>WrapperTransform</title>
<ellipse fill="none" stroke="black" cx="844.992" cy="-162" rx="81.4863" ry="18"/>
<text text-anchor="middle" x="844.992" y="-158.3" font-family="Times New Roman,serif" font-size="14.00">WrapperTransform</text>
</g>
<!-- WrapperTransform&#45;&gt;ITransform -->
<g id="edge10" class="edge"><title>WrapperTransform&#45;&gt;ITransform</title>
<path fill="none" stroke="black" stroke-dasharray="5,2" d="M844.992,-143.697C844.992,-135.983 844.992,-126.712 844.992,-118.112"/>
<polygon fill="black" stroke="black" points="848.492,-118.104 844.992,-108.104 841.492,-118.104 848.492,-118.104"/>
</g>
<!-- WrapperRigidbody2d -->
<g id="node8" class="node"><title>WrapperRigidbody2d</title>
<ellipse fill="none" stroke="black" cx="90.9919" cy="-162" rx="90.9839" ry="18"/>
<text text-anchor="middle" x="90.9919" y="-158.3" font-family="Times New Roman,serif" font-size="14.00">WrapperRigidbody2d</text>
</g>
<!-- WrapperRigidbody2d&#45;&gt;IRigidBody2d -->
<g id="edge11" class="edge"><title>WrapperRigidbody2d&#45;&gt;IRigidBody2d</title>
<path fill="none" stroke="black" stroke-dasharray="5,2" d="M118.592,-144.765C135.314,-134.928 156.808,-122.284 174.751,-111.73"/>
<polygon fill="black" stroke="black" points="176.922,-114.514 183.766,-106.427 173.372,-108.48 176.922,-114.514"/>
</g>
<!-- IFlipX -->
<g id="node9" class="node"><title>IFlipX</title>
<ellipse fill="none" stroke="black" stroke-dasharray="5,2" cx="614.992" cy="-18" rx="34.394" ry="18"/>
<text text-anchor="middle" x="614.992" y="-14.3" font-family="Times New Roman,serif" font-size="14.00">IFlipX</text>
</g>
<!-- IBasePhysics&#45;&gt;IFlipX -->
<g id="edge12" class="edge"><title>IBasePhysics&#45;&gt;IFlipX</title>
<path fill="none" stroke="black" stroke-dasharray="5,2" d="M614.992,-71.6966C614.992,-63.9827 614.992,-54.7125 614.992,-46.1124"/>
<polygon fill="black" stroke="black" points="618.492,-46.1043 614.992,-36.1043 611.492,-46.1044 618.492,-46.1043"/>
</g>
</g>
</svg>
