<?xml version="1.0" encoding="UTF-8" standalone="no"?>
<!DOCTYPE svg PUBLIC "-//W3C//DTD SVG 1.1//EN"
 "http://www.w3.org/Graphics/SVG/1.1/DTD/svg11.dtd">
<!-- Generated by graphviz version 2.38.0 (20140413.2041)
 -->
<!-- Title: %3 Pages: 1 -->
<svg width="593pt" height="260pt"
 viewBox="0.00 0.00 593.38 260.00" xmlns="http://www.w3.org/2000/svg" xmlns:xlink="http://www.w3.org/1999/xlink">
<g id="graph0" class="graph" transform="scale(1 1) rotate(0) translate(4 256)">
<title>%3</title>
<polygon fill="white" stroke="none" points="-4,4 -4,-256 589.384,-256 589.384,4 -4,4"/>
<!-- IBasePhysics -->
<g id="node1" class="node"><title>IBasePhysics</title>
<ellipse fill="none" stroke="black" stroke-dasharray="5,2" cx="72.7935" cy="-90" rx="59.5901" ry="18"/>
<text text-anchor="middle" x="72.7935" y="-86.3" font-family="Times New Roman,serif" font-size="14.00">IBasePhysics</text>
</g>
<!-- IFlipX -->
<g id="node6" class="node"><title>IFlipX</title>
<ellipse fill="none" stroke="black" stroke-dasharray="5,2" cx="72.7935" cy="-18" rx="34.394" ry="18"/>
<text text-anchor="middle" x="72.7935" y="-14.3" font-family="Times New Roman,serif" font-size="14.00">IFlipX</text>
</g>
<!-- IBasePhysics&#45;&gt;IFlipX -->
<g id="edge1" class="edge"><title>IBasePhysics&#45;&gt;IFlipX</title>
<path fill="none" stroke="black" stroke-dasharray="5,2" d="M72.7935,-71.6966C72.7935,-63.9827 72.7935,-54.7125 72.7935,-46.1124"/>
<polygon fill="black" stroke="black" points="76.2936,-46.1043 72.7935,-36.1043 69.2936,-46.1044 76.2936,-46.1043"/>
</g>
<!-- IRigidBody2d -->
<g id="node2" class="node"><title>IRigidBody2d</title>
<ellipse fill="none" stroke="black" stroke-dasharray="5,2" cx="212.794" cy="-90" rx="62.2891" ry="18"/>
<text text-anchor="middle" x="212.794" y="-86.3" font-family="Times New Roman,serif" font-size="14.00">IRigidBody2d</text>
</g>
<!-- ITransform -->
<g id="node3" class="node"><title>ITransform</title>
<ellipse fill="none" stroke="black" stroke-dasharray="5,2" cx="344.794" cy="-90" rx="51.9908" ry="18"/>
<text text-anchor="middle" x="344.794" y="-86.3" font-family="Times New Roman,serif" font-size="14.00">ITransform</text>
</g>
<!-- CreaturePhysicsProperties -->
<g id="node4" class="node"><title>CreaturePhysicsProperties</title>
<ellipse fill="none" stroke="black" cx="478.794" cy="-162" rx="106.681" ry="18"/>
<text text-anchor="middle" x="478.794" y="-158.3" font-family="Times New Roman,serif" font-size="14.00">CreaturePhysicsProperties</text>
</g>
<!-- BasePhysics -->
<g id="node5" class="node"><title>BasePhysics</title>
<ellipse fill="none" stroke="black" cx="258.794" cy="-162" rx="56.59" ry="18"/>
<text text-anchor="middle" x="258.794" y="-158.3" font-family="Times New Roman,serif" font-size="14.00">BasePhysics</text>
</g>
<!-- BasePhysics&#45;&gt;IBasePhysics -->
<g id="edge2" class="edge"><title>BasePhysics&#45;&gt;IBasePhysics</title>
<path fill="none" stroke="black" stroke-dasharray="5,2" d="M223.808,-147.834C193.958,-136.6 150.831,-120.369 118.301,-108.126"/>
<polygon fill="black" stroke="black" points="119.164,-104.712 108.572,-104.465 116.698,-111.263 119.164,-104.712"/>
</g>
<!-- BasePhysics&#45;&gt;IRigidBody2d -->
<g id="edge4" class="edge"><title>BasePhysics&#45;&gt;IRigidBody2d</title>
<path fill="none" stroke="black" d="M247.658,-144.055C242.177,-135.715 235.459,-125.491 229.388,-116.252"/>
<polygon fill="black" stroke="black" points="232.243,-114.224 223.826,-107.789 226.393,-118.068 232.243,-114.224"/>
</g>
<!-- BasePhysics&#45;&gt;ITransform -->
<g id="edge3" class="edge"><title>BasePhysics&#45;&gt;ITransform</title>
<path fill="none" stroke="black" d="M278.74,-144.765C290.218,-135.422 304.808,-123.546 317.355,-113.334"/>
<polygon fill="black" stroke="black" points="319.706,-115.933 325.252,-106.906 315.287,-110.504 319.706,-115.933"/>
</g>
<!-- ICreaturePhysics -->
<g id="node7" class="node"><title>ICreaturePhysics</title>
<ellipse fill="none" stroke="black" stroke-dasharray="5,2" cx="72.7935" cy="-162" rx="72.5877" ry="18"/>
<text text-anchor="middle" x="72.7935" y="-158.3" font-family="Times New Roman,serif" font-size="14.00">ICreaturePhysics</text>
</g>
<!-- ICreaturePhysics&#45;&gt;IBasePhysics -->
<g id="edge5" class="edge"><title>ICreaturePhysics&#45;&gt;IBasePhysics</title>
<path fill="none" stroke="black" stroke-dasharray="5,2" d="M72.7935,-143.697C72.7935,-135.983 72.7935,-126.712 72.7935,-118.112"/>
<polygon fill="black" stroke="black" points="76.2936,-118.104 72.7935,-108.104 69.2936,-118.104 76.2936,-118.104"/>
</g>
<!-- CreaturePhysics -->
<g id="node8" class="node"><title>CreaturePhysics</title>
<ellipse fill="none" stroke="black" cx="258.794" cy="-234" rx="69.5877" ry="18"/>
<text text-anchor="middle" x="258.794" y="-230.3" font-family="Times New Roman,serif" font-size="14.00">CreaturePhysics</text>
</g>
<!-- CreaturePhysics&#45;&gt;IRigidBody2d -->
<g id="edge9" class="edge"><title>CreaturePhysics&#45;&gt;IRigidBody2d</title>
<path fill="none" stroke="black" d="M229.159,-217.482C215.396,-208.541 200.418,-195.901 192.794,-180 183.217,-160.028 190.074,-135.313 198.267,-117"/>
<polygon fill="black" stroke="black" points="201.509,-118.335 202.726,-107.811 195.211,-115.279 201.509,-118.335"/>
</g>
<!-- CreaturePhysics&#45;&gt;ITransform -->
<g id="edge10" class="edge"><title>CreaturePhysics&#45;&gt;ITransform</title>
<path fill="none" stroke="black" d="M285.981,-217.367C299.619,-208.171 315.228,-195.337 324.794,-180 336.353,-161.465 341.262,-137.067 343.331,-118.504"/>
<polygon fill="black" stroke="black" points="346.836,-118.612 344.25,-108.338 339.864,-117.982 346.836,-118.612"/>
</g>
<!-- CreaturePhysics&#45;&gt;CreaturePhysicsProperties -->
<g id="edge8" class="edge"><title>CreaturePhysics&#45;&gt;CreaturePhysicsProperties</title>
<path fill="none" stroke="black" d="M300.951,-219.586C335.082,-208.726 383.509,-193.318 421.212,-181.321"/>
<polygon fill="black" stroke="black" points="422.577,-184.56 431.045,-178.193 420.455,-177.89 422.577,-184.56"/>
</g>
<!-- CreaturePhysics&#45;&gt;BasePhysics -->
<g id="edge6" class="edge"><title>CreaturePhysics&#45;&gt;BasePhysics</title>
<path fill="none" stroke="black" stroke-width="2" d="M258.794,-215.697C258.794,-207.983 258.794,-198.712 258.794,-190.112"/>
<polygon fill="black" stroke="black" stroke-width="2" points="262.294,-190.104 258.794,-180.104 255.294,-190.104 262.294,-190.104"/>
</g>
<!-- CreaturePhysics&#45;&gt;ICreaturePhysics -->
<g id="edge7" class="edge"><title>CreaturePhysics&#45;&gt;ICreaturePhysics</title>
<path fill="none" stroke="black" stroke-dasharray="5,2" d="M221.154,-218.834C192.101,-207.901 151.716,-192.702 120.416,-180.922"/>
<polygon fill="black" stroke="black" points="121.608,-177.631 111.016,-177.385 119.142,-184.183 121.608,-177.631"/>
</g>
</g>
</svg>
