<?xml version="1.0" encoding="UTF-8" standalone="no"?>
<!DOCTYPE svg PUBLIC "-//W3C//DTD SVG 1.1//EN"
 "http://www.w3.org/Graphics/SVG/1.1/DTD/svg11.dtd">
<!-- Generated by graphviz version 2.38.0 (20140413.2041)
 -->
<!-- Title: %3 Pages: 1 -->
<svg width="951pt" height="260pt"
 viewBox="0.00 0.00 950.50 260.00" xmlns="http://www.w3.org/2000/svg" xmlns:xlink="http://www.w3.org/1999/xlink">
<g id="graph0" class="graph" transform="scale(1 1) rotate(0) translate(4 256)">
<title>%3</title>
<polygon fill="white" stroke="none" points="-4,4 -4,-256 946.501,-256 946.501,4 -4,4"/>
<!-- ICreaturePhysics -->
<g id="node1" class="node"><title>ICreaturePhysics</title>
<ellipse fill="none" stroke="black" stroke-dasharray="5,2" cx="291.243" cy="-162" rx="72.5877" ry="18"/>
<text text-anchor="middle" x="291.243" y="-158.3" font-family="Times New Roman,serif" font-size="14.00">ICreaturePhysics</text>
</g>
<!-- IBasePhysics -->
<g id="node8" class="node"><title>IBasePhysics</title>
<ellipse fill="none" stroke="black" stroke-dasharray="5,2" cx="379.243" cy="-90" rx="59.5901" ry="18"/>
<text text-anchor="middle" x="379.243" y="-86.3" font-family="Times New Roman,serif" font-size="14.00">IBasePhysics</text>
</g>
<!-- ICreaturePhysics&#45;&gt;IBasePhysics -->
<g id="edge1" class="edge"><title>ICreaturePhysics&#45;&gt;IBasePhysics</title>
<path fill="none" stroke="black" stroke-dasharray="5,2" d="M312.098,-144.411C323.772,-135.125 338.484,-123.421 351.16,-113.338"/>
<polygon fill="black" stroke="black" points="353.496,-115.952 359.143,-106.988 349.139,-110.474 353.496,-115.952"/>
</g>
<!-- CreaturePhysicsProperties -->
<g id="node2" class="node"><title>CreaturePhysicsProperties</title>
<ellipse fill="none" stroke="black" cx="619.243" cy="-162" rx="106.681" ry="18"/>
<text text-anchor="middle" x="619.243" y="-158.3" font-family="Times New Roman,serif" font-size="14.00">CreaturePhysicsProperties</text>
</g>
<!-- WrapperTransform -->
<g id="node3" class="node"><title>WrapperTransform</title>
<ellipse fill="none" stroke="black" cx="81.2428" cy="-162" rx="81.4863" ry="18"/>
<text text-anchor="middle" x="81.2428" y="-158.3" font-family="Times New Roman,serif" font-size="14.00">WrapperTransform</text>
</g>
<!-- ITransform -->
<g id="node4" class="node"><title>ITransform</title>
<ellipse fill="none" stroke="black" stroke-dasharray="5,2" cx="190.243" cy="-90" rx="51.9908" ry="18"/>
<text text-anchor="middle" x="190.243" y="-86.3" font-family="Times New Roman,serif" font-size="14.00">ITransform</text>
</g>
<!-- WrapperTransform&#45;&gt;ITransform -->
<g id="edge2" class="edge"><title>WrapperTransform&#45;&gt;ITransform</title>
<path fill="none" stroke="black" stroke-dasharray="5,2" d="M106.524,-144.765C121.806,-134.95 141.44,-122.341 157.853,-111.801"/>
<polygon fill="black" stroke="black" points="160.068,-114.538 166.591,-106.189 156.286,-108.648 160.068,-114.538"/>
</g>
<!-- BasePhysics -->
<g id="node5" class="node"><title>BasePhysics</title>
<ellipse fill="none" stroke="black" cx="438.243" cy="-162" rx="56.59" ry="18"/>
<text text-anchor="middle" x="438.243" y="-158.3" font-family="Times New Roman,serif" font-size="14.00">BasePhysics</text>
</g>
<!-- BasePhysics&#45;&gt;ITransform -->
<g id="edge4" class="edge"><title>BasePhysics&#45;&gt;ITransform</title>
<path fill="none" stroke="black" d="M397.291,-149.441C353.841,-137.177 285.213,-117.806 239.002,-104.763"/>
<polygon fill="black" stroke="black" points="239.785,-101.347 229.21,-101.999 237.883,-108.084 239.785,-101.347"/>
</g>
<!-- BasePhysics&#45;&gt;IBasePhysics -->
<g id="edge3" class="edge"><title>BasePhysics&#45;&gt;IBasePhysics</title>
<path fill="none" stroke="black" stroke-dasharray="5,2" d="M424.261,-144.411C417.019,-135.82 408.034,-125.159 400,-115.627"/>
<polygon fill="black" stroke="black" points="402.655,-113.347 393.534,-107.956 397.303,-117.858 402.655,-113.347"/>
</g>
<!-- IRigidBody2d -->
<g id="node9" class="node"><title>IRigidBody2d</title>
<ellipse fill="none" stroke="black" stroke-dasharray="5,2" cx="835.243" cy="-90" rx="62.2891" ry="18"/>
<text text-anchor="middle" x="835.243" y="-86.3" font-family="Times New Roman,serif" font-size="14.00">IRigidBody2d</text>
</g>
<!-- BasePhysics&#45;&gt;IRigidBody2d -->
<g id="edge5" class="edge"><title>BasePhysics&#45;&gt;IRigidBody2d</title>
<path fill="none" stroke="black" d="M479.362,-149.599C487.256,-147.594 495.48,-145.631 503.243,-144 594.929,-124.74 702.158,-108.796 769.396,-99.5819"/>
<polygon fill="black" stroke="black" points="769.99,-103.033 779.427,-98.2165 769.046,-96.0972 769.99,-103.033"/>
</g>
<!-- CreaturePhysics -->
<g id="node6" class="node"><title>CreaturePhysics</title>
<ellipse fill="none" stroke="black" cx="438.243" cy="-234" rx="69.5877" ry="18"/>
<text text-anchor="middle" x="438.243" y="-230.3" font-family="Times New Roman,serif" font-size="14.00">CreaturePhysics</text>
</g>
<!-- CreaturePhysics&#45;&gt;ICreaturePhysics -->
<g id="edge7" class="edge"><title>CreaturePhysics&#45;&gt;ICreaturePhysics</title>
<path fill="none" stroke="black" stroke-dasharray="5,2" d="M406.346,-217.811C384.749,-207.527 356.007,-193.84 332.647,-182.716"/>
<polygon fill="black" stroke="black" points="333.864,-179.419 323.331,-178.28 330.855,-185.739 333.864,-179.419"/>
</g>
<!-- CreaturePhysics&#45;&gt;CreaturePhysicsProperties -->
<g id="edge8" class="edge"><title>CreaturePhysics&#45;&gt;CreaturePhysicsProperties</title>
<path fill="none" stroke="black" d="M475.308,-218.666C502.465,-208.163 539.625,-193.791 569.385,-182.282"/>
<polygon fill="black" stroke="black" points="570.7,-185.526 578.765,-178.655 568.175,-178.997 570.7,-185.526"/>
</g>
<!-- CreaturePhysics&#45;&gt;ITransform -->
<g id="edge10" class="edge"><title>CreaturePhysics&#45;&gt;ITransform</title>
<path fill="none" stroke="black" d="M375.72,-226.089C316.122,-218.21 232.165,-203.317 209.243,-180 193.449,-163.934 189.355,-138.153 188.827,-118.464"/>
<polygon fill="black" stroke="black" points="192.327,-118.26 188.849,-108.253 185.327,-118.245 192.327,-118.26"/>
</g>
<!-- CreaturePhysics&#45;&gt;BasePhysics -->
<g id="edge6" class="edge"><title>CreaturePhysics&#45;&gt;BasePhysics</title>
<path fill="none" stroke="black" stroke-width="2" d="M438.243,-215.697C438.243,-207.983 438.243,-198.712 438.243,-190.112"/>
<polygon fill="black" stroke="black" stroke-width="2" points="441.743,-190.104 438.243,-180.104 434.743,-190.104 441.743,-190.104"/>
</g>
<!-- CreaturePhysics&#45;&gt;IRigidBody2d -->
<g id="edge9" class="edge"><title>CreaturePhysics&#45;&gt;IRigidBody2d</title>
<path fill="none" stroke="black" d="M506.626,-230.687C636.197,-225.596 907.106,-211.297 935.243,-180 945.94,-168.102 943.493,-157.709 935.243,-144 924.847,-126.725 906.718,-114.783 888.726,-106.675"/>
<polygon fill="black" stroke="black" points="889.949,-103.392 879.372,-102.776 887.256,-109.854 889.949,-103.392"/>
</g>
<!-- IFlipX -->
<g id="node7" class="node"><title>IFlipX</title>
<ellipse fill="none" stroke="black" stroke-dasharray="5,2" cx="379.243" cy="-18" rx="34.394" ry="18"/>
<text text-anchor="middle" x="379.243" y="-14.3" font-family="Times New Roman,serif" font-size="14.00">IFlipX</text>
</g>
<!-- IBasePhysics&#45;&gt;IFlipX -->
<g id="edge11" class="edge"><title>IBasePhysics&#45;&gt;IFlipX</title>
<path fill="none" stroke="black" stroke-dasharray="5,2" d="M379.243,-71.6966C379.243,-63.9827 379.243,-54.7125 379.243,-46.1124"/>
<polygon fill="black" stroke="black" points="382.743,-46.1043 379.243,-36.1043 375.743,-46.1044 382.743,-46.1043"/>
</g>
<!-- WrapperRigidbody2d -->
<g id="node10" class="node"><title>WrapperRigidbody2d</title>
<ellipse fill="none" stroke="black" cx="835.243" cy="-162" rx="90.9839" ry="18"/>
<text text-anchor="middle" x="835.243" y="-158.3" font-family="Times New Roman,serif" font-size="14.00">WrapperRigidbody2d</text>
</g>
<!-- WrapperRigidbody2d&#45;&gt;IRigidBody2d -->
<g id="edge12" class="edge"><title>WrapperRigidbody2d&#45;&gt;IRigidBody2d</title>
<path fill="none" stroke="black" stroke-dasharray="5,2" d="M835.243,-143.697C835.243,-135.983 835.243,-126.712 835.243,-118.112"/>
<polygon fill="black" stroke="black" points="838.743,-118.104 835.243,-108.104 831.743,-118.104 838.743,-118.104"/>
</g>
</g>
</svg>
