<?xml version="1.0" encoding="UTF-8" standalone="no"?>
<!DOCTYPE svg PUBLIC "-//W3C//DTD SVG 1.1//EN"
 "http://www.w3.org/Graphics/SVG/1.1/DTD/svg11.dtd">
<!-- Generated by graphviz version 2.38.0 (20140413.2041)
 -->
<!-- Title: %3 Pages: 1 -->
<svg width="484pt" height="260pt"
 viewBox="0.00 0.00 484.43 260.00" xmlns="http://www.w3.org/2000/svg" xmlns:xlink="http://www.w3.org/1999/xlink">
<g id="graph0" class="graph" transform="scale(1 1) rotate(0) translate(4 256)">
<title>%3</title>
<polygon fill="white" stroke="none" points="-4,4 -4,-256 480.43,-256 480.43,4 -4,4"/>
<!-- ICollisionSystemParticipator -->
<g id="node1" class="node"><title>ICollisionSystemParticipator</title>
<ellipse fill="none" stroke="black" stroke-dasharray="5,2" cx="258.543" cy="-90" rx="114.28" ry="18"/>
<text text-anchor="middle" x="258.543" y="-86.3" font-family="Times New Roman,serif" font-size="14.00">ICollisionSystemParticipator</text>
</g>
<!-- ICollisionSystemParticipatorWrapper -->
<g id="node4" class="node"><title>ICollisionSystemParticipatorWrapper</title>
<ellipse fill="none" stroke="black" stroke-dasharray="5,2" cx="329.543" cy="-18" rx="146.774" ry="18"/>
<text text-anchor="middle" x="329.543" y="-14.3" font-family="Times New Roman,serif" font-size="14.00">ICollisionSystemParticipatorWrapper</text>
</g>
<!-- ICollisionSystemParticipator&#45;&gt;ICollisionSystemParticipatorWrapper -->
<g id="edge2" class="edge"><title>ICollisionSystemParticipator&#45;&gt;ICollisionSystemParticipatorWrapper</title>
<path fill="none" stroke="black" stroke-dasharray="5,2" d="M269.852,-72.055C277.894,-63.1988 288.851,-52.2188 299.239,-42.5492"/>
<polygon fill="black" stroke="black" points="301.622,-45.1133 306.652,-35.789 296.905,-39.9409 301.622,-45.1133"/>
</g>
<!-- ISystemParticipator -->
<g id="node5" class="node"><title>ISystemParticipator</title>
<ellipse fill="none" stroke="black" stroke-dasharray="5,2" cx="82.5427" cy="-18" rx="82.5854" ry="18"/>
<text text-anchor="middle" x="82.5427" y="-14.3" font-family="Times New Roman,serif" font-size="14.00">ISystemParticipator</text>
</g>
<!-- ICollisionSystemParticipator&#45;&gt;ISystemParticipator -->
<g id="edge1" class="edge"><title>ICollisionSystemParticipator&#45;&gt;ISystemParticipator</title>
<path fill="none" stroke="black" stroke-dasharray="5,2" d="M218.606,-73.1159C192.296,-62.6517 157.717,-48.8991 130.004,-37.8765"/>
<polygon fill="black" stroke="black" points="131.098,-34.545 120.512,-34.1014 128.511,-41.0494 131.098,-34.545"/>
</g>
<!-- ICreatureControllerWrapper -->
<g id="node2" class="node"><title>ICreatureControllerWrapper</title>
<ellipse fill="none" stroke="black" stroke-dasharray="5,2" cx="337.543" cy="-234" rx="113.18" ry="18"/>
<text text-anchor="middle" x="337.543" y="-230.3" font-family="Times New Roman,serif" font-size="14.00">ICreatureControllerWrapper</text>
</g>
<!-- ICreatureController -->
<g id="node3" class="node"><title>ICreatureController</title>
<ellipse fill="none" stroke="black" stroke-dasharray="5,2" cx="275.543" cy="-162" rx="81.4863" ry="18"/>
<text text-anchor="middle" x="275.543" y="-158.3" font-family="Times New Roman,serif" font-size="14.00">ICreatureController</text>
</g>
<!-- ICreatureControllerWrapper&#45;&gt;ICreatureController -->
<g id="edge4" class="edge"><title>ICreatureControllerWrapper&#45;&gt;ICreatureController</title>
<path fill="none" stroke="black" d="M322.534,-216.055C314.919,-207.457 305.53,-196.857 297.152,-187.397"/>
<polygon fill="black" stroke="black" points="299.663,-184.954 290.413,-179.789 294.423,-189.596 299.663,-184.954"/>
</g>
<!-- ICreatureControllerWrapper&#45;&gt;ICollisionSystemParticipatorWrapper -->
<g id="edge3" class="edge"><title>ICreatureControllerWrapper&#45;&gt;ICollisionSystemParticipatorWrapper</title>
<path fill="none" stroke="black" stroke-dasharray="5,2" d="M349.569,-215.63C368.761,-185.618 402.15,-122.428 381.543,-72 377.017,-60.925 368.938,-50.914 360.477,-42.6513"/>
<polygon fill="black" stroke="black" points="362.771,-40.0068 353.023,-35.8574 358.056,-45.1804 362.771,-40.0068"/>
</g>
<!-- ICreatureController&#45;&gt;ICollisionSystemParticipator -->
<g id="edge5" class="edge"><title>ICreatureController&#45;&gt;ICollisionSystemParticipator</title>
<path fill="none" stroke="black" stroke-dasharray="5,2" d="M271.34,-143.697C269.446,-135.898 267.166,-126.509 265.058,-117.829"/>
<polygon fill="black" stroke="black" points="268.458,-116.996 262.697,-108.104 261.655,-118.648 268.458,-116.996"/>
</g>
<!-- ICollisionSystemParticipatorWrapper&#45;&gt;ICollisionSystemParticipator -->
<g id="edge6" class="edge"><title>ICollisionSystemParticipatorWrapper&#45;&gt;ICollisionSystemParticipator</title>
<path fill="none" stroke="black" d="M317.933,-36.2753C310.016,-44.9674 299.365,-55.6409 289.217,-65.1057"/>
<polygon fill="black" stroke="black" points="286.632,-62.7267 281.608,-72.055 291.352,-67.8954 286.632,-62.7267"/>
</g>
</g>
</svg>
