<?xml version="1.0" encoding="UTF-8" standalone="no"?>
<!DOCTYPE svg PUBLIC "-//W3C//DTD SVG 1.1//EN"
 "http://www.w3.org/Graphics/SVG/1.1/DTD/svg11.dtd">
<!-- Generated by graphviz version 2.38.0 (20140413.2041)
 -->
<!-- Title: %3 Pages: 1 -->
<svg width="482pt" height="260pt"
 viewBox="0.00 0.00 482.13 260.00" xmlns="http://www.w3.org/2000/svg" xmlns:xlink="http://www.w3.org/1999/xlink">
<g id="graph0" class="graph" transform="scale(1 1) rotate(0) translate(4 256)">
<title>%3</title>
<polygon fill="white" stroke="none" points="-4,4 -4,-256 478.13,-256 478.13,4 -4,4"/>
<!-- ICollisionSystemParticipatorWrapper -->
<g id="node1" class="node"><title>ICollisionSystemParticipatorWrapper</title>
<ellipse fill="none" stroke="black" stroke-dasharray="5,2" cx="146.887" cy="-162" rx="146.774" ry="18"/>
<text text-anchor="middle" x="146.887" y="-158.3" font-family="Times New Roman,serif" font-size="14.00">ICollisionSystemParticipatorWrapper</text>
</g>
<!-- ICollisionSystemParticipator -->
<g id="node5" class="node"><title>ICollisionSystemParticipator</title>
<ellipse fill="none" stroke="black" stroke-dasharray="5,2" cx="146.887" cy="-90" rx="114.28" ry="18"/>
<text text-anchor="middle" x="146.887" y="-86.3" font-family="Times New Roman,serif" font-size="14.00">ICollisionSystemParticipator</text>
</g>
<!-- ICollisionSystemParticipatorWrapper&#45;&gt;ICollisionSystemParticipator -->
<g id="edge1" class="edge"><title>ICollisionSystemParticipatorWrapper&#45;&gt;ICollisionSystemParticipator</title>
<path fill="none" stroke="black" d="M140.971,-143.697C140.176,-135.983 139.949,-126.712 140.292,-118.112"/>
<polygon fill="black" stroke="black" points="143.785,-118.324 140.992,-108.104 136.802,-117.836 143.785,-118.324"/>
</g>
<!-- ISystemParticipator -->
<g id="node2" class="node"><title>ISystemParticipator</title>
<ellipse fill="none" stroke="black" stroke-dasharray="5,2" cx="146.887" cy="-18" rx="82.5854" ry="18"/>
<text text-anchor="middle" x="146.887" y="-14.3" font-family="Times New Roman,serif" font-size="14.00">ISystemParticipator</text>
</g>
<!-- ICreatureControllerWrapper -->
<g id="node3" class="node"><title>ICreatureControllerWrapper</title>
<ellipse fill="none" stroke="black" stroke-dasharray="5,2" cx="269.887" cy="-234" rx="113.18" ry="18"/>
<text text-anchor="middle" x="269.887" y="-230.3" font-family="Times New Roman,serif" font-size="14.00">ICreatureControllerWrapper</text>
</g>
<!-- ICreatureControllerWrapper&#45;&gt;ICollisionSystemParticipatorWrapper -->
<g id="edge2" class="edge"><title>ICreatureControllerWrapper&#45;&gt;ICollisionSystemParticipatorWrapper</title>
<path fill="none" stroke="black" stroke-dasharray="5,2" d="M241.049,-216.588C224.481,-207.159 203.458,-195.195 185.482,-184.965"/>
<polygon fill="black" stroke="black" points="186.821,-181.7 176.399,-179.795 183.359,-187.783 186.821,-181.7"/>
</g>
<!-- ICreatureController -->
<g id="node4" class="node"><title>ICreatureController</title>
<ellipse fill="none" stroke="black" stroke-dasharray="5,2" cx="392.887" cy="-162" rx="81.4863" ry="18"/>
<text text-anchor="middle" x="392.887" y="-158.3" font-family="Times New Roman,serif" font-size="14.00">ICreatureController</text>
</g>
<!-- ICreatureControllerWrapper&#45;&gt;ICreatureController -->
<g id="edge3" class="edge"><title>ICreatureControllerWrapper&#45;&gt;ICreatureController</title>
<path fill="none" stroke="black" d="M298.725,-216.588C315.733,-206.909 337.436,-194.557 355.719,-184.152"/>
<polygon fill="black" stroke="black" points="357.694,-187.056 364.654,-179.068 354.232,-180.972 357.694,-187.056"/>
</g>
<!-- ICreatureController&#45;&gt;ICollisionSystemParticipator -->
<g id="edge4" class="edge"><title>ICreatureController&#45;&gt;ICollisionSystemParticipator</title>
<path fill="none" stroke="black" stroke-dasharray="5,2" d="M345.164,-147.42C306.406,-136.392 251.445,-120.752 209.214,-108.735"/>
<polygon fill="black" stroke="black" points="210.167,-105.368 199.591,-105.997 208.251,-112.1 210.167,-105.368"/>
</g>
<!-- ICollisionSystemParticipator&#45;&gt;ICollisionSystemParticipatorWrapper -->
<g id="edge6" class="edge"><title>ICollisionSystemParticipator&#45;&gt;ICollisionSystemParticipatorWrapper</title>
<path fill="none" stroke="black" stroke-dasharray="5,2" d="M152.782,-108.104C153.588,-115.791 153.824,-125.054 153.491,-133.665"/>
<polygon fill="black" stroke="black" points="149.996,-133.48 152.803,-143.697 156.979,-133.96 149.996,-133.48"/>
</g>
<!-- ICollisionSystemParticipator&#45;&gt;ISystemParticipator -->
<g id="edge5" class="edge"><title>ICollisionSystemParticipator&#45;&gt;ISystemParticipator</title>
<path fill="none" stroke="black" stroke-dasharray="5,2" d="M146.887,-71.6966C146.887,-63.9827 146.887,-54.7125 146.887,-46.1124"/>
<polygon fill="black" stroke="black" points="150.387,-46.1043 146.887,-36.1043 143.387,-46.1044 150.387,-46.1043"/>
</g>
</g>
</svg>
