<?xml version="1.0" encoding="UTF-8" standalone="no"?>
<!DOCTYPE svg PUBLIC "-//W3C//DTD SVG 1.1//EN"
 "http://www.w3.org/Graphics/SVG/1.1/DTD/svg11.dtd">
<!-- Generated by graphviz version 2.38.0 (20140413.2041)
 -->
<!-- Title: %3 Pages: 1 -->
<svg width="306pt" height="188pt"
 viewBox="0.00 0.00 306.04 188.00" xmlns="http://www.w3.org/2000/svg" xmlns:xlink="http://www.w3.org/1999/xlink">
<g id="graph0" class="graph" transform="scale(1 1) rotate(0) translate(4 184)">
<title>%3</title>
<polygon fill="white" stroke="none" points="-4,4 -4,-184 302.037,-184 302.037,4 -4,4"/>
<!-- TimerNotFoundException -->
<g id="node1" class="node"><title>TimerNotFoundException</title>
<ellipse fill="none" stroke="black" cx="106.591" cy="-90" rx="106.681" ry="18"/>
<text text-anchor="middle" x="106.591" y="-86.3" font-family="Times New Roman,serif" font-size="14.00">TimerNotFoundException</text>
</g>
<!-- Exception -->
<g id="node2" class="node"><title>Exception</title>
<ellipse fill="none" stroke="black" cx="106.591" cy="-18" rx="47.3916" ry="18"/>
<text text-anchor="middle" x="106.591" y="-14.3" font-family="Times New Roman,serif" font-size="14.00">Exception</text>
</g>
<!-- TimerNotFoundException&#45;&gt;Exception -->
<g id="edge1" class="edge"><title>TimerNotFoundException&#45;&gt;Exception</title>
<path fill="none" stroke="black" stroke-width="2" d="M106.591,-71.6966C106.591,-63.9827 106.591,-54.7125 106.591,-46.1124"/>
<polygon fill="black" stroke="black" stroke-width="2" points="110.091,-46.1043 106.591,-36.1043 103.091,-46.1044 110.091,-46.1043"/>
</g>
<!-- Debug -->
<g id="node3" class="node"><title>Debug</title>
<ellipse fill="none" stroke="black" cx="263.591" cy="-18" rx="34.394" ry="18"/>
<text text-anchor="middle" x="263.591" y="-14.3" font-family="Times New Roman,serif" font-size="14.00">Debug</text>
</g>
<!-- TimerCollection -->
<g id="node4" class="node"><title>TimerCollection</title>
<ellipse fill="none" stroke="black" cx="184.591" cy="-162" rx="69.5877" ry="18"/>
<text text-anchor="middle" x="184.591" y="-158.3" font-family="Times New Roman,serif" font-size="14.00">TimerCollection</text>
</g>
<!-- TimerCollection&#45;&gt;TimerNotFoundException -->
<g id="edge3" class="edge"><title>TimerCollection&#45;&gt;TimerNotFoundException</title>
<path fill="none" stroke="black" d="M166.106,-144.411C156.245,-135.562 143.939,-124.518 133.08,-114.773"/>
<polygon fill="black" stroke="black" points="135.265,-112.03 125.485,-107.956 130.589,-117.24 135.265,-112.03"/>
</g>
<!-- Timer -->
<g id="node5" class="node"><title>Timer</title>
<ellipse fill="none" stroke="black" cx="263.591" cy="-90" rx="32.4942" ry="18"/>
<text text-anchor="middle" x="263.591" y="-86.3" font-family="Times New Roman,serif" font-size="14.00">Timer</text>
</g>
<!-- TimerCollection&#45;&gt;Timer -->
<g id="edge2" class="edge"><title>TimerCollection&#45;&gt;Timer</title>
<path fill="none" stroke="black" d="M203.312,-144.411C214.138,-134.819 227.873,-122.648 239.498,-112.348"/>
<polygon fill="black" stroke="black" points="241.983,-114.822 247.147,-105.57 237.341,-109.583 241.983,-114.822"/>
</g>
<!-- Timer&#45;&gt;Debug -->
<g id="edge4" class="edge"><title>Timer&#45;&gt;Debug</title>
<path fill="none" stroke="black" d="M263.591,-71.6966C263.591,-63.9827 263.591,-54.7125 263.591,-46.1124"/>
<polygon fill="black" stroke="black" points="267.091,-46.1043 263.591,-36.1043 260.091,-46.1044 267.091,-46.1043"/>
</g>
</g>
</svg>
