<?xml version="1.0" encoding="UTF-8" standalone="no"?>
<!DOCTYPE svg PUBLIC "-//W3C//DTD SVG 1.1//EN"
 "http://www.w3.org/Graphics/SVG/1.1/DTD/svg11.dtd">
<!-- Generated by graphviz version 2.38.0 (20140413.2041)
 -->
<!-- Title: %3 Pages: 1 -->
<svg width="379pt" height="188pt"
 viewBox="0.00 0.00 379.04 188.00" xmlns="http://www.w3.org/2000/svg" xmlns:xlink="http://www.w3.org/1999/xlink">
<g id="graph0" class="graph" transform="scale(1 1) rotate(0) translate(4 184)">
<title>%3</title>
<polygon fill="white" stroke="none" points="-4,4 -4,-184 375.037,-184 375.037,4 -4,4"/>
<!-- Debug -->
<g id="node1" class="node"><title>Debug</title>
<ellipse fill="#e5e5e5" stroke="black" cx="336.591" cy="-18" rx="34.394" ry="18"/>
<text text-anchor="middle" x="336.591" y="-14.3" font-family="Times New Roman,serif" font-size="14.00">Debug</text>
</g>
<!-- Callback -->
<g id="node2" class="node"><title>Callback</title>
<ellipse fill="#e5e5e5" stroke="black" cx="241.591" cy="-18" rx="42.4939" ry="18"/>
<text text-anchor="middle" x="241.591" y="-14.3" font-family="Times New Roman,serif" font-size="14.00">Callback</text>
</g>
<!-- TimerNotFoundException -->
<g id="node3" class="node"><title>TimerNotFoundException</title>
<ellipse fill="none" stroke="black" cx="106.591" cy="-90" rx="106.681" ry="18"/>
<text text-anchor="middle" x="106.591" y="-86.3" font-family="Times New Roman,serif" font-size="14.00">TimerNotFoundException</text>
</g>
<!-- Exception -->
<g id="node4" class="node"><title>Exception</title>
<ellipse fill="none" stroke="black" cx="106.591" cy="-18" rx="47.3916" ry="18"/>
<text text-anchor="middle" x="106.591" y="-14.3" font-family="Times New Roman,serif" font-size="14.00">Exception</text>
</g>
<!-- TimerNotFoundException&#45;&gt;Exception -->
<g id="edge1" class="edge"><title>TimerNotFoundException&#45;&gt;Exception</title>
<path fill="none" stroke="black" stroke-width="2" d="M106.591,-71.6966C106.591,-63.9827 106.591,-54.7125 106.591,-46.1124"/>
<polygon fill="black" stroke="black" stroke-width="2" points="110.091,-46.1043 106.591,-36.1043 103.091,-46.1044 110.091,-46.1043"/>
</g>
<!-- Timer -->
<g id="node5" class="node"><title>Timer</title>
<ellipse fill="none" stroke="black" cx="301.591" cy="-90" rx="32.4942" ry="18"/>
<text text-anchor="middle" x="301.591" y="-86.3" font-family="Times New Roman,serif" font-size="14.00">Timer</text>
</g>
<!-- Timer&#45;&gt;Debug -->
<g id="edge3" class="edge"><title>Timer&#45;&gt;Debug</title>
<path fill="none" stroke="black" d="M309.885,-72.411C313.966,-64.2493 318.98,-54.2203 323.558,-45.0653"/>
<polygon fill="black" stroke="black" points="326.771,-46.4658 328.112,-35.9562 320.51,-43.3352 326.771,-46.4658"/>
</g>
<!-- Timer&#45;&gt;Callback -->
<g id="edge2" class="edge"><title>Timer&#45;&gt;Callback</title>
<path fill="none" stroke="black" d="M288.275,-73.4647C280.647,-64.5657 270.909,-53.2051 262.303,-43.1644"/>
<polygon fill="black" stroke="black" points="264.871,-40.782 255.705,-35.4672 259.556,-45.3376 264.871,-40.782"/>
</g>
<!-- TimerCollection -->
<g id="node6" class="node"><title>TimerCollection</title>
<ellipse fill="none" stroke="black" cx="241.591" cy="-162" rx="69.5877" ry="18"/>
<text text-anchor="middle" x="241.591" y="-158.3" font-family="Times New Roman,serif" font-size="14.00">TimerCollection</text>
</g>
<!-- TimerCollection&#45;&gt;Callback -->
<g id="edge5" class="edge"><title>TimerCollection&#45;&gt;Callback</title>
<path fill="none" stroke="black" d="M241.591,-143.871C241.591,-119.67 241.591,-75.2108 241.591,-46.3932"/>
<polygon fill="black" stroke="black" points="245.091,-46.1892 241.591,-36.1893 238.091,-46.1893 245.091,-46.1892"/>
</g>
<!-- TimerCollection&#45;&gt;TimerNotFoundException -->
<g id="edge6" class="edge"><title>TimerCollection&#45;&gt;TimerNotFoundException</title>
<path fill="none" stroke="black" d="M211.964,-145.638C192.898,-135.752 167.871,-122.775 146.992,-111.949"/>
<polygon fill="black" stroke="black" points="148.516,-108.797 138.028,-107.301 145.294,-115.011 148.516,-108.797"/>
</g>
<!-- TimerCollection&#45;&gt;Timer -->
<g id="edge4" class="edge"><title>TimerCollection&#45;&gt;Timer</title>
<path fill="none" stroke="black" d="M256.115,-144.055C263.702,-135.204 273.107,-124.231 281.391,-114.566"/>
<polygon fill="black" stroke="black" points="284.172,-116.7 288.022,-106.829 278.857,-112.144 284.172,-116.7"/>
</g>
</g>
</svg>
