<?xml version="1.0" encoding="UTF-8" standalone="no"?>
<!DOCTYPE svg PUBLIC "-//W3C//DTD SVG 1.1//EN"
 "http://www.w3.org/Graphics/SVG/1.1/DTD/svg11.dtd">
<!-- Generated by graphviz version 2.38.0 (20140413.2041)
 -->
<!-- Title: %3 Pages: 1 -->
<svg width="374pt" height="188pt"
 viewBox="0.00 0.00 373.84 188.00" xmlns="http://www.w3.org/2000/svg" xmlns:xlink="http://www.w3.org/1999/xlink">
<g id="graph0" class="graph" transform="scale(1 1) rotate(0) translate(4 184)">
<title>%3</title>
<polygon fill="white" stroke="none" points="-4,4 -4,-184 369.837,-184 369.837,4 -4,4"/>
<!-- Exception -->
<g id="node1" class="node"><title>Exception</title>
<ellipse fill="none" stroke="black" cx="106.591" cy="-18" rx="47.3916" ry="18"/>
<text text-anchor="middle" x="106.591" y="-14.3" font-family="Times New Roman,serif" font-size="14.00">Exception</text>
</g>
<!-- TimerNotFoundException -->
<g id="node2" class="node"><title>TimerNotFoundException</title>
<ellipse fill="none" stroke="black" cx="106.591" cy="-90" rx="106.681" ry="18"/>
<text text-anchor="middle" x="106.591" y="-86.3" font-family="Times New Roman,serif" font-size="14.00">TimerNotFoundException</text>
</g>
<!-- TimerNotFoundException&#45;&gt;Exception -->
<g id="edge1" class="edge"><title>TimerNotFoundException&#45;&gt;Exception</title>
<path fill="none" stroke="black" stroke-width="2" d="M106.591,-71.6966C106.591,-63.9827 106.591,-54.7125 106.591,-46.1124"/>
<polygon fill="black" stroke="black" stroke-width="2" points="110.091,-46.1043 106.591,-36.1043 103.091,-46.1044 110.091,-46.1043"/>
</g>
<!-- Timer -->
<g id="node3" class="node"><title>Timer</title>
<ellipse fill="none" stroke="black" cx="263.591" cy="-90" rx="32.4942" ry="18"/>
<text text-anchor="middle" x="263.591" y="-86.3" font-family="Times New Roman,serif" font-size="14.00">Timer</text>
</g>
<!-- Debug -->
<g id="node4" class="node"><title>Debug</title>
<ellipse fill="#e5e5e5" stroke="black" cx="228.591" cy="-18" rx="34.394" ry="18"/>
<text text-anchor="middle" x="228.591" y="-14.3" font-family="Times New Roman,serif" font-size="14.00">Debug</text>
</g>
<!-- Timer&#45;&gt;Debug -->
<g id="edge3" class="edge"><title>Timer&#45;&gt;Debug</title>
<path fill="none" stroke="black" d="M255.296,-72.411C251.215,-64.2493 246.201,-54.2203 241.623,-45.0653"/>
<polygon fill="black" stroke="black" points="244.671,-43.3352 237.069,-35.9562 238.41,-46.4658 244.671,-43.3352"/>
</g>
<!-- Callback -->
<g id="node5" class="node"><title>Callback</title>
<ellipse fill="#e5e5e5" stroke="black" cx="323.591" cy="-18" rx="42.4939" ry="18"/>
<text text-anchor="middle" x="323.591" y="-14.3" font-family="Times New Roman,serif" font-size="14.00">Callback</text>
</g>
<!-- Timer&#45;&gt;Callback -->
<g id="edge2" class="edge"><title>Timer&#45;&gt;Callback</title>
<path fill="none" stroke="black" d="M276.906,-73.4647C284.534,-64.5657 294.272,-53.2051 302.878,-43.1644"/>
<polygon fill="black" stroke="black" points="305.625,-45.3376 309.476,-35.4672 300.31,-40.782 305.625,-45.3376"/>
</g>
<!-- TimerCollection -->
<g id="node6" class="node"><title>TimerCollection</title>
<ellipse fill="none" stroke="black" cx="263.591" cy="-162" rx="69.5877" ry="18"/>
<text text-anchor="middle" x="263.591" y="-158.3" font-family="Times New Roman,serif" font-size="14.00">TimerCollection</text>
</g>
<!-- TimerCollection&#45;&gt;TimerNotFoundException -->
<g id="edge6" class="edge"><title>TimerCollection&#45;&gt;TimerNotFoundException</title>
<path fill="none" stroke="black" d="M230.295,-146.155C207.468,-135.977 176.905,-122.35 151.869,-111.188"/>
<polygon fill="black" stroke="black" points="153.131,-107.919 142.573,-107.043 150.281,-114.312 153.131,-107.919"/>
</g>
<!-- TimerCollection&#45;&gt;Timer -->
<g id="edge4" class="edge"><title>TimerCollection&#45;&gt;Timer</title>
<path fill="none" stroke="black" d="M263.591,-143.697C263.591,-135.983 263.591,-126.712 263.591,-118.112"/>
<polygon fill="black" stroke="black" points="267.091,-118.104 263.591,-108.104 260.091,-118.104 267.091,-118.104"/>
</g>
<!-- TimerCollection&#45;&gt;Callback -->
<g id="edge5" class="edge"><title>TimerCollection&#45;&gt;Callback</title>
<path fill="none" stroke="black" d="M279.799,-144.166C288.393,-134.344 298.422,-121.297 304.591,-108 313.706,-88.3513 318.507,-64.2234 321.001,-46.0487"/>
<polygon fill="black" stroke="black" points="324.476,-46.4659 322.218,-36.1145 317.528,-45.6149 324.476,-46.4659"/>
</g>
</g>
</svg>
