<?xml version="1.0" encoding="UTF-8" standalone="no"?>
<!DOCTYPE svg PUBLIC "-//W3C//DTD SVG 1.1//EN"
 "http://www.w3.org/Graphics/SVG/1.1/DTD/svg11.dtd">
<!-- Generated by graphviz version 2.38.0 (20140413.2041)
 -->
<!-- Title: %3 Pages: 1 -->
<svg width="502pt" height="188pt"
 viewBox="0.00 0.00 502.23 188.00" xmlns="http://www.w3.org/2000/svg" xmlns:xlink="http://www.w3.org/1999/xlink">
<g id="graph0" class="graph" transform="scale(1 1) rotate(0) translate(4 184)">
<title>%3</title>
<polygon fill="white" stroke="none" points="-4,4 -4,-184 498.235,-184 498.235,4 -4,4"/>
<!-- WrapperRigidbody2d -->
<g id="node1" class="node"><title>WrapperRigidbody2d</title>
<ellipse fill="none" stroke="black" cx="90.9919" cy="-162" rx="90.9839" ry="18"/>
<text text-anchor="middle" x="90.9919" y="-158.3" font-family="Times New Roman,serif" font-size="14.00">WrapperRigidbody2d</text>
</g>
<!-- IRigidBody2d -->
<g id="node6" class="node"><title>IRigidBody2d</title>
<ellipse fill="none" stroke="black" stroke-dasharray="5,2" cx="103.992" cy="-90" rx="62.2891" ry="18"/>
<text text-anchor="middle" x="103.992" y="-86.3" font-family="Times New Roman,serif" font-size="14.00">IRigidBody2d</text>
</g>
<!-- WrapperRigidbody2d&#45;&gt;IRigidBody2d -->
<g id="edge1" class="edge"><title>WrapperRigidbody2d&#45;&gt;IRigidBody2d</title>
<path fill="none" stroke="black" stroke-dasharray="5,2" d="M94.2054,-143.697C95.638,-135.983 97.3596,-126.712 98.9568,-118.112"/>
<polygon fill="black" stroke="black" points="102.431,-118.575 100.815,-108.104 95.5482,-117.297 102.431,-118.575"/>
</g>
<!-- ITransform -->
<g id="node2" class="node"><title>ITransform</title>
<ellipse fill="none" stroke="black" stroke-dasharray="5,2" cx="399.992" cy="-90" rx="51.9908" ry="18"/>
<text text-anchor="middle" x="399.992" y="-86.3" font-family="Times New Roman,serif" font-size="14.00">ITransform</text>
</g>
<!-- IBasePhysics -->
<g id="node3" class="node"><title>IBasePhysics</title>
<ellipse fill="none" stroke="black" stroke-dasharray="5,2" cx="256.992" cy="-90" rx="59.5901" ry="18"/>
<text text-anchor="middle" x="256.992" y="-86.3" font-family="Times New Roman,serif" font-size="14.00">IBasePhysics</text>
</g>
<!-- IFlipX -->
<g id="node4" class="node"><title>IFlipX</title>
<ellipse fill="none" stroke="black" stroke-dasharray="5,2" cx="256.992" cy="-18" rx="34.394" ry="18"/>
<text text-anchor="middle" x="256.992" y="-14.3" font-family="Times New Roman,serif" font-size="14.00">IFlipX</text>
</g>
<!-- IBasePhysics&#45;&gt;IFlipX -->
<g id="edge2" class="edge"><title>IBasePhysics&#45;&gt;IFlipX</title>
<path fill="none" stroke="black" stroke-dasharray="5,2" d="M256.992,-71.6966C256.992,-63.9827 256.992,-54.7125 256.992,-46.1124"/>
<polygon fill="black" stroke="black" points="260.492,-46.1043 256.992,-36.1043 253.492,-46.1044 260.492,-46.1043"/>
</g>
<!-- BasePhysics -->
<g id="node5" class="node"><title>BasePhysics</title>
<ellipse fill="none" stroke="black" cx="256.992" cy="-162" rx="56.59" ry="18"/>
<text text-anchor="middle" x="256.992" y="-158.3" font-family="Times New Roman,serif" font-size="14.00">BasePhysics</text>
</g>
<!-- BasePhysics&#45;&gt;ITransform -->
<g id="edge4" class="edge"><title>BasePhysics&#45;&gt;ITransform</title>
<path fill="none" stroke="black" d="M286.622,-146.496C308.432,-135.819 338.269,-121.214 361.859,-109.667"/>
<polygon fill="black" stroke="black" points="363.447,-112.786 370.889,-105.246 360.369,-106.499 363.447,-112.786"/>
</g>
<!-- BasePhysics&#45;&gt;IBasePhysics -->
<g id="edge3" class="edge"><title>BasePhysics&#45;&gt;IBasePhysics</title>
<path fill="none" stroke="black" stroke-dasharray="5,2" d="M256.992,-143.697C256.992,-135.983 256.992,-126.712 256.992,-118.112"/>
<polygon fill="black" stroke="black" points="260.492,-118.104 256.992,-108.104 253.492,-118.104 260.492,-118.104"/>
</g>
<!-- BasePhysics&#45;&gt;IRigidBody2d -->
<g id="edge5" class="edge"><title>BasePhysics&#45;&gt;IRigidBody2d</title>
<path fill="none" stroke="black" d="M226.03,-146.834C202.725,-136.172 170.554,-121.453 145.093,-109.805"/>
<polygon fill="black" stroke="black" points="146.246,-106.483 135.697,-105.505 143.334,-112.849 146.246,-106.483"/>
</g>
<!-- WrapperTransform -->
<g id="node7" class="node"><title>WrapperTransform</title>
<ellipse fill="none" stroke="black" cx="412.992" cy="-162" rx="81.4863" ry="18"/>
<text text-anchor="middle" x="412.992" y="-158.3" font-family="Times New Roman,serif" font-size="14.00">WrapperTransform</text>
</g>
<!-- WrapperTransform&#45;&gt;ITransform -->
<g id="edge6" class="edge"><title>WrapperTransform&#45;&gt;ITransform</title>
<path fill="none" stroke="black" stroke-dasharray="5,2" d="M409.778,-143.697C408.346,-135.983 406.624,-126.712 405.027,-118.112"/>
<polygon fill="black" stroke="black" points="408.436,-117.297 403.168,-108.104 401.553,-118.575 408.436,-117.297"/>
</g>
</g>
</svg>
