<?xml version="1.0" encoding="UTF-8" standalone="no"?>
<!DOCTYPE svg PUBLIC "-//W3C//DTD SVG 1.1//EN"
 "http://www.w3.org/Graphics/SVG/1.1/DTD/svg11.dtd">
<!-- Generated by graphviz version 2.38.0 (20140413.2041)
 -->
<!-- Title: %3 Pages: 1 -->
<svg width="392pt" height="188pt"
 viewBox="0.00 0.00 392.39 188.00" xmlns="http://www.w3.org/2000/svg" xmlns:xlink="http://www.w3.org/1999/xlink">
<g id="graph0" class="graph" transform="scale(1 1) rotate(0) translate(4 184)">
<title>%3</title>
<polygon fill="white" stroke="none" points="-4,4 -4,-184 388.39,-184 388.39,4 -4,4"/>
<!-- IFlipX -->
<g id="node1" class="node"><title>IFlipX</title>
<ellipse fill="none" stroke="black" stroke-dasharray="5,2" cx="202.394" cy="-18" rx="34.394" ry="18"/>
<text text-anchor="middle" x="202.394" y="-14.3" font-family="Times New Roman,serif" font-size="14.00">IFlipX</text>
</g>
<!-- BasePhysics -->
<g id="node2" class="node"><title>BasePhysics</title>
<ellipse fill="none" stroke="black" cx="202.394" cy="-162" rx="56.59" ry="18"/>
<text text-anchor="middle" x="202.394" y="-158.3" font-family="Times New Roman,serif" font-size="14.00">BasePhysics</text>
</g>
<!-- IRigidBody2d -->
<g id="node3" class="node"><title>IRigidBody2d</title>
<ellipse fill="none" stroke="black" stroke-dasharray="5,2" cx="62.3945" cy="-90" rx="62.2891" ry="18"/>
<text text-anchor="middle" x="62.3945" y="-86.3" font-family="Times New Roman,serif" font-size="14.00">IRigidBody2d</text>
</g>
<!-- BasePhysics&#45;&gt;IRigidBody2d -->
<g id="edge3" class="edge"><title>BasePhysics&#45;&gt;IRigidBody2d</title>
<path fill="none" stroke="black" d="M173.386,-146.496C152.55,-136.078 124.232,-121.919 101.415,-110.51"/>
<polygon fill="black" stroke="black" points="102.841,-107.31 92.3313,-105.968 99.7104,-113.571 102.841,-107.31"/>
</g>
<!-- IBasePhysics -->
<g id="node4" class="node"><title>IBasePhysics</title>
<ellipse fill="none" stroke="black" stroke-dasharray="5,2" cx="202.394" cy="-90" rx="59.5901" ry="18"/>
<text text-anchor="middle" x="202.394" y="-86.3" font-family="Times New Roman,serif" font-size="14.00">IBasePhysics</text>
</g>
<!-- BasePhysics&#45;&gt;IBasePhysics -->
<g id="edge1" class="edge"><title>BasePhysics&#45;&gt;IBasePhysics</title>
<path fill="none" stroke="black" stroke-dasharray="5,2" d="M202.394,-143.697C202.394,-135.983 202.394,-126.712 202.394,-118.112"/>
<polygon fill="black" stroke="black" points="205.895,-118.104 202.394,-108.104 198.895,-118.104 205.895,-118.104"/>
</g>
<!-- ITransform -->
<g id="node5" class="node"><title>ITransform</title>
<ellipse fill="none" stroke="black" stroke-dasharray="5,2" cx="332.394" cy="-90" rx="51.9908" ry="18"/>
<text text-anchor="middle" x="332.394" y="-86.3" font-family="Times New Roman,serif" font-size="14.00">ITransform</text>
</g>
<!-- BasePhysics&#45;&gt;ITransform -->
<g id="edge2" class="edge"><title>BasePhysics&#45;&gt;ITransform</title>
<path fill="none" stroke="black" d="M229.964,-146.155C249.312,-135.737 275.371,-121.705 296.362,-110.402"/>
<polygon fill="black" stroke="black" points="298.165,-113.406 305.31,-105.584 294.846,-107.243 298.165,-113.406"/>
</g>
<!-- IBasePhysics&#45;&gt;IFlipX -->
<g id="edge4" class="edge"><title>IBasePhysics&#45;&gt;IFlipX</title>
<path fill="none" stroke="black" stroke-dasharray="5,2" d="M202.394,-71.6966C202.394,-63.9827 202.394,-54.7125 202.394,-46.1124"/>
<polygon fill="black" stroke="black" points="205.895,-46.1043 202.394,-36.1043 198.895,-46.1044 205.895,-46.1043"/>
</g>
</g>
</svg>
