<?xml version="1.0" encoding="UTF-8" standalone="no"?>
<!DOCTYPE svg PUBLIC "-//W3C//DTD SVG 1.1//EN"
 "http://www.w3.org/Graphics/SVG/1.1/DTD/svg11.dtd">
<!-- Generated by graphviz version 2.38.0 (20140413.2041)
 -->
<!-- Title: %3 Pages: 1 -->
<svg width="502pt" height="188pt"
 viewBox="0.00 0.00 502.23 188.00" xmlns="http://www.w3.org/2000/svg" xmlns:xlink="http://www.w3.org/1999/xlink">
<g id="graph0" class="graph" transform="scale(1 1) rotate(0) translate(4 184)">
<title>%3</title>
<polygon fill="white" stroke="none" points="-4,4 -4,-184 498.235,-184 498.235,4 -4,4"/>
<!-- IFlipX -->
<g id="node1" class="node"><title>IFlipX</title>
<ellipse fill="none" stroke="black" stroke-dasharray="5,2" cx="237.243" cy="-18" rx="34.394" ry="18"/>
<text text-anchor="middle" x="237.243" y="-14.3" font-family="Times New Roman,serif" font-size="14.00">IFlipX</text>
</g>
<!-- WrapperTransform -->
<g id="node2" class="node"><title>WrapperTransform</title>
<ellipse fill="none" stroke="black" cx="81.2428" cy="-162" rx="81.4863" ry="18"/>
<text text-anchor="middle" x="81.2428" y="-158.3" font-family="Times New Roman,serif" font-size="14.00">WrapperTransform</text>
</g>
<!-- ITransform -->
<g id="node3" class="node"><title>ITransform</title>
<ellipse fill="none" stroke="black" stroke-dasharray="5,2" cx="94.2428" cy="-90" rx="51.9908" ry="18"/>
<text text-anchor="middle" x="94.2428" y="-86.3" font-family="Times New Roman,serif" font-size="14.00">ITransform</text>
</g>
<!-- WrapperTransform&#45;&gt;ITransform -->
<g id="edge1" class="edge"><title>WrapperTransform&#45;&gt;ITransform</title>
<path fill="none" stroke="black" stroke-dasharray="5,2" d="M84.4563,-143.697C85.8889,-135.983 87.6105,-126.712 89.2076,-118.112"/>
<polygon fill="black" stroke="black" points="92.6814,-118.575 91.0663,-108.104 85.7991,-117.297 92.6814,-118.575"/>
</g>
<!-- IRigidBody2d -->
<g id="node4" class="node"><title>IRigidBody2d</title>
<ellipse fill="none" stroke="black" stroke-dasharray="5,2" cx="390.243" cy="-90" rx="62.2891" ry="18"/>
<text text-anchor="middle" x="390.243" y="-86.3" font-family="Times New Roman,serif" font-size="14.00">IRigidBody2d</text>
</g>
<!-- BasePhysics -->
<g id="node5" class="node"><title>BasePhysics</title>
<ellipse fill="none" stroke="black" cx="237.243" cy="-162" rx="56.59" ry="18"/>
<text text-anchor="middle" x="237.243" y="-158.3" font-family="Times New Roman,serif" font-size="14.00">BasePhysics</text>
</g>
<!-- BasePhysics&#45;&gt;ITransform -->
<g id="edge3" class="edge"><title>BasePhysics&#45;&gt;ITransform</title>
<path fill="none" stroke="black" d="M207.613,-146.496C185.802,-135.819 155.966,-121.214 132.376,-109.667"/>
<polygon fill="black" stroke="black" points="133.866,-106.499 123.345,-105.246 130.788,-112.786 133.866,-106.499"/>
</g>
<!-- BasePhysics&#45;&gt;IRigidBody2d -->
<g id="edge4" class="edge"><title>BasePhysics&#45;&gt;IRigidBody2d</title>
<path fill="none" stroke="black" d="M268.205,-146.834C291.51,-136.172 323.681,-121.453 349.141,-109.805"/>
<polygon fill="black" stroke="black" points="350.901,-112.849 358.538,-105.505 347.989,-106.483 350.901,-112.849"/>
</g>
<!-- IBasePhysics -->
<g id="node7" class="node"><title>IBasePhysics</title>
<ellipse fill="none" stroke="black" stroke-dasharray="5,2" cx="237.243" cy="-90" rx="59.5901" ry="18"/>
<text text-anchor="middle" x="237.243" y="-86.3" font-family="Times New Roman,serif" font-size="14.00">IBasePhysics</text>
</g>
<!-- BasePhysics&#45;&gt;IBasePhysics -->
<g id="edge2" class="edge"><title>BasePhysics&#45;&gt;IBasePhysics</title>
<path fill="none" stroke="black" stroke-dasharray="5,2" d="M237.243,-143.697C237.243,-135.983 237.243,-126.712 237.243,-118.112"/>
<polygon fill="black" stroke="black" points="240.743,-118.104 237.243,-108.104 233.743,-118.104 240.743,-118.104"/>
</g>
<!-- WrapperRigidbody2d -->
<g id="node6" class="node"><title>WrapperRigidbody2d</title>
<ellipse fill="none" stroke="black" cx="403.243" cy="-162" rx="90.9839" ry="18"/>
<text text-anchor="middle" x="403.243" y="-158.3" font-family="Times New Roman,serif" font-size="14.00">WrapperRigidbody2d</text>
</g>
<!-- WrapperRigidbody2d&#45;&gt;IRigidBody2d -->
<g id="edge5" class="edge"><title>WrapperRigidbody2d&#45;&gt;IRigidBody2d</title>
<path fill="none" stroke="black" stroke-dasharray="5,2" d="M400.029,-143.697C398.597,-135.983 396.875,-126.712 395.278,-118.112"/>
<polygon fill="black" stroke="black" points="398.686,-117.297 393.419,-108.104 391.804,-118.575 398.686,-117.297"/>
</g>
<!-- IBasePhysics&#45;&gt;IFlipX -->
<g id="edge6" class="edge"><title>IBasePhysics&#45;&gt;IFlipX</title>
<path fill="none" stroke="black" stroke-dasharray="5,2" d="M237.243,-71.6966C237.243,-63.9827 237.243,-54.7125 237.243,-46.1124"/>
<polygon fill="black" stroke="black" points="240.743,-46.1043 237.243,-36.1043 233.743,-46.1044 240.743,-46.1043"/>
</g>
</g>
</svg>
