<?xml version="1.0" encoding="UTF-8" standalone="no"?>
<!DOCTYPE svg PUBLIC "-//W3C//DTD SVG 1.1//EN"
 "http://www.w3.org/Graphics/SVG/1.1/DTD/svg11.dtd">
<!-- Generated by graphviz version 2.38.0 (20140413.2041)
 -->
<!-- Title: %3 Pages: 1 -->
<svg width="392pt" height="188pt"
 viewBox="0.00 0.00 392.19 188.00" xmlns="http://www.w3.org/2000/svg" xmlns:xlink="http://www.w3.org/1999/xlink">
<g id="graph0" class="graph" transform="scale(1 1) rotate(0) translate(4 184)">
<title>%3</title>
<polygon fill="white" stroke="none" points="-4,4 -4,-184 388.189,-184 388.189,4 -4,4"/>
<!-- IRigidBody2d -->
<g id="node1" class="node"><title>IRigidBody2d</title>
<ellipse fill="none" stroke="black" stroke-dasharray="5,2" cx="62.3945" cy="-90" rx="62.2891" ry="18"/>
<text text-anchor="middle" x="62.3945" y="-86.3" font-family="Times New Roman,serif" font-size="14.00">IRigidBody2d</text>
</g>
<!-- BasePhysics -->
<g id="node2" class="node"><title>BasePhysics</title>
<ellipse fill="none" stroke="black" cx="194.394" cy="-162" rx="56.59" ry="18"/>
<text text-anchor="middle" x="194.394" y="-158.3" font-family="Times New Roman,serif" font-size="14.00">BasePhysics</text>
</g>
<!-- BasePhysics&#45;&gt;IRigidBody2d -->
<g id="edge3" class="edge"><title>BasePhysics&#45;&gt;IRigidBody2d</title>
<path fill="none" stroke="black" d="M166.401,-146.155C147.019,-135.877 121.005,-122.081 99.8421,-110.859"/>
<polygon fill="black" stroke="black" points="101.277,-107.658 90.803,-106.065 97.9978,-113.842 101.277,-107.658"/>
</g>
<!-- ITransform -->
<g id="node3" class="node"><title>ITransform</title>
<ellipse fill="none" stroke="black" stroke-dasharray="5,2" cx="194.394" cy="-90" rx="51.9908" ry="18"/>
<text text-anchor="middle" x="194.394" y="-86.3" font-family="Times New Roman,serif" font-size="14.00">ITransform</text>
</g>
<!-- BasePhysics&#45;&gt;ITransform -->
<g id="edge2" class="edge"><title>BasePhysics&#45;&gt;ITransform</title>
<path fill="none" stroke="black" d="M194.394,-143.697C194.394,-135.983 194.394,-126.712 194.394,-118.112"/>
<polygon fill="black" stroke="black" points="197.895,-118.104 194.394,-108.104 190.895,-118.104 197.895,-118.104"/>
</g>
<!-- IBasePhysics -->
<g id="node5" class="node"><title>IBasePhysics</title>
<ellipse fill="none" stroke="black" stroke-dasharray="5,2" cx="324.394" cy="-90" rx="59.5901" ry="18"/>
<text text-anchor="middle" x="324.394" y="-86.3" font-family="Times New Roman,serif" font-size="14.00">IBasePhysics</text>
</g>
<!-- BasePhysics&#45;&gt;IBasePhysics -->
<g id="edge1" class="edge"><title>BasePhysics&#45;&gt;IBasePhysics</title>
<path fill="none" stroke="black" stroke-dasharray="5,2" d="M221.964,-146.155C241.052,-135.877 266.672,-122.081 287.514,-110.859"/>
<polygon fill="black" stroke="black" points="289.271,-113.888 296.416,-106.065 285.952,-107.725 289.271,-113.888"/>
</g>
<!-- IFlipX -->
<g id="node4" class="node"><title>IFlipX</title>
<ellipse fill="none" stroke="black" stroke-dasharray="5,2" cx="324.394" cy="-18" rx="34.394" ry="18"/>
<text text-anchor="middle" x="324.394" y="-14.3" font-family="Times New Roman,serif" font-size="14.00">IFlipX</text>
</g>
<!-- IBasePhysics&#45;&gt;IFlipX -->
<g id="edge4" class="edge"><title>IBasePhysics&#45;&gt;IFlipX</title>
<path fill="none" stroke="black" stroke-dasharray="5,2" d="M324.394,-71.6966C324.394,-63.9827 324.394,-54.7125 324.394,-46.1124"/>
<polygon fill="black" stroke="black" points="327.895,-46.1043 324.394,-36.1043 320.895,-46.1044 327.895,-46.1043"/>
</g>
</g>
</svg>
