<?xml version="1.0" encoding="UTF-8" standalone="no"?>
<!DOCTYPE svg PUBLIC "-//W3C//DTD SVG 1.1//EN"
 "http://www.w3.org/Graphics/SVG/1.1/DTD/svg11.dtd">
<!-- Generated by graphviz version 2.38.0 (20140413.2041)
 -->
<!-- Title: %3 Pages: 1 -->
<svg width="1121pt" height="260pt"
 viewBox="0.00 0.00 1120.54 260.00" xmlns="http://www.w3.org/2000/svg" xmlns:xlink="http://www.w3.org/1999/xlink">
<g id="graph0" class="graph" transform="scale(1 1) rotate(0) translate(4 256)">
<title>%3</title>
<polygon fill="white" stroke="none" points="-4,4 -4,-256 1116.54,-256 1116.54,4 -4,4"/>
<!-- IDealsStatusEffect -->
<g id="node1" class="node"><title>IDealsStatusEffect</title>
<ellipse fill="none" stroke="black" stroke-dasharray="5,2" cx="77.9931" cy="-162" rx="77.9862" ry="18"/>
<text text-anchor="middle" x="77.9931" y="-158.3" font-family="Times New Roman,serif" font-size="14.00">IDealsStatusEffect</text>
</g>
<!-- ITakesStatusEffect -->
<g id="node9" class="node"><title>ITakesStatusEffect</title>
<ellipse fill="none" stroke="black" stroke-dasharray="5,2" cx="185.993" cy="-90" rx="79.8859" ry="18"/>
<text text-anchor="middle" x="185.993" y="-86.3" font-family="Times New Roman,serif" font-size="14.00">ITakesStatusEffect</text>
</g>
<!-- IDealsStatusEffect&#45;&gt;ITakesStatusEffect -->
<g id="edge2" class="edge"><title>IDealsStatusEffect&#45;&gt;ITakesStatusEffect</title>
<path fill="none" stroke="black" d="M103.042,-144.765C117.763,-135.223 136.561,-123.04 152.538,-112.684"/>
<polygon fill="black" stroke="black" points="154.592,-115.523 161.08,-107.147 150.785,-109.649 154.592,-115.523"/>
</g>
<!-- IStatusEffect -->
<g id="node11" class="node"><title>IStatusEffect</title>
<ellipse fill="none" stroke="black" stroke-dasharray="5,2" cx="131.993" cy="-18" rx="57.6901" ry="18"/>
<text text-anchor="middle" x="131.993" y="-14.3" font-family="Times New Roman,serif" font-size="14.00">IStatusEffect</text>
</g>
<!-- IDealsStatusEffect&#45;&gt;IStatusEffect -->
<g id="edge1" class="edge"><title>IDealsStatusEffect&#45;&gt;IStatusEffect</title>
<path fill="none" stroke="black" d="M79.7515,-143.7C82.0558,-125.338 87.0359,-95.7505 96.9931,-72 101.043,-62.3393 106.907,-52.55 112.681,-44.0579"/>
<polygon fill="black" stroke="black" points="115.653,-45.9183 118.586,-35.7376 109.944,-41.8671 115.653,-45.9183"/>
</g>
<!-- CollisionSystem -->
<g id="node2" class="node"><title>CollisionSystem</title>
<ellipse fill="#e5e5e5" stroke="black" cx="331.993" cy="-234" rx="69.5877" ry="18"/>
<text text-anchor="middle" x="331.993" y="-230.3" font-family="Times New Roman,serif" font-size="14.00">CollisionSystem</text>
</g>
<!-- CollisionSystem&#45;&gt;IDealsStatusEffect -->
<g id="edge6" class="edge"><title>CollisionSystem&#45;&gt;IDealsStatusEffect</title>
<path fill="none" stroke="black" d="M286.29,-220.405C244.108,-208.78 181.285,-191.466 135.667,-178.894"/>
<polygon fill="black" stroke="black" points="136.489,-175.49 125.918,-176.208 134.629,-182.239 136.489,-175.49"/>
</g>
<!-- ICollisionSystemParticipator -->
<g id="node3" class="node"><title>ICollisionSystemParticipator</title>
<ellipse fill="none" stroke="black" stroke-dasharray="5,2" cx="617.993" cy="-162" rx="114.28" ry="18"/>
<text text-anchor="middle" x="617.993" y="-158.3" font-family="Times New Roman,serif" font-size="14.00">ICollisionSystemParticipator</text>
</g>
<!-- CollisionSystem&#45;&gt;ICollisionSystemParticipator -->
<g id="edge3" class="edge"><title>CollisionSystem&#45;&gt;ICollisionSystemParticipator</title>
<path fill="none" stroke="black" d="M380.833,-221.046C427.147,-209.711 497.18,-192.57 549.149,-179.85"/>
<polygon fill="black" stroke="black" points="550.079,-183.226 558.961,-177.448 548.415,-176.426 550.079,-183.226"/>
</g>
<!-- ITakesDamage -->
<g id="node4" class="node"><title>ITakesDamage</title>
<ellipse fill="none" stroke="black" stroke-dasharray="5,2" cx="238.993" cy="-162" rx="64.9885" ry="18"/>
<text text-anchor="middle" x="238.993" y="-158.3" font-family="Times New Roman,serif" font-size="14.00">ITakesDamage</text>
</g>
<!-- CollisionSystem&#45;&gt;ITakesDamage -->
<g id="edge5" class="edge"><title>CollisionSystem&#45;&gt;ITakesDamage</title>
<path fill="none" stroke="black" d="M310.423,-216.765C297.981,-207.4 282.158,-195.49 268.569,-185.261"/>
<polygon fill="black" stroke="black" points="270.54,-182.365 260.446,-179.147 266.331,-187.957 270.54,-182.365"/>
</g>
<!-- CollisionSystem&#45;&gt;ITakesStatusEffect -->
<g id="edge7" class="edge"><title>CollisionSystem&#45;&gt;ITakesStatusEffect</title>
<path fill="none" stroke="black" d="M332.812,-215.92C332.832,-196.37 329.948,-164.423 312.993,-144 297.838,-125.746 275.331,-113.678 253.455,-105.745"/>
<polygon fill="black" stroke="black" points="254.405,-102.371 243.811,-102.487 252.165,-109.003 254.405,-102.371"/>
</g>
<!-- IDealsDamage -->
<g id="node10" class="node"><title>IDealsDamage</title>
<ellipse fill="none" stroke="black" stroke-dasharray="5,2" cx="422.993" cy="-162" rx="63.0888" ry="18"/>
<text text-anchor="middle" x="422.993" y="-158.3" font-family="Times New Roman,serif" font-size="14.00">IDealsDamage</text>
</g>
<!-- CollisionSystem&#45;&gt;IDealsDamage -->
<g id="edge4" class="edge"><title>CollisionSystem&#45;&gt;IDealsDamage</title>
<path fill="none" stroke="black" d="M353.099,-216.765C365.274,-207.4 380.756,-195.49 394.054,-185.261"/>
<polygon fill="black" stroke="black" points="396.209,-188.019 402.002,-179.147 391.941,-182.47 396.209,-188.019"/>
</g>
<!-- ICollisionSystemParticipatorWrapper -->
<g id="node7" class="node"><title>ICollisionSystemParticipatorWrapper</title>
<ellipse fill="none" stroke="black" stroke-dasharray="5,2" cx="599.993" cy="-90" rx="146.774" ry="18"/>
<text text-anchor="middle" x="599.993" y="-86.3" font-family="Times New Roman,serif" font-size="14.00">ICollisionSystemParticipatorWrapper</text>
</g>
<!-- ICollisionSystemParticipator&#45;&gt;ICollisionSystemParticipatorWrapper -->
<g id="edge9" class="edge"><title>ICollisionSystemParticipator&#45;&gt;ICollisionSystemParticipatorWrapper</title>
<path fill="none" stroke="black" stroke-dasharray="5,2" d="M607.758,-144.055C604.957,-136.346 602.319,-127.027 600.424,-118.364"/>
<polygon fill="black" stroke="black" points="603.815,-117.454 598.522,-108.275 596.936,-118.751 603.815,-117.454"/>
</g>
<!-- ISystemParticipator -->
<g id="node12" class="node"><title>ISystemParticipator</title>
<ellipse fill="none" stroke="black" stroke-dasharray="5,2" cx="846.993" cy="-90" rx="82.5854" ry="18"/>
<text text-anchor="middle" x="846.993" y="-86.3" font-family="Times New Roman,serif" font-size="14.00">ISystemParticipator</text>
</g>
<!-- ICollisionSystemParticipator&#45;&gt;ISystemParticipator -->
<g id="edge8" class="edge"><title>ICollisionSystemParticipator&#45;&gt;ISystemParticipator</title>
<path fill="none" stroke="black" stroke-dasharray="5,2" d="M667.965,-145.725C704.328,-134.609 753.583,-119.553 791.225,-108.047"/>
<polygon fill="black" stroke="black" points="792.481,-111.323 801.021,-105.053 790.435,-104.629 792.481,-111.323"/>
</g>
<!-- BaseCollisionSystemParticipator -->
<g id="node5" class="node"><title>BaseCollisionSystemParticipator</title>
<ellipse fill="none" stroke="black" cx="731.993" cy="-234" rx="129.177" ry="18"/>
<text text-anchor="middle" x="731.993" y="-230.3" font-family="Times New Roman,serif" font-size="14.00">BaseCollisionSystemParticipator</text>
</g>
<!-- BaseCollisionSystemParticipator&#45;&gt;ICollisionSystemParticipator -->
<g id="edge11" class="edge"><title>BaseCollisionSystemParticipator&#45;&gt;ICollisionSystemParticipator</title>
<path fill="none" stroke="black" stroke-dasharray="5,2" d="M704.687,-216.233C689.459,-206.882 670.307,-195.123 653.88,-185.036"/>
<polygon fill="black" stroke="black" points="655.429,-181.88 645.076,-179.63 651.766,-187.845 655.429,-181.88"/>
</g>
<!-- SystemParticipator -->
<g id="node8" class="node"><title>SystemParticipator</title>
<ellipse fill="none" stroke="black" cx="846.993" cy="-162" rx="79.0865" ry="18"/>
<text text-anchor="middle" x="846.993" y="-158.3" font-family="Times New Roman,serif" font-size="14.00">SystemParticipator</text>
</g>
<!-- BaseCollisionSystemParticipator&#45;&gt;SystemParticipator -->
<g id="edge10" class="edge"><title>BaseCollisionSystemParticipator&#45;&gt;SystemParticipator</title>
<path fill="none" stroke="black" stroke-width="2" d="M759.538,-216.233C775.125,-206.746 794.785,-194.779 811.516,-184.595"/>
<polygon fill="black" stroke="black" stroke-width="2" points="813.742,-187.337 820.464,-179.148 810.102,-181.358 813.742,-187.337"/>
</g>
<!-- ConvertToInterface -->
<g id="node6" class="node"><title>ConvertToInterface</title>
<ellipse fill="#e5e5e5" stroke="black" cx="1029.99" cy="-90" rx="82.5854" ry="18"/>
<text text-anchor="middle" x="1029.99" y="-86.3" font-family="Times New Roman,serif" font-size="14.00">ConvertToInterface</text>
</g>
<!-- ICollisionSystemParticipatorWrapper&#45;&gt;ICollisionSystemParticipator -->
<g id="edge12" class="edge"><title>ICollisionSystemParticipatorWrapper&#45;&gt;ICollisionSystemParticipator</title>
<path fill="none" stroke="black" d="M610.286,-108.104C613.069,-115.791 615.687,-125.054 617.568,-133.665"/>
<polygon fill="black" stroke="black" points="614.167,-134.518 619.459,-143.697 621.046,-133.221 614.167,-134.518"/>
</g>
<!-- SystemParticipator&#45;&gt;ConvertToInterface -->
<g id="edge14" class="edge"><title>SystemParticipator&#45;&gt;ConvertToInterface</title>
<path fill="none" stroke="black" d="M885.803,-146.155C913.731,-135.472 951.594,-120.989 981.512,-109.545"/>
<polygon fill="black" stroke="black" points="982.835,-112.786 990.924,-105.944 980.334,-106.248 982.835,-112.786"/>
</g>
<!-- SystemParticipator&#45;&gt;ISystemParticipator -->
<g id="edge13" class="edge"><title>SystemParticipator&#45;&gt;ISystemParticipator</title>
<path fill="none" stroke="black" stroke-dasharray="5,2" d="M846.993,-143.697C846.993,-135.983 846.993,-126.712 846.993,-118.112"/>
<polygon fill="black" stroke="black" points="850.493,-118.104 846.993,-108.104 843.493,-118.104 850.493,-118.104"/>
</g>
<!-- ITakesStatusEffect&#45;&gt;IStatusEffect -->
<g id="edge15" class="edge"><title>ITakesStatusEffect&#45;&gt;IStatusEffect</title>
<path fill="none" stroke="black" d="M172.921,-72.055C166.421,-63.6287 158.437,-53.2798 151.253,-43.9663"/>
<polygon fill="black" stroke="black" points="153.824,-41.569 144.945,-35.789 148.281,-45.8447 153.824,-41.569"/>
</g>
</g>
</svg>
