<?xml version="1.0" encoding="UTF-8" standalone="no"?>
<!DOCTYPE svg PUBLIC "-//W3C//DTD SVG 1.1//EN"
 "http://www.w3.org/Graphics/SVG/1.1/DTD/svg11.dtd">
<!-- Generated by graphviz version 2.38.0 (20140413.2041)
 -->
<!-- Title: %3 Pages: 1 -->
<svg width="956pt" height="260pt"
 viewBox="0.00 0.00 955.54 260.00" xmlns="http://www.w3.org/2000/svg" xmlns:xlink="http://www.w3.org/1999/xlink">
<g id="graph0" class="graph" transform="scale(1 1) rotate(0) translate(4 256)">
<title>%3</title>
<polygon fill="white" stroke="none" points="-4,4 -4,-256 951.536,-256 951.536,4 -4,4"/>
<!-- IStatusEffect -->
<g id="node1" class="node"><title>IStatusEffect</title>
<ellipse fill="none" stroke="black" stroke-dasharray="5,2" cx="815.543" cy="-18" rx="57.6901" ry="18"/>
<text text-anchor="middle" x="815.543" y="-14.3" font-family="Times New Roman,serif" font-size="14.00">IStatusEffect</text>
</g>
<!-- CollisionSystem -->
<g id="node2" class="node"><title>CollisionSystem</title>
<ellipse fill="none" stroke="black" cx="615.543" cy="-234" rx="69.5877" ry="18"/>
<text text-anchor="middle" x="615.543" y="-230.3" font-family="Times New Roman,serif" font-size="14.00">CollisionSystem</text>
</g>
<!-- ICollisionSystemParticipator -->
<g id="node4" class="node"><title>ICollisionSystemParticipator</title>
<ellipse fill="none" stroke="black" stroke-dasharray="5,2" cx="329.543" cy="-162" rx="114.28" ry="18"/>
<text text-anchor="middle" x="329.543" y="-158.3" font-family="Times New Roman,serif" font-size="14.00">ICollisionSystemParticipator</text>
</g>
<!-- CollisionSystem&#45;&gt;ICollisionSystemParticipator -->
<g id="edge1" class="edge"><title>CollisionSystem&#45;&gt;ICollisionSystemParticipator</title>
<path fill="none" stroke="black" d="M566.702,-221.046C520.389,-209.711 450.355,-192.57 398.387,-179.85"/>
<polygon fill="black" stroke="black" points="399.12,-176.426 388.575,-177.448 397.456,-183.226 399.12,-176.426"/>
</g>
<!-- IDealsDamage -->
<g id="node5" class="node"><title>IDealsDamage</title>
<ellipse fill="none" stroke="black" stroke-dasharray="5,2" cx="524.543" cy="-162" rx="63.0888" ry="18"/>
<text text-anchor="middle" x="524.543" y="-158.3" font-family="Times New Roman,serif" font-size="14.00">IDealsDamage</text>
</g>
<!-- CollisionSystem&#45;&gt;IDealsDamage -->
<g id="edge2" class="edge"><title>CollisionSystem&#45;&gt;IDealsDamage</title>
<path fill="none" stroke="black" d="M594.437,-216.765C582.262,-207.4 566.78,-195.49 553.482,-185.261"/>
<polygon fill="black" stroke="black" points="555.594,-182.47 545.534,-179.147 551.326,-188.019 555.594,-182.47"/>
</g>
<!-- ITakesStatusEffect -->
<g id="node7" class="node"><title>ITakesStatusEffect</title>
<ellipse fill="none" stroke="black" stroke-dasharray="5,2" cx="761.543" cy="-90" rx="79.8859" ry="18"/>
<text text-anchor="middle" x="761.543" y="-86.3" font-family="Times New Roman,serif" font-size="14.00">ITakesStatusEffect</text>
</g>
<!-- CollisionSystem&#45;&gt;ITakesStatusEffect -->
<g id="edge5" class="edge"><title>CollisionSystem&#45;&gt;ITakesStatusEffect</title>
<path fill="none" stroke="black" d="M614.724,-215.92C614.704,-196.37 617.588,-164.423 634.543,-144 649.698,-125.746 672.205,-113.678 694.081,-105.745"/>
<polygon fill="black" stroke="black" points="695.37,-109.003 703.725,-102.487 693.131,-102.371 695.37,-109.003"/>
</g>
<!-- ITakesDamage -->
<g id="node8" class="node"><title>ITakesDamage</title>
<ellipse fill="none" stroke="black" stroke-dasharray="5,2" cx="708.543" cy="-162" rx="64.9885" ry="18"/>
<text text-anchor="middle" x="708.543" y="-158.3" font-family="Times New Roman,serif" font-size="14.00">ITakesDamage</text>
</g>
<!-- CollisionSystem&#45;&gt;ITakesDamage -->
<g id="edge3" class="edge"><title>CollisionSystem&#45;&gt;ITakesDamage</title>
<path fill="none" stroke="black" d="M637.113,-216.765C649.555,-207.4 665.377,-195.49 678.967,-185.261"/>
<polygon fill="black" stroke="black" points="681.205,-187.957 687.09,-179.147 676.995,-182.365 681.205,-187.957"/>
</g>
<!-- IDealsStatusEffect -->
<g id="node9" class="node"><title>IDealsStatusEffect</title>
<ellipse fill="none" stroke="black" stroke-dasharray="5,2" cx="869.543" cy="-162" rx="77.9862" ry="18"/>
<text text-anchor="middle" x="869.543" y="-158.3" font-family="Times New Roman,serif" font-size="14.00">IDealsStatusEffect</text>
</g>
<!-- CollisionSystem&#45;&gt;IDealsStatusEffect -->
<g id="edge4" class="edge"><title>CollisionSystem&#45;&gt;IDealsStatusEffect</title>
<path fill="none" stroke="black" d="M661.246,-220.405C703.428,-208.78 766.251,-191.466 811.869,-178.894"/>
<polygon fill="black" stroke="black" points="812.907,-182.239 821.617,-176.208 811.047,-175.49 812.907,-182.239"/>
</g>
<!-- ISystemParticipator -->
<g id="node3" class="node"><title>ISystemParticipator</title>
<ellipse fill="none" stroke="black" stroke-dasharray="5,2" cx="82.5427" cy="-90" rx="82.5854" ry="18"/>
<text text-anchor="middle" x="82.5427" y="-86.3" font-family="Times New Roman,serif" font-size="14.00">ISystemParticipator</text>
</g>
<!-- ICollisionSystemParticipator&#45;&gt;ISystemParticipator -->
<g id="edge6" class="edge"><title>ICollisionSystemParticipator&#45;&gt;ISystemParticipator</title>
<path fill="none" stroke="black" stroke-dasharray="5,2" d="M276.555,-145.983C236.53,-134.64 181.644,-119.085 140.462,-107.415"/>
<polygon fill="black" stroke="black" points="141.412,-104.046 130.837,-104.687 139.504,-110.781 141.412,-104.046"/>
</g>
<!-- ICollisionSystemParticipatorWrapper -->
<g id="node6" class="node"><title>ICollisionSystemParticipatorWrapper</title>
<ellipse fill="none" stroke="black" stroke-dasharray="5,2" cx="329.543" cy="-90" rx="146.774" ry="18"/>
<text text-anchor="middle" x="329.543" y="-86.3" font-family="Times New Roman,serif" font-size="14.00">ICollisionSystemParticipatorWrapper</text>
</g>
<!-- ICollisionSystemParticipator&#45;&gt;ICollisionSystemParticipatorWrapper -->
<g id="edge7" class="edge"><title>ICollisionSystemParticipator&#45;&gt;ICollisionSystemParticipatorWrapper</title>
<path fill="none" stroke="black" stroke-dasharray="5,2" d="M323.627,-143.697C322.831,-135.983 322.605,-126.712 322.947,-118.112"/>
<polygon fill="black" stroke="black" points="326.441,-118.324 323.648,-108.104 319.458,-117.836 326.441,-118.324"/>
</g>
<!-- ICollisionSystemParticipatorWrapper&#45;&gt;ICollisionSystemParticipator -->
<g id="edge8" class="edge"><title>ICollisionSystemParticipatorWrapper&#45;&gt;ICollisionSystemParticipator</title>
<path fill="none" stroke="black" d="M335.438,-108.104C336.243,-115.791 336.48,-125.054 336.147,-133.665"/>
<polygon fill="black" stroke="black" points="332.651,-133.48 335.458,-143.697 339.635,-133.96 332.651,-133.48"/>
</g>
<!-- ITakesStatusEffect&#45;&gt;IStatusEffect -->
<g id="edge9" class="edge"><title>ITakesStatusEffect&#45;&gt;IStatusEffect</title>
<path fill="none" stroke="black" d="M774.615,-72.055C781.115,-63.6287 789.098,-53.2798 796.283,-43.9663"/>
<polygon fill="black" stroke="black" points="799.254,-45.8447 802.591,-35.789 793.712,-41.569 799.254,-45.8447"/>
</g>
<!-- IDealsStatusEffect&#45;&gt;IStatusEffect -->
<g id="edge10" class="edge"><title>IDealsStatusEffect&#45;&gt;IStatusEffect</title>
<path fill="none" stroke="black" d="M867.784,-143.7C865.48,-125.338 860.5,-95.7505 850.543,-72 846.493,-62.3393 840.628,-52.55 834.855,-44.0579"/>
<polygon fill="black" stroke="black" points="837.592,-41.8671 828.95,-35.7376 831.883,-45.9183 837.592,-41.8671"/>
</g>
<!-- IDealsStatusEffect&#45;&gt;ITakesStatusEffect -->
<g id="edge11" class="edge"><title>IDealsStatusEffect&#45;&gt;ITakesStatusEffect</title>
<path fill="none" stroke="black" d="M844.494,-144.765C829.772,-135.223 810.975,-123.04 794.998,-112.684"/>
<polygon fill="black" stroke="black" points="796.751,-109.649 786.456,-107.147 792.944,-115.523 796.751,-109.649"/>
</g>
</g>
</svg>
