<?xml version="1.0" encoding="UTF-8" standalone="no"?>
<!DOCTYPE svg PUBLIC "-//W3C//DTD SVG 1.1//EN"
 "http://www.w3.org/Graphics/SVG/1.1/DTD/svg11.dtd">
<!-- Generated by graphviz version 2.38.0 (20140413.2041)
 -->
<!-- Title: %3 Pages: 1 -->
<svg width="880pt" height="260pt"
 viewBox="0.00 0.00 879.88 260.00" xmlns="http://www.w3.org/2000/svg" xmlns:xlink="http://www.w3.org/1999/xlink">
<g id="graph0" class="graph" transform="scale(1 1) rotate(0) translate(4 256)">
<title>%3</title>
<polygon fill="white" stroke="none" points="-4,4 -4,-256 875.881,-256 875.881,4 -4,4"/>
<!-- IStatusEffect -->
<g id="node1" class="node"><title>IStatusEffect</title>
<ellipse fill="none" stroke="black" stroke-dasharray="5,2" cx="243.994" cy="-18" rx="57.6901" ry="18"/>
<text text-anchor="middle" x="243.994" y="-14.3" font-family="Times New Roman,serif" font-size="14.00">IStatusEffect</text>
</g>
<!-- ITakesDamage -->
<g id="node2" class="node"><title>ITakesDamage</title>
<ellipse fill="none" stroke="black" stroke-dasharray="5,2" cx="64.9942" cy="-162" rx="64.9885" ry="18"/>
<text text-anchor="middle" x="64.9942" y="-158.3" font-family="Times New Roman,serif" font-size="14.00">ITakesDamage</text>
</g>
<!-- IDealsStatusEffect -->
<g id="node3" class="node"><title>IDealsStatusEffect</title>
<ellipse fill="none" stroke="black" stroke-dasharray="5,2" cx="225.994" cy="-162" rx="77.9862" ry="18"/>
<text text-anchor="middle" x="225.994" y="-158.3" font-family="Times New Roman,serif" font-size="14.00">IDealsStatusEffect</text>
</g>
<!-- IDealsStatusEffect&#45;&gt;IStatusEffect -->
<g id="edge1" class="edge"><title>IDealsStatusEffect&#45;&gt;IStatusEffect</title>
<path fill="none" stroke="black" d="M217.973,-144.02C210.527,-125.924 201.617,-96.5571 208.994,-72 211.961,-62.1243 217.43,-52.3913 223.179,-44.0146"/>
<polygon fill="black" stroke="black" points="226.09,-45.9625 229.176,-35.8271 220.443,-41.8258 226.09,-45.9625"/>
</g>
<!-- ITakesStatusEffect -->
<g id="node9" class="node"><title>ITakesStatusEffect</title>
<ellipse fill="none" stroke="black" stroke-dasharray="5,2" cx="297.994" cy="-90" rx="79.8859" ry="18"/>
<text text-anchor="middle" x="297.994" y="-86.3" font-family="Times New Roman,serif" font-size="14.00">ITakesStatusEffect</text>
</g>
<!-- IDealsStatusEffect&#45;&gt;ITakesStatusEffect -->
<g id="edge2" class="edge"><title>IDealsStatusEffect&#45;&gt;ITakesStatusEffect</title>
<path fill="none" stroke="black" d="M243.057,-144.411C252.071,-135.648 263.298,-124.732 273.25,-115.057"/>
<polygon fill="black" stroke="black" points="275.823,-117.437 280.554,-107.956 270.944,-112.418 275.823,-117.437"/>
</g>
<!-- IDealsDamage -->
<g id="node4" class="node"><title>IDealsDamage</title>
<ellipse fill="none" stroke="black" stroke-dasharray="5,2" cx="384.994" cy="-162" rx="63.0888" ry="18"/>
<text text-anchor="middle" x="384.994" y="-158.3" font-family="Times New Roman,serif" font-size="14.00">IDealsDamage</text>
</g>
<!-- ICollisionSystemParticipator -->
<g id="node5" class="node"><title>ICollisionSystemParticipator</title>
<ellipse fill="none" stroke="black" stroke-dasharray="5,2" cx="688.994" cy="-162" rx="114.28" ry="18"/>
<text text-anchor="middle" x="688.994" y="-158.3" font-family="Times New Roman,serif" font-size="14.00">ICollisionSystemParticipator</text>
</g>
<!-- ISystemParticipator -->
<g id="node7" class="node"><title>ISystemParticipator</title>
<ellipse fill="none" stroke="black" stroke-dasharray="5,2" cx="477.994" cy="-90" rx="82.5854" ry="18"/>
<text text-anchor="middle" x="477.994" y="-86.3" font-family="Times New Roman,serif" font-size="14.00">ISystemParticipator</text>
</g>
<!-- ICollisionSystemParticipator&#45;&gt;ISystemParticipator -->
<g id="edge3" class="edge"><title>ICollisionSystemParticipator&#45;&gt;ISystemParticipator</title>
<path fill="none" stroke="black" stroke-dasharray="5,2" d="M642.428,-145.552C609.622,-134.668 565.622,-120.071 531.392,-108.715"/>
<polygon fill="black" stroke="black" points="532.155,-105.28 521.561,-105.453 529.95,-111.924 532.155,-105.28"/>
</g>
<!-- ICollisionSystemParticipatorWrapper -->
<g id="node8" class="node"><title>ICollisionSystemParticipatorWrapper</title>
<ellipse fill="none" stroke="black" stroke-dasharray="5,2" cx="724.994" cy="-90" rx="146.774" ry="18"/>
<text text-anchor="middle" x="724.994" y="-86.3" font-family="Times New Roman,serif" font-size="14.00">ICollisionSystemParticipatorWrapper</text>
</g>
<!-- ICollisionSystemParticipator&#45;&gt;ICollisionSystemParticipatorWrapper -->
<g id="edge4" class="edge"><title>ICollisionSystemParticipator&#45;&gt;ICollisionSystemParticipatorWrapper</title>
<path fill="none" stroke="black" stroke-dasharray="5,2" d="M691.977,-143.697C695.288,-135.644 700.092,-125.894 705.085,-116.982"/>
<polygon fill="black" stroke="black" points="708.253,-118.499 710.303,-108.104 702.218,-114.952 708.253,-118.499"/>
</g>
<!-- CollisionSystem -->
<g id="node6" class="node"><title>CollisionSystem</title>
<ellipse fill="#e5e5e5" stroke="black" cx="384.994" cy="-234" rx="69.5877" ry="18"/>
<text text-anchor="middle" x="384.994" y="-230.3" font-family="Times New Roman,serif" font-size="14.00">CollisionSystem</text>
</g>
<!-- CollisionSystem&#45;&gt;ITakesDamage -->
<g id="edge7" class="edge"><title>CollisionSystem&#45;&gt;ITakesDamage</title>
<path fill="none" stroke="black" d="M332.641,-221.936C282.809,-211.354 205.733,-194.855 138.994,-180 133.767,-178.837 128.335,-177.614 122.896,-176.381"/>
<polygon fill="black" stroke="black" points="123.665,-172.967 113.138,-174.16 122.112,-179.792 123.665,-172.967"/>
</g>
<!-- CollisionSystem&#45;&gt;IDealsStatusEffect -->
<g id="edge8" class="edge"><title>CollisionSystem&#45;&gt;IDealsStatusEffect</title>
<path fill="none" stroke="black" d="M351.274,-218.155C327.486,-207.682 295.403,-193.557 269.659,-182.224"/>
<polygon fill="black" stroke="black" points="271.051,-179.012 260.489,-178.186 268.231,-185.419 271.051,-179.012"/>
</g>
<!-- CollisionSystem&#45;&gt;IDealsDamage -->
<g id="edge6" class="edge"><title>CollisionSystem&#45;&gt;IDealsDamage</title>
<path fill="none" stroke="black" d="M384.994,-215.697C384.994,-207.983 384.994,-198.712 384.994,-190.112"/>
<polygon fill="black" stroke="black" points="388.494,-190.104 384.994,-180.104 381.494,-190.104 388.494,-190.104"/>
</g>
<!-- CollisionSystem&#45;&gt;ICollisionSystemParticipator -->
<g id="edge5" class="edge"><title>CollisionSystem&#45;&gt;ICollisionSystemParticipator</title>
<path fill="none" stroke="black" d="M435.194,-221.441C484.909,-209.993 561.515,-192.354 617.564,-179.448"/>
<polygon fill="black" stroke="black" points="618.467,-182.831 627.427,-177.177 616.896,-176.01 618.467,-182.831"/>
</g>
<!-- CollisionSystem&#45;&gt;ITakesStatusEffect -->
<g id="edge9" class="edge"><title>CollisionSystem&#45;&gt;ITakesStatusEffect</title>
<path fill="none" stroke="black" d="M417.624,-217.872C432.516,-209.095 448.66,-196.483 456.994,-180 464.214,-165.721 466.35,-156.98 456.994,-144 445.71,-128.344 403.432,-114.683 365.308,-105.153"/>
<polygon fill="black" stroke="black" points="365.756,-101.66 355.212,-102.699 364.102,-108.462 365.756,-101.66"/>
</g>
<!-- ICollisionSystemParticipatorWrapper&#45;&gt;ICollisionSystemParticipator -->
<g id="edge10" class="edge"><title>ICollisionSystemParticipatorWrapper&#45;&gt;ICollisionSystemParticipator</title>
<path fill="none" stroke="black" d="M722.023,-108.275C718.661,-116.456 713.756,-126.392 708.676,-135.424"/>
<polygon fill="black" stroke="black" points="705.651,-133.663 703.587,-144.055 711.681,-137.218 705.651,-133.663"/>
</g>
<!-- ITakesStatusEffect&#45;&gt;IStatusEffect -->
<g id="edge11" class="edge"><title>ITakesStatusEffect&#45;&gt;IStatusEffect</title>
<path fill="none" stroke="black" d="M284.922,-72.055C278.422,-63.6287 270.439,-53.2798 263.254,-43.9663"/>
<polygon fill="black" stroke="black" points="265.825,-41.569 256.946,-35.789 260.283,-45.8447 265.825,-41.569"/>
</g>
</g>
</svg>
