<?xml version="1.0" encoding="UTF-8" standalone="no"?>
<!DOCTYPE svg PUBLIC "-//W3C//DTD SVG 1.1//EN"
 "http://www.w3.org/Graphics/SVG/1.1/DTD/svg11.dtd">
<!-- Generated by graphviz version 2.38.0 (20140413.2041)
 -->
<!-- Title: %3 Pages: 1 -->
<svg width="808pt" height="260pt"
 viewBox="0.00 0.00 807.54 260.00" xmlns="http://www.w3.org/2000/svg" xmlns:xlink="http://www.w3.org/1999/xlink">
<g id="graph0" class="graph" transform="scale(1 1) rotate(0) translate(4 256)">
<title>%3</title>
<polygon fill="white" stroke="none" points="-4,4 -4,-256 803.536,-256 803.536,4 -4,4"/>
<!-- ITakesDamage -->
<g id="node1" class="node"><title>ITakesDamage</title>
<ellipse fill="none" stroke="black" stroke-dasharray="5,2" cx="132.543" cy="-162" rx="64.9885" ry="18"/>
<text text-anchor="middle" x="132.543" y="-158.3" font-family="Times New Roman,serif" font-size="14.00">ITakesDamage</text>
</g>
<!-- CollisionSystem -->
<g id="node2" class="node"><title>CollisionSystem</title>
<ellipse fill="#e5e5e5" stroke="black" cx="471.543" cy="-234" rx="69.5877" ry="18"/>
<text text-anchor="middle" x="471.543" y="-230.3" font-family="Times New Roman,serif" font-size="14.00">CollisionSystem</text>
</g>
<!-- CollisionSystem&#45;&gt;ITakesDamage -->
<g id="edge3" class="edge"><title>CollisionSystem&#45;&gt;ITakesDamage</title>
<path fill="none" stroke="black" d="M417.397,-222.638C363.774,-212.266 279.364,-195.643 206.543,-180 201.307,-178.875 195.869,-177.679 190.426,-176.463"/>
<polygon fill="black" stroke="black" points="191.189,-173.047 180.664,-174.263 189.65,-179.876 191.189,-173.047"/>
</g>
<!-- ITakesStatusEffect -->
<g id="node3" class="node"><title>ITakesStatusEffect</title>
<ellipse fill="none" stroke="black" stroke-dasharray="5,2" cx="613.543" cy="-90" rx="79.8859" ry="18"/>
<text text-anchor="middle" x="613.543" y="-86.3" font-family="Times New Roman,serif" font-size="14.00">ITakesStatusEffect</text>
</g>
<!-- CollisionSystem&#45;&gt;ITakesStatusEffect -->
<g id="edge5" class="edge"><title>CollisionSystem&#45;&gt;ITakesStatusEffect</title>
<path fill="none" stroke="black" d="M470.766,-215.954C470.785,-196.436 473.706,-164.52 490.543,-144 505.124,-126.23 526.786,-114.28 547.886,-106.306"/>
<polygon fill="black" stroke="black" points="549.244,-109.539 557.513,-102.915 546.919,-102.936 549.244,-109.539"/>
</g>
<!-- ICollisionSystemParticipator -->
<g id="node4" class="node"><title>ICollisionSystemParticipator</title>
<ellipse fill="none" stroke="black" stroke-dasharray="5,2" cx="329.543" cy="-162" rx="114.28" ry="18"/>
<text text-anchor="middle" x="329.543" y="-158.3" font-family="Times New Roman,serif" font-size="14.00">ICollisionSystemParticipator</text>
</g>
<!-- CollisionSystem&#45;&gt;ICollisionSystemParticipator -->
<g id="edge1" class="edge"><title>CollisionSystem&#45;&gt;ICollisionSystemParticipator</title>
<path fill="none" stroke="black" d="M440.731,-217.811C420.532,-207.854 393.863,-194.707 371.708,-183.786"/>
<polygon fill="black" stroke="black" points="373.038,-180.539 362.521,-179.257 369.942,-186.818 373.038,-180.539"/>
</g>
<!-- IDealsDamage -->
<g id="node6" class="node"><title>IDealsDamage</title>
<ellipse fill="none" stroke="black" stroke-dasharray="5,2" cx="562.543" cy="-162" rx="63.0888" ry="18"/>
<text text-anchor="middle" x="562.543" y="-158.3" font-family="Times New Roman,serif" font-size="14.00">IDealsDamage</text>
</g>
<!-- CollisionSystem&#45;&gt;IDealsDamage -->
<g id="edge2" class="edge"><title>CollisionSystem&#45;&gt;IDealsDamage</title>
<path fill="none" stroke="black" d="M492.649,-216.765C504.823,-207.4 520.306,-195.49 533.603,-185.261"/>
<polygon fill="black" stroke="black" points="535.759,-188.019 541.551,-179.147 531.491,-182.47 535.759,-188.019"/>
</g>
<!-- IDealsStatusEffect -->
<g id="node8" class="node"><title>IDealsStatusEffect</title>
<ellipse fill="none" stroke="black" stroke-dasharray="5,2" cx="721.543" cy="-162" rx="77.9862" ry="18"/>
<text text-anchor="middle" x="721.543" y="-158.3" font-family="Times New Roman,serif" font-size="14.00">IDealsStatusEffect</text>
</g>
<!-- CollisionSystem&#45;&gt;IDealsStatusEffect -->
<g id="edge4" class="edge"><title>CollisionSystem&#45;&gt;IDealsStatusEffect</title>
<path fill="none" stroke="black" d="M516.816,-220.324C558.154,-208.749 619.456,-191.584 664.203,-179.055"/>
<polygon fill="black" stroke="black" points="665.37,-182.363 674.055,-176.296 663.482,-175.622 665.37,-182.363"/>
</g>
<!-- IStatusEffect -->
<g id="node5" class="node"><title>IStatusEffect</title>
<ellipse fill="none" stroke="black" stroke-dasharray="5,2" cx="667.543" cy="-18" rx="57.6901" ry="18"/>
<text text-anchor="middle" x="667.543" y="-14.3" font-family="Times New Roman,serif" font-size="14.00">IStatusEffect</text>
</g>
<!-- ITakesStatusEffect&#45;&gt;IStatusEffect -->
<g id="edge6" class="edge"><title>ITakesStatusEffect&#45;&gt;IStatusEffect</title>
<path fill="none" stroke="black" d="M626.615,-72.055C633.115,-63.6287 641.098,-53.2798 648.283,-43.9663"/>
<polygon fill="black" stroke="black" points="651.254,-45.8447 654.591,-35.789 645.712,-41.569 651.254,-45.8447"/>
</g>
<!-- ICollisionSystemParticipatorWrapper -->
<g id="node7" class="node"><title>ICollisionSystemParticipatorWrapper</title>
<ellipse fill="none" stroke="black" stroke-dasharray="5,2" cx="329.543" cy="-90" rx="146.774" ry="18"/>
<text text-anchor="middle" x="329.543" y="-86.3" font-family="Times New Roman,serif" font-size="14.00">ICollisionSystemParticipatorWrapper</text>
</g>
<!-- ICollisionSystemParticipator&#45;&gt;ICollisionSystemParticipatorWrapper -->
<g id="edge8" class="edge"><title>ICollisionSystemParticipator&#45;&gt;ICollisionSystemParticipatorWrapper</title>
<path fill="none" stroke="black" stroke-dasharray="5,2" d="M323.627,-143.697C322.831,-135.983 322.605,-126.712 322.947,-118.112"/>
<polygon fill="black" stroke="black" points="326.441,-118.324 323.648,-108.104 319.458,-117.836 326.441,-118.324"/>
</g>
<!-- ISystemParticipator -->
<g id="node9" class="node"><title>ISystemParticipator</title>
<ellipse fill="none" stroke="black" stroke-dasharray="5,2" cx="82.5427" cy="-90" rx="82.5854" ry="18"/>
<text text-anchor="middle" x="82.5427" y="-86.3" font-family="Times New Roman,serif" font-size="14.00">ISystemParticipator</text>
</g>
<!-- ICollisionSystemParticipator&#45;&gt;ISystemParticipator -->
<g id="edge7" class="edge"><title>ICollisionSystemParticipator&#45;&gt;ISystemParticipator</title>
<path fill="none" stroke="black" stroke-dasharray="5,2" d="M276.555,-145.983C236.53,-134.64 181.644,-119.085 140.462,-107.415"/>
<polygon fill="black" stroke="black" points="141.412,-104.046 130.837,-104.687 139.504,-110.781 141.412,-104.046"/>
</g>
<!-- ICollisionSystemParticipatorWrapper&#45;&gt;ICollisionSystemParticipator -->
<g id="edge9" class="edge"><title>ICollisionSystemParticipatorWrapper&#45;&gt;ICollisionSystemParticipator</title>
<path fill="none" stroke="black" d="M335.438,-108.104C336.243,-115.791 336.48,-125.054 336.147,-133.665"/>
<polygon fill="black" stroke="black" points="332.651,-133.48 335.458,-143.697 339.635,-133.96 332.651,-133.48"/>
</g>
<!-- IDealsStatusEffect&#45;&gt;ITakesStatusEffect -->
<g id="edge11" class="edge"><title>IDealsStatusEffect&#45;&gt;ITakesStatusEffect</title>
<path fill="none" stroke="black" d="M696.494,-144.765C681.772,-135.223 662.975,-123.04 646.998,-112.684"/>
<polygon fill="black" stroke="black" points="648.751,-109.649 638.456,-107.147 644.944,-115.523 648.751,-109.649"/>
</g>
<!-- IDealsStatusEffect&#45;&gt;IStatusEffect -->
<g id="edge10" class="edge"><title>IDealsStatusEffect&#45;&gt;IStatusEffect</title>
<path fill="none" stroke="black" d="M719.784,-143.7C717.48,-125.338 712.5,-95.7505 702.543,-72 698.493,-62.3393 692.628,-52.55 686.855,-44.0579"/>
<polygon fill="black" stroke="black" points="689.592,-41.8671 680.95,-35.7376 683.883,-45.9183 689.592,-41.8671"/>
</g>
</g>
</svg>
