<?xml version="1.0" encoding="UTF-8" standalone="no"?>
<!DOCTYPE svg PUBLIC "-//W3C//DTD SVG 1.1//EN"
 "http://www.w3.org/Graphics/SVG/1.1/DTD/svg11.dtd">
<!-- Generated by graphviz version 2.38.0 (20140413.2041)
 -->
<!-- Title: %3 Pages: 1 -->
<svg width="1121pt" height="260pt"
 viewBox="0.00 0.00 1120.59 260.00" xmlns="http://www.w3.org/2000/svg" xmlns:xlink="http://www.w3.org/1999/xlink">
<g id="graph0" class="graph" transform="scale(1 1) rotate(0) translate(4 256)">
<title>%3</title>
<polygon fill="white" stroke="none" points="-4,4 -4,-256 1116.59,-256 1116.59,4 -4,4"/>
<!-- ISystemParticipator -->
<g id="node1" class="node"><title>ISystemParticipator</title>
<ellipse fill="none" stroke="black" stroke-dasharray="5,2" cx="847.044" cy="-90" rx="82.5854" ry="18"/>
<text text-anchor="middle" x="847.044" y="-86.3" font-family="Times New Roman,serif" font-size="14.00">ISystemParticipator</text>
</g>
<!-- CollisionSystem -->
<g id="node2" class="node"><title>CollisionSystem</title>
<ellipse fill="#e5e5e5" stroke="black" cx="328.044" cy="-234" rx="69.5877" ry="18"/>
<text text-anchor="middle" x="328.044" y="-230.3" font-family="Times New Roman,serif" font-size="14.00">CollisionSystem</text>
</g>
<!-- IDealsDamage -->
<g id="node5" class="node"><title>IDealsDamage</title>
<ellipse fill="none" stroke="black" stroke-dasharray="5,2" cx="63.0444" cy="-162" rx="63.0888" ry="18"/>
<text text-anchor="middle" x="63.0444" y="-158.3" font-family="Times New Roman,serif" font-size="14.00">IDealsDamage</text>
</g>
<!-- CollisionSystem&#45;&gt;IDealsDamage -->
<g id="edge2" class="edge"><title>CollisionSystem&#45;&gt;IDealsDamage</title>
<path fill="none" stroke="black" d="M281.278,-220.647C235.5,-208.554 165.796,-190.142 117.536,-177.394"/>
<polygon fill="black" stroke="black" points="118.141,-173.934 107.579,-174.764 116.354,-180.702 118.141,-173.934"/>
</g>
<!-- ITakesDamage -->
<g id="node6" class="node"><title>ITakesDamage</title>
<ellipse fill="none" stroke="black" stroke-dasharray="5,2" cx="421.044" cy="-162" rx="64.9885" ry="18"/>
<text text-anchor="middle" x="421.044" y="-158.3" font-family="Times New Roman,serif" font-size="14.00">ITakesDamage</text>
</g>
<!-- CollisionSystem&#45;&gt;ITakesDamage -->
<g id="edge3" class="edge"><title>CollisionSystem&#45;&gt;ITakesDamage</title>
<path fill="none" stroke="black" d="M349.614,-216.765C362.056,-207.4 377.879,-195.49 391.469,-185.261"/>
<polygon fill="black" stroke="black" points="393.707,-187.957 399.592,-179.147 389.497,-182.365 393.707,-187.957"/>
</g>
<!-- ICollisionSystemParticipator -->
<g id="node7" class="node"><title>ICollisionSystemParticipator</title>
<ellipse fill="none" stroke="black" stroke-dasharray="5,2" cx="618.044" cy="-162" rx="114.28" ry="18"/>
<text text-anchor="middle" x="618.044" y="-158.3" font-family="Times New Roman,serif" font-size="14.00">ICollisionSystemParticipator</text>
</g>
<!-- CollisionSystem&#45;&gt;ICollisionSystemParticipator -->
<g id="edge1" class="edge"><title>CollisionSystem&#45;&gt;ICollisionSystemParticipator</title>
<path fill="none" stroke="black" d="M377.239,-221.125C424.225,-209.784 495.505,-192.578 548.334,-179.827"/>
<polygon fill="black" stroke="black" points="549.407,-183.168 558.306,-177.42 547.764,-176.364 549.407,-183.168"/>
</g>
<!-- IDealsStatusEffect -->
<g id="node10" class="node"><title>IDealsStatusEffect</title>
<ellipse fill="none" stroke="black" stroke-dasharray="5,2" cx="222.044" cy="-162" rx="77.9862" ry="18"/>
<text text-anchor="middle" x="222.044" y="-158.3" font-family="Times New Roman,serif" font-size="14.00">IDealsStatusEffect</text>
</g>
<!-- CollisionSystem&#45;&gt;IDealsStatusEffect -->
<g id="edge4" class="edge"><title>CollisionSystem&#45;&gt;IDealsStatusEffect</title>
<path fill="none" stroke="black" d="M303.726,-216.941C289.286,-207.405 270.78,-195.184 255.036,-184.787"/>
<polygon fill="black" stroke="black" points="256.89,-181.817 246.617,-179.227 253.033,-187.658 256.89,-181.817"/>
</g>
<!-- ITakesStatusEffect -->
<g id="node12" class="node"><title>ITakesStatusEffect</title>
<ellipse fill="none" stroke="black" stroke-dasharray="5,2" cx="275.044" cy="-90" rx="79.8859" ry="18"/>
<text text-anchor="middle" x="275.044" y="-86.3" font-family="Times New Roman,serif" font-size="14.00">ITakesStatusEffect</text>
</g>
<!-- CollisionSystem&#45;&gt;ITakesStatusEffect -->
<g id="edge5" class="edge"><title>CollisionSystem&#45;&gt;ITakesStatusEffect</title>
<path fill="none" stroke="black" d="M326.224,-215.726C323.867,-197.385 318.844,-167.816 309.044,-144 305.093,-134.396 299.392,-124.621 293.784,-116.125"/>
<polygon fill="black" stroke="black" points="296.603,-114.048 288.051,-107.795 290.837,-118.017 296.603,-114.048"/>
</g>
<!-- ConvertToInterface -->
<g id="node3" class="node"><title>ConvertToInterface</title>
<ellipse fill="#e5e5e5" stroke="black" cx="1030.04" cy="-90" rx="82.5854" ry="18"/>
<text text-anchor="middle" x="1030.04" y="-86.3" font-family="Times New Roman,serif" font-size="14.00">ConvertToInterface</text>
</g>
<!-- BaseCollisionSystemParticipator -->
<g id="node4" class="node"><title>BaseCollisionSystemParticipator</title>
<ellipse fill="none" stroke="black" cx="732.044" cy="-234" rx="129.177" ry="18"/>
<text text-anchor="middle" x="732.044" y="-230.3" font-family="Times New Roman,serif" font-size="14.00">BaseCollisionSystemParticipator</text>
</g>
<!-- BaseCollisionSystemParticipator&#45;&gt;ICollisionSystemParticipator -->
<g id="edge7" class="edge"><title>BaseCollisionSystemParticipator&#45;&gt;ICollisionSystemParticipator</title>
<path fill="none" stroke="black" stroke-dasharray="5,2" d="M704.739,-216.233C689.51,-206.882 670.358,-195.123 653.931,-185.036"/>
<polygon fill="black" stroke="black" points="655.481,-181.88 645.127,-179.63 651.818,-187.845 655.481,-181.88"/>
</g>
<!-- SystemParticipator -->
<g id="node9" class="node"><title>SystemParticipator</title>
<ellipse fill="none" stroke="black" cx="847.044" cy="-162" rx="79.0865" ry="18"/>
<text text-anchor="middle" x="847.044" y="-158.3" font-family="Times New Roman,serif" font-size="14.00">SystemParticipator</text>
</g>
<!-- BaseCollisionSystemParticipator&#45;&gt;SystemParticipator -->
<g id="edge6" class="edge"><title>BaseCollisionSystemParticipator&#45;&gt;SystemParticipator</title>
<path fill="none" stroke="black" stroke-width="2" d="M759.59,-216.233C775.176,-206.746 794.837,-194.779 811.567,-184.595"/>
<polygon fill="black" stroke="black" stroke-width="2" points="813.793,-187.337 820.516,-179.148 810.154,-181.358 813.793,-187.337"/>
</g>
<!-- ICollisionSystemParticipator&#45;&gt;ISystemParticipator -->
<g id="edge8" class="edge"><title>ICollisionSystemParticipator&#45;&gt;ISystemParticipator</title>
<path fill="none" stroke="black" stroke-dasharray="5,2" d="M668.016,-145.725C704.38,-134.609 753.635,-119.553 791.277,-108.047"/>
<polygon fill="black" stroke="black" points="792.532,-111.323 801.072,-105.053 790.486,-104.629 792.532,-111.323"/>
</g>
<!-- ICollisionSystemParticipatorWrapper -->
<g id="node11" class="node"><title>ICollisionSystemParticipatorWrapper</title>
<ellipse fill="none" stroke="black" stroke-dasharray="5,2" cx="600.044" cy="-90" rx="146.774" ry="18"/>
<text text-anchor="middle" x="600.044" y="-86.3" font-family="Times New Roman,serif" font-size="14.00">ICollisionSystemParticipatorWrapper</text>
</g>
<!-- ICollisionSystemParticipator&#45;&gt;ICollisionSystemParticipatorWrapper -->
<g id="edge9" class="edge"><title>ICollisionSystemParticipator&#45;&gt;ICollisionSystemParticipatorWrapper</title>
<path fill="none" stroke="black" stroke-dasharray="5,2" d="M607.809,-144.055C605.008,-136.346 602.37,-127.027 600.476,-118.364"/>
<polygon fill="black" stroke="black" points="603.866,-117.454 598.574,-108.275 596.987,-118.751 603.866,-117.454"/>
</g>
<!-- IStatusEffect -->
<g id="node8" class="node"><title>IStatusEffect</title>
<ellipse fill="none" stroke="black" stroke-dasharray="5,2" cx="221.044" cy="-18" rx="57.6901" ry="18"/>
<text text-anchor="middle" x="221.044" y="-14.3" font-family="Times New Roman,serif" font-size="14.00">IStatusEffect</text>
</g>
<!-- SystemParticipator&#45;&gt;ISystemParticipator -->
<g id="edge10" class="edge"><title>SystemParticipator&#45;&gt;ISystemParticipator</title>
<path fill="none" stroke="black" stroke-dasharray="5,2" d="M847.044,-143.697C847.044,-135.983 847.044,-126.712 847.044,-118.112"/>
<polygon fill="black" stroke="black" points="850.545,-118.104 847.044,-108.104 843.545,-118.104 850.545,-118.104"/>
</g>
<!-- SystemParticipator&#45;&gt;ConvertToInterface -->
<g id="edge11" class="edge"><title>SystemParticipator&#45;&gt;ConvertToInterface</title>
<path fill="none" stroke="black" d="M885.854,-146.155C913.782,-135.472 951.645,-120.989 981.564,-109.545"/>
<polygon fill="black" stroke="black" points="982.886,-112.786 990.976,-105.944 980.385,-106.248 982.886,-112.786"/>
</g>
<!-- IDealsStatusEffect&#45;&gt;IStatusEffect -->
<g id="edge12" class="edge"><title>IDealsStatusEffect&#45;&gt;IStatusEffect</title>
<path fill="none" stroke="black" d="M206.809,-144.243C198.949,-134.445 190.164,-121.396 186.044,-108 181.342,-92.7067 181.441,-87.3236 186.044,-72 189.011,-62.1243 194.481,-52.3913 200.229,-44.0146"/>
<polygon fill="black" stroke="black" points="203.14,-45.9625 206.227,-35.8271 197.494,-41.8258 203.14,-45.9625"/>
</g>
<!-- IDealsStatusEffect&#45;&gt;ITakesStatusEffect -->
<g id="edge13" class="edge"><title>IDealsStatusEffect&#45;&gt;ITakesStatusEffect</title>
<path fill="none" stroke="black" d="M228.996,-144.055C234.538,-135.543 242.267,-125.068 249.875,-115.681"/>
<polygon fill="black" stroke="black" points="252.744,-117.707 256.471,-107.789 247.373,-113.217 252.744,-117.707"/>
</g>
<!-- ICollisionSystemParticipatorWrapper&#45;&gt;ICollisionSystemParticipator -->
<g id="edge14" class="edge"><title>ICollisionSystemParticipatorWrapper&#45;&gt;ICollisionSystemParticipator</title>
<path fill="none" stroke="black" d="M610.338,-108.104C613.12,-115.791 615.738,-125.054 617.619,-133.665"/>
<polygon fill="black" stroke="black" points="614.219,-134.518 619.511,-143.697 621.097,-133.221 614.219,-134.518"/>
</g>
<!-- ITakesStatusEffect&#45;&gt;IStatusEffect -->
<g id="edge16" class="edge"><title>ITakesStatusEffect&#45;&gt;IStatusEffect</title>
<path fill="none" stroke="black" d="M261.973,-72.055C255.472,-63.6287 247.489,-53.2798 240.304,-43.9663"/>
<polygon fill="black" stroke="black" points="242.875,-41.569 233.996,-35.789 237.333,-45.8447 242.875,-41.569"/>
</g>
<!-- ITakesStatusEffect&#45;&gt;IDealsStatusEffect -->
<g id="edge15" class="edge"><title>ITakesStatusEffect&#45;&gt;IDealsStatusEffect</title>
<path fill="none" stroke="black" d="M268.086,-107.956C262.51,-116.519 254.723,-127.065 247.073,-136.493"/>
<polygon fill="black" stroke="black" points="244.18,-134.496 240.445,-144.411 249.547,-138.989 244.18,-134.496"/>
</g>
</g>
</svg>
