<?xml version="1.0" encoding="UTF-8" standalone="no"?>
<!DOCTYPE svg PUBLIC "-//W3C//DTD SVG 1.1//EN"
 "http://www.w3.org/Graphics/SVG/1.1/DTD/svg11.dtd">
<!-- Generated by graphviz version 2.38.0 (20140413.2041)
 -->
<!-- Title: %3 Pages: 1 -->
<svg width="1124pt" height="260pt"
 viewBox="0.00 0.00 1124.49 260.00" xmlns="http://www.w3.org/2000/svg" xmlns:xlink="http://www.w3.org/1999/xlink">
<g id="graph0" class="graph" transform="scale(1 1) rotate(0) translate(4 256)">
<title>%3</title>
<polygon fill="white" stroke="none" points="-4,4 -4,-256 1120.49,-256 1120.49,4 -4,4"/>
<!-- SystemParticipator -->
<g id="node1" class="node"><title>SystemParticipator</title>
<ellipse fill="none" stroke="black" cx="850.943" cy="-162" rx="79.0865" ry="18"/>
<text text-anchor="middle" x="850.943" y="-158.3" font-family="Times New Roman,serif" font-size="14.00">SystemParticipator</text>
</g>
<!-- ISystemParticipator -->
<g id="node4" class="node"><title>ISystemParticipator</title>
<ellipse fill="none" stroke="black" stroke-dasharray="5,2" cx="850.943" cy="-90" rx="82.5854" ry="18"/>
<text text-anchor="middle" x="850.943" y="-86.3" font-family="Times New Roman,serif" font-size="14.00">ISystemParticipator</text>
</g>
<!-- SystemParticipator&#45;&gt;ISystemParticipator -->
<g id="edge1" class="edge"><title>SystemParticipator&#45;&gt;ISystemParticipator</title>
<path fill="none" stroke="black" stroke-dasharray="5,2" d="M850.943,-143.697C850.943,-135.983 850.943,-126.712 850.943,-118.112"/>
<polygon fill="black" stroke="black" points="854.443,-118.104 850.943,-108.104 847.443,-118.104 854.443,-118.104"/>
</g>
<!-- ConvertToInterface -->
<g id="node9" class="node"><title>ConvertToInterface</title>
<ellipse fill="#e5e5e5" stroke="black" cx="1033.94" cy="-90" rx="82.5854" ry="18"/>
<text text-anchor="middle" x="1033.94" y="-86.3" font-family="Times New Roman,serif" font-size="14.00">ConvertToInterface</text>
</g>
<!-- SystemParticipator&#45;&gt;ConvertToInterface -->
<g id="edge2" class="edge"><title>SystemParticipator&#45;&gt;ConvertToInterface</title>
<path fill="none" stroke="black" d="M889.752,-146.155C917.681,-135.472 955.544,-120.989 985.462,-109.545"/>
<polygon fill="black" stroke="black" points="986.785,-112.786 994.874,-105.944 984.284,-106.248 986.785,-112.786"/>
</g>
<!-- CollisionSystem -->
<g id="node2" class="node"><title>CollisionSystem</title>
<ellipse fill="#e5e5e5" stroke="black" cx="280.943" cy="-234" rx="69.5877" ry="18"/>
<text text-anchor="middle" x="280.943" y="-230.3" font-family="Times New Roman,serif" font-size="14.00">CollisionSystem</text>
</g>
<!-- IDealsDamage -->
<g id="node6" class="node"><title>IDealsDamage</title>
<ellipse fill="none" stroke="black" stroke-dasharray="5,2" cx="426.943" cy="-162" rx="63.0888" ry="18"/>
<text text-anchor="middle" x="426.943" y="-158.3" font-family="Times New Roman,serif" font-size="14.00">IDealsDamage</text>
</g>
<!-- CollisionSystem&#45;&gt;IDealsDamage -->
<g id="edge4" class="edge"><title>CollisionSystem&#45;&gt;IDealsDamage</title>
<path fill="none" stroke="black" d="M312.623,-217.811C334.367,-207.385 363.406,-193.463 386.774,-182.259"/>
<polygon fill="black" stroke="black" points="388.572,-185.278 396.076,-177.799 385.546,-178.966 388.572,-185.278"/>
</g>
<!-- ICollisionSystemParticipator -->
<g id="node7" class="node"><title>ICollisionSystemParticipator</title>
<ellipse fill="none" stroke="black" stroke-dasharray="5,2" cx="621.943" cy="-162" rx="114.28" ry="18"/>
<text text-anchor="middle" x="621.943" y="-158.3" font-family="Times New Roman,serif" font-size="14.00">ICollisionSystemParticipator</text>
</g>
<!-- CollisionSystem&#45;&gt;ICollisionSystemParticipator -->
<g id="edge3" class="edge"><title>CollisionSystem&#45;&gt;ICollisionSystemParticipator</title>
<path fill="none" stroke="black" d="M333.85,-222.139C390.495,-210.511 480.904,-191.952 545.328,-178.727"/>
<polygon fill="black" stroke="black" points="546.343,-182.092 555.435,-176.653 544.936,-175.235 546.343,-182.092"/>
</g>
<!-- ITakesStatusEffect -->
<g id="node8" class="node"><title>ITakesStatusEffect</title>
<ellipse fill="none" stroke="black" stroke-dasharray="5,2" cx="79.9429" cy="-162" rx="79.8859" ry="18"/>
<text text-anchor="middle" x="79.9429" y="-158.3" font-family="Times New Roman,serif" font-size="14.00">ITakesStatusEffect</text>
</g>
<!-- CollisionSystem&#45;&gt;ITakesStatusEffect -->
<g id="edge7" class="edge"><title>CollisionSystem&#45;&gt;ITakesStatusEffect</title>
<path fill="none" stroke="black" d="M241.232,-219.17C209.784,-208.218 165.617,-192.837 131.451,-180.938"/>
<polygon fill="black" stroke="black" points="132.242,-177.508 121.647,-177.524 129.94,-184.118 132.242,-177.508"/>
</g>
<!-- IDealsStatusEffect -->
<g id="node10" class="node"><title>IDealsStatusEffect</title>
<ellipse fill="none" stroke="black" stroke-dasharray="5,2" cx="132.943" cy="-90" rx="77.9862" ry="18"/>
<text text-anchor="middle" x="132.943" y="-86.3" font-family="Times New Roman,serif" font-size="14.00">IDealsStatusEffect</text>
</g>
<!-- CollisionSystem&#45;&gt;IDealsStatusEffect -->
<g id="edge6" class="edge"><title>CollisionSystem&#45;&gt;IDealsStatusEffect</title>
<path fill="none" stroke="black" d="M255.396,-217.063C240.541,-207.235 221.868,-193.886 206.943,-180 185.764,-160.296 165.005,-134.61 150.89,-115.9"/>
<polygon fill="black" stroke="black" points="153.672,-113.775 144.895,-107.841 148.056,-117.953 153.672,-113.775"/>
</g>
<!-- ITakesDamage -->
<g id="node11" class="node"><title>ITakesDamage</title>
<ellipse fill="none" stroke="black" stroke-dasharray="5,2" cx="280.943" cy="-162" rx="64.9885" ry="18"/>
<text text-anchor="middle" x="280.943" y="-158.3" font-family="Times New Roman,serif" font-size="14.00">ITakesDamage</text>
</g>
<!-- CollisionSystem&#45;&gt;ITakesDamage -->
<g id="edge5" class="edge"><title>CollisionSystem&#45;&gt;ITakesDamage</title>
<path fill="none" stroke="black" d="M280.943,-215.697C280.943,-207.983 280.943,-198.712 280.943,-190.112"/>
<polygon fill="black" stroke="black" points="284.443,-190.104 280.943,-180.104 277.443,-190.104 284.443,-190.104"/>
</g>
<!-- IStatusEffect -->
<g id="node3" class="node"><title>IStatusEffect</title>
<ellipse fill="none" stroke="black" stroke-dasharray="5,2" cx="79.9429" cy="-18" rx="57.6901" ry="18"/>
<text text-anchor="middle" x="79.9429" y="-14.3" font-family="Times New Roman,serif" font-size="14.00">IStatusEffect</text>
</g>
<!-- BaseCollisionSystemParticipator -->
<g id="node5" class="node"><title>BaseCollisionSystemParticipator</title>
<ellipse fill="none" stroke="black" cx="727.943" cy="-234" rx="129.177" ry="18"/>
<text text-anchor="middle" x="727.943" y="-230.3" font-family="Times New Roman,serif" font-size="14.00">BaseCollisionSystemParticipator</text>
</g>
<!-- BaseCollisionSystemParticipator&#45;&gt;SystemParticipator -->
<g id="edge8" class="edge"><title>BaseCollisionSystemParticipator&#45;&gt;SystemParticipator</title>
<path fill="none" stroke="black" stroke-width="2" d="M757.092,-216.411C774.031,-206.771 795.547,-194.526 813.703,-184.193"/>
<polygon fill="black" stroke="black" stroke-width="2" points="815.89,-186.976 822.85,-178.988 812.427,-180.892 815.89,-186.976"/>
</g>
<!-- BaseCollisionSystemParticipator&#45;&gt;ICollisionSystemParticipator -->
<g id="edge9" class="edge"><title>BaseCollisionSystemParticipator&#45;&gt;ICollisionSystemParticipator</title>
<path fill="none" stroke="black" stroke-dasharray="5,2" d="M702.553,-216.233C688.525,-206.969 670.915,-195.34 655.736,-185.316"/>
<polygon fill="black" stroke="black" points="657.399,-182.22 647.125,-179.63 653.541,-188.061 657.399,-182.22"/>
</g>
<!-- ICollisionSystemParticipator&#45;&gt;ISystemParticipator -->
<g id="edge10" class="edge"><title>ICollisionSystemParticipator&#45;&gt;ISystemParticipator</title>
<path fill="none" stroke="black" stroke-dasharray="5,2" d="M671.915,-145.725C708.278,-134.609 757.533,-119.553 795.175,-108.047"/>
<polygon fill="black" stroke="black" points="796.431,-111.323 804.971,-105.053 794.384,-104.629 796.431,-111.323"/>
</g>
<!-- ICollisionSystemParticipatorWrapper -->
<g id="node12" class="node"><title>ICollisionSystemParticipatorWrapper</title>
<ellipse fill="none" stroke="black" stroke-dasharray="5,2" cx="603.943" cy="-90" rx="146.774" ry="18"/>
<text text-anchor="middle" x="603.943" y="-86.3" font-family="Times New Roman,serif" font-size="14.00">ICollisionSystemParticipatorWrapper</text>
</g>
<!-- ICollisionSystemParticipator&#45;&gt;ICollisionSystemParticipatorWrapper -->
<g id="edge11" class="edge"><title>ICollisionSystemParticipator&#45;&gt;ICollisionSystemParticipatorWrapper</title>
<path fill="none" stroke="black" stroke-dasharray="5,2" d="M611.707,-144.055C608.907,-136.346 606.268,-127.027 604.374,-118.364"/>
<polygon fill="black" stroke="black" points="607.764,-117.454 602.472,-108.275 600.886,-118.751 607.764,-117.454"/>
</g>
<!-- ITakesStatusEffect&#45;&gt;IStatusEffect -->
<g id="edge13" class="edge"><title>ITakesStatusEffect&#45;&gt;IStatusEffect</title>
<path fill="none" stroke="black" d="M65.5425,-144.105C58.1152,-134.264 49.8182,-121.218 45.9429,-108 41.4414,-92.6463 41.4414,-87.3537 45.9429,-72 48.8191,-62.1898 54.1309,-52.4745 59.7152,-44.0938"/>
<polygon fill="black" stroke="black" points="62.6018,-46.0739 65.5425,-35.8954 56.8962,-42.0185 62.6018,-46.0739"/>
</g>
<!-- ITakesStatusEffect&#45;&gt;IDealsStatusEffect -->
<g id="edge12" class="edge"><title>ITakesStatusEffect&#45;&gt;IDealsStatusEffect</title>
<path fill="none" stroke="black" d="M86.8945,-144.055C92.4362,-135.543 100.165,-125.068 107.773,-115.681"/>
<polygon fill="black" stroke="black" points="110.642,-117.707 114.37,-107.789 105.271,-113.217 110.642,-117.707"/>
</g>
<!-- IDealsStatusEffect&#45;&gt;IStatusEffect -->
<g id="edge14" class="edge"><title>IDealsStatusEffect&#45;&gt;IStatusEffect</title>
<path fill="none" stroke="black" d="M120.113,-72.055C113.733,-63.6287 105.898,-53.2798 98.8459,-43.9663"/>
<polygon fill="black" stroke="black" points="101.481,-41.6489 92.6546,-35.789 95.9006,-45.8744 101.481,-41.6489"/>
</g>
<!-- IDealsStatusEffect&#45;&gt;ITakesStatusEffect -->
<g id="edge15" class="edge"><title>IDealsStatusEffect&#45;&gt;ITakesStatusEffect</title>
<path fill="none" stroke="black" d="M125.984,-107.956C120.409,-116.519 112.621,-127.065 104.971,-136.493"/>
<polygon fill="black" stroke="black" points="102.078,-134.496 98.3431,-144.411 107.446,-138.989 102.078,-134.496"/>
</g>
<!-- ICollisionSystemParticipatorWrapper&#45;&gt;ICollisionSystemParticipator -->
<g id="edge16" class="edge"><title>ICollisionSystemParticipatorWrapper&#45;&gt;ICollisionSystemParticipator</title>
<path fill="none" stroke="black" d="M614.236,-108.104C617.018,-115.791 619.636,-125.054 621.518,-133.665"/>
<polygon fill="black" stroke="black" points="618.117,-134.518 623.409,-143.697 624.996,-133.221 618.117,-134.518"/>
</g>
</g>
</svg>
