<?xml version="1.0" encoding="UTF-8" standalone="no"?>
<!DOCTYPE svg PUBLIC "-//W3C//DTD SVG 1.1//EN"
 "http://www.w3.org/Graphics/SVG/1.1/DTD/svg11.dtd">
<!-- Generated by graphviz version 2.38.0 (20140413.2041)
 -->
<!-- Title: %3 Pages: 1 -->
<svg width="470pt" height="188pt"
 viewBox="0.00 0.00 470.19 188.00" xmlns="http://www.w3.org/2000/svg" xmlns:xlink="http://www.w3.org/1999/xlink">
<g id="graph0" class="graph" transform="scale(1 1) rotate(0) translate(4 184)">
<title>%3</title>
<polygon fill="white" stroke="none" points="-4,4 -4,-184 466.189,-184 466.189,4 -4,4"/>
<!-- SpellSpawner -->
<g id="node1" class="node"><title>SpellSpawner</title>
<ellipse fill="none" stroke="black" cx="211.944" cy="-162" rx="60.3893" ry="18"/>
<text text-anchor="middle" x="211.944" y="-158.3" font-family="Times New Roman,serif" font-size="14.00">SpellSpawner</text>
</g>
<!-- ISpellVisualizer -->
<g id="node2" class="node"><title>ISpellVisualizer</title>
<ellipse fill="none" stroke="black" stroke-dasharray="5,2" cx="66.9441" cy="-90" rx="66.8882" ry="18"/>
<text text-anchor="middle" x="66.9441" y="-86.3" font-family="Times New Roman,serif" font-size="14.00">ISpellVisualizer</text>
</g>
<!-- SpellSpawner&#45;&gt;ISpellVisualizer -->
<g id="edge4" class="edge"><title>SpellSpawner&#45;&gt;ISpellVisualizer</title>
<path fill="none" stroke="black" d="M181.547,-146.326C159.92,-135.885 130.643,-121.751 107.095,-110.383"/>
<polygon fill="black" stroke="black" points="108.578,-107.213 98.0509,-106.017 105.535,-113.517 108.578,-107.213"/>
</g>
<!-- ISpellCaster -->
<g id="node3" class="node"><title>ISpellCaster</title>
<ellipse fill="none" stroke="black" stroke-dasharray="5,2" cx="406.944" cy="-90" rx="55.4913" ry="18"/>
<text text-anchor="middle" x="406.944" y="-86.3" font-family="Times New Roman,serif" font-size="14.00">ISpellCaster</text>
</g>
<!-- SpellSpawner&#45;&gt;ISpellCaster -->
<g id="edge1" class="edge"><title>SpellSpawner&#45;&gt;ISpellCaster</title>
<path fill="none" stroke="black" stroke-dasharray="5,2" d="M249.081,-147.669C281.064,-136.188 327.333,-119.578 361.517,-107.307"/>
<polygon fill="black" stroke="black" points="363.032,-110.482 371.261,-103.809 360.667,-103.894 363.032,-110.482"/>
</g>
<!-- ISpell -->
<g id="node4" class="node"><title>ISpell</title>
<ellipse fill="none" stroke="black" stroke-dasharray="5,2" cx="161.944" cy="-18" rx="31.6951" ry="18"/>
<text text-anchor="middle" x="161.944" y="-14.3" font-family="Times New Roman,serif" font-size="14.00">ISpell</text>
</g>
<!-- SpellSpawner&#45;&gt;ISpell -->
<g id="edge2" class="edge"><title>SpellSpawner&#45;&gt;ISpell</title>
<path fill="none" stroke="black" d="M200.143,-144.042C193.625,-133.972 185.875,-120.722 180.944,-108 173.2,-88.0209 168.328,-64.232 165.459,-46.2773"/>
<polygon fill="black" stroke="black" points="168.893,-45.572 163.96,-36.1959 161.969,-46.6021 168.893,-45.572"/>
</g>
<!-- ISpellInstantiator -->
<g id="node5" class="node"><title>ISpellInstantiator</title>
<ellipse fill="none" stroke="black" stroke-dasharray="5,2" cx="261.944" cy="-90" rx="72.2875" ry="18"/>
<text text-anchor="middle" x="261.944" y="-86.3" font-family="Times New Roman,serif" font-size="14.00">ISpellInstantiator</text>
</g>
<!-- SpellSpawner&#45;&gt;ISpellInstantiator -->
<g id="edge3" class="edge"><title>SpellSpawner&#45;&gt;ISpellInstantiator</title>
<path fill="none" stroke="black" d="M224.048,-144.055C230.066,-135.629 237.459,-125.28 244.111,-115.966"/>
<polygon fill="black" stroke="black" points="246.988,-117.961 249.952,-107.789 241.291,-113.892 246.988,-117.961"/>
</g>
<!-- ISpellVisualizer&#45;&gt;ISpell -->
<g id="edge5" class="edge"><title>ISpellVisualizer&#45;&gt;ISpell</title>
<path fill="none" stroke="black" d="M88.9778,-72.7646C102.724,-62.6361 120.509,-49.5309 135.08,-38.7949"/>
<polygon fill="black" stroke="black" points="137.257,-41.5377 143.232,-32.788 133.105,-35.9023 137.257,-41.5377"/>
</g>
<!-- IFlipX -->
<g id="node6" class="node"><title>IFlipX</title>
<ellipse fill="none" stroke="black" stroke-dasharray="5,2" cx="406.944" cy="-18" rx="34.394" ry="18"/>
<text text-anchor="middle" x="406.944" y="-14.3" font-family="Times New Roman,serif" font-size="14.00">IFlipX</text>
</g>
<!-- ISpellCaster&#45;&gt;IFlipX -->
<g id="edge6" class="edge"><title>ISpellCaster&#45;&gt;IFlipX</title>
<path fill="none" stroke="black" stroke-dasharray="5,2" d="M406.944,-71.6966C406.944,-63.9827 406.944,-54.7125 406.944,-46.1124"/>
<polygon fill="black" stroke="black" points="410.444,-46.1043 406.944,-36.1043 403.444,-46.1044 410.444,-46.1043"/>
</g>
<!-- ISpellInstantiator&#45;&gt;ISpell -->
<g id="edge7" class="edge"><title>ISpellInstantiator&#45;&gt;ISpell</title>
<path fill="none" stroke="black" d="M238.751,-72.7646C224.185,-62.5685 205.31,-49.356 189.916,-38.5805"/>
<polygon fill="black" stroke="black" points="191.513,-35.4263 181.314,-32.5589 187.499,-41.1609 191.513,-35.4263"/>
</g>
</g>
</svg>
