<?xml version="1.0" encoding="UTF-8" standalone="no"?>
<!DOCTYPE svg PUBLIC "-//W3C//DTD SVG 1.1//EN"
 "http://www.w3.org/Graphics/SVG/1.1/DTD/svg11.dtd">
<!-- Generated by graphviz version 2.38.0 (20140413.2041)
 -->
<!-- Title: %3 Pages: 1 -->
<svg width="448pt" height="188pt"
 viewBox="0.00 0.00 447.63 188.00" xmlns="http://www.w3.org/2000/svg" xmlns:xlink="http://www.w3.org/1999/xlink">
<g id="graph0" class="graph" transform="scale(1 1) rotate(0) translate(4 184)">
<title>%3</title>
<polygon fill="white" stroke="none" points="-4,4 -4,-184 443.629,-184 443.629,4 -4,4"/>
<!-- ISpellCaster -->
<g id="node1" class="node"><title>ISpellCaster</title>
<ellipse fill="none" stroke="black" stroke-dasharray="5,2" cx="55.2451" cy="-90" rx="55.4913" ry="18"/>
<text text-anchor="middle" x="55.2451" y="-86.3" font-family="Times New Roman,serif" font-size="14.00">ISpellCaster</text>
</g>
<!-- IFlipX -->
<g id="node4" class="node"><title>IFlipX</title>
<ellipse fill="none" stroke="black" stroke-dasharray="5,2" cx="55.2451" cy="-18" rx="34.394" ry="18"/>
<text text-anchor="middle" x="55.2451" y="-14.3" font-family="Times New Roman,serif" font-size="14.00">IFlipX</text>
</g>
<!-- ISpellCaster&#45;&gt;IFlipX -->
<g id="edge1" class="edge"><title>ISpellCaster&#45;&gt;IFlipX</title>
<path fill="none" stroke="black" stroke-dasharray="5,2" d="M55.2451,-71.6966C55.2451,-63.9827 55.2451,-54.7125 55.2451,-46.1124"/>
<polygon fill="black" stroke="black" points="58.7452,-46.1043 55.2451,-36.1043 51.7452,-46.1044 58.7452,-46.1043"/>
</g>
<!-- ISpellInstantiator -->
<g id="node2" class="node"><title>ISpellInstantiator</title>
<ellipse fill="none" stroke="black" stroke-dasharray="5,2" cx="200.245" cy="-90" rx="72.2875" ry="18"/>
<text text-anchor="middle" x="200.245" y="-86.3" font-family="Times New Roman,serif" font-size="14.00">ISpellInstantiator</text>
</g>
<!-- ISpell -->
<g id="node5" class="node"><title>ISpell</title>
<ellipse fill="none" stroke="black" stroke-dasharray="5,2" cx="357.245" cy="-18" rx="31.6951" ry="18"/>
<text text-anchor="middle" x="357.245" y="-14.3" font-family="Times New Roman,serif" font-size="14.00">ISpell</text>
</g>
<!-- ISpellInstantiator&#45;&gt;ISpell -->
<g id="edge2" class="edge"><title>ISpellInstantiator&#45;&gt;ISpell</title>
<path fill="none" stroke="black" d="M233.926,-73.9832C260.407,-62.1763 297.122,-45.8067 323.595,-34.0032"/>
<polygon fill="black" stroke="black" points="325.139,-37.147 332.847,-29.8781 322.289,-30.7537 325.139,-37.147"/>
</g>
<!-- ISpellVisualizer -->
<g id="node3" class="node"><title>ISpellVisualizer</title>
<ellipse fill="none" stroke="black" stroke-dasharray="5,2" cx="357.245" cy="-90" rx="66.8882" ry="18"/>
<text text-anchor="middle" x="357.245" y="-86.3" font-family="Times New Roman,serif" font-size="14.00">ISpellVisualizer</text>
</g>
<!-- ISpellVisualizer&#45;&gt;ISpell -->
<g id="edge3" class="edge"><title>ISpellVisualizer&#45;&gt;ISpell</title>
<path fill="none" stroke="black" d="M357.245,-71.6966C357.245,-63.9827 357.245,-54.7125 357.245,-46.1124"/>
<polygon fill="black" stroke="black" points="360.745,-46.1043 357.245,-36.1043 353.745,-46.1044 360.745,-46.1043"/>
</g>
<!-- SpellSpawner -->
<g id="node6" class="node"><title>SpellSpawner</title>
<ellipse fill="none" stroke="black" cx="278.245" cy="-162" rx="60.3893" ry="18"/>
<text text-anchor="middle" x="278.245" y="-158.3" font-family="Times New Roman,serif" font-size="14.00">SpellSpawner</text>
</g>
<!-- SpellSpawner&#45;&gt;ISpellCaster -->
<g id="edge4" class="edge"><title>SpellSpawner&#45;&gt;ISpellCaster</title>
<path fill="none" stroke="black" stroke-dasharray="5,2" d="M238.12,-148.405C200.238,-136.514 143.395,-118.67 103.153,-106.038"/>
<polygon fill="black" stroke="black" points="104.147,-102.682 93.5579,-103.026 102.051,-109.361 104.147,-102.682"/>
</g>
<!-- SpellSpawner&#45;&gt;ISpellInstantiator -->
<g id="edge6" class="edge"><title>SpellSpawner&#45;&gt;ISpellInstantiator</title>
<path fill="none" stroke="black" d="M260.154,-144.765C250.159,-135.795 237.563,-124.49 226.502,-114.564"/>
<polygon fill="black" stroke="black" points="228.56,-111.708 218.779,-107.633 223.884,-116.917 228.56,-111.708"/>
</g>
<!-- SpellSpawner&#45;&gt;ISpellVisualizer -->
<g id="edge7" class="edge"><title>SpellSpawner&#45;&gt;ISpellVisualizer</title>
<path fill="none" stroke="black" d="M296.568,-144.765C306.863,-135.642 319.884,-124.105 331.222,-114.059"/>
<polygon fill="black" stroke="black" points="333.585,-116.641 338.748,-107.39 328.942,-111.402 333.585,-116.641"/>
</g>
<!-- SpellSpawner&#45;&gt;ISpell -->
<g id="edge5" class="edge"><title>SpellSpawner&#45;&gt;ISpell</title>
<path fill="none" stroke="black" d="M336.747,-157.237C370.885,-151.675 411.413,-138.539 433.245,-108 442.55,-94.9841 440.647,-86.1851 433.245,-72 424.412,-55.0713 407.43,-42.4466 391.756,-33.7742"/>
<polygon fill="black" stroke="black" points="393.24,-30.6018 382.749,-29.1221 390.028,-36.8211 393.24,-30.6018"/>
</g>
</g>
</svg>
