<?xml version="1.0" encoding="UTF-8" standalone="no"?>
<!DOCTYPE svg PUBLIC "-//W3C//DTD SVG 1.1//EN"
 "http://www.w3.org/Graphics/SVG/1.1/DTD/svg11.dtd">
<!-- Generated by graphviz version 2.38.0 (20140413.2041)
 -->
<!-- Title: %3 Pages: 1 -->
<svg width="470pt" height="188pt"
 viewBox="0.00 0.00 470.19 188.00" xmlns="http://www.w3.org/2000/svg" xmlns:xlink="http://www.w3.org/1999/xlink">
<g id="graph0" class="graph" transform="scale(1 1) rotate(0) translate(4 184)">
<title>%3</title>
<polygon fill="white" stroke="none" points="-4,4 -4,-184 466.189,-184 466.189,4 -4,4"/>
<!-- SpellSpawner -->
<g id="node1" class="node"><title>SpellSpawner</title>
<ellipse fill="none" stroke="black" cx="250.245" cy="-162" rx="60.3893" ry="18"/>
<text text-anchor="middle" x="250.245" y="-158.3" font-family="Times New Roman,serif" font-size="14.00">SpellSpawner</text>
</g>
<!-- ISpellCaster -->
<g id="node2" class="node"><title>ISpellCaster</title>
<ellipse fill="none" stroke="black" stroke-dasharray="5,2" cx="55.2451" cy="-90" rx="55.4913" ry="18"/>
<text text-anchor="middle" x="55.2451" y="-86.3" font-family="Times New Roman,serif" font-size="14.00">ISpellCaster</text>
</g>
<!-- SpellSpawner&#45;&gt;ISpellCaster -->
<g id="edge1" class="edge"><title>SpellSpawner&#45;&gt;ISpellCaster</title>
<path fill="none" stroke="black" stroke-dasharray="5,2" d="M213.108,-147.669C181.125,-136.188 134.856,-119.578 100.672,-107.307"/>
<polygon fill="black" stroke="black" points="101.522,-103.894 90.9278,-103.809 99.1572,-110.482 101.522,-103.894"/>
</g>
<!-- ISpellInstantiator -->
<g id="node3" class="node"><title>ISpellInstantiator</title>
<ellipse fill="none" stroke="black" stroke-dasharray="5,2" cx="200.245" cy="-90" rx="72.2875" ry="18"/>
<text text-anchor="middle" x="200.245" y="-86.3" font-family="Times New Roman,serif" font-size="14.00">ISpellInstantiator</text>
</g>
<!-- SpellSpawner&#45;&gt;ISpellInstantiator -->
<g id="edge3" class="edge"><title>SpellSpawner&#45;&gt;ISpellInstantiator</title>
<path fill="none" stroke="black" d="M238.141,-144.055C232.123,-135.629 224.731,-125.28 218.078,-115.966"/>
<polygon fill="black" stroke="black" points="220.898,-113.892 212.237,-107.789 215.202,-117.961 220.898,-113.892"/>
</g>
<!-- ISpell -->
<g id="node4" class="node"><title>ISpell</title>
<ellipse fill="none" stroke="black" stroke-dasharray="5,2" cx="300.245" cy="-18" rx="31.6951" ry="18"/>
<text text-anchor="middle" x="300.245" y="-14.3" font-family="Times New Roman,serif" font-size="14.00">ISpell</text>
</g>
<!-- SpellSpawner&#45;&gt;ISpell -->
<g id="edge2" class="edge"><title>SpellSpawner&#45;&gt;ISpell</title>
<path fill="none" stroke="black" d="M262.047,-144.042C268.564,-133.972 276.314,-120.722 281.245,-108 288.989,-88.0209 293.861,-64.232 296.73,-46.2773"/>
<polygon fill="black" stroke="black" points="300.22,-46.6021 298.23,-36.1959 293.296,-45.572 300.22,-46.6021"/>
</g>
<!-- ISpellVisualizer -->
<g id="node6" class="node"><title>ISpellVisualizer</title>
<ellipse fill="none" stroke="black" stroke-dasharray="5,2" cx="395.245" cy="-90" rx="66.8882" ry="18"/>
<text text-anchor="middle" x="395.245" y="-86.3" font-family="Times New Roman,serif" font-size="14.00">ISpellVisualizer</text>
</g>
<!-- SpellSpawner&#45;&gt;ISpellVisualizer -->
<g id="edge4" class="edge"><title>SpellSpawner&#45;&gt;ISpellVisualizer</title>
<path fill="none" stroke="black" d="M280.642,-146.326C302.269,-135.885 331.546,-121.751 355.095,-110.383"/>
<polygon fill="black" stroke="black" points="356.654,-113.517 364.138,-106.017 353.611,-107.213 356.654,-113.517"/>
</g>
<!-- IFlipX -->
<g id="node5" class="node"><title>IFlipX</title>
<ellipse fill="none" stroke="black" stroke-dasharray="5,2" cx="55.2451" cy="-18" rx="34.394" ry="18"/>
<text text-anchor="middle" x="55.2451" y="-14.3" font-family="Times New Roman,serif" font-size="14.00">IFlipX</text>
</g>
<!-- ISpellCaster&#45;&gt;IFlipX -->
<g id="edge5" class="edge"><title>ISpellCaster&#45;&gt;IFlipX</title>
<path fill="none" stroke="black" stroke-dasharray="5,2" d="M55.2451,-71.6966C55.2451,-63.9827 55.2451,-54.7125 55.2451,-46.1124"/>
<polygon fill="black" stroke="black" points="58.7452,-46.1043 55.2451,-36.1043 51.7452,-46.1044 58.7452,-46.1043"/>
</g>
<!-- ISpellInstantiator&#45;&gt;ISpell -->
<g id="edge6" class="edge"><title>ISpellInstantiator&#45;&gt;ISpell</title>
<path fill="none" stroke="black" d="M223.438,-72.7646C238.004,-62.5685 256.879,-49.356 272.273,-38.5805"/>
<polygon fill="black" stroke="black" points="274.69,-41.1609 280.875,-32.5589 270.676,-35.4263 274.69,-41.1609"/>
</g>
<!-- ISpellVisualizer&#45;&gt;ISpell -->
<g id="edge7" class="edge"><title>ISpellVisualizer&#45;&gt;ISpell</title>
<path fill="none" stroke="black" d="M373.211,-72.7646C359.465,-62.6361 341.68,-49.5309 327.11,-38.7949"/>
<polygon fill="black" stroke="black" points="329.084,-35.9023 318.957,-32.788 324.932,-41.5377 329.084,-35.9023"/>
</g>
</g>
</svg>
