<?xml version="1.0" encoding="UTF-8" standalone="no"?>
<!DOCTYPE svg PUBLIC "-//W3C//DTD SVG 1.1//EN"
 "http://www.w3.org/Graphics/SVG/1.1/DTD/svg11.dtd">
<!-- Generated by graphviz version 2.38.0 (20140413.2041)
 -->
<!-- Title: %3 Pages: 1 -->
<svg width="448pt" height="188pt"
 viewBox="0.00 0.00 447.62 188.00" xmlns="http://www.w3.org/2000/svg" xmlns:xlink="http://www.w3.org/1999/xlink">
<g id="graph0" class="graph" transform="scale(1 1) rotate(0) translate(4 184)">
<title>%3</title>
<polygon fill="white" stroke="none" points="-4,4 -4,-184 443.623,-184 443.623,4 -4,4"/>
<!-- ISpell -->
<g id="node1" class="node"><title>ISpell</title>
<ellipse fill="none" stroke="black" stroke-dasharray="5,2" cx="82.3783" cy="-18" rx="31.6951" ry="18"/>
<text text-anchor="middle" x="82.3783" y="-14.3" font-family="Times New Roman,serif" font-size="14.00">ISpell</text>
</g>
<!-- SpellSpawner -->
<g id="node2" class="node"><title>SpellSpawner</title>
<ellipse fill="none" stroke="black" cx="160.378" cy="-162" rx="60.3893" ry="18"/>
<text text-anchor="middle" x="160.378" y="-158.3" font-family="Times New Roman,serif" font-size="14.00">SpellSpawner</text>
</g>
<!-- SpellSpawner&#45;&gt;ISpell -->
<g id="edge2" class="edge"><title>SpellSpawner&#45;&gt;ISpell</title>
<path fill="none" stroke="black" d="M101.858,-157.064C68.0161,-151.426 27.9723,-138.269 6.37833,-108 -2.91392,-94.9749 -1.02318,-86.1851 6.37833,-72 15.2114,-55.0713 32.1932,-42.4466 47.8677,-33.7742"/>
<polygon fill="black" stroke="black" points="49.5956,-36.8211 56.874,-29.1221 46.383,-30.6018 49.5956,-36.8211"/>
</g>
<!-- ISpellVisualizer -->
<g id="node3" class="node"><title>ISpellVisualizer</title>
<ellipse fill="none" stroke="black" stroke-dasharray="5,2" cx="82.3783" cy="-90" rx="66.8882" ry="18"/>
<text text-anchor="middle" x="82.3783" y="-86.3" font-family="Times New Roman,serif" font-size="14.00">ISpellVisualizer</text>
</g>
<!-- SpellSpawner&#45;&gt;ISpellVisualizer -->
<g id="edge4" class="edge"><title>SpellSpawner&#45;&gt;ISpellVisualizer</title>
<path fill="none" stroke="black" d="M142.288,-144.765C132.22,-135.73 119.513,-124.326 108.395,-114.349"/>
<polygon fill="black" stroke="black" points="110.421,-111.464 100.641,-107.39 105.746,-116.674 110.421,-111.464"/>
</g>
<!-- ISpellCaster -->
<g id="node4" class="node"><title>ISpellCaster</title>
<ellipse fill="none" stroke="black" stroke-dasharray="5,2" cx="384.378" cy="-90" rx="55.4913" ry="18"/>
<text text-anchor="middle" x="384.378" y="-86.3" font-family="Times New Roman,serif" font-size="14.00">ISpellCaster</text>
</g>
<!-- SpellSpawner&#45;&gt;ISpellCaster -->
<g id="edge1" class="edge"><title>SpellSpawner&#45;&gt;ISpellCaster</title>
<path fill="none" stroke="black" stroke-dasharray="5,2" d="M200.425,-148.485C238.44,-136.606 295.635,-118.732 336.142,-106.074"/>
<polygon fill="black" stroke="black" points="337.301,-109.379 345.802,-103.055 335.213,-102.697 337.301,-109.379"/>
</g>
<!-- ISpellInstantiator -->
<g id="node6" class="node"><title>ISpellInstantiator</title>
<ellipse fill="none" stroke="black" stroke-dasharray="5,2" cx="239.378" cy="-90" rx="72.2875" ry="18"/>
<text text-anchor="middle" x="239.378" y="-86.3" font-family="Times New Roman,serif" font-size="14.00">ISpellInstantiator</text>
</g>
<!-- SpellSpawner&#45;&gt;ISpellInstantiator -->
<g id="edge3" class="edge"><title>SpellSpawner&#45;&gt;ISpellInstantiator</title>
<path fill="none" stroke="black" d="M178.701,-144.765C188.923,-135.708 201.83,-124.27 213.11,-114.276"/>
<polygon fill="black" stroke="black" points="215.443,-116.885 220.606,-107.633 210.801,-111.646 215.443,-116.885"/>
</g>
<!-- ISpellVisualizer&#45;&gt;ISpell -->
<g id="edge5" class="edge"><title>ISpellVisualizer&#45;&gt;ISpell</title>
<path fill="none" stroke="black" d="M82.3783,-71.6966C82.3783,-63.9827 82.3783,-54.7125 82.3783,-46.1124"/>
<polygon fill="black" stroke="black" points="85.8784,-46.1043 82.3783,-36.1043 78.8784,-46.1044 85.8784,-46.1043"/>
</g>
<!-- IFlipX -->
<g id="node5" class="node"><title>IFlipX</title>
<ellipse fill="none" stroke="black" stroke-dasharray="5,2" cx="384.378" cy="-18" rx="34.394" ry="18"/>
<text text-anchor="middle" x="384.378" y="-14.3" font-family="Times New Roman,serif" font-size="14.00">IFlipX</text>
</g>
<!-- ISpellCaster&#45;&gt;IFlipX -->
<g id="edge6" class="edge"><title>ISpellCaster&#45;&gt;IFlipX</title>
<path fill="none" stroke="black" stroke-dasharray="5,2" d="M384.378,-71.6966C384.378,-63.9827 384.378,-54.7125 384.378,-46.1124"/>
<polygon fill="black" stroke="black" points="387.878,-46.1043 384.378,-36.1043 380.878,-46.1044 387.878,-46.1043"/>
</g>
<!-- ISpellInstantiator&#45;&gt;ISpell -->
<g id="edge7" class="edge"><title>ISpellInstantiator&#45;&gt;ISpell</title>
<path fill="none" stroke="black" d="M205.698,-73.9832C179.217,-62.1763 142.502,-45.8067 116.028,-34.0032"/>
<polygon fill="black" stroke="black" points="117.335,-30.7537 106.776,-29.8781 114.484,-37.147 117.335,-30.7537"/>
</g>
</g>
</svg>
